<svg xmlns="http://www.w3.org/2000/svg" viewBox="0 0 512 512">
  <defs>
    <radialGradient id="space" cx="50%" cy="42%" r="65%">
      <stop offset="0%" stop-color="#07336b"/>
      <stop offset="58%" stop-color="#03162f"/>
      <stop offset="100%" stop-color="#01050d"/>
    </radialGradient>
    <linearGradient id="orbit" x1="0%" y1="0%" x2="100%" y2="100%">
      <stop offset="0%" stop-color="#00d9ff"/>
      <stop offset="55%" stop-color="#75fff5"/>
      <stop offset="100%" stop-color="#ffd15a"/>
    </linearGradient>
  </defs>
  <rect width="512" height="512" rx="96" fill="url(#space)"/>
  <circle cx="256" cy="226" r="154" fill="none" stroke="url(#orbit)" stroke-width="12"/>
  <g fill="none" stroke="#54eeff" stroke-linecap="round" stroke-width="7">
    <path d="M115 228h282"/>
    <path d="M164 123l184 214"/>
    <path d="M169 329c61-7 121-39 176-136"/>
    <path d="M201 113c-14 74 5 146 89 218"/>
  </g>
  <g fill="#eaffff" stroke="#54eeff" stroke-width="5">
    <circle cx="156" cy="228" r="13"/>
    <circle cx="217" cy="184" r="19"/>
    <circle cx="270" cy="229" r="16"/>
    <circle cx="329" cy="228" r="23"/>
    <circle cx="288" cy="153" r="14"/>
    <circle cx="247" cy="291" r="20"/>
    <circle cx="309" cy="278" r="13"/>
  </g>
  <text x="256" y="421" fill="#ffd15a" font-family="Arial, sans-serif" font-size="48" letter-spacing="12" text-anchor="middle">NABUX</text>
  <text x="256" y="463" fill="#eaffff" font-family="Arial, sans-serif" font-size="20" letter-spacing="9" text-anchor="middle">REMOTE</text>
</svg>
