<svg xmlns="http://www.w3.org/2000/svg" width="32" height="32" style="isolation:isolate" viewBox="91.748 41.508 32 32"><path fill="none" d="M91.748 41.508h32v32h-32v-32Z"/><path fill-rule="evenodd" d="M104.884 48.3h5.728c1.363 0 2.47.94 2.47 2.098v11.448c0 1.158-1.107 2.098-2.47 2.098h-5.728c-1.363 0-2.469-.94-2.469-2.098V50.398c0-1.158 1.106-2.098 2.469-2.098Zm-.004-2.692h5.729a5.162 5.162 0 0 1 5.164 5.164v13.472a5.164 5.164 0 0 1-1.514 3.649 5.143 5.143 0 0 1-3.65 1.515h-5.729a5.164 5.164 0 0 1-5.157-5.164V50.772c0-1.374.538-2.687 1.508-3.656a5.182 5.182 0 0 1 3.649-1.508Zm1.407 21.076a1.462 1.462 0 0 1 2.922 0 1.461 1.461 0 0 1-2.922 0Z"/></svg>