<?xml version="1.0" encoding="UTF-8" standalone="no"?>
<!-- Generator: Gravit.io -->
<svg xmlns="http://www.w3.org/2000/svg" xmlns:xlink="http://www.w3.org/1999/xlink" style="isolation:isolate" viewBox="490.359 536.93 32.551 32" width="32.551pt" height="32pt"><path d=" M 496.884 536.93 L 516.385 536.93 C 518.111 536.93 519.771 537.619 520.996 538.844 C 522.221 540.062 522.91 541.722 522.91 543.455 L 522.91 562.405 C 522.91 564.138 522.221 565.798 520.996 567.016 C 519.771 568.241 518.111 568.93 516.385 568.93 L 496.884 568.93 C 495.158 568.93 493.498 568.241 492.273 567.016 C 491.048 565.798 490.359 564.138 490.359 562.405 L 490.359 543.455 C 490.359 541.722 491.048 540.062 492.273 538.844 C 493.498 537.619 495.158 536.93 496.884 536.93 Z  M 508.388 551.016 L 509.259 542.964 C 509.395 541.704 508.98 541.565 508.332 542.655 L 501.475 554.186 C 501.259 554.549 501.427 554.844 501.85 554.844 L 504.881 554.844 L 504.011 562.896 C 503.874 564.156 504.29 564.295 504.938 563.205 L 511.794 551.674 C 512.01 551.311 511.842 551.016 511.42 551.016 L 508.388 551.016 Z " fill-rule="evenodd" fill="rgb(0,113,255)"/></svg>