<svg width="553" height="553"><path fill="#fff" d="M77 179a33 33 0 0 0-25 10 33 33 0 0 0-9 24v143a33 33 0 0 0 10 24 33 33 0 0 0 24 10c9 0 17-3 24-10a33 33 0 0 0 10-24V213c0-9-4-17-10-24a33 33 0 0 0-24-10zM352 51l24-44c1-3 1-5-2-6-3-2-5-1-7 2l-24 43a163 163 0 0 0-133 0L186 3c-2-3-4-4-7-2-2 1-3 3-1 6l23 44c-24 12-43 29-57 51a129 129 0 0 0-21 72h307c0-26-7-50-21-72a146 146 0 0 0-57-51zm-136 63a13 13 0 0 1-10 4 13 13 0 0 1-12-13c0-4 1-7 3-9 3-3 6-4 9-4s7 1 10 4c2 2 3 5 3 9s-1 7-3 9zm140 0a12 12 0 0 1-9 4c-4 0-7-1-9-4a12 12 0 0 1-4-9c0-4 1-7 4-9 2-3 5-4 9-4a12 12 0 0 1 9 4c2 2 3 5 3 9s-1 7-3 9zM124 407c0 10 4 19 11 26s15 10 26 10h24v76c0 9 4 17 10 24s15 10 24 10c10 0 18-3 25-10s10-15 10-24v-76h45v76c0 9 4 17 10 24s15 10 25 10c9 0 17-3 24-10s10-15 10-24v-76h25a35 35 0 0 0 25-10c7-7 11-16 11-26V185H124v222zm352-228a33 33 0 0 0-24 10 33 33 0 0 0-10 24v143a34 34 0 0 0 34 34c10 0 18-3 25-10s10-15 10-24V213c0-9-4-17-10-24a33 33 0 0 0-25-10z"/></svg>