<?xml version="1.0" encoding="UTF-8" standalone="no"?>
<svg xmlns="http://www.w3.org/2000/svg" xmlns:xlink="http://www.w3.org/1999/xlink" style="isolation:isolate" viewBox="305.118 110.478 32 32" width="32" height="32"><g><path d=" M 305.118 110.478 L 337.118 110.478 L 337.118 142.478 L 305.118 142.478 L 305.118 110.478 Z " fill="none"/><path d=" M 322.26 126.052 L 316.297 120.09 C 315.72 119.512 315.72 118.574 316.297 117.997 L 316.297 117.997 C 316.875 117.419 317.813 117.419 318.39 117.997 L 326.02 125.627 C 326.49 126.097 326.49 126.86 326.02 127.33 L 318.39 134.959 C 317.813 135.537 316.875 135.537 316.297 134.959 L 316.297 134.959 C 315.72 134.382 315.72 133.444 316.297 132.866 L 322.26 126.904 C 322.495 126.669 322.495 126.287 322.26 126.052 Z " fill="rgb(0,0,0)"/></g></svg>