<svg xmlns="http://www.w3.org/2000/svg" xmlns:xlink="http://www.w3.org/1999/xlink" style="isolation:isolate" viewBox="-132.5 51.6 32 32" width="32pt" height="32pt"><g><path d=" M -132.5 51.6 L -100.5 51.6 L -100.5 83.6 L -132.5 83.6 L -132.5 51.6 Z " fill="none"/><path d=" M -121.174 62.931 L -124.45 62.931 C -126.106 62.931 -127.45 64.275 -127.45 65.931 L -127.45 69.269 C -127.45 70.925 -126.106 72.269 -124.45 72.269 L -121.174 72.269 L -117.5 75.112 C -116.368 75.987 -115.45 75.537 -115.45 74.106 L -115.45 61.094 C -115.45 59.663 -116.368 59.213 -117.5 60.088 L -121.174 62.931 Z  M -112.94 65.028 C -113.17 64.898 -113.34 64.678 -113.41 64.428 C -113.48 64.168 -113.45 63.898 -113.32 63.668 C -113.19 63.438 -112.97 63.268 -112.72 63.198 C -112.46 63.128 -112.19 63.158 -111.96 63.288 C -110.41 64.168 -109.45 65.818 -109.45 67.598 C -109.45 69.378 -110.41 71.038 -111.96 71.908 C -112.19 72.048 -112.46 72.078 -112.72 72.008 C -112.97 71.938 -113.19 71.768 -113.32 71.538 C -113.45 71.308 -113.48 71.028 -113.41 70.778 C -113.34 70.518 -113.17 70.308 -112.94 70.168 C -112.02 69.648 -111.45 68.668 -111.45 67.598 C -111.45 66.538 -112.02 65.548 -112.94 65.028 Z  M -110.85 61.908 C -111.08 61.778 -111.25 61.568 -111.32 61.308 C -111.39 61.058 -111.36 60.778 -111.22 60.548 C -111.09 60.318 -110.88 60.148 -110.62 60.078 C -110.37 60.008 -110.09 60.038 -109.86 60.168 C -107.19 61.688 -105.54 64.528 -105.55 67.598 C -105.54 70.668 -107.19 73.518 -109.86 75.028 C -110.09 75.158 -110.37 75.188 -110.62 75.118 C -110.88 75.048 -111.09 74.878 -111.22 74.648 C -111.36 74.418 -111.39 74.148 -111.32 73.888 C -111.25 73.638 -111.08 73.418 -110.85 73.288 C -108.8 72.128 -107.54 69.948 -107.55 67.598 C -107.54 65.248 -108.8 63.068 -110.85 61.908 Z " fill-rule="evenodd" fill="rgb(0,0,0)"/></g></svg>