<svg xmlns="http://www.w3.org/2000/svg" width="400" height="400"><g fill-rule="evenodd"><path fill="#5cc46c" d="M63.8 266c-19.359 19.36-35.424 35.2-35.699 35.2-.695 0-.614.432.299 1.6.43.55.786 1.225.791 1.5.005.275.167.5.36.5.194 0 .576.54.849 1.2.273.66.655 1.2.849 1.2.193 0 .351.236.351.525 0 .288.315.873.7 1.3.385.426.955 1.27 1.268 1.875.312.605.717 1.1.9 1.1.182 0 .332.236.332.525 0 .288.36.911.8 1.383.44.472.8 1.046.8 1.275 0 .229.18.417.4.417.22 0 .4.27.4.6 0 .33.141.6.314.6.172 0 .606.495.965 1.1.358.605.993 1.494 1.411 1.975a34.055 34.055 0 0 1 1.535 1.944c.426.588.958 1.275 1.181 1.525.223.251 1.033 1.265 1.8 2.255 1.914 2.469 2.734 3.461 4.594 5.554.88.991 2.05 2.335 2.6 2.988 2.992 3.552 19.052 19.043 20.135 19.422.256.089.735.449 1.065.801 1.076 1.145 5.282 4.436 5.67 4.436.207 0 .266.18.13.4-.136.22.035.4.38.4s1.192.54 1.883 1.2c.691.66 1.459 1.2 1.708 1.2.249 0 .712.36 1.029.8.317.44.807.8 1.088.8.282 0 .512.18.512.4 0 .22.27.4.6.4.33 0 .6.15.6.332 0 .183.495.588 1.1.9.605.313 1.449.883 1.875 1.268.427.385.997.7 1.267.7.27 0 .551.163.625.363.073.199 2.113 1.553 4.533 3.008 2.42 1.456 4.67 2.829 5 3.052.33.223 1.095.619 1.7.879s1.1.614 1.1.786c0 .171.36.312.8.312.44 0 .8.18.8.4 0 .22.36.4.8.4.44 0 .8.18.8.4 0 .22.36.4.8.4.44 0 .8.146.8.325 0 .179.63.573 1.4.875.77.302 1.4.696 1.4.875 0 .179.36.325.8.325.44 0 .8.18.8.4 0 .22.36.4.8.4.44 0 .8.18.8.4 0 .22.36.4.8.4.44 0 .8.18.8.4 0 .22.253.4.562.4.485 0 1.758.552 4.733 2.05.382.193.967.35 1.3.35.333 0 .605.18.605.4 0 .22.272.4.604.4.333 0 1.458.378 2.5.84 1.043.462 2.256.978 2.696 1.146.44.169 1.25.499 1.8.734s2.17.812 3.6 1.283c1.43.47 2.87.959 3.2 1.086 1.092.422 1.784.588 3.3.793.825.111 1.5.363 1.5.56 0 .197.529.358 1.176.358.647 0 1.288.18 1.424.4.136.22.766.4 1.4.4.634 0 1.264.18 1.4.4.136.22.766.4 1.4.4.634 0 1.264.18 1.4.4.136.22.856.4 1.6.4.744 0 1.464.18 1.6.4.136.22.946.4 1.8.4.854 0 1.664.18 1.8.4.136.22.946.4 1.8.4.854 0 1.664.18 1.8.4.136.22 1.137.4 2.224.4 1.087 0 1.976.18 1.976.4 0 .22.979.4 2.176.4s2.288.18 2.424.4c.136.22 1.461.4 2.944.4 1.483 0 2.888.192 3.123.427.271.271 4.73.512 12.28.662l11.853.236v-94.797l-1.019-.464c-.605-.275-3.114-.464-6.176-.464-3.007 0-5.261-.167-5.405-.4-.136-.22-1.306-.4-2.6-.4s-2.464-.18-2.6-.4c-.136-.22-1.036-.4-2-.4s-1.864-.18-2-.4c-.136-.22-.946-.4-1.8-.4-.854 0-1.664-.18-1.8-.4-.136-.22-.777-.4-1.424-.4-.647 0-1.176-.16-1.176-.356 0-.196-.585-.458-1.3-.581-3.012-.521-3.9-.773-3.9-1.108 0-.195-.439-.355-.976-.355-.537 0-1.066-.144-1.175-.321-.109-.176-1.11-.569-2.224-.872-1.114-.303-2.025-.699-2.025-.879 0-.181-.236-.328-.525-.328-.805 0-9.99-4.409-10.208-4.9-.074-.165-.479-.3-.9-.3-.422 0-.767-.18-.767-.4 0-.22-.32-.4-.712-.4-.391 0-.971-.36-1.288-.8-.317-.44-.897-.8-1.288-.8-.392 0-.712-.15-.712-.332 0-.183-.492-.588-1.094-.9-1.086-.564-2.109-1.307-3.122-2.268-.29-.275-.72-.5-.955-.5-.236 0-.429-.18-.429-.4 0-.22-.255-.4-.567-.4-.311 0-.626-.135-.7-.3-.073-.165-.792-.84-1.598-1.5l-3.171-2.6c-3.684-3.022-11.345-10.93-14.349-14.81-.762-.985-1.527-1.85-1.7-1.923-.173-.074-.315-.349-.315-.612s-.36-.738-.8-1.055c-.44-.317-.8-.78-.8-1.029 0-.249-.54-1.017-1.2-1.708-.66-.691-1.2-1.527-1.2-1.859 0-.332-.18-.604-.4-.604-.22 0-.4-.236-.4-.525 0-.288-.36-.911-.8-1.383-.44-.472-.8-1.121-.8-1.442 0-.321-.158-.643-.351-.717-.194-.073-1.555-2.653-3.025-5.733-1.47-3.08-2.842-5.913-3.049-6.295-.206-.382-.375-.967-.375-1.3 0-.333-.18-.605-.4-.605-.22 0-.4-.414-.4-.92s-.149-1.091-.33-1.3c-.182-.209-.575-1.19-.872-2.18-.549-1.823-1.089-2.8-1.548-2.8-.138 0-16.091 15.84-35.45 35.2"/><path fill="#f85412" d="M179.003.276c-1.978.087-3.769.33-3.98.541-.211.211-1.607.383-3.103.383-1.547 0-2.72.173-2.72.4 0 .222-1.067.4-2.4.4s-2.4.178-2.4.4c0 .22-.799.4-1.776.4s-1.888.18-2.024.4c-.136.22-1.047.4-2.024.4-.977 0-1.776.18-1.776.4 0 .22-.72.4-1.6.4-.88 0-1.6.18-1.6.4 0 .22-.72.4-1.6.4-.88 0-1.6.18-1.6.4 0 .22-.72.4-1.6.4-.88 0-1.6.18-1.6.4 0 .22-.529.4-1.176.4-.647 0-1.288.18-1.424.4-.136.22-.777.4-1.424.4-.647 0-1.176.18-1.176.4 0 .22-.429.4-.954.4-1.024 0-4.799 1.04-5.941 1.637-.382.2-.969.363-1.305.363-.336 0-.923.159-1.305.353-.716.364-2.341 1.058-4.095 1.747-.55.216-1.313.552-1.695.747-.382.194-.967.353-1.3.353-.333 0-.605.18-.605.4 0 .22-.439.4-.976.4-.537 0-1.088.18-1.224.4-.136.22-.597.4-1.024.4-.427 0-.776.18-.776.4 0 .22-.36.4-.8.4-.44 0-.8.18-.8.4 0 .22-.36.4-.8.4-.44 0-.8.18-.8.4 0 .22-.349.4-.776.4-.427 0-.888.18-1.024.4-.136.22-.597.4-1.024.4-.427 0-.776.18-.776.4 0 .22-.36.4-.8.4-.44 0-.8.18-.8.4 0 .22-.36.4-.8.4-.44 0-.8.18-.8.4 0 .22-.345.4-.767.4-.421 0-.826.135-.9.3-.167.376-2.297 1.675-3.233 1.971-.385.122-.7.381-.7.576 0 .194-.36.353-.8.353-.44 0-.8.18-.8.4 0 .22-.242.4-.539.4-.588 0-3.139 1.178-3.461 1.598-.11.144-1.01.698-2 1.232-.99.533-1.89 1.06-2 1.171-.11.11-.695.455-1.3.767-.605.312-1.1.717-1.1.9 0 .182-.27.332-.6.332-.33 0-.6.158-.6.351 0 .194-.54.576-1.2.849-.66.273-1.2.655-1.2.849 0 .193-.243.351-.541.351-.297 0-1.105.54-1.796 1.2-.691.66-1.488 1.2-1.771 1.2-.283 0-.775.36-1.092.8-.317.44-.825.8-1.128.8-.303 0-1.055.54-1.672 1.2-.617.66-1.292 1.2-1.501 1.2-.209 0-.945.54-1.636 1.2-.691.66-1.4 1.2-1.576 1.2-.176 0-.943.586-1.704 1.303a31.376 31.376 0 0 1-2.783 2.295c-.77.545-2.141 1.714-3.046 2.597-1.863 1.818-3.27 3.005-3.56 3.005-.483 0-14.594 14.533-14.594 15.031 0 .121-.86 1.064-1.911 2.095-1.051 1.031-2.354 2.504-2.896 3.274a27.29 27.29 0 0 1-2.121 2.593c-.625.657-1.431 1.692-1.791 2.3-.359.609-.795 1.107-.967 1.107-.173 0-.314.27-.314.6 0 .33-.18.6-.4.6-.22 0-.4.198-.4.44 0 .241-.54.943-1.2 1.56-.66.617-1.2 1.369-1.2 1.672 0 .303-.36.811-.8 1.128-.44.317-.8.815-.8 1.106 0 .292-.436.966-.969 1.499-.533.533-1.085 1.335-1.227 1.782-.142.447-.426.813-.631.813-.205 0-.373.236-.373.525 0 .288-.36.911-.8 1.383-.44.472-.8 1.018-.8 1.213 0 .195-.36.681-.8 1.079-.44.398-.8.966-.8 1.262 0 .296-.18.538-.4.538-.22 0-.404.225-.409.5-.005.275-.361.95-.791 1.5-.898 1.149-1.026 2-.299 2 .275 0 16.34 15.84 35.699 35.2 19.88 19.881 35.503 35.2 35.899 35.2.512 0 .701-.323.701-1.2 0-.66.18-1.2.4-1.2.22 0 .4-.54.4-1.2 0-.66.18-1.2.4-1.2.22 0 .4-.349.4-.776 0-.427.18-.888.4-1.024.22-.136.4-.687.4-1.224 0-.537.18-.976.4-.976.22 0 .4-.36.4-.8 0-.44.18-.8.4-.8.22 0 .4-.265.4-.588 0-.323.36-1.229.8-2.012.44-.783.8-1.674.8-1.979 0-.305.135-.614.3-.688.452-.201 2.5-4.239 2.5-4.93 0-.332.18-.603.4-.603.22 0 .4-.32.4-.712 0-.391.36-.971.8-1.288.44-.317.8-.857.8-1.2 0-.343.36-.883.8-1.2.44-.317.8-.857.8-1.2 0-.343.36-.883.8-1.2.44-.317.8-.767.8-1 0-.233.36-.683.8-1 .44-.317.8-.769.8-1.004 0-.236.72-1.224 1.6-2.196.88-.972 1.6-1.914 1.6-2.093 0-.178.945-1.289 2.1-2.469a966.789 966.789 0 0 0 4.554-4.691c3.401-3.531 6.778-6.629 7.847-7.2.494-.264 1.376-.99 1.959-1.614.584-.623 1.259-1.133 1.5-1.133.242 0 .44-.18.44-.4 0-.22.23-.4.512-.4.281 0 .771-.36 1.088-.8.317-.44.767-.8 1-.8.233 0 .683-.36 1-.8.317-.44.857-.8 1.2-.8.343 0 .883-.36 1.2-.8.317-.44.897-.8 1.288-.8.392 0 .712-.18.712-.4 0-.22.236-.4.525-.4.288 0 .911-.36 1.383-.8.472-.44 1.062-.8 1.312-.8.249 0 2.021-.81 3.938-1.8 1.917-.99 3.7-1.8 3.964-1.8.263 0 .478-.18.478-.4 0-.22.36-.4.8-.4.44 0 .8-.18.8-.4 0-.22.349-.4.776-.4.427 0 .888-.18 1.024-.4.136-.22.687-.4 1.224-.4.537 0 .976-.18.976-.4 0-.22.362-.4.805-.4.778 0 1.164-.142 3.09-1.138.492-.254 1.347-.462 1.9-.462.553 0 1.005-.18 1.005-.4 0-.22.529-.4 1.176-.4.647 0 1.288-.18 1.424-.4.136-.22.867-.4 1.624-.4.757 0 1.376-.18 1.376-.4 0-.22.72-.4 1.6-.4.88 0 1.6-.18 1.6-.4 0-.22.9-.4 2-.4s2-.18 2-.4c0-.226 1.133-.4 2.6-.4s2.6-.174 2.6-.4c0-.249 2.256-.4 5.967-.4 4.382 0 6.028-.133 6.2-.5.186-.4.28-.4.466 0 .171.366 1.773.5 5.977.5 3.397 0 5.844.163 5.99.4.136.22 1.407.4 2.824.4 1.451 0 2.576.175 2.576.4 0 .22.9.4 2 .4s2 .18 2 .4c0 .22.709.4 1.576.4.867 0 1.688.18 1.824.4.136.22.766.4 1.4.4.634 0 1.264.18 1.4.4.136.22.867.4 1.624.4.757 0 1.376.18 1.376.4 0 .22.54.4 1.2.4.66 0 1.2.18 1.2.4 0 .22.439.4.976.4.537 0 1.088.18 1.224.4.136.22.597.4 1.024.4.427 0 .776.18.776.4 0 .22.54.4 1.2.4.66 0 1.2.18 1.2.4 0 .22.36.4.8.4.44 0 .8.18.8.4 0 .22.36.4.8.4.44 0 .8.18.8.4 0 .22.253.4.562.4.308 0 2.097.81 3.974 1.8 1.876.99 3.694 1.8 4.038 1.8.344 0 .626.18.626.4 0 .22.32.4.712.4.391 0 .971.36 1.288.8.317.44.857.8 1.2.8.343 0 .883.36 1.2.8.317.44.857.8 1.2.8.343 0 .883.36 1.2.8.317.44.767.8 1 .8.233 0 .683.36 1 .8.317.44.857.8 1.2.8.343 0 .883.36 1.2.8.317.44.886.8 1.265.8.378 0 .799.18.935.4.326.528 9.274.528 9.6 0 .136-.22.508-.4.828-.4.319 0 2.603-1.983 5.076-4.406 2.473-2.423 9.427-9.218 15.454-15.1C315.751 79.168 330 64.859 330 64.311c0-.294.36-.794.8-1.111.44-.317.8-.897.8-1.288 0-.392.18-.712.4-.712.243 0 .4-1.8.4-4.6s-.157-4.6-.4-4.6c-.22 0-.4-.474-.4-1.053s-.315-1.347-.7-1.706c-.385-.359-.892-.998-1.127-1.42-.234-.422-.769-.96-1.188-1.194-.418-.235-1.216-.878-1.773-1.428-.557-.551-1.732-1.532-2.612-2.18-.88-.648-1.891-1.502-2.247-1.898-.356-.397-.869-.721-1.139-.721-.271 0-.997-.54-1.614-1.2-.617-.66-1.369-1.2-1.672-1.2-.303 0-.811-.36-1.128-.8-.317-.44-.78-.8-1.029-.8-.249 0-1.017-.54-1.708-1.2-.691-.66-1.488-1.2-1.771-1.2-.283 0-.775-.36-1.092-.8-.317-.44-.831-.8-1.141-.8-.311 0-.856-.316-1.212-.703-.356-.386-1.187-.971-1.847-1.3-.66-.328-1.549-.912-1.975-1.297-.427-.385-.997-.7-1.267-.7-.27 0-.551-.135-.625-.3-.18-.405-2.121-1.538-4.433-2.587-1.045-.475-1.9-1.009-1.9-1.188 0-.179-.36-.325-.8-.325-.44 0-.8-.18-.8-.4 0-.22-.36-.4-.8-.4-.44 0-.8-.18-.8-.4 0-.22-.36-.4-.8-.4-.44 0-.8-.18-.8-.4 0-.22-.27-.4-.6-.4-.33 0-.6-.18-.6-.4 0-.22-.36-.4-.8-.4-.44 0-.8-.18-.8-.4 0-.22-.36-.4-.8-.4-.44 0-.8-.18-.8-.4 0-.22-.36-.4-.8-.4-.44 0-.8-.18-.8-.4 0-.22-.36-.4-.8-.4-.44 0-.8-.18-.8-.4 0-.22-.36-.4-.8-.4-.44 0-.8-.18-.8-.4 0-.22-.439-.4-.976-.4-.537 0-1.088-.18-1.224-.4-.136-.22-.597-.4-1.024-.4-.427 0-.776-.18-.776-.4 0-.22-.36-.4-.8-.4-.44 0-.8-.18-.8-.4 0-.22-.272-.4-.605-.4-.333 0-.918-.159-1.3-.353a28.338 28.338 0 0 0-1.795-.8l-2.2-.894a28.338 28.338 0 0 1-1.795-.8c-.382-.194-1.057-.353-1.5-.353-.443 0-.805-.18-.805-.4 0-.22-.54-.4-1.2-.4-.66 0-1.2-.18-1.2-.4 0-.22-.54-.4-1.2-.4-.66 0-1.2-.159-1.2-.354 0-.195-.99-.478-2.2-.629-1.21-.151-2.2-.442-2.2-.646 0-.204-.529-.371-1.176-.371-.647 0-1.288-.18-1.424-.4-.136-.22-.867-.4-1.624-.4-.757 0-1.376-.18-1.376-.4 0-.22-.72-.4-1.6-.4-.88 0-1.6-.18-1.6-.4 0-.22-.72-.4-1.6-.4-.88 0-1.6-.18-1.6-.4 0-.22-.72-.4-1.6-.4-.88 0-1.6-.18-1.6-.4 0-.22-.81-.4-1.8-.4s-1.8-.18-1.8-.4c0-.22-.799-.4-1.776-.4s-1.888-.18-2.024-.4c-.136-.22-1.317-.4-2.624-.4-1.317 0-2.376-.178-2.376-.4 0-.224-1.107-.4-2.52-.4-1.454 0-2.727-.207-3.01-.49-.484-.484-36.495-.828-45.467-.434"/><path fill="#4474dc" d="M194.58 153.339c-1.577.887-4.18 3.133-4.18 3.606 0 .263-.36.738-.8 1.055-.44.317-.8.897-.8 1.288 0 .392-.18.712-.4.712-.264 0-.4 13.6-.4 40s.136 40 .4 40c.22 0 .4.32.4.712 0 .391.36.971.8 1.288.44.317.8.798.8 1.068s.675.994 1.5 1.609 1.59 1.209 1.7 1.321c1.162 1.175 2.29 1.202 50.595 1.202 26.733 0 48.605.099 48.605.219 0 .121-.36.965-.8 1.875-.44.911-.8 1.892-.8 2.181 0 .289-.18.525-.4.525-.22 0-.4.32-.4.712 0 .391-.36.971-.8 1.288-.44.317-.8.897-.8 1.288 0 .392-.15.712-.332.712-.183 0-.587.495-.898 1.1-.31.605-.881 1.391-1.267 1.747-.387.356-.703.811-.703 1.012 0 .2-.36.624-.8.941-.44.317-.8.813-.8 1.102 0 .288-.63 1.155-1.4 1.925-.77.77-1.4 1.564-1.4 1.764 0 .345-1.421 1.895-7.048 7.688-3.383 3.483-7.819 7.521-8.263 7.521-.202 0-.872.54-1.489 1.2-.617.66-1.291 1.2-1.498 1.2-.208 0-.705.361-1.104.802-.714.79-.187 1.341 32.825 34.362 18.453 18.457 33.617 33.756 33.697 33.997.28.839 1.352.43 2.811-1.074.808-.832 2.099-1.955 2.869-2.496 1.634-1.147 14.8-14.275 14.8-14.757 0-.18 1.26-1.635 2.8-3.234 1.54-1.599 2.8-3.069 2.8-3.267 0-.198.63-.99 1.4-1.76.77-.77 1.405-1.529 1.411-1.686.007-.158.727-1.09 1.6-2.073.874-.982 1.589-1.928 1.589-2.103 0-.175.54-.883 1.2-1.574.66-.691 1.2-1.459 1.2-1.708 0-.249.36-.712.8-1.029.44-.317.8-.857.8-1.2 0-.343.36-.883.8-1.2.44-.317.8-.857.8-1.2 0-.343.36-.883.8-1.2.44-.317.8-.857.8-1.2 0-.343.36-.883.8-1.2.44-.317.8-.807.8-1.088 0-.282.18-.512.4-.512.22 0 .4-.27.4-.6 0-.33.18-.6.4-.6.22 0 .4-.27.4-.6 0-.33.159-.6.353-.6.195 0 .454-.315.576-.7.217-.685 1.475-2.904 1.871-3.3.517-.517 1.6-2.792 1.6-3.362 0-.351.18-.638.4-.638.22 0 .4-.36.4-.8 0-.44.18-.8.4-.8.22 0 .4-.36.4-.8 0-.44.18-.8.4-.8.22 0 .4-.278.4-.617 0-.339.36-1.003.8-1.475.44-.472.8-1.095.8-1.383 0-.289.18-.525.4-.525.22 0 .4-.36.4-.8 0-.44.18-.8.4-.8.22 0 .4-.349.4-.776 0-.427.18-.888.4-1.024.22-.136.4-.597.4-1.024 0-.427.18-.776.4-.776.22 0 .4-.36.4-.8 0-.44.18-.8.4-.8.22 0 .4-.36.4-.8 0-.44.18-.8.4-.8.22 0 .4-.36.4-.8 0-.44.18-.8.4-.8.22 0 .4-.54.4-1.2 0-.66.18-1.2.4-1.2.22 0 .4-.36.4-.8 0-.44.18-.8.4-.8.22 0 .4-.279.4-.619 0-.341.36-1.365.8-2.275.44-.911.8-1.859.8-2.106 0-.247.36-1.195.8-2.106.44-.91.8-1.923.8-2.251 0-.328.18-.707.4-.843.22-.136.4-.676.4-1.2 0-.524.167-1.056.372-1.183.205-.126.495-1.217.646-2.423.151-1.207.433-2.194.628-2.194s.354-.63.354-1.4c0-.77.18-1.4.4-1.4.22 0 .4-.54.4-1.2 0-.66.18-1.2.4-1.2.22 0 .4-.72.4-1.6 0-.88.18-1.6.4-1.6.22 0 .4-.72.4-1.6 0-.88.18-1.6.4-1.6.22 0 .4-.72.4-1.6 0-.88.18-1.6.4-1.6.22 0 .4-.911.4-2.024 0-1.247.153-1.928.4-1.776.247.152.4-.529.4-1.776 0-1.113.18-2.024.4-2.024.222 0 .4-1.067.4-2.4s.178-2.4.4-2.4c.228 0 .4-1.189.4-2.767 0-1.857.164-2.821.5-2.933.393-.131.5-5.452.5-24.813 0-19.184-.111-24.758-.5-25.147-.302-.302-.5-1.577-.5-3.22 0-1.547-.173-2.72-.4-2.72-.222 0-.4-1.067-.4-2.4s-.178-2.4-.4-2.4c-.22 0-.4-.799-.4-1.776s-.18-1.888-.4-2.024c-.22-.136-.4-.597-.4-1.024 0-.427-.18-.776-.4-.776-.22 0-.4-.184-.4-.409 0-.647-4.317-4.791-4.991-4.791-.335 0-.609-.18-.609-.4 0-.609-194.335-.47-195.42.139"/><path fill="#04a46c" d="M107.6 249.2c.449.88.906 1.6 1.016 1.6.11 0-.167-.72-.616-1.6-.449-.88-.906-1.6-1.016-1.6-.11 0 .167.72.616 1.6m152.8 36c0 .22-.23.4-.512.4-.281 0-.771.36-1.088.8-.317.44-.857.8-1.2.8-.343 0-.883.36-1.2.8-.317.44-.857.8-1.2.8-.343 0-.883.36-1.2.8-.317.44-.897.8-1.288.8-.392 0-.712.18-.712.4 0 .22-.242.4-.539.4-.698 0-3.064 1.147-3.961 1.921-.385.331-.7.488-.7.348 0-.141-.635.102-1.412.538-.777.436-1.677.793-2 .793-.323 0-.588.18-.588.4 0 .22-.36.4-.8.4-.44 0-.8.18-.8.4 0 .22-.36.4-.8.4-.44 0-.8.18-.8.4 0 .22-.54.4-1.2.4-.66 0-1.2.18-1.2.4 0 .22-.349.4-.776.4-.427 0-.888.18-1.024.4-.136.22-.687.4-1.224.4-.537 0-.976.18-.976.4 0 .22-.529.4-1.176.4-.647 0-1.288.18-1.424.4-.136.22-.766.4-1.4.4-.634 0-1.264.18-1.4.4-.136.22-.867.4-1.624.4-.757 0-1.376.18-1.376.4 0 .22-.72.4-1.6.4-.88 0-1.6.18-1.6.4 0 .22-.9.4-2 .4s-2 .18-2 .4c0 .225-1.125.4-2.576.4-1.417 0-2.688.18-2.824.4-.146.237-2.59.4-5.981.4-4.859 0-5.77.096-5.976.633-.134.348-.243 21.886-.243 47.862v47.23l12.051-.234c7.733-.15 12.205-.387 12.48-.662.236-.236 1.563-.429 2.949-.429 1.413 0 2.52-.176 2.52-.4 0-.222 1.059-.4 2.376-.4 1.307 0 2.488-.18 2.624-.4.136-.22 1.047-.4 2.024-.4.977 0 1.776-.18 1.776-.4 0-.22.81-.4 1.8-.4s1.8-.18 1.8-.4c0-.22.9-.4 2-.4s2-.18 2-.4c0-.22.529-.4 1.176-.4.647 0 1.288-.18 1.424-.4.136-.22.867-.4 1.624-.4.757 0 1.376-.18 1.376-.4 0-.22.72-.4 1.6-.4.88 0 1.6-.18 1.6-.4 0-.22.54-.4 1.2-.4.66 0 1.2-.167 1.2-.371s.992-.495 2.205-.647c1.213-.152 2.304-.434 2.424-.629.12-.194.658-.353 1.195-.353s.976-.18.976-.4c0-.22.54-.4 1.2-.4.66 0 1.2-.18 1.2-.4 0-.22.362-.4.805-.4.443 0 1.118-.159 1.5-.353.716-.364 2.341-1.058 4.095-1.747.55-.216 1.313-.552 1.695-.747.382-.194.967-.353 1.3-.353.333 0 .605-.18.605-.4 0-.22.36-.4.8-.4.44 0 .8-.18.8-.4 0-.22.349-.4.776-.4.427 0 .888-.18 1.024-.4.136-.22.687-.4 1.224-.4.537 0 .976-.18.976-.4 0-.22.36-.4.8-.4.44 0 .8-.18.8-.4 0-.22.36-.4.8-.4.44 0 .8-.18.8-.4 0-.22.36-.4.8-.4.44 0 .8-.18.8-.4 0-.22.36-.4.8-.4.44 0 .8-.18.8-.4 0-.22.36-.4.8-.4.44 0 .8-.18.8-.4 0-.22.27-.4.6-.4.33 0 .6-.18.6-.4 0-.22.36-.4.8-.4.44 0 .8-.18.8-.4 0-.22.36-.4.8-.4.44 0 .8-.18.8-.4 0-.22.283-.4.629-.4.345 0 .898-.27 1.228-.6.33-.33.947-.6 1.372-.6.424 0 .774-.135.777-.3.004-.165.904-.74 2-1.279 1.097-.538 1.994-1.123 1.994-1.3 0-.176.236-.321.525-.321.288 0 .873-.315 1.3-.7.426-.385 1.315-.969 1.975-1.297.66-.329 1.491-.914 1.847-1.3.356-.387.901-.703 1.212-.703.31 0 .824-.36 1.141-.8.317-.44.857-.8 1.2-.8.343 0 .883-.36 1.2-.8.317-.44.78-.8 1.029-.8.249 0 1.017-.54 1.708-1.2.691-.66 1.455-1.2 1.699-1.2s.947-.54 1.564-1.2c.617-.66 1.409-1.2 1.76-1.2.352 0 .641-.135.643-.3.001-.165.652-.742 1.446-1.283.793-.541 2.261-1.756 3.261-2.7.999-.944 2.059-1.717 2.354-1.717.669 0 .68-.299.036-1.006-7.993-8.769-68.3-68.276-68.3-67.394"/><path fill="#fcdc2c" d="M25.899 101.091c-.605 1.27-1.1 2.534-1.1 2.809.001.275-.179.5-.399.5-.22 0-.4.36-.4.8 0 .44-.15.8-.333.8-.323 0-1.673 2.419-4.131 7.4a147.916 147.916 0 0 1-1.56 3.095c-.207.382-.376.967-.376 1.3 0 .333-.18.605-.4.605-.22 0-.4.36-.4.8 0 .44-.18.8-.4.8-.22 0-.4.272-.4.605 0 .333-.18.963-.4 1.4l-.8 1.59c-.22.437-.4 1.067-.4 1.4 0 .333-.18.605-.4.605-.22 0-.4.36-.4.8 0 .44-.18.8-.4.8-.22 0-.4.273-.4.606 0 .97-.966 3.794-1.297 3.794-.167 0-.303.362-.303.805 0 .443-.176 1.118-.391 1.5-.685 1.217-2.409 6.874-2.409 7.903 0 .546-.18.992-.4.992-.22 0-.4.529-.4 1.176 0 .647-.18 1.288-.4 1.424-.22.136-.4.777-.4 1.424 0 .647-.18 1.176-.4 1.176-.22 0-.4.72-.4 1.6 0 .88-.18 1.6-.4 1.6-.22 0-.4.72-.4 1.6 0 .88-.18 1.6-.4 1.6-.22 0-.4.72-.4 1.6 0 .88-.18 1.6-.4 1.6-.22 0-.4.81-.4 1.8s-.18 1.8-.4 1.8c-.22 0-.4.9-.4 2s-.18 2-.4 2c-.222 0-.4 1.059-.4 2.376 0 1.307-.18 2.488-.4 2.624-.22.136-.4 1.371-.4 2.744 0 1.463-.207 2.703-.5 2.996-.73.731-.73 48.117 0 48.36.33.11.5 1.031.5 2.71 0 1.398.18 2.654.4 2.79.22.136.4 1.317.4 2.624 0 1.317.178 2.376.4 2.376.22 0 .4.9.4 2s.18 2 .4 2c.22 0 .4.81.4 1.8s.18 1.8.4 1.8c.22 0 .4.72.4 1.6 0 .88.18 1.6.4 1.6.22 0 .4.72.4 1.6 0 .88.18 1.6.4 1.6.22 0 .4.72.4 1.6 0 .88.18 1.6.4 1.6.22 0 .4.529.4 1.176 0 .647.18 1.288.4 1.424.22.136.4.777.4 1.424 0 .647.18 1.176.4 1.176.22 0 .4.446.4.992 0 1.029 1.724 6.686 2.409 7.903.215.382.391 1.057.391 1.5 0 .443.141.805.313.805.172 0 .557.829.856 1.842.513 1.736 1.584 4.299 2.446 5.853.212.382.385 1.057.385 1.5 0 .443.18.805.4.805.22 0 .4.36.4.8 0 .44.18.8.4.8.22 0 .4.36.4.8 0 .44.18.8.4.8.22 0 .4.349.4.776 0 .427.18.888.4 1.024.22.136.4.607.4 1.047 0 .44.18.689.4.553.22-.136.4.126.4.582 0 .744.665 2.296 1.208 2.818.115.11.816 1.415 1.56 2.9.743 1.485 1.505 2.7 1.692 2.7.187 0 .34.36.34.8 0 .44.18.8.4.8.22 0 .4.225.399.5-.001 1.514 2.229 5.114 3.104 5.009.588-.071 13.229-12.434 36.3-35.504 34.894-34.892 36.422-36.524 34.997-37.405-.22-.136-.4-.777-.4-1.424 0-.647-.18-1.176-.4-1.176-.22 0-.4-.9-.4-2s-.18-2-.4-2c-.22 0-.4-.799-.4-1.776s-.18-1.888-.4-2.024c-.22-.136-.4-1.392-.4-2.79 0-1.399-.186-2.605-.412-2.681-.57-.19-.57-24.468 0-24.658.23-.077.412-1.368.412-2.928 0-1.758.148-2.699.4-2.543.247.152.4-.529.4-1.776 0-1.113.145-2.024.322-2.024.177 0 .366-.765.421-1.7.055-.935.27-1.871.478-2.08.209-.209.379-.873.379-1.476s.18-1.208.4-1.344c1.425-.881-.103-2.513-34.997-37.405-23.071-23.07-35.712-35.433-36.3-35.504-.745-.09-1.096.296-2.004 2.2"/></g></svg>