<?xml version="1.0" encoding="UTF-8"?>
<!DOCTYPE svg PUBLIC "-//W3C//DTD SVG 1.1//EN" "http://www.w3.org/Graphics/SVG/1.1/DTD/svg11.dtd">
<svg xmlns="http://www.w3.org/2000/svg" version="1.1" width="200px" height="200px" style="shape-rendering:geometricPrecision; text-rendering:geometricPrecision; image-rendering:optimizeQuality; fill-rule:evenodd; clip-rule:evenodd" xmlns:xlink="http://www.w3.org/1999/xlink">
<g><path style="opacity:0.992" fill="#93d2f7" d="M 86.5,8.5 C 124.806,5.40814 154.973,19.4081 177,50.5C 192.266,77.4137 194.6,105.414 184,134.5C 170.11,165.714 146.277,184.214 112.5,190C 64.6272,193.661 31.4605,173.494 13,129.5C 0.908201,86.4442 12.4082,51.2776 47.5,24C 59.6417,16.3486 72.6417,11.182 86.5,8.5 Z"/></g>
<g><path style="opacity:1" fill="#b5a6a0" d="M 132.5,79.5 C 131.5,79.5 130.5,79.5 129.5,79.5C 129.5,91.8333 129.5,104.167 129.5,116.5C 128.505,104.011 128.171,91.3443 128.5,78.5C 130.099,78.2322 131.432,78.5655 132.5,79.5 Z"/></g>
<g><path style="opacity:1" fill="#e85d18" d="M 113.5,80.5 C 114.5,80.5 115.5,80.5 116.5,80.5C 116.5,83.5 116.5,86.5 116.5,89.5C 118.5,89.5 120.5,89.5 122.5,89.5C 122.5,90.5 122.5,91.5 122.5,92.5C 120.5,92.5 118.5,92.5 116.5,92.5C 116.334,99.175 116.5,105.842 117,112.5C 119.473,113.12 121.973,113.786 124.5,114.5C 124.291,115.086 123.957,115.586 123.5,116C 120.007,117.004 116.841,116.504 114,114.5C 113.5,107.174 113.334,99.8409 113.5,92.5C 112.167,92.5 110.833,92.5 109.5,92.5C 109.5,91.5 109.5,90.5 109.5,89.5C 110.833,89.5 112.167,89.5 113.5,89.5C 113.5,86.5 113.5,83.5 113.5,80.5 Z"/></g>
<g><path style="opacity:1" fill="#cc9d86" d="M 84.5,90.5 C 83.5,90.5 82.5,90.5 81.5,90.5C 81.5,96.1667 81.5,101.833 81.5,107.5C 80.5104,101.69 80.1771,95.69 80.5,89.5C 82.099,89.2322 83.4324,89.5655 84.5,90.5 Z"/></g>
<g><path style="opacity:1" fill="#ed7d43" d="M 84.5,90.5 C 84.0753,97.6154 84.5753,104.615 86,111.5C 88.6362,114.947 91.8029,115.447 95.5,113C 96.7051,111.624 98.0384,110.458 99.5,109.5C 99.5,110.167 99.5,110.833 99.5,111.5C 95.1388,117.925 89.8055,118.925 83.5,114.5C 82.0562,112.392 81.3896,110.059 81.5,107.5C 81.5,101.833 81.5,96.1667 81.5,90.5C 82.5,90.5 83.5,90.5 84.5,90.5 Z"/></g>
<g><path style="opacity:1" fill="#e75a15" d="M 100.5,90.5 C 101.5,90.5 102.5,90.5 103.5,90.5C 103.175,98.0191 103.508,105.352 104.5,112.5C 105.234,113.708 105.567,115.041 105.5,116.5C 104.022,116.762 102.689,116.429 101.5,115.5C 101.006,113.974 100.339,112.641 99.5,111.5C 99.5,110.833 99.5,110.167 99.5,109.5C 100.418,103.225 100.751,96.8918 100.5,90.5 Z"/></g>
<g><path style="opacity:1" fill="#b6a198" d="M 100.5,90.5 C 101.568,89.5655 102.901,89.2322 104.5,89.5C 104.5,97.1667 104.5,104.833 104.5,112.5C 103.508,105.352 103.175,98.0191 103.5,90.5C 102.5,90.5 101.5,90.5 100.5,90.5 Z"/></g>
<g><path style="opacity:1" fill="#ed8750" d="M 58.5,80.5 C 59.9778,80.238 61.3112,80.5713 62.5,81.5C 67.5678,93.0431 72.2345,104.71 76.5,116.5C 75.1779,116.67 74.0113,116.337 73,115.5C 71.8824,112.145 70.3824,108.978 68.5,106C 62.8431,105.501 57.1764,105.334 51.5,105.5C 50.3812,108.843 49.0479,112.177 47.5,115.5C 46.675,116.386 45.675,116.719 44.5,116.5C 48.7066,104.303 53.3732,92.303 58.5,80.5 Z"/></g>
<g><path style="opacity:1" fill="#98cff0" d="M 59.5,85.5 C 60.4972,85.4701 61.1639,85.9701 61.5,87C 63.5976,91.7929 65.5976,96.6262 67.5,101.5C 62.8804,102.493 58.2137,102.827 53.5,102.5C 55.1125,96.6607 57.1125,90.994 59.5,85.5 Z"/></g>
<g><path style="opacity:1" fill="#eb631b" d="M 132.5,79.5 C 132.334,84.8437 132.501,90.1771 133,95.5C 137.748,88.9184 143.414,87.9184 150,92.5C 151.401,100.415 151.901,108.415 151.5,116.5C 150.5,116.5 149.5,116.5 148.5,116.5C 148.666,110.158 148.5,103.825 148,97.5C 145.852,92.4656 142.352,91.2989 137.5,94C 135.622,95.5429 134.122,97.3762 133,99.5C 132.501,105.157 132.334,110.824 132.5,116.5C 131.5,116.5 130.5,116.5 129.5,116.5C 129.5,104.167 129.5,91.8333 129.5,79.5C 130.5,79.5 131.5,79.5 132.5,79.5 Z"/></g>
</svg>
