<svg xmlns="http://www.w3.org/2000/svg" width="32" height="32" style="isolation:isolate" viewBox="587.811 592.459 32 32"><path fill="none" d="M587.811 592.459h32v32h-32v-32Z"/><path fill-rule="evenodd" d="M595.385 608.153a5.553 5.553 0 0 1 .004-7.852l1.365-1.365c.34-.34.795-.531 1.275-.527.476 0 .935.187 1.275.526l.083.089q2.868 3.125-.117 6.212a1.226 1.226 0 0 0 .014 1.714l6.036 6.036a1.226 1.226 0 0 0 1.714.014q3.086-2.985 6.212-.117l.089.083c.339.34.526.799.526 1.275.004.48-.187.935-.527 1.275l-1.365 1.365a5.553 5.553 0 0 1-7.852.004l-8.732-8.732Zm7.426-1.824a1.215 1.215 0 1 1 2.43 0 1.215 1.215 0 0 1-2.43 0Zm3.811 0a1.215 1.215 0 1 1 2.43 0 1.215 1.215 0 0 1-2.43 0Zm3.811 0a1.215 1.215 0 1 1 2.43 0 1.215 1.215 0 0 1-2.43 0Z"/></svg>