<svg xmlns="http://www.w3.org/2000/svg" width="32pt" height="32pt" style="isolation:isolate" viewBox="587.811 560.459 32 32"><path fill="none" d="M587.811 560.459h32v32h-32v-32Z"/><path fill-rule="evenodd" d="m601.469 580.246-3.859 3.858a1.02 1.02 0 1 1-1.444-1.444l3.858-3.859 2.554-2.553 3.85-3.851a1.022 1.022 0 0 1 1.445 1.445l-3.851 3.85 2.299 2.299a1.23 1.23 0 0 0 1.717.014q3.089-2.988 6.218-.117.03.026.089.083c.34.34.527.8.527 1.276a1.78 1.78 0 0 1-.528 1.277l-1.366 1.366a5.557 5.557 0 0 1-7.861.004l-3.648-3.648Zm-.923-6.031-.267-.266a1.23 1.23 0 0 1-.014-1.717q2.988-3.09.117-6.218-.026-.031-.083-.089c-.341-.34-.8-.527-1.276-.527a1.78 1.78 0 0 0-1.277.528l-1.366 1.366a5.555 5.555 0 0 0-.004 7.861l1.616 1.616a.832.832 0 0 0 1.175 0l1.379-1.378a.833.833 0 0 0 0-1.176Z"/></svg>