<?xml version="1.0" encoding="UTF-8" standalone="no"?>
<svg
   width="32"
   height="32"
   style="isolation:isolate"
   viewBox="587.811 592.459 32 32"
   version="1.1"
   id="svg144"
   sodipodi:docname="call_wait.svg"
   inkscape:version="1.2.2 (b0a8486541, 2022-12-01)"
   xmlns:inkscape="http://www.inkscape.org/namespaces/inkscape"
   xmlns:sodipodi="http://sodipodi.sourceforge.net/DTD/sodipodi-0.dtd"
   xmlns="http://www.w3.org/2000/svg"
   xmlns:svg="http://www.w3.org/2000/svg">
  <defs
     id="defs148" />
  <sodipodi:namedview
     id="namedview146"
     pagecolor="#ffffff"
     bordercolor="#999999"
     borderopacity="1"
     inkscape:showpageshadow="0"
     inkscape:pageopacity="0"
     inkscape:pagecheckerboard="0"
     inkscape:deskcolor="#d1d1d1"
     inkscape:document-units="pt"
     showgrid="false"
     inkscape:zoom="5.53125"
     inkscape:cx="-23.050847"
     inkscape:cy="21.423729"
     inkscape:window-width="2560"
     inkscape:window-height="1367"
     inkscape:window-x="0"
     inkscape:window-y="0"
     inkscape:window-maximized="1"
     inkscape:current-layer="svg144" />
  <path
     fill="none"
     d="m 587.811,592.459 h 32 v 32 h -32 z"
     id="path140" />
  <path
     fill-rule="evenodd"
     d="m 595.385,608.153 a 5.553,5.553 0 0 1 0.004,-7.852 l 1.365,-1.365 c 0.34,-0.34 0.795,-0.531 1.275,-0.527 0.476,0 0.935,0.187 1.275,0.526 l 0.083,0.089 q 2.868,3.125 -0.117,6.212 a 1.226,1.226 0 0 0 0.014,1.714 l 6.036,6.036 a 1.226,1.226 0 0 0 1.714,0.014 q 3.086,-2.985 6.212,-0.117 l 0.089,0.083 c 0.339,0.34 0.526,0.799 0.526,1.275 0.004,0.48 -0.187,0.935 -0.527,1.275 l -1.365,1.365 a 5.553,5.553 0 0 1 -7.852,0.004 z m 7.426,-1.824 a 1.215,1.215 0 1 1 2.43,0 1.215,1.215 0 0 1 -2.43,0 z m 3.811,0 a 1.215,1.215 0 1 1 2.43,0 1.215,1.215 0 0 1 -2.43,0 z m 3.811,0 a 1.215,1.215 0 1 1 2.43,0 1.215,1.215 0 0 1 -2.43,0 z"
     id="path142" />
</svg>
