<?xml version="1.0" encoding="UTF-8" standalone="no"?>
<svg xmlns="http://www.w3.org/2000/svg" xmlns:xlink="http://www.w3.org/1999/xlink" style="isolation:isolate" viewBox="587.811 592.459 32 32" width="32pt" height="32pt"><g><path d=" M 587.811 592.459 L 619.811 592.459 L 619.811 624.459 L 587.811 624.459 L 587.811 592.459 Z " fill="none"/><path d=" M 595.385 608.153 C 595.385 608.153 595.385 608.153 595.385 608.153 C 594.348 607.116 593.761 605.696 593.761 604.225 C 593.761 602.754 594.348 601.342 595.389 600.301 L 596.754 598.936 C 597.094 598.596 597.549 598.405 598.029 598.409 C 598.505 598.409 598.964 598.596 599.304 598.935 Q 599.36 598.994 599.387 599.024 Q 602.255 602.149 599.27 605.236 C 598.808 605.713 598.815 606.481 599.284 606.95 L 605.32 612.986 C 605.789 613.455 606.557 613.462 607.034 613 Q 610.12 610.015 613.246 612.883 Q 613.276 612.91 613.335 612.966 C 613.674 613.306 613.861 613.765 613.861 614.241 C 613.865 614.721 613.674 615.176 613.334 615.516 L 611.969 616.881 C 610.928 617.922 609.516 618.509 608.045 618.509 C 606.574 618.509 605.154 617.922 604.117 616.885 C 604.117 616.885 604.117 616.885 604.117 616.885 L 595.385 608.153 Z  M 602.811 606.329 C 602.811 605.658 603.355 605.114 604.025 605.114 C 604.695 605.114 605.239 605.658 605.239 606.329 C 605.239 606.999 604.695 607.543 604.025 607.543 C 603.355 607.543 602.811 606.999 602.811 606.329 Z  M 606.622 606.329 C 606.622 605.658 607.166 605.114 607.836 605.114 C 608.506 605.114 609.05 605.658 609.05 606.329 C 609.05 606.999 608.506 607.543 607.836 607.543 C 607.166 607.543 606.622 606.999 606.622 606.329 Z  M 610.433 606.329 C 610.433 605.658 610.977 605.114 611.647 605.114 C 612.317 605.114 612.861 605.658 612.861 606.329 C 612.861 606.999 612.317 607.543 611.647 607.543 C 610.977 607.543 610.433 606.999 610.433 606.329 Z " fill-rule="evenodd" fill="rgb(0,0,0)"/></g></svg>