<?xml version="1.0" encoding="UTF-8" standalone="no"?>
<svg xmlns="http://www.w3.org/2000/svg" xmlns:xlink="http://www.w3.org/1999/xlink" style="isolation:isolate" viewBox="587.811 521.772 32 32" width="32pt" height="32pt"><g><path d=" M 587.811 521.772 L 619.811 521.772 L 619.811 553.772 L 587.811 553.772 L 587.811 521.772 Z " fill="none"/><path d=" M 601.822 543.465 L 609.446 543.465 C 610.491 543.465 611.494 543.051 612.232 542.313 C 612.97 541.575 613.388 540.572 613.388 539.527 L 613.388 532.314 C 613.388 531.269 612.97 530.266 612.232 529.528 C 611.494 528.786 610.491 528.372 609.446 528.372 L 598.176 528.372 C 597.131 528.372 596.128 528.786 595.39 529.528 C 594.652 530.266 594.234 531.269 594.234 532.314 L 594.234 539.527 C 594.234 540.572 594.652 541.575 595.39 542.313 C 595.878 542.8 596.48 543.146 597.135 543.325 L 597.135 545.868 C 597.135 547.281 597.922 547.594 598.892 546.567 L 601.822 543.465 Z  M 600.229 535.797 C 600.229 535.797 600.229 535.797 600.229 535.797 C 599.818 535.386 599.585 534.823 599.585 534.24 C 599.585 533.657 599.818 533.098 600.23 532.685 L 600.771 532.144 C 600.906 532.009 601.086 531.934 601.277 531.935 C 601.465 531.935 601.647 532.009 601.782 532.144 Q 601.804 532.167 601.815 532.179 Q 602.951 533.418 601.768 534.641 C 601.585 534.83 601.588 535.134 601.774 535.32 L 604.166 537.712 C 604.352 537.898 604.656 537.901 604.845 537.718 Q 606.069 536.535 607.307 537.672 Q 607.319 537.682 607.342 537.705 C 607.477 537.839 607.551 538.021 607.551 538.21 C 607.553 538.4 607.477 538.58 607.342 538.715 L 606.801 539.256 C 606.388 539.669 605.829 539.901 605.246 539.901 C 604.663 539.901 604.1 539.669 603.689 539.258 C 603.689 539.258 603.689 539.258 603.689 539.258 L 600.229 535.797 Z " fill-rule="evenodd" fill="rgb(0,0,0)"/></g></svg>