<?xml version="1.0" encoding="UTF-8" standalone="no"?>
<svg xmlns="http://www.w3.org/2000/svg" xmlns:xlink="http://www.w3.org/1999/xlink" style="isolation:isolate" viewBox="578.672 536.93 32.551 32" width="32.551pt" height="32pt"><path d=" M 585.197 536.93 L 604.698 536.93 C 606.424 536.93 608.084 537.619 609.309 538.844 C 610.534 540.062 611.223 541.722 611.223 543.455 L 611.223 562.405 C 611.223 564.138 610.534 565.798 609.309 567.016 C 608.084 568.241 606.424 568.93 604.698 568.93 L 585.197 568.93 C 583.471 568.93 581.811 568.241 580.586 567.016 C 579.361 565.798 578.672 564.138 578.672 562.405 L 578.672 543.455 C 578.672 541.722 579.361 540.062 580.586 538.844 C 581.811 537.619 583.471 536.93 585.197 536.93 Z  M 592.959 558.623 L 600.583 558.623 C 601.628 558.623 602.63 558.209 603.368 557.471 C 604.106 556.733 604.524 555.73 604.524 554.685 L 604.524 547.472 C 604.524 546.427 604.106 545.424 603.368 544.686 C 602.63 543.944 601.628 543.53 600.583 543.53 L 589.312 543.53 C 588.267 543.53 587.265 543.944 586.527 544.686 C 585.789 545.424 585.371 546.427 585.371 547.472 L 585.371 554.685 C 585.371 555.73 585.789 556.733 586.527 557.471 C 587.014 557.958 587.617 558.304 588.271 558.483 L 588.271 561.026 C 588.271 562.439 589.059 562.752 590.029 561.725 L 592.959 558.623 Z  M 591.365 550.955 C 591.365 550.955 591.365 550.955 591.365 550.955 C 590.954 550.544 590.722 549.981 590.722 549.398 C 590.722 548.815 590.954 548.256 591.367 547.843 L 591.908 547.302 C 592.042 547.168 592.223 547.092 592.413 547.094 C 592.602 547.094 592.784 547.168 592.918 547.302 Q 592.941 547.325 592.951 547.337 Q 594.088 548.576 592.905 549.799 C 592.722 549.988 592.724 550.293 592.91 550.479 L 595.302 552.871 C 595.488 553.057 595.793 553.059 595.982 552.876 Q 597.205 551.693 598.444 552.83 Q 598.456 552.84 598.479 552.863 C 598.613 552.998 598.687 553.179 598.687 553.368 C 598.689 553.558 598.613 553.739 598.479 553.873 L 597.938 554.414 C 597.525 554.827 596.966 555.059 596.383 555.059 C 595.8 555.059 595.237 554.827 594.826 554.416 C 594.826 554.416 594.826 554.416 594.826 554.416 L 591.365 550.955 Z " fill-rule="evenodd" fill="rgb(0,113,255)"/></svg>