<svg xmlns="http://www.w3.org/2000/svg" width="32" height="32" style="isolation:isolate" viewBox="587.811 521.772 32 32"><path fill="none" d="M587.811 521.772h32v32h-32v-32Z"/><path fill-rule="evenodd" d="M601.822 543.465h7.624a3.94 3.94 0 0 0 3.942-3.938v-7.213a3.944 3.944 0 0 0-3.942-3.942h-11.27a3.944 3.944 0 0 0-3.942 3.942v7.213a3.944 3.944 0 0 0 2.901 3.798v2.543c0 1.413.787 1.726 1.757.699l2.93-3.102Zm-1.593-7.668a2.203 2.203 0 0 1 .001-3.112l.541-.541a.714.714 0 0 1 1.011 0l.033.035q1.136 1.239-.047 2.462a.486.486 0 0 0 .006.679l2.392 2.392c.186.186.49.189.679.006q1.224-1.183 2.462-.046l.035.033a.71.71 0 0 1 0 1.01l-.541.541a2.199 2.199 0 0 1-3.112.002l-3.46-3.461Z"/></svg>