<?xml version="1.0" standalone="no"?><!DOCTYPE svg PUBLIC "-//W3C//DTD SVG 1.1//EN" "http://www.w3.org/Graphics/SVG/1.1/DTD/svg11.dtd"><svg t="1696245886035" class="icon" viewBox="0 0 1024 1024" version="1.1" xmlns="http://www.w3.org/2000/svg" p-id="4133" xmlns:xlink="http://www.w3.org/1999/xlink" width="200" height="200"><path d="M512 132.717714c-9.435429 0-18.852571 3.84-29.147429 12.434286L194.011429 379.574857c-7.277714 6.418286-11.556571 15.433143-11.556572 28.288 0 22.272 16.713143 39.003429 39.424 39.003429 8.996571 0 18.432-3.437714 28.288-11.154286L512 222.281143l261.851429 213.430857c9.874286 7.716571 19.291429 11.154286 28.708571 11.154286 22.308571 0 39.003429-16.731429 39.003429-39.003429 0-12.854857-4.278857-21.869714-11.556572-28.288L541.147429 144.713143c-10.294857-8.137143-19.291429-11.995429-29.147429-11.995429z m0 758.564572c9.856 0 18.852571-3.84 29.147429-11.995429L829.988571 644.425143c7.277714-6.418286 11.556571-15.433143 11.556572-28.288 0-22.272-16.713143-39.424-38.985143-39.424-9.435429 0-18.870857 3.858286-28.708571 11.574857L512 801.718857 250.148571 588.288c-9.874286-7.716571-19.291429-11.574857-28.288-11.574857-22.710857 0-39.424 17.152-39.424 39.424 0 12.854857 4.278857 21.869714 11.556572 28.288l288.859428 234.422857c10.294857 8.594286 19.712 12.434286 29.147429 12.434286z" p-id="4134"></path></svg>