<svg xmlns="http://www.w3.org/2000/svg" xmlns:xlink="http://www.w3.org/1999/xlink" style="isolation:isolate" viewBox="-132.5 17.8 32 32" width="32pt" height="32pt"><g><path d=" M -132.5 17.8 L -100.5 17.8 L -100.5 49.8 L -132.5 49.8 L -132.5 17.8 Z " fill="none"/><path d=" M -119.871 37.416 L -113.129 37.416 C -112.72 37.416 -112.388 37.748 -112.388 38.157 L -112.388 38.157 C -112.388 38.566 -112.72 38.898 -113.129 38.898 L -119.871 38.898 C -120.28 38.898 -120.612 38.566 -120.612 38.157 L -120.612 38.157 C -120.612 37.748 -120.28 37.416 -119.871 37.416 L -119.871 37.416 L -119.871 37.416 Z  M -119.871 34.431 L -113.129 34.431 C -112.72 34.431 -112.388 34.763 -112.388 35.172 L -112.388 35.172 C -112.388 35.581 -112.72 35.913 -113.129 35.913 L -119.871 35.913 C -120.28 35.913 -120.612 35.581 -120.612 35.172 L -120.612 35.172 C -120.612 34.763 -120.28 34.431 -119.871 34.431 L -119.871 34.431 Z  M -119.871 31.446 L -113.129 31.446 C -112.72 31.446 -112.388 31.778 -112.388 32.187 L -112.388 32.187 C -112.388 32.596 -112.72 32.928 -113.129 32.928 L -119.871 32.928 C -120.28 32.928 -120.612 32.596 -120.612 32.187 L -120.612 32.187 C -120.612 31.778 -120.28 31.446 -119.871 31.446 Z  M -119.124 26.359 L -120.052 26.359 L -120.052 26.359 C -120.971 26.359 -121.846 26.718 -122.494 27.365 C -123.141 28.013 -123.5 28.888 -123.5 29.806 L -123.5 39.711 C -123.5 40.621 -123.141 41.505 -122.494 42.153 C -121.846 42.791 -120.971 43.159 -120.052 43.159 L -112.947 43.159 C -112.037 43.159 -111.154 42.791 -110.515 42.153 C -109.867 41.505 -109.5 40.621 -109.5 39.711 L -109.5 29.806 C -109.5 28.888 -109.867 28.013 -110.515 27.365 C -111.154 26.718 -112.037 26.359 -112.947 26.359 L -113.876 26.359 C -113.903 25.296 -114.774 24.441 -115.844 24.441 L -117.156 24.441 C -118.226 24.441 -119.097 25.296 -119.124 26.359 Z  M -119.087 28.109 L -120.052 28.109 L -120.052 28.109 C -120.507 28.109 -120.936 28.284 -121.251 28.608 C -121.575 28.923 -121.75 29.351 -121.75 29.806 L -121.75 39.711 C -121.75 40.158 -121.575 40.595 -121.251 40.91 C -120.936 41.234 -120.507 41.409 -120.052 41.409 L -112.947 41.409 C -112.501 41.409 -112.064 41.234 -111.749 40.91 C -111.434 40.595 -111.25 40.158 -111.25 39.711 L -111.25 29.806 C -111.25 29.351 -111.434 28.923 -111.749 28.608 C -112.064 28.284 -112.501 28.109 -112.947 28.109 L -113.913 28.109 C -114.093 29.011 -114.89 29.691 -115.844 29.691 L -117.156 29.691 C -118.11 29.691 -118.907 29.011 -119.087 28.109 Z " fill-rule="evenodd" fill="rgb(0,0,0)"/></g></svg>