<?xml version="1.0" encoding="UTF-8" standalone="no"?>
<svg xmlns="http://www.w3.org/2000/svg" xmlns:xlink="http://www.w3.org/1999/xlink" style="isolation:isolate" viewBox="666.985 536.93 32.551 32" width="32.551pt" height="32pt"><path d=" M 673.51 536.93 L 693.011 536.93 C 694.737 536.93 696.397 537.619 697.622 538.844 C 698.847 540.062 699.536 541.722 699.536 543.455 L 699.536 562.405 C 699.536 564.138 698.847 565.798 697.622 567.016 C 696.397 568.241 694.737 568.93 693.011 568.93 L 673.51 568.93 C 671.784 568.93 670.124 568.241 668.899 567.016 C 667.674 565.798 666.985 564.138 666.985 562.405 L 666.985 543.455 C 666.985 541.722 667.674 540.062 668.899 538.844 C 670.124 537.619 671.784 536.93 673.51 536.93 Z  M 683.26 551.192 L 677.955 545.887 C 677.476 545.407 676.697 545.407 676.217 545.887 L 676.217 545.887 C 675.738 546.367 675.738 547.145 676.217 547.625 L 681.522 552.93 L 676.217 558.235 C 675.738 558.715 675.738 559.493 676.217 559.973 L 676.217 559.973 C 676.697 560.453 677.476 560.453 677.955 559.973 L 683.26 554.668 L 688.565 559.973 C 689.045 560.453 689.824 560.453 690.304 559.973 L 690.304 559.973 C 690.783 559.493 690.783 558.715 690.304 558.235 L 684.999 552.93 L 690.304 547.625 C 690.783 547.145 690.783 546.367 690.304 545.887 L 690.304 545.887 C 689.824 545.407 689.045 545.407 688.565 545.887 L 683.26 551.192 Z " fill-rule="evenodd" fill="rgb(0,113,255)"/></svg>