<?xml version="1.0" encoding="UTF-8" standalone="no"?>
<svg xmlns="http://www.w3.org/2000/svg" xmlns:xlink="http://www.w3.org/1999/xlink" style="isolation:isolate" viewBox="679.559 521.772 32 32" width="32pt" height="32pt"><g><path d=" M 679.559 521.772 L 711.559 521.772 L 711.559 553.772 L 679.559 553.772 L 679.559 521.772 Z " fill="none"/><path d=" M 695.559 536.034 L 690.254 530.729 C 689.774 530.249 688.996 530.249 688.516 530.729 L 688.516 530.729 C 688.036 531.208 688.036 531.987 688.516 532.467 L 693.821 537.772 L 688.516 543.077 C 688.036 543.556 688.036 544.335 688.516 544.815 L 688.516 544.815 C 688.996 545.294 689.774 545.294 690.254 544.815 L 695.559 539.51 L 700.864 544.815 C 701.344 545.294 702.123 545.294 702.602 544.815 L 702.602 544.815 C 703.082 544.335 703.082 543.556 702.602 543.077 L 697.297 537.772 L 702.602 532.467 C 703.082 531.987 703.082 531.208 702.602 530.729 L 702.602 530.729 C 702.123 530.249 701.344 530.249 700.864 530.729 L 695.559 536.034 Z " fill="rgb(0,0,0)"/></g></svg>