<?xml version="1.0" encoding="UTF-8" standalone="no"?>
<svg xmlns="http://www.w3.org/2000/svg" xmlns:xlink="http://www.w3.org/1999/xlink" style="isolation:isolate" viewBox="446.203 536.93 32.551 32" width="32.551pt" height="32pt"><path d=" M 452.727 536.93 L 472.229 536.93 C 473.954 536.93 475.615 537.619 476.84 538.844 C 478.065 540.062 478.754 541.722 478.754 543.455 L 478.754 562.405 C 478.754 564.138 478.065 565.798 476.84 567.016 C 475.615 568.241 473.954 568.93 472.229 568.93 L 452.727 568.93 C 451.002 568.93 449.342 568.241 448.117 567.016 C 446.891 565.798 446.203 564.138 446.203 562.405 L 446.203 543.455 C 446.203 541.722 446.891 540.062 448.117 538.844 C 449.342 537.619 451.002 536.93 452.727 536.93 Z  M 455.395 544.796 L 469.561 544.796 C 469.967 544.796 470.351 544.963 470.641 545.245 C 470.924 545.535 471.091 545.92 471.091 546.326 L 471.091 555.395 C 471.091 555.801 470.924 556.185 470.641 556.475 C 470.351 556.758 469.967 556.925 469.561 556.925 L 455.395 556.925 C 454.989 556.925 454.605 556.758 454.315 556.475 C 454.032 556.185 453.866 555.801 453.866 555.395 L 453.866 546.326 C 453.866 545.92 454.032 545.535 454.315 545.245 C 454.605 544.963 454.989 544.796 455.395 544.796 L 455.395 544.796 L 455.395 544.796 Z  M 466.766 560.549 L 469.561 560.549 C 470.924 560.549 472.236 560.006 473.2 559.034 C 474.172 558.07 474.716 556.758 474.716 555.395 L 474.716 546.326 C 474.716 544.963 474.172 543.65 473.2 542.686 C 472.236 541.715 470.924 541.171 469.561 541.171 L 455.395 541.171 L 455.395 541.171 C 454.032 541.171 452.72 541.715 451.756 542.686 C 450.784 543.65 450.241 544.963 450.241 546.326 L 450.241 555.395 C 450.241 556.758 450.784 558.07 451.756 559.034 C 452.72 560.006 454.032 560.549 455.395 560.549 L 458.19 560.549 L 458.19 561.783 C 458.19 563.558 459.631 564.999 461.406 564.999 L 463.55 564.999 C 465.325 564.999 466.766 563.558 466.766 561.783 L 466.766 560.549 L 466.766 560.549 Z " fill-rule="evenodd" fill="rgb(0,113,255)"/></svg>