<svg xmlns="http://www.w3.org/2000/svg" width="32" height="32" style="isolation:isolate" viewBox="450.189 521.772 32 32"><path fill="none" d="M450.189 521.772h32v32h-32v-32Z"/><path fill-rule="evenodd" d="M470.477 545.236h2.795a5.13 5.13 0 0 0 3.639-1.515 5.126 5.126 0 0 0 1.515-3.639v-9.07a5.126 5.126 0 0 0-1.515-3.639 5.13 5.13 0 0 0-3.639-1.515h-14.166a5.13 5.13 0 0 0-3.639 1.515 5.127 5.127 0 0 0-1.516 3.639v9.07c0 1.363.544 2.675 1.516 3.639a5.13 5.13 0 0 0 3.639 1.515h2.795v1.234a3.217 3.217 0 0 0 3.216 3.216h2.144a3.217 3.217 0 0 0 3.216-3.216v-1.234Zm-11.371-15.753h14.166c.406 0 .79.166 1.08.449.283.29.449.674.449 1.08v9.07c0 .406-.166.79-.449 1.08-.29.283-.674.449-1.08.449h-14.166c-.406 0-.79-.166-1.08-.449a1.55 1.55 0 0 1-.45-1.08v-9.07c0-.406.167-.79.45-1.08.29-.283.674-.449 1.08-.449Z"/></svg>