<?xml version="1.0" encoding="UTF-8" standalone="no"?>
<svg
   style="isolation:isolate"
   viewBox="105.516 106.603 32 32"
   width="32"
   height="32"
   version="1.1"
   id="svg778"
   sodipodi:docname="dots.svg"
   inkscape:version="1.2.2 (b0a8486541, 2022-12-01)"
   xmlns:inkscape="http://www.inkscape.org/namespaces/inkscape"
   xmlns:sodipodi="http://sodipodi.sourceforge.net/DTD/sodipodi-0.dtd"
   xmlns="http://www.w3.org/2000/svg"
   xmlns:svg="http://www.w3.org/2000/svg">
  <defs
     id="defs782" />
  <sodipodi:namedview
     id="namedview780"
     pagecolor="#ffffff"
     bordercolor="#999999"
     borderopacity="1"
     inkscape:showpageshadow="0"
     inkscape:pageopacity="0"
     inkscape:pagecheckerboard="0"
     inkscape:deskcolor="#d1d1d1"
     inkscape:document-units="pt"
     showgrid="false"
     inkscape:zoom="5.53125"
     inkscape:cx="-5.9661017"
     inkscape:cy="21.785311"
     inkscape:window-width="1421"
     inkscape:window-height="767"
     inkscape:window-x="520"
     inkscape:window-y="277"
     inkscape:window-maximized="0"
     inkscape:current-layer="svg778" />
  <g
     id="g776">
    <path
       d="m 105.516,106.603 h 32 v 32 h -32 z"
       fill="none"
       id="path772" />
    <path
       d="m 118.954,115.165 c 0,-1.414 1.148,-2.562 2.562,-2.562 1.413,0 2.561,1.148 2.561,2.562 0,1.414 -1.148,2.562 -2.561,2.562 -1.414,0 -2.562,-1.148 -2.562,-2.562 z m 0,7.438 c 0,-1.414 1.148,-2.562 2.562,-2.562 1.413,0 2.561,1.148 2.561,2.562 0,1.414 -1.148,2.562 -2.561,2.562 -1.414,0 -2.562,-1.148 -2.562,-2.562 z m 0,7.438 c 0,-1.414 1.148,-2.562 2.562,-2.562 1.413,0 2.561,1.148 2.561,2.562 0,1.414 -1.148,2.562 -2.561,2.562 -1.414,0 -2.562,-1.148 -2.562,-2.562 z"
       fill-rule="evenodd"
       fill="#000000"
       id="path774" />
  </g>
</svg>
