<svg xmlns="http://www.w3.org/2000/svg" width="32" height="32" style="isolation:isolate" viewBox="105.516 106.603 32 32"><path fill="none" d="M105.516 106.603h32v32h-32v-32Z"/><path fill-rule="evenodd" d="M118.954 115.165a2.563 2.563 0 0 1 2.562-2.562 2.563 2.563 0 0 1 0 5.124 2.563 2.563 0 0 1-2.562-2.562Zm0 7.438a2.563 2.563 0 0 1 2.562-2.562 2.563 2.563 0 0 1 0 5.124 2.563 2.563 0 0 1-2.562-2.562Zm0 7.438a2.563 2.563 0 0 1 2.562-2.562 2.563 2.563 0 0 1 0 5.124 2.563 2.563 0 0 1-2.562-2.562Z"/></svg>