<?xml version="1.0" encoding="UTF-8" standalone="no"?>
<svg
   style="isolation:isolate"
   viewBox="187.624 70.761 32 32"
   width="32"
   height="32"
   version="1.1"
   id="svg919"
   sodipodi:docname="file.svg"
   inkscape:version="1.2.2 (b0a8486541, 2022-12-01)"
   xmlns:inkscape="http://www.inkscape.org/namespaces/inkscape"
   xmlns:sodipodi="http://sodipodi.sourceforge.net/DTD/sodipodi-0.dtd"
   xmlns="http://www.w3.org/2000/svg"
   xmlns:svg="http://www.w3.org/2000/svg">
  <defs
     id="defs923" />
  <sodipodi:namedview
     id="namedview921"
     pagecolor="#ffffff"
     bordercolor="#999999"
     borderopacity="1"
     inkscape:showpageshadow="0"
     inkscape:pageopacity="0"
     inkscape:pagecheckerboard="0"
     inkscape:deskcolor="#d1d1d1"
     inkscape:document-units="pt"
     showgrid="false"
     inkscape:zoom="5.53125"
     inkscape:cx="-6.5988701"
     inkscape:cy="21.423729"
     inkscape:window-width="2560"
     inkscape:window-height="1367"
     inkscape:window-x="0"
     inkscape:window-y="0"
     inkscape:window-maximized="1"
     inkscape:current-layer="svg919" />
  <g
     id="g917">
    <path
       d="m 187.624,70.761 h 32 v 32 h -32 z"
       fill="none"
       id="path913" />
    <path
       d="m 199.771,89.326 h 7.706 c 0.467,0 0.847,0.379 0.847,0.847 v 0 c 0,0.467 -0.38,0.846 -0.847,0.846 h -7.706 c -0.467,0 -0.847,-0.379 -0.847,-0.846 v 0 c 0,-0.468 0.38,-0.847 0.847,-0.847 z m 0,-3.412 h 7.706 c 0.467,0 0.847,0.38 0.847,0.847 v 0 c 0,0.467 -0.38,0.847 -0.847,0.847 h -7.706 c -0.467,0 -0.847,-0.38 -0.847,-0.847 v 0 c 0,-0.467 0.38,-0.847 0.847,-0.847 z m -2.836,-4.797 v 11.289 c 0,1.568 1.275,2.842 2.845,2.842 h 7.688 c 1.57,0 2.845,-1.274 2.845,-2.842 V 81.117 c 0,-1.569 -1.275,-2.843 -2.845,-2.843 h -7.688 c -1.57,0 -2.845,1.274 -2.845,2.843 z m 2.836,1.386 h 7.706 c 0.467,0 0.847,0.379 0.847,0.847 v 0 c 0,0.467 -0.38,0.846 -0.847,0.846 h -7.706 c -0.467,0 -0.847,-0.379 -0.847,-0.846 v 0 c 0,-0.468 0.38,-0.847 0.847,-0.847 z"
       fill-rule="evenodd"
       fill="#000000"
       id="path915" />
  </g>
</svg>
