<?xml version="1.0" standalone="no"?><!DOCTYPE svg PUBLIC "-//W3C//DTD SVG 1.1//EN" "http://www.w3.org/Graphics/SVG/1.1/DTD/svg11.dtd"><svg t="1694049173782" class="icon" viewBox="0 0 1024 1024" width="24" height="24" fill="#fff" version="1.1" xmlns="http://www.w3.org/2000/svg" p-id="992" xmlns:xlink="http://www.w3.org/1999/xlink" width="32" height="32"><path d="M891.64 184.73H620.41c-27.41 0-54.41-7.77-77.32-22.5L428.13 87.36C402.77 71 372.91 62 342.64 62H131.95C93.5 62 62 93.5 62 132.36v759.68C62 930.91 93.5 962 131.95 962h759.68c38.86 0 70.36-31.09 70.36-69.96V255.09c0.01-38.86-31.49-70.36-70.35-70.36zM480.5 753.77c0 16.77-13.5 30.68-30.68 30.68-16.77 0-30.68-13.91-30.68-30.68V523.04l-31.91 55.64c-8.59 14.32-27.41 19.64-42.14 11.04-14.32-8.59-19.64-27.41-11.05-41.73l89.18-154.64c6.96-12.27 21.27-18 34.77-14.32 13.09 3.27 22.5 15.55 22.5 29.45v345.29z m209.04-139.5l-89.18 154.64c-5.32 9.82-15.55 15.55-26.59 15.55-2.46 0-5.32-0.41-7.77-1.23-13.5-3.68-22.91-15.55-22.91-29.46V408.5c0-16.77 13.91-30.68 30.68-30.68 17.18 0 30.68 13.91 30.68 30.68v230.73l31.91-55.64c8.59-14.73 27.41-19.64 42.14-11.05 14.73 8.6 19.64 27.01 11.04 41.73z" p-id="993"></path></svg>