<svg xmlns="http://www.w3.org/2000/svg" width="32" height="32" style="isolation:isolate" viewBox="187.624 70.761 32 32"><path fill="none" d="M187.624 70.761h32v32h-32v-32Z"/><path fill-rule="evenodd" d="M199.771 89.326h7.706a.847.847 0 0 1 0 1.693h-7.706a.847.847 0 0 1 0-1.693Zm0-3.412h7.706a.848.848 0 0 1 0 1.694h-7.706a.848.848 0 0 1 0-1.694Zm-2.836-4.797v11.289a2.845 2.845 0 0 0 2.845 2.842h7.688a2.845 2.845 0 0 0 2.845-2.842V81.117a2.846 2.846 0 0 0-2.845-2.843h-7.688a2.846 2.846 0 0 0-2.845 2.843Zm2.836 1.386h7.706a.847.847 0 0 1 0 1.693h-7.706a.847.847 0 0 1 0-1.693Z"/></svg>