<?xml version="1.0" encoding="UTF-8" standalone="no"?>
<svg
   style="isolation:isolate"
   viewBox="59.535 106.603 32 32"
   width="32"
   height="32"
   version="1.1"
   id="svg1054"
   sodipodi:docname="folder_new.svg"
   inkscape:version="1.2.2 (b0a8486541, 2022-12-01)"
   xmlns:inkscape="http://www.inkscape.org/namespaces/inkscape"
   xmlns:sodipodi="http://sodipodi.sourceforge.net/DTD/sodipodi-0.dtd"
   xmlns="http://www.w3.org/2000/svg"
   xmlns:svg="http://www.w3.org/2000/svg">
  <defs
     id="defs1058" />
  <sodipodi:namedview
     id="namedview1056"
     pagecolor="#ffffff"
     bordercolor="#999999"
     borderopacity="1"
     inkscape:showpageshadow="0"
     inkscape:pageopacity="0"
     inkscape:pagecheckerboard="0"
     inkscape:deskcolor="#d1d1d1"
     inkscape:document-units="pt"
     showgrid="false"
     inkscape:zoom="5.53125"
     inkscape:cx="-5.5141243"
     inkscape:cy="21.423729"
     inkscape:window-width="2560"
     inkscape:window-height="1367"
     inkscape:window-x="0"
     inkscape:window-y="0"
     inkscape:window-maximized="1"
     inkscape:current-layer="svg1054" />
  <g
     id="g1052">
    <path
       d="m 59.535,106.603 h 32 v 32 h -32 z"
       fill="none"
       id="path1048" />
    <path
       d="m 68.294,130.469 h 14.482 c 1.523,0 2.759,-1.236 2.759,-2.758 v -7.457 c 0,-1.523 -1.236,-2.759 -2.759,-2.759 H 77.38 c -0.305,0 -0.552,-0.247 -0.552,-0.551 v -0.828 c 0,-0.761 -0.618,-1.379 -1.379,-1.379 h -5.776 c -0.761,0 -1.816,0.437 -2.355,0.975 l -0.808,0.808 c -0.538,0.538 -0.975,1.593 -0.975,2.355 v 8.836 c 0,1.522 1.236,2.758 2.759,2.758 z m 11.948,-5.308 h 1.682 c 0.438,0 0.794,-0.355 0.794,-0.793 v 0 c 0,-0.438 -0.356,-0.793 -0.794,-0.793 h -1.682 v -1.683 c 0,-0.438 -0.356,-0.794 -0.794,-0.794 v 0 c -0.438,0 -0.793,0.356 -0.793,0.794 v 1.683 h -1.683 c -0.438,0 -0.794,0.355 -0.794,0.793 v 0 c 0,0.438 0.356,0.793 0.794,0.793 h 1.683 v 1.683 c 0,0.438 0.355,0.794 0.793,0.794 v 0 c 0.438,0 0.794,-0.356 0.794,-0.794 z"
       fill-rule="evenodd"
       fill="#000000"
       id="path1050" />
  </g>
</svg>
