<?xml version="1.0" encoding="UTF-8" standalone="no"?>
<svg xmlns="http://www.w3.org/2000/svg" xmlns:xlink="http://www.w3.org/1999/xlink" style="isolation:isolate" viewBox="129.858 75.669 32 32" width="32pt" height="32pt"><g><path d=" M 129.858 75.669 L 161.858 75.669 L 161.858 107.669 L 129.858 107.669 L 129.858 75.669 Z " fill="none"/><path d=" M 138.617 99.535 L 153.1 99.535 C 154.622 99.535 155.858 98.299 155.858 96.777 L 155.858 89.32 C 155.858 87.797 154.622 86.561 153.1 86.561 L 147.703 86.561 C 147.399 86.561 147.151 86.314 147.151 86.009 L 147.151 85.182 C 147.151 84.421 146.533 83.802 145.772 83.802 L 139.996 83.802 C 139.235 83.802 138.18 84.239 137.641 84.778 L 136.833 85.586 C 136.295 86.124 135.858 87.179 135.858 87.94 L 135.858 96.777 C 135.858 98.299 137.094 99.535 138.617 99.535 Z " fill="rgb(0,0,0)"/></g></svg>