<?xml version="1.0" encoding="UTF-8" standalone="no"?>
<svg xmlns="http://www.w3.org/2000/svg" xmlns:xlink="http://www.w3.org/1999/xlink" style="isolation:isolate" viewBox="59.535 106.603 32 32" width="32pt" height="32pt"><g><path d=" M 59.535 106.603 L 91.535 106.603 L 91.535 138.603 L 59.535 138.603 L 59.535 106.603 Z " fill="none"/><path d=" M 68.294 130.469 L 82.776 130.469 C 84.299 130.469 85.535 129.233 85.535 127.711 L 85.535 120.254 C 85.535 118.731 84.299 117.495 82.776 117.495 L 77.38 117.495 C 77.075 117.495 76.828 117.248 76.828 116.944 L 76.828 116.116 C 76.828 115.355 76.21 114.737 75.449 114.737 L 69.673 114.737 C 68.912 114.737 67.857 115.174 67.318 115.712 L 66.51 116.52 C 65.972 117.058 65.535 118.113 65.535 118.875 L 65.535 127.711 C 65.535 129.233 66.771 130.469 68.294 130.469 Z  M 80.242 125.161 L 81.924 125.161 C 82.362 125.161 82.718 124.806 82.718 124.368 L 82.718 124.368 C 82.718 123.93 82.362 123.575 81.924 123.575 L 80.242 123.575 L 80.242 121.892 C 80.242 121.454 79.886 121.098 79.448 121.098 L 79.448 121.098 C 79.01 121.098 78.655 121.454 78.655 121.892 L 78.655 123.575 L 76.972 123.575 C 76.534 123.575 76.178 123.93 76.178 124.368 L 76.178 124.368 C 76.178 124.806 76.534 125.161 76.972 125.161 L 78.655 125.161 L 78.655 126.844 C 78.655 127.282 79.01 127.638 79.448 127.638 L 79.448 127.638 C 79.886 127.638 80.242 127.282 80.242 126.844 L 80.242 125.161 Z " fill-rule="evenodd" fill="rgb(0,0,0)"/></g></svg>