<svg xmlns="http://www.w3.org/2000/svg" width="32" height="32" style="isolation:isolate" viewBox="59.535 106.603 32 32"><path fill="none" d="M59.535 106.603h32v32h-32v-32Z"/><path fill-rule="evenodd" d="M68.294 130.469h14.482a2.76 2.76 0 0 0 2.759-2.758v-7.457a2.76 2.76 0 0 0-2.759-2.759H77.38a.552.552 0 0 1-.552-.551v-.828a1.38 1.38 0 0 0-1.379-1.379h-5.776c-.761 0-1.816.437-2.355.975l-.808.808c-.538.538-.975 1.593-.975 2.355v8.836a2.76 2.76 0 0 0 2.759 2.758Zm11.948-5.308h1.682a.794.794 0 1 0 0-1.586h-1.682v-1.683a.794.794 0 1 0-1.587 0v1.683h-1.683a.794.794 0 1 0 0 1.586h1.683v1.683a.795.795 0 0 0 1.587 0v-1.683Z"/></svg>