<?xml version="1.0" encoding="UTF-8" standalone="no"?>
<svg
   width="32"
   height="32"
   style="isolation:isolate"
   viewBox="404.315 560.459 32 32"
   version="1.1"
   id="svg1328"
   sodipodi:docname="fullscreen_exit.svg"
   inkscape:version="1.2.2 (b0a8486541, 2022-12-01)"
   xmlns:inkscape="http://www.inkscape.org/namespaces/inkscape"
   xmlns:sodipodi="http://sodipodi.sourceforge.net/DTD/sodipodi-0.dtd"
   xmlns="http://www.w3.org/2000/svg"
   xmlns:svg="http://www.w3.org/2000/svg">
  <defs
     id="defs1332" />
  <sodipodi:namedview
     id="namedview1330"
     pagecolor="#ffffff"
     bordercolor="#999999"
     borderopacity="1"
     inkscape:showpageshadow="0"
     inkscape:pageopacity="0"
     inkscape:pagecheckerboard="0"
     inkscape:deskcolor="#d1d1d1"
     inkscape:document-units="pt"
     showgrid="false"
     inkscape:zoom="5.53125"
     inkscape:cx="-5.5141243"
     inkscape:cy="21.423729"
     inkscape:window-width="2560"
     inkscape:window-height="1367"
     inkscape:window-x="0"
     inkscape:window-y="0"
     inkscape:window-maximized="1"
     inkscape:current-layer="svg1328" />
  <path
     fill="none"
     d="m 404.315,560.459 h 32 v 32 h -32 z"
     id="path1324" />
  <path
     fill-rule="evenodd"
     d="m 414.29,566.512 c 0,-0.478 0.189,-0.935 0.53,-1.275 0.34,-0.341 0.797,-0.537 1.283,-0.537 a 1.824,1.824 0 0 1 1.812,1.812 v 2.806 a 4.938,4.938 0 0 1 -1.45,3.494 4.938,4.938 0 0 1 -3.494,1.45 h -2.798 c -0.486,0 -0.943,-0.195 -1.284,-0.536 a 1.792,1.792 0 0 1 -0.529,-1.276 1.805,1.805 0 0 1 1.813,-1.813 h 2.798 c 0.348,0 0.689,-0.137 0.935,-0.391 0.247,-0.246 0.384,-0.58 0.384,-0.928 z m -4.117,15.768 a 1.804,1.804 0 0 1 -1.813,-1.812 c 0,-0.478 0.189,-0.942 0.529,-1.276 a 1.811,1.811 0 0 1 1.284,-0.536 h 2.798 c 1.312,0 2.566,0.522 3.494,1.449 a 4.94,4.94 0 0 1 1.45,3.495 v 2.805 a 1.824,1.824 0 0 1 -1.812,1.813 c -0.486,0 -0.943,-0.196 -1.283,-0.537 a 1.797,1.797 0 0 1 -0.53,-1.276 V 583.6 c 0,-0.348 -0.137,-0.682 -0.384,-0.928 a 1.303,1.303 0 0 0 -0.935,-0.392 z m 20.284,-11.643 c 0.486,0 0.943,0.189 1.283,0.53 0.341,0.34 0.53,0.797 0.53,1.283 0,0.478 -0.189,0.942 -0.53,1.276 -0.34,0.341 -0.797,0.536 -1.283,0.536 h -2.798 a 4.94,4.94 0 0 1 -3.495,-1.45 4.937,4.937 0 0 1 -1.449,-3.494 v -2.806 a 1.82,1.82 0 0 1 1.812,-1.812 c 0.486,0 0.942,0.196 1.283,0.537 0.341,0.34 0.529,0.797 0.529,1.275 v 2.806 c 0,0.348 0.138,0.682 0.385,0.928 0.246,0.254 0.587,0.391 0.935,0.391 z m -4.118,15.768 c 0,0.479 -0.188,0.936 -0.529,1.276 a 1.81,1.81 0 0 1 -1.283,0.537 1.82,1.82 0 0 1 -1.812,-1.813 V 583.6 a 4.944,4.944 0 0 1 4.944,-4.944 h 2.798 c 0.486,0 0.943,0.195 1.283,0.536 0.341,0.334 0.53,0.798 0.53,1.276 0,0.486 -0.189,0.942 -0.53,1.283 a 1.8,1.8 0 0 1 -1.283,0.529 h -2.798 c -0.348,0 -0.689,0.138 -0.935,0.392 a 1.31,1.31 0 0 0 -0.385,0.928 z"
     id="path1326" />
</svg>
