<?xml version="1.0" encoding="UTF-8" standalone="no"?>
<svg
   width="32"
   height="32"
   style="isolation:isolate"
   viewBox="404.315 521.772 32 32"
   version="1.1"
   id="svg1460"
   sodipodi:docname="fullscreen.svg"
   inkscape:version="1.2.2 (b0a8486541, 2022-12-01)"
   xmlns:inkscape="http://www.inkscape.org/namespaces/inkscape"
   xmlns:sodipodi="http://sodipodi.sourceforge.net/DTD/sodipodi-0.dtd"
   xmlns="http://www.w3.org/2000/svg"
   xmlns:svg="http://www.w3.org/2000/svg">
  <defs
     id="defs1464" />
  <sodipodi:namedview
     id="namedview1462"
     pagecolor="#ffffff"
     bordercolor="#999999"
     borderopacity="1"
     inkscape:showpageshadow="0"
     inkscape:pageopacity="0"
     inkscape:pagecheckerboard="0"
     inkscape:deskcolor="#d1d1d1"
     inkscape:document-units="pt"
     showgrid="false"
     inkscape:zoom="5.53125"
     inkscape:cx="-5.5141243"
     inkscape:cy="21.423729"
     inkscape:window-width="2560"
     inkscape:window-height="1367"
     inkscape:window-x="0"
     inkscape:window-y="0"
     inkscape:window-maximized="1"
     inkscape:current-layer="svg1460" />
  <path
     fill-rule="evenodd"
     d="m 411.985,533.763 a 1.815,1.815 0 0 1 -1.812,1.812 c -0.479,0 -0.943,-0.196 -1.284,-0.536 a 1.834,1.834 0 0 1 -0.529,-1.276 v -2.806 c 0,-1.312 0.522,-2.566 1.45,-3.494 a 4.938,4.938 0 0 1 3.494,-1.45 h 2.799 c 0.486,0 0.942,0.196 1.283,0.536 0.341,0.334 0.529,0.798 0.529,1.276 a 1.8,1.8 0 0 1 -0.529,1.283 c -0.341,0.341 -0.797,0.53 -1.283,0.53 h -2.799 c -0.348,0 -0.688,0.137 -0.935,0.391 -0.246,0.247 -0.384,0.58 -0.384,0.928 z m 4.118,12.143 a 1.802,1.802 0 0 1 1.812,1.812 c 0,0.479 -0.188,0.943 -0.529,1.276 a 1.81,1.81 0 0 1 -1.283,0.537 h -2.799 a 4.938,4.938 0 0 1 -3.494,-1.45 4.939,4.939 0 0 1 -1.45,-3.495 v -2.805 c 0,-0.479 0.196,-0.935 0.529,-1.276 a 1.824,1.824 0 0 1 1.284,-0.537 c 0.485,0 0.942,0.196 1.283,0.537 0.341,0.341 0.529,0.797 0.529,1.276 v 2.805 c 0,0.348 0.138,0.682 0.384,0.928 0.247,0.254 0.587,0.392 0.935,0.392 z m 8.424,-16.268 c -0.486,0 -0.943,-0.189 -1.283,-0.53 a 1.8,1.8 0 0 1 -0.529,-1.283 c 0,-0.478 0.188,-0.942 0.529,-1.276 0.34,-0.34 0.797,-0.536 1.283,-0.536 h 2.798 a 4.94,4.94 0 0 1 3.495,1.45 4.938,4.938 0 0 1 1.45,3.494 v 2.806 a 1.823,1.823 0 0 1 -1.813,1.812 c -0.486,0 -0.942,-0.196 -1.283,-0.536 a 1.8,1.8 0 0 1 -0.529,-1.276 v -2.806 a 1.31,1.31 0 0 0 -0.385,-0.928 1.302,1.302 0 0 0 -0.935,-0.391 z m 4.118,12.143 c 0,-0.479 0.188,-0.935 0.529,-1.276 a 1.81,1.81 0 0 1 1.283,-0.537 1.82,1.82 0 0 1 1.813,1.813 v 2.805 a 4.939,4.939 0 0 1 -1.45,3.495 4.94,4.94 0 0 1 -3.495,1.45 h -2.798 c -0.486,0 -0.943,-0.196 -1.283,-0.537 a 1.784,1.784 0 0 1 -0.529,-1.276 1.804,1.804 0 0 1 1.812,-1.812 h 2.798 c 0.348,0 0.689,-0.138 0.935,-0.392 a 1.31,1.31 0 0 0 0.385,-0.928 z"
     id="path1456" />
  <path
     fill="none"
     d="m 404.315,521.772 h 32 v 32 h -32 z"
     id="path1458" />
</svg>
