<svg xmlns="http://www.w3.org/2000/svg" width="32" height="32" style="isolation:isolate" viewBox="404.315 521.772 32 32"><path fill-rule="evenodd" d="M411.985 533.763a1.815 1.815 0 0 1-1.812 1.812c-.479 0-.943-.196-1.284-.536a1.834 1.834 0 0 1-.529-1.276v-2.806c0-1.312.522-2.566 1.45-3.494a4.938 4.938 0 0 1 3.494-1.45h2.799c.486 0 .942.196 1.283.536.341.334.529.798.529 1.276a1.8 1.8 0 0 1-.529 1.283c-.341.341-.797.53-1.283.53h-2.799c-.348 0-.688.137-.935.391-.246.247-.384.58-.384.928v2.806Zm4.118 12.143a1.802 1.802 0 0 1 1.812 1.812c0 .479-.188.943-.529 1.276a1.81 1.81 0 0 1-1.283.537h-2.799a4.938 4.938 0 0 1-3.494-1.45 4.939 4.939 0 0 1-1.45-3.495v-2.805c0-.479.196-.935.529-1.276a1.824 1.824 0 0 1 1.284-.537c.485 0 .942.196 1.283.537.341.341.529.797.529 1.276v2.805c0 .348.138.682.384.928.247.254.587.392.935.392h2.799Zm8.424-16.268c-.486 0-.943-.189-1.283-.53a1.8 1.8 0 0 1-.529-1.283c0-.478.188-.942.529-1.276.34-.34.797-.536 1.283-.536h2.798a4.94 4.94 0 0 1 3.495 1.45 4.938 4.938 0 0 1 1.45 3.494v2.806a1.823 1.823 0 0 1-1.813 1.812c-.486 0-.942-.196-1.283-.536a1.8 1.8 0 0 1-.529-1.276v-2.806a1.31 1.31 0 0 0-.385-.928 1.302 1.302 0 0 0-.935-.391h-2.798Zm4.118 12.143c0-.479.188-.935.529-1.276a1.81 1.81 0 0 1 1.283-.537 1.82 1.82 0 0 1 1.813 1.813v2.805a4.939 4.939 0 0 1-1.45 3.495 4.94 4.94 0 0 1-3.495 1.45h-2.798c-.486 0-.943-.196-1.283-.537a1.784 1.784 0 0 1-.529-1.276 1.804 1.804 0 0 1 1.812-1.812h2.798c.348 0 .689-.138.935-.392a1.31 1.31 0 0 0 .385-.928v-2.805Z"/><path fill="none" d="M404.315 521.772h32v32h-32v-32Z"/></svg>