<?xml version="1.0" encoding="UTF-8" standalone="no"?>
<svg xmlns="http://www.w3.org/2000/svg" xmlns:xlink="http://www.w3.org/1999/xlink" style="isolation:isolate" viewBox="402.046 578.084 32.551 32" width="32.551pt" height="32pt"><path d=" M 412.297 584.137 C 412.297 583.659 412.486 583.202 412.826 582.862 C 413.167 582.521 413.624 582.325 414.11 582.325 C 414.588 582.325 415.052 582.521 415.393 582.862 C 415.726 583.202 415.922 583.659 415.922 584.137 L 415.922 586.943 C 415.922 588.255 415.4 589.509 414.472 590.437 C 413.544 591.365 412.29 591.887 410.978 591.887 L 408.179 591.887 C 407.694 591.887 407.237 591.692 406.896 591.351 C 406.556 591.017 406.367 590.553 406.367 590.075 C 406.367 589.589 406.556 589.132 406.896 588.792 C 407.237 588.451 407.694 588.262 408.179 588.262 L 410.978 588.262 C 411.326 588.262 411.667 588.125 411.913 587.871 C 412.16 587.625 412.297 587.291 412.297 586.943 L 412.297 584.137 L 412.297 584.137 L 412.297 584.137 L 412.297 584.137 L 412.297 584.137 L 412.297 584.137 L 412.297 584.137 Z  M 408.179 599.905 C 407.694 599.905 407.237 599.717 406.896 599.376 C 406.556 599.035 406.367 598.579 406.367 598.093 C 406.367 597.615 406.556 597.151 406.896 596.817 C 407.237 596.476 407.694 596.281 408.179 596.281 L 410.978 596.281 C 412.29 596.281 413.544 596.803 414.472 597.731 C 415.4 598.658 415.922 599.913 415.922 601.225 L 415.922 604.03 C 415.922 604.509 415.726 604.966 415.393 605.306 C 415.052 605.647 414.588 605.843 414.11 605.843 C 413.624 605.843 413.167 605.647 412.826 605.306 C 412.486 604.966 412.297 604.509 412.297 604.03 L 412.297 601.225 C 412.297 600.877 412.16 600.543 411.913 600.297 C 411.667 600.043 411.326 599.905 410.978 599.905 L 408.179 599.905 L 408.179 599.905 L 408.179 599.905 L 408.179 599.905 L 408.179 599.905 Z  M 428.464 588.262 C 428.95 588.262 429.406 588.451 429.747 588.792 C 430.088 589.132 430.276 589.589 430.276 590.075 C 430.276 590.553 430.088 591.017 429.747 591.351 C 429.406 591.692 428.95 591.887 428.464 591.887 L 425.666 591.887 C 424.353 591.887 423.099 591.365 422.171 590.437 C 421.243 589.509 420.721 588.255 420.721 586.943 L 420.721 584.137 C 420.721 583.659 420.917 583.202 421.251 582.862 C 421.591 582.521 422.055 582.325 422.534 582.325 C 423.02 582.325 423.476 582.521 423.817 582.862 C 424.158 583.202 424.346 583.659 424.346 584.137 L 424.346 586.943 C 424.346 587.291 424.484 587.625 424.73 587.871 C 424.977 588.125 425.318 588.262 425.666 588.262 L 428.464 588.262 L 428.464 588.262 L 428.464 588.262 Z  M 408.571 578.084 L 428.073 578.084 C 429.798 578.084 431.458 578.773 432.683 579.998 C 433.908 581.216 434.597 582.876 434.597 584.609 L 434.597 603.559 C 434.597 605.292 433.908 606.952 432.683 608.17 C 431.458 609.395 429.798 610.084 428.073 610.084 L 408.571 610.084 C 406.845 610.084 405.185 609.395 403.96 608.17 C 402.735 606.952 402.046 605.292 402.046 603.559 L 402.046 584.609 C 402.046 582.876 402.735 581.216 403.96 579.998 C 405.185 578.773 406.845 578.084 408.571 578.084 L 408.571 578.084 L 408.571 578.084 L 408.571 578.084 L 408.571 578.084 L 408.571 578.084 L 408.571 578.084 Z  M 424.346 604.03 C 424.346 604.509 424.158 604.966 423.817 605.306 C 423.476 605.647 423.02 605.843 422.534 605.843 C 422.055 605.843 421.591 605.647 421.251 605.306 C 420.917 604.966 420.721 604.509 420.721 604.03 L 420.721 601.225 C 420.721 599.913 421.243 598.658 422.171 597.731 C 423.099 596.803 424.353 596.281 425.666 596.281 L 428.464 596.281 C 428.95 596.281 429.406 596.476 429.747 596.817 C 430.088 597.151 430.276 597.615 430.276 598.093 C 430.276 598.579 430.088 599.035 429.747 599.376 C 429.406 599.717 428.95 599.905 428.464 599.905 L 425.666 599.905 C 425.318 599.905 424.977 600.043 424.73 600.297 C 424.484 600.543 424.346 600.877 424.346 601.225 L 424.346 604.03 Z " fill-rule="evenodd" fill="rgb(0,113,255)"/></svg>