<?xml version="1.0" encoding="UTF-8" standalone="no"?>
<svg xmlns="http://www.w3.org/2000/svg" xmlns:xlink="http://www.w3.org/1999/xlink" style="isolation:isolate" viewBox="404.315 560.459 32 32" width="32pt" height="32pt"><g><path d=" M 404.315 560.459 L 436.315 560.459 L 436.315 592.459 L 404.315 592.459 L 404.315 560.459 Z " fill="none"/><path d=" M 414.29 566.512 C 414.29 566.034 414.479 565.577 414.82 565.237 C 415.16 564.896 415.617 564.7 416.103 564.7 C 416.581 564.7 417.045 564.896 417.386 565.237 C 417.719 565.577 417.915 566.034 417.915 566.512 L 417.915 569.318 C 417.915 570.63 417.393 571.884 416.465 572.812 C 415.537 573.74 414.283 574.262 412.971 574.262 L 410.173 574.262 C 409.687 574.262 409.23 574.067 408.889 573.726 C 408.549 573.392 408.36 572.928 408.36 572.45 C 408.36 571.964 408.549 571.507 408.889 571.167 C 409.23 570.826 409.687 570.637 410.173 570.637 L 412.971 570.637 C 413.319 570.637 413.66 570.5 413.906 570.246 C 414.153 570 414.29 569.666 414.29 569.318 L 414.29 566.512 L 414.29 566.512 L 414.29 566.512 L 414.29 566.512 L 414.29 566.512 L 414.29 566.512 L 414.29 566.512 Z  M 410.173 582.28 C 409.687 582.28 409.23 582.092 408.889 581.751 C 408.549 581.41 408.36 580.954 408.36 580.468 C 408.36 579.99 408.549 579.526 408.889 579.192 C 409.23 578.851 409.687 578.656 410.173 578.656 L 412.971 578.656 C 414.283 578.656 415.537 579.178 416.465 580.105 C 417.393 581.033 417.915 582.288 417.915 583.6 L 417.915 586.405 C 417.915 586.884 417.719 587.341 417.386 587.681 C 417.045 588.022 416.581 588.218 416.103 588.218 C 415.617 588.218 415.16 588.022 414.82 587.681 C 414.479 587.341 414.29 586.884 414.29 586.405 L 414.29 583.6 C 414.29 583.252 414.153 582.918 413.906 582.672 C 413.66 582.418 413.319 582.28 412.971 582.28 L 410.173 582.28 L 410.173 582.28 L 410.173 582.28 L 410.173 582.28 L 410.173 582.28 Z  M 430.457 570.637 C 430.943 570.637 431.4 570.826 431.74 571.167 C 432.081 571.507 432.27 571.964 432.27 572.45 C 432.27 572.928 432.081 573.392 431.74 573.726 C 431.4 574.067 430.943 574.262 430.457 574.262 L 427.659 574.262 C 426.347 574.262 425.092 573.74 424.164 572.812 C 423.236 571.884 422.715 570.63 422.715 569.318 L 422.715 566.512 C 422.715 566.034 422.91 565.577 423.244 565.237 C 423.584 564.896 424.048 564.7 424.527 564.7 C 425.013 564.7 425.469 564.896 425.81 565.237 C 426.151 565.577 426.339 566.034 426.339 566.512 L 426.339 569.318 C 426.339 569.666 426.477 570 426.724 570.246 C 426.97 570.5 427.311 570.637 427.659 570.637 L 430.457 570.637 L 430.457 570.637 L 430.457 570.637 Z  M 426.339 586.405 C 426.339 586.884 426.151 587.341 425.81 587.681 C 425.469 588.022 425.013 588.218 424.527 588.218 C 424.048 588.218 423.584 588.022 423.244 587.681 C 422.91 587.341 422.715 586.884 422.715 586.405 L 422.715 583.6 C 422.715 582.288 423.236 581.033 424.164 580.105 C 425.092 579.178 426.347 578.656 427.659 578.656 L 430.457 578.656 C 430.943 578.656 431.4 578.851 431.74 579.192 C 432.081 579.526 432.27 579.99 432.27 580.468 C 432.27 580.954 432.081 581.41 431.74 581.751 C 431.4 582.092 430.943 582.28 430.457 582.28 L 427.659 582.28 C 427.311 582.28 426.97 582.418 426.724 582.672 C 426.477 582.918 426.339 583.252 426.339 583.6 L 426.339 586.405 Z " fill-rule="evenodd" fill="rgb(0,0,0)"/></g></svg>