<svg xmlns="http://www.w3.org/2000/svg" width="32" height="32" style="isolation:isolate" viewBox="404.315 560.459 32 32"><path fill="none" d="M404.315 560.459h32v32h-32v-32Z"/><path fill-rule="evenodd" d="M414.29 566.512c0-.478.189-.935.53-1.275.34-.341.797-.537 1.283-.537a1.824 1.824 0 0 1 1.812 1.812v2.806a4.938 4.938 0 0 1-1.45 3.494 4.938 4.938 0 0 1-3.494 1.45h-2.798c-.486 0-.943-.195-1.284-.536a1.792 1.792 0 0 1-.529-1.276 1.805 1.805 0 0 1 1.813-1.813h2.798c.348 0 .689-.137.935-.391.247-.246.384-.58.384-.928v-2.806Zm-4.117 15.768a1.804 1.804 0 0 1-1.813-1.812c0-.478.189-.942.529-1.276a1.811 1.811 0 0 1 1.284-.536h2.798c1.312 0 2.566.522 3.494 1.449a4.94 4.94 0 0 1 1.45 3.495v2.805a1.824 1.824 0 0 1-1.812 1.813c-.486 0-.943-.196-1.283-.537a1.797 1.797 0 0 1-.53-1.276V583.6c0-.348-.137-.682-.384-.928a1.303 1.303 0 0 0-.935-.392h-2.798Zm20.284-11.643c.486 0 .943.189 1.283.53.341.34.53.797.53 1.283 0 .478-.189.942-.53 1.276-.34.341-.797.536-1.283.536h-2.798a4.94 4.94 0 0 1-3.495-1.45 4.937 4.937 0 0 1-1.449-3.494v-2.806a1.82 1.82 0 0 1 1.812-1.812c.486 0 .942.196 1.283.537.341.34.529.797.529 1.275v2.806c0 .348.138.682.385.928.246.254.587.391.935.391h2.798Zm-4.118 15.768c0 .479-.188.936-.529 1.276a1.81 1.81 0 0 1-1.283.537 1.82 1.82 0 0 1-1.812-1.813V583.6a4.944 4.944 0 0 1 4.944-4.944h2.798c.486 0 .943.195 1.283.536.341.334.53.798.53 1.276 0 .486-.189.942-.53 1.283a1.8 1.8 0 0 1-1.283.529h-2.798c-.348 0-.689.138-.935.392a1.31 1.31 0 0 0-.385.928v2.805Z"/></svg>