<?xml version="1.0" encoding="UTF-8" standalone="no"?>
<svg xmlns="http://www.w3.org/2000/svg" xmlns:xlink="http://www.w3.org/1999/xlink" style="isolation:isolate" viewBox="404.315 521.772 32 32" width="32pt" height="32pt"><g><path d=" M 411.985 533.763 C 411.985 534.241 411.797 534.698 411.456 535.039 C 411.115 535.379 410.658 535.575 410.173 535.575 C 409.694 535.575 409.23 535.379 408.889 535.039 C 408.556 534.698 408.36 534.241 408.36 533.763 L 408.36 530.957 C 408.36 529.645 408.882 528.391 409.81 527.463 C 410.738 526.535 411.992 526.013 413.304 526.013 L 416.103 526.013 C 416.589 526.013 417.045 526.209 417.386 526.549 C 417.727 526.883 417.915 527.347 417.915 527.825 C 417.915 528.311 417.727 528.768 417.386 529.108 C 417.045 529.449 416.589 529.638 416.103 529.638 L 413.304 529.638 C 412.956 529.638 412.616 529.775 412.369 530.029 C 412.123 530.276 411.985 530.609 411.985 530.957 L 411.985 533.763 L 411.985 533.763 L 411.985 533.763 L 411.985 533.763 Z  M 416.103 545.906 C 416.589 545.906 417.045 546.094 417.386 546.435 C 417.727 546.776 417.915 547.233 417.915 547.718 C 417.915 548.197 417.727 548.661 417.386 548.994 C 417.045 549.335 416.589 549.531 416.103 549.531 L 413.304 549.531 C 411.992 549.531 410.738 549.009 409.81 548.081 C 408.882 547.153 408.36 545.899 408.36 544.586 L 408.36 541.781 C 408.36 541.302 408.556 540.846 408.889 540.505 C 409.23 540.164 409.694 539.968 410.173 539.968 C 410.658 539.968 411.115 540.164 411.456 540.505 C 411.797 540.846 411.985 541.302 411.985 541.781 L 411.985 544.586 C 411.985 544.934 412.123 545.268 412.369 545.514 C 412.616 545.768 412.956 545.906 413.304 545.906 L 416.103 545.906 L 416.103 545.906 L 416.103 545.906 Z  M 424.527 529.638 C 424.041 529.638 423.584 529.449 423.244 529.108 C 422.903 528.768 422.715 528.311 422.715 527.825 C 422.715 527.347 422.903 526.883 423.244 526.549 C 423.584 526.209 424.041 526.013 424.527 526.013 L 427.325 526.013 C 428.637 526.013 429.892 526.535 430.82 527.463 C 431.748 528.391 432.27 529.645 432.27 530.957 L 432.27 533.763 C 432.27 534.241 432.074 534.698 431.74 535.039 C 431.4 535.379 430.936 535.575 430.457 535.575 C 429.971 535.575 429.515 535.379 429.174 535.039 C 428.833 534.698 428.645 534.241 428.645 533.763 L 428.645 530.957 C 428.645 530.609 428.507 530.276 428.26 530.029 C 428.014 529.775 427.673 529.638 427.325 529.638 L 424.527 529.638 L 424.527 529.638 Z  M 428.645 541.781 C 428.645 541.302 428.833 540.846 429.174 540.505 C 429.515 540.164 429.971 539.968 430.457 539.968 C 430.936 539.968 431.4 540.164 431.74 540.505 C 432.074 540.846 432.27 541.302 432.27 541.781 L 432.27 544.586 C 432.27 545.899 431.748 547.153 430.82 548.081 C 429.892 549.009 428.637 549.531 427.325 549.531 L 424.527 549.531 C 424.041 549.531 423.584 549.335 423.244 548.994 C 422.903 548.661 422.715 548.197 422.715 547.718 C 422.715 547.233 422.903 546.776 423.244 546.435 C 423.584 546.094 424.041 545.906 424.527 545.906 L 427.325 545.906 C 427.673 545.906 428.014 545.768 428.26 545.514 C 428.507 545.268 428.645 544.934 428.645 544.586 L 428.645 541.781 Z " fill-rule="evenodd" fill="rgb(0,0,0)"/><path d=" M 404.315 521.772 L 436.315 521.772 L 436.315 553.772 L 404.315 553.772 L 404.315 521.772 Z " fill="none"/></g></svg>