<?xml version="1.0" encoding="UTF-8" standalone="no"?>
<svg xmlns="http://www.w3.org/2000/svg" xmlns:xlink="http://www.w3.org/1999/xlink" style="isolation:isolate" viewBox="402.046 536.93 32.551 32" width="32.551pt" height="32pt"><path d=" M 409.992 548.921 C 409.992 549.399 409.803 549.856 409.463 550.197 C 409.122 550.538 408.665 550.733 408.179 550.733 C 407.701 550.733 407.237 550.538 406.896 550.197 C 406.563 549.856 406.367 549.399 406.367 548.921 L 406.367 546.115 C 406.367 544.803 406.889 543.549 407.817 542.621 C 408.745 541.693 409.999 541.171 411.311 541.171 L 414.11 541.171 C 414.595 541.171 415.052 541.367 415.393 541.708 C 415.734 542.041 415.922 542.505 415.922 542.983 C 415.922 543.469 415.734 543.926 415.393 544.267 C 415.052 544.607 414.595 544.796 414.11 544.796 L 411.311 544.796 C 410.963 544.796 410.623 544.934 410.376 545.187 C 410.13 545.434 409.992 545.767 409.992 546.115 L 409.992 548.921 L 409.992 548.921 L 409.992 548.921 L 409.992 548.921 Z  M 414.11 561.064 C 414.595 561.064 415.052 561.253 415.393 561.593 C 415.734 561.934 415.922 562.391 415.922 562.877 C 415.922 563.355 415.734 563.819 415.393 564.152 C 415.052 564.493 414.595 564.689 414.11 564.689 L 411.311 564.689 C 409.999 564.689 408.745 564.167 407.817 563.239 C 406.889 562.311 406.367 561.057 406.367 559.745 L 406.367 556.939 C 406.367 556.461 406.563 556.004 406.896 555.663 C 407.237 555.322 407.701 555.127 408.179 555.127 C 408.665 555.127 409.122 555.322 409.463 555.663 C 409.803 556.004 409.992 556.461 409.992 556.939 L 409.992 559.745 C 409.992 560.093 410.13 560.426 410.376 560.673 C 410.623 560.926 410.963 561.064 411.311 561.064 L 414.11 561.064 L 414.11 561.064 L 414.11 561.064 Z  M 422.534 544.796 C 422.048 544.796 421.591 544.607 421.251 544.267 C 420.91 543.926 420.721 543.469 420.721 542.983 C 420.721 542.505 420.91 542.041 421.251 541.708 C 421.591 541.367 422.048 541.171 422.534 541.171 L 425.332 541.171 C 426.644 541.171 427.899 541.693 428.826 542.621 C 429.754 543.549 430.276 544.803 430.276 546.115 L 430.276 548.921 C 430.276 549.399 430.081 549.856 429.747 550.197 C 429.406 550.538 428.942 550.733 428.464 550.733 C 427.978 550.733 427.522 550.538 427.181 550.197 C 426.84 549.856 426.652 549.399 426.652 548.921 L 426.652 546.115 C 426.652 545.767 426.514 545.434 426.267 545.187 C 426.021 544.934 425.68 544.796 425.332 544.796 L 422.534 544.796 L 422.534 544.796 Z  M 408.571 536.93 L 428.073 536.93 C 429.798 536.93 431.458 537.619 432.683 538.844 C 433.908 540.062 434.597 541.722 434.597 543.455 L 434.597 562.405 C 434.597 564.138 433.908 565.798 432.683 567.016 C 431.458 568.241 429.798 568.93 428.073 568.93 L 408.571 568.93 C 406.846 568.93 405.185 568.241 403.96 567.016 C 402.735 565.798 402.046 564.138 402.046 562.405 L 402.046 543.455 C 402.046 541.722 402.735 540.062 403.96 538.844 C 405.185 537.619 406.846 536.93 408.571 536.93 L 408.571 536.93 L 408.571 536.93 L 408.571 536.93 Z  M 426.652 556.939 C 426.652 556.461 426.84 556.004 427.181 555.663 C 427.522 555.322 427.978 555.127 428.464 555.127 C 428.942 555.127 429.406 555.322 429.747 555.663 C 430.081 556.004 430.276 556.461 430.276 556.939 L 430.276 559.745 C 430.276 561.057 429.754 562.311 428.826 563.239 C 427.899 564.167 426.644 564.689 425.332 564.689 L 422.534 564.689 C 422.048 564.689 421.591 564.493 421.251 564.152 C 420.91 563.819 420.721 563.355 420.721 562.877 C 420.721 562.391 420.91 561.934 421.251 561.593 C 421.591 561.253 422.048 561.064 422.534 561.064 L 425.332 561.064 C 425.68 561.064 426.021 560.926 426.267 560.673 C 426.514 560.426 426.652 560.093 426.652 559.745 L 426.652 556.939 Z " fill-rule="evenodd" fill="rgb(0,113,255)"/></svg>