<svg id="svg" version="1.1" xmlns="http://www.w3.org/2000/svg" xmlns:xlink="http://www.w3.org/1999/xlink" width="400" height="400" viewBox="0, 0, 400,400"><g id="svgg"><path id="path0" d="M184.800 4.800 C 184.800 5.041,183.133 5.200,180.600 5.200 C 178.067 5.200,176.400 5.359,176.400 5.600 C 176.400 5.833,175.067 6.000,173.200 6.000 C 171.333 6.000,170.000 6.167,170.000 6.400 C 170.000 6.622,168.933 6.800,167.600 6.800 C 166.267 6.800,165.200 6.978,165.200 7.200 C 165.200 7.422,164.133 7.600,162.800 7.600 C 161.480 7.600,160.400 7.754,160.400 7.943 C 160.400 8.131,159.123 8.404,157.562 8.549 C 156.001 8.694,154.393 8.990,153.988 9.206 C 153.584 9.423,152.621 9.600,151.850 9.600 C 151.078 9.600,150.336 9.780,150.200 10.000 C 150.064 10.220,149.481 10.400,148.905 10.400 C 147.834 10.400,145.551 11.020,144.305 11.649 C 143.923 11.842,143.248 12.000,142.805 12.000 C 142.362 12.000,142.000 12.160,142.000 12.356 C 142.000 12.693,141.551 12.810,137.900 13.432 C 137.075 13.573,136.400 13.848,136.400 14.044 C 136.400 14.240,135.860 14.400,135.200 14.400 C 134.540 14.400,134.000 14.580,134.000 14.800 C 134.000 15.020,133.561 15.200,133.024 15.200 C 132.487 15.200,131.936 15.380,131.800 15.600 C 131.664 15.820,131.203 16.000,130.776 16.000 C 130.349 16.000,130.000 16.180,130.000 16.400 C 130.000 16.620,129.638 16.800,129.195 16.800 C 128.752 16.800,128.032 16.980,127.595 17.200 C 127.158 17.420,126.442 17.780,126.005 18.000 C 125.568 18.220,124.938 18.400,124.605 18.400 C 124.272 18.400,124.000 18.580,124.000 18.800 C 124.000 19.020,123.460 19.200,122.800 19.200 C 122.140 19.200,121.600 19.380,121.600 19.600 C 121.600 19.820,121.240 20.000,120.800 20.000 C 120.360 20.000,120.000 20.180,120.000 20.400 C 120.000 20.620,119.640 20.800,119.200 20.800 C 118.760 20.800,118.400 20.980,118.400 21.200 C 118.400 21.420,118.040 21.600,117.600 21.600 C 117.160 21.600,116.800 21.780,116.800 22.000 C 116.800 22.220,116.440 22.400,116.000 22.400 C 115.560 22.400,115.200 22.580,115.200 22.800 C 115.200 23.020,114.750 23.200,114.200 23.200 C 113.650 23.200,113.200 23.380,113.200 23.600 C 113.200 23.820,112.983 24.000,112.718 24.000 C 111.959 24.000,107.600 26.104,107.600 26.470 C 107.600 26.652,107.240 26.800,106.800 26.800 C 106.360 26.800,106.000 26.980,106.000 27.200 C 106.000 27.420,105.640 27.600,105.200 27.600 C 104.760 27.600,104.400 27.780,104.400 28.000 C 104.400 28.220,104.040 28.400,103.600 28.400 C 103.160 28.400,102.800 28.580,102.800 28.800 C 102.800 29.020,102.440 29.200,102.000 29.200 C 101.560 29.200,101.200 29.380,101.200 29.600 C 101.200 29.820,100.964 30.000,100.675 30.000 C 100.387 30.000,99.764 30.360,99.292 30.800 C 98.820 31.240,98.156 31.600,97.817 31.600 C 97.478 31.600,97.200 31.780,97.200 32.000 C 97.200 32.220,96.964 32.400,96.675 32.400 C 96.387 32.400,95.802 32.715,95.375 33.100 C 94.949 33.485,94.105 34.055,93.500 34.368 C 92.895 34.680,92.400 35.085,92.400 35.268 C 92.400 35.450,92.130 35.600,91.800 35.600 C 91.470 35.600,91.200 35.780,91.200 36.000 C 91.200 36.220,90.880 36.400,90.488 36.400 C 90.097 36.400,89.517 36.760,89.200 37.200 C 88.883 37.640,88.343 38.000,88.000 38.000 C 87.657 38.000,87.117 38.360,86.800 38.800 C 86.483 39.240,86.038 39.600,85.812 39.601 C 85.585 39.601,84.770 40.141,84.000 40.800 C 83.230 41.459,82.465 41.999,82.301 41.999 C 81.660 42.001,77.240 45.343,74.497 47.900 C 73.493 48.835,72.507 49.600,72.305 49.600 C 72.103 49.600,71.246 50.320,70.400 51.200 C 69.554 52.080,68.695 52.800,68.489 52.800 C 68.133 52.800,58.979 61.370,57.639 62.958 C 57.288 63.375,54.975 65.758,52.500 68.254 C 50.025 70.749,48.000 72.988,48.000 73.227 C 48.000 73.467,47.325 74.324,46.500 75.131 C 45.675 75.939,44.523 77.230,43.941 78.000 C 43.358 78.770,42.503 79.797,42.041 80.283 C 41.578 80.769,41.200 81.372,41.200 81.623 C 41.200 81.874,40.660 82.583,40.000 83.200 C 39.340 83.817,38.800 84.569,38.800 84.872 C 38.800 85.175,38.440 85.683,38.000 86.000 C 37.560 86.317,37.200 86.825,37.200 87.128 C 37.200 87.431,36.660 88.183,36.000 88.800 C 35.340 89.417,34.800 90.169,34.800 90.472 C 34.800 90.775,34.440 91.283,34.000 91.600 C 33.560 91.917,33.200 92.407,33.200 92.688 C 33.200 92.970,33.050 93.200,32.868 93.200 C 32.685 93.200,32.280 93.695,31.968 94.300 C 31.655 94.905,31.085 95.749,30.700 96.175 C 30.315 96.602,30.000 97.187,30.000 97.475 C 30.000 97.764,29.820 98.000,29.600 98.000 C 29.380 98.000,29.200 98.360,29.200 98.800 C 29.200 99.240,29.050 99.600,28.868 99.600 C 28.685 99.600,28.280 100.095,27.968 100.700 C 27.656 101.305,27.290 101.890,27.153 102.000 C 26.686 102.377,24.800 106.373,24.800 106.987 C 24.800 107.324,24.620 107.600,24.400 107.600 C 24.180 107.600,24.000 107.870,24.000 108.200 C 24.000 108.530,23.820 108.800,23.600 108.800 C 23.380 108.800,23.200 109.070,23.200 109.400 C 23.200 109.730,23.054 110.000,22.875 110.000 C 22.696 110.000,22.302 110.630,22.000 111.400 C 21.698 112.170,21.304 112.800,21.125 112.800 C 20.946 112.800,20.800 113.160,20.800 113.600 C 20.800 114.040,20.620 114.400,20.400 114.400 C 20.180 114.400,20.000 114.760,20.000 115.200 C 20.000 115.640,19.820 116.000,19.600 116.000 C 19.380 116.000,19.200 116.360,19.200 116.800 C 19.200 117.240,19.020 117.600,18.800 117.600 C 18.580 117.600,18.400 117.960,18.400 118.400 C 18.400 118.840,18.253 119.200,18.072 119.200 C 17.892 119.200,17.500 120.100,17.200 121.200 C 16.900 122.300,16.508 123.200,16.328 123.200 C 16.147 123.200,16.000 123.560,16.000 124.000 C 16.000 124.440,15.864 124.800,15.698 124.800 C 15.531 124.800,15.156 125.385,14.864 126.100 C 13.741 128.850,13.496 129.422,13.153 130.095 C 12.959 130.477,12.800 131.152,12.800 131.595 C 12.800 132.038,12.620 132.400,12.400 132.400 C 12.180 132.400,12.000 132.749,12.000 133.176 C 12.000 133.603,11.820 134.064,11.600 134.200 C 11.380 134.336,11.200 134.887,11.200 135.424 C 11.200 135.961,11.020 136.400,10.800 136.400 C 10.580 136.400,10.400 136.940,10.400 137.600 C 10.400 138.260,10.240 138.800,10.045 138.800 C 9.850 138.800,9.585 139.295,9.455 139.900 C 9.326 140.505,8.997 142.035,8.724 143.300 C 8.451 144.565,8.087 145.600,7.914 145.600 C 7.741 145.600,7.600 146.129,7.600 146.776 C 7.600 147.423,7.420 148.064,7.200 148.200 C 6.980 148.336,6.800 149.067,6.800 149.824 C 6.800 150.581,6.620 151.200,6.400 151.200 C 6.180 151.200,6.000 151.920,6.000 152.800 C 6.000 153.680,5.820 154.400,5.600 154.400 C 5.380 154.400,5.200 155.120,5.200 156.000 C 5.200 156.880,5.020 157.600,4.800 157.600 C 4.580 157.600,4.400 158.320,4.400 159.200 C 4.400 160.080,4.220 160.800,4.000 160.800 C 3.780 160.800,3.600 161.610,3.600 162.600 C 3.600 163.590,3.420 164.400,3.200 164.400 C 2.980 164.400,2.800 165.379,2.800 166.576 C 2.800 167.773,2.620 168.864,2.400 169.000 C 2.180 169.136,2.000 170.317,2.000 171.624 C 2.000 172.941,1.822 174.000,1.600 174.000 C 1.375 174.000,1.200 175.122,1.200 176.567 C 1.200 178.264,1.031 179.190,0.700 179.300 C -0.032 179.544,-0.032 229.656,0.700 229.900 C 1.047 230.016,1.200 231.096,1.200 233.433 C 1.200 235.411,1.365 236.800,1.600 236.800 C 1.820 236.800,2.000 237.700,2.000 238.800 C 2.000 239.900,2.180 240.800,2.400 240.800 C 2.620 240.800,2.800 241.700,2.800 242.800 C 2.800 243.900,2.980 244.800,3.200 244.800 C 3.420 244.800,3.600 245.700,3.600 246.800 C 3.600 247.900,3.780 248.800,4.000 248.800 C 4.220 248.800,4.400 249.700,4.400 250.800 C 4.400 251.900,4.580 252.800,4.800 252.800 C 5.020 252.800,5.200 253.419,5.200 254.176 C 5.200 254.933,5.380 255.664,5.600 255.800 C 5.820 255.936,6.000 256.577,6.000 257.224 C 6.000 257.871,6.180 258.400,6.400 258.400 C 6.620 258.400,6.800 259.030,6.800 259.800 C 6.800 260.570,6.980 261.200,7.200 261.200 C 7.420 261.200,7.600 261.920,7.600 262.800 C 7.600 263.680,7.780 264.400,8.000 264.400 C 8.220 264.400,8.406 264.895,8.414 265.500 C 8.421 266.105,8.977 268.130,9.650 270.000 C 10.322 271.870,10.967 273.805,11.083 274.300 C 11.198 274.795,11.452 275.200,11.647 275.200 C 11.841 275.200,12.000 275.740,12.000 276.400 C 12.000 277.060,12.180 277.600,12.400 277.600 C 12.620 277.600,12.800 278.039,12.800 278.576 C 12.800 279.113,12.980 279.664,13.200 279.800 C 13.420 279.936,13.600 280.397,13.600 280.824 C 13.600 281.251,13.780 281.600,14.000 281.600 C 14.220 281.600,14.400 281.955,14.400 282.388 C 14.400 282.821,14.760 283.817,15.200 284.600 C 15.640 285.383,16.000 286.289,16.000 286.612 C 16.000 286.935,16.180 287.200,16.400 287.200 C 16.620 287.200,16.800 287.560,16.800 288.000 C 16.800 288.440,16.946 288.800,17.125 288.800 C 17.304 288.800,17.698 289.430,18.000 290.200 C 18.302 290.970,18.696 291.600,18.875 291.600 C 19.054 291.600,19.200 291.872,19.200 292.205 C 19.200 292.538,19.360 293.123,19.556 293.505 C 19.752 293.887,20.320 295.055,20.819 296.100 C 21.318 297.145,21.877 298.000,22.063 298.000 C 22.248 298.000,22.400 298.360,22.400 298.800 C 22.400 299.240,22.580 299.600,22.800 299.600 C 23.020 299.600,23.200 299.960,23.200 300.400 C 23.200 300.840,23.380 301.200,23.600 301.200 C 23.820 301.200,24.000 301.358,24.000 301.551 C 24.000 301.745,24.810 303.367,25.800 305.156 C 28.430 309.912,28.535 310.085,29.300 310.955 C 29.685 311.393,30.000 311.987,30.000 312.275 C 30.000 312.564,30.150 312.800,30.332 312.800 C 30.515 312.800,30.919 313.295,31.230 313.900 C 31.540 314.505,32.111 315.291,32.497 315.647 C 32.884 316.003,33.200 316.548,33.200 316.859 C 33.200 317.169,33.560 317.683,34.000 318.000 C 34.440 318.317,34.800 318.857,34.800 319.200 C 34.800 319.543,35.160 320.083,35.600 320.400 C 36.040 320.717,36.400 321.257,36.400 321.600 C 36.400 321.943,36.760 322.483,37.200 322.800 C 37.640 323.117,38.000 323.531,38.000 323.720 C 38.000 323.908,38.720 324.754,39.600 325.600 C 40.480 326.446,41.200 327.330,41.200 327.566 C 41.200 327.953,42.180 329.257,43.500 330.625 C 43.775 330.910,44.000 331.309,44.000 331.512 C 44.000 331.715,44.497 332.403,45.104 333.041 C 45.712 333.678,46.652 334.830,47.195 335.600 C 48.325 337.205,52.691 341.600,53.155 341.600 C 53.325 341.600,53.720 342.092,54.032 342.694 C 54.996 344.552,68.855 357.923,70.934 359.000 C 71.557 359.323,72.574 360.130,73.194 360.794 C 73.814 361.457,74.429 362.000,74.560 362.000 C 74.692 362.000,75.541 362.720,76.448 363.600 C 77.355 364.480,78.273 365.200,78.488 365.200 C 78.703 365.200,79.356 365.695,79.940 366.300 C 80.523 366.905,81.495 367.655,82.100 367.968 C 82.705 368.280,83.200 368.685,83.200 368.868 C 83.200 369.050,83.425 369.200,83.700 369.200 C 83.975 369.201,84.717 369.646,85.349 370.189 C 85.981 370.733,86.836 371.284,87.249 371.416 C 87.662 371.547,88.000 371.800,88.000 371.978 C 88.000 372.157,88.540 372.527,89.200 372.800 C 89.860 373.073,90.400 373.426,90.400 373.584 C 90.400 373.742,91.118 374.215,91.995 374.636 C 92.873 375.056,93.593 375.535,93.595 375.700 C 93.598 375.865,93.870 376.000,94.200 376.000 C 94.530 376.000,94.800 376.180,94.800 376.400 C 94.800 376.620,95.160 376.800,95.600 376.800 C 96.040 376.800,96.400 376.980,96.400 377.200 C 96.400 377.420,96.678 377.600,97.017 377.600 C 97.356 377.600,98.020 377.960,98.492 378.400 C 98.964 378.840,99.587 379.200,99.875 379.200 C 100.164 379.200,100.400 379.380,100.400 379.600 C 100.400 379.820,100.760 380.000,101.200 380.000 C 101.640 380.000,102.000 380.180,102.000 380.400 C 102.000 380.620,102.360 380.800,102.800 380.800 C 103.240 380.800,103.600 380.980,103.600 381.200 C 103.600 381.420,103.836 381.600,104.125 381.600 C 104.413 381.600,105.036 381.960,105.508 382.400 C 105.980 382.840,106.644 383.200,106.983 383.200 C 107.322 383.200,107.600 383.380,107.600 383.600 C 107.600 383.820,107.960 384.000,108.400 384.000 C 108.840 384.000,109.200 384.180,109.200 384.400 C 109.200 384.620,109.549 384.800,109.976 384.800 C 110.403 384.800,110.864 384.980,111.000 385.200 C 111.136 385.420,111.597 385.600,112.024 385.600 C 112.451 385.600,112.800 385.780,112.800 386.000 C 112.800 386.220,113.160 386.400,113.600 386.400 C 114.040 386.400,114.400 386.580,114.400 386.800 C 114.400 387.020,114.760 387.200,115.200 387.200 C 115.640 387.200,116.000 387.380,116.000 387.600 C 116.000 387.820,116.360 388.000,116.800 388.000 C 117.240 388.000,117.600 388.180,117.600 388.400 C 117.600 388.620,117.836 388.800,118.125 388.800 C 118.414 388.800,119.395 389.160,120.306 389.600 C 121.216 390.040,122.229 390.400,122.557 390.400 C 122.885 390.400,123.251 390.559,123.371 390.754 C 123.492 390.948,124.402 391.229,125.395 391.378 C 126.388 391.527,127.200 391.818,127.200 392.025 C 127.200 392.231,127.650 392.400,128.200 392.400 C 128.750 392.400,129.200 392.580,129.200 392.800 C 129.200 393.020,129.740 393.200,130.400 393.200 C 131.060 393.200,131.600 393.380,131.600 393.600 C 131.600 393.820,131.949 394.000,132.376 394.000 C 132.803 394.000,133.264 394.180,133.400 394.400 C 133.536 394.620,134.087 394.800,134.624 394.800 C 135.161 394.800,135.600 394.980,135.600 395.200 C 135.600 395.443,137.400 395.600,140.200 395.600 C 143.000 395.600,144.800 395.443,144.800 395.200 C 144.800 394.980,145.160 394.800,145.600 394.800 C 146.040 394.800,146.400 394.663,146.400 394.495 C 146.400 394.327,146.790 394.012,147.267 393.795 C 147.744 393.578,148.329 393.043,148.567 392.606 C 148.805 392.169,149.315 391.518,149.700 391.159 C 150.085 390.800,150.400 390.122,150.400 389.653 C 150.400 389.184,150.580 388.800,150.800 388.800 C 151.062 388.800,151.200 381.600,151.200 368.000 L 151.200 347.200 149.024 347.200 C 147.827 347.200,146.736 347.380,146.600 347.600 C 146.464 347.820,145.193 348.000,143.776 348.000 C 142.325 348.000,141.200 348.175,141.200 348.400 C 141.200 348.656,137.533 348.800,131.000 348.800 C 124.467 348.800,120.800 348.656,120.800 348.400 C 120.800 348.171,119.600 348.000,118.000 348.000 C 116.400 348.000,115.200 347.829,115.200 347.600 C 115.200 347.380,114.221 347.200,113.024 347.200 C 111.827 347.200,110.736 347.020,110.600 346.800 C 110.464 346.580,109.744 346.400,109.000 346.400 C 108.256 346.400,107.536 346.220,107.400 346.000 C 107.264 345.780,106.803 345.600,106.376 345.600 C 105.949 345.600,105.600 345.420,105.600 345.200 C 105.600 344.980,105.287 344.800,104.904 344.800 C 104.094 344.800,98.264 342.007,98.067 341.525 C 97.993 341.346,97.677 341.200,97.363 341.200 C 97.049 341.200,96.228 340.660,95.537 340.000 C 94.846 339.340,94.083 338.795,93.841 338.788 C 93.598 338.781,92.950 338.230,92.400 337.563 C 91.850 336.896,91.040 335.956,90.600 335.475 C 90.160 334.993,89.350 333.926,88.800 333.102 C 88.250 332.279,87.665 331.604,87.500 331.603 C 87.335 331.601,87.200 331.240,87.200 330.800 C 87.200 330.360,87.053 330.000,86.874 330.000 C 86.465 330.000,84.800 326.919,84.800 326.162 C 84.800 325.853,84.620 325.600,84.400 325.600 C 84.180 325.600,84.000 325.240,84.000 324.800 C 84.000 324.360,83.820 324.000,83.600 324.000 C 83.380 324.000,83.200 323.460,83.200 322.800 C 83.200 322.140,83.020 321.600,82.800 321.600 C 82.580 321.600,82.400 321.240,82.400 320.800 C 82.400 320.360,82.220 320.000,82.000 320.000 C 81.780 320.000,81.600 319.640,81.600 319.200 C 81.600 318.760,81.420 318.400,81.200 318.400 C 80.980 318.400,80.800 318.040,80.800 317.600 C 80.800 317.160,80.620 316.800,80.400 316.800 C 80.180 316.800,80.000 316.440,80.000 316.000 C 80.000 315.560,79.820 315.200,79.600 315.200 C 79.380 315.200,79.200 314.840,79.200 314.400 C 79.200 313.960,79.020 313.600,78.800 313.600 C 78.580 313.600,78.400 313.240,78.400 312.800 C 78.400 312.360,78.220 312.000,78.000 312.000 C 77.780 312.000,77.600 311.764,77.600 311.475 C 77.600 311.187,77.240 310.564,76.800 310.092 C 76.360 309.620,76.000 309.123,76.000 308.988 C 76.000 308.853,75.775 308.492,75.500 308.185 C 74.339 306.891,74.000 306.414,74.000 306.076 C 74.000 305.880,73.460 305.154,72.800 304.463 C 72.140 303.772,71.600 303.047,71.600 302.850 C 71.600 302.300,66.525 297.200,65.977 297.200 C 65.711 297.200,65.201 296.885,64.843 296.500 C 64.484 296.115,63.788 295.575,63.296 295.300 C 60.209 293.577,60.310 293.647,58.222 291.798 C 57.354 291.029,56.499 290.400,56.322 290.400 C 56.145 290.400,56.000 290.040,56.000 289.600 C 56.000 289.160,55.850 288.800,55.668 288.800 C 55.485 288.800,55.080 288.305,54.768 287.700 C 54.456 287.095,54.037 286.481,53.836 286.336 C 53.361 285.994,54.554 284.800,55.371 284.800 C 55.717 284.800,56.000 284.620,56.000 284.400 C 56.000 284.175,57.122 284.000,58.567 284.000 C 60.229 284.000,61.216 283.824,61.367 283.500 C 61.553 283.100,61.647 283.100,61.833 283.500 C 61.981 283.817,62.931 284.000,64.433 284.000 C 65.744 284.000,66.800 284.178,66.800 284.400 C 66.800 284.620,67.340 284.800,68.000 284.800 C 68.660 284.800,69.200 284.980,69.200 285.200 C 69.200 285.420,69.639 285.600,70.176 285.600 C 70.713 285.600,71.264 285.780,71.400 286.000 C 71.536 286.220,71.997 286.400,72.424 286.400 C 72.851 286.400,73.200 286.568,73.200 286.773 C 73.200 286.978,73.559 287.260,73.998 287.399 C 74.436 287.538,75.021 287.872,75.298 288.141 C 75.574 288.410,76.430 288.948,77.200 289.337 C 77.970 289.726,79.230 290.436,80.000 290.915 C 81.813 292.042,89.230 299.473,89.968 300.901 C 90.280 301.505,90.685 302.000,90.868 302.000 C 91.050 302.000,91.200 302.189,91.200 302.419 C 91.200 302.650,91.830 303.823,92.600 305.027 C 93.370 306.231,94.000 307.352,94.000 307.519 C 94.000 307.687,94.360 308.083,94.800 308.400 C 95.240 308.717,95.600 309.200,95.600 309.473 C 95.600 309.746,96.300 310.741,97.155 311.685 C 98.011 312.628,99.565 314.345,100.610 315.500 C 101.655 316.655,102.666 317.600,102.858 317.600 C 103.050 317.600,103.772 318.140,104.463 318.800 C 105.154 319.460,105.962 320.000,106.259 320.000 C 106.557 320.000,106.800 320.168,106.800 320.373 C 106.800 320.578,107.159 320.860,107.598 320.999 C 108.036 321.138,108.621 321.473,108.898 321.743 C 109.537 322.367,113.023 324.000,113.716 324.000 C 114.004 324.000,114.436 324.196,114.675 324.435 C 114.914 324.674,116.570 324.970,118.355 325.092 C 120.140 325.214,121.600 325.469,121.600 325.657 C 121.600 325.846,123.310 326.000,125.400 326.000 C 127.490 326.000,129.200 325.848,129.200 325.661 C 129.200 325.475,131.747 325.214,134.861 325.081 C 137.974 324.948,140.710 324.650,140.941 324.419 C 141.171 324.189,141.853 324.000,142.456 324.000 C 143.059 324.000,143.664 323.820,143.800 323.600 C 143.936 323.380,144.577 323.200,145.224 323.200 C 145.871 323.200,146.400 323.020,146.400 322.800 C 146.400 322.580,146.839 322.400,147.376 322.400 C 147.913 322.400,148.464 322.220,148.600 322.000 C 148.736 321.780,149.197 321.600,149.624 321.600 C 150.051 321.600,150.400 321.441,150.400 321.247 C 150.400 321.052,150.760 320.799,151.200 320.684 C 151.852 320.514,152.000 320.138,152.000 318.661 C 152.000 317.663,152.180 316.736,152.400 316.600 C 152.620 316.464,152.800 315.553,152.800 314.576 C 152.800 313.599,152.980 312.800,153.200 312.800 C 153.420 312.800,153.600 312.260,153.600 311.600 C 153.600 310.940,153.780 310.400,154.000 310.400 C 154.220 310.400,154.400 310.038,154.400 309.595 C 154.400 309.152,154.580 308.432,154.800 307.995 C 155.020 307.558,155.380 306.842,155.600 306.405 C 155.820 305.968,156.000 305.338,156.000 305.005 C 156.000 304.672,156.142 304.400,156.316 304.400 C 156.490 304.400,157.156 303.365,157.796 302.100 C 158.436 300.835,159.283 299.451,159.680 299.025 C 160.076 298.598,160.400 298.091,160.400 297.899 C 160.400 297.706,161.300 296.671,162.400 295.600 C 165.618 292.465,165.052 292.161,154.500 291.352 C 152.685 291.213,151.200 290.942,151.200 290.750 C 151.200 290.557,150.300 290.400,149.200 290.400 C 148.100 290.400,147.200 290.220,147.200 290.000 C 147.200 289.780,146.401 289.600,145.424 289.600 C 144.447 289.600,143.536 289.420,143.400 289.200 C 143.264 288.980,142.443 288.800,141.576 288.800 C 140.709 288.800,140.000 288.620,140.000 288.400 C 140.000 288.180,139.280 288.000,138.400 288.000 C 137.520 288.000,136.800 287.820,136.800 287.600 C 136.800 287.380,136.170 287.200,135.400 287.200 C 134.630 287.200,134.000 287.020,134.000 286.800 C 134.000 286.580,133.460 286.400,132.800 286.400 C 132.140 286.400,131.600 286.220,131.600 286.000 C 131.600 285.780,131.060 285.600,130.400 285.600 C 129.740 285.600,129.200 285.420,129.200 285.200 C 129.200 284.980,128.840 284.800,128.400 284.800 C 127.960 284.800,127.600 284.620,127.600 284.400 C 127.600 284.180,127.060 284.000,126.400 284.000 C 125.740 284.000,125.200 283.820,125.200 283.600 C 125.200 283.380,124.840 283.200,124.400 283.200 C 123.960 283.200,123.600 283.020,123.600 282.800 C 123.600 282.580,123.240 282.400,122.800 282.400 C 122.360 282.400,122.000 282.220,122.000 282.000 C 122.000 281.780,121.550 281.600,121.000 281.600 C 120.450 281.600,120.000 281.420,120.000 281.200 C 120.000 280.980,119.640 280.800,119.200 280.800 C 118.760 280.800,118.400 280.620,118.400 280.400 C 118.400 280.180,118.040 280.000,117.600 280.000 C 117.160 280.000,116.800 279.820,116.800 279.600 C 116.800 279.380,116.440 279.200,116.000 279.200 C 115.560 279.200,115.200 279.065,115.200 278.899 C 115.200 278.734,114.345 278.153,113.300 277.609 C 112.255 277.065,111.310 276.525,111.200 276.410 C 111.090 276.294,110.280 275.840,109.400 275.400 C 108.520 274.960,107.451 274.285,107.025 273.900 C 106.598 273.515,106.085 273.200,105.885 273.200 C 105.685 273.200,105.017 272.660,104.400 272.000 C 103.783 271.340,103.092 270.800,102.864 270.800 C 102.212 270.800,91.727 260.229,91.420 259.263 C 91.269 258.788,90.990 258.400,90.800 258.400 C 90.610 258.400,90.347 258.062,90.216 257.649 C 90.084 257.236,89.533 256.381,88.989 255.749 C 88.446 255.117,88.001 254.375,88.000 254.100 C 88.000 253.825,87.820 253.600,87.600 253.600 C 87.380 253.600,87.200 253.240,87.200 252.800 C 87.200 252.360,87.020 252.000,86.800 252.000 C 86.580 252.000,86.400 251.722,86.400 251.383 C 86.400 251.044,86.040 250.380,85.600 249.908 C 85.160 249.436,84.800 248.813,84.800 248.525 C 84.800 248.236,84.620 248.000,84.400 248.000 C 84.180 248.000,84.000 247.665,84.000 247.256 C 84.000 246.636,82.976 244.278,81.154 240.705 C 80.959 240.323,80.800 239.738,80.800 239.405 C 80.800 239.072,80.620 238.800,80.400 238.800 C 80.180 238.800,80.000 238.260,80.000 237.600 C 80.000 236.940,79.820 236.400,79.600 236.400 C 79.380 236.400,79.200 235.860,79.200 235.200 C 79.200 234.540,79.020 234.000,78.800 234.000 C 78.580 234.000,78.400 233.460,78.400 232.800 C 78.400 232.140,78.220 231.600,78.000 231.600 C 77.780 231.600,77.600 230.880,77.600 230.000 C 77.600 229.120,77.420 228.400,77.200 228.400 C 76.980 228.400,76.800 227.770,76.800 227.000 C 76.800 226.230,76.620 225.600,76.400 225.600 C 76.180 225.600,76.000 224.880,76.000 224.000 C 76.000 223.120,75.848 222.400,75.662 222.400 C 75.476 222.400,75.113 220.105,74.855 217.300 C 74.597 214.495,74.184 210.130,73.938 207.600 C 73.360 201.663,73.355 188.709,73.929 184.600 C 74.175 182.840,74.606 179.749,74.888 177.731 C 75.170 175.712,75.535 173.927,75.700 173.764 C 75.865 173.600,76.000 173.057,76.000 172.557 C 76.000 172.057,76.180 171.536,76.400 171.400 C 76.620 171.264,76.800 170.724,76.800 170.200 C 76.800 169.676,76.980 169.136,77.200 169.000 C 77.420 168.864,77.600 168.324,77.600 167.800 C 77.600 167.276,77.780 166.736,78.000 166.600 C 78.220 166.464,78.400 165.913,78.400 165.376 C 78.400 164.839,78.580 164.400,78.800 164.400 C 79.020 164.400,79.200 164.040,79.200 163.600 C 79.200 163.160,79.380 162.800,79.600 162.800 C 79.820 162.800,80.000 162.440,80.000 162.000 C 80.000 161.560,80.180 161.200,80.400 161.200 C 80.620 161.200,80.800 160.726,80.800 160.147 C 80.800 159.568,81.129 158.803,81.530 158.447 C 81.932 158.091,82.516 157.215,82.828 156.500 C 83.140 155.785,83.531 155.200,83.698 155.200 C 83.864 155.200,84.000 154.840,84.000 154.400 C 84.000 153.960,84.150 153.600,84.332 153.600 C 84.515 153.600,84.919 153.105,85.230 152.500 C 85.540 151.895,86.111 151.109,86.497 150.753 C 86.884 150.397,87.200 149.901,87.200 149.649 C 87.200 149.398,87.740 148.628,88.400 147.937 C 89.060 147.246,89.600 146.520,89.600 146.322 C 89.600 146.125,90.005 145.524,90.500 144.986 C 93.221 142.032,93.200 142.070,93.200 140.014 C 93.200 138.906,93.020 138.000,92.800 138.000 C 92.580 138.000,92.400 137.460,92.400 136.800 C 92.400 136.140,92.245 135.600,92.056 135.600 C 91.867 135.600,91.500 134.295,91.240 132.700 C 90.981 131.105,90.572 128.720,90.331 127.400 C 89.761 124.271,89.767 110.883,90.340 107.800 C 90.585 106.480,91.001 103.915,91.265 102.100 C 91.528 100.285,91.891 98.800,92.072 98.800 C 92.252 98.800,92.400 98.080,92.400 97.200 C 92.400 96.320,92.580 95.600,92.800 95.600 C 93.020 95.600,93.200 95.060,93.200 94.400 C 93.200 93.740,93.380 93.200,93.600 93.200 C 93.820 93.200,94.000 92.750,94.000 92.200 C 94.000 91.650,94.180 91.200,94.400 91.200 C 94.620 91.200,94.800 90.660,94.800 90.000 C 94.800 89.067,94.978 88.800,95.600 88.800 C 96.040 88.800,96.400 88.620,96.400 88.400 C 96.400 88.160,98.000 88.000,100.400 88.000 C 102.800 88.000,104.400 88.160,104.400 88.400 C 104.400 88.620,105.120 88.800,106.000 88.800 C 106.880 88.800,107.600 88.980,107.600 89.200 C 107.600 89.420,108.219 89.600,108.976 89.600 C 109.733 89.600,110.464 89.780,110.600 90.000 C 110.736 90.220,111.276 90.400,111.800 90.400 C 112.324 90.400,112.851 90.559,112.971 90.754 C 113.092 90.948,114.002 91.229,114.995 91.378 C 115.988 91.527,116.800 91.818,116.800 92.025 C 116.800 92.231,117.340 92.400,118.000 92.400 C 118.660 92.400,119.200 92.580,119.200 92.800 C 119.200 93.020,119.560 93.200,120.000 93.200 C 120.440 93.200,120.800 93.380,120.800 93.600 C 120.800 93.820,121.160 94.000,121.600 94.000 C 122.040 94.000,122.400 94.180,122.400 94.400 C 122.400 94.620,122.940 94.800,123.600 94.800 C 124.260 94.800,124.801 94.935,124.803 95.100 C 124.807 95.459,126.744 96.400,127.480 96.400 C 127.766 96.400,128.000 96.580,128.000 96.800 C 128.000 97.020,128.450 97.200,129.000 97.200 C 129.550 97.200,130.000 97.380,130.000 97.600 C 130.000 97.820,130.345 98.000,130.767 98.000 C 131.188 98.000,131.593 98.135,131.667 98.300 C 131.740 98.465,132.565 99.005,133.500 99.500 C 134.435 99.995,135.965 100.805,136.900 101.300 C 137.835 101.795,138.660 102.335,138.733 102.500 C 138.807 102.665,139.172 102.800,139.545 102.800 C 139.918 102.800,140.483 103.160,140.800 103.600 C 141.117 104.040,141.529 104.400,141.716 104.400 C 141.903 104.400,142.811 104.895,143.735 105.500 C 149.055 108.986,149.153 109.021,152.300 108.507 C 153.785 108.265,155.810 107.857,156.800 107.601 C 157.790 107.344,159.276 107.040,160.103 106.925 C 160.929 106.810,161.705 106.555,161.826 106.358 C 161.948 106.161,162.937 106.000,164.024 106.000 C 165.111 106.000,166.000 105.820,166.000 105.600 C 166.000 105.380,166.954 105.200,168.120 105.200 C 169.286 105.200,170.411 105.036,170.620 104.835 C 171.047 104.425,174.020 104.063,179.500 103.754 C 181.535 103.639,183.200 103.377,183.200 103.173 C 183.200 102.956,186.211 102.800,190.376 102.800 C 194.729 102.800,197.650 102.643,197.800 102.400 C 197.936 102.180,198.926 102.000,200.000 102.000 C 201.074 102.000,202.064 102.180,202.200 102.400 C 202.350 102.643,205.271 102.800,209.624 102.800 C 213.789 102.800,216.800 102.956,216.800 103.173 C 216.800 103.377,218.465 103.639,220.500 103.754 C 225.980 104.063,228.953 104.425,229.380 104.835 C 229.589 105.036,230.714 105.200,231.880 105.200 C 233.046 105.200,234.000 105.380,234.000 105.600 C 234.000 105.820,234.889 106.000,235.976 106.000 C 237.063 106.000,238.052 106.161,238.174 106.358 C 238.295 106.555,239.071 106.810,239.897 106.925 C 240.724 107.040,242.210 107.344,243.200 107.601 C 248.808 109.051,253.600 108.839,253.600 107.139 C 253.600 106.953,253.793 106.800,254.028 106.800 C 254.263 106.800,255.241 106.260,256.200 105.600 C 257.159 104.940,258.097 104.400,258.284 104.400 C 258.471 104.400,258.883 104.040,259.200 103.600 C 259.517 103.160,260.097 102.800,260.488 102.800 C 260.880 102.800,261.200 102.620,261.200 102.400 C 261.200 102.180,261.560 102.000,262.000 102.000 C 262.440 102.000,262.800 101.820,262.800 101.600 C 262.800 101.380,263.145 101.200,263.567 101.200 C 263.988 101.200,264.393 101.065,264.467 100.900 C 264.634 100.524,266.764 99.225,267.700 98.929 C 268.085 98.807,268.400 98.548,268.400 98.353 C 268.400 98.159,268.760 98.000,269.200 98.000 C 269.640 98.000,270.000 97.820,270.000 97.600 C 270.000 97.380,270.360 97.200,270.800 97.200 C 271.240 97.200,271.600 97.020,271.600 96.800 C 271.600 96.580,271.960 96.400,272.400 96.400 C 272.840 96.400,273.200 96.220,273.200 96.000 C 273.200 95.780,273.650 95.600,274.200 95.600 C 274.750 95.600,275.200 95.420,275.200 95.200 C 275.200 94.980,275.560 94.800,276.000 94.800 C 276.440 94.800,276.800 94.620,276.800 94.400 C 276.800 94.180,277.160 94.000,277.600 94.000 C 278.040 94.000,278.400 93.820,278.400 93.600 C 278.400 93.380,278.940 93.200,279.600 93.200 C 280.260 93.200,280.800 93.020,280.800 92.800 C 280.800 92.580,281.160 92.400,281.600 92.400 C 282.040 92.400,282.400 92.231,282.400 92.025 C 282.400 91.818,283.212 91.527,284.205 91.378 C 285.198 91.229,286.108 90.948,286.229 90.754 C 286.349 90.559,286.876 90.400,287.400 90.400 C 287.924 90.400,288.464 90.220,288.600 90.000 C 288.736 89.780,289.366 89.600,290.000 89.600 C 290.634 89.600,291.264 89.420,291.400 89.200 C 291.536 88.980,292.357 88.800,293.224 88.800 C 294.091 88.800,294.800 88.620,294.800 88.400 C 294.800 88.159,296.473 88.000,299.018 88.000 C 303.578 88.000,305.200 88.730,305.200 90.782 C 305.200 91.232,305.380 91.600,305.600 91.600 C 305.820 91.600,306.000 92.140,306.000 92.800 C 306.000 93.460,306.180 94.000,306.400 94.000 C 306.620 94.000,306.800 94.540,306.800 95.200 C 306.800 95.860,306.980 96.400,307.200 96.400 C 307.420 96.400,307.600 97.120,307.600 98.000 C 307.600 98.880,307.757 99.600,307.948 99.600 C 308.300 99.600,309.123 104.335,309.478 108.400 C 309.584 109.610,309.835 110.771,310.035 110.980 C 310.236 111.189,310.400 114.348,310.400 118.000 C 310.400 121.652,310.236 124.811,310.035 125.020 C 309.835 125.229,309.576 126.390,309.462 127.600 C 309.103 131.382,308.302 135.600,307.944 135.600 C 307.755 135.600,307.600 136.140,307.600 136.800 C 307.600 137.460,307.420 138.000,307.200 138.000 C 306.355 138.000,306.753 141.986,307.700 142.999 C 308.813 144.189,309.165 144.633,310.400 146.400 C 310.938 147.170,311.698 148.149,312.089 148.575 C 312.480 149.002,312.800 149.521,312.800 149.729 C 312.800 149.936,313.116 150.397,313.503 150.753 C 313.889 151.109,314.460 151.895,314.770 152.500 C 315.081 153.105,315.485 153.600,315.668 153.600 C 315.850 153.600,316.000 153.960,316.000 154.400 C 316.000 154.840,316.136 155.200,316.302 155.200 C 316.469 155.200,316.864 155.785,317.180 156.500 C 317.497 157.215,318.080 158.149,318.478 158.575 C 318.875 159.002,319.200 159.767,319.200 160.275 C 319.200 160.784,319.380 161.200,319.600 161.200 C 319.820 161.200,320.000 161.560,320.000 162.000 C 320.000 162.440,320.180 162.800,320.400 162.800 C 320.620 162.800,320.800 163.160,320.800 163.600 C 320.800 164.040,320.980 164.400,321.200 164.400 C 321.420 164.400,321.600 164.839,321.600 165.376 C 321.600 165.913,321.780 166.464,322.000 166.600 C 322.220 166.736,322.400 167.276,322.400 167.800 C 322.400 168.324,322.580 168.864,322.800 169.000 C 323.020 169.136,323.200 169.676,323.200 170.200 C 323.200 170.724,323.380 171.264,323.600 171.400 C 323.820 171.536,324.000 171.999,324.000 172.429 C 324.000 172.859,324.162 173.523,324.359 173.905 C 324.726 174.617,325.392 178.762,326.108 184.800 C 326.933 191.758,326.500 207.159,325.236 215.800 C 325.011 217.340,324.820 219.455,324.813 220.500 C 324.806 221.545,324.620 222.400,324.400 222.400 C 324.180 222.400,324.000 223.120,324.000 224.000 C 324.000 224.880,323.820 225.600,323.600 225.600 C 323.380 225.600,323.200 226.219,323.200 226.976 C 323.200 227.733,323.020 228.464,322.800 228.600 C 322.580 228.736,322.400 229.467,322.400 230.224 C 322.400 230.981,322.220 231.600,322.000 231.600 C 321.780 231.600,321.600 232.140,321.600 232.800 C 321.600 233.460,321.420 234.000,321.200 234.000 C 320.980 234.000,320.800 234.540,320.800 235.200 C 320.800 235.860,320.620 236.400,320.400 236.400 C 320.180 236.400,320.000 236.940,320.000 237.600 C 320.000 238.260,319.820 238.800,319.600 238.800 C 319.380 238.800,319.200 239.325,319.200 239.967 C 319.200 240.608,319.065 241.193,318.900 241.267 C 318.735 241.340,318.175 242.300,317.656 243.400 C 317.137 244.500,316.552 245.713,316.356 246.095 C 316.160 246.477,316.000 247.062,316.000 247.395 C 316.000 247.728,315.820 248.000,315.600 248.000 C 315.380 248.000,315.200 248.278,315.200 248.617 C 315.200 248.956,314.840 249.620,314.400 250.092 C 313.960 250.564,313.600 251.187,313.600 251.475 C 313.600 251.764,313.420 252.000,313.200 252.000 C 312.980 252.000,312.800 252.360,312.800 252.800 C 312.800 253.240,312.620 253.600,312.400 253.600 C 312.180 253.600,312.000 253.878,312.000 254.218 C 312.000 254.558,311.564 255.272,311.031 255.805 C 310.498 256.338,309.946 257.140,309.804 257.587 C 309.662 258.034,309.390 258.400,309.200 258.400 C 309.010 258.400,308.730 258.789,308.579 259.265 C 308.273 260.230,298.585 270.000,297.935 270.000 C 297.707 270.000,297.044 270.495,296.460 271.100 C 295.877 271.705,294.905 272.455,294.300 272.768 C 293.695 273.080,293.200 273.485,293.200 273.668 C 293.200 273.850,292.930 274.000,292.600 274.000 C 292.270 274.000,292.000 274.153,292.000 274.339 C 292.000 274.526,291.280 275.003,290.400 275.400 C 289.520 275.797,288.800 276.274,288.800 276.461 C 288.800 276.647,288.440 276.800,288.000 276.800 C 287.560 276.800,287.200 276.980,287.200 277.200 C 287.200 277.420,286.855 277.600,286.433 277.600 C 286.012 277.600,285.607 277.738,285.533 277.906 C 285.460 278.074,283.060 279.376,280.200 280.800 C 277.340 282.224,274.940 283.526,274.867 283.694 C 274.793 283.862,274.208 284.000,273.567 284.000 C 272.925 284.000,272.400 284.180,272.400 284.400 C 272.400 284.620,271.860 284.800,271.200 284.800 C 270.540 284.800,270.000 284.980,270.000 285.200 C 270.000 285.420,269.640 285.600,269.200 285.600 C 268.760 285.600,268.400 285.780,268.400 286.000 C 268.400 286.220,267.781 286.400,267.024 286.400 C 266.267 286.400,265.536 286.580,265.400 286.800 C 265.264 287.020,264.623 287.200,263.976 287.200 C 263.329 287.200,262.800 287.380,262.800 287.600 C 262.800 287.820,262.181 288.000,261.424 288.000 C 260.667 288.000,259.936 288.180,259.800 288.400 C 259.664 288.620,258.753 288.800,257.776 288.800 C 256.799 288.800,256.000 288.980,256.000 289.200 C 256.000 289.420,255.280 289.600,254.400 289.600 C 253.520 289.600,252.800 289.780,252.800 290.000 C 252.800 290.220,251.821 290.400,250.624 290.400 C 249.427 290.400,248.336 290.580,248.200 290.800 C 248.064 291.020,247.039 291.200,245.923 291.200 C 244.806 291.200,242.701 291.394,241.246 291.631 C 239.791 291.868,238.006 292.148,237.279 292.253 C 235.232 292.549,235.302 293.361,237.562 295.563 C 238.683 296.655,239.600 297.748,239.600 297.992 C 239.600 298.236,240.047 298.884,240.594 299.431 C 241.141 299.977,241.973 301.319,242.443 302.412 C 242.914 303.506,243.456 304.400,243.649 304.400 C 243.842 304.400,244.000 304.672,244.000 305.005 C 244.000 305.338,244.208 306.013,244.462 306.505 C 245.458 308.431,245.600 308.817,245.600 309.595 C 245.600 310.038,245.780 310.400,246.000 310.400 C 246.220 310.400,246.400 310.940,246.400 311.600 C 246.400 312.260,246.580 312.800,246.800 312.800 C 247.020 312.800,247.200 313.599,247.200 314.576 C 247.200 315.553,247.380 316.464,247.600 316.600 C 247.820 316.736,248.000 317.816,248.000 319.000 C 248.000 320.184,248.180 321.264,248.400 321.400 C 248.661 321.562,248.800 333.137,248.800 354.824 C 248.800 376.675,248.937 388.000,249.200 388.000 C 249.420 388.000,249.600 388.540,249.600 389.200 C 249.600 389.860,249.780 390.400,250.000 390.400 C 250.220 390.400,250.400 390.585,250.400 390.811 C 250.400 391.457,253.911 394.800,254.589 394.800 C 254.925 394.800,255.200 394.980,255.200 395.200 C 255.200 395.443,257.000 395.600,259.800 395.600 C 262.600 395.600,264.400 395.443,264.400 395.200 C 264.400 394.980,264.839 394.800,265.376 394.800 C 265.913 394.800,266.464 394.620,266.600 394.400 C 266.736 394.180,267.197 394.000,267.624 394.000 C 268.051 394.000,268.400 393.820,268.400 393.600 C 268.400 393.380,268.940 393.200,269.600 393.200 C 270.260 393.200,270.800 393.020,270.800 392.800 C 270.800 392.580,271.250 392.400,271.800 392.400 C 272.350 392.400,272.800 392.240,272.800 392.045 C 272.800 391.850,273.606 391.570,274.591 391.422 C 275.576 391.275,276.486 390.984,276.614 390.777 C 276.742 390.570,277.152 390.394,277.524 390.387 C 277.896 390.381,279.275 389.841,280.590 389.187 C 281.904 388.534,283.209 388.000,283.490 388.000 C 283.770 388.000,284.000 387.820,284.000 387.600 C 284.000 387.380,284.360 387.200,284.800 387.200 C 285.240 387.200,285.600 387.020,285.600 386.800 C 285.600 386.580,285.960 386.400,286.400 386.400 C 286.840 386.400,287.200 386.220,287.200 386.000 C 287.200 385.780,287.549 385.600,287.976 385.600 C 288.403 385.600,288.864 385.420,289.000 385.200 C 289.136 384.980,289.597 384.800,290.024 384.800 C 290.451 384.800,290.800 384.620,290.800 384.400 C 290.800 384.180,291.160 384.000,291.600 384.000 C 292.040 384.000,292.400 383.820,292.400 383.600 C 292.400 383.380,292.678 383.200,293.017 383.200 C 293.356 383.200,294.020 382.840,294.492 382.400 C 294.964 381.960,295.587 381.600,295.875 381.600 C 296.164 381.600,296.400 381.420,296.400 381.200 C 296.400 380.980,296.760 380.800,297.200 380.800 C 297.640 380.800,298.000 380.620,298.000 380.400 C 298.000 380.180,298.360 380.000,298.800 380.000 C 299.240 380.000,299.600 379.820,299.600 379.600 C 299.600 379.380,299.836 379.200,300.125 379.200 C 300.413 379.200,301.036 378.840,301.508 378.400 C 301.980 377.960,302.644 377.600,302.983 377.600 C 303.322 377.600,303.600 377.420,303.600 377.200 C 303.600 376.980,303.960 376.800,304.400 376.800 C 304.840 376.800,305.200 376.620,305.200 376.400 C 305.200 376.180,305.470 376.000,305.800 376.000 C 306.130 376.000,306.402 375.865,306.405 375.700 C 306.407 375.535,307.127 375.056,308.005 374.636 C 308.882 374.215,309.600 373.742,309.600 373.584 C 309.600 373.426,310.140 373.073,310.800 372.800 C 311.460 372.527,312.000 372.157,312.000 371.978 C 312.000 371.800,312.338 371.547,312.751 371.416 C 313.164 371.284,314.019 370.733,314.651 370.189 C 315.283 369.646,315.985 369.201,316.212 369.200 C 316.438 369.200,316.883 368.840,317.200 368.400 C 317.517 367.960,318.025 367.600,318.328 367.600 C 318.631 367.600,319.383 367.060,320.000 366.400 C 320.617 365.740,321.297 365.200,321.512 365.200 C 321.727 365.200,322.645 364.480,323.552 363.600 C 324.459 362.720,325.308 362.000,325.440 362.000 C 325.571 362.000,326.186 361.457,326.806 360.794 C 327.426 360.130,328.443 359.328,329.066 359.012 C 331.099 357.980,345.008 344.554,345.968 342.698 C 346.280 342.094,346.675 341.600,346.845 341.600 C 347.309 341.600,351.675 337.205,352.805 335.600 C 353.348 334.830,354.288 333.678,354.896 333.041 C 355.503 332.403,356.000 331.728,356.000 331.542 C 356.000 331.355,356.630 330.534,357.400 329.718 C 358.170 328.901,358.800 327.987,358.800 327.685 C 358.800 327.384,359.520 326.446,360.400 325.600 C 361.280 324.754,362.000 323.908,362.000 323.720 C 362.000 323.531,362.360 323.117,362.800 322.800 C 363.240 322.483,363.600 321.943,363.600 321.600 C 363.600 321.257,363.960 320.717,364.400 320.400 C 364.840 320.083,365.200 319.543,365.200 319.200 C 365.200 318.857,365.560 318.317,366.000 318.000 C 366.440 317.683,366.800 317.143,366.800 316.800 C 366.800 316.457,367.160 315.917,367.600 315.600 C 368.040 315.283,368.400 314.827,368.400 314.587 C 368.400 314.347,368.715 313.802,369.100 313.375 C 369.485 312.949,370.055 312.105,370.368 311.500 C 370.680 310.895,371.085 310.400,371.268 310.400 C 371.450 310.400,371.600 310.223,371.600 310.007 C 371.600 309.791,372.279 308.486,373.109 307.107 C 373.940 305.728,374.975 303.837,375.409 302.905 C 375.844 301.972,376.335 301.207,376.500 301.205 C 376.665 301.202,376.800 300.840,376.800 300.400 C 376.800 299.960,376.980 299.600,377.200 299.600 C 377.420 299.600,377.600 299.240,377.600 298.800 C 377.600 298.360,377.747 298.000,377.926 298.000 C 378.392 298.000,380.000 294.869,380.000 293.962 C 380.000 293.543,380.180 293.200,380.400 293.200 C 380.620 293.200,380.800 292.840,380.800 292.400 C 380.800 291.960,380.946 291.600,381.125 291.600 C 381.304 291.600,381.698 290.970,382.000 290.200 C 382.302 289.430,382.696 288.800,382.875 288.800 C 383.054 288.800,383.200 288.547,383.200 288.238 C 383.200 287.753,383.752 286.480,385.250 283.505 C 385.443 283.123,385.600 282.538,385.600 282.205 C 385.600 281.872,385.747 281.600,385.928 281.600 C 386.108 281.600,386.500 280.700,386.800 279.600 C 387.100 278.500,387.492 277.600,387.672 277.600 C 387.853 277.600,388.000 277.060,388.000 276.400 C 388.000 275.740,388.180 275.200,388.400 275.200 C 388.620 275.200,388.800 274.874,388.800 274.475 C 388.800 274.076,389.160 273.005,389.600 272.094 C 390.040 271.184,390.400 270.171,390.400 269.843 C 390.400 269.515,390.567 269.144,390.772 269.017 C 390.977 268.891,391.267 267.800,391.418 266.594 C 391.569 265.387,391.851 264.400,392.046 264.400 C 392.241 264.400,392.400 263.680,392.400 262.800 C 392.400 261.920,392.580 261.200,392.800 261.200 C 393.020 261.200,393.200 260.570,393.200 259.800 C 393.200 259.030,393.380 258.400,393.600 258.400 C 393.820 258.400,394.000 257.871,394.000 257.224 C 394.000 256.577,394.180 255.936,394.400 255.800 C 394.620 255.664,394.800 254.933,394.800 254.176 C 394.800 253.419,394.980 252.800,395.200 252.800 C 395.420 252.800,395.600 251.900,395.600 250.800 C 395.600 249.700,395.780 248.800,396.000 248.800 C 396.220 248.800,396.400 247.900,396.400 246.800 C 396.400 245.700,396.580 244.800,396.800 244.800 C 397.020 244.800,397.200 243.900,397.200 242.800 C 397.200 241.700,397.380 240.800,397.600 240.800 C 397.820 240.800,398.000 239.900,398.000 238.800 C 398.000 237.700,398.180 236.800,398.400 236.800 C 398.635 236.800,398.800 235.411,398.800 233.433 C 398.800 231.096,398.953 230.016,399.300 229.900 C 399.693 229.769,399.800 224.351,399.800 204.600 C 399.800 184.849,399.693 179.431,399.300 179.300 C 398.969 179.190,398.800 178.264,398.800 176.567 C 398.800 175.122,398.625 174.000,398.400 174.000 C 398.178 174.000,398.000 172.941,398.000 171.624 C 398.000 170.317,397.820 169.136,397.600 169.000 C 397.380 168.864,397.200 167.773,397.200 166.576 C 397.200 165.379,397.020 164.400,396.800 164.400 C 396.580 164.400,396.400 163.590,396.400 162.600 C 396.400 161.610,396.220 160.800,396.000 160.800 C 395.780 160.800,395.600 160.080,395.600 159.200 C 395.600 158.320,395.420 157.600,395.200 157.600 C 394.980 157.600,394.800 156.880,394.800 156.000 C 394.800 155.120,394.620 154.400,394.400 154.400 C 394.180 154.400,394.000 153.680,394.000 152.800 C 394.000 151.920,393.820 151.200,393.600 151.200 C 393.380 151.200,393.200 150.581,393.200 149.824 C 393.200 149.067,393.020 148.336,392.800 148.200 C 392.580 148.064,392.400 147.423,392.400 146.776 C 392.400 146.129,392.241 145.600,392.046 145.600 C 391.851 145.600,391.568 144.610,391.417 143.400 C 391.266 142.190,390.975 141.200,390.771 141.200 C 390.567 141.200,390.400 140.660,390.400 140.000 C 390.400 139.340,390.220 138.800,390.000 138.800 C 389.780 138.800,389.600 138.260,389.600 137.600 C 389.600 136.940,389.453 136.400,389.272 136.400 C 389.092 136.400,388.700 135.500,388.400 134.400 C 388.100 133.300,387.708 132.400,387.528 132.400 C 387.347 132.400,387.200 132.038,387.200 131.595 C 387.200 131.152,387.020 130.432,386.800 129.995 C 386.580 129.558,386.220 128.842,386.000 128.405 C 385.780 127.968,385.600 127.338,385.600 127.005 C 385.600 126.672,385.420 126.400,385.200 126.400 C 384.980 126.400,384.800 126.040,384.800 125.600 C 384.800 125.160,384.620 124.800,384.400 124.800 C 384.180 124.800,384.000 124.440,384.000 124.000 C 384.000 123.560,383.820 123.200,383.600 123.200 C 383.380 123.200,383.200 122.851,383.200 122.424 C 383.200 121.997,383.020 121.536,382.800 121.400 C 382.580 121.264,382.400 120.713,382.400 120.176 C 382.400 119.639,382.220 119.200,382.000 119.200 C 381.780 119.200,381.600 118.840,381.600 118.400 C 381.600 117.960,381.420 117.600,381.200 117.600 C 380.980 117.600,380.800 117.240,380.800 116.800 C 380.800 116.360,380.620 116.000,380.400 116.000 C 380.180 116.000,380.000 115.640,380.000 115.200 C 380.000 114.760,379.820 114.400,379.600 114.400 C 379.380 114.400,379.200 114.055,379.200 113.633 C 379.200 113.212,379.065 112.807,378.900 112.733 C 378.524 112.566,377.225 110.436,376.929 109.500 C 376.807 109.115,376.548 108.800,376.353 108.800 C 376.159 108.800,376.000 108.530,376.000 108.200 C 376.000 107.870,375.820 107.600,375.600 107.600 C 375.380 107.600,375.200 107.284,375.200 106.897 C 375.200 106.234,373.370 102.432,372.843 102.000 C 372.709 101.890,372.344 101.305,372.032 100.700 C 371.720 100.095,371.315 99.600,371.132 99.600 C 370.950 99.600,370.800 99.240,370.800 98.800 C 370.800 98.360,370.620 98.000,370.400 98.000 C 370.180 98.000,370.000 97.764,370.000 97.475 C 370.000 97.187,369.685 96.602,369.300 96.175 C 368.915 95.749,368.345 94.905,368.032 94.300 C 367.720 93.695,367.315 93.200,367.132 93.200 C 366.950 93.200,366.800 92.970,366.800 92.688 C 366.800 92.407,366.440 91.917,366.000 91.600 C 365.560 91.283,365.200 90.775,365.200 90.472 C 365.200 90.169,364.660 89.417,364.000 88.800 C 363.340 88.183,362.800 87.431,362.800 87.128 C 362.800 86.825,362.440 86.317,362.000 86.000 C 361.560 85.683,361.200 85.175,361.200 84.872 C 361.200 84.569,360.660 83.817,360.000 83.200 C 359.340 82.583,358.800 81.865,358.800 81.603 C 358.800 81.100,356.540 78.347,353.700 75.391 C 352.765 74.417,352.000 73.428,352.000 73.192 C 352.000 72.616,332.166 52.800,331.590 52.800 C 331.341 52.800,330.446 52.080,329.600 51.200 C 328.754 50.320,327.897 49.600,327.695 49.600 C 327.493 49.600,326.507 48.835,325.503 47.900 C 322.760 45.343,318.340 42.001,317.699 41.999 C 317.535 41.999,316.770 41.459,316.000 40.800 C 315.230 40.141,314.415 39.601,314.188 39.601 C 313.962 39.600,313.517 39.240,313.200 38.800 C 312.883 38.360,312.343 38.000,312.000 38.000 C 311.657 38.000,311.117 37.640,310.800 37.200 C 310.483 36.760,309.903 36.400,309.512 36.400 C 309.120 36.400,308.800 36.220,308.800 36.000 C 308.800 35.780,308.530 35.600,308.200 35.600 C 307.870 35.600,307.600 35.450,307.600 35.268 C 307.600 35.085,307.105 34.680,306.500 34.368 C 305.895 34.055,305.051 33.485,304.625 33.100 C 304.198 32.715,303.613 32.400,303.325 32.400 C 303.036 32.400,302.800 32.220,302.800 32.000 C 302.800 31.780,302.522 31.600,302.183 31.600 C 301.844 31.600,301.180 31.240,300.708 30.800 C 300.236 30.360,299.613 30.000,299.325 30.000 C 299.036 30.000,298.800 29.820,298.800 29.600 C 298.800 29.380,298.440 29.200,298.000 29.200 C 297.560 29.200,297.200 29.020,297.200 28.800 C 297.200 28.580,296.840 28.400,296.400 28.400 C 295.960 28.400,295.600 28.220,295.600 28.000 C 295.600 27.780,295.240 27.600,294.800 27.600 C 294.360 27.600,294.000 27.420,294.000 27.200 C 294.000 26.980,293.640 26.800,293.200 26.800 C 292.760 26.800,292.400 26.652,292.400 26.470 C 292.400 26.104,288.041 24.000,287.282 24.000 C 287.017 24.000,286.800 23.820,286.800 23.600 C 286.800 23.380,286.350 23.200,285.800 23.200 C 285.250 23.200,284.800 23.020,284.800 22.800 C 284.800 22.580,284.440 22.400,284.000 22.400 C 283.560 22.400,283.200 22.220,283.200 22.000 C 283.200 21.780,282.840 21.600,282.400 21.600 C 281.960 21.600,281.600 21.420,281.600 21.200 C 281.600 20.980,281.240 20.800,280.800 20.800 C 280.360 20.800,280.000 20.620,280.000 20.400 C 280.000 20.180,279.640 20.000,279.200 20.000 C 278.760 20.000,278.400 19.820,278.400 19.600 C 278.400 19.380,277.860 19.200,277.200 19.200 C 276.540 19.200,276.000 19.020,276.000 18.800 C 276.000 18.580,275.728 18.400,275.395 18.400 C 274.807 18.400,274.382 18.233,272.505 17.262 C 272.013 17.008,271.248 16.800,270.805 16.800 C 270.362 16.800,270.000 16.620,270.000 16.400 C 270.000 16.180,269.651 16.000,269.224 16.000 C 268.797 16.000,268.336 15.820,268.200 15.600 C 268.064 15.380,267.513 15.200,266.976 15.200 C 266.439 15.200,266.000 15.020,266.000 14.800 C 266.000 14.580,265.460 14.400,264.800 14.400 C 264.140 14.400,263.600 14.220,263.600 14.000 C 263.600 13.780,263.208 13.600,262.728 13.600 C 261.808 13.600,259.472 12.940,258.305 12.351 C 257.923 12.158,257.336 12.000,257.000 12.000 C 256.664 12.000,256.077 11.842,255.695 11.649 C 254.449 11.020,252.166 10.400,251.095 10.400 C 250.519 10.400,249.936 10.220,249.800 10.000 C 249.664 9.780,248.922 9.600,248.150 9.600 C 247.379 9.600,246.416 9.423,246.012 9.206 C 245.607 8.990,243.999 8.694,242.438 8.549 C 240.877 8.404,239.600 8.131,239.600 7.943 C 239.600 7.754,238.520 7.600,237.200 7.600 C 235.867 7.600,234.800 7.422,234.800 7.200 C 234.800 6.978,233.733 6.800,232.400 6.800 C 231.067 6.800,230.000 6.622,230.000 6.400 C 230.000 6.167,228.667 6.000,226.800 6.000 C 224.933 6.000,223.600 5.833,223.600 5.600 C 223.600 5.359,221.933 5.200,219.400 5.200 C 216.867 5.200,215.200 5.041,215.200 4.800 C 215.200 4.540,209.867 4.400,200.000 4.400 C 190.133 4.400,184.800 4.540,184.800 4.800 " stroke="none" fill="#040404" fill-rule="evenodd"></path><path id="path1" d="" stroke="none" fill="#080404" fill-rule="evenodd"></path><path id="path2" d="" stroke="none" fill="#080404" fill-rule="evenodd"></path><path id="path3" d="" stroke="none" fill="#080404" fill-rule="evenodd"></path><path id="path4" d="" stroke="none" fill="#080404" fill-rule="evenodd"></path></g></svg>