<svg id="svg" version="1.1" xmlns="http://www.w3.org/2000/svg" xmlns:xlink="http://www.w3.org/1999/xlink" width="400" height="400" viewBox="0, 0, 400,400"><g id="svgg"><path id="path0" d="M63.800 266.000 C 44.441 285.360,28.376 301.200,28.101 301.200 C 27.406 301.200,27.487 301.632,28.400 302.800 C 28.830 303.350,29.186 304.025,29.191 304.300 C 29.196 304.575,29.358 304.800,29.551 304.800 C 29.745 304.800,30.127 305.340,30.400 306.000 C 30.673 306.660,31.055 307.200,31.249 307.200 C 31.442 307.200,31.600 307.436,31.600 307.725 C 31.600 308.013,31.915 308.598,32.300 309.025 C 32.685 309.451,33.255 310.295,33.568 310.900 C 33.880 311.505,34.285 312.000,34.468 312.000 C 34.650 312.000,34.800 312.236,34.800 312.525 C 34.800 312.813,35.160 313.436,35.600 313.908 C 36.040 314.380,36.400 314.954,36.400 315.183 C 36.400 315.412,36.580 315.600,36.800 315.600 C 37.020 315.600,37.200 315.870,37.200 316.200 C 37.200 316.530,37.341 316.800,37.514 316.800 C 37.686 316.800,38.120 317.295,38.479 317.900 C 38.837 318.505,39.472 319.394,39.890 319.875 C 40.308 320.356,40.999 321.231,41.425 321.819 C 41.851 322.407,42.383 323.094,42.606 323.344 C 42.829 323.595,43.639 324.609,44.406 325.599 C 46.320 328.068,47.140 329.060,49.000 331.153 C 49.880 332.144,51.050 333.488,51.600 334.141 C 54.592 337.693,70.652 353.184,71.735 353.563 C 71.991 353.652,72.470 354.012,72.800 354.364 C 73.876 355.509,78.082 358.800,78.470 358.800 C 78.677 358.800,78.736 358.980,78.600 359.200 C 78.464 359.420,78.635 359.600,78.980 359.600 C 79.325 359.600,80.172 360.140,80.863 360.800 C 81.554 361.460,82.322 362.000,82.571 362.000 C 82.820 362.000,83.283 362.360,83.600 362.800 C 83.917 363.240,84.407 363.600,84.688 363.600 C 84.970 363.600,85.200 363.780,85.200 364.000 C 85.200 364.220,85.470 364.400,85.800 364.400 C 86.130 364.400,86.400 364.550,86.400 364.732 C 86.400 364.915,86.895 365.320,87.500 365.632 C 88.105 365.945,88.949 366.515,89.375 366.900 C 89.802 367.285,90.372 367.600,90.642 367.600 C 90.912 367.600,91.193 367.763,91.267 367.963 C 91.340 368.162,93.380 369.516,95.800 370.971 C 98.220 372.427,100.470 373.800,100.800 374.023 C 101.130 374.246,101.895 374.642,102.500 374.902 C 103.105 375.162,103.600 375.516,103.600 375.688 C 103.600 375.859,103.960 376.000,104.400 376.000 C 104.840 376.000,105.200 376.180,105.200 376.400 C 105.200 376.620,105.560 376.800,106.000 376.800 C 106.440 376.800,106.800 376.980,106.800 377.200 C 106.800 377.420,107.160 377.600,107.600 377.600 C 108.040 377.600,108.400 377.746,108.400 377.925 C 108.400 378.104,109.030 378.498,109.800 378.800 C 110.570 379.102,111.200 379.496,111.200 379.675 C 111.200 379.854,111.560 380.000,112.000 380.000 C 112.440 380.000,112.800 380.180,112.800 380.400 C 112.800 380.620,113.160 380.800,113.600 380.800 C 114.040 380.800,114.400 380.980,114.400 381.200 C 114.400 381.420,114.760 381.600,115.200 381.600 C 115.640 381.600,116.000 381.780,116.000 382.000 C 116.000 382.220,116.253 382.400,116.562 382.400 C 117.047 382.400,118.320 382.952,121.295 384.450 C 121.677 384.643,122.262 384.800,122.595 384.800 C 122.928 384.800,123.200 384.980,123.200 385.200 C 123.200 385.420,123.472 385.600,123.804 385.600 C 124.137 385.600,125.262 385.978,126.304 386.440 C 127.347 386.902,128.560 387.418,129.000 387.586 C 129.440 387.755,130.250 388.085,130.800 388.320 C 131.350 388.555,132.970 389.132,134.400 389.603 C 135.830 390.073,137.270 390.562,137.600 390.689 C 138.692 391.111,139.384 391.277,140.900 391.482 C 141.725 391.593,142.400 391.845,142.400 392.042 C 142.400 392.239,142.929 392.400,143.576 392.400 C 144.223 392.400,144.864 392.580,145.000 392.800 C 145.136 393.020,145.766 393.200,146.400 393.200 C 147.034 393.200,147.664 393.380,147.800 393.600 C 147.936 393.820,148.566 394.000,149.200 394.000 C 149.834 394.000,150.464 394.180,150.600 394.400 C 150.736 394.620,151.456 394.800,152.200 394.800 C 152.944 394.800,153.664 394.980,153.800 395.200 C 153.936 395.420,154.746 395.600,155.600 395.600 C 156.454 395.600,157.264 395.780,157.400 396.000 C 157.536 396.220,158.346 396.400,159.200 396.400 C 160.054 396.400,160.864 396.580,161.000 396.800 C 161.136 397.020,162.137 397.200,163.224 397.200 C 164.311 397.200,165.200 397.380,165.200 397.600 C 165.200 397.820,166.179 398.000,167.376 398.000 C 168.573 398.000,169.664 398.180,169.800 398.400 C 169.936 398.620,171.261 398.800,172.744 398.800 C 174.227 398.800,175.632 398.992,175.867 399.227 C 176.138 399.498,180.597 399.739,188.147 399.889 L 200.000 400.125 200.000 352.727 L 200.000 305.328 198.981 304.864 C 198.376 304.589,195.867 304.400,192.805 304.400 C 189.798 304.400,187.544 304.233,187.400 304.000 C 187.264 303.780,186.094 303.600,184.800 303.600 C 183.506 303.600,182.336 303.420,182.200 303.200 C 182.064 302.980,181.164 302.800,180.200 302.800 C 179.236 302.800,178.336 302.620,178.200 302.400 C 178.064 302.180,177.254 302.000,176.400 302.000 C 175.546 302.000,174.736 301.820,174.600 301.600 C 174.464 301.380,173.823 301.200,173.176 301.200 C 172.529 301.200,172.000 301.040,172.000 300.844 C 172.000 300.648,171.415 300.386,170.700 300.263 C 167.688 299.742,166.800 299.490,166.800 299.155 C 166.800 298.960,166.361 298.800,165.824 298.800 C 165.287 298.800,164.758 298.656,164.649 298.479 C 164.540 298.303,163.539 297.910,162.425 297.607 C 161.311 297.304,160.400 296.908,160.400 296.728 C 160.400 296.547,160.164 296.400,159.875 296.400 C 159.070 296.400,149.885 291.991,149.667 291.500 C 149.593 291.335,149.188 291.200,148.767 291.200 C 148.345 291.200,148.000 291.020,148.000 290.800 C 148.000 290.580,147.680 290.400,147.288 290.400 C 146.897 290.400,146.317 290.040,146.000 289.600 C 145.683 289.160,145.103 288.800,144.712 288.800 C 144.320 288.800,144.000 288.650,144.000 288.468 C 144.000 288.285,143.508 287.880,142.906 287.568 C 141.820 287.004,140.797 286.261,139.784 285.300 C 139.494 285.025,139.064 284.800,138.829 284.800 C 138.593 284.800,138.400 284.620,138.400 284.400 C 138.400 284.180,138.145 284.000,137.833 284.000 C 137.522 284.000,137.207 283.865,137.133 283.700 C 137.060 283.535,136.341 282.860,135.535 282.200 C 134.729 281.540,133.302 280.370,132.364 279.600 C 128.680 276.578,121.019 268.670,118.015 264.790 C 117.253 263.805,116.488 262.940,116.315 262.867 C 116.142 262.793,116.000 262.518,116.000 262.255 C 116.000 261.992,115.640 261.517,115.200 261.200 C 114.760 260.883,114.400 260.420,114.400 260.171 C 114.400 259.922,113.860 259.154,113.200 258.463 C 112.540 257.772,112.000 256.936,112.000 256.604 C 112.000 256.272,111.820 256.000,111.600 256.000 C 111.380 256.000,111.200 255.764,111.200 255.475 C 111.200 255.187,110.840 254.564,110.400 254.092 C 109.960 253.620,109.600 252.971,109.600 252.650 C 109.600 252.329,109.442 252.007,109.249 251.933 C 109.055 251.860,107.694 249.280,106.224 246.200 C 104.754 243.120,103.382 240.287,103.175 239.905 C 102.969 239.523,102.800 238.938,102.800 238.605 C 102.800 238.272,102.620 238.000,102.400 238.000 C 102.180 238.000,102.000 237.586,102.000 237.080 C 102.000 236.574,101.851 235.989,101.670 235.780 C 101.488 235.571,101.095 234.590,100.798 233.600 C 100.249 231.777,99.709 230.800,99.250 230.800 C 99.112 230.800,83.159 246.640,63.800 266.000 " stroke="none" fill="#5cc46c" fill-rule="evenodd"></path><path id="path1" d="M179.003 0.276 C 177.025 0.363,175.234 0.606,175.023 0.817 C 174.812 1.028,173.416 1.200,171.920 1.200 C 170.373 1.200,169.200 1.373,169.200 1.600 C 169.200 1.822,168.133 2.000,166.800 2.000 C 165.467 2.000,164.400 2.178,164.400 2.400 C 164.400 2.620,163.601 2.800,162.624 2.800 C 161.647 2.800,160.736 2.980,160.600 3.200 C 160.464 3.420,159.553 3.600,158.576 3.600 C 157.599 3.600,156.800 3.780,156.800 4.000 C 156.800 4.220,156.080 4.400,155.200 4.400 C 154.320 4.400,153.600 4.580,153.600 4.800 C 153.600 5.020,152.880 5.200,152.000 5.200 C 151.120 5.200,150.400 5.380,150.400 5.600 C 150.400 5.820,149.680 6.000,148.800 6.000 C 147.920 6.000,147.200 6.180,147.200 6.400 C 147.200 6.620,146.671 6.800,146.024 6.800 C 145.377 6.800,144.736 6.980,144.600 7.200 C 144.464 7.420,143.823 7.600,143.176 7.600 C 142.529 7.600,142.000 7.780,142.000 8.000 C 142.000 8.220,141.571 8.400,141.046 8.400 C 140.022 8.400,136.247 9.440,135.105 10.037 C 134.723 10.237,134.136 10.400,133.800 10.400 C 133.464 10.400,132.877 10.559,132.495 10.753 C 131.779 11.117,130.154 11.811,128.400 12.500 C 127.850 12.716,127.087 13.052,126.705 13.247 C 126.323 13.441,125.738 13.600,125.405 13.600 C 125.072 13.600,124.800 13.780,124.800 14.000 C 124.800 14.220,124.361 14.400,123.824 14.400 C 123.287 14.400,122.736 14.580,122.600 14.800 C 122.464 15.020,122.003 15.200,121.576 15.200 C 121.149 15.200,120.800 15.380,120.800 15.600 C 120.800 15.820,120.440 16.000,120.000 16.000 C 119.560 16.000,119.200 16.180,119.200 16.400 C 119.200 16.620,118.840 16.800,118.400 16.800 C 117.960 16.800,117.600 16.980,117.600 17.200 C 117.600 17.420,117.251 17.600,116.824 17.600 C 116.397 17.600,115.936 17.780,115.800 18.000 C 115.664 18.220,115.203 18.400,114.776 18.400 C 114.349 18.400,114.000 18.580,114.000 18.800 C 114.000 19.020,113.640 19.200,113.200 19.200 C 112.760 19.200,112.400 19.380,112.400 19.600 C 112.400 19.820,112.040 20.000,111.600 20.000 C 111.160 20.000,110.800 20.180,110.800 20.400 C 110.800 20.620,110.455 20.800,110.033 20.800 C 109.612 20.800,109.207 20.935,109.133 21.100 C 108.966 21.476,106.836 22.775,105.900 23.071 C 105.515 23.193,105.200 23.452,105.200 23.647 C 105.200 23.841,104.840 24.000,104.400 24.000 C 103.960 24.000,103.600 24.180,103.600 24.400 C 103.600 24.620,103.358 24.800,103.061 24.800 C 102.473 24.800,99.922 25.978,99.600 26.398 C 99.490 26.542,98.590 27.096,97.600 27.630 C 96.610 28.163,95.710 28.690,95.600 28.801 C 95.490 28.911,94.905 29.256,94.300 29.568 C 93.695 29.880,93.200 30.285,93.200 30.468 C 93.200 30.650,92.930 30.800,92.600 30.800 C 92.270 30.800,92.000 30.958,92.000 31.151 C 92.000 31.345,91.460 31.727,90.800 32.000 C 90.140 32.273,89.600 32.655,89.600 32.849 C 89.600 33.042,89.357 33.200,89.059 33.200 C 88.762 33.200,87.954 33.740,87.263 34.400 C 86.572 35.060,85.775 35.600,85.492 35.600 C 85.209 35.600,84.717 35.960,84.400 36.400 C 84.083 36.840,83.575 37.200,83.272 37.200 C 82.969 37.200,82.217 37.740,81.600 38.400 C 80.983 39.060,80.308 39.600,80.099 39.600 C 79.890 39.600,79.154 40.140,78.463 40.800 C 77.772 41.460,77.063 42.000,76.887 42.000 C 76.711 42.000,75.944 42.586,75.183 43.303 C 74.423 44.020,73.170 45.052,72.400 45.598 C 71.630 46.143,70.259 47.312,69.354 48.195 C 67.491 50.013,66.084 51.200,65.794 51.200 C 65.311 51.200,51.200 65.733,51.200 66.231 C 51.200 66.352,50.340 67.295,49.289 68.326 C 48.238 69.357,46.935 70.830,46.393 71.600 C 45.852 72.370,44.897 73.537,44.272 74.193 C 43.647 74.850,42.841 75.885,42.481 76.493 C 42.122 77.102,41.686 77.600,41.514 77.600 C 41.341 77.600,41.200 77.870,41.200 78.200 C 41.200 78.530,41.020 78.800,40.800 78.800 C 40.580 78.800,40.400 78.998,40.400 79.240 C 40.400 79.481,39.860 80.183,39.200 80.800 C 38.540 81.417,38.000 82.169,38.000 82.472 C 38.000 82.775,37.640 83.283,37.200 83.600 C 36.760 83.917,36.400 84.415,36.400 84.706 C 36.400 84.998,35.964 85.672,35.431 86.205 C 34.898 86.738,34.346 87.540,34.204 87.987 C 34.062 88.434,33.778 88.800,33.573 88.800 C 33.368 88.800,33.200 89.036,33.200 89.325 C 33.200 89.613,32.840 90.236,32.400 90.708 C 31.960 91.180,31.600 91.726,31.600 91.921 C 31.600 92.116,31.240 92.602,30.800 93.000 C 30.360 93.398,30.000 93.966,30.000 94.262 C 30.000 94.558,29.820 94.800,29.600 94.800 C 29.380 94.800,29.196 95.025,29.191 95.300 C 29.186 95.575,28.830 96.250,28.400 96.800 C 27.502 97.949,27.374 98.800,28.101 98.800 C 28.376 98.800,44.441 114.640,63.800 134.000 C 83.680 153.881,99.303 169.200,99.699 169.200 C 100.211 169.200,100.400 168.877,100.400 168.000 C 100.400 167.340,100.580 166.800,100.800 166.800 C 101.020 166.800,101.200 166.260,101.200 165.600 C 101.200 164.940,101.380 164.400,101.600 164.400 C 101.820 164.400,102.000 164.051,102.000 163.624 C 102.000 163.197,102.180 162.736,102.400 162.600 C 102.620 162.464,102.800 161.913,102.800 161.376 C 102.800 160.839,102.980 160.400,103.200 160.400 C 103.420 160.400,103.600 160.040,103.600 159.600 C 103.600 159.160,103.780 158.800,104.000 158.800 C 104.220 158.800,104.400 158.535,104.400 158.212 C 104.400 157.889,104.760 156.983,105.200 156.200 C 105.640 155.417,106.000 154.526,106.000 154.221 C 106.000 153.916,106.135 153.607,106.300 153.533 C 106.752 153.332,108.800 149.294,108.800 148.603 C 108.800 148.271,108.980 148.000,109.200 148.000 C 109.420 148.000,109.600 147.680,109.600 147.288 C 109.600 146.897,109.960 146.317,110.400 146.000 C 110.840 145.683,111.200 145.143,111.200 144.800 C 111.200 144.457,111.560 143.917,112.000 143.600 C 112.440 143.283,112.800 142.743,112.800 142.400 C 112.800 142.057,113.160 141.517,113.600 141.200 C 114.040 140.883,114.400 140.433,114.400 140.200 C 114.400 139.967,114.760 139.517,115.200 139.200 C 115.640 138.883,116.000 138.431,116.000 138.196 C 116.000 137.960,116.720 136.972,117.600 136.000 C 118.480 135.028,119.200 134.086,119.200 133.907 C 119.200 133.729,120.145 132.618,121.300 131.438 C 122.455 130.259,124.504 128.148,125.854 126.747 C 129.255 123.216,132.632 120.118,133.701 119.547 C 134.195 119.283,135.077 118.557,135.660 117.933 C 136.244 117.310,136.919 116.800,137.160 116.800 C 137.402 116.800,137.600 116.620,137.600 116.400 C 137.600 116.180,137.830 116.000,138.112 116.000 C 138.393 116.000,138.883 115.640,139.200 115.200 C 139.517 114.760,139.967 114.400,140.200 114.400 C 140.433 114.400,140.883 114.040,141.200 113.600 C 141.517 113.160,142.057 112.800,142.400 112.800 C 142.743 112.800,143.283 112.440,143.600 112.000 C 143.917 111.560,144.497 111.200,144.888 111.200 C 145.280 111.200,145.600 111.020,145.600 110.800 C 145.600 110.580,145.836 110.400,146.125 110.400 C 146.413 110.400,147.036 110.040,147.508 109.600 C 147.980 109.160,148.570 108.800,148.820 108.800 C 149.069 108.800,150.841 107.990,152.758 107.000 C 154.675 106.010,156.458 105.200,156.722 105.200 C 156.985 105.200,157.200 105.020,157.200 104.800 C 157.200 104.580,157.560 104.400,158.000 104.400 C 158.440 104.400,158.800 104.220,158.800 104.000 C 158.800 103.780,159.149 103.600,159.576 103.600 C 160.003 103.600,160.464 103.420,160.600 103.200 C 160.736 102.980,161.287 102.800,161.824 102.800 C 162.361 102.800,162.800 102.620,162.800 102.400 C 162.800 102.180,163.162 102.000,163.605 102.000 C 164.383 102.000,164.769 101.858,166.695 100.862 C 167.187 100.608,168.042 100.400,168.595 100.400 C 169.148 100.400,169.600 100.220,169.600 100.000 C 169.600 99.780,170.129 99.600,170.776 99.600 C 171.423 99.600,172.064 99.420,172.200 99.200 C 172.336 98.980,173.067 98.800,173.824 98.800 C 174.581 98.800,175.200 98.620,175.200 98.400 C 175.200 98.180,175.920 98.000,176.800 98.000 C 177.680 98.000,178.400 97.820,178.400 97.600 C 178.400 97.380,179.300 97.200,180.400 97.200 C 181.500 97.200,182.400 97.020,182.400 96.800 C 182.400 96.574,183.533 96.400,185.000 96.400 C 186.467 96.400,187.600 96.226,187.600 96.000 C 187.600 95.751,189.856 95.600,193.567 95.600 C 197.949 95.600,199.595 95.467,199.767 95.100 C 199.953 94.700,200.047 94.700,200.233 95.100 C 200.404 95.466,202.006 95.600,206.210 95.600 C 209.607 95.600,212.054 95.763,212.200 96.000 C 212.336 96.220,213.607 96.400,215.024 96.400 C 216.475 96.400,217.600 96.575,217.600 96.800 C 217.600 97.020,218.500 97.200,219.600 97.200 C 220.700 97.200,221.600 97.380,221.600 97.600 C 221.600 97.820,222.309 98.000,223.176 98.000 C 224.043 98.000,224.864 98.180,225.000 98.400 C 225.136 98.620,225.766 98.800,226.400 98.800 C 227.034 98.800,227.664 98.980,227.800 99.200 C 227.936 99.420,228.667 99.600,229.424 99.600 C 230.181 99.600,230.800 99.780,230.800 100.000 C 230.800 100.220,231.340 100.400,232.000 100.400 C 232.660 100.400,233.200 100.580,233.200 100.800 C 233.200 101.020,233.639 101.200,234.176 101.200 C 234.713 101.200,235.264 101.380,235.400 101.600 C 235.536 101.820,235.997 102.000,236.424 102.000 C 236.851 102.000,237.200 102.180,237.200 102.400 C 237.200 102.620,237.740 102.800,238.400 102.800 C 239.060 102.800,239.600 102.980,239.600 103.200 C 239.600 103.420,239.960 103.600,240.400 103.600 C 240.840 103.600,241.200 103.780,241.200 104.000 C 241.200 104.220,241.560 104.400,242.000 104.400 C 242.440 104.400,242.800 104.580,242.800 104.800 C 242.800 105.020,243.053 105.200,243.362 105.200 C 243.670 105.200,245.459 106.010,247.336 107.000 C 249.212 107.990,251.030 108.800,251.374 108.800 C 251.718 108.800,252.000 108.980,252.000 109.200 C 252.000 109.420,252.320 109.600,252.712 109.600 C 253.103 109.600,253.683 109.960,254.000 110.400 C 254.317 110.840,254.857 111.200,255.200 111.200 C 255.543 111.200,256.083 111.560,256.400 112.000 C 256.717 112.440,257.257 112.800,257.600 112.800 C 257.943 112.800,258.483 113.160,258.800 113.600 C 259.117 114.040,259.567 114.400,259.800 114.400 C 260.033 114.400,260.483 114.760,260.800 115.200 C 261.117 115.640,261.657 116.000,262.000 116.000 C 262.343 116.000,262.883 116.360,263.200 116.800 C 263.517 117.240,264.086 117.600,264.465 117.600 C 264.843 117.600,265.264 117.780,265.400 118.000 C 265.726 118.528,274.674 118.528,275.000 118.000 C 275.136 117.780,275.508 117.600,275.828 117.600 C 276.147 117.600,278.431 115.617,280.904 113.194 C 283.377 110.771,290.331 103.976,296.358 98.094 C 315.751 79.168,330.000 64.859,330.000 64.311 C 330.000 64.017,330.360 63.517,330.800 63.200 C 331.240 62.883,331.600 62.303,331.600 61.912 C 331.600 61.520,331.780 61.200,332.000 61.200 C 332.243 61.200,332.400 59.400,332.400 56.600 C 332.400 53.800,332.243 52.000,332.000 52.000 C 331.780 52.000,331.600 51.526,331.600 50.947 C 331.600 50.368,331.285 49.600,330.900 49.241 C 330.515 48.882,330.008 48.243,329.773 47.821 C 329.539 47.399,329.004 46.861,328.585 46.627 C 328.167 46.392,327.369 45.749,326.812 45.199 C 326.255 44.648,325.080 43.667,324.200 43.019 C 323.320 42.371,322.309 41.517,321.953 41.121 C 321.597 40.724,321.084 40.400,320.814 40.400 C 320.543 40.400,319.817 39.860,319.200 39.200 C 318.583 38.540,317.831 38.000,317.528 38.000 C 317.225 38.000,316.717 37.640,316.400 37.200 C 316.083 36.760,315.620 36.400,315.371 36.400 C 315.122 36.400,314.354 35.860,313.663 35.200 C 312.972 34.540,312.175 34.000,311.892 34.000 C 311.609 34.000,311.117 33.640,310.800 33.200 C 310.483 32.760,309.969 32.400,309.659 32.400 C 309.348 32.400,308.803 32.084,308.447 31.697 C 308.091 31.311,307.260 30.726,306.600 30.397 C 305.940 30.069,305.051 29.485,304.625 29.100 C 304.198 28.715,303.628 28.400,303.358 28.400 C 303.088 28.400,302.807 28.265,302.733 28.100 C 302.553 27.695,300.612 26.562,298.300 25.513 C 297.255 25.038,296.400 24.504,296.400 24.325 C 296.400 24.146,296.040 24.000,295.600 24.000 C 295.160 24.000,294.800 23.820,294.800 23.600 C 294.800 23.380,294.440 23.200,294.000 23.200 C 293.560 23.200,293.200 23.020,293.200 22.800 C 293.200 22.580,292.840 22.400,292.400 22.400 C 291.960 22.400,291.600 22.220,291.600 22.000 C 291.600 21.780,291.330 21.600,291.000 21.600 C 290.670 21.600,290.400 21.420,290.400 21.200 C 290.400 20.980,290.040 20.800,289.600 20.800 C 289.160 20.800,288.800 20.620,288.800 20.400 C 288.800 20.180,288.440 20.000,288.000 20.000 C 287.560 20.000,287.200 19.820,287.200 19.600 C 287.200 19.380,286.840 19.200,286.400 19.200 C 285.960 19.200,285.600 19.020,285.600 18.800 C 285.600 18.580,285.240 18.400,284.800 18.400 C 284.360 18.400,284.000 18.220,284.000 18.000 C 284.000 17.780,283.640 17.600,283.200 17.600 C 282.760 17.600,282.400 17.420,282.400 17.200 C 282.400 16.980,281.961 16.800,281.424 16.800 C 280.887 16.800,280.336 16.620,280.200 16.400 C 280.064 16.180,279.603 16.000,279.176 16.000 C 278.749 16.000,278.400 15.820,278.400 15.600 C 278.400 15.380,278.040 15.200,277.600 15.200 C 277.160 15.200,276.800 15.020,276.800 14.800 C 276.800 14.580,276.528 14.400,276.195 14.400 C 275.862 14.400,275.277 14.241,274.895 14.047 C 274.513 13.852,273.705 13.492,273.100 13.247 C 272.495 13.001,271.505 12.599,270.900 12.353 C 270.295 12.108,269.487 11.748,269.105 11.553 C 268.723 11.359,268.048 11.200,267.605 11.200 C 267.162 11.200,266.800 11.020,266.800 10.800 C 266.800 10.580,266.260 10.400,265.600 10.400 C 264.940 10.400,264.400 10.220,264.400 10.000 C 264.400 9.780,263.860 9.600,263.200 9.600 C 262.540 9.600,262.000 9.441,262.000 9.246 C 262.000 9.051,261.010 8.768,259.800 8.617 C 258.590 8.466,257.600 8.175,257.600 7.971 C 257.600 7.767,257.071 7.600,256.424 7.600 C 255.777 7.600,255.136 7.420,255.000 7.200 C 254.864 6.980,254.133 6.800,253.376 6.800 C 252.619 6.800,252.000 6.620,252.000 6.400 C 252.000 6.180,251.280 6.000,250.400 6.000 C 249.520 6.000,248.800 5.820,248.800 5.600 C 248.800 5.380,248.080 5.200,247.200 5.200 C 246.320 5.200,245.600 5.020,245.600 4.800 C 245.600 4.580,244.880 4.400,244.000 4.400 C 243.120 4.400,242.400 4.220,242.400 4.000 C 242.400 3.780,241.590 3.600,240.600 3.600 C 239.610 3.600,238.800 3.420,238.800 3.200 C 238.800 2.980,238.001 2.800,237.024 2.800 C 236.047 2.800,235.136 2.620,235.000 2.400 C 234.864 2.180,233.683 2.000,232.376 2.000 C 231.059 2.000,230.000 1.822,230.000 1.600 C 230.000 1.376,228.893 1.200,227.480 1.200 C 226.026 1.200,224.753 0.993,224.470 0.710 C 223.986 0.226,187.975 -0.118,179.003 0.276 " stroke="none" fill="#f85412" fill-rule="evenodd"></path><path id="path2" d="M194.580 153.339 C 193.003 154.226,190.400 156.472,190.400 156.945 C 190.400 157.208,190.040 157.683,189.600 158.000 C 189.160 158.317,188.800 158.897,188.800 159.288 C 188.800 159.680,188.620 160.000,188.400 160.000 C 188.136 160.000,188.000 173.600,188.000 200.000 C 188.000 226.400,188.136 240.000,188.400 240.000 C 188.620 240.000,188.800 240.320,188.800 240.712 C 188.800 241.103,189.160 241.683,189.600 242.000 C 190.040 242.317,190.400 242.798,190.400 243.068 C 190.400 243.338,191.075 244.062,191.900 244.677 C 192.725 245.292,193.490 245.886,193.600 245.998 C 194.762 247.173,195.890 247.200,244.195 247.200 C 270.928 247.200,292.800 247.299,292.800 247.419 C 292.800 247.540,292.440 248.384,292.000 249.294 C 291.560 250.205,291.200 251.186,291.200 251.475 C 291.200 251.764,291.020 252.000,290.800 252.000 C 290.580 252.000,290.400 252.320,290.400 252.712 C 290.400 253.103,290.040 253.683,289.600 254.000 C 289.160 254.317,288.800 254.897,288.800 255.288 C 288.800 255.680,288.650 256.000,288.468 256.000 C 288.285 256.000,287.881 256.495,287.570 257.100 C 287.260 257.705,286.689 258.491,286.303 258.847 C 285.916 259.203,285.600 259.658,285.600 259.859 C 285.600 260.059,285.240 260.483,284.800 260.800 C 284.360 261.117,284.000 261.613,284.000 261.902 C 284.000 262.190,283.370 263.057,282.600 263.827 C 281.830 264.597,281.200 265.391,281.200 265.591 C 281.200 265.936,279.779 267.486,274.152 273.279 C 270.769 276.762,266.333 280.800,265.889 280.800 C 265.687 280.800,265.017 281.340,264.400 282.000 C 263.783 282.660,263.109 283.200,262.902 283.200 C 262.694 283.200,262.197 283.561,261.798 284.002 C 261.084 284.792,261.611 285.343,294.623 318.364 C 313.076 336.821,328.240 352.120,328.320 352.361 C 328.600 353.200,329.672 352.791,331.131 351.287 C 331.939 350.455,333.230 349.332,334.000 348.791 C 335.634 347.644,348.800 334.516,348.800 334.034 C 348.800 333.854,350.060 332.399,351.600 330.800 C 353.140 329.201,354.400 327.731,354.400 327.533 C 354.400 327.335,355.030 326.543,355.800 325.773 C 356.570 325.003,357.205 324.244,357.211 324.087 C 357.218 323.929,357.938 322.997,358.811 322.014 C 359.685 321.032,360.400 320.086,360.400 319.911 C 360.400 319.736,360.940 319.028,361.600 318.337 C 362.260 317.646,362.800 316.878,362.800 316.629 C 362.800 316.380,363.160 315.917,363.600 315.600 C 364.040 315.283,364.400 314.743,364.400 314.400 C 364.400 314.057,364.760 313.517,365.200 313.200 C 365.640 312.883,366.000 312.343,366.000 312.000 C 366.000 311.657,366.360 311.117,366.800 310.800 C 367.240 310.483,367.600 309.943,367.600 309.600 C 367.600 309.257,367.960 308.717,368.400 308.400 C 368.840 308.083,369.200 307.593,369.200 307.312 C 369.200 307.030,369.380 306.800,369.600 306.800 C 369.820 306.800,370.000 306.530,370.000 306.200 C 370.000 305.870,370.180 305.600,370.400 305.600 C 370.620 305.600,370.800 305.330,370.800 305.000 C 370.800 304.670,370.959 304.400,371.153 304.400 C 371.348 304.400,371.607 304.085,371.729 303.700 C 371.946 303.015,373.204 300.796,373.600 300.400 C 374.117 299.883,375.200 297.608,375.200 297.038 C 375.200 296.687,375.380 296.400,375.600 296.400 C 375.820 296.400,376.000 296.040,376.000 295.600 C 376.000 295.160,376.180 294.800,376.400 294.800 C 376.620 294.800,376.800 294.440,376.800 294.000 C 376.800 293.560,376.980 293.200,377.200 293.200 C 377.420 293.200,377.600 292.922,377.600 292.583 C 377.600 292.244,377.960 291.580,378.400 291.108 C 378.840 290.636,379.200 290.013,379.200 289.725 C 379.200 289.436,379.380 289.200,379.600 289.200 C 379.820 289.200,380.000 288.840,380.000 288.400 C 380.000 287.960,380.180 287.600,380.400 287.600 C 380.620 287.600,380.800 287.251,380.800 286.824 C 380.800 286.397,380.980 285.936,381.200 285.800 C 381.420 285.664,381.600 285.203,381.600 284.776 C 381.600 284.349,381.780 284.000,382.000 284.000 C 382.220 284.000,382.400 283.640,382.400 283.200 C 382.400 282.760,382.580 282.400,382.800 282.400 C 383.020 282.400,383.200 282.040,383.200 281.600 C 383.200 281.160,383.380 280.800,383.600 280.800 C 383.820 280.800,384.000 280.440,384.000 280.000 C 384.000 279.560,384.180 279.200,384.400 279.200 C 384.620 279.200,384.800 278.660,384.800 278.000 C 384.800 277.340,384.980 276.800,385.200 276.800 C 385.420 276.800,385.600 276.440,385.600 276.000 C 385.600 275.560,385.780 275.200,386.000 275.200 C 386.220 275.200,386.400 274.921,386.400 274.581 C 386.400 274.240,386.760 273.216,387.200 272.306 C 387.640 271.395,388.000 270.447,388.000 270.200 C 388.000 269.953,388.360 269.005,388.800 268.094 C 389.240 267.184,389.600 266.171,389.600 265.843 C 389.600 265.515,389.780 265.136,390.000 265.000 C 390.220 264.864,390.400 264.324,390.400 263.800 C 390.400 263.276,390.567 262.744,390.772 262.617 C 390.977 262.491,391.267 261.400,391.418 260.194 C 391.569 258.987,391.851 258.000,392.046 258.000 C 392.241 258.000,392.400 257.370,392.400 256.600 C 392.400 255.830,392.580 255.200,392.800 255.200 C 393.020 255.200,393.200 254.660,393.200 254.000 C 393.200 253.340,393.380 252.800,393.600 252.800 C 393.820 252.800,394.000 252.080,394.000 251.200 C 394.000 250.320,394.180 249.600,394.400 249.600 C 394.620 249.600,394.800 248.880,394.800 248.000 C 394.800 247.120,394.980 246.400,395.200 246.400 C 395.420 246.400,395.600 245.680,395.600 244.800 C 395.600 243.920,395.780 243.200,396.000 243.200 C 396.220 243.200,396.400 242.289,396.400 241.176 C 396.400 239.929,396.553 239.248,396.800 239.400 C 397.047 239.552,397.200 238.871,397.200 237.624 C 397.200 236.511,397.380 235.600,397.600 235.600 C 397.822 235.600,398.000 234.533,398.000 233.200 C 398.000 231.867,398.178 230.800,398.400 230.800 C 398.628 230.800,398.800 229.611,398.800 228.033 C 398.800 226.176,398.964 225.212,399.300 225.100 C 399.693 224.969,399.800 219.648,399.800 200.287 C 399.800 181.103,399.689 175.529,399.300 175.140 C 398.998 174.838,398.800 173.563,398.800 171.920 C 398.800 170.373,398.627 169.200,398.400 169.200 C 398.178 169.200,398.000 168.133,398.000 166.800 C 398.000 165.467,397.822 164.400,397.600 164.400 C 397.380 164.400,397.200 163.601,397.200 162.624 C 397.200 161.647,397.020 160.736,396.800 160.600 C 396.580 160.464,396.400 160.003,396.400 159.576 C 396.400 159.149,396.220 158.800,396.000 158.800 C 395.780 158.800,395.600 158.616,395.600 158.391 C 395.600 157.744,391.283 153.600,390.609 153.600 C 390.274 153.600,390.000 153.420,390.000 153.200 C 390.000 152.591,195.665 152.730,194.580 153.339 " stroke="none" fill="#4474dc" fill-rule="evenodd"></path><path id="path3" d="M107.600 249.200 C 108.049 250.080,108.506 250.800,108.616 250.800 C 108.726 250.800,108.449 250.080,108.000 249.200 C 107.551 248.320,107.094 247.600,106.984 247.600 C 106.874 247.600,107.151 248.320,107.600 249.200 M260.400 285.200 C 260.400 285.420,260.170 285.600,259.888 285.600 C 259.607 285.600,259.117 285.960,258.800 286.400 C 258.483 286.840,257.943 287.200,257.600 287.200 C 257.257 287.200,256.717 287.560,256.400 288.000 C 256.083 288.440,255.543 288.800,255.200 288.800 C 254.857 288.800,254.317 289.160,254.000 289.600 C 253.683 290.040,253.103 290.400,252.712 290.400 C 252.320 290.400,252.000 290.580,252.000 290.800 C 252.000 291.020,251.758 291.200,251.461 291.200 C 250.763 291.200,248.397 292.347,247.500 293.121 C 247.115 293.452,246.800 293.609,246.800 293.469 C 246.800 293.328,246.165 293.571,245.388 294.007 C 244.611 294.443,243.711 294.800,243.388 294.800 C 243.065 294.800,242.800 294.980,242.800 295.200 C 242.800 295.420,242.440 295.600,242.000 295.600 C 241.560 295.600,241.200 295.780,241.200 296.000 C 241.200 296.220,240.840 296.400,240.400 296.400 C 239.960 296.400,239.600 296.580,239.600 296.800 C 239.600 297.020,239.060 297.200,238.400 297.200 C 237.740 297.200,237.200 297.380,237.200 297.600 C 237.200 297.820,236.851 298.000,236.424 298.000 C 235.997 298.000,235.536 298.180,235.400 298.400 C 235.264 298.620,234.713 298.800,234.176 298.800 C 233.639 298.800,233.200 298.980,233.200 299.200 C 233.200 299.420,232.671 299.600,232.024 299.600 C 231.377 299.600,230.736 299.780,230.600 300.000 C 230.464 300.220,229.834 300.400,229.200 300.400 C 228.566 300.400,227.936 300.580,227.800 300.800 C 227.664 301.020,226.933 301.200,226.176 301.200 C 225.419 301.200,224.800 301.380,224.800 301.600 C 224.800 301.820,224.080 302.000,223.200 302.000 C 222.320 302.000,221.600 302.180,221.600 302.400 C 221.600 302.620,220.700 302.800,219.600 302.800 C 218.500 302.800,217.600 302.980,217.600 303.200 C 217.600 303.425,216.475 303.600,215.024 303.600 C 213.607 303.600,212.336 303.780,212.200 304.000 C 212.054 304.237,209.610 304.400,206.219 304.400 C 201.360 304.400,200.449 304.496,200.243 305.033 C 200.109 305.381,200.000 326.919,200.000 352.895 L 200.000 400.125 212.051 399.891 C 219.784 399.741,224.256 399.504,224.531 399.229 C 224.767 398.993,226.094 398.800,227.480 398.800 C 228.893 398.800,230.000 398.624,230.000 398.400 C 230.000 398.178,231.059 398.000,232.376 398.000 C 233.683 398.000,234.864 397.820,235.000 397.600 C 235.136 397.380,236.047 397.200,237.024 397.200 C 238.001 397.200,238.800 397.020,238.800 396.800 C 238.800 396.580,239.610 396.400,240.600 396.400 C 241.590 396.400,242.400 396.220,242.400 396.000 C 242.400 395.780,243.300 395.600,244.400 395.600 C 245.500 395.600,246.400 395.420,246.400 395.200 C 246.400 394.980,246.929 394.800,247.576 394.800 C 248.223 394.800,248.864 394.620,249.000 394.400 C 249.136 394.180,249.867 394.000,250.624 394.000 C 251.381 394.000,252.000 393.820,252.000 393.600 C 252.000 393.380,252.720 393.200,253.600 393.200 C 254.480 393.200,255.200 393.020,255.200 392.800 C 255.200 392.580,255.740 392.400,256.400 392.400 C 257.060 392.400,257.600 392.233,257.600 392.029 C 257.600 391.825,258.592 391.534,259.805 391.382 C 261.018 391.230,262.109 390.948,262.229 390.753 C 262.349 390.559,262.887 390.400,263.424 390.400 C 263.961 390.400,264.400 390.220,264.400 390.000 C 264.400 389.780,264.940 389.600,265.600 389.600 C 266.260 389.600,266.800 389.420,266.800 389.200 C 266.800 388.980,267.162 388.800,267.605 388.800 C 268.048 388.800,268.723 388.641,269.105 388.447 C 269.821 388.083,271.446 387.389,273.200 386.700 C 273.750 386.484,274.513 386.148,274.895 385.953 C 275.277 385.759,275.862 385.600,276.195 385.600 C 276.528 385.600,276.800 385.420,276.800 385.200 C 276.800 384.980,277.160 384.800,277.600 384.800 C 278.040 384.800,278.400 384.620,278.400 384.400 C 278.400 384.180,278.749 384.000,279.176 384.000 C 279.603 384.000,280.064 383.820,280.200 383.600 C 280.336 383.380,280.887 383.200,281.424 383.200 C 281.961 383.200,282.400 383.020,282.400 382.800 C 282.400 382.580,282.760 382.400,283.200 382.400 C 283.640 382.400,284.000 382.220,284.000 382.000 C 284.000 381.780,284.360 381.600,284.800 381.600 C 285.240 381.600,285.600 381.420,285.600 381.200 C 285.600 380.980,285.960 380.800,286.400 380.800 C 286.840 380.800,287.200 380.620,287.200 380.400 C 287.200 380.180,287.560 380.000,288.000 380.000 C 288.440 380.000,288.800 379.820,288.800 379.600 C 288.800 379.380,289.160 379.200,289.600 379.200 C 290.040 379.200,290.400 379.020,290.400 378.800 C 290.400 378.580,290.670 378.400,291.000 378.400 C 291.330 378.400,291.600 378.220,291.600 378.000 C 291.600 377.780,291.960 377.600,292.400 377.600 C 292.840 377.600,293.200 377.420,293.200 377.200 C 293.200 376.980,293.560 376.800,294.000 376.800 C 294.440 376.800,294.800 376.620,294.800 376.400 C 294.800 376.180,295.083 376.000,295.429 376.000 C 295.774 376.000,296.327 375.730,296.657 375.400 C 296.987 375.070,297.604 374.800,298.029 374.800 C 298.453 374.800,298.803 374.665,298.806 374.500 C 298.810 374.335,299.710 373.760,300.806 373.221 C 301.903 372.683,302.800 372.098,302.800 371.921 C 302.800 371.745,303.036 371.600,303.325 371.600 C 303.613 371.600,304.198 371.285,304.625 370.900 C 305.051 370.515,305.940 369.931,306.600 369.603 C 307.260 369.274,308.091 368.689,308.447 368.303 C 308.803 367.916,309.348 367.600,309.659 367.600 C 309.969 367.600,310.483 367.240,310.800 366.800 C 311.117 366.360,311.657 366.000,312.000 366.000 C 312.343 366.000,312.883 365.640,313.200 365.200 C 313.517 364.760,313.980 364.400,314.229 364.400 C 314.478 364.400,315.246 363.860,315.937 363.200 C 316.628 362.540,317.392 362.000,317.636 362.000 C 317.880 362.000,318.583 361.460,319.200 360.800 C 319.817 360.140,320.609 359.600,320.960 359.600 C 321.312 359.600,321.601 359.465,321.603 359.300 C 321.604 359.135,322.255 358.558,323.049 358.017 C 323.842 357.476,325.310 356.261,326.310 355.317 C 327.309 354.373,328.369 353.600,328.664 353.600 C 329.333 353.600,329.344 353.301,328.700 352.594 C 320.707 343.825,260.400 284.318,260.400 285.200 " stroke="none" fill="#04a46c" fill-rule="evenodd"></path><path id="path4" d="M25.899 101.091 C 25.294 102.361,24.799 103.625,24.799 103.900 C 24.800 104.175,24.620 104.400,24.400 104.400 C 24.180 104.400,24.000 104.760,24.000 105.200 C 24.000 105.640,23.850 106.000,23.667 106.000 C 23.344 106.000,21.994 108.419,19.536 113.400 C 18.885 114.720,18.183 116.113,17.976 116.495 C 17.769 116.877,17.600 117.462,17.600 117.795 C 17.600 118.128,17.420 118.400,17.200 118.400 C 16.980 118.400,16.800 118.760,16.800 119.200 C 16.800 119.640,16.620 120.000,16.400 120.000 C 16.180 120.000,16.000 120.272,16.000 120.605 C 16.000 120.938,15.820 121.568,15.600 122.005 C 15.380 122.442,15.020 123.158,14.800 123.595 C 14.580 124.032,14.400 124.662,14.400 124.995 C 14.400 125.328,14.220 125.600,14.000 125.600 C 13.780 125.600,13.600 125.960,13.600 126.400 C 13.600 126.840,13.420 127.200,13.200 127.200 C 12.980 127.200,12.800 127.473,12.800 127.806 C 12.800 128.776,11.834 131.600,11.503 131.600 C 11.336 131.600,11.200 131.962,11.200 132.405 C 11.200 132.848,11.024 133.523,10.809 133.905 C 10.124 135.122,8.400 140.779,8.400 141.808 C 8.400 142.354,8.220 142.800,8.000 142.800 C 7.780 142.800,7.600 143.329,7.600 143.976 C 7.600 144.623,7.420 145.264,7.200 145.400 C 6.980 145.536,6.800 146.177,6.800 146.824 C 6.800 147.471,6.620 148.000,6.400 148.000 C 6.180 148.000,6.000 148.720,6.000 149.600 C 6.000 150.480,5.820 151.200,5.600 151.200 C 5.380 151.200,5.200 151.920,5.200 152.800 C 5.200 153.680,5.020 154.400,4.800 154.400 C 4.580 154.400,4.400 155.120,4.400 156.000 C 4.400 156.880,4.220 157.600,4.000 157.600 C 3.780 157.600,3.600 158.410,3.600 159.400 C 3.600 160.390,3.420 161.200,3.200 161.200 C 2.980 161.200,2.800 162.100,2.800 163.200 C 2.800 164.300,2.620 165.200,2.400 165.200 C 2.178 165.200,2.000 166.259,2.000 167.576 C 2.000 168.883,1.820 170.064,1.600 170.200 C 1.380 170.336,1.200 171.571,1.200 172.944 C 1.200 174.407,0.993 175.647,0.700 175.940 C -0.030 176.671,-0.030 224.057,0.700 224.300 C 1.030 224.410,1.200 225.331,1.200 227.010 C 1.200 228.408,1.380 229.664,1.600 229.800 C 1.820 229.936,2.000 231.117,2.000 232.424 C 2.000 233.741,2.178 234.800,2.400 234.800 C 2.620 234.800,2.800 235.700,2.800 236.800 C 2.800 237.900,2.980 238.800,3.200 238.800 C 3.420 238.800,3.600 239.610,3.600 240.600 C 3.600 241.590,3.780 242.400,4.000 242.400 C 4.220 242.400,4.400 243.120,4.400 244.000 C 4.400 244.880,4.580 245.600,4.800 245.600 C 5.020 245.600,5.200 246.320,5.200 247.200 C 5.200 248.080,5.380 248.800,5.600 248.800 C 5.820 248.800,6.000 249.520,6.000 250.400 C 6.000 251.280,6.180 252.000,6.400 252.000 C 6.620 252.000,6.800 252.529,6.800 253.176 C 6.800 253.823,6.980 254.464,7.200 254.600 C 7.420 254.736,7.600 255.377,7.600 256.024 C 7.600 256.671,7.780 257.200,8.000 257.200 C 8.220 257.200,8.400 257.646,8.400 258.192 C 8.400 259.221,10.124 264.878,10.809 266.095 C 11.024 266.477,11.200 267.152,11.200 267.595 C 11.200 268.038,11.341 268.400,11.513 268.400 C 11.685 268.400,12.070 269.229,12.369 270.242 C 12.882 271.978,13.953 274.541,14.815 276.095 C 15.027 276.477,15.200 277.152,15.200 277.595 C 15.200 278.038,15.380 278.400,15.600 278.400 C 15.820 278.400,16.000 278.760,16.000 279.200 C 16.000 279.640,16.180 280.000,16.400 280.000 C 16.620 280.000,16.800 280.360,16.800 280.800 C 16.800 281.240,16.980 281.600,17.200 281.600 C 17.420 281.600,17.600 281.949,17.600 282.376 C 17.600 282.803,17.780 283.264,18.000 283.400 C 18.220 283.536,18.400 284.007,18.400 284.447 C 18.400 284.887,18.580 285.136,18.800 285.000 C 19.020 284.864,19.200 285.126,19.200 285.582 C 19.200 286.326,19.865 287.878,20.408 288.400 C 20.523 288.510,21.224 289.815,21.968 291.300 C 22.711 292.785,23.473 294.000,23.660 294.000 C 23.847 294.000,24.000 294.360,24.000 294.800 C 24.000 295.240,24.180 295.600,24.400 295.600 C 24.620 295.600,24.800 295.825,24.799 296.100 C 24.798 297.614,27.028 301.214,27.903 301.109 C 28.491 301.038,41.132 288.675,64.203 265.605 C 99.097 230.713,100.625 229.081,99.200 228.200 C 98.980 228.064,98.800 227.423,98.800 226.776 C 98.800 226.129,98.620 225.600,98.400 225.600 C 98.180 225.600,98.000 224.700,98.000 223.600 C 98.000 222.500,97.820 221.600,97.600 221.600 C 97.380 221.600,97.200 220.801,97.200 219.824 C 97.200 218.847,97.020 217.936,96.800 217.800 C 96.580 217.664,96.400 216.408,96.400 215.010 C 96.400 213.611,96.214 212.405,95.988 212.329 C 95.418 212.139,95.418 187.861,95.988 187.671 C 96.218 187.594,96.400 186.303,96.400 184.743 C 96.400 182.985,96.548 182.044,96.800 182.200 C 97.047 182.352,97.200 181.671,97.200 180.424 C 97.200 179.311,97.345 178.400,97.522 178.400 C 97.699 178.400,97.888 177.635,97.943 176.700 C 97.998 175.765,98.213 174.829,98.421 174.620 C 98.630 174.411,98.800 173.747,98.800 173.144 C 98.800 172.541,98.980 171.936,99.200 171.800 C 100.625 170.919,99.097 169.287,64.203 134.395 C 41.132 111.325,28.491 98.962,27.903 98.891 C 27.158 98.801,26.807 99.187,25.899 101.091 " stroke="none" fill="#fcdc2c" fill-rule="evenodd"></path></g></svg>