<?xml version="1.0" encoding="UTF-8" standalone="no"?>
<svg
   style="isolation:isolate"
   viewBox="13.554 106.603 32 32"
   width="32"
   height="32"
   version="1.1"
   id="svg1594"
   sodipodi:docname="home.svg"
   inkscape:version="1.2.2 (b0a8486541, 2022-12-01)"
   xmlns:inkscape="http://www.inkscape.org/namespaces/inkscape"
   xmlns:sodipodi="http://sodipodi.sourceforge.net/DTD/sodipodi-0.dtd"
   xmlns="http://www.w3.org/2000/svg"
   xmlns:svg="http://www.w3.org/2000/svg">
  <defs
     id="defs1598" />
  <sodipodi:namedview
     id="namedview1596"
     pagecolor="#ffffff"
     bordercolor="#999999"
     borderopacity="1"
     inkscape:showpageshadow="0"
     inkscape:pageopacity="0"
     inkscape:pagecheckerboard="0"
     inkscape:deskcolor="#d1d1d1"
     inkscape:document-units="pt"
     showgrid="false"
     inkscape:zoom="5.53125"
     inkscape:cx="-16.271186"
     inkscape:cy="21.423729"
     inkscape:window-width="2560"
     inkscape:window-height="1367"
     inkscape:window-x="0"
     inkscape:window-y="0"
     inkscape:window-maximized="1"
     inkscape:current-layer="svg1594" />
  <g
     id="g1592">
    <path
       d="m 13.554,106.603 h 32 v 32 h -32 z"
       fill="none"
       id="path1588" />
    <path
       d="m 32.944,132.507 h 3.661 c 0.552,0 1,-0.448 1,-1 v -7.837 h 2.335 c 0.552,0 0.683,-0.316 0.293,-0.707 l -9.972,-9.971 c -0.39,-0.391 -1.024,-0.391 -1.414,0 l -9.971,9.971 c -0.391,0.391 -0.259,0.707 0.293,0.707 h 2.334 v 7.837 c 0,0.552 0.448,1 1,1 h 3.661 c 0.552,0 1,-0.448 1,-1 v -2.966 c 0,-0.276 0.224,-0.5 0.5,-0.5 h 3.78 c 0.276,0 0.5,0.224 0.5,0.5 v 2.966 c 0,0.552 0.449,1 1,1 z"
       fill="#000000"
       id="path1590" />
  </g>
</svg>
