<?xml version="1.0" encoding="UTF-8" standalone="no"?>
<svg xmlns="http://www.w3.org/2000/svg" xmlns:xlink="http://www.w3.org/1999/xlink" style="isolation:isolate" viewBox="13.554 106.603 32 32" width="32pt" height="32pt"><g><path d=" M 13.554 106.603 L 45.554 106.603 L 45.554 138.603 L 13.554 138.603 L 13.554 106.603 Z " fill="none"/><path d=" M 32.944 132.507 L 36.605 132.507 C 37.157 132.507 37.605 132.059 37.605 131.507 L 37.605 123.67 L 39.94 123.67 C 40.492 123.67 40.623 123.354 40.233 122.963 L 30.261 112.992 C 29.871 112.601 29.237 112.601 28.847 112.992 L 18.876 122.963 C 18.485 123.354 18.617 123.67 19.169 123.67 L 21.503 123.67 L 21.503 131.507 C 21.503 132.059 21.951 132.507 22.503 132.507 L 26.164 132.507 C 26.716 132.507 27.164 132.059 27.164 131.507 L 27.164 128.541 C 27.164 128.265 27.388 128.041 27.664 128.041 L 31.444 128.041 C 31.72 128.041 31.944 128.265 31.944 128.541 L 31.944 131.507 C 31.944 132.059 32.393 132.507 32.944 132.507 Z " fill="rgb(0,0,0)"/></g></svg>