<?xml version="1.0" standalone="no"?>
<!DOCTYPE svg PUBLIC "-//W3C//DTD SVG 20010904//EN"
 "http://www.w3.org/TR/2001/REC-SVG-20010904/DTD/svg10.dtd">
<svg version="1.0" xmlns="http://www.w3.org/2000/svg"
 width="134.000000pt" height="134.000000pt" viewBox="0 0 134.000000 134.000000"
 preserveAspectRatio="xMidYMid meet">

<g transform="translate(0.000000,134.000000) scale(0.100000,-0.100000)"
fill="#000000" stroke="none">
<path d="M137 1330 c-44 -13 -92 -55 -113 -97 -18 -36 -19 -68 -19 -563 l0
-525 27 -45 c15 -27 42 -54 66 -68 l40 -22 531 0 c514 0 533 1 571 20 22 11
52 39 67 62 l28 42 3 515 c2 350 0 528 -8 553 -14 50 -56 97 -105 119 -37 17
-76 19 -550 18 -280 0 -523 -5 -538 -9z m642 -211 c152 -35 279 -152 330 -306
19 -57 21 -86 21 -333 l0 -270 -95 0 -95 0 0 243 c0 185 -4 255 -15 293 -66
223 -357 259 -480 59 -25 -41 -31 -61 -34 -126 -3 -70 0 -83 25 -129 45 -83
116 -132 212 -145 l52 -7 0 -94 0 -95 -52 6 c-244 29 -406 187 -433 425 -8 69
7 156 40 227 28 62 121 164 183 200 96 57 232 77 341 52z"/>
</g>
</svg>
