<svg t="1730139316565" class="icon" viewBox="0 0 5851 1024" version="1.1" xmlns="http://www.w3.org/2000/svg" p-id="11613" width="200" height="200"><path d="M354.011 961.068c201.875 61.44 394.972-11.703 509.075-149.212l438.857-514.925c64.366-76.069 55.588-190.172-20.48-254.537L959.634 416.885 722.651 694.828l-5.851 5.851c-52.663 58.515-128.731 99.475-213.577 99.475-198.949 2.925-354.012-193.098-275.017-403.749 23.405-64.366 96.548-134.583 160.914-157.989 201.874-73.142 394.971 73.143 397.897 266.24l38.034-43.885c78.995-90.697 67.292-228.206-23.405-307.2C719.726 83.354 614.4 42.394 500.297 39.468h-2.926C193.097 42.394-46.81 334.965 52.663 659.719c40.96 143.36 155.063 257.463 301.348 301.349z m675.606-230.751c-64.365 76.068-55.588 190.171 20.48 254.537l298.423-348.16c64.366-76.069 55.589-190.171-20.48-254.537l-298.423 348.16zM3067.26 838.451c-23.405 17.554-58.514 11.703-76.068-11.703l-207.726-289.645-140.434 140.434V817.97c0 29.257-23.406 52.663-52.663 52.663s-52.663-23.406-52.663-52.663V226.977c0-29.257 23.406-52.663 52.663-52.663s52.663 23.406 52.663 52.663v315.977l327.68-336.457c17.554-17.554 49.737-17.554 67.291 0 20.48 17.554 23.406 52.663 2.926 70.217l-190.172 193.097 228.206 292.572c20.48 23.405 14.629 58.514-11.703 76.068m939.155-23.406V203.571c0-29.257 23.405-52.663 52.662-52.663s52.663 23.406 52.663 52.663v611.474c0 29.258-23.405 52.663-52.663 52.663-29.257-2.925-52.662-26.331-52.662-52.663M5823.283 197.72c0-26.332-20.48-46.812-46.811-46.812s-46.812 20.48-46.812 46.812v403.748c0 93.623-67.291 166.766-149.211 166.766s-149.212-76.069-149.212-166.766 67.292-166.765 149.212-166.765h2.926c26.331 0 46.811-20.48 46.811-46.812 0-26.331-20.48-46.811-46.811-46.811h-2.926c-134.583 0-245.76 117.028-245.76 263.314s111.177 263.314 245.76 263.314 245.76-117.028 245.76-263.314v-8.777l-2.926-397.897zM4459.9 777.01c-84.845 0-152.137-73.143-152.137-160.914s67.292-160.914 152.137-160.914c84.846 0 152.137 73.142 152.137 160.914S4541.82 777.01 4459.9 777.01m0-427.154c-134.583 0-245.76 117.028-245.76 263.314s111.177 263.314 245.76 263.314 245.76-117.028 245.76-263.314-111.177-263.314-245.76-263.314M2119.33 768.234c-122.88 0-222.354-108.251-222.354-242.834s99.474-242.835 222.354-242.835 222.354 108.252 222.354 242.835-99.474 242.834-222.354 242.834m0-593.92c-178.469 0-324.754 157.989-324.754 351.086s146.285 351.085 324.754 351.085 324.754-157.988 324.754-351.085-146.286-351.086-324.754-351.086m1811.017 655.36c0-20.48-14.629-35.109-35.109-35.109h-114.102c-152.138 0-277.943-122.88-277.943-277.942s122.88-277.943 277.943-277.943h43.885c20.48 0 35.109-17.555 35.109-35.109 0-20.48-17.554-35.108-35.109-35.108h-43.885c-193.098 0-348.16 155.062-348.16 348.16s155.062 348.16 348.16 348.16h111.177c23.405 0 38.034-14.629 38.034-35.109" fill="#1296db" p-id="11614"></path><path d="M3784.06 876.485c-198.948 0-359.863-160.914-359.863-359.862S3585.112 156.76 3784.06 156.76h43.886c26.331 0 46.811 20.48 46.811 46.811s-20.48 46.812-46.81 46.812h-43.887c-146.285 0-266.24 119.954-266.24 266.24 0 70.217 26.332 137.508 78.995 187.245 49.737 49.737 117.028 76.069 187.245 76.069h114.103c26.332 0 46.812 23.406 46.812 46.811 0 26.332-20.48 46.812-46.812 46.812l-114.103 2.925zM5258.62 423c-2.925-26.332-23.405-46.812-49.737-46.812-26.331 0-46.811 20.48-49.737 46.812v245.76c0 70.217-55.589 125.805-125.806 125.805S4904.61 738.977 4904.61 668.76V423c-2.926-26.332-23.406-46.812-49.737-46.812-26.332 0-46.812 20.48-49.737 46.812v245.76c0 114.103 93.622 207.725 207.725 207.725h35.109c114.103 0 207.726-93.622 207.726-207.725V425.925c5.851 0 5.851 0 2.925-2.925" fill="#1296db" p-id="11615"></path></svg>
