<?xml version="1.0" encoding="UTF-8"?>
<svg xmlns="http://www.w3.org/2000/svg" xmlns:xlink="http://www.w3.org/1999/xlink" width="1024px" height="1024px" viewBox="0 0 1024 1024" version="1.1">
<defs>
<filter id="alpha" filterUnits="objectBoundingBox" x="0%" y="0%" width="100%" height="100%">
  <feColorMatrix type="matrix" in="SourceGraphic" values="0 0 0 0 1 0 0 0 0 1 0 0 0 0 1 0 0 0 1 0"/>
</filter>
<mask id="mask0">
  <g filter="url(#alpha)">
<rect x="0" y="0" width="1024" height="1024" style="fill:rgb(0%,0%,0%);fill-opacity:0.501961;stroke:none;"/>
  </g>
</mask>
<clipPath id="clip1">
  <rect x="0" y="0" width="1024" height="1024"/>
</clipPath>
<g id="surface5" clip-path="url(#clip1)">
<path style=" stroke:none;fill-rule:nonzero;fill:rgb(92.156863%,37.254902%,3.921569%);fill-opacity:1;" d="M 929.753906 512.113281 C 929.753906 512.113281 926.828125 453.335938 881.71875 428.683594 L 965.363281 428.683594 L 949.160156 512.125 Z M 929.753906 512.113281 "/>
</g>
</defs>
<g id="surface1">
<path style=" stroke:none;fill-rule:nonzero;fill:rgb(92.156863%,37.254902%,3.921569%);fill-opacity:1;" d="M 1012.363281 428.691406 L 788.6875 428.691406 L 788.6875 512.117188 L 1012.355469 512.117188 "/>
<use xlink:href="#surface5" mask="url(#mask0)"/>
<path style=" stroke:none;fill-rule:nonzero;fill:rgb(92.156863%,37.254902%,3.921569%);fill-opacity:1;" d="M 1023.054688 512.074219 C 1023.054688 230.386719 793.847656 1.277344 512.160156 1.277344 L 512.160156 94.332031 C 742.574219 94.332031 929.988281 281.753906 929.988281 512.070312 L 1023.054688 512.070312 "/>
<path style=" stroke:none;fill-rule:nonzero;fill:rgb(92.156863%,37.254902%,3.921569%);fill-opacity:1;" d="M 855.933594 512.125 L 762.878906 512.125 C 762.804688 445.65625 736.367188 381.933594 689.367188 334.933594 C 642.367188 287.929688 578.640625 261.496094 512.171875 261.421875 L 512.171875 168.363281 C 701.726562 168.363281 855.933594 322.574219 855.933594 512.125 Z M 855.933594 512.125 "/>
<path style=" stroke:none;fill-rule:nonzero;fill:rgb(92.156863%,37.254902%,3.921569%);fill-opacity:1;" d="M 1016.253906 595.570312 C 1000.910156 687.664062 960.601562 773.785156 899.722656 844.570312 C 838.84375 915.351562 759.722656 968.089844 670.964844 997.042969 C 582.203125 1025.996094 487.203125 1030.058594 396.296875 1008.785156 C 305.390625 987.515625 222.058594 941.726562 155.359375 876.398438 C 88.660156 811.066406 41.152344 728.699219 18 638.253906 C -5.152344 547.808594 -3.0625 452.746094 24.042969 363.402344 C 51.148438 274.0625 102.230469 193.863281 171.738281 131.53125 C 241.242188 69.195312 326.507812 27.113281 418.261719 9.859375 C 421.800781 9.304688 425.242188 8.648438 428.78125 8.089844 L 428.78125 102.640625 C 356.773438 117.339844 289.917969 150.777344 234.957031 199.574219 C 180 248.367188 138.886719 310.792969 115.761719 380.554688 C 92.636719 450.316406 88.324219 524.945312 103.253906 596.902344 C 118.183594 668.867188 151.828125 735.613281 200.796875 790.421875 C 249.765625 845.222656 312.324219 886.140625 382.15625 909.046875 C 451.992188 931.949219 526.628906 936.027344 598.542969 920.871094 C 670.457031 905.714844 737.101562 871.855469 791.75 822.714844 C 846.398438 773.574219 887.121094 710.886719 909.800781 640.984375 C 914.675781 626.097656 918.65625 610.933594 921.714844 595.574219 L 1016.253906 595.574219 "/>
<path style=" stroke:none;fill-rule:nonzero;fill:rgb(92.156863%,37.254902%,3.921569%);fill-opacity:1;" d="M 418.265625 9.859375 C 314.371094 29.40625 219.097656 80.714844 145.605469 156.707031 C 130.316406 188.128906 117.617188 220.746094 107.636719 254.234375 C 70.921875 376.550781 72.023438 507.113281 110.796875 628.792969 C 94.769531 573.320312 90.390625 515.128906 97.945312 457.878906 C 105.496094 400.632812 124.8125 345.566406 154.679688 296.148438 C 184.546875 246.726562 224.320312 204.023438 271.488281 170.722656 C 318.660156 137.417969 372.214844 114.238281 428.78125 102.640625 L 428.78125 8.089844 C 425.242188 8.648438 421.804688 9.3125 418.265625 9.859375 Z M 418.265625 9.859375 "/>
<path style=" stroke:none;fill-rule:nonzero;fill:rgb(92.156863%,37.254902%,3.921569%);fill-opacity:1;" d="M 1016.257812 595.570312 C 1004.933594 663.460938 980.03125 728.367188 943.039062 786.40625 C 906.046875 844.445312 857.726562 894.425781 800.964844 933.355469 C 744.207031 972.289062 680.179688 999.367188 612.710938 1012.976562 C 545.246094 1026.589844 475.726562 1026.445312 408.3125 1012.5625 L 410.367188 1012.5625 C 522.492188 1012.527344 631.625 976.363281 721.585938 909.433594 C 811.546875 842.503906 877.546875 748.367188 909.804688 640.980469 C 914.679688 626.097656 918.65625 610.933594 921.714844 595.570312 Z M 1016.257812 595.570312 "/>
<path style=" stroke:none;fill-rule:nonzero;fill:rgb(92.156863%,37.254902%,3.921569%);fill-opacity:1;" d="M 304.664062 730.597656 L 304.664062 299.417969 L 495.84375 299.417969 C 534.273438 299.417969 563.488281 303.339844 583.488281 311.183594 C 603.488281 318.832031 619.46875 332.457031 631.429688 352.066406 C 643.390625 371.675781 649.371094 393.339844 649.371094 417.066406 C 649.371094 447.65625 639.46875 473.4375 619.664062 494.417969 C 599.863281 515.398438 569.273438 528.734375 527.898438 534.421875 C 542.996094 541.675781 554.46875 548.832031 562.3125 555.890625 C 578.980469 571.183594 594.761719 590.300781 609.664062 613.242188 L 684.664062 730.597656 L 612.902344 730.597656 L 555.84375 640.890625 C 539.175781 615.007812 525.449219 595.203125 514.664062 581.480469 C 503.882812 567.753906 494.175781 558.144531 485.546875 552.65625 C 477.113281 547.164062 468.488281 543.339844 459.664062 541.183594 C 453.195312 539.8125 442.605469 539.125 427.902344 539.125 L 361.722656 539.125 L 361.722656 730.597656 Z M 361.722656 489.714844 L 484.371094 489.714844 C 510.449219 489.714844 530.839844 487.066406 545.546875 481.773438 C 560.253906 476.28125 571.429688 467.652344 579.078125 455.890625 C 586.722656 443.929688 590.546875 430.988281 590.546875 417.066406 C 590.546875 396.675781 583.097656 379.910156 568.195312 366.773438 C 553.488281 353.636719 530.15625 347.066406 498.195312 347.066406 L 361.722656 347.066406 Z M 361.722656 489.714844 "/>
</g>
</svg>
