<?xml version="1.0" encoding="UTF-8" standalone="no"?>
<svg
   xml:space="preserve"
   viewBox="66.993 897.484 26 26"
   version="1.1"
   id="svg2"
   sodipodi:docname="icon.svg"
   inkscape:version="1.3.2 (091e20e, 2023-11-25, custom)"
   xmlns:inkscape="http://www.inkscape.org/namespaces/inkscape"
   xmlns:sodipodi="http://sodipodi.sourceforge.net/DTD/sodipodi-0.dtd"
   xmlns:xlink="http://www.w3.org/1999/xlink"
   xmlns="http://www.w3.org/2000/svg"
   xmlns:svg="http://www.w3.org/2000/svg"><sodipodi:namedview
     id="namedview2"
     pagecolor="#ffffff"
     bordercolor="#000000"
     borderopacity="0.25"
     inkscape:showpageshadow="2"
     inkscape:pageopacity="0.0"
     inkscape:pagecheckerboard="0"
     inkscape:deskcolor="#d1d1d1"
     inkscape:zoom="45.115385"
     inkscape:cx="13"
     inkscape:cy="13"
     inkscape:window-width="2560"
     inkscape:window-height="1369"
     inkscape:window-x="2552"
     inkscape:window-y="-8"
     inkscape:window-maximized="1"
     inkscape:current-layer="svg2" /><linearGradient
     id="a"
     x1=".148"
     x2=".845"
     y1=".851"
     y2=".154"
     gradientTransform="matrix(26.301 0 0 26.331 90.674 911.757)"
     gradientUnits="userSpaceOnUse"><stop
       offset="0"
       stop-color="#0071ff"
       id="stop1" /><stop
       offset="1"
       stop-color="#00bfe1"
       id="stop2" /></linearGradient><defs
     id="defs2"><linearGradient
       xlink:href="#a"
       id="b"
       x1=".148"
       x2=".845"
       y1=".851"
       y2=".154"
       gradientTransform="matrix(26.00048 0 0 25.99935 66.993 897.485)"
       gradientUnits="userSpaceOnUse" /></defs><path
     fill="url(#b)"
     d="m89.318 903.552-2.135 2.122c-.376.337-.558.879-.347 1.337 1.422 2.976.882 6.524-1.452 8.856-2.335 2.331-5.887 2.87-8.866 1.449-.439-.197-.954-.03-1.292.312l-2.17 2.167a1.154 1.154 0 0 0 .208 1.81 13.005 13.005 0 0 0 15.91-1.912 12.97 12.97 0 0 0 1.956-15.887 1.154 1.154 0 0 0-1.812-.254zm-18.467-2.305a12.969 12.969 0 0 0-2.02 15.885 1.154 1.154 0 0 0 1.812.254l2.124-2.11c.385-.336.572-.884.359-1.348-1.423-2.976-.884-6.524 1.451-8.856 2.334-2.332 5.887-2.871 8.866-1.45.434.194.942.033 1.281-.3l2.182-2.18a1.152 1.152 0 0 0-.208-1.81 13.009 13.009 0 0 0-15.893 1.973z"
     id="path2" /><path
     style="fill:#a05a2c"
     d="m 73.021985,904.00062 c -0.368986,0.55516 -0.456692,1.18504 -0.598465,1.81757 -0.09015,0.40218 -0.236585,0.79141 -0.310315,1.19693 -0.04704,0.25872 -0.0938,0.83921 -0.0665,1.13043 0.01648,0.17579 0.05749,0.18587 0.110827,0.31032 0.0093,0.0216 0.02785,0.1292 0.08866,0.0887 0.189028,-0.12602 0.283247,-0.45572 0.33248,-0.66496 0.01185,-0.0503 -0.02037,-0.10762 0,-0.15516 0.132866,-0.31002 0.336799,-0.58494 0.487639,-0.88662 0.226164,-0.45232 0.414734,-0.92288 0.642796,-1.37425 0.87467,-1.73112 0.147105,-0.0685 0.554135,-1.0861 0.08845,-0.22114 0.376812,-0.77894 0.376812,-1.08611 0,-0.007 -1.42e-4,0.0148 0,0.0222 0.0073,0.37681 0.0182,0.75357 0.02217,1.13043 0.0034,0.32508 0.01382,0.65048 0,0.97528 -0.01576,0.37027 -0.05911,0.73884 -0.08866,1.10827 -0.01478,0.3842 -0.03232,0.7683 -0.04433,1.1526 -0.01016,0.32502 -0.04297,0.65077 -0.02217,0.97527 0.01632,0.25457 0.08073,0.50395 0.132992,0.75363 0.01436,0.0686 0.04046,0.13441 0.0665,0.19949 0.0039,0.01 0.01749,0.0128 0.02217,0.0222 0.0033,0.007 -0.0027,0.029 0,0.0222 0.377986,-0.95492 0.617586,-1.57293 0.930948,-2.59336 0.640643,-2.0862 0.06912,-0.53808 0.664961,-2.28304 0.139548,-0.40867 0.32524,-0.92862 0.53197,-1.32992 0.04412,-0.0856 0.104669,-0.16178 0.155157,-0.24382 0.0087,-0.0141 0.0133,-0.0583 0.02217,-0.0443 0.05679,0.0892 0.106242,0.1858 0.132992,0.28815 0.143678,0.54972 0.330837,1.09607 0.376812,1.6624 0.117213,1.44386 0.110827,2.89581 0.110827,4.34442 0,0.76929 -0.08506,1.53634 -0.110827,2.3052 -0.0246,0.73393 -0.05065,1.76266 0.02216,2.54902 0.0098,0.10534 0.04084,0.20769 0.0665,0.31031 0.07774,0.31096 0.30401,-0.56609 0.421143,-0.86444 1.289231,-3.2839 1.488889,-4.6707 3.258312,-7.18159 0.301487,-0.42783 0.67402,-0.80236 1.041773,-1.17477 0.217361,-0.22011 0.469591,-0.40292 0.709292,-0.59846 0.04128,-0.0337 0.08033,-0.0968 0.132993,-0.0887 0.06733,0.0104 0.131707,0.069 0.155157,0.13299 0.14255,0.38877 0.251827,0.79078 0.332481,1.19693 0.126593,0.63748 0.236999,1.28047 0.28815,1.92839 0.115164,1.45874 0.02087,2.5261 0,3.94544 -0.0066,0.45065 0.0072,0.90145 0,1.35209 -0.01147,0.72266 -0.22954,1.24856 0.110827,1.83972 0.285152,0.49527 0.55754,0.51287 1.219096,0.5763 0.222595,0.0213 0.451107,-0.0233 0.664962,-0.0887 1.323715,-0.40446 2.277832,-1.37958 2.815004,-2.65984 0.216427,-0.51582 0.296088,-1.08394 0.354647,-1.64024 0.165705,-1.5742 -0.50975,-3.0907 -1.196931,-4.45524 -0.261778,-0.51982 -0.568179,-1.01601 -0.842288,-1.52942 -0.19142,-0.35853 -0.317546,-0.75563 -0.554135,-1.0861 -0.733914,-1.02515 -1.912436,-1.56769 -3.014493,-2.08355 -0.314579,-0.14725 -0.636164,-0.27906 -0.953111,-0.42114 -0.325858,-0.14607 -0.642302,-0.31428 -0.975277,-0.44331 -0.412396,-0.1598 -1.319494,-0.38267 -1.728901,-0.46547 -1.028704,-0.20805 -0.945192,-0.18436 -1.928388,-0.19949 -0.290315,-0.004 -0.701846,-0.0148 -0.997443,0.0443 -0.58789,0.11758 -1.044692,0.33394 -1.573742,0.59847 -0.298891,0.14944 -0.561796,0.27364 -0.797954,0.5098 -0.0408,0.0408 -0.0712,0.091 -0.110827,0.13299 -0.08609,0.0912 -0.18005,0.17468 -0.265985,0.26599 -0.03242,0.0344 -0.05521,0.0774 -0.08866,0.11082 -0.01884,0.0188 -0.04766,0.0255 -0.0665,0.0443 -0.06291,0.0629 -0.120984,0.13063 -0.177323,0.19949 -0.156803,0.19165 -0.294867,0.40055 -0.443307,0.59847 -0.07981,0.10641 -0.375946,0.41724 -0.421143,0.62063 -0.02931,0.13189 0.03623,0.11834 0.02217,0.26598 -0.02872,0.30157 -0.08622,0.22636 -0.0665,0.44331 0.0034,0.0375 0.01684,0.0735 0.02217,0.11083 0.0031,0.0219 -0.02217,0.0665 0,0.0665 0.02692,0 -0.04433,-0.33086 -0.04433,-0.42114"
     id="path3" /><path
     style="fill:#a05a2c"
     d="m 69.54202,910.11827 c -0.07337,0.33768 -0.05877,0.74819 0,1.08611 0.02887,0.16599 0.09381,0.32377 0.132992,0.48763 0.04213,0.17617 0.06594,0.35649 0.110827,0.53197 0.08455,0.33051 0.207872,0.64987 0.310315,0.97528 0.136857,0.43472 0.257097,0.87465 0.398977,1.30776 0.06839,0.20876 0.149926,0.41299 0.221654,0.62063 0.239951,0.69459 0.472017,1.41132 0.86445,2.03921 0.307725,0.49236 0.740753,0.96879 1.196931,1.32993 0.09967,0.0789 0.209802,0.14383 0.310316,0.22165 0.359404,0.27825 0.447034,0.40864 0.86445,0.6428 0.348787,0.19566 0.754451,0.29581 1.130435,0.42114 0.238783,0.0796 0.0916,0.0818 0.398977,0.13299 0.352114,0.0587 0.710422,0.0235 1.063938,0.0443 0.356953,0.021 0.71146,0.11995 1.063939,0.17733 0.647707,0.10544 0.526742,0.0839 1.196931,0.15515 0.140364,0.0149 0.28032,0.0346 0.421142,0.0443 0.147419,0.0102 0.295691,-0.007 0.443308,0 0.733822,0.0334 -0.43915,0.0443 0.997442,0.0443 0.443967,0 0.196918,-0.01 0.509804,-0.0665 0.02181,-0.004 0.04499,0.005 0.0665,0 0.04545,-0.0114 0.0094,-0.0231 0.02217,-0.0443 0.01901,-0.0317 0.05061,-0.0553 0.0665,-0.0887 0.0584,-0.12264 0.11521,-0.24698 0.155158,-0.37681 0.01968,-0.0639 0.01054,-0.1336 0.02216,-0.19949 0.01059,-0.06 0.03827,-0.11669 0.04433,-0.17732 0.0088,-0.0882 0,-0.17732 0,-0.26598 0,-0.0739 0.01096,-0.14859 0,-0.22166 -0.01787,-0.11915 -0.111598,-0.33441 -0.155158,-0.4433 -0.03749,-0.0937 -0.103519,-0.21435 -0.177323,-0.28815 -0.189922,-0.18993 -0.121881,-0.10169 -0.376812,-0.22166 -0.09348,-0.044 -0.23137,-0.13535 -0.310315,-0.19949 -0.276125,-0.22434 -0.147963,-0.16868 -0.487645,-0.39897 -0.495317,-0.33581 -0.991787,-0.67129 -1.507246,-0.97528 -0.659303,-0.38882 -0.113766,-0.0362 -0.642796,-0.33248 -0.303924,-0.1702 -0.588209,-0.37509 -0.886616,-0.55413 -0.116305,-0.0698 -0.240405,-0.12638 -0.354646,-0.19949 -0.24747,-0.15838 -0.321545,-0.3076 -0.509804,-0.50981 -0.199361,-0.21413 -0.407191,-0.42053 -0.620631,-0.62063 -0.262621,-0.2462 -0.521123,-0.50076 -0.797954,-0.73146 -0.238641,-0.19886 -0.510544,-0.35538 -0.731457,-0.57629 -0.347476,-0.34748 -0.629127,-0.75714 -1.019608,-1.06394 -0.335677,-0.26375 -0.692256,-0.50605 -1.041774,-0.75363 -0.115814,-0.12751 -0.285121,-0.17077 -0.421142,-0.26598 -0.02568,-0.018 -0.04142,-0.0477 -0.0665,-0.0665 -0.185185,-0.13889 -0.406097,-0.24856 -0.598465,-0.37681 -0.04802,-0.032 -0.08289,-0.0822 -0.132993,-0.11083 -0.06573,-0.0376 -0.169951,-0.0862 -0.243819,-0.11082 -0.03204,-0.0107 -0.07803,0.007 -0.110827,0 -0.0095,-0.002 -0.269247,-0.0411 -0.28815,-0.0222 -0.0052,0.005 0.0052,0.0169 0,0.0222 -0.01976,0.0198 -0.06512,0.0104 -0.08866,0.0222 -0.02199,0.011 -0.04354,0.0367 -0.0665,0.0443 -0.03547,0.0118 -0.278869,-0.0129 -0.28815,-0.0222 -0.0052,-0.005 0,-0.0148 0,-0.0222 -0.02955,-0.0148 -0.05911,-0.0295 -0.08866,-0.0443 z"
     id="path4" /></svg>
