<?xml version="1.0" standalone="no"?>
<!DOCTYPE svg PUBLIC "-//W3C//DTD SVG 20010904//EN"
 "http://www.w3.org/TR/2001/REC-SVG-20010904/DTD/svg10.dtd">
<svg version="1.0" xmlns="http://www.w3.org/2000/svg"
 width="256.000000pt" height="256.000000pt" viewBox="0 0 256.000000 256.000000"
 preserveAspectRatio="xMidYMid meet">

<g transform="translate(0.000000,256.000000) scale(0.100000,-0.100000)"
fill="#000000" stroke="none">
<path d="M285 2337 l-130 -22 0 -710 0 -710 55 -12 c146 -33 414 -56 433 -37
4 4 -2 19 -12 33 -27 38 -44 108 -36 156 l6 42 -77 6 c-42 3 -81 10 -86 15 -4
4 -7 123 -6 263 l3 254 38 18 c21 11 64 21 97 24 117 11 195 -46 221 -161 11
-52 8 -216 -5 -246 -5 -12 4 -15 47 -16 65 -2 121 -29 170 -83 l37 -41 11 27
c24 64 39 154 39 238 0 287 -129 474 -355 516 -71 13 -183 6 -244 -16 -24 -8
-47 -15 -52 -15 -5 0 -9 113 -9 250 0 138 -3 250 -7 249 -5 0 -66 -11 -138
-22z"/>
<path d="M2405 1342 c0 -973 -1 -1019 -19 -1052 -26 -49 -64 -88 -111 -113
l-40 -22 -1017 0 c-559 0 -1014 -3 -1012 -7 3 -4 28 -14 56 -23 76 -22 1958
-23 2034 0 64 19 120 75 140 140 22 74 21 1958 -1 2033 -9 28 -19 53 -23 56
-4 2 -7 -453 -7 -1012z"/>
<path d="M1927 1873 c-8 -8 -9 -217 -1 -225 3 -3 14 -4 25 -1 17 5 19 15 19
113 0 89 -3 109 -16 114 -19 7 -19 7 -27 -1z"/>
<path d="M781 1170 c-107 -24 -161 -158 -102 -253 65 -105 239 -96 297 15 22
42 15 138 -12 175 -37 49 -118 77 -183 63z"/>
<path d="M247 583 c-4 -3 -7 -55 -7 -115 0 -89 3 -108 15 -108 11 0 15 12 15
45 l0 45 45 0 c33 0 45 4 45 15 0 11 -12 15 -45 15 l-45 0 0 39 0 40 47 3 c72
5 68 28 -4 28 -33 0 -63 -3 -66 -7z"/>
<path d="M1525 555 c-5 -11 -16 -25 -24 -32 -14 -11 -14 -12 2 -13 14 0 17
-10 17 -70 0 -67 1 -71 26 -80 34 -13 53 -1 22 14 -20 10 -23 20 -26 74 -3 61
-2 62 23 62 14 0 25 5 25 10 0 6 -11 10 -24 10 -18 0 -26 6 -29 23 -3 21 -4
21 -12 2z"/>
<path d="M425 505 c-27 -26 -34 -80 -15 -115 14 -26 71 -43 104 -31 37 15 32
23 -8 15 -29 -5 -39 -2 -61 20 -14 14 -23 31 -20 36 3 6 31 10 61 10 53 0 54
0 54 29 0 58 -72 80 -115 36z m83 -7 c25 -25 13 -38 -33 -38 -30 0 -45 4 -45
13 0 19 21 37 45 37 12 0 26 -5 33 -12z"/>
<path d="M600 447 c0 -51 4 -87 10 -87 6 0 10 26 10 58 0 62 18 92 53 92 9 0
17 5 17 10 0 16 -36 12 -51 -6 -12 -14 -14 -14 -26 2 -11 15 -13 5 -13 -69z"/>
<path d="M730 445 c0 -69 3 -85 15 -85 12 0 15 14 15 63 0 70 10 87 51 87 33
0 39 -14 39 -91 0 -46 3 -59 15 -59 11 0 15 12 15 44 0 106 -28 142 -93 118
-21 -8 -33 -9 -35 -2 -2 5 -8 10 -13 10 -5 0 -9 -38 -9 -85z"/>
<path d="M934 448 c30 -111 47 -115 77 -16 l23 73 21 -70 c27 -90 48 -97 69
-25 23 78 30 120 18 120 -5 0 -18 -31 -27 -70 -9 -38 -19 -70 -21 -70 -2 0
-13 32 -25 70 -13 42 -26 70 -35 70 -8 0 -22 -28 -36 -72 l-22 -73 -18 60
c-10 33 -18 66 -18 73 0 6 -6 12 -14 12 -12 0 -10 -15 8 -82z"/>
<path d="M1210 520 c-17 -11 -9 -13 33 -10 31 2 57 -15 57 -36 0 -8 -10 -14
-24 -14 -36 0 -84 -20 -90 -37 -18 -47 35 -84 85 -59 16 8 29 10 29 5 0 -5 5
-9 10 -9 17 0 12 136 -6 154 -17 18 -71 21 -94 6z m90 -95 c0 -16 -35 -55 -49
-55 -36 0 -59 51 -28 63 29 12 77 7 77 -8z"/>
<path d="M1380 445 c0 -50 4 -85 10 -85 6 0 10 23 10 51 0 63 11 84 52 99 25
10 29 14 15 17 -10 3 -29 -3 -42 -11 -22 -15 -25 -15 -25 -1 0 8 -4 15 -10 15
-6 0 -10 -35 -10 -85z"/>
<path d="M1630 466 c0 -35 3 -72 6 -81 11 -27 52 -37 85 -21 16 8 31 10 35 5
16 -26 24 0 24 76 0 69 -3 85 -15 85 -12 0 -15 -14 -15 -64 0 -68 -14 -96 -49
-96 -31 0 -41 22 -41 92 0 54 -3 68 -15 68 -12 0 -15 -14 -15 -64z"/>
<path d="M1840 445 c0 -100 16 -114 22 -19 4 68 14 84 54 84 33 0 44 -20 44
-87 0 -35 4 -63 10 -63 17 0 12 136 -6 154 -19 19 -65 21 -83 4 -11 -10 -14
-10 -18 0 -13 35 -23 3 -23 -73z"/>
<path d="M2057 512 c-40 -44 -28 -135 21 -153 17 -7 33 -5 53 5 29 14 29 14
29 -14 0 -38 -22 -53 -70 -48 -25 2 -39 0 -37 -7 6 -18 87 -18 108 1 16 15 19
32 19 127 0 97 -2 108 -15 97 -12 -10 -19 -10 -27 -2 -18 18 -63 14 -81 -6z
m87 -18 c25 -24 21 -90 -6 -108 -28 -20 -43 -20 -62 0 -19 18 -22 94 -4 112
17 17 54 15 72 -4z"/>
</g>
</svg>
