<?xml version="1.0" encoding="iso-8859-1"?>
<!-- Generator: Adobe Illustrator 27.0.0, SVG Export Plug-In . SVG Version: 6.00 Build 0)  -->
<svg version="1.1" baseProfile="basic" xmlns="http://www.w3.org/2000/svg" xmlns:xlink="http://www.w3.org/1999/xlink" x="0px"
	 y="0px" viewBox="0 0 64 64" xml:space="preserve">
<g id="Layer_1">
	<linearGradient id="SVGID_1_" gradientUnits="userSpaceOnUse" x1="37.07" y1="-4.2532" x2="37.07" y2="60.3623">
		<stop  offset="0" style="stop-color:#6DC7FF"/>
		<stop  offset="1" style="stop-color:#E6ABFF"/>
	</linearGradient>
	<path style="fill:url(#SVGID_1_);" d="M53.08,17.76L25.31,0.74c-2.72-1.66-6.2,0.29-6.2,3.47v33.6c0,1.42,0.74,2.74,1.94,3.48
		L48.83,58.3c2.71,1.67,6.2-0.29,6.2-3.47v-33.6C55.03,19.81,54.29,18.5,53.08,17.76z M45,47.02L27,36.44V14.2l18,10.59V47.02z"/>
	
		<linearGradient id="SVGID_00000011024025059120531590000012346628598281350587_" gradientUnits="userSpaceOnUse" x1="30.96" y1="0.8368" x2="30.96" y2="65.4523">
		<stop  offset="0" style="stop-color:#1A6DFF"/>
		<stop  offset="1" style="stop-color:#C822FF"/>
	</linearGradient>
	<path style="fill:url(#SVGID_00000011024025059120531590000012346628598281350587_);" d="M46.98,22.85L19.2,5.83
		C16.49,4.17,13,6.12,13,9.3v33.6c0,1.42,0.74,2.74,1.94,3.48l27.78,17.01c2.71,1.67,6.2-0.29,6.2-3.47v-33.6
		C48.92,24.9,48.18,23.59,46.98,22.85z M39.96,51.02l-18-10.58V18.2l18,10.59V51.02z"/>
</g>
<g id="&#x421;&#x43B;&#x43E;&#x439;_1">
</g>
</svg>