<?xml version="1.0" encoding="UTF-8"?>
<svg xmlns="http://www.w3.org/2000/svg" xmlns:xlink="http://www.w3.org/1999/xlink" width="26px" height="26px" viewBox="0 0 26 26" version="1.1">
<g id="surface1">
<path style=" stroke:none;fill-rule:evenodd;fill:rgb(7.450981%,34.901962%,19.607843%);fill-opacity:1;" d="M 15.4375 6.769531 C 12.808594 6.304688 11.003906 4.863281 10.019531 2.4375 C 11.144531 1.089844 12.40625 1.089844 13.8125 2.4375 C 15.160156 3.5625 15.699219 5.007812 15.4375 6.769531 Z M 15.4375 6.769531 "/>
<path style=" stroke:none;fill-rule:evenodd;fill:rgb(9.803922%,62.7451%,34.117648%);fill-opacity:1;" d="M 10.019531 2.4375 C 11.003906 4.863281 12.808594 6.304688 15.4375 6.769531 C 15.4375 6.953125 15.4375 7.132812 15.4375 7.3125 C 13.632812 8.035156 11.828125 8.757812 10.019531 9.480469 C 10.019531 7.132812 10.019531 4.785156 10.019531 2.4375 Z M 10.019531 2.4375 "/>
<path style=" stroke:none;fill-rule:evenodd;fill:rgb(9.019608%,61.176473%,33.725491%);fill-opacity:1;" d="M 15.4375 7.3125 C 15.4375 8.578125 15.4375 9.839844 15.4375 11.105469 C 13.632812 11.644531 11.828125 12.1875 10.019531 12.730469 C 10.019531 12.007812 10.019531 11.285156 10.019531 10.5625 C 10.019531 10.203125 10.019531 9.839844 10.019531 9.480469 C 11.828125 8.757812 13.632812 8.035156 15.4375 7.3125 Z M 15.4375 7.3125 "/>
<path style=" stroke:none;fill-rule:evenodd;fill:rgb(19.215687%,75.294119%,49.019608%);fill-opacity:1;" d="M 10.019531 10.5625 C 10.019531 11.285156 10.019531 12.007812 10.019531 12.730469 C 8.027344 12.820312 6.039062 12.726562 4.0625 12.457031 C 2.753906 11.640625 2.210938 10.46875 2.4375 8.9375 C 4.433594 8.847656 6.417969 8.9375 8.394531 9.207031 C 8.867188 9.773438 9.410156 10.226562 10.019531 10.5625 Z M 10.019531 10.5625 "/>
<path style=" stroke:none;fill-rule:evenodd;fill:rgb(7.058824%,58.823532%,31.37255%);fill-opacity:1;" d="M 15.4375 11.105469 C 15.4375 12.1875 15.4375 13.269531 15.4375 14.355469 C 13.632812 14.355469 11.828125 14.355469 10.019531 14.355469 C 10.019531 13.8125 10.019531 13.269531 10.019531 12.730469 C 11.828125 12.1875 13.632812 11.644531 15.4375 11.105469 Z M 15.4375 11.105469 "/>
<path style=" stroke:none;fill-rule:evenodd;fill:rgb(19.607843%,75.686276%,48.627451%);fill-opacity:1;" d="M 10.019531 14.355469 C 11.828125 14.355469 13.632812 14.355469 15.4375 14.355469 C 16.160156 14.714844 16.160156 15.078125 15.4375 15.4375 C 13.632812 15.4375 11.828125 15.4375 10.019531 15.4375 C 9.296875 15.078125 9.296875 14.714844 10.019531 14.355469 Z M 10.019531 14.355469 "/>
<path style=" stroke:none;fill-rule:evenodd;fill:rgb(5.098039%,56.078434%,29.411766%);fill-opacity:1;" d="M 10.019531 15.4375 C 11.828125 15.4375 13.632812 15.4375 15.4375 15.4375 C 15.4375 16.519531 15.4375 17.605469 15.4375 18.6875 C 13.703125 19.445312 11.898438 19.988281 10.019531 20.3125 C 10.019531 18.6875 10.019531 17.0625 10.019531 15.4375 Z M 10.019531 15.4375 "/>
<path style=" stroke:none;fill-rule:evenodd;fill:rgb(19.215687%,75.294119%,49.019608%);fill-opacity:1;" d="M 15.4375 20.855469 C 15.4375 20.132812 15.4375 19.410156 15.4375 18.6875 C 16.046875 18.351562 16.589844 17.898438 17.0625 17.332031 C 19.039062 17.0625 21.027344 16.972656 23.019531 17.0625 C 23.246094 18.59375 22.707031 19.765625 21.394531 20.582031 C 19.417969 20.851562 17.433594 20.945312 15.4375 20.855469 Z M 15.4375 20.855469 "/>
<path style=" stroke:none;fill-rule:evenodd;fill:rgb(3.921569%,52.941179%,27.058825%);fill-opacity:1;" d="M 15.4375 18.6875 C 15.4375 19.410156 15.4375 20.132812 15.4375 20.855469 C 15.4375 22.117188 15.4375 23.382812 15.4375 24.644531 C 13.632812 24.644531 11.828125 24.644531 10.019531 24.644531 C 10.019531 23.203125 10.019531 21.757812 10.019531 20.3125 C 11.898438 19.988281 13.703125 19.445312 15.4375 18.6875 Z M 15.4375 18.6875 "/>
</g>
</svg>
