<svg viewBox="0 0 347.97 347.97"><path fill="none" stroke="red" stroke-width="14.827" d="M317.469 61.615c-59.442 0-104.976-16.082-143.489-51.539-38.504 35.457-84.04 51.539-143.479 51.539 0 92.337-20.177 224.612 143.479 278.324 163.661-53.717 143.489-185.992 143.489-278.324z"/><path fill="red" d="m231.442 247.498-7.754-10.205c-17.268 12.441-38.391 17.705-59.478 14.822-21.087-2.883-39.613-13.569-52.166-30.088-25.916-34.101-17.997-82.738 17.65-108.42 32.871-23.685 78.02-19.704 105.172 7.802l-32.052 7.987 3.082 12.369 48.722-12.142-11.712-46.998-12.822 3.196 4.496 18.039c-31.933-24.008-78.103-25.342-112.642-.458-31.361 22.596-44.3 60.436-35.754 94.723 2.77 11.115 7.801 21.862 15.192 31.588 30.19 39.727 88.538 47.705 130.066 17.785z"/></svg>