<svg version="1.2" xmlns="http://www.w3.org/2000/svg" viewBox="0 0 260 253" width="260" height="253"><path fill="#c0ff00" d="m0 167c0-5.5 4.5-10 10-10h90c5.5 0 10 4.5 10 10v23c0 5.5-4.5 10-10 10h-90c-5.5 0-10-4.5-10-10z"/><path fill="#0ff" d="m3 63c0-5.5 4.5-10 10-10h46c5.5 0 10 4.5 10 10v24c0 5.5-4.5 10-10 10h-46c-5.5 0-10-4.5-10-10z"/><path fill="#0ff" d="m1 114c0-5.5 4.5-10 10-10h62c5.5 0 10 4.5 10 10v26c0 5.5-4.5 10-10 10h-62c-5.5 0-10-4.5-10-10z"/><path fill="#00ffa8" d="m114 166c0-5.5 4.5-10 10-10h24c5.5 0 10 4.5 10 10v24c0 5.5-4.5 10-10 10h-24c-5.5 0-10-4.5-10-10z"/><path fill="#00ffa8" d="m90 117c0-5.5 4.5-10 10-10h25c5.5 0 10 4.5 10 10v22c0 5.5-4.5 10-10 10h-25c-5.5 0-10-4.5-10-10z"/><path fill="#00ffa8" d="m81 64c0-5.5 4.5-10 10-10h22c5.5 0 10 4.5 10 10v26c0 5.5-4.5 10-10 10h-22c-5.5 0-10-4.5-10-10z"/><path fill="#00ffa8" d="m54 10c0-5.5 4.5-10 10-10h25c5.5 0 10 4.5 10 10v27c0 5.5-4.5 10-10 10h-25c-5.5 0-10-4.5-10-10z"/><path fill="#00ffa8" d="m2 10c0-5.5 4.5-10 10-10h26c5.5 0 10 4.5 10 10v27c0 5.5-4.5 10-10 10h-26c-5.5 0-10-4.5-10-10z"/><path fill="#0ff" d="m2 216c0-5.5 4.5-10 10-10h59c5.5 0 10 4.5 10 10v26c0 5.5-4.5 10-10 10h-59c-5.5 0-10-4.5-10-10z"/><path fill="#487997" d="m89 217c0-5.5 4.5-10 10-10h23c5.5 0 10 4.5 10 10v26c0 5.5-4.5 10-10 10h-23c-5.5 0-10-4.5-10-10z"/><path fill="#0ff" d="m141 217c0-5.5 4.5-10 10-10h24c5.5 0 10 4.5 10 10v25c0 5.5-4.5 10-10 10h-24c-5.5 0-10-4.5-10-10z"/><path fill="#0ff" d="m191 216c0-5.5 4.5-10 10-10h23c5.5 0 10 4.5 10 10v25c0 5.5-4.5 10-10 10h-23c-5.5 0-10-4.5-10-10z"/><path fill="#00ffa8" d="m166 164c0-5.5 4.5-10 10-10h24c5.5 0 10 4.5 10 10v27c0 5.5-4.5 10-10 10h-24c-5.5 0-10-4.5-10-10z"/><path fill="#00ffa8" d="m215 165c0-5.5 4.5-10 10-10h25c5.5 0 10 4.5 10 10v25c0 5.5-4.5 10-10 10h-25c-5.5 0-10-4.5-10-10z"/><path fill="#00ffa8" d="m138 111c0-5.5 4.5-10 10-10h28c5.5 0 10 4.5 10 10v29c0 5.5-4.5 10-10 10h-28c-5.5 0-10-4.5-10-10z"/><path fill="#00ffa8" d="m192 112c0-5.5 4.5-10 10-10h25c5.5 0 10 4.5 10 10v29c0 5.5-4.5 10-10 10h-25c-5.5 0-10-4.5-10-10z"/><path fill="#00ffa8" d="m129 64c0-5.5 4.5-10 10-10h27c5.5 0 10 4.5 10 10v26c0 5.5-4.5 10-10 10h-27c-5.5 0-10-4.5-10-10z"/><path fill="#00ffa8" d="m182 62c0-5.5 4.5-10 10-10h25c5.5 0 10 4.5 10 10v26c0 5.5-4.5 10-10 10h-25c-5.5 0-10-4.5-10-10z"/><path fill="#00ffa8" d="m105 11c0-5.5 4.5-10 10-10h24c5.5 0 10 4.5 10 10v26c0 5.5-4.5 10-10 10h-24c-5.5 0-10-4.5-10-10z"/><path fill="#00ffa8" d="m154 12c0-5.5 4.5-10 10-10h27c5.5 0 10 4.5 10 10v25c0 5.5-4.5 10-10 10h-27c-5.5 0-10-4.5-10-10z"/><path  d="m42.7 172.9v1.9q-1.1-0.5-2.1-0.8-1-0.2-1.9-0.2-1.7 0-2.5 0.6-0.9 0.6-0.9 1.8 0 0.9 0.6 1.4 0.6 0.5 2.2 0.8l1.2 0.3q2.2 0.4 3.2 1.4 1.1 1.1 1.1 2.9 0 2.1-1.4 3.2-1.5 1.1-4.2 1.1-1 0-2.2-0.3-1.2-0.2-2.4-0.6v-2.1q1.2 0.7 2.3 1 1.2 0.4 2.3 0.4 1.7 0 2.6-0.7 0.9-0.6 0.9-1.9 0-1.1-0.6-1.7-0.7-0.6-2.2-0.9l-1.2-0.2q-2.2-0.4-3.2-1.4-1-0.9-1-2.6 0-1.9 1.4-3 1.3-1.1 3.7-1.1 1.1 0 2.1 0.1 1.1 0.2 2.2 0.6zm13 7.5v6.6h-1.8v-6.5q0-1.6-0.6-2.4-0.6-0.7-1.8-0.7-1.5 0-2.3 0.9-0.9 0.9-0.9 2.5v6.2h-1.8v-15.2h1.8v6q0.7-1 1.5-1.5 0.9-0.5 2.1-0.5 1.8 0 2.8 1.2 1 1.1 1 3.4zm3.6 6.6v-10.9h1.8v10.9zm0-12.9v-2.3h1.7v2.3zm9.4-2.3h1.7v1.5h-1.7q-0.9 0-1.3 0.4-0.4 0.4-0.4 1.4v1h3v1.4h-3v9.5h-1.8v-9.5h-1.7v-1.4h1.7v-0.8q0-1.8 0.8-2.7 0.9-0.8 2.7-0.8zm2.9 1.2h1.8v3.1h3.7v1.4h-3.7v5.9q0 1.3 0.3 1.7 0.4 0.4 1.5 0.4h1.9v1.5h-1.9q-2.1 0-2.8-0.8-0.8-0.8-0.8-2.8v-5.9h-1.4v-1.4h1.4z"/></svg>