<svg xmlns="http://www.w3.org/2000/svg" width="261" height="253" version="1.2"><path fill="#0ff" d="M1 217c0-5.5 4.5-10 10-10h60c5.5 0 10 4.5 10 10v25c0 5.5-4.5 10-10 10H11c-5.5 0-10-4.5-10-10z"/><path fill="#487997" d="M89 216c0-5.5 4.5-10 10-10h25c5.5 0 10 4.5 10 10v25c0 5.5-4.5 10-10 10H99c-5.5 0-10-4.5-10-10z"/><path fill="#c0ff00" d="M3 166c0-5.5 4.5-10 10-10h34c5.5 0 10 4.5 10 10v24c0 5.5-4.5 10-10 10H13c-5.5 0-10-4.5-10-10z"/><path fill="#00f" d="M63 166c0-5.5 4.5-10 10-10h24c5.5 0 10 4.5 10 10v25c0 5.5-4.5 10-10 10H73c-5.5 0-10-4.5-10-10z"/><path fill="#0ff" d="M140 215c0-5.5 4.5-10 10-10h26c5.5 0 10 4.5 10 10v26c0 5.5-4.5 10-10 10h-26c-5.5 0-10-4.5-10-10zm50 0c0-5.5 4.5-10 10-10h26c5.5 0 10 4.5 10 10v28c0 5.5-4.5 10-10 10h-26c-5.5 0-10-4.5-10-10z"/><path fill="#00ffa8" d="M112 166c0-5.5 4.5-10 10-10h27c5.5 0 10 4.5 10 10v24c0 5.5-4.5 10-10 10h-27c-5.5 0-10-4.5-10-10zm53-1c0-5.5 4.5-10 10-10h25c5.5 0 10 4.5 10 10v26c0 5.5-4.5 10-10 10h-25c-5.5 0-10-4.5-10-10zm51-1c0-5.5 4.5-10 10-10h25c5.5 0 10 4.5 10 10v26c0 5.5-4.5 10-10 10h-25c-5.5 0-10-4.5-10-10z"/><path fill="#0ff" d="M0 115c0-5.5 4.5-10 10-10h61c5.5 0 10 4.5 10 10v23c0 5.5-4.5 10-10 10H10c-5.5 0-10-4.5-10-10z"/><path fill="#00ffa8" d="M90 116c0-5.5 4.5-10 10-10h24c5.5 0 10 4.5 10 10v25c0 5.5-4.5 10-10 10h-24c-5.5 0-10-4.5-10-10zm49 0c0-5.5 4.5-10 10-10h27c5.5 0 10 4.5 10 10v25c0 5.5-4.5 10-10 10h-27c-5.5 0-10-4.5-10-10zm52-1c0-5.5 4.5-10 10-10h23c5.5 0 10 4.5 10 10v24c0 5.5-4.5 10-10 10h-23c-5.5 0-10-4.5-10-10z"/><path fill="#0ff" d="M2 62c0-5.5 4.5-10 10-10h50c5.5 0 10 4.5 10 10v26c0 5.5-4.5 10-10 10H12C6.5 98 2 93.5 2 88z"/><path fill="#00ffa8" d="M79 62c0-5.5 4.5-10 10-10h24c5.5 0 10 4.5 10 10v26c0 5.5-4.5 10-10 10H89c-5.5 0-10-4.5-10-10zm52 2c0-5.5 4.5-10 10-10h25c5.5 0 10 4.5 10 10v24c0 5.5-4.5 10-10 10h-25c-5.5 0-10-4.5-10-10zm51-1c0-5.5 4.5-10 10-10h25c5.5 0 10 4.5 10 10v25c0 5.5-4.5 10-10 10h-25c-5.5 0-10-4.5-10-10zM0 10C0 4.5 4.5 0 10 0h28c5.5 0 10 4.5 10 10v27c0 5.5-4.5 10-10 10H10C4.5 47 0 42.5 0 37zm54 1c0-5.5 4.5-10 10-10h24c5.5 0 10 4.5 10 10v26c0 5.5-4.5 10-10 10H64c-5.5 0-10-4.5-10-10zm51 1c0-5.5 4.5-10 10-10h25c5.5 0 10 4.5 10 10v26c0 5.5-4.5 10-10 10h-25c-5.5 0-10-4.5-10-10zm51 1c0-5.5 4.5-10 10-10h27c5.5 0 10 4.5 10 10v24c0 5.5-4.5 10-10 10h-27c-5.5 0-10-4.5-10-10z"/><path d="M16.7 171.9v1.9q-1.1-.5-2.1-.8-1-.2-1.9-.2-1.7 0-2.5.6-.9.6-.9 1.8 0 .9.6 1.4.6.5 2.2.8l1.2.3q2.2.4 3.2 1.4 1.1 1.1 1.1 2.9 0 2.1-1.4 3.2-1.5 1.1-4.2 1.1-1 0-2.2-.3-1.2-.2-2.4-.6v-2.1q1.2.7 2.3 1 1.2.4 2.3.4 1.7 0 2.6-.7.9-.6.9-1.9 0-1.1-.6-1.7-.7-.6-2.2-.9l-1.2-.2q-2.2-.4-3.2-1.4-1-.9-1-2.6 0-1.9 1.4-3 1.3-1.1 3.7-1.1 1.1 0 2.1.1 1.1.2 2.2.6zm13 7.5v6.6h-1.8v-6.5q0-1.6-.6-2.4-.6-.7-1.8-.7-1.5 0-2.3.9-.9.9-.9 2.5v6.2h-1.8v-15.2h1.8v6q.7-1 1.5-1.5.9-.5 2.1-.5 1.8 0 2.8 1.2 1 1.1 1 3.4zm3.6 6.6v-10.9h1.8V186zm0-12.9v-2.3H35v2.3zm9.4-2.3h1.7v1.5h-1.7q-.9 0-1.3.4t-.4 1.4v1h3v1.4h-3v9.5h-1.8v-9.5h-1.7v-1.4h1.7v-.8q0-1.8.8-2.7.9-.8 2.7-.8zm2.9 1.2h1.8v3.1h3.7v1.4h-3.7v5.9q0 1.3.3 1.7.4.4 1.5.4h1.9v1.5h-1.9q-2.1 0-2.8-.8-.8-.8-.8-2.8v-5.9h-1.4v-1.4h1.4z"/></svg>