<svg xmlns="http://www.w3.org/2000/svg" width="32" height="32" style="isolation:isolate" viewBox="-25 -20 203.84 203.84"><path fill="none" d="M-25 -20h203.84v203.84H-25V-20Z"/><path fill-rule="evenodd" d="m 138.89865,138.35082 c -7.4773,-1.46991 -13.38175,-6.80687 -16.0538,-14.51082 -0.60118,-1.73331 -0.75172,-3.01341 -0.90314,-7.68 L 121.76,110.56 63.015062,110.4 4.2701272,110.24 3.0611099,109.31781 C 0.82735914,107.61401 0.95999998,110.10758 0.95999998,69.818289 V 33.376024 L 1.9136909,32.059492 c 1.8279941,-2.523473 -5.55975,-2.299493 75.8463071,-2.299493 80.894122,0 73.966112,-0.195238 75.743452,2.13453 l 0.89655,1.175202 0.16,23.451681 0.16,23.451681 1.32205,1.373453 c 2.86717,2.978638 4.45468,5.617807 5.75244,9.563221 0.49931,1.517963 0.58391,3.353669 0.68963,14.963143 0.10298,11.30867 0.0445,13.60788 -0.40199,15.81154 -1.75472,8.65989 -8.19107,15.06302 -16.77865,16.69206 -3.10444,0.5889 -3.28208,0.58819 -6.40483,-0.0257 z m 7.6166,-8.13959 c 3.53061,-1.20944 6.88649,-4.74125 8.25443,-8.68716 0.49891,-1.43914 0.58429,-2.75452 0.58707,-9.04407 l 0.003,-7.36 h -13.12 -13.12 l -0.0931,6.08 c -0.0512,3.344 0.0616,7.016 0.25067,8.16 0.9603,5.81111 5.54244,10.60032 10.98293,11.47927 2.05908,0.33267 4.02705,0.13506 6.2547,-0.62804 z M 121.96393,95.679998 c 0.22296,-4.023299 0.53085,-5.103512 2.58002,-9.051973 0.96466,-1.858753 2.0682,-3.33946 3.76997,-5.058456 3.74735,-3.785282 7.38666,-5.50084 12.68865,-5.981398 L 143.52,75.359998 v -17.279999 -17.28 H 77.759998 12 l -0.08256,28.959999 c -0.04541,15.928 -0.01377,29.140411 0.07031,29.360914 0.121828,0.319501 11.283192,0.384484 54.962563,0.32 L 121.76,99.359998 Z M 52.926548,91.497095 c -2.25718,-0.661787 -3.737402,-3.362591 -3.02537,-5.52007 0.525271,-1.591585 2.235408,-3.008193 3.925318,-3.251575 0.755426,-0.108796 11.839028,-0.154531 24.630226,-0.101632 22.914108,0.09476 23.269738,0.1059 24.140228,0.755953 2.94682,2.200588 2.9468,5.439961 -5e-5,7.640455 -0.87235,0.651408 -1.18648,0.660459 -24.780224,0.713956 -13.599795,0.03084 -24.324747,-0.07132 -24.890128,-0.237087 z M 45.586305,71.403829 c -2.989883,-1.823288 -2.888455,-5.964356 0.188441,-7.693669 1.100977,-0.618784 1.688265,-0.670161 7.660461,-0.670161 7.140454,0 8.055633,0.193806 9.323553,1.974436 1.46695,2.060141 0.904911,4.795505 -1.286084,6.259185 -1.046796,0.699305 -1.34497,0.726334 -8,0.725182 -6.168847,-0.0011 -7.01745,-0.06509 -7.886371,-0.594973 z M 69.407321,71.27362 c -2.190995,-1.46368 -2.753034,-4.199044 -1.286084,-6.259185 1.26792,-1.78063 2.183099,-1.974436 9.323553,-1.974436 5.972196,0 6.559484,0.05138 7.660461,0.670161 3.137138,1.76317 3.140205,6.193601 0.0054,7.814667 -0.728659,0.376804 -2.336636,0.475171 -7.767449,0.475171 -6.587364,0 -6.890039,-0.0277 -7.935891,-0.726378 z m 23.538982,0.130209 c -2.989882,-1.823288 -2.888455,-5.964356 0.188442,-7.693669 1.100977,-0.618784 1.688265,-0.670161 7.660465,-0.670161 7.14045,0 8.05563,0.193806 9.32355,1.974436 1.46695,2.060141 0.90491,4.795505 -1.28609,6.259185 -1.04679,0.699305 -1.34497,0.726334 -7.99999,0.725182 -6.168852,-0.0011 -7.017455,-0.06509 -7.886377,-0.594973 z M 20.257386,54.09408 c -1.425849,-0.869396 -2.124053,-2.07237 -2.124053,-3.65965 0,-1.722346 0.842157,-3.150399 2.361413,-4.004269 1.101872,-0.619287 1.687465,-0.670162 7.713815,-0.670162 7.576816,0 8.236354,0.179561 9.489978,2.583677 1.164343,2.232899 0.541326,4.422848 -1.635927,5.750404 -0.929894,0.566992 -1.646412,0.623526 -7.902613,0.623526 -6.256201,0 -6.972718,-0.05653 -7.902613,-0.623526 z m 25.328919,0.02975 c -2.989883,-1.823288 -2.888455,-5.964356 0.188441,-7.693668 1.100977,-0.618784 1.688265,-0.670162 7.660461,-0.670162 7.140454,0 8.055633,0.193806 9.323553,1.974436 1.46695,2.060141 0.904911,4.795506 -1.286084,6.259185 -1.046796,0.699305 -1.34497,0.726334 -8,0.725183 -6.168847,-0.0011 -7.01745,-0.06509 -7.886371,-0.594974 z m 23.95108,-0.02975 c -2.177253,-1.327556 -2.80027,-3.517505 -1.635927,-5.750404 1.253625,-2.404116 1.913163,-2.583677 9.489978,-2.583677 6.026351,0 6.611943,0.05087 7.713815,0.670162 1.519257,0.85387 2.361414,2.281923 2.361414,4.004269 0,1.58728 -0.698204,2.790254 -2.124054,3.65965 -0.929894,0.566992 -1.646412,0.623526 -7.902613,0.623526 -6.256201,0 -6.972718,-0.05653 -7.902613,-0.623526 z m 23.408918,0.02975 c -2.989882,-1.823288 -2.888455,-5.964356 0.188442,-7.693668 1.100977,-0.618784 1.688265,-0.670162 7.660465,-0.670162 7.14045,0 8.05563,0.193806 9.32355,1.974436 1.46695,2.060141 0.90491,4.795506 -1.28609,6.259185 -1.04679,0.699305 -1.34497,0.726334 -7.99999,0.725183 -6.168852,-0.0011 -7.017455,-0.06509 -7.886377,-0.594974 z m 23.951077,-0.02975 c -2.17725,-1.327556 -2.80027,-3.517505 -1.63592,-5.750404 1.25362,-2.404116 1.91316,-2.583677 9.48998,-2.583677 6.02635,0 6.61194,0.05087 7.71381,0.670162 1.51926,0.85387 2.36141,2.281923 2.36141,4.004269 0,1.58728 -0.6982,2.790254 -2.12405,3.65965 -0.92989,0.566992 -1.64641,0.623526 -7.90261,0.623526 -6.2562,0 -6.97272,-0.05653 -7.90262,-0.623526 z M 138.56,90.559998 c 0,-3.696 -0.0537,-6.72 -0.11933,-6.72 -0.0656,0 -0.8152,0.307823 -1.66573,0.684051 -2.80354,1.240142 -6.02856,4.841681 -6.88513,7.688984 -0.48997,1.628675 -0.93189,4.484711 -0.74158,4.792639 0.0932,0.150879 2.24904,0.274326 4.79065,0.274326 H 138.56 Z m 16.79628,6.40601 c 0.34191,-0.553225 -0.50461,-4.263888 -1.38445,-6.068644 -1.1995,-2.460457 -3.83942,-5.206113 -5.9802,-6.219722 -0.97302,-0.460704 -1.83719,-0.837644 -1.92038,-0.837644 -0.0832,0 -0.15125,3.024 -0.15125,6.72 v 6.72 h 4.62111 c 2.6766,0 4.70277,-0.132124 4.81517,-0.31399 z"/></svg>
