<?xml version="1.0" encoding="UTF-8" standalone="no"?>
<svg xmlns="http://www.w3.org/2000/svg" xmlns:xlink="http://www.w3.org/1999/xlink" style="isolation:isolate" viewBox="534.516 536.93 32.551 32" width="32.551pt" height="32pt"><path d=" M 541.04 536.93 L 560.542 536.93 C 562.267 536.93 563.927 537.619 565.153 538.844 C 566.378 540.062 567.067 541.722 567.067 543.455 L 567.067 562.405 C 567.067 564.138 566.378 565.798 565.153 567.016 C 563.927 568.241 562.267 568.93 560.542 568.93 L 541.04 568.93 C 539.315 568.93 537.655 568.241 536.43 567.016 C 535.204 565.798 534.516 564.138 534.516 562.405 L 534.516 543.455 C 534.516 541.722 535.204 540.062 536.43 538.844 C 537.655 537.619 539.315 536.93 541.04 536.93 Z  M 544.165 544.267 L 557.417 544.267 C 558.824 544.267 560.172 544.773 561.165 545.675 C 562.159 546.577 562.717 547.802 562.717 549.079 L 562.717 556.781 C 562.717 558.058 562.159 559.283 561.165 560.185 C 560.172 561.086 558.824 561.593 557.417 561.593 L 544.165 561.593 C 542.758 561.593 541.41 561.086 540.417 560.185 C 539.424 559.283 538.865 558.058 538.865 556.781 L 538.865 549.079 C 538.865 547.802 539.424 546.577 540.417 545.675 C 541.41 544.773 542.758 544.267 544.165 544.267 Z  M 544.999 555.139 L 556.583 555.139 C 557.029 555.139 557.391 555.501 557.391 555.947 L 557.391 556.483 C 557.391 557.269 556.753 557.908 555.966 557.908 L 545.616 557.908 C 544.83 557.908 544.191 557.269 544.191 556.483 L 544.191 555.947 C 544.191 555.501 544.553 555.139 544.999 555.139 Z  M 543.238 551.628 L 544.137 551.628 C 544.673 551.628 545.108 552.063 545.108 552.599 L 545.108 553.498 C 545.108 554.034 544.673 554.469 544.137 554.469 L 543.238 554.469 C 542.702 554.469 542.267 554.034 542.267 553.498 L 542.267 552.599 C 542.267 552.063 542.702 551.628 543.238 551.628 Z  M 546.79 551.628 L 547.689 551.628 C 548.225 551.628 548.66 552.063 548.66 552.599 L 548.66 553.498 C 548.66 554.034 548.225 554.469 547.689 554.469 L 546.79 554.469 C 546.254 554.469 545.819 554.034 545.819 553.498 L 545.819 552.599 C 545.819 552.063 546.254 551.628 546.79 551.628 Z  M 550.342 551.628 L 551.241 551.628 C 551.777 551.628 552.212 552.063 552.212 552.599 L 552.212 553.498 C 552.212 554.034 551.777 554.469 551.241 554.469 L 550.342 554.469 C 549.806 554.469 549.37 554.034 549.37 553.498 L 549.37 552.599 C 549.37 552.063 549.806 551.628 550.342 551.628 Z  M 553.893 551.628 L 554.793 551.628 C 555.329 551.628 555.764 552.063 555.764 552.599 L 555.764 553.498 C 555.764 554.034 555.329 554.469 554.793 554.469 L 553.893 554.469 C 553.357 554.469 552.922 554.034 552.922 553.498 L 552.922 552.599 C 552.922 552.063 553.357 551.628 553.893 551.628 Z  M 557.445 551.628 L 558.344 551.628 C 558.88 551.628 559.316 552.063 559.316 552.599 L 559.316 553.498 C 559.316 554.034 558.88 554.469 558.344 554.469 L 557.445 554.469 C 556.909 554.469 556.474 554.034 556.474 553.498 L 556.474 552.599 C 556.474 552.063 556.909 551.628 557.445 551.628 Z  M 543.062 548.117 L 544.313 548.117 C 544.752 548.117 545.108 548.473 545.108 548.912 L 545.108 550.163 C 545.108 550.602 544.752 550.958 544.313 550.958 L 543.062 550.958 C 542.623 550.958 542.267 550.602 542.267 550.163 L 542.267 548.912 C 542.267 548.473 542.623 548.117 543.062 548.117 Z  M 546.614 548.117 L 547.864 548.117 C 548.303 548.117 548.66 548.473 548.66 548.912 L 548.66 550.163 C 548.66 550.602 548.303 550.958 547.864 550.958 L 546.614 550.958 C 546.175 550.958 545.819 550.602 545.819 550.163 L 545.819 548.912 C 545.819 548.473 546.175 548.117 546.614 548.117 Z  M 550.166 548.117 L 551.416 548.117 C 551.855 548.117 552.212 548.473 552.212 548.912 L 552.212 550.163 C 552.212 550.602 551.855 550.958 551.416 550.958 L 550.166 550.958 C 549.727 550.958 549.37 550.602 549.37 550.163 L 549.37 548.912 C 549.37 548.473 549.727 548.117 550.166 548.117 Z  M 553.718 548.117 L 554.968 548.117 C 555.407 548.117 555.764 548.473 555.764 548.912 L 555.764 550.163 C 555.764 550.602 555.407 550.958 554.968 550.958 L 553.718 550.958 C 553.279 550.958 552.922 550.602 552.922 550.163 L 552.922 548.912 C 552.922 548.473 553.279 548.117 553.718 548.117 Z  M 557.27 548.117 L 558.52 548.117 C 558.959 548.117 559.316 548.473 559.316 548.912 L 559.316 550.163 C 559.316 550.602 558.959 550.958 558.52 550.958 L 557.27 550.958 C 556.831 550.958 556.474 550.602 556.474 550.163 L 556.474 548.912 C 556.474 548.473 556.831 548.117 557.27 548.117 Z " fill-rule="evenodd" fill="rgb(0,113,255)"/></svg>