<?xml version="1.0" encoding="UTF-8" standalone="no"?>
<svg
   width="32"
   height="32"
   style="isolation:isolate"
   viewBox="541.937 521.772 32 32"
   version="1.1"
   id="svg1727"
   sodipodi:docname="keyboard.svg"
   inkscape:version="1.2.2 (b0a8486541, 2022-12-01)"
   xmlns:inkscape="http://www.inkscape.org/namespaces/inkscape"
   xmlns:sodipodi="http://sodipodi.sourceforge.net/DTD/sodipodi-0.dtd"
   xmlns="http://www.w3.org/2000/svg"
   xmlns:svg="http://www.w3.org/2000/svg">
  <defs
     id="defs1731" />
  <sodipodi:namedview
     id="namedview1729"
     pagecolor="#ffffff"
     bordercolor="#999999"
     borderopacity="1"
     inkscape:showpageshadow="0"
     inkscape:pageopacity="0"
     inkscape:pagecheckerboard="0"
     inkscape:deskcolor="#d1d1d1"
     inkscape:document-units="pt"
     showgrid="false"
     inkscape:zoom="5.53125"
     inkscape:cx="-5.5141243"
     inkscape:cy="21.423729"
     inkscape:window-width="2560"
     inkscape:window-height="1367"
     inkscape:window-x="0"
     inkscape:window-y="0"
     inkscape:window-maximized="1"
     inkscape:current-layer="svg1727" />
  <path
     fill="none"
     d="m 541.937,521.772 h 32 v 32 h -32 z"
     id="path1723" />
  <path
     fill-rule="evenodd"
     d="m 552.145,539.981 h 11.584 c 0.446,0 0.808,0.362 0.808,0.808 v 0.536 c 0,0.786 -0.639,1.425 -1.425,1.425 h -10.35 a 1.426,1.426 0 0 1 -1.425,-1.425 v -0.536 c 0,-0.446 0.362,-0.808 0.808,-0.808 z m -1.761,-3.511 h 0.899 c 0.536,0 0.971,0.435 0.971,0.971 v 0.899 a 0.971,0.971 0 0 1 -0.971,0.971 h -0.899 a 0.971,0.971 0 0 1 -0.971,-0.971 v -0.899 c 0,-0.536 0.435,-0.971 0.971,-0.971 z m 3.552,0 h 0.899 c 0.536,0 0.971,0.435 0.971,0.971 v 0.899 a 0.971,0.971 0 0 1 -0.971,0.971 h -0.899 a 0.972,0.972 0 0 1 -0.972,-0.971 v -0.899 c 0,-0.536 0.436,-0.971 0.972,-0.971 z m 3.551,0 h 0.9 c 0.536,0 0.971,0.435 0.971,0.971 v 0.899 a 0.971,0.971 0 0 1 -0.971,0.971 h -0.9 a 0.971,0.971 0 0 1 -0.971,-0.971 v -0.899 c 0,-0.536 0.435,-0.971 0.971,-0.971 z m 3.552,0 h 0.899 c 0.536,0 0.972,0.435 0.972,0.971 v 0.899 a 0.972,0.972 0 0 1 -0.972,0.971 h -0.899 a 0.971,0.971 0 0 1 -0.971,-0.971 v -0.899 c 0,-0.536 0.435,-0.971 0.971,-0.971 z m 3.552,0 h 0.899 c 0.536,0 0.971,0.435 0.971,0.971 v 0.899 a 0.971,0.971 0 0 1 -0.971,0.971 h -0.899 a 0.971,0.971 0 0 1 -0.971,-0.971 v -0.899 c 0,-0.536 0.435,-0.971 0.971,-0.971 z m -14.383,-3.512 h 1.25 c 0.44,0 0.796,0.357 0.796,0.796 v 1.25 a 0.796,0.796 0 0 1 -0.796,0.796 h -1.25 a 0.796,0.796 0 0 1 -0.795,-0.796 v -1.25 c 0,-0.439 0.356,-0.796 0.795,-0.796 z m 3.552,0 h 1.25 c 0.439,0 0.796,0.357 0.796,0.796 v 1.25 a 0.797,0.797 0 0 1 -0.796,0.796 h -1.25 a 0.797,0.797 0 0 1 -0.796,-0.796 v -1.25 c 0,-0.439 0.357,-0.796 0.796,-0.796 z m 3.552,0 h 1.25 c 0.439,0 0.796,0.357 0.796,0.796 v 1.25 a 0.797,0.797 0 0 1 -0.796,0.796 h -1.25 a 0.797,0.797 0 0 1 -0.796,-0.796 v -1.25 c 0,-0.439 0.357,-0.796 0.796,-0.796 z m 3.552,0 h 1.25 c 0.439,0 0.796,0.357 0.796,0.796 v 1.25 a 0.797,0.797 0 0 1 -0.796,0.796 h -1.25 a 0.797,0.797 0 0 1 -0.796,-0.796 v -1.25 c 0,-0.439 0.357,-0.796 0.796,-0.796 z m -9.553,-3.85 h 13.252 c 1.407,0 2.755,0.507 3.748,1.409 0.993,0.902 1.552,2.127 1.552,3.404 v 7.702 c 0,1.277 -0.559,2.501 -1.552,3.403 -0.993,0.902 -2.341,1.409 -3.748,1.409 h -13.252 c -1.407,0 -2.755,-0.507 -3.748,-1.409 -0.993,-0.902 -1.552,-2.126 -1.552,-3.403 v -7.702 c 0,-1.277 0.559,-2.502 1.552,-3.404 0.993,-0.902 2.341,-1.409 3.748,-1.409 z m 13.105,3.85 h 1.25 c 0.439,0 0.795,0.357 0.795,0.796 v 1.25 a 0.796,0.796 0 0 1 -0.795,0.796 h -1.25 a 0.796,0.796 0 0 1 -0.796,-0.796 v -1.25 c 0,-0.439 0.356,-0.796 0.796,-0.796 z"
     id="path1725" />
</svg>
