<svg xmlns="http://www.w3.org/2000/svg" width="32pt" height="32pt" style="isolation:isolate" viewBox="541.937 521.772 32 32"><path fill="none" d="M541.937 521.772h32v32h-32v-32Z"/><path fill-rule="evenodd" d="M552.145 539.981h11.584c.446 0 .808.362.808.808v.536c0 .786-.639 1.425-1.425 1.425h-10.35a1.426 1.426 0 0 1-1.425-1.425v-.536c0-.446.362-.808.808-.808Zm-1.761-3.511h.899c.536 0 .971.435.971.971v.899a.971.971 0 0 1-.971.971h-.899a.971.971 0 0 1-.971-.971v-.899c0-.536.435-.971.971-.971Zm3.552 0h.899c.536 0 .971.435.971.971v.899a.971.971 0 0 1-.971.971h-.899a.972.972 0 0 1-.972-.971v-.899c0-.536.436-.971.972-.971Zm3.551 0h.9c.536 0 .971.435.971.971v.899a.971.971 0 0 1-.971.971h-.9a.971.971 0 0 1-.971-.971v-.899c0-.536.435-.971.971-.971Zm3.552 0h.899c.536 0 .972.435.972.971v.899a.972.972 0 0 1-.972.971h-.899a.971.971 0 0 1-.971-.971v-.899c0-.536.435-.971.971-.971Zm3.552 0h.899c.536 0 .971.435.971.971v.899a.971.971 0 0 1-.971.971h-.899a.971.971 0 0 1-.971-.971v-.899c0-.536.435-.971.971-.971Zm-14.383-3.512h1.25c.44 0 .796.357.796.796v1.25a.796.796 0 0 1-.796.796h-1.25a.796.796 0 0 1-.795-.796v-1.25c0-.439.356-.796.795-.796Zm3.552 0h1.25c.439 0 .796.357.796.796v1.25a.797.797 0 0 1-.796.796h-1.25a.797.797 0 0 1-.796-.796v-1.25c0-.439.357-.796.796-.796Zm3.552 0h1.25c.439 0 .796.357.796.796v1.25a.797.797 0 0 1-.796.796h-1.25a.797.797 0 0 1-.796-.796v-1.25c0-.439.357-.796.796-.796Zm3.552 0h1.25c.439 0 .796.357.796.796v1.25a.797.797 0 0 1-.796.796h-1.25a.797.797 0 0 1-.796-.796v-1.25c0-.439.357-.796.796-.796Zm-9.553-3.85h13.252c1.407 0 2.755.507 3.748 1.409.993.902 1.552 2.127 1.552 3.404v7.702c0 1.277-.559 2.501-1.552 3.403-.993.902-2.341 1.409-3.748 1.409h-13.252c-1.407 0-2.755-.507-3.748-1.409-.993-.902-1.552-2.126-1.552-3.403v-7.702c0-1.277.559-2.502 1.552-3.404.993-.902 2.341-1.409 3.748-1.409Zm13.105 3.85h1.25c.439 0 .795.357.795.796v1.25a.796.796 0 0 1-.795.796h-1.25a.796.796 0 0 1-.796-.796v-1.25c0-.439.356-.796.796-.796Z"/></svg>