<?xml version="1.0" encoding="UTF-8" standalone="no"?>
<svg xmlns="http://www.w3.org/2000/svg" xmlns:xlink="http://www.w3.org/1999/xlink" style="isolation:isolate" viewBox="0 0 441 512" width="441" height="512"><path d=" M 220.499 479.926 C 146.447 479.926 83.836 426.197 72.646 361.796 C 72.055 358.392 68.857 356.32 65.509 357.17 L 14.826 370.049 C 3.107 373.027 -2.913 366.27 1.39 354.971 Q 28.017 285.06 89.046 223.063 C 119.908 191.711 130.922 163.755 132.637 116.735 C 134.352 69.715 173.064 32.074 220.499 32.074 L 220.499 32.074 C 267.934 32.074 306.648 69.715 308.363 116.735 C 310.078 163.755 321.092 191.711 351.954 223.063 Q 412.981 285.06 439.61 354.971 C 443.913 366.27 437.893 373.027 426.174 370.049 L 375.491 357.17 C 372.143 356.32 368.945 358.392 368.354 361.796 C 357.162 426.197 294.553 479.926 220.499 479.926 L 220.499 479.926 Z  M 220.499 228.25 L 220.499 228.25 C 218.908 228.299 217.318 227.912 216.106 227.137 L 165.194 194.559 C 158.87 190.555 157.95 182.93 163.143 177.539 C 168.337 172.151 192.44 165.269 220.499 165.269 L 220.499 165.269 C 248.56 165.269 272.661 172.151 277.855 177.539 C 283.048 182.93 282.13 190.555 275.806 194.559 L 224.894 227.137 C 223.68 227.912 222.09 228.299 220.499 228.25 L 220.499 228.25 L 220.499 228.25 Z  M 175.872 220.52 C 137.687 235.901 108.654 276.156 108.654 323.14 C 108.654 384.869 158.77 434.987 220.499 434.987 C 282.228 434.987 332.344 384.869 332.344 323.14 C 332.344 276.154 303.309 235.897 265.119 220.518 C 263.518 219.871 261.037 220.102 259.581 221.034 L 232.198 238.554 C 232.168 238.575 232.136 238.597 232.115 238.618 C 230.353 239.723 228.422 240.558 226.41 241.091 C 224.562 241.581 222.655 241.821 220.734 241.821 C 220.672 241.821 220.619 241.821 220.557 241.821 L 220.495 241.81 L 220.441 241.821 C 220.379 241.821 220.317 241.821 220.266 241.821 C 218.345 241.821 216.436 241.581 214.58 241.091 C 212.565 240.558 210.647 239.723 208.883 238.618 C 208.853 238.597 208.821 238.575 208.789 238.554 L 181.413 221.038 C 179.957 220.107 177.476 219.873 175.872 220.52 Z " fill-rule="evenodd" fill="rgb(255,255,255)"/></svg>
