<svg xmlns="http://www.w3.org/2000/svg" width="441" height="512" style="isolation:isolate"><path fill="#FFF" fill-rule="evenodd" d="M220.499 479.926c-74.052 0-136.663-53.729-147.853-118.13-.591-3.404-3.789-5.476-7.137-4.626l-50.683 12.879C3.107 373.027-2.913 366.27 1.39 354.971q26.627-69.911 87.656-131.908c30.862-31.352 41.876-59.308 43.591-106.328 1.715-47.02 40.427-84.661 87.862-84.661 47.435 0 86.149 37.641 87.864 84.661 1.715 47.02 12.729 74.976 43.591 106.328q61.027 61.997 87.656 131.908c4.303 11.299-1.717 18.056-13.436 15.078l-50.683-12.879c-3.348-.85-6.546 1.222-7.137 4.626-11.192 64.401-73.801 118.13-147.855 118.13Zm0-251.676c-1.591.049-3.181-.338-4.393-1.113l-50.912-32.578c-6.324-4.004-7.244-11.629-2.051-17.02 5.194-5.388 29.297-12.27 57.356-12.27 28.061 0 52.162 6.882 57.356 12.27 5.193 5.391 4.275 13.016-2.049 17.02l-50.912 32.578c-1.214.775-2.804 1.162-4.395 1.113Zm-44.627-7.73c-38.185 15.381-67.218 55.636-67.218 102.62 0 61.729 50.116 111.847 111.845 111.847s111.845-50.118 111.845-111.847c0-46.986-29.035-87.243-67.225-102.622-1.601-.647-4.082-.416-5.538.516l-27.383 17.52c-.03.021-.062.043-.083.064a20.762 20.762 0 0 1-5.705 2.473c-1.848.49-3.755.73-5.676.73h-.177l-.062-.011-.054.011h-.175c-1.921 0-3.83-.24-5.686-.73a20.7 20.7 0 0 1-5.697-2.473 3.83 3.83 0 0 0-.094-.064l-27.376-17.516c-1.456-.931-3.937-1.165-5.541-.518Z"/></svg>