<svg viewBox="0 0 256 256">
<g transform="translate(0 256) scale(.1 -.1)" fill="white">
<path d="m1215 2537c-140-37-242-135-286-278-23-75-23-131 1-383l18-200-54-60c-203-224-383-615-384-831v-51l-66-43c-113-75-194-199-194-300 0-110 99-234 244-305 103-50 185-69 296-69 100 0 156 14 211 54 26 18 35 19 78 10 86-18 233-24 335-12 85 10 222 38 269 56 9 4 19-7 29-35 20-50 52-64 136-57 98 8 180 52 282 156 124 125 180 244 180 380 0 80-28 142-79 179l-36 26 4 119c5 175-22 292-105 460-74 149-142 246-286 409-43 49-78 92-78 97 0 4-7 52-15 107-8 54-19 140-24 189-13 121-41 192-103 260-95 104-248 154-373 122zm172-112c62-19 134-80 163-140 15-31 28-92 41-193 27-214 38-276 57-304 9-14 59-74 111-134 92-106 191-246 236-334 69-137 115-339 101-451l-7-55-71 10c-100 13-234-5-265-36-54-55-85-207-82-412l1-141-51-17c-104-34-245-51-380-45-69 3-142 10-162 16-32 10-37 17-53 68-23 72-87 201-136 273-80 117-158 188-237 215-37 13-37 13-34 61 13 211 182 555 373 759 57 62 58 63 58 121 0 33-9 149-19 259-21 224-18 266 26 347 67 122 193 174 330 133zm687-1720c32-9 71-25 87-36 60-42 59-151-4-274-59-119-221-250-317-257-34-3-35-2-48 47-18 65-20 329-3 413 16 83 29 110 55 115 51 10 177 6 230-8zm-1418-80c79-46 187-195 247-340 41-99 43-121 12-141-39-25-148-30-238-10-142 32-264 112-307 202-20 41-21 50-10 87 24 83 102 166 192 207 54 25 53 25 104-5z"/>
<path d="m1395 1945c-92-16-220-52-256-70-28-15-29-18-29-89 0-247 165-397 345-312 60 28 77 46 106 111 54 123 0 378-80 374-9 0-47-7-86-14zm74-156c15-69 14-112-5-159s-55-70-111-70c-48 0-78 20-102 68-15 29-41 131-41 159 0 9 230 63 242 57 3-2 11-27 17-55z"/>
</g>
</svg>
