<?xml version="1.0" encoding="utf-8"?>
<svg width="26px" height="26px" viewBox="0 0 26 26" version="1.1" xmlns:xlink="http://www.w3.org/1999/xlink" xmlns="http://www.w3.org/2000/svg">
  <defs>
    <linearGradient gradientUnits="objectBoundingBox" x1="1.0605338" y1="1.4108065" x2="1.765604" y2="0.70493484" id="gradient_1">
      <stop offset="0%" stop-color="#0071FF" />
      <stop offset="100%" stop-color="#00BFE1" />
    </linearGradient>
    <path d="M26 0L26 0L26 26L0 26L0 0L26 0Z" id="path_1" />
    <clipPath id="clip_1">
      <use xlink:href="#path_1" clip-rule="evenodd" fill-rule="evenodd" />
    </clipPath>
  </defs>
  <g id="logo">
    <path d="M26 0L26 0L26 26L0 26L0 0L26 0Z" id="logo" fill="none" stroke="none" />
    <path d="M22.325 6.06799L20.19 8.19C19.814 8.52698 19.632 9.06903 19.843 9.52698C21.265 12.503 20.725 16.051 18.391 18.383C16.056 20.714 12.504 21.253 9.525 19.832C9.086 19.6349 8.571 19.8019 8.233 20.144L6.063 22.311C5.80868 22.5602 5.6837 22.913 5.72436 23.2668C5.76501 23.6206 5.96676 23.9359 6.27101 24.121C11.3838 27.2147 17.9469 26.426 22.181 22.209C26.4128 17.9952 27.2203 11.4365 24.137 6.32202C23.9602 6.01038 23.6485 5.79852 23.2936 5.74878C22.9387 5.69904 22.5808 5.81696 22.325 6.06799L22.325 6.06799ZM3.858 3.763C-0.394104 7.96051 -1.22822 14.5199 1.83801 19.648C2.01488 19.9597 2.32654 20.1715 2.68144 20.2213C3.03635 20.271 3.39423 20.1531 3.65 19.902L5.774 17.7921C6.159 17.4561 6.346 16.9081 6.133 16.444C4.71001 13.468 5.249 9.92004 7.584 7.58801C9.918 5.25604 13.471 4.71704 16.45 6.138C16.884 6.33197 17.392 6.17102 17.731 5.83801L19.913 3.65802C20.1681 3.40912 20.2936 3.05615 20.2529 2.70203C20.2122 2.34796 20.0099 2.03265 19.705 1.84802C14.5823 -1.21954 8.02908 -0.406006 3.81198 3.82105L3.858 3.763Z" id="Forme" fill="url(#gradient_1)" fill-rule="evenodd" stroke="none" clip-path="url(#clip_1)" />
    <path d="M22.325 6.06799L20.19 8.19C19.814 8.52698 19.632 9.06903 19.843 9.52698C21.265 12.503 20.725 16.051 18.391 18.383C16.056 20.714 12.504 21.253 9.525 19.832C9.086 19.6349 8.571 19.8019 8.233 20.144L6.063 22.311C5.80868 22.5602 5.6837 22.913 5.72436 23.2668C5.76501 23.6206 5.96676 23.9359 6.27101 24.121C11.3838 27.2147 17.9469 26.426 22.181 22.209C26.4128 17.9952 27.2203 11.4365 24.137 6.32202C23.9602 6.01038 23.6485 5.79852 23.2936 5.74878C22.9387 5.69904 22.5808 5.81696 22.325 6.06799L22.325 6.06799ZM3.858 3.763C-0.394104 7.96051 -1.22822 14.5199 1.83801 19.648C2.01488 19.9597 2.32654 20.1715 2.68144 20.2213C3.03635 20.271 3.39423 20.1531 3.65 19.902L5.774 17.7921C6.159 17.4561 6.346 16.9081 6.133 16.444C4.71001 13.468 5.249 9.92004 7.584 7.58801C9.918 5.25604 13.471 4.71704 16.45 6.138C16.884 6.33197 17.392 6.17102 17.731 5.83801L19.913 3.65802C20.1681 3.40912 20.2936 3.05615 20.2529 2.70203C20.2122 2.34796 20.0099 2.03265 19.705 1.84802C14.5823 -1.21954 8.02908 -0.406006 3.81198 3.82105L3.858 3.763Z" id="Forme" fill="url(#gradient_1)" fill-rule="evenodd" stroke="none" clip-path="url(#clip_1)" />
    <path d="M4 13C4 8.02944 8.02944 4 13 4C17.9706 4 22 8.02944 22 13C22 17.9706 17.9706 22 13 22C8.02944 22 4 17.9706 4 13Z" id="Ovale" fill="#EA1414" fill-rule="evenodd" stroke="none" clip-path="url(#clip_1)" />
    <path d="M4 13C4 8.02944 8.02944 4 13 4C17.9706 4 22 8.02944 22 13C22 17.9706 17.9706 22 13 22C8.02944 22 4 17.9706 4 13Z" id="Ovale" fill="#EA1414" fill-rule="evenodd" stroke="none" clip-path="url(#clip_1)" />
    <path d="M-0.300003 26L23.5 2.5" id="Flèche" fill="none" fill-rule="evenodd" stroke="#3532DF" stroke-width="3" clip-path="url(#clip_1)" />
    <path d="M-0.300003 26L23.5 2.5" id="Flèche" fill="none" fill-rule="evenodd" stroke="#3532DF" stroke-width="3" clip-path="url(#clip_1)" />
  </g>
</svg>