<svg xmlns="http://www.w3.org/2000/svg" width="293.333" height="98.667" version="1.0" viewBox="0 0 220 74"><path fill="#fff" d="M62.7.6c-.4.4-.7 16.5-.7 35.9 0 26 .3 35.4 1.2 36.3 1.3 1.3 8.5 1.6 11.2.6 1.3-.5 1.6-2.4 1.6-10 0-13.3.7-13.3 13.8-.1L100.3 74h6.7c11.5 0 11.3-1-2.8-15.4-6.7-6.7-12.2-13-12.2-13.9 0-1 3.7-5.8 8.3-10.8 13.3-14.7 13.3-14.9 2.4-14.9h-7.2l-7.9 8.6c-4.8 5.2-8.5 8.4-9.5 8.2-1.4-.3-1.7-2.7-2.1-17.8L75.5.5l-6-.3c-3.4-.2-6.4 0-6.8.4zm55.7.7c-.3.8-.4 12.7-.2 26.4l.3 25 3 5.8c5 9.8 16.3 16.5 26 15.3 2.8-.3 3-.6 3.3-4.7.5-7.5-.3-9.1-4.6-9.1-5 0-10.2-2.9-12.4-7.1-2.1-4-2.6-17.7-.6-19.7.7-.7 4.2-1.2 8.5-1.2h7.3V19h-7.2c-4 0-7.8-.4-8.5-.8-.7-.5-1.3-4-1.5-9.2l-.3-8.5-6.3-.3c-4.7-.2-6.4.1-6.8 1.1zm-99.9 19C6.6 25.1.6 33.6.6 46c-.1 6.2.4 8.4 2.6 12.5 5.2 9.9 13.4 14.9 24.3 14.8 8.2 0 12.8-1.8 18.6-7 5.4-4.9 8.1-10.4 8.7-17.9.8-11-4.1-20.5-13.5-26.1-3.7-2.1-6.1-2.7-12.2-3-4.5-.1-8.9.2-10.6 1zm15.2 13.6c7 3.2 9.6 11.7 5.9 18.9-3.4 6.6-11.2 8.9-18.3 5.5-10-4.7-9.5-19.4.7-24.5 4.4-2.3 6.5-2.2 11.7.1zm137.6-13.2c-5.1 1.8-12.2 8.3-14.7 13.7-4.5 9.6-2.7 21.8 4.5 29.9 5.6 6.4 11.7 9.1 20.4 9.1 5.9 0 7.9-.4 12.8-3.1 3.1-1.7 5.7-2.7 5.7-2.3 0 .5 1.5 1.8 3.4 2.9 4.2 2.7 11.6 3.7 14.5 2.2 1.9-1.1 2.2-1.9 1.9-6.9-.3-5.5-.4-5.6-3.8-6.5-6.3-1.6-6.4-1.9-7-22l-.5-18.2-6.3-.3c-4.6-.2-6.4.1-6.8 1.1-.4 1.2-1.1 1.2-4.2.1-4.9-1.7-14.7-1.6-19.9.3zm15 12.7c5.4 2.2 8.7 7 8.7 12.4 0 10.9-9.3 17-19.5 12.8-7.5-3.2-10.1-14.4-4.8-20.7 2.7-3.2 7.4-5.8 10.6-5.9 1 0 3.2.6 5 1.4z"/></svg>