<?xml version="1.0" standalone="no"?>
<!DOCTYPE svg PUBLIC "-//W3C//DTD SVG 20010904//EN"
 "http://www.w3.org/TR/2001/REC-SVG-20010904/DTD/svg10.dtd">
<svg version="1.0" xmlns="http://www.w3.org/2000/svg"
 width="220.000000pt" height="74.000000pt" viewBox="0 0 220.000000 74.000000"
 preserveAspectRatio="xMidYMid meet">

<g transform="translate(0.000000,74.000000) scale(0.100000,-0.100000)"
fill="#000000" stroke="none">
<path d="M627 734 c-4 -4 -7 -165 -7 -359 0 -260 3 -354 12 -363 13 -13 85
-16 112 -6 13 5 16 24 16 100 0 133 7 133 138 1 l105 -107 67 0 c115 0 113 10
-28 154 -67 67 -122 130 -122 139 0 10 37 58 83 108 133 147 133 149 24 149
l-72 0 -79 -86 c-48 -52 -85 -84 -95 -82 -14 3 -17 27 -21 178 l-5 175 -60 3
c-34 2 -64 0 -68 -4z"/>
<path d="M1184 727 c-3 -8 -4 -127 -2 -264 l3 -250 30 -58 c50 -98 163 -165
260 -153 28 3 30 6 33 47 5 75 -3 91 -46 91 -50 0 -102 29 -124 71 -21 40 -26
177 -6 197 7 7 42 12 85 12 l73 0 0 65 0 65 -72 0 c-40 0 -78 4 -85 8 -7 5
-13 40 -15 92 l-3 85 -63 3 c-47 2 -64 -1 -68 -11z"/>
<path d="M185 537 c-119 -48 -179 -133 -179 -257 -1 -62 4 -84 26 -125 52 -99
134 -149 243 -148 82 0 128 18 186 70 54 49 81 104 87 179 8 110 -41 205 -135
261 -37 21 -61 27 -122 30 -45 1 -89 -2 -106 -10z m152 -136 c70 -32 96 -117
59 -189 -34 -66 -112 -89 -183 -55 -100 47 -95 194 7 245 44 23 65 22 117 -1z"/>
<path d="M1713 533 c-51 -18 -122 -83 -147 -137 -45 -96 -27 -218 45 -299 56
-64 117 -91 204 -91 59 0 79 4 128 31 31 17 57 27 57 23 0 -5 15 -18 34 -29
42 -27 116 -37 145 -22 19 11 22 19 19 69 -3 55 -4 56 -38 65 -63 16 -64 19
-70 220 l-5 182 -63 3 c-46 2 -64 -1 -68 -11 -4 -12 -11 -12 -42 -1 -49 17
-147 16 -199 -3z m150 -127 c54 -22 87 -70 87 -124 0 -109 -93 -170 -195 -128
-75 32 -101 144 -48 207 27 32 74 58 106 59 10 0 32 -6 50 -14z"/>
</g>
</svg>
