<?xml version="1.0" encoding="UTF-8" standalone="no"?>
<svg xmlns="http://www.w3.org/2000/svg" xmlns:xlink="http://www.w3.org/1999/xlink" style="isolation:isolate" viewBox="358.441 560.459 32 32" width="32pt" height="32pt"><g><path d=" M 358.441 560.459 L 390.441 560.459 L 390.441 592.459 L 358.441 592.459 L 358.441 560.459 Z " fill="none"/><path d=" M 371.985 579.94 L 366.794 585.131 C 366.512 585.413 366.052 585.413 365.769 585.131 L 365.769 585.131 C 365.486 584.848 365.486 584.388 365.769 584.105 L 370.96 578.915 L 368.627 576.582 C 367.495 575.451 367.872 574.43 369.468 574.305 L 370.917 574.191 C 371.316 574.159 371.869 573.904 372.152 573.621 L 375.061 570.713 C 375.344 570.43 375.343 569.971 375.061 569.688 L 374.804 569.431 C 374.38 569.007 374.38 568.318 374.804 567.893 L 374.804 567.893 C 375.229 567.469 375.918 567.469 376.342 567.893 L 383.006 574.558 C 383.431 574.982 383.431 575.671 383.006 576.095 L 383.006 576.095 C 382.582 576.52 381.893 576.52 381.468 576.095 L 381.212 575.839 C 380.929 575.556 380.47 575.556 380.187 575.839 L 377.279 578.747 C 376.996 579.03 376.741 579.584 376.709 579.983 L 376.595 581.432 C 376.47 583.028 375.449 583.404 374.317 582.273 L 371.985 579.94 Z " fill="rgb(0,0,0)"/></g></svg>