<?xml version="1.0" encoding="UTF-8" standalone="no"?>
<svg
   width="32"
   height="32"
   style="isolation:isolate"
   viewBox="358.441 560.459 32 32"
   version="1.1"
   id="svg1859"
   sodipodi:docname="pinned.svg"
   inkscape:version="1.2.2 (b0a8486541, 2022-12-01)"
   xmlns:inkscape="http://www.inkscape.org/namespaces/inkscape"
   xmlns:sodipodi="http://sodipodi.sourceforge.net/DTD/sodipodi-0.dtd"
   xmlns="http://www.w3.org/2000/svg"
   xmlns:svg="http://www.w3.org/2000/svg">
  <defs
     id="defs1863" />
  <sodipodi:namedview
     id="namedview1861"
     pagecolor="#ffffff"
     bordercolor="#999999"
     borderopacity="1"
     inkscape:showpageshadow="0"
     inkscape:pageopacity="0"
     inkscape:pagecheckerboard="0"
     inkscape:deskcolor="#d1d1d1"
     inkscape:document-units="pt"
     showgrid="false"
     inkscape:zoom="5.53125"
     inkscape:cx="-12.745763"
     inkscape:cy="21.423729"
     inkscape:window-width="2560"
     inkscape:window-height="1367"
     inkscape:window-x="0"
     inkscape:window-y="0"
     inkscape:window-maximized="1"
     inkscape:current-layer="svg1859" />
  <path
     fill="none"
     d="m 358.441,560.459 h 32 v 32 h -32 z"
     id="path1855" />
  <path
     d="m 371.985,579.94 -5.191,5.191 a 0.726,0.726 0 0 1 -1.025,-1.026 l 5.191,-5.19 -2.333,-2.333 c -1.132,-1.131 -0.755,-2.152 0.841,-2.277 l 1.449,-0.114 c 0.399,-0.032 0.952,-0.287 1.235,-0.57 l 2.909,-2.908 a 0.726,0.726 0 0 0 0,-1.025 l -0.257,-0.257 a 1.089,1.089 0 0 1 0,-1.538 1.089,1.089 0 0 1 1.538,0 l 6.664,6.665 a 1.0871767,1.0871767 0 1 1 -1.538,1.537 l -0.256,-0.256 a 0.725,0.725 0 0 0 -1.025,0 l -2.908,2.908 c -0.283,0.283 -0.538,0.837 -0.57,1.236 l -0.114,1.449 c -0.125,1.596 -1.146,1.972 -2.278,0.841 z"
     id="path1857" />
</svg>
