<?xml version="1.0" encoding="UTF-8" standalone="no"?>
<svg xmlns="http://www.w3.org/2000/svg" xmlns:xlink="http://www.w3.org/1999/xlink" style="isolation:isolate" viewBox="313.733 536.93 32.551 32" width="32.551pt" height="32pt"><path d=" M 320.258 536.93 L 339.76 536.93 C 341.485 536.93 343.145 537.619 344.37 538.844 C 345.596 540.062 346.284 541.722 346.284 543.455 L 346.284 562.405 C 346.284 564.138 345.596 565.798 344.37 567.016 C 343.145 568.241 341.485 568.93 339.76 568.93 L 320.258 568.93 C 318.533 568.93 316.872 568.241 315.647 567.016 C 314.422 565.798 313.733 564.138 313.733 562.405 L 313.733 543.455 C 313.733 541.722 314.422 540.062 315.647 538.844 C 316.872 537.619 318.533 536.93 320.258 536.93 Z  M 327.553 556.411 L 322.362 561.602 C 322.08 561.885 321.62 561.885 321.337 561.602 L 321.337 561.602 C 321.054 561.319 321.054 560.859 321.337 560.576 L 326.528 555.386 L 324.195 553.054 C 323.063 551.922 323.44 550.901 325.036 550.776 L 326.485 550.662 C 326.884 550.63 327.437 550.375 327.72 550.092 L 330.629 547.184 C 330.912 546.901 330.912 546.442 330.629 546.159 L 330.372 545.902 C 329.948 545.478 329.948 544.789 330.372 544.364 L 330.372 544.364 C 330.797 543.94 331.486 543.94 331.91 544.364 L 338.574 551.029 C 338.999 551.453 338.999 552.142 338.574 552.567 L 338.574 552.567 C 338.15 552.991 337.461 552.991 337.036 552.567 L 336.78 552.31 C 336.497 552.027 336.038 552.027 335.755 552.31 L 332.847 555.218 C 332.564 555.501 332.309 556.055 332.277 556.454 L 332.163 557.903 C 332.038 559.499 331.017 559.875 329.885 558.744 L 327.553 556.411 Z " fill-rule="evenodd" fill="rgb(0,113,255)"/></svg>