<svg xmlns="http://www.w3.org/2000/svg" width="32pt" height="32pt" style="isolation:isolate" viewBox="358.441 560.459 32 32"><path fill="none" d="M358.441 560.459h32v32h-32v-32Z"/><path d="m371.985 579.94-5.191 5.191a.726.726 0 0 1-1.025-1.026l5.191-5.19-2.333-2.333c-1.132-1.131-.755-2.152.841-2.277l1.449-.114c.399-.032.952-.287 1.235-.57l2.909-2.908a.726.726 0 0 0 0-1.025l-.257-.257a1.089 1.089 0 0 1 0-1.538 1.089 1.089 0 0 1 1.538 0l6.664 6.665a1.087 1.087 0 1 1-1.538 1.537l-.256-.256a.725.725 0 0 0-1.025 0l-2.908 2.908c-.283.283-.538.837-.57 1.236l-.114 1.449c-.125 1.596-1.146 1.972-2.278.841l-2.332-2.333Z"/></svg>