<svg xmlns="http://www.w3.org/2000/svg" width="32" height="32" style="isolation:isolate" viewBox="633.685 521.772 32 32"><path fill="none" d="M633.685 521.772h32v32h-32v-32Z"/><path fill-rule="evenodd" d="M638.136 537.772a2.972 2.972 0 0 1 2.97-2.97 2.972 2.972 0 0 1 2.97 2.97 2.972 2.972 0 0 1-2.97 2.97 2.972 2.972 0 0 1-2.97-2.97Zm17.155 3.24a.818.818 0 0 0 .283-.052.693.693 0 0 0 .243-.15.603.603 0 0 0 .161-.243.743.743 0 0 0 0-.566.681.681 0 0 0-.408-.383.799.799 0 0 0-.279-.048h-2.575v-1.103h1.743a.844.844 0 0 0 .284-.052.69.69 0 0 0 .404-.389.728.728 0 0 0 0-.56.689.689 0 0 0-.404-.389.844.844 0 0 0-.284-.052h-1.743v-1.052h2.575a.777.777 0 0 0 .522-.195.687.687 0 0 0 .22-.518.74.74 0 0 0-.055-.283.603.603 0 0 0-.161-.243.696.696 0 0 0-.243-.151.841.841 0 0 0-.283-.051h-3.325a.74.74 0 0 0-.283.055.76.76 0 0 0-.247.154.734.734 0 0 0-.221.541v4.98a.764.764 0 0 0 .217.533.74.74 0 0 0 .534.217h3.325Zm5.921-5.447a.6.6 0 0 0-.037-.118 1.013 1.013 0 0 0-.062-.106.635.635 0 0 0-.077-.096l-.089-.077a3.669 3.669 0 0 0-.474-.327 2.477 2.477 0 0 0-.934-.335 3.834 3.834 0 0 0-.615-.048c-.224 0-.445.022-.665.066a2.863 2.863 0 0 0-.6.195 3.578 3.578 0 0 0-.548.305 3.12 3.12 0 0 0-.471.405 3.15 3.15 0 0 0-.386.485 3.245 3.245 0 0 0-.474 1.177 3.757 3.757 0 0 0 0 1.357c.04.214.099.42.18.618.081.199.18.39.294.57.114.173.243.339.386.486.144.151.302.287.475.405.173.117.357.22.548.305.195.084.397.147.607.187a3.247 3.247 0 0 0 1.732-.117c.169-.059.331-.136.489-.225a3.26 3.26 0 0 0 .478-.323.795.795 0 0 0 .184-.261.673.673 0 0 0 .059-.287.782.782 0 0 0-.048-.273.594.594 0 0 0-.143-.235.712.712 0 0 0-.449-.217.816.816 0 0 0-.511.155 2.906 2.906 0 0 1-.283.183 2.476 2.476 0 0 1-.276.129 1.593 1.593 0 0 1-.578.103 1.598 1.598 0 0 1-.96-.309 1.866 1.866 0 0 1-.639-.831 2.052 2.052 0 0 1-.1-1.133c.022-.117.055-.235.1-.345a1.832 1.832 0 0 1 .937-1.005 1.538 1.538 0 0 1 .662-.143 2.6 2.6 0 0 1 .412.033.786.786 0 0 1 .21.063 1.702 1.702 0 0 1 .474.305c.078.062.166.11.258.14a.65.65 0 0 0 .279.036.8.8 0 0 0 .247-.062.728.728 0 0 0 .375-.368.671.671 0 0 0 .055-.272c0-.033 0-.066-.004-.103a.747.747 0 0 0-.018-.092Zm-12.972 3.233h-.555v1.464a.762.762 0 0 1-.055.283.764.764 0 0 1-.155.246.748.748 0 0 1-.246.166.816.816 0 0 1-.295.055.758.758 0 0 1-.533-.217.737.737 0 0 1-.217-.533v-4.98c0-.099.019-.199.055-.294a.752.752 0 0 1 .166-.247.745.745 0 0 1 .246-.154.746.746 0 0 1 .283-.055h1.324c.21 0 .416.025.622.073.184.044.364.11.533.202.166.092.32.206.46.335a2.013 2.013 0 0 1 .559.956c.052.199.077.405.077.611 0 .195-.025.39-.077.577-.048.177-.121.35-.217.504a2.019 2.019 0 0 1-.504.555l.889 1.539a.758.758 0 0 1 .094.273.766.766 0 0 1-.011.29.74.74 0 0 1-.358.462.775.775 0 0 1-.57.078.73.73 0 0 1-.264-.132.78.78 0 0 1-.191-.221l-1.06-1.836Zm.018-2.825c.081 0 .166.011.247.03a.7.7 0 0 1 .438.32.662.662 0 0 1 .066.165c.018.07.029.147.029.221a.602.602 0 0 1-.088.327.579.579 0 0 1-.107.129.94.94 0 0 1-.154.103.93.93 0 0 1-.431.088h-.573v-1.383h.573Z"/></svg>