<?xml version="1.0" encoding="UTF-8" standalone="no"?>
<svg xmlns="http://www.w3.org/2000/svg" xmlns:xlink="http://www.w3.org/1999/xlink" style="isolation:isolate" viewBox="622.829 536.93 32.551 32" width="32.551pt" height="32pt"><path d=" M 629.353 536.93 L 648.855 536.93 C 650.58 536.93 652.24 537.619 653.466 538.844 C 654.691 540.062 655.38 541.722 655.38 543.455 L 655.38 562.405 C 655.38 564.138 654.691 565.798 653.466 567.016 C 652.24 568.241 650.58 568.93 648.855 568.93 L 629.353 568.93 C 627.628 568.93 625.968 568.241 624.742 567.016 C 623.517 565.798 622.829 564.138 622.829 562.405 L 622.829 543.455 C 622.829 541.722 623.517 540.062 624.742 538.844 C 625.968 537.619 627.628 536.93 629.353 536.93 Z  M 627.555 552.93 C 627.555 551.291 628.886 549.96 630.525 549.96 C 632.164 549.96 633.495 551.291 633.495 552.93 C 633.495 554.569 632.164 555.9 630.525 555.9 C 628.886 555.9 627.555 554.569 627.555 552.93 L 627.555 552.93 Z  M 644.71 556.17 C 644.805 556.17 644.901 556.152 644.993 556.119 C 645.085 556.086 645.166 556.034 645.235 555.968 C 645.309 555.902 645.364 555.817 645.397 555.725 C 645.434 555.637 645.452 555.538 645.452 555.442 C 645.452 555.346 645.434 555.251 645.397 555.159 C 645.361 555.071 645.302 554.99 645.232 554.923 C 645.162 554.857 645.081 554.809 644.989 554.776 C 644.901 554.743 644.805 554.728 644.71 554.728 L 642.135 554.728 L 642.135 553.625 L 643.878 553.625 C 643.974 553.625 644.07 553.607 644.162 553.574 C 644.253 553.541 644.334 553.489 644.404 553.423 C 644.474 553.357 644.529 553.276 644.566 553.184 C 644.603 553.096 644.621 553 644.621 552.904 C 644.621 552.809 644.603 552.713 644.566 552.625 C 644.529 552.533 644.474 552.452 644.404 552.386 C 644.334 552.319 644.253 552.268 644.162 552.235 C 644.07 552.202 643.974 552.183 643.878 552.183 L 642.135 552.183 L 642.135 551.132 L 644.71 551.132 C 644.805 551.132 644.901 551.117 644.989 551.084 C 645.081 551.051 645.162 551.003 645.232 550.937 C 645.302 550.87 645.361 550.789 645.397 550.701 C 645.434 550.609 645.452 550.514 645.452 550.418 C 645.452 550.322 645.434 550.223 645.397 550.135 C 645.364 550.043 645.309 549.958 645.235 549.892 C 645.166 549.826 645.085 549.774 644.993 549.741 C 644.901 549.708 644.805 549.69 644.71 549.69 L 641.385 549.69 C 641.289 549.69 641.19 549.708 641.102 549.745 C 641.01 549.778 640.929 549.833 640.855 549.899 C 640.785 549.969 640.726 550.054 640.69 550.146 C 640.653 550.241 640.634 550.341 640.634 550.44 L 640.634 555.42 C 640.634 555.519 640.653 555.615 640.69 555.707 C 640.726 555.799 640.782 555.883 640.851 555.953 C 640.921 556.023 641.006 556.078 641.098 556.115 C 641.19 556.152 641.285 556.17 641.385 556.17 L 644.71 556.17 L 644.71 556.17 Z  M 650.631 550.723 C 650.624 550.683 650.609 550.642 650.594 550.606 C 650.576 550.569 650.554 550.532 650.532 550.499 C 650.51 550.466 650.484 550.433 650.454 550.403 C 650.425 550.378 650.396 550.352 650.366 550.326 C 650.215 550.205 650.057 550.094 649.892 549.999 C 649.748 549.914 649.597 549.841 649.443 549.785 C 649.285 549.73 649.123 549.686 648.958 549.664 C 648.755 549.631 648.549 549.616 648.343 549.616 C 648.119 549.616 647.898 549.638 647.678 549.682 C 647.472 549.727 647.269 549.789 647.078 549.877 C 646.887 549.962 646.703 550.065 646.53 550.183 C 646.361 550.3 646.203 550.436 646.059 550.587 C 645.916 550.734 645.787 550.896 645.673 551.073 C 645.559 551.249 645.46 551.44 645.379 551.635 C 645.298 551.834 645.239 552.04 645.199 552.25 C 645.158 552.474 645.136 552.698 645.136 552.926 C 645.136 553.154 645.158 553.382 645.199 553.607 C 645.239 553.82 645.298 554.026 645.379 554.225 C 645.46 554.423 645.559 554.614 645.673 554.795 C 645.787 554.968 645.916 555.133 646.059 555.28 C 646.203 555.431 646.361 555.567 646.534 555.685 C 646.707 555.802 646.891 555.905 647.082 555.99 C 647.277 556.075 647.479 556.137 647.689 556.178 C 647.902 556.222 648.123 556.244 648.343 556.244 C 648.531 556.244 648.715 556.229 648.899 556.196 C 649.075 556.167 649.252 556.122 649.421 556.06 C 649.59 556.001 649.752 555.924 649.91 555.836 C 650.079 555.744 650.237 555.633 650.388 555.512 C 650.432 555.471 650.469 555.427 650.502 555.379 C 650.528 555.339 650.554 555.295 650.572 555.251 C 650.591 555.207 650.605 555.159 650.616 555.111 C 650.627 555.063 650.631 555.012 650.631 554.964 C 650.631 554.872 650.616 554.78 650.583 554.692 C 650.554 554.603 650.506 554.523 650.44 554.456 C 650.381 554.394 650.311 554.342 650.234 554.306 C 650.157 554.269 650.076 554.247 649.991 554.239 C 649.899 554.232 649.807 554.243 649.723 554.272 C 649.634 554.298 649.553 554.342 649.48 554.394 C 649.388 554.46 649.296 554.523 649.197 554.578 C 649.108 554.625 649.016 554.67 648.921 554.706 C 648.832 554.74 648.741 554.765 648.645 554.784 C 648.546 554.802 648.446 554.809 648.343 554.809 C 648.226 554.809 648.108 554.798 647.994 554.773 C 647.887 554.751 647.781 554.714 647.678 554.67 C 647.575 554.622 647.475 554.567 647.383 554.5 C 647.288 554.431 647.199 554.353 647.122 554.269 C 647.041 554.184 646.971 554.092 646.909 553.997 C 646.843 553.894 646.788 553.783 646.743 553.669 C 646.699 553.559 646.666 553.441 646.644 553.324 C 646.618 553.191 646.607 553.059 646.607 552.926 C 646.607 552.798 646.618 552.665 646.644 552.536 C 646.666 552.419 646.699 552.301 646.743 552.191 C 646.788 552.077 646.843 551.966 646.909 551.863 C 646.971 551.768 647.041 551.676 647.122 551.591 C 647.203 551.503 647.288 551.429 647.383 551.36 C 647.475 551.293 647.575 551.234 647.681 551.187 C 647.781 551.139 647.887 551.102 647.998 551.08 C 648.112 551.054 648.226 551.043 648.343 551.043 C 648.479 551.043 648.619 551.054 648.755 551.076 C 648.829 551.087 648.899 551.109 648.965 551.139 C 649.046 551.172 649.119 551.212 649.189 551.257 C 649.278 551.312 649.362 551.374 649.439 551.444 C 649.517 551.507 649.605 551.554 649.697 551.584 C 649.789 551.617 649.881 551.628 649.976 551.621 C 650.061 551.613 650.145 551.591 650.223 551.558 C 650.3 551.525 650.374 551.477 650.436 551.418 C 650.506 551.356 650.561 551.279 650.598 551.19 C 650.635 551.106 650.653 551.014 650.653 550.918 C 650.653 550.885 650.653 550.852 650.649 550.815 C 650.646 550.786 650.638 550.753 650.631 550.723 L 650.631 550.723 Z  M 637.677 551.131 C 637.758 551.131 637.843 551.143 637.924 551.161 C 637.983 551.176 638.042 551.198 638.097 551.227 C 638.152 551.257 638.203 551.293 638.248 551.337 C 638.292 551.378 638.328 551.426 638.362 551.481 C 638.391 551.532 638.413 551.588 638.428 551.646 C 638.446 551.716 638.457 551.794 638.457 551.867 C 638.457 551.93 638.45 551.992 638.431 552.051 C 638.417 552.102 638.395 552.15 638.369 552.194 C 638.339 552.242 638.303 552.286 638.262 552.323 C 638.214 552.364 638.163 552.397 638.108 552.426 C 638.053 552.452 637.99 552.474 637.931 552.489 C 637.847 552.507 637.762 552.514 637.677 552.514 L 637.104 552.514 L 637.104 551.131 L 637.677 551.131 L 637.677 551.131 Z  M 637.659 553.956 L 637.104 553.956 L 637.104 555.42 C 637.104 555.516 637.085 555.615 637.049 555.703 C 637.015 555.795 636.96 555.876 636.894 555.95 C 636.824 556.019 636.74 556.078 636.648 556.115 C 636.552 556.152 636.453 556.17 636.353 556.17 C 636.254 556.17 636.158 556.152 636.067 556.115 C 635.975 556.078 635.89 556.023 635.82 555.953 C 635.75 555.883 635.695 555.799 635.658 555.707 C 635.622 555.615 635.603 555.519 635.603 555.42 L 635.603 550.44 C 635.603 550.341 635.622 550.241 635.658 550.146 C 635.695 550.054 635.754 549.969 635.824 549.899 C 635.897 549.833 635.978 549.778 636.07 549.745 C 636.158 549.708 636.258 549.69 636.353 549.69 L 637.677 549.69 C 637.887 549.69 638.093 549.716 638.299 549.763 C 638.483 549.807 638.663 549.874 638.832 549.966 C 638.998 550.058 639.152 550.172 639.292 550.3 C 639.428 550.429 639.542 550.576 639.638 550.738 C 639.733 550.9 639.807 551.076 639.851 551.257 C 639.903 551.455 639.928 551.661 639.928 551.867 C 639.928 552.062 639.903 552.257 639.851 552.445 C 639.803 552.621 639.73 552.794 639.634 552.948 C 639.538 553.107 639.421 553.246 639.288 553.371 C 639.238 553.418 639.185 553.462 639.13 553.503 L 640.019 555.042 C 640.066 555.125 640.1 555.22 640.112 555.315 C 640.13 555.411 640.122 555.509 640.102 555.605 C 640.076 555.701 640.032 555.794 639.971 555.872 C 639.907 555.952 639.83 556.017 639.744 556.067 C 639.658 556.117 639.566 556.148 639.468 556.163 C 639.37 556.177 639.269 556.171 639.174 556.146 C 639.078 556.12 638.988 556.074 638.91 556.013 C 638.832 555.952 638.769 555.878 638.719 555.792 L 637.659 553.956 L 637.659 553.956 Z " fill-rule="evenodd" fill="rgb(0,113,255)"/></svg>