<?xml version="1.0" encoding="UTF-8" standalone="no"?>
<svg
   width="32"
   height="32"
   style="isolation:isolate"
   viewBox="633.685 521.772 32 32"
   version="1.1"
   id="svg1991"
   sodipodi:docname="rec.svg"
   inkscape:version="1.2.2 (b0a8486541, 2022-12-01)"
   xmlns:inkscape="http://www.inkscape.org/namespaces/inkscape"
   xmlns:sodipodi="http://sodipodi.sourceforge.net/DTD/sodipodi-0.dtd"
   xmlns="http://www.w3.org/2000/svg"
   xmlns:svg="http://www.w3.org/2000/svg">
  <defs
     id="defs1995" />
  <sodipodi:namedview
     id="namedview1993"
     pagecolor="#ffffff"
     bordercolor="#999999"
     borderopacity="1"
     inkscape:showpageshadow="0"
     inkscape:pageopacity="0"
     inkscape:pagecheckerboard="0"
     inkscape:deskcolor="#d1d1d1"
     inkscape:document-units="pt"
     showgrid="false"
     inkscape:zoom="5.53125"
     inkscape:cx="-14.915254"
     inkscape:cy="21.423729"
     inkscape:window-width="2560"
     inkscape:window-height="1367"
     inkscape:window-x="0"
     inkscape:window-y="0"
     inkscape:window-maximized="1"
     inkscape:current-layer="svg1991" />
  <path
     fill="none"
     d="m 633.685,521.772 h 32 v 32 h -32 z"
     id="path1987" />
  <path
     fill-rule="evenodd"
     d="m 638.136,537.772 a 2.972,2.972 0 0 1 2.97,-2.97 2.972,2.972 0 0 1 2.97,2.97 2.972,2.972 0 0 1 -2.97,2.97 2.972,2.972 0 0 1 -2.97,-2.97 z m 17.155,3.24 a 0.818,0.818 0 0 0 0.283,-0.052 0.693,0.693 0 0 0 0.243,-0.15 0.603,0.603 0 0 0 0.161,-0.243 0.743,0.743 0 0 0 0,-0.566 0.681,0.681 0 0 0 -0.408,-0.383 0.799,0.799 0 0 0 -0.279,-0.048 h -2.575 v -1.103 h 1.743 a 0.844,0.844 0 0 0 0.284,-0.052 0.69,0.69 0 0 0 0.404,-0.389 0.728,0.728 0 0 0 0,-0.56 0.689,0.689 0 0 0 -0.404,-0.389 0.844,0.844 0 0 0 -0.284,-0.052 h -1.743 v -1.052 h 2.575 a 0.777,0.777 0 0 0 0.522,-0.195 0.687,0.687 0 0 0 0.22,-0.518 0.74,0.74 0 0 0 -0.055,-0.283 0.603,0.603 0 0 0 -0.161,-0.243 0.696,0.696 0 0 0 -0.243,-0.151 0.841,0.841 0 0 0 -0.283,-0.051 h -3.325 a 0.74,0.74 0 0 0 -0.283,0.055 0.76,0.76 0 0 0 -0.247,0.154 0.734,0.734 0 0 0 -0.221,0.541 v 4.98 a 0.764,0.764 0 0 0 0.217,0.533 0.74,0.74 0 0 0 0.534,0.217 z m 5.921,-5.447 a 0.6,0.6 0 0 0 -0.037,-0.118 1.013,1.013 0 0 0 -0.062,-0.106 0.635,0.635 0 0 0 -0.077,-0.096 l -0.089,-0.077 a 3.669,3.669 0 0 0 -0.474,-0.327 2.477,2.477 0 0 0 -0.934,-0.335 3.834,3.834 0 0 0 -0.615,-0.048 c -0.224,0 -0.445,0.022 -0.665,0.066 a 2.863,2.863 0 0 0 -0.6,0.195 3.578,3.578 0 0 0 -0.548,0.305 3.12,3.12 0 0 0 -0.471,0.405 3.15,3.15 0 0 0 -0.386,0.485 3.245,3.245 0 0 0 -0.474,1.177 3.757,3.757 0 0 0 0,1.357 c 0.04,0.214 0.099,0.42 0.18,0.618 0.081,0.199 0.18,0.39 0.294,0.57 0.114,0.173 0.243,0.339 0.386,0.486 0.144,0.151 0.302,0.287 0.475,0.405 0.173,0.117 0.357,0.22 0.548,0.305 0.195,0.084 0.397,0.147 0.607,0.187 a 3.247,3.247 0 0 0 1.732,-0.117 c 0.169,-0.059 0.331,-0.136 0.489,-0.225 a 3.26,3.26 0 0 0 0.478,-0.323 0.795,0.795 0 0 0 0.184,-0.261 0.673,0.673 0 0 0 0.059,-0.287 0.782,0.782 0 0 0 -0.048,-0.273 0.594,0.594 0 0 0 -0.143,-0.235 0.712,0.712 0 0 0 -0.449,-0.217 0.816,0.816 0 0 0 -0.511,0.155 2.906,2.906 0 0 1 -0.283,0.183 2.476,2.476 0 0 1 -0.276,0.129 1.593,1.593 0 0 1 -0.578,0.103 1.598,1.598 0 0 1 -0.96,-0.309 1.866,1.866 0 0 1 -0.639,-0.831 2.052,2.052 0 0 1 -0.1,-1.133 c 0.022,-0.117 0.055,-0.235 0.1,-0.345 a 1.832,1.832 0 0 1 0.937,-1.005 1.538,1.538 0 0 1 0.662,-0.143 2.6,2.6 0 0 1 0.412,0.033 0.786,0.786 0 0 1 0.21,0.063 1.702,1.702 0 0 1 0.474,0.305 c 0.078,0.062 0.166,0.11 0.258,0.14 a 0.65,0.65 0 0 0 0.279,0.036 0.8,0.8 0 0 0 0.247,-0.062 0.728,0.728 0 0 0 0.375,-0.368 0.671,0.671 0 0 0 0.055,-0.272 c 0,-0.033 0,-0.066 -0.004,-0.103 a 0.747,0.747 0 0 0 -0.018,-0.092 z m -12.972,3.233 h -0.555 v 1.464 a 0.762,0.762 0 0 1 -0.055,0.283 0.764,0.764 0 0 1 -0.155,0.246 0.748,0.748 0 0 1 -0.246,0.166 0.816,0.816 0 0 1 -0.295,0.055 0.758,0.758 0 0 1 -0.533,-0.217 0.737,0.737 0 0 1 -0.217,-0.533 v -4.98 c 0,-0.099 0.019,-0.199 0.055,-0.294 a 0.752,0.752 0 0 1 0.166,-0.247 0.745,0.745 0 0 1 0.246,-0.154 0.746,0.746 0 0 1 0.283,-0.055 h 1.324 c 0.21,0 0.416,0.025 0.622,0.073 0.184,0.044 0.364,0.11 0.533,0.202 0.166,0.092 0.32,0.206 0.46,0.335 a 2.013,2.013 0 0 1 0.559,0.956 c 0.052,0.199 0.077,0.405 0.077,0.611 0,0.195 -0.025,0.39 -0.077,0.577 -0.048,0.177 -0.121,0.35 -0.217,0.504 a 2.019,2.019 0 0 1 -0.504,0.555 l 0.889,1.539 a 0.758,0.758 0 0 1 0.094,0.273 0.766,0.766 0 0 1 -0.011,0.29 0.74,0.74 0 0 1 -0.358,0.462 0.775,0.775 0 0 1 -0.57,0.078 0.73,0.73 0 0 1 -0.264,-0.132 0.78,0.78 0 0 1 -0.191,-0.221 z m 0.018,-2.825 c 0.081,0 0.166,0.011 0.247,0.03 a 0.7,0.7 0 0 1 0.438,0.32 0.662,0.662 0 0 1 0.066,0.165 c 0.018,0.07 0.029,0.147 0.029,0.221 a 0.602,0.602 0 0 1 -0.088,0.327 0.579,0.579 0 0 1 -0.107,0.129 0.94,0.94 0 0 1 -0.154,0.103 0.93,0.93 0 0 1 -0.431,0.088 h -0.573 v -1.383 z"
     id="path1989" />
</svg>
