<?xml version="1.0" encoding="iso-8859-1"?>
<!-- Uploaded to: SVG Repo, www.svgrepo.com, Generator: SVG Repo Mixer Tools -->
<!DOCTYPE svg PUBLIC "-//W3C//DTD SVG 1.1//EN" "http://www.w3.org/Graphics/SVG/1.1/DTD/svg11.dtd">
<svg fill="#000000" height="800px" width="800px" version="1.1" id="Capa_1" xmlns="http://www.w3.org/2000/svg" xmlns:xlink="http://www.w3.org/1999/xlink" 
	 viewBox="0 0 415 415" xml:space="preserve">
<g>
	<path d="M174.848,188.711c2.407-2.068,3.577-5.109,3.577-9.297c0-4.133-1.193-7.307-3.647-9.701
		c-2.431-2.369-6.148-3.571-11.048-3.571h-15.915v25.73h15.576C168.552,191.872,172.407,190.809,174.848,188.711z"/>
	<path d="M0,65.241v284.518h415V65.241H0z M70.675,238.253c-18.293,0-33.123-14.83-33.123-33.123
		c0-18.293,14.83-33.123,33.123-33.123s33.123,14.83,33.123,33.123C103.798,223.423,88.968,238.253,70.675,238.253z
		 M206.768,249.556h-22.422l-0.411-0.328c-2.099-1.679-3.467-4.433-4.067-8.185c-0.552-3.451-0.832-6.769-0.832-9.859v-6.979
		c0-4.492-1.212-8.003-3.602-10.435c-2.417-2.456-5.779-3.65-10.28-3.65h-17.337v39.437h-22.787v-101.66h38.701
		c11.546,0,20.743,2.699,27.335,8.023c6.688,5.403,10.078,13.012,10.078,22.614c0,5.404-1.442,10.124-4.285,14.028
		c-2.217,3.044-5.267,5.647-9.089,7.767c4.433,1.864,7.785,4.556,9.99,8.029c2.696,4.247,4.063,9.533,4.063,15.711v7.25
		c0,2.622,0.361,5.407,1.074,8.278c0.66,2.664,1.774,4.637,3.309,5.864l0.563,0.451V249.556z M287.335,249.556h-70.558v-101.66
		h70.422v18.246h-47.636v21.801h40.859v18.246h-40.859v25.121h47.771V249.556z M374.201,183.193l-0.552,1.65h-21.824v-1.5
		c0-6.092-1.443-10.781-4.29-13.937c-2.805-3.111-7.331-4.688-13.454-4.688c-5.458,0-9.671,2.155-12.879,6.589
		c-3.273,4.522-4.933,10.41-4.933,17.501v19.699c0,7.167,1.743,13.091,5.182,17.607c3.39,4.452,7.854,6.617,13.646,6.617
		c5.714,0,9.953-1.507,12.602-4.479c2.693-3.022,4.059-7.668,4.059-13.808v-1.5h21.756l0.552,1.65l0.004,0.23
		c0.187,11.009-3.245,19.89-10.199,26.396c-6.92,6.473-16.601,9.755-28.772,9.755c-12.247,0-22.344-4.006-30.01-11.906
		c-7.655-7.887-11.537-18.155-11.537-30.521v-19.583c0-12.311,3.785-22.573,11.25-30.504c7.488-7.957,17.34-11.991,29.28-11.991
		c12.524,0,22.485,3.289,29.605,9.776c7.166,6.531,10.705,15.519,10.519,26.714L374.201,183.193z"/>
</g>
</svg>