<?xml version="1.0" encoding="UTF-8" standalone="no"?>
<svg xmlns="http://www.w3.org/2000/svg" xmlns:xlink="http://www.w3.org/1999/xlink" style="isolation:isolate" viewBox="259.244 114.353 32 32" width="32pt" height="32pt"><g><path d=" M 259.244 114.353 L 291.244 114.353 L 291.244 146.353 L 259.244 146.353 L 259.244 114.353 Z " fill="none"/><path d=" M 268.254 130.003 C 268.254 130.725 267.668 131.311 266.945 131.311 C 266.223 131.311 265.637 130.725 265.637 130.003 C 265.639 126.264 267.81 122.867 271.202 121.295 C 274.594 119.724 278.59 120.264 281.442 122.68 L 281.442 121.661 C 281.442 120.939 282.028 120.353 282.751 120.353 C 283.473 120.353 284.059 120.939 284.059 121.661 L 284.059 125.786 C 284.059 126.505 283.476 127.088 282.757 127.088 L 278.788 127.458 C 278.072 127.522 277.438 126.994 277.373 126.277 C 277.309 125.56 277.837 124.927 278.554 124.862 L 279.856 124.743 C 277.79 122.938 274.86 122.506 272.362 123.638 C 269.863 124.771 268.257 127.259 268.254 130.003 Z  M 271.959 133.192 C 272.678 133.127 273.313 133.658 273.378 134.377 C 273.443 135.096 272.912 135.731 272.193 135.796 L 270.553 135.944 C 272.603 137.801 275.556 138.275 278.085 137.151 C 280.613 136.027 282.24 133.518 282.235 130.751 C 282.235 130.029 282.821 129.443 283.543 129.443 C 284.266 129.443 284.851 130.029 284.851 130.751 C 284.852 134.439 282.74 137.801 279.417 139.402 C 276.095 141.002 272.149 140.558 269.266 138.259 L 269.266 138.939 C 269.266 139.662 268.68 140.248 267.957 140.248 C 267.235 140.248 266.649 139.662 266.649 138.939 L 266.649 134.865 L 266.649 134.865 C 266.647 134.189 267.162 133.623 267.835 133.563 L 271.954 133.189 L 271.959 133.192 Z " fill="rgb(0,0,0)"/></g></svg>