<?xml version="1.0" encoding="UTF-8" standalone="no"?>
<svg
   style="isolation:isolate"
   viewBox="259.244 114.353 32 32"
   width="32"
   height="32"
   version="1.1"
   id="svg2125"
   sodipodi:docname="refresh.svg"
   inkscape:version="1.2.2 (b0a8486541, 2022-12-01)"
   xmlns:inkscape="http://www.inkscape.org/namespaces/inkscape"
   xmlns:sodipodi="http://sodipodi.sourceforge.net/DTD/sodipodi-0.dtd"
   xmlns="http://www.w3.org/2000/svg"
   xmlns:svg="http://www.w3.org/2000/svg">
  <defs
     id="defs2129" />
  <sodipodi:namedview
     id="namedview2127"
     pagecolor="#ffffff"
     bordercolor="#999999"
     borderopacity="1"
     inkscape:showpageshadow="0"
     inkscape:pageopacity="0"
     inkscape:pagecheckerboard="0"
     inkscape:deskcolor="#d1d1d1"
     inkscape:document-units="pt"
     showgrid="false"
     inkscape:zoom="5.53125"
     inkscape:cx="-35.344633"
     inkscape:cy="21.423729"
     inkscape:window-width="2560"
     inkscape:window-height="1367"
     inkscape:window-x="0"
     inkscape:window-y="0"
     inkscape:window-maximized="1"
     inkscape:current-layer="svg2125" />
  <g
     id="g2123">
    <path
       d="m 259.244,114.353 h 32 v 32 h -32 z"
       fill="none"
       id="path2119" />
    <path
       d="m 268.254,130.003 c 0,0.722 -0.586,1.308 -1.309,1.308 -0.722,0 -1.308,-0.586 -1.308,-1.308 0.002,-3.739 2.173,-7.136 5.565,-8.708 3.392,-1.571 7.388,-1.031 10.24,1.385 v -1.019 c 0,-0.722 0.586,-1.308 1.309,-1.308 0.722,0 1.308,0.586 1.308,1.308 v 4.125 c 0,0.719 -0.583,1.302 -1.302,1.302 l -3.969,0.37 c -0.716,0.064 -1.35,-0.464 -1.415,-1.181 -0.064,-0.717 0.464,-1.35 1.181,-1.415 l 1.302,-0.119 c -2.066,-1.805 -4.996,-2.237 -7.494,-1.105 -2.499,1.133 -4.105,3.621 -4.108,6.365 z m 3.705,3.189 c 0.719,-0.065 1.354,0.466 1.419,1.185 0.065,0.719 -0.466,1.354 -1.185,1.419 l -1.64,0.148 c 2.05,1.857 5.003,2.331 7.532,1.207 2.528,-1.124 4.155,-3.633 4.15,-6.4 0,-0.722 0.586,-1.308 1.308,-1.308 0.723,0 1.308,0.586 1.308,1.308 10e-4,3.688 -2.111,7.05 -5.434,8.651 -3.322,1.6 -7.268,1.156 -10.151,-1.143 v 0.68 c 0,0.723 -0.586,1.309 -1.309,1.309 -0.722,0 -1.308,-0.586 -1.308,-1.309 v -4.074 0 c -0.002,-0.676 0.513,-1.242 1.186,-1.302 l 4.119,-0.374 z"
       fill="#000000"
       id="path2121" />
  </g>
</svg>
