<svg xmlns="http://www.w3.org/2000/svg" width="32" height="32" style="isolation:isolate" viewBox="259.244 114.353 32 32"><path fill="none" d="M259.244 114.353h32v32h-32v-32Z"/><path d="M268.254 130.003a1.309 1.309 0 0 1-2.617 0 9.602 9.602 0 0 1 15.805-7.323v-1.019a1.309 1.309 0 0 1 2.617 0v4.125c0 .719-.583 1.302-1.302 1.302l-3.969.37a1.304 1.304 0 0 1-.234-2.596l1.302-.119a6.996 6.996 0 0 0-11.602 5.26Zm3.705 3.189a1.307 1.307 0 0 1 .234 2.604l-1.64.148a6.99 6.99 0 0 0 11.682-5.193 1.308 1.308 0 0 1 2.616 0 9.6 9.6 0 0 1-15.585 7.508v.68a1.309 1.309 0 1 1-2.617 0v-4.074a1.303 1.303 0 0 1 1.186-1.302l4.119-.374.005.003Z"/></svg>