<svg xmlns="http://www.w3.org/2000/svg" xmlns:xlink="http://www.w3.org/1999/xlink" style="isolation:isolate" viewBox="-132.5 119.2 32 32" width="32pt" height="32pt"><g><path d=" M -113.503 139.238 L -111.549 139.238 C -110.597 139.238 -109.68 138.876 -109.006 138.231 C -108.327 137.59 -107.947 136.719 -107.947 135.813 L -107.947 129.787 C -107.947 128.882 -108.327 128.01 -109.006 127.369 C -109.68 126.724 -110.597 126.363 -111.549 126.363 L -121.451 126.363 L -121.451 126.363 C -122.403 126.363 -123.32 126.724 -123.994 127.369 C -124.673 128.01 -125.053 128.882 -125.053 129.787 L -125.053 135.813 C -125.053 136.719 -124.673 137.59 -123.994 138.231 C -123.32 138.876 -122.403 139.238 -121.451 139.238 L -119.497 139.238 L -113.503 139.238 L -113.503 139.238 L -113.503 139.238 Z  M -112.689 141.551 L -110.206 141.551 C -108.994 141.551 -107.828 141.068 -106.972 140.204 C -106.108 139.347 -105.625 138.181 -105.625 136.97 L -105.625 128.91 C -105.625 127.699 -106.108 126.533 -106.972 125.676 C -107.828 124.813 -108.994 124.33 -110.206 124.33 L -122.794 124.33 L -122.794 124.33 C -124.006 124.33 -125.172 124.813 -126.029 125.676 C -126.892 126.533 -127.375 127.699 -127.375 128.91 L -127.375 136.97 C -127.375 138.181 -126.892 139.347 -126.029 140.204 C -125.172 141.068 -124.006 141.551 -122.794 141.551 L -120.311 141.551 L -120.311 144.887 C -120.311 146.465 -112.689 146.465 -112.689 144.887 L -112.689 141.551 L -112.689 141.551 L -112.689 141.551 Z  M -119.529 132.648 C -119.529 132.961 -119.782 133.215 -120.095 133.215 C -120.408 133.215 -120.662 132.961 -120.662 132.648 C -120.661 131.029 -119.721 129.557 -118.251 128.876 C -116.782 128.195 -115.051 128.429 -113.815 129.476 L -113.815 129.035 C -113.815 128.722 -113.561 128.468 -113.248 128.468 C -112.935 128.468 -112.681 128.722 -112.681 129.035 L -112.681 130.822 C -112.681 131.133 -112.934 131.386 -113.245 131.386 L -114.965 131.546 C -115.275 131.574 -115.55 131.345 -115.578 131.034 C -115.606 130.724 -115.377 130.449 -115.066 130.421 L -114.502 130.37 C -115.397 129.588 -116.666 129.401 -117.749 129.891 C -118.831 130.382 -119.527 131.46 -119.529 132.648 L -119.529 132.648 Z  M -117.923 134.03 C -117.612 134.002 -117.337 134.232 -117.309 134.543 C -117.281 134.855 -117.51 135.13 -117.822 135.158 L -118.532 135.222 C -117.644 136.027 -116.365 136.232 -115.269 135.745 C -114.174 135.258 -113.469 134.171 -113.471 132.973 C -113.471 132.66 -113.218 132.406 -112.905 132.406 C -112.592 132.406 -112.338 132.66 -112.338 132.973 C -112.338 134.57 -113.253 136.027 -114.692 136.72 C -116.131 137.414 -117.841 137.221 -119.09 136.225 L -119.09 136.52 C -119.09 136.833 -119.344 137.087 -119.657 137.087 C -119.97 137.087 -120.224 136.833 -120.224 136.52 L -120.224 134.755 L -120.224 134.755 C -120.225 134.462 -120.001 134.217 -119.71 134.191 L -117.925 134.029 L -117.923 134.03 L -117.923 134.03 Z " fill-rule="evenodd" fill="rgb(0,0,0)"/><path d=" M -132.5 119.2 L -100.5 119.2 L -100.5 151.2 L -132.5 151.2 L -132.5 119.2 Z " fill="none"/></g></svg>