<svg xmlns="http://www.w3.org/2000/svg" width="32" height="32" style="isolation:isolate" viewBox="204.996 114.353 32 32"><path fill="none" d="M204.996 114.353h32v32h-32v-32Z"/><path fill-rule="evenodd" d="M230.603 139.96a1.341 1.341 0 0 1-1.897 0l-4.994-4.994c-3.144 2.239-7.54 1.949-10.359-.87a8.055 8.055 0 0 1 0-11.386 8.053 8.053 0 0 1 11.386 0c2.819 2.819 3.109 7.215.87 10.358l4.994 4.995a1.341 1.341 0 0 1 0 1.897Zm-17.147-11.547a5.594 5.594 0 0 1 5.591-5.591 5.594 5.594 0 0 1 5.591 5.591 5.594 5.594 0 0 1-5.591 5.592 5.594 5.594 0 0 1-5.591-5.592Z"/></svg>