<?xml version="1.0" encoding="UTF-8" standalone="no"?>
<svg
   style="isolation:isolate"
   viewBox="204.996 114.353 32 32"
   width="32"
   height="32"
   version="1.1"
   id="svg2401"
   sodipodi:docname="search.svg"
   inkscape:version="1.2.2 (b0a8486541, 2022-12-01)"
   xmlns:inkscape="http://www.inkscape.org/namespaces/inkscape"
   xmlns:sodipodi="http://sodipodi.sourceforge.net/DTD/sodipodi-0.dtd"
   xmlns="http://www.w3.org/2000/svg"
   xmlns:svg="http://www.w3.org/2000/svg">
  <defs
     id="defs2405" />
  <sodipodi:namedview
     id="namedview2403"
     pagecolor="#ffffff"
     bordercolor="#999999"
     borderopacity="1"
     inkscape:showpageshadow="0"
     inkscape:pageopacity="0"
     inkscape:pagecheckerboard="0"
     inkscape:deskcolor="#d1d1d1"
     inkscape:document-units="pt"
     showgrid="false"
     inkscape:zoom="5.53125"
     inkscape:cx="-5.5141243"
     inkscape:cy="21.423729"
     inkscape:window-width="2560"
     inkscape:window-height="1367"
     inkscape:window-x="0"
     inkscape:window-y="0"
     inkscape:window-maximized="1"
     inkscape:current-layer="svg2401" />
  <g
     id="g2399">
    <path
       d="m 204.996,114.353 h 32 v 32 h -32 z"
       fill="none"
       id="path2395" />
    <path
       d="m 230.603,139.96 v 0 c -0.523,0.524 -1.374,0.524 -1.897,0 l -4.994,-4.994 c -3.144,2.239 -7.54,1.949 -10.359,-0.87 -3.142,-3.142 -3.142,-8.244 0,-11.386 3.142,-3.143 8.244,-3.143 11.386,0 2.819,2.819 3.109,7.215 0.87,10.358 l 4.994,4.995 c 0.524,0.523 0.524,1.373 0,1.897 z m -17.147,-11.547 c 0,-3.085 2.505,-5.591 5.591,-5.591 3.086,0 5.591,2.506 5.591,5.591 0,3.086 -2.505,5.592 -5.591,5.592 -3.086,0 -5.591,-2.506 -5.591,-5.592 z"
       fill-rule="evenodd"
       fill="#000000"
       id="path2397" />
  </g>
</svg>
