<?xml version="1.0" encoding="UTF-8" standalone="no"?>
<svg
   style="isolation:isolate"
   viewBox="298.171 98.799 32 32"
   width="32"
   height="32"
   version="1.1"
   id="svg2542"
   sodipodi:docname="transfer.svg"
   inkscape:version="1.2.2 (b0a8486541, 2022-12-01)"
   xmlns:inkscape="http://www.inkscape.org/namespaces/inkscape"
   xmlns:sodipodi="http://sodipodi.sourceforge.net/DTD/sodipodi-0.dtd"
   xmlns="http://www.w3.org/2000/svg"
   xmlns:svg="http://www.w3.org/2000/svg">
  <defs
     id="defs2546" />
  <sodipodi:namedview
     id="namedview2544"
     pagecolor="#ffffff"
     bordercolor="#999999"
     borderopacity="1"
     inkscape:showpageshadow="0"
     inkscape:pageopacity="0"
     inkscape:pagecheckerboard="0"
     inkscape:deskcolor="#d1d1d1"
     inkscape:document-units="pt"
     showgrid="false"
     inkscape:zoom="5.53125"
     inkscape:cx="-5.5141243"
     inkscape:cy="21.423729"
     inkscape:window-width="2560"
     inkscape:window-height="1367"
     inkscape:window-x="0"
     inkscape:window-y="0"
     inkscape:window-maximized="1"
     inkscape:current-layer="svg2542" />
  <g
     id="g2540">
    <path
       d="m 298.171,98.799 h 32 v 32 h -32 z"
       fill="none"
       id="path2536" />
    <path
       d="m 310.278,119.949 h 11.547 c 0.947,0 1.717,-0.769 1.717,-1.716 v 0 c 0,-0.948 -0.77,-1.717 -1.717,-1.717 H 307.25 c -2.56,0 -3.219,1.519 -1.471,3.389 l 5.758,6.159 c 0.67,0.67 1.758,0.67 2.428,0 v 0 c 0.67,-0.67 0.67,-1.758 0,-2.428 z m 7.787,-10.3 h -11.547 c -0.948,0 -1.717,0.77 -1.717,1.717 v 0 c 0,0.947 0.769,1.717 1.717,1.717 h 14.574 c 2.561,0 3.22,-1.519 1.471,-3.39 l -5.757,-6.158 c -0.67,-0.67 -1.758,-0.67 -2.428,0 v 0 c -0.67,0.67 -0.67,1.758 0,2.428 z"
       fill-rule="evenodd"
       fill="#000000"
       id="path2538" />
  </g>
</svg>
