<svg xmlns="http://www.w3.org/2000/svg" width="32" height="32" style="isolation:isolate" viewBox="298.171 98.799 32 32"><path fill="none" d="M298.171 98.799h32v32h-32v-32Z"/><path fill-rule="evenodd" d="M310.278 119.949h11.547c.947 0 1.717-.769 1.717-1.716 0-.948-.77-1.717-1.717-1.717H307.25c-2.56 0-3.219 1.519-1.471 3.389l5.758 6.159a1.718 1.718 0 0 0 2.428-2.428l-3.687-3.687Zm7.787-10.3h-11.547a1.718 1.718 0 0 0 0 3.434h14.574c2.561 0 3.22-1.519 1.471-3.39l-5.757-6.158a1.718 1.718 0 0 0-2.428 2.428l3.687 3.686Z"/></svg>