<?xml version="1.0" encoding="UTF-8" standalone="no"?>
<svg xmlns="http://www.w3.org/2000/svg" xmlns:xlink="http://www.w3.org/1999/xlink" style="isolation:isolate" viewBox="298.171 98.799 32 32" width="32" height="32"><g><path d=" M 298.171 98.799 L 330.171 98.799 L 330.171 130.799 L 298.171 130.799 L 298.171 98.799 Z " fill="none"/><path d=" M 310.278 119.949 L 321.825 119.949 C 322.772 119.949 323.542 119.18 323.542 118.233 L 323.542 118.233 C 323.542 117.285 322.772 116.516 321.825 116.516 L 307.25 116.516 C 304.69 116.516 304.031 118.035 305.779 119.905 L 311.537 126.064 C 312.207 126.734 313.295 126.734 313.965 126.064 L 313.965 126.064 C 314.635 125.394 314.635 124.306 313.965 123.636 L 310.278 119.949 Z  M 318.065 109.649 L 306.518 109.649 C 305.57 109.649 304.801 110.419 304.801 111.366 L 304.801 111.366 C 304.801 112.313 305.57 113.083 306.518 113.083 L 321.092 113.083 C 323.653 113.083 324.312 111.564 322.563 109.693 L 316.806 103.535 C 316.136 102.865 315.048 102.865 314.378 103.535 L 314.378 103.535 C 313.708 104.205 313.708 105.293 314.378 105.963 L 318.065 109.649 Z " fill-rule="evenodd" fill="rgb(0,0,0)"/></g></svg>