<svg xmlns="http://www.w3.org/2000/svg" width="32" height="32" style="isolation:isolate" viewBox="151.496 106.603 32 32"><path fill="none" d="M151.496 106.603h32v32h-32v-32Z"/><path fill-rule="evenodd" d="M162.872 114.091h-1.568a1.407 1.407 0 0 0 0 2.814h12.384a1.408 1.408 0 1 0 0-2.814h-1.568v-.307c0-.652-.529-1.181-1.181-1.181h-6.886c-.652 0-1.181.529-1.181 1.181v.307Zm-1.375 3.876h11.998c.284 0 .515.231.515.515v11.548a2.574 2.574 0 0 1-2.573 2.573h-7.881a2.575 2.575 0 0 1-2.574-2.573v-11.548c0-.284.231-.515.515-.515Z"/></svg>