<?xml version="1.0" encoding="UTF-8" standalone="no"?>
<svg
   style="isolation:isolate"
   viewBox="151.496 106.603 32 32"
   width="32"
   height="32"
   version="1.1"
   id="svg2677"
   sodipodi:docname="trash.svg"
   inkscape:version="1.2.2 (b0a8486541, 2022-12-01)"
   xmlns:inkscape="http://www.inkscape.org/namespaces/inkscape"
   xmlns:sodipodi="http://sodipodi.sourceforge.net/DTD/sodipodi-0.dtd"
   xmlns="http://www.w3.org/2000/svg"
   xmlns:svg="http://www.w3.org/2000/svg">
  <defs
     id="defs2681" />
  <sodipodi:namedview
     id="namedview2679"
     pagecolor="#ffffff"
     bordercolor="#999999"
     borderopacity="1"
     inkscape:showpageshadow="0"
     inkscape:pageopacity="0"
     inkscape:pagecheckerboard="0"
     inkscape:deskcolor="#d1d1d1"
     inkscape:document-units="pt"
     showgrid="false"
     inkscape:zoom="2.8284271"
     inkscape:cx="55.154329"
     inkscape:cy="105.88924"
     inkscape:window-width="2560"
     inkscape:window-height="1367"
     inkscape:window-x="0"
     inkscape:window-y="0"
     inkscape:window-maximized="1"
     inkscape:current-layer="svg2677" />
  <g
     id="g2675">
    <path
       d="m 151.496,106.603 h 32 v 32 h -32 z"
       fill="none"
       id="path2671" />
    <path
       d="m 162.872,114.091 h -1.568 c -0.777,0 -1.407,0.63 -1.407,1.407 v 0 c 0,0.777 0.63,1.407 1.407,1.407 h 12.384 c 0.777,0 1.408,-0.63 1.408,-1.407 v 0 c 0,-0.777 -0.631,-1.407 -1.408,-1.407 h -1.568 v -0.307 c 0,-0.652 -0.529,-1.181 -1.181,-1.181 h -6.886 c -0.652,0 -1.181,0.529 -1.181,1.181 z m -1.375,3.876 h 11.998 c 0.284,0 0.515,0.231 0.515,0.515 v 11.548 c 0,1.42 -1.153,2.573 -2.573,2.573 h -7.881 c -1.421,0 -2.574,-1.153 -2.574,-2.573 v -11.548 c 0,-0.284 0.231,-0.515 0.515,-0.515 z"
       fill-rule="evenodd"
       fill="#000000"
       id="path2673" />
  </g>
</svg>
