<?xml version="1.0" encoding="UTF-8" standalone="no"?>
<svg xmlns="http://www.w3.org/2000/svg" xmlns:xlink="http://www.w3.org/1999/xlink" style="isolation:isolate" viewBox="357.89 536.93 32.551 32" width="32.551pt" height="32pt"><path d=" M 364.414 536.93 L 383.916 536.93 C 385.641 536.93 387.302 537.619 388.527 538.844 C 389.752 540.062 390.441 541.722 390.441 543.455 L 390.441 562.405 C 390.441 564.138 389.752 565.798 388.527 567.016 C 387.302 568.241 385.641 568.93 383.916 568.93 L 364.414 568.93 C 362.689 568.93 361.029 568.241 359.804 567.016 C 358.579 565.798 357.89 564.138 357.89 562.405 L 357.89 543.455 C 357.89 541.722 358.579 540.062 359.804 538.844 C 361.029 537.619 362.689 536.93 364.414 536.93 Z  M 374.89 554.697 L 374.89 562.037 C 374.89 562.438 374.565 562.762 374.165 562.762 L 374.165 562.762 C 373.765 562.762 373.44 562.438 373.44 562.037 L 373.44 554.697 L 370.142 554.697 C 368.541 554.697 368.086 553.709 369.125 552.492 L 370.07 551.387 C 370.329 551.082 370.54 550.51 370.54 550.11 L 370.54 545.998 C 370.54 545.597 370.216 545.273 369.815 545.273 L 369.453 545.273 C 368.853 545.273 368.366 544.785 368.366 544.185 L 368.366 544.185 C 368.366 543.585 368.853 543.098 369.453 543.098 L 378.878 543.098 C 379.478 543.098 379.965 543.585 379.965 544.185 L 379.965 544.185 C 379.965 544.785 379.478 545.273 378.878 545.273 L 378.515 545.273 C 378.115 545.273 377.79 545.597 377.79 545.998 L 377.79 550.11 C 377.79 550.51 378.001 551.082 378.261 551.387 L 379.205 552.492 C 380.245 553.709 379.789 554.697 378.189 554.697 L 374.89 554.697 Z " fill-rule="evenodd" fill="rgb(0,113,255)"/></svg>