<svg xmlns="http://www.w3.org/2000/svg" width="32" height="32" style="isolation:isolate" viewBox="358.441 521.772 32 32"><path fill="none" d="M358.441 521.772h32v32h-32v-32Z"/><path d="M375.166 539.539v7.34a.726.726 0 0 1-1.45 0v-7.34h-3.299c-1.6 0-2.056-.988-1.016-2.205l.944-1.106c.26-.304.471-.876.471-1.276v-4.113c0-.4-.325-.725-.725-.725h-.362a1.088 1.088 0 0 1 0-2.175h9.424a1.088 1.088 0 0 1 0 2.175h-.362a.725.725 0 0 0-.725.725v4.113c0 .4.211.972.47 1.276l.945 1.106c1.039 1.217.584 2.205-1.017 2.205h-3.298Z"/></svg>