<?xml version="1.0" encoding="UTF-8" standalone="no"?>
<svg xmlns="http://www.w3.org/2000/svg" xmlns:xlink="http://www.w3.org/1999/xlink" style="isolation:isolate" viewBox="358.441 521.772 32 32" width="32pt" height="32pt"><g><path d=" M 358.441 521.772 L 390.441 521.772 L 390.441 553.772 L 358.441 553.772 L 358.441 521.772 Z " fill="none"/><path d=" M 375.166 539.539 L 375.166 546.879 C 375.166 547.279 374.841 547.604 374.441 547.604 L 374.441 547.604 C 374.041 547.604 373.716 547.279 373.716 546.879 L 373.716 539.539 L 370.417 539.539 C 368.817 539.539 368.361 538.551 369.401 537.334 L 370.345 536.228 C 370.605 535.924 370.816 535.352 370.816 534.952 L 370.816 530.839 C 370.816 530.439 370.491 530.114 370.091 530.114 L 369.729 530.114 C 369.128 530.114 368.641 529.627 368.641 529.027 L 368.641 529.027 C 368.641 528.427 369.128 527.939 369.729 527.939 L 379.153 527.939 C 379.753 527.939 380.241 528.427 380.241 529.027 L 380.241 529.027 C 380.241 529.627 379.753 530.114 379.153 530.114 L 378.791 530.114 C 378.39 530.114 378.066 530.439 378.066 530.839 L 378.066 534.952 C 378.066 535.352 378.277 535.924 378.536 536.228 L 379.481 537.334 C 380.52 538.551 380.065 539.539 378.464 539.539 L 375.166 539.539 Z " fill="rgb(0,0,0)"/></g></svg>