<svg xmlns="http://www.w3.org/2000/svg" width="200" height="200" class="icon" viewBox="-186 -186 1365 1365"><path d="M608 160c141.16 0 256 114.84 256 256 0 17.67 14.33 32 32 32s32-14.33 32-32c0-85.48-33.29-165.83-93.73-226.27C773.83 129.29 693.47 96 608 96c-17.67 0-32 14.33-32 32s14.33 32 32 32zm-24 168c61.76 0 112 50.24 112 112 0 17.67 14.33 32 32 32s32-14.33 32-32c0-97.05-78.95-176-176-176-17.67 0-32 14.33-32 32s14.33 32 32 32z"/><path d="M808.3 561.21c-12.76-3.83-25.7-6.2-38.46-7.03-60.3-4.5-116.45 18.9-146.55 61.08-22.6 31.67-45.66 50.01-68.52 54.5-17.71 3.48-33.12-1.7-45.49-5.85-2.66-.9-5.18-1.74-7.68-2.49-93.84-28.17-156.49-108.42-155.9-199.7.16-24.14 16.38-45.98 42.34-56.99 43.75-18.56 77.35-54 92.17-97.22 7.02-20.48 9.65-41.57 7.8-62.68-2.66-31.78-15.1-61.85-35.96-86.96-21.1-25.39-49.51-44-82.16-53.8-4.07-1.22-8.22-2.31-12.35-3.23-30.63-6.87-62.7-4.49-92.73 6.88-29.24 11.07-54.56 29.86-73.23 54.33a476.073 476.073 0 0 0-36.42 55.34 477.675 477.675 0 0 0-17.24 33.81C109.84 312.17 95.73 376.76 96 443.15c.26 63.78 13.7 126.26 39.95 185.7 27.55 62.39 69.3 119.84 120.74 166.11 54.14 48.71 117.6 84.85 188.63 107.4C499.02 919.41 554.33 928 610.21 928c10.99 0 22.01-.33 33.03-1 17.64-1.07 31.08-16.23 30.01-33.87-1.07-17.64-16.22-31.08-33.87-30.01-59.19 3.57-117.96-3.75-174.69-21.76C342.78 802.66 244.31 715.78 194.5 603c-46.76-105.9-46.21-221.33 1.55-325.03 4.55-9.87 9.57-19.72 14.92-29.26 9.29-16.54 19.89-32.64 31.5-47.86 23.47-30.77 64.09-45.87 101.07-37.58 2.66.6 5.33 1.3 7.95 2.08 40.93 12.29 69.48 45.6 72.75 84.86 0 .05.01.1.01.15 1.07 12.15-.47 24.39-4.58 36.37-8.94 26.06-29.58 47.59-56.63 59.07-23.58 10.01-43.63 25.72-57.99 45.45-15.12 20.78-23.2 45-23.36 70.05-.37 57.15 19 114.29 54.53 160.91 36.46 47.83 87.28 82.58 146.96 100.49 1.5.45 3.44 1.1 5.69 1.86 29.79 10.01 108.9 36.59 186.49-72.13 16.95-23.75 52.2-37.26 89.81-34.42l.36.03c7.97.51 16.17 2.02 24.34 4.47 22.12 6.64 42.04 25.38 56.11 52.77 16.97 33.04 21.71 72.53 12.1 100.56l-.16.47c-5.54 16.05-17.78 29.48-34.47 37.8-15.82 7.89-22.24 27.1-14.36 42.92s27.1 22.24 42.92 14.36c31.78-15.85 55.36-42.19 66.41-74.2l.18-.53c15.23-44.4 9.22-102.11-15.68-150.61-22.07-43.02-55.68-73.15-94.62-84.84z"/></svg>