<svg xmlns="http://www.w3.org/2000/svg" width="200" height="200" class="icon" viewBox="0 0 1024 1024"><path d="M561 362.67h-98V463h98V362.67zm200.67 0H661.33V463h100.33V362.67zM911 687c-62.22 0-121.33-9.33-177.33-28-20.22-6.22-37.33-2.34-51.33 11.67L572.67 780.34c-70-35.78-133.39-82.06-190.17-138.84S279.45 521.33 243.67 451.33l109.67-109.67c14-14 17.89-31.11 11.67-51.34-18.67-56-28-115.11-28-177.33 0-14-4.67-25.67-14-35-9.33-9.33-21-14-35-14H113c-14 0-25.67 4.67-35 14-9.33 9.33-14 21-14 35 0 112 21.39 220.11 64.17 324.33 42.78 104.22 103.83 196 183.17 275.34 79.33 79.34 171.1 140.4 275.33 183.17C690.89 938.61 799 960 911 960c14 0 25.67-4.67 35-14 9.33-9.33 14-21 14-35V736c0-14-4.67-25.67-14-35-9.33-9.33-21-14-35-14zm-51.33-224H960V362.67H859.67V463z"/></svg>