<?xml version="1.0" standalone="no"?><!DOCTYPE svg PUBLIC "-//W3C//DTD SVG 1.1//EN" "http://www.w3.org/Graphics/SVG/1.1/DTD/svg11.dtd"><svg t="1675679940165" class="icon" viewBox="0 0 1024 1024" version="1.1" xmlns="http://www.w3.org/2000/svg" p-id="2692" xmlns:xlink="http://www.w3.org/1999/xlink" width="200" height="200"><path d="M490.666667 809.856c-136.149333-10.346667-244.842667-119.04-255.189334-255.189333h42.816C289.066667 674.282667 389.589333 768 512 768s222.933333-93.717333 233.706667-213.333333h42.816c-10.346667 136.149333-119.04 244.842667-255.189334 255.189333V896h170.666667v42.666667H320v-42.666667h170.666667v-86.144zM512 85.333333a192 192 0 0 1 192 192v256a192 192 0 0 1-384 0V277.333333a192 192 0 0 1 192-192z" fill="#3D3D3D" p-id="2693"></path></svg>