<?xml version="1.0" encoding="UTF-8"?>
<svg id="svg11" xmlns="http://www.w3.org/2000/svg" xmlns:xlink="http://www.w3.org/1999/xlink" xmlns:svg="http://www.w3.org/2000/svg" xmlns:sodipodi="http://sodipodi.sourceforge.net/DTD/sodipodi-0.dtd" xmlns:inkscape="http://www.inkscape.org/namespaces/inkscape" version="1.1" viewBox="0 0 600 600">
  <!-- Generator: Adobe Illustrator 29.1.0, SVG Export Plug-In . SVG Version: 2.1.0 Build 142)  -->
  <defs>
    <style>
      .st0 {
        fill: none;
      }

      .st1 {
        opacity: .6;
      }

      .st1, .st2, .st3, .st4 {
        isolation: isolate;
      }

      .st5 {
        fill: #050d24;
      }

      .st6 {
        fill: #13253c;
      }

      .st2, .st7 {
        fill: #1a1a1a;
      }

      .st2, .st4 {
        opacity: .6;
      }

      .st8, .st4 {
        fill: #fff;
      }

      .st3 {
        fill: url(#linear-gradient);
      }

      .st9 {
        clip-path: url(#clippath);
      }
    </style>
    <linearGradient id="linear-gradient" x1="-6.2" y1="762.8" x2="-6.2" y2="762.8" gradientTransform="translate(93.1 18934.1) scale(26 -26)" gradientUnits="userSpaceOnUse">
      <stop offset="0" stop-color="#0071ff"/>
      <stop offset="1" stop-color="#00bfe1"/>
    </linearGradient>
    <clipPath id="clippath">
      <rect class="st0" x="18.4" y="18.6" width="12.2" height="11.3"/>
    </clipPath>
  </defs>
  <g>
    <g id="ACIN">
      <path class="st8" d="M46.6,56.6c-.6-1.3-1.4-2.5-2.4-3.5-1-1-2.2-1.8-3.5-2.3-2.7-1.1-5.9-1.1-8.5,0-1.3.6-2.5,1.4-3.5,2.4-1,1-1.8,2.2-2.4,3.5-.6,1.3-.9,2.8-.9,4.2s0,.3,0,.4c0,0,0,.1,0,.2v.2h4.6v-.2c0-.2,0-.3,0-.5,0-.9.2-1.7.5-2.5.3-.8.8-1.5,1.4-2.1.6-.6,1.3-1,2-1.4,1.5-.7,3.5-.7,5,0,.8.3,1.5.8,2.1,1.4.6.6,1,1.3,1.4,2.1.3.8.5,1.6.5,2.5h0v11h4.6v-10.9h0c0-1.6-.3-3.1-.9-4.4Z"/>
      <path id="Sombra" class="st4" d="M36.4,67.3c-.9,0-1.7-.2-2.5-.5-.8-.3-1.5-.8-2-1.4-.6-.6-1-1.3-1.4-2-.3-.6-.4-1.3-.5-2v-.4h-4.6v.5c0,1.3.4,2.6.9,3.7.6,1.3,1.4,2.5,2.4,3.5,1,1,2.2,1.8,3.5,2.4,1.3.6,2.8.9,4.3.9h.7v-4.6h-.7Z"/>
    </g>
    <rect class="st6" x="20.4" y="44.9" width="32" height="32" rx="4.6" ry="4.6"/>
    <g id="ACIN1" data-name="ACIN">
      <path class="st8" d="M46.6,56.6c-.6-1.3-1.4-2.5-2.4-3.5-1-1-2.2-1.8-3.5-2.3-2.7-1.1-5.9-1.1-8.5,0-1.3.6-2.5,1.4-3.5,2.4-1,1-1.8,2.2-2.4,3.5-.6,1.3-.9,2.8-.9,4.2s0,.3,0,.4c0,0,0,.1,0,.2v.2h4.6v-.2c0-.2,0-.3,0-.5,0-.9.2-1.7.5-2.5.3-.8.8-1.5,1.4-2.1.6-.6,1.3-1,2-1.4,1.5-.7,3.5-.7,5,0,.8.3,1.5.8,2.1,1.4.6.6,1,1.3,1.4,2.1.3.8.5,1.6.5,2.5h0v11h4.6v-10.9h0c0-1.6-.3-3.1-.9-4.4Z"/>
      <path id="Sombra1" data-name="Sombra" class="st4" d="M36.4,67.3c-.9,0-1.7-.2-2.5-.5-.8-.3-1.5-.8-2-1.4-.6-.6-1-1.3-1.4-2-.3-.6-.4-1.3-.5-2v-.4h-4.6v.5c0,1.3.4,2.6.9,3.7.6,1.3,1.4,2.5,2.4,3.5,1,1,2.2,1.8,3.5,2.4,1.3.6,2.8.9,4.3.9h.7v-4.6h-.7Z"/>
    </g>
  </g>
  <sodipodi:namedview id="namedview13" bordercolor="#000000" borderopacity="0.25" inkscape:current-layer="svg11" inkscape:cx="11.119001" inkscape:cy="90.307984" inkscape:deskcolor="#d1d1d1" inkscape:pagecheckerboard="0" inkscape:pageopacity="0.0" inkscape:showpageshadow="2" inkscape:window-height="847" inkscape:window-maximized="1" inkscape:window-width="1440" inkscape:window-x="0" inkscape:window-y="25" inkscape:zoom="1.8436908" pagecolor="#ffffff" showgrid="false" showguides="true"/>
  <path id="path2240" class="st3" d="M-67-897.5"/>
  <g>
    <g class="st1">
      <g class="st9">
        <path class="st5" d="M29.8,25.2c-.9,0-1.8-.2-2.6-.5-.8-.4-1.5-.8-2.1-1.4-.6-.6-1.1-1.3-1.5-2.1-.3-.6-.5-1.3-.5-2.1v-.4h-4.8v.5c0,1.4.4,2.7.9,3.8.6,1.4,1.4,2.6,2.5,3.6,1,1,2.3,1.9,3.6,2.5s2.9.9,4.4.9h.8v-4.7h-.8Z"/>
      </g>
    </g>
    <path class="st5" d="M61.2,8c-1.5-.7-3.1-1-4.8-1s-3.1.3-4.5.9c-1.4.6-2.6,1.4-3.7,2.5-1,1-1.9,2.3-2.5,3.7-.6,1.4-.9,2.9-.9,4.5s0,.3,0,.4c0,0,0,.1,0,.2v.4h0c.1,1.2.4,2.4.9,3.5.6,1.4,1.4,2.6,2.5,3.7,1,1,2.3,1.9,3.7,2.5,1.4.6,2.9.9,4.5.9h.8v-4.7h-.8c-1,0-1.8-.2-2.7-.5-.8-.3-1.5-.8-2.2-1.4-.6-.6-1.1-1.3-1.4-2.2-.3-.7-.4-1.4-.5-2.2h0c0-.2,0-.4,0-.5,0-.9.2-1.8.5-2.6.3-.8.8-1.5,1.4-2.2.6-.6,1.3-1.1,2.2-1.5,1.7-.7,3.8-.7,5.4,0,.9.4,1.7,1,2.3,1.6l.5.5,3.5-3.2-.5-.6c-1-1.1-2.3-2.1-3.8-2.8"/>
    <polygon class="st5" points="68.8 18.6 68.8 19.5 68.8 30.1 73.5 30.1 73.5 19.5 73.5 18.6 73.5 7.1 68.8 7.1 68.8 18.6"/>
    <path class="st5" d="M99.2,14c-.6-1.4-1.4-2.6-2.5-3.7-1-1-2.3-1.9-3.7-2.5-1.4-.6-2.9-.9-4.5-.9s-3.1.3-4.5.9c-1.4.6-2.6,1.4-3.6,2.5-1,1-1.9,2.3-2.5,3.7-.6,1.4-.9,2.9-.9,4.5v.8h4.7v-.8c0-.9.2-1.8.5-2.6.3-.8.8-1.5,1.4-2.2.6-.6,1.3-1.1,2.2-1.5,1.6-.7,3.7-.7,5.3,0,.8.4,1.6.9,2.2,1.5.6.6,1.1,1.3,1.4,2.2.3.8.5,1.7.5,2.6h0v11.5h4.7v-11.4h0c0-1.7-.3-3.2-.9-4.6"/>
    <path class="st5" d="M114,23.2c-.2-.4-.5-.6-.8-.8-.2,0-.4-.1-.7-.1-.7,0-1.3.3-1.7.8-.4.5-.6,1.2-.6,2s.2,1.5.6,2c.4.5,1,.7,1.7.7s.8-.1,1.1-.3c.2-.1.3-.3.4-.5v.3c0,.5,0,.9-.2,1.1-.2.3-.5.5-1,.5s-.6,0-.8-.2c0,0-.2-.2-.2-.4h-1.5c0,.5.3.9.7,1.2.4.3,1,.4,1.7.4,1.1,0,1.9-.3,2.3-.9.2-.4.4-.9.4-1.6v-5.1h-1.4v.8ZM113.6,26.3c-.2.2-.5.4-.8.4-.5,0-.8-.2-1-.7-.1-.2-.2-.5-.2-.8s0-.7.1-.9c.2-.5.5-.7,1-.7s.7.1.9.4c.2.3.3.7.3,1.2s-.1.9-.3,1.2"/>
    <path class="st5" d="M119.6,22.3c-.4,0-.8.1-1,.3-.2.1-.4.4-.6.7v-.9h-1.4v5.4h1.4v-2.6c0-.4,0-.8.2-1,.2-.4.6-.6,1.1-.6s0,0,.2,0c0,0,.1,0,.2,0v-1.4c0,0-.1,0-.1,0,0,0,0,0,0,0"/>
    <path class="st5" d="M123.1,22.2c-.9,0-1.6.3-2.1.9-.5.6-.7,1.2-.7,2s.2,1.5.7,2c.5.6,1.2.8,2.1.8s1.6-.3,2.1-.8c.5-.6.7-1.2.7-2s-.2-1.5-.7-2c-.5-.6-1.2-.9-2.1-.9M124,26.4c-.2.3-.5.4-1,.4s-.7-.1-1-.4c-.2-.3-.3-.7-.3-1.3s.1-1,.3-1.3c.2-.3.5-.4,1-.4s.7.1,1,.4c.2.3.3.7.3,1.3s-.1,1-.3,1.3"/>
    <path class="st5" d="M130.2,25.3c0,.3,0,.6-.1.8-.2.4-.5.6-1,.6s-.6-.1-.8-.4c0-.2-.1-.4-.1-.7v-3.3h-1.4v3.3c0,.6,0,1.1.2,1.4.3.6.8.9,1.6.9s.5,0,.7-.1c.2,0,.4-.2.6-.4,0,0,.1-.1.2-.2,0,0,0-.1,0-.1v.8h1.4v-5.4h-1.4v2.9Z"/>
    <path class="st5" d="M136,22.3c-.4,0-.8.1-1.1.4-.2.1-.3.3-.5.6v-.8h-1.4v7.5h1.4v-2.8c.2.2.3.4.5.5.3.2.6.3,1.1.3.7,0,1.2-.2,1.7-.7.4-.5.6-1.2.6-2.2s-.2-1.6-.7-2.1c-.4-.5-1-.7-1.6-.7M136.5,26.3c-.2.3-.5.5-.9.5s-.5,0-.7-.2c-.3-.3-.5-.7-.5-1.3s0-.7.2-1c.2-.5.5-.7,1.1-.7s.7.2.9.5c.2.3.3.7.3,1.1,0,.5-.1.9-.3,1.2"/>
    <path class="st5" d="M40.3,14c-.6-1.4-1.4-2.6-2.5-3.6-1-1-2.3-1.8-3.6-2.4-2.8-1.2-6.1-1.2-8.9,0-1.4.6-2.6,1.4-3.7,2.5-1,1-1.9,2.3-2.5,3.6-.6,1.4-.9,2.9-.9,4.4s0,.3,0,.4c0,0,0,.1,0,.2v.2h4.8v-.3c0-.2,0-.3,0-.5,0-.9.2-1.8.5-2.6.4-.8.8-1.5,1.4-2.1.6-.6,1.3-1.1,2.1-1.4,1.6-.7,3.6-.7,5.2,0,.8.3,1.5.8,2.1,1.4.6.6,1.1,1.3,1.4,2.1.3.8.5,1.7.5,2.6h0v11.4h4.7v-11.3h0c0-1.7-.3-3.2-.9-4.6"/>
  </g>
  <g>
    <g id="ACIN2" data-name="ACIN">
      <path class="st8" d="M141.6,58.9c-.6-1.3-1.4-2.5-2.4-3.5-1-1-2.2-1.8-3.5-2.3-2.7-1.1-5.9-1.1-8.5,0-1.3.6-2.5,1.4-3.5,2.4-1,1-1.8,2.2-2.4,3.5-.6,1.3-.9,2.8-.9,4.2s0,.3,0,.4c0,0,0,.1,0,.2v.2h4.6v-.2c0-.2,0-.3,0-.5,0-.9.2-1.7.5-2.5.3-.8.8-1.5,1.4-2.1.6-.6,1.3-1,2-1.4,1.5-.7,3.5-.7,5,0,.8.3,1.5.8,2.1,1.4.6.6,1,1.3,1.4,2.1.3.8.5,1.6.5,2.5h0v11h4.6v-10.9h0c0-1.6-.3-3.1-.9-4.4Z"/>
      <path id="Sombra2" data-name="Sombra" class="st4" d="M131.5,69.6c-.9,0-1.7-.2-2.5-.5-.8-.3-1.5-.8-2-1.4-.6-.6-1-1.3-1.4-2-.3-.6-.4-1.3-.5-2v-.4h-4.6v.5c0,1.3.4,2.6.9,3.7.6,1.3,1.4,2.5,2.4,3.5,1,1,2.2,1.8,3.5,2.4,1.3.6,2.8.9,4.3.9h.7v-4.6h-.7Z"/>
    </g>
    <rect class="st6" x="115.5" y="47.2" width="32" height="32" rx="4.6" ry="4.6"/>
    <g id="ACIN3" data-name="ACIN">
      <path class="st8" d="M141.6,58.9c-.6-1.3-1.4-2.5-2.4-3.5-1-1-2.2-1.8-3.5-2.3-2.7-1.1-5.9-1.1-8.5,0-1.3.6-2.5,1.4-3.5,2.4-1,1-1.8,2.2-2.4,3.5-.6,1.3-.9,2.8-.9,4.2s0,.3,0,.4c0,0,0,.1,0,.2v.2h4.6v-.2c0-.2,0-.3,0-.5,0-.9.2-1.7.5-2.5.3-.8.8-1.5,1.4-2.1.6-.6,1.3-1,2-1.4,1.5-.7,3.5-.7,5,0,.8.3,1.5.8,2.1,1.4.6.6,1,1.3,1.4,2.1.3.8.5,1.6.5,2.5h0v11h4.6v-10.9h0c0-1.6-.3-3.1-.9-4.4Z"/>
      <path id="Sombra3" data-name="Sombra" class="st4" d="M131.5,69.6c-.9,0-1.7-.2-2.5-.5-.8-.3-1.5-.8-2-1.4-.6-.6-1-1.3-1.4-2-.3-.6-.4-1.3-.5-2v-.4h-4.6v.5c0,1.3.4,2.6.9,3.7.6,1.3,1.4,2.5,2.4,3.5,1,1,2.2,1.8,3.5,2.4,1.3.6,2.8.9,4.3.9h.7v-4.6h-.7Z"/>
    </g>
  </g>
  <g>
    <g id="ACIN4" data-name="ACIN">
      <path class="st8" d="M49.1,94.8c-.7-1.6-1.6-3-2.8-4.1-1.2-1.2-2.6-2.1-4.1-2.7-3.2-1.3-6.9-1.3-10.1,0-1.6.7-3,1.6-4.2,2.8-1.2,1.2-2.1,2.6-2.8,4.1-.7,1.6-1,3.3-1,5s0,.3,0,.5c0,0,0,.1,0,.2v.2h5.4v-.3c0-.2,0-.4,0-.6,0-1,.2-2,.6-3,.4-.9,1-1.7,1.6-2.4.7-.7,1.5-1.2,2.4-1.6,1.8-.8,4.1-.8,5.9,0,.9.4,1.8.9,2.4,1.6.7.7,1.2,1.5,1.6,2.4.4.9.6,1.9.6,3h0v13h5.4v-12.9h0c0-1.9-.3-3.6-1-5.2Z"/>
      <path id="Sombra4" data-name="Sombra" class="st4" d="M37.2,107.5c-1,0-2-.2-2.9-.6-.9-.4-1.7-1-2.4-1.6-.7-.7-1.2-1.5-1.6-2.4-.3-.7-.5-1.5-.6-2.3v-.5h-5.4v.6c.1,1.6.4,3,1,4.4.7,1.6,1.6,3,2.8,4.1,1.2,1.2,2.6,2.1,4.1,2.8,1.6.7,3.3,1,5,1h.9v-5.4h-.9Z"/>
    </g>
    <g id="ACIN5" data-name="ACIN">
      <path class="st5" d="M49.1,94.8c-.7-1.6-1.6-3-2.8-4.1-1.2-1.2-2.6-2.1-4.1-2.7-3.2-1.3-6.9-1.3-10.1,0-1.6.7-3,1.6-4.2,2.8-1.2,1.2-2.1,2.6-2.8,4.1-.7,1.6-1,3.3-1,5s0,.3,0,.5c0,0,0,.1,0,.2v.2h5.4v-.3c0-.2,0-.4,0-.6,0-1,.2-2,.6-3,.4-.9,1-1.7,1.6-2.4.7-.7,1.5-1.2,2.4-1.6,1.8-.8,4.1-.8,5.9,0,.9.4,1.8.9,2.4,1.6.7.7,1.2,1.5,1.6,2.4.4.9.6,1.9.6,3h0v13h5.4v-12.9h0c0-1.9-.3-3.6-1-5.2Z"/>
      <path id="Sombra5" data-name="Sombra" class="st5" d="M37.2,107.5c-1,0-2-.2-2.9-.6-.9-.4-1.7-1-2.4-1.6-.7-.7-1.2-1.5-1.6-2.4-.3-.7-.5-1.5-.6-2.3v-.5h-5.4v.6c.1,1.6.4,3,1,4.4.7,1.6,1.6,3,2.8,4.1,1.2,1.2,2.6,2.1,4.1,2.8,1.6.7,3.3,1,5,1h.9v-5.4h-.9Z"/>
      <path id="Sombra6" data-name="Sombra" class="st4" d="M37.2,107.5c-1,0-2-.2-2.9-.6-.9-.4-1.7-1-2.4-1.6-.7-.7-1.2-1.5-1.6-2.4-.3-.7-.5-1.5-.6-2.3v-.5h-5.4v.6c.1,1.6.4,3,1,4.4.7,1.6,1.6,3,2.8,4.1,1.2,1.2,2.6,2.1,4.1,2.8,1.6.7,3.3,1,5,1h.9v-5.4h-.9Z"/>
    </g>
  </g>
  <g>
    <g id="ACIN6" data-name="ACIN">
      <path class="st7" d="M49.6,133.8c-.7-1.6-1.6-3-2.8-4.1-1.2-1.2-2.6-2.1-4.1-2.7-3.2-1.3-6.9-1.3-10.1,0-1.6.7-3,1.6-4.2,2.8-1.2,1.2-2.1,2.6-2.8,4.1-.7,1.6-1,3.3-1,5s0,.3,0,.5c0,0,0,.1,0,.2v.2h5.4v-.3c0-.2,0-.4,0-.6,0-1,.2-2,.6-3,.4-.9,1-1.7,1.6-2.4.7-.7,1.5-1.2,2.4-1.6,1.8-.8,4.1-.8,5.9,0,.9.4,1.8.9,2.4,1.6.7.7,1.2,1.5,1.6,2.4.4.9.6,1.9.6,3h0v13h5.4v-12.9h0c0-1.9-.3-3.6-1-5.2Z"/>
      <path id="Sombra7" data-name="Sombra" class="st2" d="M37.6,146.5c-1,0-2-.2-2.9-.6-.9-.4-1.7-1-2.4-1.6-.7-.7-1.2-1.5-1.6-2.4-.3-.7-.5-1.5-.6-2.3v-.5h-5.4v.6c.1,1.6.4,3,1,4.4.7,1.6,1.6,3,2.8,4.1,1.2,1.2,2.6,2.1,4.1,2.8,1.6.7,3.3,1,5,1h.9v-5.4h-.9Z"/>
    </g>
    <g id="ACIN7" data-name="ACIN">
      <path class="st7" d="M49.6,133.8c-.7-1.6-1.6-3-2.8-4.1-1.2-1.2-2.6-2.1-4.1-2.7-3.2-1.3-6.9-1.3-10.1,0-1.6.7-3,1.6-4.2,2.8-1.2,1.2-2.1,2.6-2.8,4.1-.7,1.6-1,3.3-1,5s0,.3,0,.5c0,0,0,.1,0,.2v.2h5.4v-.3c0-.2,0-.4,0-.6,0-1,.2-2,.6-3,.4-.9,1-1.7,1.6-2.4.7-.7,1.5-1.2,2.4-1.6,1.8-.8,4.1-.8,5.9,0,.9.4,1.8.9,2.4,1.6.7.7,1.2,1.5,1.6,2.4.4.9.6,1.9.6,3h0v13h5.4v-12.9h0c0-1.9-.3-3.6-1-5.2Z"/>
      <path id="Sombra8" data-name="Sombra" class="st7" d="M37.6,146.5c-1,0-2-.2-2.9-.6-.9-.4-1.7-1-2.4-1.6-.7-.7-1.2-1.5-1.6-2.4-.3-.7-.5-1.5-.6-2.3v-.5h-5.4v.6c.1,1.6.4,3,1,4.4.7,1.6,1.6,3,2.8,4.1,1.2,1.2,2.6,2.1,4.1,2.8,1.6.7,3.3,1,5,1h.9v-5.4h-.9Z"/>
      <path id="Sombra9" data-name="Sombra" class="st2" d="M37.6,146.5c-1,0-2-.2-2.9-.6-.9-.4-1.7-1-2.4-1.6-.7-.7-1.2-1.5-1.6-2.4-.3-.7-.5-1.5-.6-2.3v-.5h-5.4v.6c.1,1.6.4,3,1,4.4.7,1.6,1.6,3,2.8,4.1,1.2,1.2,2.6,2.1,4.1,2.8,1.6.7,3.3,1,5,1h.9v-5.4h-.9Z"/>
    </g>
  </g>
</svg>