<?xml version="1.0" encoding="UTF-8" standalone="no"?>
<svg
   style="isolation:isolate"
   viewBox="66.993 897.484 600 600.00001"
   version="1.1"
   id="svg11"
   sodipodi:docname="design.svg"
   xml:space="preserve"
   inkscape:export-filename="216333102-4d10c195-be66-4fa0-97ca-70a71756b25e.png"
   inkscape:export-xdpi="3733.2917"
   inkscape:export-ydpi="3733.2917"
   inkscape:version="1.2.2 (b0a84865, 2022-12-01)"
   width="600"
   height="600"
   xmlns:inkscape="http://www.inkscape.org/namespaces/inkscape"
   xmlns:sodipodi="http://sodipodi.sourceforge.net/DTD/sodipodi-0.dtd"
   xmlns:xlink="http://www.w3.org/1999/xlink"
   xmlns="http://www.w3.org/2000/svg"
   xmlns:svg="http://www.w3.org/2000/svg"><defs
     id="defs15"><linearGradient
       id="linearGradient9947"
       x1="0.14773831"
       x2="0.84543866"
       y1="0.85134232"
       y2="0.15443686"
       gradientTransform="matrix(26.301,0,0,26.331,90.673535,911.7572)"
       gradientUnits="userSpaceOnUse"><stop
         offset="0"
         stop-color="#004ba6"
         id="stop9943"
         style="stop-color:#0071ff;stop-opacity:1;" /><stop
         offset="1"
         stop-color="#00bfe1"
         id="stop9945"
         style="stop-color:#01aee6;stop-opacity:1;" /></linearGradient><linearGradient
       id="linearGradient9775"
       x1="0.045312501"
       x2="0.95468748"
       y1="0.95468748"
       y2="0.045312501"
       gradientTransform="matrix(32,0,0,32,231.02995,929.98044)"
       gradientUnits="userSpaceOnUse"><stop
         offset="0"
         stop-color="#004ba6"
         id="stop9771"
         style="stop-color:#0071ff;stop-opacity:1;" /><stop
         offset="1"
         stop-color="#00bfe1"
         id="stop9773"
         style="stop-color:#01aee6;stop-opacity:1;" /></linearGradient><linearGradient
       id="linearGradient5424"
       x1="0.14773831"
       x2="0.84543866"
       y1="0.85134232"
       y2="0.15443686"
       gradientTransform="matrix(26.301,0,0,26.331,90.673535,911.7572)"
       gradientUnits="userSpaceOnUse"><stop
         offset="0"
         stop-color="#004ba6"
         id="stop5420"
         style="stop-color:#0071ff;stop-opacity:1;" /><stop
         offset="1"
         stop-color="#00bfe1"
         id="stop5422"
         style="stop-color:#01aee6;stop-opacity:1;" /></linearGradient><linearGradient
       id="linearGradient1258"
       x1="0.045312501"
       x2="0.95468748"
       y1="0.95468748"
       y2="0.045312501"
       gradientTransform="matrix(32,0,0,32,231.02995,929.98044)"
       gradientUnits="userSpaceOnUse"><stop
         offset="0"
         stop-color="#004ba6"
         id="stop1254"
         style="stop-color:#0071ff;stop-opacity:1;" /><stop
         offset="1"
         stop-color="#00bfe1"
         id="stop1256"
         style="stop-color:#01aee6;stop-opacity:1;" /></linearGradient><linearGradient
       id="linearGradient1228"
       x1="0.045312501"
       x2="0.95468748"
       y1="0.95468748"
       y2="0.045312501"
       gradientTransform="matrix(32,0,0,32,231.02995,929.98044)"
       gradientUnits="userSpaceOnUse"><stop
         offset="0"
         stop-color="#004ba6"
         id="stop1224"
         style="stop-color:#0071ff;stop-opacity:1;" /><stop
         offset="100%"
         stop-color="#00bfe1"
         id="stop1226" /></linearGradient><rect
       x="34.072868"
       y="7.5261359"
       width="62.535347"
       height="16.146982"
       id="rect9005" /><linearGradient
       id="a-3"
       x1="0.045312501"
       x2="0.95468748"
       y1="0.95468748"
       y2="0.045312501"
       gradientTransform="matrix(32,0,0,32,231.02995,929.98044)"
       gradientUnits="userSpaceOnUse"><stop
         offset="0%"
         stop-color="#004ba6"
         id="stop294" /><stop
         offset="100%"
         stop-color="#00bfe1"
         id="stop296" /></linearGradient><linearGradient
       inkscape:collect="always"
       xlink:href="#linearGradient1228"
       id="linearGradient426"
       gradientUnits="userSpaceOnUse"
       gradientTransform="matrix(32,0,0,32,45.096615,851.74489)"
       x1="0.045312501"
       y1="0.95468748"
       x2="0.95468748"
       y2="0.045312501" /><linearGradient
       inkscape:collect="always"
       xlink:href="#a"
       id="linearGradient5414"
       gradientUnits="userSpaceOnUse"
       gradientTransform="matrix(26.000477,0,0,25.999345,91.160121,984.42075)"
       x1="0.14773831"
       y1="0.85134232"
       x2="0.84543866"
       y2="0.15443686" /><linearGradient
       inkscape:collect="always"
       xlink:href="#a"
       id="linearGradient9753"
       gradientUnits="userSpaceOnUse"
       gradientTransform="matrix(26.000477,0,0,25.999345,66.993017,897.4845)"
       x1="0.14773831"
       y1="0.85134232"
       x2="0.84543866"
       y2="0.15443686" /><linearGradient
       inkscape:collect="always"
       xlink:href="#linearGradient9775"
       id="linearGradient9769"
       gradientUnits="userSpaceOnUse"
       gradientTransform="matrix(32,0,0,32,45.096615,851.74489)"
       x1="0.045312501"
       y1="0.95468748"
       x2="0.95468748"
       y2="0.045312501" /><linearGradient
       inkscape:collect="always"
       xlink:href="#a"
       id="linearGradient9831"
       gradientUnits="userSpaceOnUse"
       gradientTransform="matrix(22.000402,0,0,21.999458,71.993014,902.48443)"
       x1="0.14773831"
       y1="0.85134232"
       x2="0.84543866"
       y2="0.15443686" /><linearGradient
       inkscape:collect="always"
       xlink:href="#a"
       id="linearGradient342"
       gradientUnits="userSpaceOnUse"
       gradientTransform="matrix(26.000475,0,0,25.999358,17.984526,891.74869)"
       x1="0.14773831"
       y1="0.85134232"
       x2="0.84543866"
       y2="0.15443686" /><linearGradient
       inkscape:collect="always"
       xlink:href="#a"
       id="linearGradient765"
       gradientUnits="userSpaceOnUse"
       gradientTransform="matrix(26.000475,0,0,25.999358,17.984526,891.74869)"
       x1="0.14773831"
       y1="0.85134232"
       x2="0.84543866"
       y2="0.15443686" /></defs><sodipodi:namedview
     id="namedview13"
     pagecolor="#ffffff"
     bordercolor="#000000"
     borderopacity="0.25"
     inkscape:showpageshadow="2"
     inkscape:pageopacity="0.0"
     inkscape:pagecheckerboard="0"
     inkscape:deskcolor="#d1d1d1"
     showgrid="false"
     inkscape:zoom="1.8436908"
     inkscape:cx="11.119001"
     inkscape:cy="90.307984"
     inkscape:window-width="1440"
     inkscape:window-height="847"
     inkscape:window-x="0"
     inkscape:window-y="25"
     inkscape:window-maximized="1"
     inkscape:current-layer="svg11"
     showguides="true" /><linearGradient
     id="a"
     x1="0.14773831"
     x2="0.84543866"
     y1="0.85134232"
     y2="0.15443686"
     gradientTransform="matrix(26.301,0,0,26.331,90.673535,911.7572)"
     gradientUnits="userSpaceOnUse"><stop
       offset="0"
       stop-color="#004ba6"
       id="stop4"
       style="stop-color:#0071ff;stop-opacity:1;" /><stop
       offset="1"
       stop-color="#00bfe1"
       id="stop6"
       style="stop-color:#00bfe1;stop-opacity:1;" /></linearGradient><text
     xml:space="preserve"
     transform="translate(66.993,897.484)"
     id="text9003"
     style="white-space:pre;shape-inside:url(#rect9005);display:inline;fill:#0071ff" /><path
     fill="url(#a)"
     d="m 113.48507,990.48835 -2.13532,2.12189 c -0.37566,0.3367 -0.55732,0.87879 -0.34675,1.33694 1.42256,2.97602 0.88256,6.52382 -1.45146,8.85602 -2.33502,2.3313 -5.88696,2.8707 -8.86652,1.4488 -0.43892,-0.1965 -0.953965,-0.03 -1.292057,0.3127 l -2.16992,2.1664 c -0.255052,0.2498 -0.3806,0.6023 -0.340069,0.9558 0.04053,0.3545 0.243189,0.6695 0.54767,0.8541 5.112896,3.0945 11.678996,2.3056 15.911086,-1.9116 4.23208,-4.2162 5.03876,-10.77258 1.9554,-15.88728 -0.17696,-0.31104 -0.48935,-0.52234 -0.84425,-0.57171 -0.35489,-0.0504 -0.71276,0.0681 -0.96781,0.31794 z m -18.466546,-2.30559 c -4.252844,4.20042 -5.086212,10.75774 -2.019656,15.88534 0.176955,0.312 0.488355,0.5233 0.843253,0.5727 0.354898,0.05 0.712762,-0.068 0.968803,-0.319 l 2.123456,-2.1091 c 0.384555,-0.3367 0.572152,-0.8847 0.35862,-1.3488 -1.422557,-2.976 -0.883553,-6.52373 1.451458,-8.85593 2.334022,-2.33126 5.886942,-2.87084 8.865522,-1.44997 0.43398,0.19452 0.94211,0.033 1.28119,-0.29971 l 2.18178,-2.1792 c 0.25505,-0.24883 0.3806,-0.60133 0.34007,-0.95581 -0.0415,-0.35349 -0.24319,-0.66847 -0.54767,-0.85411 -5.1218,-3.06786 -11.678011,-2.25523 -15.893289,1.97185 z"
     id="path5412"
     inkscape:export-filename="../../Desktop/path9.png"
     inkscape:export-xdpi="3733.2917"
     inkscape:export-ydpi="3733.2917"
     style="fill:url(#linearGradient5414);stroke-width:0.987988"
     sodipodi:nodetypes="ccccccccccccccccccccccccccc" /><g
     id="g9521"><g
       id="g3226"
       transform="translate(42.333011,90.667253)"><path
         fill="url(#a)"
         d="M 72.096614,883.74485 H 50.096615 c -2.76,0 -5,-2.24 -5,-5 v -21.99996 c 0,-2.759 2.24,-5 5,-5 h 21.999999 c 2.759,0 5,2.241 5,5 v 21.99996 c 0,2.76 -2.241,5 -5,5 z"
         id="path422"
         style="isolation:isolate;fill:url(#linearGradient426)" /></g><path
       fill="url(#a)"
       d="m 111.31998,952.54667 -1.8068,1.79545 c -0.31787,0.2849 -0.47158,0.7436 -0.29341,1.13122 1.20371,2.51824 0.74678,5.52022 -1.22816,7.49362 -1.97578,1.97264 -4.98127,2.42905 -7.50244,1.22591 -0.37139,-0.16627 -0.807201,-0.0254 -1.093271,0.26459 l -1.83609,1.8331 c -0.21582,0.21137 -0.32205,0.50964 -0.28775,0.80876 0.0343,0.29996 0.20578,0.5665 0.46341,0.7227 4.326301,2.61842 9.882231,1.95089 13.463231,-1.61751 3.58099,-3.56755 4.26356,-9.11527 1.65457,-13.44309 -0.14974,-0.26324 -0.41407,-0.44203 -0.71437,-0.48375 -0.30029,-0.0423 -0.6031,0.0575 -0.81892,0.269 z m -15.625531,-1.9509 c -3.59857,3.55419 -4.30372,9.10275 -1.70895,13.44149 0.14974,0.264 0.41323,0.44279 0.71352,0.48459 0.3003,0.0423 0.60312,-0.0575 0.81977,-0.26992 l 1.79676,-1.78462 c 0.3254,-0.2849 0.48414,-0.7486 0.30345,-1.1413 -1.2037,-2.51815 -0.74762,-5.52013 1.22816,-7.49353 1.974941,-1.97255 4.981261,-2.42914 7.501591,-1.22684 0.36722,0.16458 0.79717,0.0279 1.08409,-0.25367 l 1.84612,-1.84394 c 0.21581,-0.21052 0.32205,-0.50879 0.28775,-0.80875 -0.0351,-0.29912 -0.20577,-0.56557 -0.46341,-0.7227 -4.33383,-2.59583 -9.881401,-1.90825 -13.448171,1.66853 z"
       id="path9011"
       inkscape:export-filename="../../Desktop/path9.png"
       inkscape:export-xdpi="3733.2917"
       inkscape:export-ydpi="3733.2917"
       style="fill:#ffffff;fill-opacity:1;stroke-width:0.83599"
       sodipodi:nodetypes="ccccccccccccccccccccccccccc" /></g><path
     fill="url(#a)"
     d="m 113.48507,990.48835 -2.13532,2.12189 c -0.37566,0.3367 -0.55732,0.87879 -0.34675,1.33694 1.42256,2.97602 0.88256,6.52382 -1.45146,8.85602 -2.33502,2.3313 -5.88696,2.8707 -8.86652,1.4488 -0.43892,-0.1965 -0.953965,-0.03 -1.292057,0.3127 l -2.16992,2.1664 c -0.255052,0.2498 -0.3806,0.6023 -0.340069,0.9558 0.04053,0.3545 0.243189,0.6695 0.54767,0.8541 5.112896,3.0945 11.678996,2.3056 15.911086,-1.9116 4.23208,-4.2162 5.03876,-10.77258 1.9554,-15.88728 -0.17696,-0.31104 -0.48935,-0.52234 -0.84425,-0.57171 -0.35489,-0.0504 -0.71276,0.0681 -0.96781,0.31794 z m -18.466546,-2.30559 c -4.252844,4.20042 -5.086212,10.75774 -2.019656,15.88534 0.176955,0.312 0.488355,0.5233 0.843253,0.5727 0.354898,0.05 0.712762,-0.068 0.968803,-0.319 l 2.123456,-2.1091 c 0.384555,-0.3367 0.572152,-0.8847 0.35862,-1.3488 -1.422557,-2.976 -0.883553,-6.52373 1.451458,-8.85593 2.334022,-2.33126 5.886942,-2.87084 8.865522,-1.44997 0.43398,0.19452 0.94211,0.033 1.28119,-0.29971 l 2.18178,-2.1792 c 0.25505,-0.24883 0.3806,-0.60133 0.34007,-0.95581 -0.0415,-0.35349 -0.24319,-0.66847 -0.54767,-0.85411 -5.1218,-3.06786 -11.678011,-2.25523 -15.893289,1.97185 z"
     id="path9523"
     inkscape:export-filename="../../Desktop/path9.png"
     inkscape:export-xdpi="2599.3848"
     inkscape:export-ydpi="2599.3848"
     style="fill:url(#linearGradient5414);stroke-width:0.987988"
     sodipodi:nodetypes="ccccccccccccccccccccccccccc" /><g
     id="g9759"
     transform="translate(18.35032,5.5050959)"><g
       id="g8359"><text
         xml:space="preserve"
         style="font-style:normal;font-variant:normal;font-weight:normal;font-stretch:normal;font-size:21.3333px;font-family:Asap;-inkscape-font-specification:Asap;fill:#0071ff"
         x="98.192268"
         y="917.46295"
         id="text9011"><tspan
           sodipodi:role="line"
           id="tspan9009"
           x="98.192268"
           y="917.46295"
           style="font-style:normal;font-variant:normal;font-weight:600;font-stretch:normal;font-size:21.3333px;font-family:Nunito;-inkscape-font-specification:'Nunito Semi-Bold';fill:#000000">rustdesk</tspan></text></g><path
       fill="url(#a)"
       d="m 89.317967,903.5521 -2.13532,2.12189 c -0.37566,0.3367 -0.55732,0.87879 -0.34675,1.33694 1.42256,2.97602 0.88256,6.52382 -1.45146,8.85602 -2.33502,2.3313 -5.88696,2.8707 -8.86652,1.4488 -0.43892,-0.1965 -0.95397,-0.03 -1.29206,0.3127 l -2.16992,2.1664 c -0.25505,0.2498 -0.3806,0.6023 -0.34007,0.9558 0.0405,0.3545 0.24319,0.6695 0.54767,0.8541 5.1129,3.0945 11.679,2.3056 15.91109,-1.9116 4.23208,-4.2162 5.03876,-10.77258 1.9554,-15.88728 -0.17696,-0.31104 -0.48935,-0.52234 -0.84425,-0.57171 -0.35489,-0.0504 -0.71276,0.0681 -0.96781,0.31794 z m -18.46655,-2.30559 c -4.25284,4.20042 -5.08621,10.75774 -2.01965,15.88534 0.17695,0.312 0.48835,0.5233 0.84325,0.5727 0.3549,0.05 0.71276,-0.068 0.9688,-0.319 l 2.12346,-2.1091 c 0.38455,-0.3367 0.57215,-0.8847 0.35862,-1.3488 -1.42256,-2.976 -0.88356,-6.52373 1.45146,-8.85593 2.33402,-2.33126 5.88694,-2.87084 8.86552,-1.44997 0.43398,0.19452 0.94211,0.033 1.28119,-0.29971 l 2.18178,-2.1792 c 0.25505,-0.24883 0.3806,-0.60133 0.34007,-0.95581 -0.0415,-0.35349 -0.24319,-0.66847 -0.54767,-0.85411 -5.1218,-3.06786 -11.67801,-2.25523 -15.89329,1.97185 z"
       id="path9751"
       inkscape:export-filename="../../Desktop/path9.png"
       inkscape:export-xdpi="3733.2917"
       inkscape:export-ydpi="3733.2917"
       style="fill:url(#linearGradient9753);stroke-width:0.987988"
       sodipodi:nodetypes="ccccccccccccccccccccccccccc" /></g><g
     id="g9767"
     transform="translate(95.04653,2.2707362)"><g
       id="g9763"
       transform="translate(42.333011,90.667253)"><path
         fill="url(#a)"
         d="M 72.096614,883.74485 H 50.096615 c -2.76,0 -5,-2.24 -5,-5 v -21.99996 c 0,-2.759 2.24,-5 5,-5 h 21.999999 c 2.759,0 5,2.241 5,5 v 21.99996 c 0,2.76 -2.241,5 -5,5 z"
         id="path9761"
         style="isolation:isolate;fill:url(#linearGradient9769)" /></g><path
       fill="url(#a)"
       d="m 111.31998,952.54667 -1.8068,1.79545 c -0.31787,0.2849 -0.47158,0.7436 -0.29341,1.13122 1.20371,2.51824 0.74678,5.52022 -1.22816,7.49362 -1.97578,1.97264 -4.98127,2.42905 -7.50244,1.22591 -0.37139,-0.16627 -0.807201,-0.0254 -1.093271,0.26459 l -1.83609,1.8331 c -0.21582,0.21137 -0.32205,0.50964 -0.28775,0.80876 0.0343,0.29996 0.20578,0.5665 0.46341,0.7227 4.326301,2.61842 9.882231,1.95089 13.463231,-1.61751 3.58099,-3.56755 4.26356,-9.11527 1.65457,-13.44309 -0.14974,-0.26324 -0.41407,-0.44203 -0.71437,-0.48375 -0.30029,-0.0423 -0.6031,0.0575 -0.81892,0.269 z m -15.625531,-1.9509 c -3.59857,3.55419 -4.30372,9.10275 -1.70895,13.44149 0.14974,0.264 0.41323,0.44279 0.71352,0.48459 0.3003,0.0423 0.60312,-0.0575 0.81977,-0.26992 l 1.79676,-1.78462 c 0.3254,-0.2849 0.48414,-0.7486 0.30345,-1.1413 -1.2037,-2.51815 -0.74762,-5.52013 1.22816,-7.49353 1.974941,-1.97255 4.981261,-2.42914 7.501591,-1.22684 0.36722,0.16458 0.79717,0.0279 1.08409,-0.25367 l 1.84612,-1.84394 c 0.21581,-0.21052 0.32205,-0.50879 0.28775,-0.80875 -0.0351,-0.29912 -0.20577,-0.56557 -0.46341,-0.7227 -4.33383,-2.59583 -9.881401,-1.90825 -13.448171,1.66853 z"
       id="path9765"
       inkscape:export-filename="../../Desktop/path9.png"
       inkscape:export-xdpi="3733.2917"
       inkscape:export-ydpi="3733.2917"
       style="fill:#ffffff;fill-opacity:1;stroke-width:0.83599"
       sodipodi:nodetypes="ccccccccccccccccccccccccccc" /></g><g
     id="g9825"
     transform="translate(-74.123318,-7.4609904)"><g
       id="g9821"
       transform="translate(42.333011,90.667253)" /></g><g
     id="g9889"
     transform="translate(-59.550549,66.716063)"
     inkscape:export-filename="../../Desktop/path9.png"
     inkscape:export-xdpi="888"
     inkscape:export-ydpi="888"><rect
       style="fill:#ffffff;fill-opacity:1;stroke:none;stroke-width:1;stroke-dasharray:none;stroke-opacity:1;paint-order:fill markers stroke"
       id="rect9885"
       width="32"
       height="32"
       x="66.992996"
       y="897.48401" /><path
       fill="url(#a)"
       d="m 90.883358,907.61856 -1.806809,1.79544 c -0.317866,0.2849 -0.471579,0.74359 -0.293404,1.13126 1.203704,2.51817 0.746781,5.52016 -1.228158,7.49356 -1.975786,1.97264 -4.981274,2.42905 -7.502443,1.22591 -0.371394,-0.16627 -0.807201,-0.0254 -1.093279,0.26459 l -1.836086,1.83311 c -0.215813,0.21137 -0.322046,0.50964 -0.287751,0.80875 0.0343,0.29996 0.205775,0.5665 0.463413,0.7227 4.3263,2.61843 9.88223,1.9509 13.463229,-1.61751 3.580991,-3.56755 4.263566,-9.11526 1.654569,-13.44309 -0.149735,-0.26318 -0.414065,-0.44198 -0.714365,-0.48375 -0.300292,-0.0426 -0.603105,0.0576 -0.818916,0.26903 z m -15.625541,-1.95089 c -3.59856,3.5542 -4.303718,9.10271 -1.70894,13.44145 0.149731,0.264 0.413224,0.44279 0.713522,0.48459 0.300298,0.0423 0.603106,-0.0575 0.819756,-0.26992 l 1.796771,-1.78463 c 0.325392,-0.2849 0.484128,-0.74859 0.303447,-1.14129 -1.203702,-2.51815 -0.747621,-5.52008 1.228157,-7.49348 1.974941,-1.97261 4.981262,-2.42918 7.501598,-1.2269 0.367214,0.16459 0.79717,0.0279 1.084084,-0.2536 l 1.846121,-1.84394 c 0.215812,-0.21055 0.322047,-0.50882 0.287752,-0.80876 -0.03511,-0.29911 -0.205776,-0.56563 -0.463413,-0.72271 -4.333831,-2.59589 -9.881397,-1.90827 -13.44817,1.66849 z"
       id="path9829"
       inkscape:export-filename="../../Desktop/path9.png"
       inkscape:export-xdpi="2599.3848"
       inkscape:export-ydpi="2599.3848"
       style="fill:url(#linearGradient9831);stroke-width:0.987992"
       sodipodi:nodetypes="ccccccccccccccccccccccccccc" /></g><path
     fill="url(#a)"
     d="m 113.94383,1029.4828 -2.13532,2.1219 c -0.37566,0.3367 -0.55732,0.8788 -0.34675,1.3369 1.42256,2.976 0.88256,6.5238 -1.45146,8.856 -2.33502,2.3313 -5.88696,2.8707 -8.86652,1.4488 -0.43892,-0.1965 -0.95397,-0.03 -1.292059,0.3127 l -2.16992,2.1664 c -0.255052,0.2498 -0.3806,0.6023 -0.340069,0.9558 0.04053,0.3545 0.243189,0.6695 0.54767,0.8541 5.112898,3.0945 11.678998,2.3056 15.911088,-1.9116 4.23208,-4.2162 5.03876,-10.7726 1.9554,-15.8873 -0.17696,-0.311 -0.48935,-0.5223 -0.84425,-0.5717 -0.35489,-0.05 -0.71276,0.068 -0.96781,0.318 z m -18.466548,-2.3056 c -4.252844,4.2004 -5.086212,10.7577 -2.019656,15.8853 0.176955,0.312 0.488355,0.5233 0.843253,0.5727 0.354898,0.05 0.712762,-0.068 0.968803,-0.319 l 2.123456,-2.1091 c 0.384555,-0.3367 0.572152,-0.8847 0.35862,-1.3488 -1.422557,-2.976 -0.883553,-6.5237 1.451458,-8.8559 2.334024,-2.3313 5.886944,-2.8708 8.865524,-1.45 0.43398,0.1945 0.94211,0.033 1.28119,-0.2997 l 2.18178,-2.1792 c 0.25505,-0.2488 0.3806,-0.6013 0.34007,-0.9558 -0.0415,-0.3535 -0.24319,-0.6685 -0.54767,-0.8541 -5.1218,-3.0679 -11.678013,-2.2552 -15.893291,1.9718 z"
     id="path357"
     inkscape:export-filename="../../Desktop/path9.png"
     inkscape:export-xdpi="59.076923"
     inkscape:export-ydpi="59.076923"
     style="fill:#1a1a1a;stroke-width:0.987988"
     sodipodi:nodetypes="ccccccccccccccccccccccccccc" /><path
     fill="url(#a)"
     d="m 34.578696,1018.4726 -2.13532,2.1219 c -0.37566,0.3367 -0.55732,0.8788 -0.34675,1.3369 1.42256,2.976 0.88256,6.5238 -1.45146,8.856 -2.33502,2.3313 -5.88696,2.8707 -8.86652,1.4488 -0.43892,-0.1965 -0.95397,-0.03 -1.292059,0.3127 l -2.16992,2.1664 c -0.255052,0.2498 -0.3806,0.6023 -0.340069,0.9558 0.04053,0.3545 0.243189,0.6695 0.54767,0.8541 5.112898,3.0945 11.678998,2.3056 15.911088,-1.9116 4.23208,-4.2162 5.03876,-10.7726 1.9554,-15.8873 -0.17696,-0.311 -0.48935,-0.5223 -0.84425,-0.5717 -0.35489,-0.05 -0.71276,0.068 -0.96781,0.318 z m -18.466548,-2.3056 c -4.252844,4.2004 -5.086212,10.7577 -2.019656,15.8853 0.176955,0.312 0.488355,0.5233 0.843253,0.5727 0.354898,0.05 0.712762,-0.068 0.968803,-0.319 l 2.123456,-2.1091 c 0.384555,-0.3367 0.572152,-0.8847 0.35862,-1.3488 -1.422557,-2.976 -0.883553,-6.5237 1.451458,-8.8559 2.334024,-2.3313 5.886944,-2.8708 8.865524,-1.45 0.43398,0.1945 0.94211,0.033 1.28119,-0.2997 l 2.18178,-2.1792 c 0.25505,-0.2488 0.3806,-0.6013 0.34007,-0.9558 -0.0415,-0.3535 -0.24319,-0.6685 -0.54767,-0.8541 -5.1218,-3.0679 -11.678013,-2.2552 -15.893291,1.9718 z"
     id="path408"
     inkscape:export-filename="../../Desktop/path9.png"
     inkscape:export-xdpi="177.23076"
     inkscape:export-ydpi="177.23076"
     style="fill:#ffffff;stroke-width:0.987988"
     sodipodi:nodetypes="ccccccccccccccccccccccccccc" /><g
     id="g763"
     inkscape:export-filename="../../Desktop/path9.png"
     inkscape:export-xdpi="768"
     inkscape:export-ydpi="768"
     transform="translate(-49.90362,15.786265)"><g
       id="g761"
       inkscape:export-filename="./g369.png"
       inkscape:export-xdpi="3733.2917"
       inkscape:export-ydpi="3733.2917"><rect
         style="fill:#ffffff;fill-opacity:1;stroke:none;stroke-width:1;stroke-dasharray:none;stroke-opacity:1;paint-order:fill markers stroke"
         id="rect757"
         width="32"
         height="32"
         x="14.984506"
         y="888.74823"
         rx="5"
         ry="5" /><path
         fill="url(#a)"
         d="m 40.309479,897.8163 -2.13532,2.12189 c -0.37566,0.3367 -0.557321,0.87878 -0.34675,1.33694 1.422559,2.97602 0.882559,6.52382 -1.45146,8.85602 -2.33502,2.33131 -5.88696,2.8707 -8.866524,1.44881 -0.43892,-0.1965 -0.953964,-0.03 -1.292057,0.31269 l -2.169919,2.16641 c -0.255052,0.2498 -0.3806,0.6023 -0.34007,0.95579 0.04054,0.3545 0.243189,0.6695 0.54767,0.8541 5.1129,3.09451 11.678999,2.30561 15.911089,-1.9116 4.232081,-4.2162 5.03876,-10.77258 1.9554,-15.88729 -0.17696,-0.31103 -0.48935,-0.52234 -0.84425,-0.5717 -0.35489,-0.0503 -0.71276,0.0681 -0.967809,0.31794 z M 21.84293,895.5107 c -4.252844,4.20042 -5.086212,10.75775 -2.019657,15.88535 0.176955,0.312 0.488356,0.5233 0.843254,0.5727 0.354897,0.05 0.712761,-0.0679 0.968802,-0.319 l 2.123457,-2.1091 c 0.384554,-0.3367 0.572151,-0.8847 0.358619,-1.3488 -1.422557,-2.976 -0.883552,-6.52373 1.451458,-8.85593 2.334022,-2.33127 5.886947,-2.87085 8.865525,-1.44997 0.433981,0.19451 0.94211,0.033 1.281191,-0.29971 l 2.181779,-2.1792 c 0.255051,-0.24884 0.380601,-0.60134 0.340071,-0.95581 -0.04149,-0.35349 -0.24319,-0.66847 -0.54767,-0.85411 -5.121801,-3.06787 -11.678015,-2.25523 -15.893292,1.97185 z"
         id="path759"
         inkscape:export-filename="../../Desktop/path9.png"
         inkscape:export-xdpi="2599.3848"
         inkscape:export-ydpi="2599.3848"
         style="fill:url(#linearGradient765);stroke-width:0.987991"
         sodipodi:nodetypes="ccccccccccccccccccccccccccc" /></g></g><path
     style="fill:#000000;stroke-width:1"
     id="path2240"
     d="" /><g
     id="g340"
     inkscape:export-filename="../../Desktop/path9.png"
     inkscape:export-xdpi="2496"
     inkscape:export-ydpi="2496"
     transform="translate(-53.94018,69.130411)"><g
       id="g369"
       inkscape:export-filename="./g369.png"
       inkscape:export-xdpi="3733.2917"
       inkscape:export-ydpi="3733.2917"
       transform="translate(-2.1094037,-5.1776263)"><rect
         style="fill:#ffffff;fill-opacity:1;stroke:none;stroke-width:1;stroke-dasharray:none;stroke-opacity:1;paint-order:fill markers stroke"
         id="rect336"
         width="32"
         height="32"
         x="14.984506"
         y="888.74823"
         rx="7"
         ry="7" /><path
         fill="url(#a)"
         d="m 40.309479,897.8163 -2.13532,2.12189 c -0.37566,0.3367 -0.557321,0.87878 -0.34675,1.33694 1.422559,2.97602 0.882559,6.52382 -1.45146,8.85602 -2.33502,2.33131 -5.88696,2.8707 -8.866524,1.44881 -0.43892,-0.1965 -0.953964,-0.03 -1.292057,0.31269 l -2.169919,2.16641 c -0.255052,0.2498 -0.3806,0.6023 -0.34007,0.95579 0.04054,0.3545 0.243189,0.6695 0.54767,0.8541 5.1129,3.09451 11.678999,2.30561 15.911089,-1.9116 4.232081,-4.2162 5.03876,-10.77258 1.9554,-15.88729 -0.17696,-0.31103 -0.48935,-0.52234 -0.84425,-0.5717 -0.35489,-0.0503 -0.71276,0.0681 -0.967809,0.31794 z M 21.84293,895.5107 c -4.252844,4.20042 -5.086212,10.75775 -2.019657,15.88535 0.176955,0.312 0.488356,0.5233 0.843254,0.5727 0.354897,0.05 0.712761,-0.0679 0.968802,-0.319 l 2.123457,-2.1091 c 0.384554,-0.3367 0.572151,-0.8847 0.358619,-1.3488 -1.422557,-2.976 -0.883552,-6.52373 1.451458,-8.85593 2.334022,-2.33127 5.886947,-2.87085 8.865525,-1.44997 0.433981,0.19451 0.94211,0.033 1.281191,-0.29971 l 2.181779,-2.1792 c 0.255051,-0.24884 0.380601,-0.60134 0.340071,-0.95581 -0.04149,-0.35349 -0.24319,-0.66847 -0.54767,-0.85411 -5.121801,-3.06787 -11.678015,-2.25523 -15.893292,1.97185 z"
         id="path338"
         inkscape:export-filename="../../Desktop/path9.png"
         inkscape:export-xdpi="2599.3848"
         inkscape:export-ydpi="2599.3848"
         style="fill:url(#linearGradient342);stroke-width:0.987991"
         sodipodi:nodetypes="ccccccccccccccccccccccccccc" /></g></g></svg>
