<?xml version="1.0" encoding="UTF-8" standalone="no"?>
<!-- Created with Inkscape (http://www.inkscape.org/) -->

<svg
   width="512"
   height="512"
   viewBox="0 0 512 512"
   version="1.1"
   id="svg1"
   inkscape:export-filename="image.png"
   inkscape:export-xdpi="101.69607"
   inkscape:export-ydpi="101.69607"
   inkscape:version="1.3 (0e150ed6c4, 2023-07-21)"
   sodipodi:docname="logo_rustdesk.svg"
   xml:space="preserve"
   xmlns:inkscape="http://www.inkscape.org/namespaces/inkscape"
   xmlns:sodipodi="http://sodipodi.sourceforge.net/DTD/sodipodi-0.dtd"
   xmlns="http://www.w3.org/2000/svg"
   xmlns:svg="http://www.w3.org/2000/svg"><sodipodi:namedview
     id="namedview1"
     pagecolor="#ffffff"
     bordercolor="#000000"
     borderopacity="0.25"
     inkscape:showpageshadow="2"
     inkscape:pageopacity="0.0"
     inkscape:pagecheckerboard="0"
     inkscape:deskcolor="#d1d1d1"
     inkscape:document-units="px"
     inkscape:zoom="1.6199927"
     inkscape:cx="190.12432"
     inkscape:cy="288.58155"
     inkscape:window-width="2560"
     inkscape:window-height="1369"
     inkscape:window-x="-8"
     inkscape:window-y="-8"
     inkscape:window-maximized="1"
     inkscape:current-layer="g18"
     showguides="false"><sodipodi:guide
       position="0,256"
       orientation="0,256"
       id="guide2"
       inkscape:locked="false" /><sodipodi:guide
       position="256,256"
       orientation="-256,0"
       id="guide3"
       inkscape:locked="false" /></sodipodi:namedview><defs
     id="defs1"><inkscape:path-effect
       effect="fillet_chamfer"
       id="path-effect19"
       is_visible="true"
       lpeversion="1"
       nodesatellites_param="F,0,0,1,0,30,0,1 @ F,0,0,1,0,0,0,1 @ F,0,0,1,0,30,0,1 @ F,0,0,1,0,21.016058,0,1 @ F,0,0,1,0,0,0,1 @ F,0,0,1,0,15,0,1"
       radius="0"
       unit="px"
       method="auto"
       mode="F"
       chamfer_steps="1"
       flexible="false"
       use_knot_distance="true"
       apply_no_radius="true"
       apply_with_radius="true"
       only_selected="false"
       hide_knots="false" /><inkscape:path-effect
       effect="fillet_chamfer"
       id="path-effect15"
       is_visible="true"
       lpeversion="1"
       nodesatellites_param="F,0,0,1,0,0,0,1 @ F,0,0,1,0,30,0,1 @ F,0,0,1,0,19.589138,0,1 @ F,0,0,1,0,0,0,1 @ F,0,1,1,0,19.589138,0,1 @ F,0,0,1,0,30,0,1"
       radius="0"
       unit="px"
       method="auto"
       mode="F"
       chamfer_steps="1"
       flexible="false"
       use_knot_distance="true"
       apply_no_radius="true"
       apply_with_radius="true"
       only_selected="false"
       hide_knots="false" /><inkscape:path-effect
       effect="fillet_chamfer"
       id="path-effect14"
       is_visible="true"
       lpeversion="1"
       nodesatellites_param="F,0,0,1,0,30,0,1 @ F,0,0,1,0,0,0,1 @ F,0,0,1,0,30,0,1 @ F,0,0,1,0,21.016058,0,1 @ F,0,0,1,0,0,0,1 @ F,0,0,1,0,15,0,1"
       radius="0"
       unit="px"
       method="auto"
       mode="F"
       chamfer_steps="1"
       flexible="false"
       use_knot_distance="true"
       apply_no_radius="true"
       apply_with_radius="true"
       only_selected="false"
       hide_knots="false" /><inkscape:path-effect
       effect="fillet_chamfer"
       id="path-effect13"
       is_visible="true"
       lpeversion="1"
       nodesatellites_param="F,0,0,1,0,0,0,1 @ F,0,0,1,0,0,0,1 @ F,0,0,1,0,0,0,1 @ F,0,0,1,0,0,0,1 @ F,0,0,1,0,0,0,1 @ F,0,0,1,0,0,0,1"
       radius="0"
       unit="px"
       method="auto"
       mode="F"
       chamfer_steps="1"
       flexible="false"
       use_knot_distance="true"
       apply_no_radius="true"
       apply_with_radius="true"
       only_selected="false"
       hide_knots="false" /><inkscape:path-effect
       effect="fillet_chamfer"
       id="path-effect12"
       is_visible="true"
       lpeversion="1"
       nodesatellites_param="F,0,0,1,0,0,0,1 @ F,0,0,1,0,0,0,1 @ F,0,0,1,0,0,0,1 @ F,0,0,1,0,0,0,1 @ F,0,0,1,0,0,0,1 @ F,0,0,1,0,0,0,1"
       radius="0"
       unit="px"
       method="auto"
       mode="F"
       chamfer_steps="1"
       flexible="false"
       use_knot_distance="true"
       apply_no_radius="true"
       apply_with_radius="true"
       only_selected="false"
       hide_knots="false" /><filter
       id="mask-powermask-path-effect8_inverse"
       inkscape:label="filtermask-powermask-path-effect8"
       style="color-interpolation-filters:sRGB"
       height="100"
       width="100"
       x="-50"
       y="-50"><feColorMatrix
         id="mask-powermask-path-effect8_primitive1"
         values="1"
         type="saturate"
         result="fbSourceGraphic" /><feColorMatrix
         id="mask-powermask-path-effect8_primitive2"
         values="-1 0 0 0 1 0 -1 0 0 1 0 0 -1 0 1 0 0 0 1 0 "
         in="fbSourceGraphic" /></filter></defs><g
     inkscape:groupmode="layer"
     id="layer2"
     inkscape:label="Calque 2"
     style="display:inline"><g
       id="g15"
       transform="rotate(-45,256.07129,256)"
       style="fill:#006045;fill-opacity:1"><path
         style="fill:#006045;fill-opacity:1"
         d="M 21.931946,316.6119 C 49.122681,422.06769 144.61039,497.87901 256,497.97656 c 111.44383,-0.0319 207.00716,-75.8588 234.21065,-181.36465 4.1341,-16.03368 -7.75149,-29.43808 -24.32003,-29.43808 h -49.80229 c -11.60685,0 -22.93002,9.27517 -27.09341,20.09844 C 368.09821,361.5959 315.61924,398.56376 256,398.59375 194.46872,398.40596 140.62638,358.8887 121.32766,301.61337 118.68364,293.76635 110.57529,287.17383 102.29102,287.17383 H 46.251953 c -16.568542,0 -28.454131,13.4044 -24.320007,29.43807 z"
         id="path12"
         inkscape:original-d="M 16.251953,287.17383 A 241.97639,241.97639 0 0 0 256,497.97656 241.97639,241.97639 0 0 0 495.89062,287.17383 H 395.07227 A 142.59323,142.59323 0 0 1 256,398.59375 142.59323,142.59323 0 0 1 117.29102,287.17383 Z"
         inkscape:path-effect="#path-effect14" /><path
         style="display:inline;fill:#d8b568;fill-opacity:1;stroke:none;stroke-width:0.617287"
         d="M 61.748986,389.13702 C 54.234896,387.11765 50.271854,383.06254 43.390141,370.35168 17.015846,321.63707 8.3385391,263.76174 19.191256,208.95156 26.776138,170.64513 43.057101,135.70853 67.806557,104.6301 75.449569,95.032608 95.169177,75.305175 104.67205,67.749976 142.41014,37.746557 185.6393,20.268934 234.26032,15.357205 c 10.56306,-1.067087 35.72224,-0.892954 46.2965,0.320431 35.42373,4.064837 68.25961,14.710953 96.11023,31.161063 9.22982,5.451642 13.08947,11.37197 13.12788,20.136912 0.0245,5.590665 -1.10109,9.257888 -4.35771,14.197595 -1.11915,1.697539 -11.00834,12.013406 -21.97598,22.924154 -14.74013,14.66366 -20.74617,20.23637 -23.0276,21.36619 -4.71182,2.3334 -9.04463,3.1343 -15.05021,2.78196 -4.64832,-0.27272 -6.37274,-0.74327 -13.65363,-3.72581 -16.48638,-6.75346 -29.35664,-9.73485 -47.2218,-10.9389 -39.40255,-2.65559 -79.07659,12.00072 -107.65337,39.76911 -27.09063,26.32428 -41.99052,60.18162 -43.10362,97.94526 -0.65078,22.07891 2.42788,38.87325 11.06249,60.34671 3.75449,9.33708 4.57879,13.93232 3.57098,19.90727 -1.50516,8.92361 -2.63929,10.39108 -25.72775,33.28933 -17.030368,16.89007 -21.50337,20.99895 -24.332092,22.35137 -6.289193,3.00687 -10.703099,3.52539 -16.575652,1.94717 z"
         id="path15"
         transform="rotate(45,256.07129,256)" /></g></g><g
     inkscape:groupmode="layer"
     id="g18"
     inkscape:label="Copie de Calque 2"
     style="display:inline"><path
       d="m 252.55859,22.660156 c -4.63049,0.02284 -9.2596,0.145039 -13.88281,0.40625 -7.2108,0.452018 -14.37159,1.500011 -21.49219,2.695313 -1.61534,0.265072 -3.18426,0.573864 -4.84961,0.880859 -18.21597,3.502205 -36.04067,9.087821 -52.92578,16.779297 -1.37288,0.632344 -2.95552,1.35896 -4.39453,2.058594 -10.78779,5.170629 -21.2431,11.261207 -31.0625,17.976562 -3.43319,2.348325 -6.68546,4.70911 -10.01172,7.232422 -4.29529,3.203617 -8.38598,6.670025 -12.29492,10.333984 -5.393629,5.017578 -10.727435,10.255485 -15.871093,15.605469 -5.664773,5.846014 -11.169918,11.966414 -16.027343,18.574224 -2.921702,3.91826 -5.776471,7.93061 -8.441407,11.96093 -2.214045,3.34342 -4.435806,6.89287 -6.505859,10.40625 -5.149477,8.73225 -9.784264,17.90334 -13.763672,27.29297 -1.753478,4.1364 -3.351499,8.22412 -4.865234,12.46875 -1.349076,3.77443 -2.592448,7.57292 -3.751953,11.4707 -1.164773,3.91238 -2.207401,7.76652 -3.179688,11.77539 -0.08767,0.36059 -0.156214,0.72681 -0.242187,1.0879 C 57.893134,105.37426 147.26335,35.185776 253.08789,35.185547 c 47.11192,1.02e-4 90.93705,13.956845 127.65234,37.884765 0.57573,-1.459688 0.96388,-2.992573 1.03516,-4.570312 0.20025,-3.282814 -0.32978,-6.799885 -2.47852,-9.412109 -2.77079,-3.268673 -6.67643,-5.415739 -10.41992,-7.484375 -5.46893,-3.08071 -11.08117,-5.907591 -16.80468,-8.484375 -3.56282,-1.595336 -7.32294,-3.177221 -11.0293,-4.603516 -9.34946,-3.62325 -19.05676,-6.644582 -28.85156,-9.054688 -4.80952,-1.188446 -9.88681,-2.281133 -14.75782,-3.179687 -10.22802,-1.872189 -20.57766,-3.273446 -30.98632,-3.431641 -4.62725,-0.136089 -9.25818,-0.212296 -13.88868,-0.189453 z"
       style="display:inline;fill:#ffffff;stroke-width:0.617287;opacity:0.274"
       id="path22" /><path
       d="m 260.25436,489.58731 c 4.63049,-0.0228 9.2596,-0.14504 13.88281,-0.40625 7.2108,-0.45202 14.37159,-1.50001 21.49219,-2.69532 1.61534,-0.26507 3.18426,-0.57386 4.84961,-0.88086 18.21597,-3.5022 36.04067,-9.08782 52.92578,-16.77929 1.37288,-0.63235 2.95552,-1.35896 4.39453,-2.0586 10.78779,-5.17063 21.2431,-11.2612 31.0625,-17.97656 3.43319,-2.34832 6.68546,-4.70911 10.01172,-7.23242 4.29529,-3.20362 8.38598,-6.67002 12.29492,-10.33398 5.39363,-5.01758 10.72743,-10.25549 15.87109,-15.60547 5.66478,-5.84602 11.16992,-11.96642 16.02735,-18.57423 2.9217,-3.91826 5.77647,-7.93061 8.4414,-11.96093 2.21405,-3.34342 4.43581,-6.89287 6.50586,-10.40625 5.14948,-8.73225 9.78427,-17.90334 13.76367,-27.29297 1.75348,-4.1364 3.3515,-8.22412 4.86524,-12.46875 1.34907,-3.77443 2.59245,-7.57292 3.75195,-11.4707 1.16477,-3.91238 2.2074,-7.76652 3.17969,-11.77539 0.0877,-0.36059 0.15621,-0.72681 0.24219,-1.0879 -28.89704,96.29176 -118.26726,166.48025 -224.0918,166.48048 -47.11192,-1.1e-4 -90.93705,-13.95685 -127.65234,-37.88477 -0.57573,1.45969 -0.96388,2.99257 -1.03516,4.57031 -0.20025,3.28282 0.32978,6.79989 2.47852,9.41211 2.77079,3.26867 6.67643,5.41574 10.41992,7.48438 5.46893,3.08071 11.08117,5.90759 16.80468,8.48437 3.56282,1.59534 7.32294,3.17722 11.0293,4.60352 9.34946,3.62325 19.05676,6.64458 28.85156,9.05469 4.80952,1.18844 9.88681,2.28113 14.75782,3.17968 10.22802,1.87219 20.57766,3.27345 30.98632,3.43164 4.62725,0.13609 9.25818,0.2123 13.88868,0.18946 z"
       style="display:inline;opacity:0.274;fill:#ffffff;stroke-width:0.617287"
       id="path22-8" /></g><g
     inkscape:groupmode="layer"
     id="layer4"
     inkscape:label="Copie de Calque 3"><path
       d="M 253.08789,35.185547 A 233.95168,233.64304 0 0 0 19.136719,268.82812 233.95168,233.64304 0 0 0 253.08789,502.4707 233.95168,233.64304 0 0 0 487.03906,268.82812 233.95168,233.64304 0 0 0 253.08789,35.185547 Z"
       style="display:none;fill:#0000ff"
       id="path21" /></g></svg>
