<?xml version="1.0" encoding="UTF-8" standalone="no"?>
<svg
   xml:space="preserve"
   width="1000"
   height="286.6"
   style="clip-rule:evenodd;fill-rule:evenodd;stroke-linejoin:round;stroke-miterlimit:1.41420996"
   version="1.1"
   id="svg4"
   sodipodi:docname="logo-header.svg"
   inkscape:version="1.3.2 (091e20e, 2023-11-25, custom)"
   xmlns:inkscape="http://www.inkscape.org/namespaces/inkscape"
   xmlns:sodipodi="http://sodipodi.sourceforge.net/DTD/sodipodi-0.dtd"
   xmlns:xlink="http://www.w3.org/1999/xlink"
   xmlns="http://www.w3.org/2000/svg"
   xmlns:svg="http://www.w3.org/2000/svg"><sodipodi:namedview
     id="namedview4"
     pagecolor="#ffffff"
     bordercolor="#000000"
     borderopacity="0.25"
     inkscape:showpageshadow="2"
     inkscape:pageopacity="0.0"
     inkscape:pagecheckerboard="0"
     inkscape:deskcolor="#d1d1d1"
     inkscape:zoom="2.043"
     inkscape:cx="500"
     inkscape:cy="143.17181"
     inkscape:window-width="2560"
     inkscape:window-height="1369"
     inkscape:window-x="-8"
     inkscape:window-y="-8"
     inkscape:window-maximized="1"
     inkscape:current-layer="svg4" /><path
     d="M0 0h1000v286.6H0z"
     style="opacity:1;fill:#e5e5e5;fill-opacity:1;fill-rule:evenodd;stroke:none;stroke-width:.14294769px;stroke-linecap:butt;stroke-linejoin:miter;stroke-miterlimit:4;stroke-dasharray:none;stroke-dashoffset:0;stroke-opacity:1;marker:none"
     id="path1" /><defs
     id="defs2"><linearGradient
       xlink:href="#a"
       id="c"
       x1=".1"
       x2=".8"
       y1=".9"
       y2=".2"
       gradientTransform="matrix(94.00173 0 0 93.99768 453 52.2)"
       gradientUnits="userSpaceOnUse" /><linearGradient
       id="a"
       x1=".1"
       x2=".8"
       y1=".9"
       y2=".2"
       gradientTransform="matrix(26.301 0 0 26.331 90.7 911.8)"
       gradientUnits="userSpaceOnUse"><stop
         offset="0"
         stop-color="#004ba6"
         style="stop-color:#0071ff;stop-opacity:1"
         id="stop1" /><stop
         offset="1"
         stop-color="#00bfe1"
         style="stop-color:#00bfe1;stop-opacity:1"
         id="stop2" /></linearGradient><path
       id="b"
       d="M412.8 154.2h247V204h-247z" /></defs><g
     style="clip-rule:evenodd;fill-rule:evenodd;stroke-linejoin:round;stroke-miterlimit:1.41421"
     id="g4"><g
       style="font-size:40px;line-height:1.25;white-space:pre;shape-inside:url(#b);fill:#0071ff"
       transform="translate(-20 28.7)"
       id="g2"><path
         d="M438.4 187.4q.5.7.5 1.4 0 .9-.8 1.5-.7.6-1.7.6-.6 0-1.2-.3t-1-.9l-5.3-8q-.8-1.4-1.7-1.9-1-.5-2.4-.5H421v9q0 1.2-.7 1.9-.6.7-1.8.7-1.2 0-1.9-.7t-.7-2V165q0-1.2.7-1.8.7-.7 1.8-.7h10q4.8 0 7.3 2.2 2.5 2.1 2.5 6.1 0 3.3-1.9 5.4-1.8 2.1-5.2 2.7 1.2.3 2 1 1 .7 1.8 2zm-10.8-12q3 0 4.3-1.1 1.3-1.2 1.3-3.4 0-2.4-1.3-3.4-1.4-1-4.3-1h-6.7v8.8zm27.7 15.6q-5.8 0-8.8-3-3-3-3-8.8v-14.4q0-1.2.7-1.9.6-.7 1.8-.7 1.2 0 1.8.7.7.7.7 1.9v14.7q0 3.6 1.7 5.5 1.8 1.9 5 1.9 3.4 0 5-2 1.8-1.8 1.8-5.4v-14.7q0-1.2.7-1.9t1.8-.7q1.2 0 1.9.7.6.7.6 1.9v14.4q0 5.7-3 8.8-3 3-8.7 3zm27.4 0q-3 0-5.8-.8-2.7-.9-4.5-2.3-.9-.6-.9-1.9 0-.8.5-1.4.5-.7 1.2-.7t1.6.6q1.8 1.2 3.6 1.8 2 .6 4.2.6 3 0 4.5-1t1.5-3q0-1.6-1.4-2.4-1.5-.8-4.9-1.6-3.5-.7-5.7-1.7t-3.3-2.6q-1.1-1.5-1.1-4 0-2.4 1.4-4.4 1.4-2 3.8-3 2.6-1.1 5.7-1.1 5.7 0 9.3 3 .5.4.7.9.3.4.3 1 0 .9-.6 1.5-.4.6-1.1.6l-.8-.1-.9-.5q-1.6-1.2-3.2-1.7-1.5-.6-3.7-.6-2.7 0-4.3 1.1-1.6 1-1.6 3 0 1.7 1.4 2.6 1.4.8 4.8 1.6 3.5.8 5.7 1.8 2.3 1 3.4 2.5 1.2 1.5 1.2 3.8 0 2.5-1.4 4.4-1.3 1.9-3.9 3-2.4 1-5.7 1zm24.4-.2q-1.2 0-1.9-.7t-.7-1.8v-21.6h-7.3q-2.4 0-2.4-2.2t2.4-2H517q2.4 0 2.4 2t-2.4 2.2h-7.3v21.6q0 1.1-.7 1.8t-1.9.7zm17.8-.2q-1.2 0-1.9-.6-.6-.7-.6-1.8v-23.3q0-1.2.6-1.8.7-.7 1.9-.7h8q6.8 0 10.6 3.7 3.9 3.7 3.9 10.4t-3.9 10.4q-3.8 3.7-10.7 3.7zm7.6-4.2q9.7 0 9.7-9.9t-9.7-9.9h-5v19.8zm22.5 4.2q-1.1 0-1.8-.6-.6-.7-.6-1.8v-23.3q0-1.2.6-1.8.7-.7 1.8-.7h14.5q1.1 0 1.8.5.6.6.6 1.5 0 1-.6 1.6-.7.5-1.8.5h-11.9v7.8h11q1.2 0 1.9.5.6.5.6 1.5t-.6 1.5-1.8.5h-11v8.2h11.8q1.1 0 1.8.6.6.5.6 1.5t-.6 1.5-1.8.5zm30.5.4q-3.1 0-5.9-.8-2.7-.9-4.4-2.3-1-.6-1-1.9 0-.8.6-1.4.5-.7 1.2-.7t1.6.6q1.7 1.2 3.6 1.8 1.9.6 4.2.6 2.9 0 4.4-1 1.6-1 1.6-3 0-1.6-1.5-2.4-1.4-.8-4.8-1.6-3.5-.7-5.7-1.7t-3.4-2.6q-1-1.5-1-4 0-2.4 1.3-4.4 1.4-2 3.9-3 2.5-1.1 5.6-1.1 5.8 0 9.4 3 .5.4.7.9.2.4.2 1 0 .9-.5 1.5t-1.2.6l-.7-.1-.9-.5q-1.6-1.2-3.2-1.7-1.5-.6-3.8-.6-2.7 0-4.3 1.1-1.5 1-1.5 3 0 1.7 1.4 2.6 1.4.8 4.7 1.6 3.6.8 5.8 1.8 2.2 1 3.4 2.5 1.2 1.5 1.2 3.8 0 2.5-1.4 4.4-1.4 1.9-3.9 3-2.5 1-5.7 1zm37.6-4.3q.8.8.8 1.8 0 .9-.7 1.6-.7.7-1.6.7-1 0-1.9-.9l-13.3-12.4v10.8q0 1.1-.7 1.8-.7.8-1.9.8t-1.9-.8q-.7-.7-.7-1.8v-23.5q0-1.2.7-1.9t1.9-.7q1.2 0 1.9.7t.7 1.9V175l12.9-12.1q.7-.7 1.6-.7 1 0 1.6.7.7.7.7 1.6t-.8 1.7l-10.7 9.8z"
         aria-label="RUSTDESK"
         style="font-weight:700;font-family:Nunito;-inkscape-font-specification:&quot;Nunito Bold&quot;"
         id="path2" /></g><g
       style="font-size:22.6667px;line-height:1.25;fill:#0071ff"
       id="g3"><path
         d="M390.8 212.4q.3-.4.7-.4.5 0 .8.3.3.4.3.8t-.3.7l-5.3 6.7v6.5q0 .6-.4 1-.3.2-.8.2t-.8-.3q-.3-.3-.3-.9v-6.5l-5.4-6.7q-.3-.3-.3-.7 0-.5.3-.8.4-.3.8-.3.5 0 .8.4l5 6.2zm6.6 15.9q-1.6 0-2.9-.8-1.2-.7-1.9-2-.6-1.3-.6-3t.6-3q.7-1.3 2-2 1.2-.7 2.8-.7t2.8.7q1.3.7 2 2 .6 1.3.6 3t-.6 3q-.7 1.3-2 2-1.2.8-2.8.8zm0-1.9q1.5 0 2.3-1 .8-1 .8-2.9t-.8-2.9q-.8-1-2.3-1t-2.3 1q-.8 1-.8 3 0 1.8.8 2.8.8 1 2.3 1zm16.5-9.6q.6 0 .9.3.3.3.3.8v9.2q0 .5-.3.8-.4.3-.9.3t-.8-.3q-.2-.3-.2-.7v-.9q-.6 1-1.5 1.5-1 .5-2 .5-4 0-4-4.5V218q0-.5.2-.8.3-.3.9-.3.5 0 .8.3.3.3.3.8v5.9q0 1.3.6 2 .5.6 1.6.6 1.4 0 2.2-.9.8-.8.8-2.3V218q0-.5.3-.8.3-.3.8-.3zm10.2 0q1 0 1 1 0 .4-.2.7-.2.2-.9.3h-.6q-1.5.2-2.2 1-.6 1-.6 2.1v5.2q0 .6-.4.8-.3.3-.8.3t-.8-.3q-.3-.2-.3-.8V218q0-.5.3-.8.3-.3.8-.3t.8.3q.3.3.3.8v1q.4-1 1.3-1.5t2-.6zm14.3 0q1 0 1 1 0 .4-.2.7l-.9.3h-.7q-1.4.2-2 1-.8 1-.8 2.1v5.2q0 .6-.3.8-.3.3-.8.3t-.8-.3q-.4-.2-.4-.8V218q0-.5.4-.8.3-.3.8-.3t.8.3q.3.3.3.8v1q.4-1 1.3-1.5.8-.5 2-.6zm10.9 8.5q.3 0 .5.3.2.2.2.6 0 .6-.8 1.1-.8.5-1.8.7-.9.3-1.7.3-2.7 0-4.2-1.6-1.5-1.5-1.5-4.2 0-1.7.6-3 .7-1.3 2-2 1.1-.7 2.7-.7 2.2 0 3.5 1.4 1.3 1.4 1.3 3.8 0 1-.8 1h-7q.2 3.5 3.3 3.5.9 0 1.5-.3l1.3-.6.4-.1.5-.2zm-4-6.9q-1.3 0-2 .9-.9.8-1 2.3h5.8q0-1.5-.8-2.3-.7-.9-2-.9zm20-1.6q3.7 0 3.7 4.4v6q0 .4-.3.7-.3.3-.8.3t-.9-.3q-.3-.3-.3-.8v-5.9q0-1.3-.5-2-.5-.6-1.5-.6-1.3 0-2 .9-.7.8-.7 2.3v5.3q0 .5-.3.8-.4.3-.9.3t-.8-.3q-.3-.3-.3-.8v-5.9q0-1.3-.5-2-.5-.6-1.6-.6-1.2 0-2 .9-.7.8-.7 2.3v5.3q0 .5-.3.8-.3.3-.8.3t-.9-.3q-.3-.3-.3-.8V218q0-.5.3-.8.4-.3.9-.3.4 0 .7.3.4.3.4.8v.8q.5-1 1.3-1.4 1-.5 2-.5 1.3 0 2.2.5.8.5 1.2 1.6.5-1 1.5-1.5 1-.6 2.2-.6zm11.7 11.5q-1.7 0-3-.8-1.2-.7-1.8-2-.7-1.3-.7-3t.7-3q.6-1.3 1.9-2 1.2-.7 2.9-.7t2.8.7q1.3.7 2 2 .6 1.3.6 3t-.7 3q-.6 1.3-1.9 2-1.2.8-2.8.8zm0-1.9q1.5 0 2.3-1 .8-1 .8-2.9t-.8-2.9q-.9-1-2.3-1t-2.4 1q-.8 1-.8 3 0 1.8.8 2.8.8 1 2.4 1zm13.3 0q.5.1.7.3.2.2.2.6 0 .5-.3.7-.4.3-1 .2h-.7q-1.8-.2-2.7-1.1-1-1-1-3v-5.3h-1.3q-1 0-1-.9 0-.4.3-.6.3-.3.7-.3h1.4v-2.3q0-.5.3-.8.3-.3.8-.3t.9.3q.3.3.3.8v2.3h2.2q.5 0 .7.3.3.2.3.6 0 .4-.3.7-.2.2-.7.2H488v5.5q0 1 .4 1.6.5.4 1.4.5zm11.2-1q.4 0 .6.2.2.2.2.6 0 .6-.8 1.1-.8.5-1.8.7-1 .3-1.8.3-2.6 0-4.1-1.6-1.5-1.5-1.5-4.2 0-1.7.6-3 .7-1.3 1.9-2t2.8-.7q2.2 0 3.5 1.4 1.3 1.4 1.3 3.8 0 1-.9 1h-7q.3 3.5 3.4 3.5.9 0 1.5-.3l1.3-.6.3-.1.5-.2zm-3.9-7q-1.3 0-2.1.9-.8.8-1 2.3h5.9q0-1.5-.8-2.3-.7-.9-2-.9zm22.3-6.4q.5 0 .8.3.4.3.4.8v14q0 .5-.4.8-.3.3-.8.3t-.8-.3q-.3-.3-.3-.8v-1q-.5 1-1.5 1.6-1 .6-2.2.6-1.4 0-2.5-.8-1.1-.7-1.8-2-.6-1.3-.6-3 0-1.8.6-3 .7-1.3 1.8-2 1-.7 2.5-.7 1.3 0 2.2.5 1 .5 1.5 1.5V213q0-.4.3-.7.3-.3.8-.3zm-4.2 14.4q1.5 0 2.3-1 .8-1 .8-2.9t-.8-2.9q-.8-1-2.3-1t-2.3 1q-.9 1-.9 2.9 0 1.8.9 2.9.8 1 2.3 1zm17.2-1q.3 0 .5.2t.2.6q0 .6-.8 1.1-.8.5-1.7.7-1 .3-1.8.3-2.6 0-4.2-1.6-1.5-1.5-1.5-4.2 0-1.7.7-3t1.9-2q1.2-.7 2.7-.7 2.2 0 3.5 1.4 1.3 1.4 1.3 3.8 0 1-.8 1h-7q.2 3.5 3.4 3.5.8 0 1.4-.3.7-.2 1.3-.6l.4-.1.5-.2zm-4-7q-1.2 0-2 .9-.8.8-1 2.3h5.9q-.1-1.5-.8-2.3-.7-.9-2-.9zm11.2 9.9q-2.3 0-3.8-1-.4-.2-.6-.5l-.1-.6q0-.4.2-.6.2-.3.5-.3t1 .4l1.2.6q.7.2 1.7.2t1.7-.4q.6-.4.6-1 0-.5-.3-.8-.2-.3-.8-.5l-1.7-.5q-2-.4-3-1.1-.8-.8-.8-2 0-1 .6-1.8t1.6-1.2q1-.4 2.2-.4 1 0 1.8.2.9.2 1.5.7.8.5.8 1.1 0 .4-.3.7-.2.2-.5.2h-.4q-.2 0-.5-.4l-1.2-.5q-.5-.2-1.3-.2-1 0-1.5.4-.6.4-.6 1 0 .7.5 1 .6.4 2 .7 1.6.3 2.4.8.9.4 1.2 1 .4.6.4 1.5 0 1.5-1.2 2.4-1.2.9-3.3.9zm16.4-2q.4.3.4.8t-.3.8q-.3.3-.7.3-.5 0-.8-.3l-5.6-5v4.2q0 .5-.4.8-.3.3-.8.3t-.8-.3q-.3-.3-.3-.8v-14q0-.5.3-.8.3-.3.8-.3t.8.3q.4.3.4.8v8.9l5.1-4.8q.4-.4.8-.4t.7.3q.3.4.3.8t-.3.8l-4 3.7zm7.7.2q.5 0 .7.2.3.2.3.6 0 .5-.4.7-.3.3-1 .2h-.6q-1.9-.2-2.8-1.1-.9-1-.9-3v-5.3h-1.3q-1 0-1-.9 0-.4.2-.6.3-.3.8-.3h1.3v-2.3q0-.5.3-.8.3-.3.9-.3.5 0 .8.3.3.3.3.8v2.3h2.3q.4 0 .7.3.3.2.3.6 0 .4-.3.7-.3.2-.7.2h-2.3v5.5q0 1 .4 1.6.5.4 1.4.5zm7.4 1.8q-1.6 0-2.8-.8-1.3-.7-2-2-.6-1.3-.6-3t.6-3q.7-1.3 2-2 1.2-.7 2.8-.7t2.9.7q1.2.7 1.9 2t.7 3q0 1.7-.7 3t-2 2q-1.1.8-2.8.8zm0-1.9q1.5 0 2.3-1 .9-1 .9-2.9t-.9-2.9q-.8-1-2.3-1t-2.3 1q-.8 1-.8 3 0 1.8.8 2.8.8 1 2.3 1zm14-9.6q1.4 0 2.5.7t1.7 2q.7 1.3.7 3 0 1.8-.6 3t-1.8 2q-1.1.8-2.6.8-1.2 0-2.2-.6-.9-.5-1.4-1.5v5q0 .5-.3.8-.3.3-.8.3t-.9-.3q-.3-.3-.3-.8v-13.3q0-.5.3-.8.3-.3.9-.3.5 0 .8.3.3.3.3.8v1q.5-1 1.4-1.6 1-.5 2.2-.5zm-.6 9.6q1.5 0 2.3-1 .8-1 .8-2.8 0-2-.8-3t-2.3-1q-1.5 0-2.3 1-.8 1-.8 3 0 1.8.8 2.8.8 1 2.3 1z"
         aria-label="Your remote desktop"
         style="font-weight:600;font-family:Nunito;-inkscape-font-specification:&quot;Nunito Semi-Bold&quot;"
         transform="translate(17.5 27.5)"
         id="path3" /></g></g><path
     fill="url(#b)"
     d="m533.7 74.2-7.7 7.6c-1.4 1.3-2 3.2-1.3 4.9a28 28 0 0 1-5.2 32 28.1 28.1 0 0 1-32 5.2c-1.7-.7-3.5 0-4.7 1.2l-7.9 7.8a4.2 4.2 0 0 0 .8 6.5 47 47 0 0 0 64.6-64.3 4.2 4.2 0 0 0-3-2 4.2 4.2 0 0 0-3.6 1zM467 65.8a46.9 46.9 0 0 0-7.3 57.5 4.2 4.2 0 0 0 6.6.9l7.7-7.6c1.4-1.3 2-3.2 1.3-5a28 28 0 0 1 5.2-32 28.1 28.1 0 0 1 32-5.2c1.6.7 3.5.1 4.7-1l7.9-8a4.2 4.2 0 0 0-.8-6.5 47 47 0 0 0-57.4 7.1z"
     style="isolation:isolate;fill:url(#c);stroke-width:.987988"
     id="path4" /><path
     style="fill:#2ca037;fill-opacity:1"
     d="m 462.06559,69.995105 c -0.25669,0.308026 -3.41958,4.001557 -3.91581,4.894763 -0.4267,0.768067 -0.58601,1.661505 -0.97895,2.447381 -0.26309,0.526171 -0.7724,0.917608 -0.97896,1.468429 -0.55558,1.481547 -0.42337,2.923739 -0.97895,4.405286 -0.2562,0.68321 -0.72275,1.274696 -0.97895,1.957905 -0.90992,2.426453 -0.85259,4.814928 -0.97895,7.342144 -0.11973,2.39456 -0.71447,7.354172 -0.48948,10.278997 0.3353,4.35889 0.54733,1.77881 1.95791,6.3632 2.89193,9.3988 -1.30474,-1.95631 0.97895,4.89476 0.27785,0.83355 0.76585,1.59498 0.97895,2.44738 0.77702,3.10807 0.97332,6.35193 2.44738,9.30005 0.36484,0.72967 1.1036,1.22824 1.46843,1.9579 0.46148,0.92297 0.55195,1.99745 0.97895,2.93686 1.39842,3.07651 9.07379,12.4878 12.72639,13.70534 2.80163,0.93388 5.43384,0.78647 8.32109,0.97895 2.41043,0.16069 4.8914,0.89793 7.34215,0.48948 0.86668,-0.14445 1.61383,-0.70111 2.44738,-0.97896 3.18531,-1.06177 6.43884,-2.51802 9.78952,-2.93685 0.6476,-0.081 1.30527,0 1.95791,0 0.81579,-0.32632 1.58581,-0.80664 2.44738,-0.97896 0.79995,-0.15999 1.63658,0.0901 2.44738,0 3.83711,-0.42634 7.07852,-2.53834 10.279,-4.40528 3.02581,-1.76506 5.52216,-2.25538 7.83162,-4.89477 0.61378,-0.70145 4.03722,-4.74012 4.40529,-5.38423 0.66752,-1.16818 0.60933,-2.62214 0.97895,-3.91581 1.58781,-5.55735 2.79044,-10.9191 3.42634,-16.6422 0.50799,-4.57197 0.48947,-9.074107 0.48947,-13.705333 0,-1.30527 0.28315,-2.641622 0,-3.91581 -0.1906,-0.857714 -0.7011,-1.613833 -0.97895,-2.447381 -1.12001,-3.360034 -1.82462,-7.075574 -3.42633,-10.279002 -3.50833,-7.016654 -8.42443,-14.491214 -15.66325,-18.110622 -0.78587,-0.392938 -1.6615,-0.586014 -2.44738,-0.978952 -0.52617,-0.263086 -0.89771,-0.836274 -1.46843,-0.978953 -0.79143,-0.197859 -1.63657,0.09009 -2.44738,0 -0.6686,-0.07429 -1.30527,-0.326317 -1.9579,-0.489476 -0.8158,-0.163159 -1.61956,-0.406694 -2.44738,-0.489476 -3.89976,-0.389976 -7.83091,-0.34442 -11.74743,-0.489476 -3.89756,-0.144354 -8.34987,-0.431894 -12.23691,0 -2.92475,0.324972 -5.63558,1.929788 -8.3211,2.936857 -0.62988,0.236208 -1.3562,0.188627 -1.9579,0.489476 -2.06353,1.031767 -3.08873,3.115264 -4.89476,4.405287 -0.59376,0.424111 -1.39736,0.51183 -1.95791,0.978952 -0.45193,0.376606 -0.60235,1.016502 -0.97895,1.468429 -1.76011,2.112134 -3.0332,3.962039 -4.40529,6.363191 -0.16785,0.293738 -2.1902,2.704566 -1.46843,3.426334 0.46295,0.462947 4.89477,-0.859926 4.89477,-1.468428 0,-0.83195 -0.32632,-1.631588 -0.48948,-2.447382 z"
     id="path5" /></svg>
