<svg xmlns="http://www.w3.org/2000/svg" width="120" height="60" fill="#c8001d"><path d="M10 39.345l6.9-9.198-6.26-8.43h2.585c1.66 0 2.117.682 2.704 1.38l3.13 4.314 2.96-3.93c1.23-1.648 1.6-1.763 3.365-1.763H27.6l-6.348 8.427 12.315 16.733h-2.724c-1.565 0-2.164-.663-2.577-1.215L19.024 32.93l-3.852 5.13c-.5.657-1.23 1.287-2.608 1.287zm25.913 0h-3.526V24.922h-4.12l2.244-3.205h1.875V19.92c0-6.05 5.763-7.52 9-6.496l-.723 3.204c-2.395-.52-4.75.34-4.75 3.968v1.122h4.535v3.205h-4.535zM46.86 21.717v17.628h-3.606V21.717zm4.24 17.628V21.717h3.558v1.763s1.74-2.128 5.508-2.128c4.32 0 7.105 3.208 7.105 7.576v10.417H65.3c-1.066 0-1.603-.83-1.603-1.603V29.73c0-3.32-1.7-4.96-4.363-4.96-3.26 0-4.675 2.556-4.675 2.556v12.02zm23.92-17.628v17.628h-3.606V21.717zm2.768 3.205v-3.205h3.798v-5.522l3.574-1.53v7.05h3.526l1.442 3.205H85.16v8.333c0 2.472 2.217 3.63 4.88 2.896l.723 3.154s-1.022.362-2.618.362c-4.2 0-6.558-2.7-6.558-6.25V24.92zm13.782-3.205h1.763c2.04 0 2.502.628 3.1 2.042l4.015 8.62 4.85-9.07c.587-1.032 1.145-1.593 2.93-1.593H110l-12.443 23.12c-.85 1.535-1.322 2.043-3.263 2.043H92.46l5.977-10.805z"/></svg>