<svg xmlns="http://www.w3.org/2000/svg" width="1000" height="286"><path fill="#0071ff" fill-rule="evenodd" d="M418.4 215.5c.333.467.5.933.5 1.4 0 .6-.267 1.1-.8 1.5-.467.4-1.033.6-1.7.6-.4 0-.8-.1-1.2-.3-.4-.2-.733-.5-1-.9l-5.3-8c-.533-.933-1.1-1.567-1.7-1.9-.667-.333-1.467-.5-2.4-.5H401v9c0 .8-.233 1.433-.7 1.9-.4.467-1 .7-1.8.7s-1.433-.233-1.9-.7c-.467-.467-.7-1.133-.7-2v-23.2c0-.8.233-1.4.7-1.8.467-.467 1.067-.7 1.8-.7h10c3.2 0 5.633.733 7.3 2.2 1.667 1.4 2.5 3.433 2.5 6.1 0 2.2-.633 4-1.9 5.4-1.2 1.4-2.933 2.3-5.2 2.7.8.2 1.467.533 2 1 .667.467 1.267 1.133 1.8 2Zm-10.8-12c2 0 3.433-.367 4.3-1.1.867-.8 1.3-1.933 1.3-3.4 0-1.6-.433-2.733-1.3-3.4-.933-.667-2.367-1-4.3-1h-6.7v8.8Zm27.7 15.6c-3.867 0-6.8-1-8.8-3-2-2-3-4.933-3-8.8v-14.4c0-.8.233-1.433.7-1.9.4-.467 1-.7 1.8-.7s1.4.233 1.8.7c.467.467.7 1.1.7 1.9v14.7c0 2.4.567 4.233 1.7 5.5 1.2 1.267 2.867 1.9 5 1.9 2.267 0 3.933-.667 5-2 1.2-1.2 1.8-3 1.8-5.4v-14.7c0-.8.233-1.433.7-1.9.467-.467 1.067-.7 1.8-.7.8 0 1.433.233 1.9.7.4.467.6 1.1.6 1.9v14.4c0 3.8-1 6.733-3 8.8-2 2-4.9 3-8.7 3Zm27.4 0c-2 0-3.933-.267-5.8-.8-1.8-.6-3.3-1.367-4.5-2.3-.6-.4-.9-1.033-.9-1.9 0-.533.167-1 .5-1.4.333-.467.733-.7 1.2-.7.467 0 1 .2 1.6.6 1.2.8 2.4 1.4 3.6 1.8 1.333.4 2.733.6 4.2.6 2 0 3.5-.333 4.5-1s1.5-1.667 1.5-3c0-1.067-.467-1.867-1.4-2.4-1-.533-2.633-1.067-4.9-1.6-2.333-.467-4.233-1.033-5.7-1.7-1.467-.667-2.567-1.533-3.3-2.6-.733-1-1.1-2.333-1.1-4 0-1.6.467-3.067 1.4-4.4.933-1.333 2.2-2.333 3.8-3 1.733-.733 3.633-1.1 5.7-1.1 3.8 0 6.9 1 9.3 3 .333.267.567.567.7.9.2.267.3.6.3 1 0 .6-.2 1.1-.6 1.5-.267.4-.633.6-1.1.6l-.8-.1-.9-.5c-1.067-.8-2.133-1.367-3.2-1.7-1-.4-2.233-.6-3.7-.6-1.8 0-3.233.367-4.3 1.1-1.067.667-1.6 1.667-1.6 3 0 1.133.467 2 1.4 2.6.933.533 2.533 1.067 4.8 1.6 2.333.533 4.233 1.133 5.7 1.8 1.533.667 2.667 1.5 3.4 2.5.8 1 1.2 2.267 1.2 3.8 0 1.667-.467 3.133-1.4 4.4-.867 1.267-2.167 2.267-3.9 3-1.6.667-3.5 1-5.7 1Zm24.4-.2c-.8 0-1.433-.233-1.9-.7-.467-.467-.7-1.067-.7-1.8v-21.6h-7.3c-1.6 0-2.4-.733-2.4-2.2s.8-2.133 2.4-2H497c1.6 0 2.4.667 2.4 2s-.8 2.067-2.4 2.2h-7.3v21.6c0 .733-.233 1.333-.7 1.8-.467.467-1.1.7-1.9.7Zm17.8-.2c-.8 0-1.433-.2-1.9-.6-.4-.467-.6-1.067-.6-1.8V193c0-.8.2-1.4.6-1.8.467-.467 1.1-.7 1.9-.7h8c4.533 0 8.067 1.233 10.6 3.7 2.6 2.467 3.9 5.933 3.9 10.4 0 4.467-1.3 7.933-3.9 10.4-2.533 2.467-6.1 3.7-10.7 3.7Zm7.6-4.2c6.467 0 9.7-3.3 9.7-9.9 0-6.6-3.233-9.9-9.7-9.9h-5v19.8Zm22.5 4.2c-.733 0-1.333-.2-1.8-.6-.4-.467-.6-1.067-.6-1.8V193c0-.8.2-1.4.6-1.8.467-.467 1.067-.7 1.8-.7h14.5c.733 0 1.333.167 1.8.5.4.4.6.9.6 1.5 0 .667-.2 1.2-.6 1.6-.467.333-1.067.5-1.8.5h-11.9v7.8h11c.8 0 1.433.167 1.9.5.4.333.6.833.6 1.5s-.2 1.167-.6 1.5c-.4.333-1 .5-1.8.5h-11v8.2h11.8c.733 0 1.333.2 1.8.6.4.333.6.833.6 1.5s-.2 1.167-.6 1.5c-.4.333-1 .5-1.8.5Zm30.5.4c-2.067 0-4.033-.267-5.9-.8-1.8-.6-3.267-1.367-4.4-2.3-.667-.4-1-1.033-1-1.9 0-.533.2-1 .6-1.4.333-.467.733-.7 1.2-.7.467 0 1 .2 1.6.6 1.133.8 2.333 1.4 3.6 1.8 1.267.4 2.667.6 4.2.6 1.933 0 3.4-.333 4.4-1 1.067-.667 1.6-1.667 1.6-3 0-1.067-.5-1.867-1.5-2.4-.933-.533-2.533-1.067-4.8-1.6-2.333-.467-4.233-1.033-5.7-1.7-1.467-.667-2.6-1.533-3.4-2.6-.667-1-1-2.333-1-4 0-1.6.433-3.067 1.3-4.4.933-1.333 2.233-2.333 3.9-3 1.667-.733 3.533-1.1 5.6-1.1 3.867 0 7 1 9.4 3 .333.267.567.567.7.9.133.267.2.6.2 1 0 .6-.167 1.1-.5 1.5-.333.4-.733.6-1.2.6l-.7-.1-.9-.5c-1.067-.8-2.133-1.367-3.2-1.7-1-.4-2.267-.6-3.8-.6-1.8 0-3.233.367-4.3 1.1-1 .667-1.5 1.667-1.5 3 0 1.133.467 2 1.4 2.6.933.533 2.5 1.067 4.7 1.6 2.4.533 4.333 1.133 5.8 1.8 1.467.667 2.6 1.5 3.4 2.5.8 1 1.2 2.267 1.2 3.8 0 1.667-.467 3.133-1.4 4.4-.933 1.267-2.233 2.267-3.9 3-1.667.667-3.567 1-5.7 1Zm37.6-4.3c.533.533.8 1.133.8 1.8 0 .6-.233 1.133-.7 1.6-.467.467-1 .7-1.6.7-.667 0-1.3-.3-1.9-.9l-13.3-12.4v10.8c0 .733-.233 1.333-.7 1.8-.467.533-1.1.8-1.9.8-.8 0-1.433-.267-1.9-.8-.467-.467-.7-1.067-.7-1.8v-23.5c0-.8.233-1.433.7-1.9.467-.467 1.1-.7 1.9-.7.8 0 1.433.233 1.9.7.467.467.7 1.1.7 1.9v10.2l12.9-12.1c.467-.467 1-.7 1.6-.7.667 0 1.2.233 1.6.7.467.467.7 1 .7 1.6 0 .6-.267 1.167-.8 1.7l-10.7 9.8ZM408.3 239.3c.2-.267.433-.4.7-.4.333 0 .6.1.8.3.2.267.3.533.3.8s-.1.5-.3.7l-5.3 6.7v6.5c0 .4-.133.733-.4 1-.2.133-.467.2-.8.2s-.6-.1-.8-.3c-.2-.2-.3-.5-.3-.9v-6.5l-5.4-6.7a.96.96 0 0 1-.3-.7c0-.333.1-.6.3-.8.267-.2.533-.3.8-.3.333 0 .6.133.8.4l5 6.2Zm6.6 15.9c-1.067 0-2.033-.267-2.9-.8-.8-.467-1.433-1.133-1.9-2-.4-.867-.6-1.867-.6-3s.2-2.133.6-3a4.82 4.82 0 0 1 2-2c.8-.467 1.733-.7 2.8-.7 1.067 0 2 .233 2.8.7a4.82 4.82 0 0 1 2 2c.4.867.6 1.867.6 3s-.2 2.133-.6 3a4.82 4.82 0 0 1-2 2c-.8.533-1.733.8-2.8.8Zm0-1.9c1 0 1.767-.333 2.3-1 .533-.667.8-1.633.8-2.9s-.267-2.233-.8-2.9c-.533-.667-1.3-1-2.3-1-1 0-1.767.333-2.3 1-.533.667-.8 1.667-.8 3 0 1.2.267 2.133.8 2.8.533.667 1.3 1 2.3 1Zm16.5-9.6c.4 0 .7.1.9.3.2.2.3.467.3.8v9.2c0 .333-.1.6-.3.8-.267.2-.567.3-.9.3-.333 0-.6-.1-.8-.3-.133-.2-.2-.433-.2-.7v-.9c-.4.667-.9 1.167-1.5 1.5-.667.333-1.333.5-2 .5-2.667 0-4-1.5-4-4.5v-5.8c0-.333.067-.6.2-.8.2-.2.5-.3.9-.3.333 0 .6.1.8.3.2.2.3.467.3.8v5.9c0 .867.2 1.533.6 2 .333.4.867.6 1.6.6.933 0 1.667-.3 2.2-.9.533-.533.8-1.3.8-2.3v-5.3c0-.333.1-.6.3-.8.2-.2.467-.3.8-.3Zm10.2 0c.667 0 1 .333 1 1 0 .267-.067.5-.2.7-.133.133-.433.233-.9.3h-.6c-1 .133-1.733.467-2.2 1a4.02 4.02 0 0 0-.6 2.1v5.2c0 .4-.133.667-.4.8-.2.2-.467.3-.8.3s-.6-.1-.8-.3c-.2-.133-.3-.4-.3-.8v-9.1c0-.333.1-.6.3-.8.2-.2.467-.3.8-.3s.6.1.8.3c.2.2.3.467.3.8v1c.267-.667.7-1.167 1.3-1.5a5.001 5.001 0 0 1 2-.6Zm14.3 0c.667 0 1 .333 1 1 0 .267-.067.5-.2.7l-.9.3h-.7c-.933.133-1.6.467-2 1-.533.667-.8 1.367-.8 2.1v5.2c0 .4-.1.667-.3.8-.2.2-.467.3-.8.3s-.6-.1-.8-.3c-.267-.133-.4-.4-.4-.8v-9.1c0-.333.133-.6.4-.8.2-.2.467-.3.8-.3s.6.1.8.3c.2.2.3.467.3.8v1c.267-.667.7-1.167 1.3-1.5.533-.333 1.2-.533 2-.6Zm10.9 8.5c.2 0 .367.1.5.3.133.133.2.333.2.6 0 .4-.267.767-.8 1.1a5.339 5.339 0 0 1-1.8.7c-.6.2-1.167.3-1.7.3-1.8 0-3.2-.533-4.2-1.6-1-1-1.5-2.4-1.5-4.2 0-1.133.2-2.133.6-3a4.82 4.82 0 0 1 2-2c.733-.467 1.633-.7 2.7-.7 1.467 0 2.633.467 3.5 1.4.867.933 1.3 2.2 1.3 3.8 0 .667-.267 1-.8 1h-7c.133 2.333 1.233 3.5 3.3 3.5.6 0 1.1-.1 1.5-.3l1.3-.6.4-.1.5-.2Zm-4-6.9c-.867 0-1.533.3-2 .9-.6.533-.933 1.3-1 2.3h5.8c0-1-.267-1.767-.8-2.3-.467-.6-1.133-.9-2-.9Zm20-1.6c2.467 0 3.7 1.467 3.7 4.4v6c0 .267-.1.5-.3.7-.2.2-.467.3-.8.3s-.633-.1-.9-.3c-.2-.2-.3-.467-.3-.8v-5.9c0-.867-.167-1.533-.5-2-.333-.4-.833-.6-1.5-.6-.867 0-1.533.3-2 .9-.467.533-.7 1.3-.7 2.3v5.3c0 .333-.1.6-.3.8-.267.2-.567.3-.9.3-.333 0-.6-.1-.8-.3-.2-.2-.3-.467-.3-.8v-5.9c0-.867-.167-1.533-.5-2-.333-.4-.867-.6-1.6-.6-.8 0-1.467.3-2 .9-.467.533-.7 1.3-.7 2.3v5.3c0 .333-.1.6-.3.8-.2.2-.467.3-.8.3s-.633-.1-.9-.3c-.2-.2-.3-.467-.3-.8v-9.1c0-.333.1-.6.3-.8.267-.2.567-.3.9-.3.267 0 .5.1.7.3.267.2.4.467.4.8v.8c.333-.667.767-1.133 1.3-1.4.667-.333 1.333-.5 2-.5.867 0 1.6.167 2.2.5.533.333.933.867 1.2 1.6a3.27 3.27 0 0 1 1.5-1.5c.667-.4 1.4-.6 2.2-.6Zm11.7 11.5c-1.133 0-2.133-.267-3-.8a4.377 4.377 0 0 1-1.8-2c-.467-.867-.7-1.867-.7-3s.233-2.133.7-3c.4-.867 1.033-1.533 1.9-2 .8-.467 1.767-.7 2.9-.7s2.067.233 2.8.7a4.82 4.82 0 0 1 2 2c.4.867.6 1.867.6 3s-.233 2.133-.7 3c-.4.867-1.033 1.533-1.9 2-.8.533-1.733.8-2.8.8Zm0-1.9c1 0 1.767-.333 2.3-1 .533-.667.8-1.633.8-2.9s-.267-2.233-.8-2.9c-.6-.667-1.367-1-2.3-1-.933 0-1.733.333-2.4 1-.533.667-.8 1.667-.8 3 0 1.2.267 2.133.8 2.8.533.667 1.333 1 2.4 1Zm13.3 0c.333.067.567.167.7.3.133.133.2.333.2.6 0 .333-.1.567-.3.7-.267.2-.6.267-1 .2h-.7c-1.2-.133-2.1-.5-2.7-1.1-.667-.667-1-1.667-1-3v-5.3h-1.3c-.667 0-1-.3-1-.9 0-.267.1-.467.3-.6.2-.2.433-.3.7-.3h1.4v-2.3c0-.333.1-.6.3-.8.2-.2.467-.3.8-.3s.633.1.9.3c.2.2.3.467.3.8v2.3h2.2c.333 0 .567.1.7.3.2.133.3.333.3.6 0 .267-.1.5-.3.7-.133.133-.367.2-.7.2h-2.1v5.5c0 .667.133 1.2.4 1.6.333.267.8.433 1.4.5Zm11.2-1c.267 0 .467.067.6.2.133.133.2.333.2.6 0 .4-.267.767-.8 1.1a5.339 5.339 0 0 1-1.8.7c-.667.2-1.267.3-1.8.3-1.733 0-3.1-.533-4.1-1.6-1-1-1.5-2.4-1.5-4.2 0-1.133.2-2.133.6-3 .467-.867 1.1-1.533 1.9-2 .8-.467 1.733-.7 2.8-.7 1.467 0 2.633.467 3.5 1.4.867.933 1.3 2.2 1.3 3.8 0 .667-.3 1-.9 1h-7c.2 2.333 1.333 3.5 3.4 3.5.6 0 1.1-.1 1.5-.3l1.3-.6.3-.1.5-.2Zm-3.9-7c-.867 0-1.567.3-2.1.9-.533.533-.867 1.3-1 2.3h5.9c0-1-.267-1.767-.8-2.3-.467-.6-1.133-.9-2-.9Zm22.3-6.4c.333 0 .6.1.8.3.267.2.4.467.4.8v14a.95.95 0 0 1-.4.8c-.2.2-.467.3-.8.3s-.6-.1-.8-.3c-.2-.2-.3-.467-.3-.8v-1a3.847 3.847 0 0 1-1.5 1.6c-.667.4-1.4.6-2.2.6a4.143 4.143 0 0 1-2.5-.8c-.733-.467-1.333-1.133-1.8-2-.4-.867-.6-1.867-.6-3 0-1.2.2-2.2.6-3 .467-.867 1.067-1.533 1.8-2 .667-.467 1.5-.7 2.5-.7.867 0 1.6.167 2.2.5a3.27 3.27 0 0 1 1.5 1.5v-5.8c0-.267.1-.5.3-.7.2-.2.467-.3.8-.3Zm-4.2 14.4c1 0 1.767-.333 2.3-1 .533-.667.8-1.633.8-2.9s-.267-2.233-.8-2.9c-.533-.667-1.3-1-2.3-1-1 0-1.767.333-2.3 1-.6.667-.9 1.633-.9 2.9 0 1.2.3 2.167.9 2.9.533.667 1.3 1 2.3 1Zm17.2-1c.2 0 .367.067.5.2s.2.333.2.6c0 .4-.267.767-.8 1.1-.533.333-1.1.567-1.7.7-.667.2-1.267.3-1.8.3-1.733 0-3.133-.533-4.2-1.6-1-1-1.5-2.4-1.5-4.2 0-1.133.233-2.133.7-3 .467-.867 1.1-1.533 1.9-2 .8-.467 1.7-.7 2.7-.7 1.467 0 2.633.467 3.5 1.4.867.933 1.3 2.2 1.3 3.8 0 .667-.267 1-.8 1h-7c.133 2.333 1.267 3.5 3.4 3.5.533 0 1-.1 1.4-.3.467-.133.9-.333 1.3-.6l.4-.1.5-.2Zm-4-7c-.8 0-1.467.3-2 .9-.533.533-.867 1.3-1 2.3h5.9c-.067-1-.333-1.767-.8-2.3-.467-.6-1.133-.9-2-.9Zm11.2 9.9c-1.533 0-2.8-.333-3.8-1a1.51 1.51 0 0 1-.6-.5l-.1-.6c0-.267.067-.467.2-.6.133-.2.3-.3.5-.3s.533.133 1 .4l1.2.6c.467.133 1.033.2 1.7.2s1.233-.133 1.7-.4c.4-.267.6-.6.6-1 0-.333-.1-.6-.3-.8-.133-.2-.4-.367-.8-.5l-1.7-.5c-1.333-.267-2.333-.633-3-1.1-.533-.533-.8-1.2-.8-2 0-.667.2-1.267.6-1.8.4-.533.933-.933 1.6-1.2.667-.267 1.4-.4 2.2-.4.667 0 1.267.067 1.8.2.6.133 1.1.367 1.5.7.533.333.8.7.8 1.1 0 .267-.1.5-.3.7-.133.133-.3.2-.5.2h-.4c-.133 0-.3-.133-.5-.4l-1.2-.5c-.333-.133-.767-.2-1.3-.2-.667 0-1.167.133-1.5.4-.4.267-.6.6-.6 1 0 .467.167.8.5 1 .4.267 1.067.5 2 .7 1.067.2 1.867.467 2.4.8.6.267 1 .6 1.2 1 .267.4.4.9.4 1.5 0 1-.4 1.8-1.2 2.4-.8.6-1.9.9-3.3.9Zm16.4-2c.267.2.4.467.4.8s-.1.6-.3.8c-.2.2-.433.3-.7.3-.333 0-.6-.1-.8-.3l-5.6-5v4.2a.95.95 0 0 1-.4.8c-.2.2-.467.3-.8.3s-.6-.1-.8-.3c-.2-.2-.3-.467-.3-.8v-14c0-.333.1-.6.3-.8.2-.2.467-.3.8-.3s.6.1.8.3c.267.2.4.467.4.8v8.9l5.1-4.8c.267-.267.533-.4.8-.4s.5.1.7.3c.2.267.3.533.3.8s-.1.533-.3.8l-4 3.7Zm7.7.2c.333 0 .567.067.7.2.2.133.3.333.3.6 0 .333-.133.567-.4.7-.2.2-.533.267-1 .2h-.6c-1.267-.133-2.2-.5-2.8-1.1-.6-.667-.9-1.667-.9-3v-5.3h-1.3c-.667 0-1-.3-1-.9 0-.267.067-.467.2-.6.2-.2.467-.3.8-.3h1.3v-2.3c0-.333.1-.6.3-.8.2-.2.5-.3.9-.3.333 0 .6.1.8.3.2.2.3.467.3.8v2.3h2.3c.267 0 .5.1.7.3.2.133.3.333.3.6 0 .267-.1.5-.3.7-.2.133-.433.2-.7.2h-2.3v5.5c0 .667.133 1.2.4 1.6.333.267.8.433 1.4.5Zm7.4 1.8c-1.067 0-2-.267-2.8-.8a4.82 4.82 0 0 1-2-2c-.4-.867-.6-1.867-.6-3s.2-2.133.6-3a4.82 4.82 0 0 1 2-2c.8-.467 1.733-.7 2.8-.7 1.067 0 2.033.233 2.9.7.8.467 1.433 1.133 1.9 2 .467.867.7 1.867.7 3s-.233 2.133-.7 3a4.82 4.82 0 0 1-2 2c-.733.533-1.667.8-2.8.8Zm0-1.9c1 0 1.767-.333 2.3-1 .6-.667.9-1.633.9-2.9s-.3-2.233-.9-2.9c-.533-.667-1.3-1-2.3-1-1 0-1.767.333-2.3 1-.533.667-.8 1.667-.8 3 0 1.2.267 2.133.8 2.8.533.667 1.3 1 2.3 1Zm14-9.6c.933 0 1.767.233 2.5.7.733.467 1.3 1.133 1.7 2 .467.867.7 1.867.7 3 0 1.2-.2 2.2-.6 3-.4.8-1 1.467-1.8 2-.733.533-1.6.8-2.6.8-.8 0-1.533-.2-2.2-.6-.6-.333-1.067-.833-1.4-1.5v5c0 .333-.1.6-.3.8-.2.2-.467.3-.8.3s-.633-.1-.9-.3c-.2-.2-.3-.467-.3-.8v-13.3c0-.333.1-.6.3-.8.2-.2.5-.3.9-.3.333 0 .6.1.8.3.2.2.3.467.3.8v1c.333-.667.8-1.2 1.4-1.6a4.85 4.85 0 0 1 2.2-.5Zm-.6 9.6c1 0 1.767-.333 2.3-1 .533-.667.8-1.6.8-2.8 0-1.333-.267-2.333-.8-3-.533-.667-1.3-1-2.3-1-1 0-1.767.333-2.3 1-.533.667-.8 1.667-.8 3 0 1.2.267 2.133.8 2.8.533.667 1.3 1 2.3 1Z"/><linearGradient id="a" x1="462.4" x2="528.201" y1="136.198" y2="70.4" gradientUnits="userSpaceOnUse"><stop offset="0" stop-color="#0071ff"/><stop offset="1" stop-color="#00bfe1"/></linearGradient><path fill="url(#a)" fill-rule="evenodd" d="m533.7 73.6-7.7 7.6c-1.4 1.3-2 3.2-1.3 4.9a28 28 0 0 1-5.2 32 28.1 28.1 0 0 1-32 5.2c-1.7-.7-3.5 0-4.7 1.2l-7.9 7.8a4.2 4.2 0 0 0 .8 6.5c18.46 11.082 42.089 8.205 57.349-6.984 15.26-15.19 18.247-38.805 7.251-57.316a4.2 4.2 0 0 0-3-2 4.2 4.2 0 0 0-3.6 1ZM467 65.2c-15.403 15.19-18.419 38.943-7.3 57.5a4.2 4.2 0 0 0 6.6.9l7.7-7.6c1.4-1.3 2-3.2 1.3-5a28 28 0 0 1 5.2-32 28.1 28.1 0 0 1 32-5.2c1.6.7 3.5.1 4.7-1l7.9-8a4.2 4.2 0 0 0-.8-6.5c-18.497-11.08-42.16-8.153-57.4 7.1Z"/></svg>
