<?xml version="1.0" encoding="UTF-8"?>
<!DOCTYPE svg PUBLIC "-//W3C//DTD SVG 1.1//EN" "http://www.w3.org/Graphics/SVG/1.1/DTD/svg11.dtd">
<svg xmlns="http://www.w3.org/2000/svg" version="1.1" width="1233px" height="344px" style="shape-rendering:geometricPrecision; text-rendering:geometricPrecision; image-rendering:optimizeQuality; fill-rule:evenodd; clip-rule:evenodd" xmlns:xlink="http://www.w3.org/1999/xlink">
<g><path style="opacity:1" fill="#000000" d="M -0.5,-0.5 C 410.5,-0.5 821.5,-0.5 1232.5,-0.5C 1232.5,114.167 1232.5,228.833 1232.5,343.5C 821.5,343.5 410.5,343.5 -0.5,343.5C -0.5,228.833 -0.5,114.167 -0.5,-0.5 Z"/></g>
<g><path style="opacity:1" fill="#19222b" d="M 619.5,44.5 C 618.292,43.7659 616.959,43.4326 615.5,43.5C 612.7,41.1088 609.367,39.7754 605.5,39.5C 603.545,39.7245 601.879,40.3911 600.5,41.5C 600.5,40.5 600.5,39.5 600.5,38.5C 604.884,38.1744 609.217,38.5078 613.5,39.5C 614.714,41.0691 616.381,41.9024 618.5,42C 619.252,42.6708 619.586,43.5041 619.5,44.5 Z"/></g>
<g><path style="opacity:1" fill="#145b35" d="M 615.5,43.5 C 618.787,47.959 622.287,52.2923 626,56.5C 626.688,60.3933 627.854,64.0599 629.5,67.5C 623.231,67.8646 617.564,66.1979 612.5,62.5C 610.902,59.3986 608.735,56.7319 606,54.5C 605.587,51.7679 604.92,49.1013 604,46.5C 602.849,61.5199 602.016,76.5199 601.5,91.5C 601.241,74.8095 601.575,58.1428 602.5,41.5C 606.773,42.4646 611.106,43.1313 615.5,43.5 Z"/></g>
<g><path style="opacity:1" fill="#184c35" d="M 615.5,43.5 C 616.959,43.4326 618.292,43.7659 619.5,44.5C 623.213,47.9983 626.213,51.9983 628.5,56.5C 628.709,57.9217 629.209,59.255 630,60.5C 630.5,76.4965 630.667,92.4965 630.5,108.5C 630.167,108.5 629.833,108.5 629.5,108.5C 629.5,94.8333 629.5,81.1667 629.5,67.5C 627.854,64.0599 626.688,60.3933 626,56.5C 622.287,52.2923 618.787,47.959 615.5,43.5 Z"/></g>
<g><path style="opacity:1" fill="#193931" d="M 615.5,43.5 C 611.106,43.1313 606.773,42.4646 602.5,41.5C 601.575,58.1428 601.241,74.8095 601.5,91.5C 600.167,91.5 599.5,90.8333 599.5,89.5C 600.338,89.1583 600.672,88.4916 600.5,87.5C 600.5,72.1667 600.5,56.8333 600.5,41.5C 601.879,40.3911 603.545,39.7245 605.5,39.5C 609.367,39.7754 612.7,41.1088 615.5,43.5 Z"/></g>
<g><path style="opacity:1" fill="#1a2f33" d="M 600.5,87.5 C 600.672,88.4916 600.338,89.1583 599.5,89.5C 598.089,87.086 596.089,85.4194 593.5,84.5C 593.027,83.0937 592.027,82.427 590.5,82.5C 590.047,81.5416 589.381,80.7083 588.5,80C 579.506,79.5002 570.506,79.3336 561.5,79.5C 561.205,81.7354 561.539,83.7354 562.5,85.5C 563.151,88.803 564.818,91.4697 567.5,93.5C 568.585,95.5869 570.251,96.9202 572.5,97.5C 572.5,97.8333 572.5,98.1667 572.5,98.5C 570.801,98.6602 569.134,98.4935 567.5,98C 566.113,94.7721 564.113,91.9388 561.5,89.5C 560.511,85.8927 560.177,82.226 560.5,78.5C 570.833,78.5 581.167,78.5 591.5,78.5C 591.5,79.5 591.5,80.5 591.5,81.5C 593.288,81.2148 594.955,81.5481 596.5,82.5C 597.612,84.4192 598.946,86.0858 600.5,87.5 Z"/></g>
<g><path style="opacity:1" fill="#236d50" d="M 590.5,82.5 C 589.244,82.5386 588.244,82.0386 587.5,81C 579.173,80.5003 570.84,80.3336 562.5,80.5C 562.5,82.1667 562.5,83.8333 562.5,85.5C 561.539,83.7354 561.205,81.7354 561.5,79.5C 570.506,79.3336 579.506,79.5002 588.5,80C 589.381,80.7083 590.047,81.5416 590.5,82.5 Z"/></g>
<g><path style="opacity:1" fill="#2aa16d" d="M 590.5,82.5 C 592.027,82.427 593.027,83.0937 593.5,84.5C 593.5,84.8333 593.5,85.1667 593.5,85.5C 589.856,85.1415 586.523,83.9748 583.5,82C 576.842,81.5004 570.175,81.3337 563.5,81.5C 564.532,85.6417 565.866,89.6417 567.5,93.5C 564.818,91.4697 563.151,88.803 562.5,85.5C 562.5,83.8333 562.5,82.1667 562.5,80.5C 570.84,80.3336 579.173,80.5003 587.5,81C 588.244,82.0386 589.244,82.5386 590.5,82.5 Z"/></g>
<g><path style="opacity:1" fill="#31c27e" d="M 593.5,85.5 C 596.331,86.9981 597.998,89.3315 598.5,92.5C 598.5,93.8333 598.5,95.1667 598.5,96.5C 599.675,96.281 600.675,96.6143 601.5,97.5C 594.189,98.6646 586.856,98.8313 579.5,98C 575.204,97.1802 571.204,95.6802 567.5,93.5C 565.866,89.6417 564.532,85.6417 563.5,81.5C 570.175,81.3337 576.842,81.5004 583.5,82C 586.523,83.9748 589.856,85.1415 593.5,85.5 Z"/></g>
<g><path style="opacity:1" fill="#237557" d="M 593.5,84.5 C 596.089,85.4194 598.089,87.086 599.5,89.5C 599.5,90.8333 600.167,91.5 601.5,91.5C 601.306,95.0048 600.306,95.3382 598.5,92.5C 597.998,89.3315 596.331,86.9981 593.5,85.5C 593.5,85.1667 593.5,84.8333 593.5,84.5 Z"/></g>
<g><path style="opacity:1" fill="#179a56" d="M 629.5,67.5 C 629.5,81.1667 629.5,94.8333 629.5,108.5C 620.5,108.5 611.5,108.5 602.5,108.5C 602.806,105.615 602.473,102.948 601.5,100.5C 591.881,100.024 582.215,99.0236 572.5,97.5C 570.251,96.9202 568.585,95.5869 567.5,93.5C 571.204,95.6802 575.204,97.1802 579.5,98C 586.856,98.8313 594.189,98.6646 601.5,97.5C 600.675,96.6143 599.675,96.281 598.5,96.5C 598.5,95.1667 598.5,93.8333 598.5,92.5C 600.306,95.3382 601.306,95.0048 601.5,91.5C 602.016,76.5199 602.849,61.5199 604,46.5C 604.92,49.1013 605.587,51.7679 606,54.5C 608.735,56.7319 610.902,59.3986 612.5,62.5C 617.564,66.1979 623.231,67.8646 629.5,67.5 Z"/></g>
<g><path style="opacity:1" fill="#246c50" d="M 572.5,98.5 C 572.5,98.1667 572.5,97.8333 572.5,97.5C 582.215,99.0236 591.881,100.024 601.5,100.5C 592.494,100.666 583.494,100.5 574.5,100C 573.956,99.2828 573.289,98.7828 572.5,98.5 Z"/></g>
<g><path style="opacity:1" fill="#192d30" d="M 572.5,98.5 C 573.289,98.7828 573.956,99.2828 574.5,100C 583.494,100.5 592.494,100.666 601.5,100.5C 601.802,103.059 601.468,105.393 600.5,107.5C 600.5,105.5 600.5,103.5 600.5,101.5C 595.156,101.334 589.823,101.501 584.5,102C 583.892,102.87 583.059,103.37 582,103.5C 578.751,101.899 575.251,101.066 571.5,101C 572.252,100.329 572.586,99.4959 572.5,98.5 Z"/></g>
<g><path style="opacity:1" fill="#1c654a" d="M 601.5,100.5 C 602.473,102.948 602.806,105.615 602.5,108.5C 599.551,109.733 598.884,111.733 600.5,114.5C 599.307,114.03 598.64,113.03 598.5,111.5C 598.803,109.886 599.47,108.552 600.5,107.5C 601.468,105.393 601.802,103.059 601.5,100.5 Z"/></g>
<g><path style="opacity:1" fill="#2bb774" d="M 602.5,108.5 C 611.5,108.5 620.5,108.5 629.5,108.5C 629.833,108.5 630.167,108.5 630.5,108.5C 632.432,109.976 632.765,111.643 631.5,113.5C 630.391,113.557 629.391,113.89 628.5,114.5C 620.167,114.5 611.833,114.5 603.5,114.5C 602.833,114.5 602.167,114.5 601.5,114.5C 601.167,114.5 600.833,114.5 600.5,114.5C 598.884,111.733 599.551,109.733 602.5,108.5 Z"/></g>
<g><path style="opacity:1" fill="#181f2b" d="M 660.5,121.5 C 657.167,121.5 653.833,121.5 650.5,121.5C 651.028,120.279 651.695,119.113 652.5,118C 655.157,117.825 657.824,117.992 660.5,118.5C 660.5,119.5 660.5,120.5 660.5,121.5 Z"/></g>
<g><path style="opacity:1" fill="#193334" d="M 628.5,56.5 C 629.5,56.5 630.5,56.5 631.5,56.5C 631.5,73.5 631.5,90.5 631.5,107.5C 632.5,107.5 633.5,107.5 634.5,107.5C 634.5,110.167 634.5,112.833 634.5,115.5C 633.5,115.5 632.5,115.5 631.5,115.5C 631.069,120.032 631.569,124.365 633,128.5C 637.31,122.78 643.143,120.446 650.5,121.5C 653.833,121.5 657.167,121.5 660.5,121.5C 664.167,121.5 667.833,121.5 671.5,121.5C 672.08,125.649 671.414,129.316 669.5,132.5C 670.775,129.396 670.775,126.396 669.5,123.5C 661.01,122.343 652.343,122.176 643.5,123C 639.703,124.638 636.703,127.138 634.5,130.5C 633.89,131.391 633.557,132.391 633.5,133.5C 632.85,133.804 632.183,134.137 631.5,134.5C 630.504,128.202 630.17,121.868 630.5,115.5C 630.833,114.833 631.167,114.167 631.5,113.5C 632.765,111.643 632.432,109.976 630.5,108.5C 630.667,92.4965 630.5,76.4965 630,60.5C 629.209,59.255 628.709,57.9217 628.5,56.5 Z"/></g>
<g><path style="opacity:1" fill="#247a5a" d="M 669.5,123.5 C 661.826,123.334 654.159,123.5 646.5,124C 642.08,125.518 638.08,127.685 634.5,130.5C 636.703,127.138 639.703,124.638 643.5,123C 652.343,122.176 661.01,122.343 669.5,123.5 Z"/></g>
<g><path style="opacity:1" fill="#31bf7d" d="M 669.5,123.5 C 669.309,126.983 668.643,130.316 667.5,133.5C 667.167,134.167 666.833,134.833 666.5,135.5C 664.167,136.833 661.833,138.167 659.5,139.5C 649.982,141.357 640.316,142.023 630.5,141.5C 630.5,140.5 630.5,139.5 630.5,138.5C 633.084,137.952 634.084,136.285 633.5,133.5C 633.557,132.391 633.89,131.391 634.5,130.5C 638.08,127.685 642.08,125.518 646.5,124C 654.159,123.5 661.826,123.334 669.5,123.5 Z"/></g>
<g><path style="opacity:1" fill="#205848" d="M 669.5,123.5 C 670.775,126.396 670.775,129.396 669.5,132.5C 668.833,132.5 668.5,132.833 668.5,133.5C 668.167,133.5 667.833,133.5 667.5,133.5C 668.643,130.316 669.309,126.983 669.5,123.5 Z"/></g>
<g><path style="opacity:1" fill="#143231" d="M 600.5,107.5 C 599.47,108.552 598.803,109.886 598.5,111.5C 598.64,113.03 599.307,114.03 600.5,114.5C 600.833,114.5 601.167,114.5 601.5,114.5C 601.333,129.504 601.5,144.504 602,159.5C 603.039,160.71 604.206,161.71 605.5,162.5C 605.5,162.833 605.5,163.167 605.5,163.5C 603.589,162.925 601.922,161.925 600.5,160.5C 600.5,145.5 600.5,130.5 600.5,115.5C 599.5,115.5 598.5,115.5 597.5,115.5C 597.5,112.833 597.5,110.167 597.5,107.5C 598.5,107.5 599.5,107.5 600.5,107.5 Z"/></g>
<g><path style="opacity:1" fill="#0d8646" d="M 631.5,113.5 C 631.167,114.167 630.833,114.833 630.5,115.5C 629.167,123.167 629.167,130.833 630.5,138.5C 630.5,139.5 630.5,140.5 630.5,141.5C 640.316,142.023 649.982,141.357 659.5,139.5C 659.5,139.833 659.5,140.167 659.5,140.5C 658.078,140.709 656.745,141.209 655.5,142C 646.84,142.5 638.173,142.666 629.5,142.5C 629.666,147.844 629.499,153.177 629,158.5C 627.833,159.667 626.667,160.833 625.5,162C 618.842,162.5 612.175,162.666 605.5,162.5C 604.206,161.71 603.039,160.71 602,159.5C 601.5,144.504 601.333,129.504 601.5,114.5C 602.167,114.5 602.833,114.5 603.5,114.5C 603.167,128.849 603.501,143.182 604.5,157.5C 605.33,151.528 605.83,145.528 606,139.5C 606.414,139.957 606.914,140.291 607.5,140.5C 609.167,139.167 610.833,137.833 612.5,136.5C 614.098,137.485 615.765,137.651 617.5,137C 620.464,135.382 623.297,133.548 626,131.5C 626.202,133.256 626.702,134.922 627.5,136.5C 628.497,129.197 628.831,121.863 628.5,114.5C 629.391,113.89 630.391,113.557 631.5,113.5 Z"/></g>
<g><path style="opacity:1" fill="#0d904c" d="M 603.5,114.5 C 611.833,114.5 620.167,114.5 628.5,114.5C 628.831,121.863 628.497,129.197 627.5,136.5C 626.702,134.922 626.202,133.256 626,131.5C 623.297,133.548 620.464,135.382 617.5,137C 615.765,137.651 614.098,137.485 612.5,136.5C 610.833,137.833 609.167,139.167 607.5,140.5C 606.914,140.291 606.414,139.957 606,139.5C 605.83,145.528 605.33,151.528 604.5,157.5C 603.501,143.182 603.167,128.849 603.5,114.5 Z"/></g>
<g><path style="opacity:1" fill="#1b7a50" d="M 630.5,115.5 C 630.17,121.868 630.504,128.202 631.5,134.5C 632.183,134.137 632.85,133.804 633.5,133.5C 634.084,136.285 633.084,137.952 630.5,138.5C 629.167,130.833 629.167,123.167 630.5,115.5 Z"/></g>
<g><path style="opacity:1" fill="#205747" d="M 666.5,135.5 C 664.977,138.364 662.643,140.031 659.5,140.5C 659.5,140.167 659.5,139.833 659.5,139.5C 661.833,138.167 664.167,136.833 666.5,135.5 Z"/></g>
<g><path style="opacity:1" fill="#185a42" d="M 659.5,140.5 C 658.942,141.79 657.942,142.623 656.5,143C 647.84,143.5 639.173,143.666 630.5,143.5C 630.666,148.844 630.499,154.177 630,159.5C 628.978,160.354 628.145,161.354 627.5,162.5C 620.197,163.497 612.863,163.831 605.5,163.5C 605.5,163.167 605.5,162.833 605.5,162.5C 612.175,162.666 618.842,162.5 625.5,162C 626.667,160.833 627.833,159.667 629,158.5C 629.499,153.177 629.666,147.844 629.5,142.5C 638.173,142.666 646.84,142.5 655.5,142C 656.745,141.209 658.078,140.709 659.5,140.5 Z"/></g>
<g><path style="opacity:1" fill="#18212c" d="M 667.5,133.5 C 667.833,133.5 668.167,133.5 668.5,133.5C 667.882,136.398 666.715,139.065 665,141.5C 663.736,143.607 661.903,144.607 659.5,144.5C 659.66,146.199 659.494,147.866 659,149.5C 657.114,150.93 655.447,152.597 654,154.5C 652.513,153.845 651.347,152.845 650.5,151.5C 652.656,149.51 654.656,147.343 656.5,145C 654.527,144.505 652.527,144.338 650.5,144.5C 650.67,145.822 650.337,146.989 649.5,148C 646.965,148.617 644.632,148.117 642.5,146.5C 641.391,149.108 639.724,151.274 637.5,153C 636.006,155.639 635.339,158.472 635.5,161.5C 631.467,163.428 627.3,165.095 623,166.5C 621.13,165.257 618.964,164.59 616.5,164.5C 613.182,165.053 610.016,165.053 607,164.5C 602.061,167.944 599.895,166.61 600.5,160.5C 601.922,161.925 603.589,162.925 605.5,163.5C 612.863,163.831 620.197,163.497 627.5,162.5C 628.145,161.354 628.978,160.354 630,159.5C 630.499,154.177 630.666,148.844 630.5,143.5C 639.173,143.666 647.84,143.5 656.5,143C 657.942,142.623 658.942,141.79 659.5,140.5C 662.643,140.031 664.977,138.364 666.5,135.5C 666.833,134.833 667.167,134.167 667.5,133.5 Z"/></g>
<g><path style="opacity:1" fill="#0b461d" d="M 691.5,197.5 C 692.622,196.844 693.955,196.511 695.5,196.5C 697.883,196.361 699.883,197.028 701.5,198.5C 698.214,197.793 694.881,197.46 691.5,197.5 Z"/></g>
<g><path style="opacity:1" fill="#1ca244" d="M 491.5,226.5 C 491.157,224.517 491.824,223.183 493.5,222.5C 493.842,223.338 494.508,223.672 495.5,223.5C 497.966,224.634 500.633,224.801 503.5,224C 504.807,222.057 504.807,220.223 503.5,218.5C 499.808,216.562 496.308,214.229 493,211.5C 489.946,199.886 494.446,195.386 506.5,198C 509.145,199.287 510.145,201.453 509.5,204.5C 506.081,202.913 502.415,202.247 498.5,202.5C 498.34,204.199 498.506,205.866 499,207.5C 502.667,209.833 506.333,212.167 510,214.5C 511.193,219.152 510.36,223.319 507.5,227C 502.589,228.492 497.589,228.826 492.5,228C 491.944,227.617 491.611,227.117 491.5,226.5 Z"/></g>
<g><path style="opacity:1" fill="#1c9f43" d="M 553.5,197.5 C 558.844,197.334 564.177,197.501 569.5,198C 571.229,199.789 571.896,201.956 571.5,204.5C 566.663,202.683 561.663,202.183 556.5,203C 549.605,210.299 549.939,217.299 557.5,224C 559.568,224.687 561.568,224.52 563.5,223.5C 564.48,220.914 564.813,218.247 564.5,215.5C 562.5,215.5 560.5,215.5 558.5,215.5C 558.5,213.833 558.5,212.167 558.5,210.5C 562.767,210.203 566.934,210.536 571,211.5C 571.667,216.5 571.667,221.5 571,226.5C 570.5,227 570,227.5 569.5,228C 548.584,231.084 541.417,222.584 548,202.5C 549.812,200.7 551.645,199.033 553.5,197.5 Z"/></g>
<g><path style="opacity:1" fill="#1ca244" d="M 691.5,197.5 C 694.881,197.46 698.214,197.793 701.5,198.5C 702.167,198.5 702.5,198.833 702.5,199.5C 702.843,201.483 702.176,202.817 700.5,203.5C 697.946,202.612 695.279,202.279 692.5,202.5C 692.34,204.199 692.506,205.866 693,207.5C 696.704,209.837 700.371,212.171 704,214.5C 705.193,219.152 704.36,223.319 701.5,227C 696.589,228.492 691.589,228.826 686.5,228C 685.944,227.617 685.611,227.117 685.5,226.5C 685.157,224.517 685.824,223.183 687.5,222.5C 690.408,223.569 693.408,223.736 696.5,223C 699.033,221.084 699.033,219.084 696.5,217C 687.772,215.285 684.272,210.119 686,201.5C 687.451,199.536 689.284,198.203 691.5,197.5 Z"/></g>
<g><path style="opacity:1" fill="#1ca144" d="M 515.5,197.5 C 517.5,197.5 519.5,197.5 521.5,197.5C 521.334,205.174 521.5,212.841 522,220.5C 525.225,225.387 528.892,225.72 533,221.5C 533.333,213.833 533.667,206.167 534,198.5C 536,197.167 538,197.167 540,198.5C 540.667,205.833 540.667,213.167 540,220.5C 538.005,226.675 533.839,229.342 527.5,228.5C 523.105,229.289 519.605,227.956 517,224.5C 515.586,215.582 515.086,206.582 515.5,197.5 Z"/></g>
<g><path style="opacity:1" fill="#1ca043" d="M 601.5,223.5 C 601.5,224.833 601.5,226.167 601.5,227.5C 599.379,227.675 597.379,227.341 595.5,226.5C 594.699,224.958 594.366,223.292 594.5,221.5C 590.5,221.5 586.5,221.5 582.5,221.5C 582.405,223.786 581.738,225.786 580.5,227.5C 578.833,227.5 577.167,227.5 575.5,227.5C 575.5,226.5 575.5,225.5 575.5,224.5C 578.32,215.91 581.153,207.244 584,198.5C 587,197.167 590,197.167 593,198.5C 596.141,206.756 598.974,215.089 601.5,223.5 Z"/></g>
<g><path style="opacity:1" fill="#1ca345" d="M 628.5,225.5 C 627.082,227.308 625.082,227.975 622.5,227.5C 621.341,223.524 619.341,220.024 616.5,217C 615.207,216.51 613.873,216.343 612.5,216.5C 612.5,220.5 612.5,224.5 612.5,228.5C 610.5,228.5 608.5,228.5 606.5,228.5C 606.5,218.167 606.5,207.833 606.5,197.5C 611.511,197.334 616.511,197.501 621.5,198C 627.089,200.451 628.922,204.617 627,210.5C 625.649,212.019 624.149,213.352 622.5,214.5C 625.287,217.741 627.287,221.407 628.5,225.5 Z"/></g>
<g><path style="opacity:1" fill="#1da646" d="M 647.5,198.5 C 655.882,199.719 659.549,204.553 658.5,213C 659.245,220.684 655.912,225.517 648.5,227.5C 643.833,227.5 639.167,227.5 634.5,227.5C 634.5,217.833 634.5,208.167 634.5,198.5C 638.833,198.5 643.167,198.5 647.5,198.5 Z"/></g>
<g><path style="opacity:1" fill="#1ca144" d="M 670.5,202.5 C 669.527,204.948 669.194,207.615 669.5,210.5C 672.833,210.5 676.167,210.5 679.5,210.5C 680.434,211.568 680.768,212.901 680.5,214.5C 677.167,214.5 673.833,214.5 670.5,214.5C 670.5,217.5 670.5,220.5 670.5,223.5C 674.167,223.5 677.833,223.5 681.5,223.5C 681.5,225.167 681.5,226.833 681.5,228.5C 675.824,228.666 670.157,228.499 664.5,228C 663.167,218 663.167,208 664.5,198C 670.157,197.501 675.824,197.334 681.5,197.5C 681.5,199.167 681.5,200.833 681.5,202.5C 677.833,202.5 674.167,202.5 670.5,202.5 Z"/></g>
<g><path style="opacity:1" fill="#1ead49" d="M 709.5,198.5 C 711.167,198.5 712.833,198.5 714.5,198.5C 715.141,208.027 715.141,217.694 714.5,227.5C 712.833,227.5 711.167,227.5 709.5,227.5C 709.5,217.833 709.5,208.167 709.5,198.5 Z"/></g>
<g><path style="opacity:1" fill="#1b9c42" d="M 709.5,198.5 C 711.265,197.539 713.265,197.205 715.5,197.5C 715.334,201.846 715.501,206.179 716,210.5C 718.639,206.361 721.472,202.361 724.5,198.5C 726.396,197.534 728.396,197.201 730.5,197.5C 730.657,198.873 730.49,200.207 730,201.5C 727.097,204.732 724.597,208.232 722.5,212C 724.869,215.902 727.369,219.735 730,223.5C 731.009,225.025 731.509,226.692 731.5,228.5C 729.076,228.808 726.743,228.474 724.5,227.5C 721.863,223.032 719.03,218.698 716,214.5C 715.501,219.155 715.334,223.821 715.5,228.5C 713.265,228.795 711.265,228.461 709.5,227.5C 711.167,227.5 712.833,227.5 714.5,227.5C 715.141,217.694 715.141,208.027 714.5,198.5C 712.833,198.5 711.167,198.5 709.5,198.5 Z"/></g>
<g><path style="opacity:1" fill="#158436" d="M 647.5,198.5 C 643.167,198.5 638.833,198.5 634.5,198.5C 634.5,208.167 634.5,217.833 634.5,227.5C 639.167,227.5 643.833,227.5 648.5,227.5C 643.695,228.487 638.695,228.821 633.5,228.5C 633.5,218.167 633.5,207.833 633.5,197.5C 638.363,197.181 643.03,197.514 647.5,198.5 Z"/></g>
<g><path style="opacity:1" fill="#0d5823" d="M 702.5,199.5 C 703.451,200.919 703.784,202.585 703.5,204.5C 702.209,204.737 701.209,204.404 700.5,203.5C 702.176,202.817 702.843,201.483 702.5,199.5 Z"/></g>
<g><path style="opacity:1" fill="#000300" d="M 617.5,203.5 C 619.722,203.559 620.722,204.725 620.5,207C 620.722,209.275 619.722,210.441 617.5,210.5C 616.167,210.5 614.833,210.5 613.5,210.5C 613.5,208.167 613.5,205.833 613.5,203.5C 614.833,203.5 616.167,203.5 617.5,203.5 Z"/></g>
<g><path style="opacity:1" fill="#000200" d="M 644.5,203.5 C 647.325,203.081 649.491,204.081 651,206.5C 651.667,210.5 651.667,214.5 651,218.5C 650.34,220.324 649.173,221.657 647.5,222.5C 645.167,222.5 642.833,222.5 640.5,222.5C 640.5,216.167 640.5,209.833 640.5,203.5C 641.833,203.5 643.167,203.5 644.5,203.5 Z"/></g>
<g><path style="opacity:1" fill="#06210e" d="M 617.5,203.5 C 616.167,203.5 614.833,203.5 613.5,203.5C 613.5,205.833 613.5,208.167 613.5,210.5C 614.833,210.5 616.167,210.5 617.5,210.5C 616.081,211.451 614.415,211.784 612.5,211.5C 612.5,208.5 612.5,205.5 612.5,202.5C 614.415,202.216 616.081,202.549 617.5,203.5 Z"/></g>
<g><path style="opacity:1" fill="#063312" d="M 644.5,203.5 C 643.167,203.5 641.833,203.5 640.5,203.5C 640.5,209.833 640.5,216.167 640.5,222.5C 642.833,222.5 645.167,222.5 647.5,222.5C 645.052,223.473 642.385,223.806 639.5,223.5C 639.5,216.5 639.5,209.5 639.5,202.5C 641.415,202.216 643.081,202.549 644.5,203.5 Z"/></g>
<g><path style="opacity:1" fill="#061308" d="M 591.5,213.5 C 589.721,215.344 587.388,216.01 584.5,215.5C 585.225,211.728 586.391,208.061 588,204.5C 589.924,207.189 591.091,210.189 591.5,213.5 Z"/></g>
<g><path style="opacity:1" fill="#106528" d="M 670.5,202.5 C 670.5,204.833 670.5,207.167 670.5,209.5C 673.713,209.19 676.713,209.523 679.5,210.5C 676.167,210.5 672.833,210.5 669.5,210.5C 669.194,207.615 669.527,204.948 670.5,202.5 Z"/></g>
<g><path style="opacity:1" fill="#083a16" d="M 591.5,213.5 C 592.404,214.209 592.737,215.209 592.5,216.5C 589.615,216.806 586.948,216.473 584.5,215.5C 587.388,216.01 589.721,215.344 591.5,213.5 Z"/></g>
<g><path style="opacity:1" fill="#0a441b" d="M 493.5,222.5 C 491.824,223.183 491.157,224.517 491.5,226.5C 490.549,225.081 490.216,223.415 490.5,221.5C 491.791,221.263 492.791,221.596 493.5,222.5 Z"/></g>
<g><path style="opacity:1" fill="#0b4d1f" d="M 687.5,222.5 C 685.824,223.183 685.157,224.517 685.5,226.5C 684.549,225.081 684.216,223.415 684.5,221.5C 685.791,221.263 686.791,221.596 687.5,222.5 Z"/></g>
<g><path style="opacity:1" fill="#10672a" d="M 503.5,218.5 C 504.807,220.223 504.807,222.057 503.5,224C 500.633,224.801 497.966,224.634 495.5,223.5C 497.857,223.663 500.19,223.497 502.5,223C 503.38,221.644 503.714,220.144 503.5,218.5 Z"/></g>
<g><path style="opacity:1" fill="#106c2b" d="M 575.5,224.5 C 575.5,225.5 575.5,226.5 575.5,227.5C 577.167,227.5 578.833,227.5 580.5,227.5C 578.735,228.461 576.735,228.795 574.5,228.5C 574.232,226.901 574.566,225.568 575.5,224.5 Z"/></g>
<g><path style="opacity:1" fill="#126d2d" d="M 601.5,223.5 C 602.451,224.919 602.784,226.585 602.5,228.5C 599.612,229.01 597.279,228.344 595.5,226.5C 597.379,227.341 599.379,227.675 601.5,227.5C 601.5,226.167 601.5,224.833 601.5,223.5 Z"/></g>
<g><path style="opacity:1" fill="#106729" d="M 628.5,225.5 C 629.404,226.209 629.737,227.209 629.5,228.5C 626.941,228.802 624.607,228.468 622.5,227.5C 625.082,227.975 627.082,227.308 628.5,225.5 Z"/></g>
<g><path style="opacity:1" fill="#1ca244" d="M 708.5,259.5 C 709.833,259.5 711.167,259.5 712.5,259.5C 712.173,264.214 712.507,268.88 713.5,273.5C 714.107,273.376 714.44,273.043 714.5,272.5C 715.604,270.611 716.937,268.945 718.5,267.5C 720.483,267.157 721.817,267.824 722.5,269.5C 721.19,271.148 719.857,272.814 718.5,274.5C 720.726,277.619 722.393,280.952 723.5,284.5C 719.153,284.013 715.986,281.68 714,277.5C 713.503,279.81 713.337,282.143 713.5,284.5C 711.833,284.5 710.167,284.5 708.5,284.5C 708.5,276.167 708.5,267.833 708.5,259.5 Z"/></g>
<g><path style="opacity:1" fill="#1da445" d="M 529.5,275.5 C 528.791,274.596 527.791,274.263 526.5,274.5C 526.5,277.833 526.5,281.167 526.5,284.5C 525.167,284.5 523.833,284.5 522.5,284.5C 522.5,276.5 522.5,268.5 522.5,260.5C 526.514,260.334 530.514,260.501 534.5,261C 538.292,263.053 539.458,266.219 538,270.5C 537.535,271.931 536.701,273.097 535.5,274C 537.826,277.146 539.159,280.646 539.5,284.5C 537.833,284.5 536.167,284.5 534.5,284.5C 533.951,282.099 533.118,279.765 532,277.5C 531.292,276.619 530.458,275.953 529.5,275.5 Z"/></g>
<g><path style="opacity:1" fill="#187e35" d="M 664.5,261.5 C 660.5,261.5 656.5,261.5 652.5,261.5C 652.5,269.167 652.5,276.833 652.5,284.5C 651.508,276.684 651.174,268.684 651.5,260.5C 656.032,260.182 660.366,260.515 664.5,261.5 Z"/></g>
<g><path style="opacity:1" fill="#1da646" d="M 664.5,261.5 C 667.056,262.543 669.223,264.21 671,266.5C 672.966,280.7 666.799,286.7 652.5,284.5C 652.5,276.833 652.5,269.167 652.5,261.5C 656.5,261.5 660.5,261.5 664.5,261.5 Z"/></g>
<g><path style="opacity:1" fill="#15722d" d="M 708.5,259.5 C 709.919,258.549 711.585,258.216 713.5,258.5C 713.181,263.363 713.514,268.03 714.5,272.5C 714.44,273.043 714.107,273.376 713.5,273.5C 712.507,268.88 712.173,264.214 712.5,259.5C 711.167,259.5 709.833,259.5 708.5,259.5 Z"/></g>
<g><path style="opacity:1" fill="#1b9e43" d="M 441.5,260.5 C 443.199,260.34 444.866,260.506 446.5,261C 448.291,263.414 449.957,265.914 451.5,268.5C 452.926,266.063 454.259,263.563 455.5,261C 457.259,260.202 458.926,260.369 460.5,261.5C 458.333,265.833 456.167,270.167 454,274.5C 453.502,277.817 453.335,281.15 453.5,284.5C 451.833,284.5 450.167,284.5 448.5,284.5C 448.665,281.15 448.498,277.817 448,274.5C 445.731,269.851 443.565,265.185 441.5,260.5 Z"/></g>
<g><path style="opacity:1" fill="#1c9f42" d="M 612.5,262.5 C 614.167,262.5 615.833,262.5 617.5,262.5C 617.5,264.167 617.5,265.833 617.5,267.5C 618.833,267.5 620.167,267.5 621.5,267.5C 621.5,268.833 621.5,270.167 621.5,271.5C 620.167,271.5 618.833,271.5 617.5,271.5C 617.5,274.833 617.5,278.167 617.5,281.5C 618.833,281.5 620.167,281.5 621.5,281.5C 621.67,282.822 621.337,283.989 620.5,285C 617.653,285.944 615.153,285.444 613,283.5C 613.154,278.193 611.987,273.36 609.5,269C 611.429,267.306 612.429,265.139 612.5,262.5 Z"/></g>
<g><path style="opacity:1" fill="#0b4a1e" d="M 727.5,262.5 C 727.5,264.167 727.5,265.833 727.5,267.5C 726.5,267.5 725.5,267.5 724.5,267.5C 725.767,265.961 726.767,264.294 727.5,262.5 Z"/></g>
<g><path style="opacity:1" fill="#1da847" d="M 727.5,262.5 C 728.833,262.5 730.167,262.5 731.5,262.5C 731.5,264.167 731.5,265.833 731.5,267.5C 732.833,267.5 734.167,267.5 735.5,267.5C 736.833,268.5 736.833,269.5 735.5,270.5C 734.167,270.5 732.833,270.5 731.5,270.5C 731.187,274.042 731.521,277.375 732.5,280.5C 733.209,281.404 734.209,281.737 735.5,281.5C 735.5,282.833 735.5,284.167 735.5,285.5C 732.635,285.945 730.135,285.278 728,283.5C 727.501,279.514 727.334,275.514 727.5,271.5C 726.209,271.737 725.209,271.404 724.5,270.5C 724.5,269.5 724.5,268.5 724.5,267.5C 725.5,267.5 726.5,267.5 727.5,267.5C 727.5,265.833 727.5,264.167 727.5,262.5 Z"/></g>
<g><path style="opacity:1" fill="#020b03" d="M 527.5,264.5 C 531.509,264.014 533.342,265.68 533,269.5C 532.617,270.056 532.117,270.389 531.5,270.5C 530.167,270.5 528.833,270.5 527.5,270.5C 527.5,268.5 527.5,266.5 527.5,264.5 Z"/></g>
<g><path style="opacity:1" fill="#020702" d="M 661.5,265.5 C 666.183,267.21 667.683,270.543 666,275.5C 664.516,279.488 661.683,281.154 657.5,280.5C 657.5,275.5 657.5,270.5 657.5,265.5C 658.833,265.5 660.167,265.5 661.5,265.5 Z"/></g>
<g><path style="opacity:1" fill="#06220d" d="M 661.5,265.5 C 660.167,265.5 658.833,265.5 657.5,265.5C 657.5,270.5 657.5,275.5 657.5,280.5C 656.512,275.36 656.179,270.026 656.5,264.5C 658.415,264.216 660.081,264.549 661.5,265.5 Z"/></g>
<g><path style="opacity:1" fill="#093c19" d="M 718.5,267.5 C 720.389,266.258 722.389,266.258 724.5,267.5C 724.5,268.5 724.5,269.5 724.5,270.5C 723.833,270.167 723.167,269.833 722.5,269.5C 721.817,267.824 720.483,267.157 718.5,267.5 Z"/></g>
<g><path style="opacity:1" fill="#0b4b1e" d="M 731.5,262.5 C 732.434,263.568 732.768,264.901 732.5,266.5C 733.791,266.263 734.791,266.596 735.5,267.5C 734.167,267.5 732.833,267.5 731.5,267.5C 731.5,265.833 731.5,264.167 731.5,262.5 Z"/></g>
<g><path style="opacity:1" fill="#1ca043" d="M 463.5,266.5 C 474.498,265 478.665,269.667 476,280.5C 473.103,285.155 468.937,286.655 463.5,285C 459.695,280.909 458.528,276.076 460,270.5C 461.376,269.295 462.542,267.962 463.5,266.5 Z"/></g>
<g><path style="opacity:1" fill="#1b9e43" d="M 479.5,267.5 C 481.167,267.5 482.833,267.5 484.5,267.5C 484.353,272.214 484.686,276.881 485.5,281.5C 487.39,281.703 488.89,281.037 490,279.5C 490.499,275.514 490.666,271.514 490.5,267.5C 492.167,267.5 493.833,267.5 495.5,267.5C 495.5,273.167 495.5,278.833 495.5,284.5C 493.856,284.714 492.356,284.38 491,283.5C 487.595,286.077 484.262,286.077 481,283.5C 479.603,278.292 479.103,272.959 479.5,267.5 Z"/></g>
<g><path style="opacity:1" fill="#1a953f" d="M 505.5,266.5 C 507.167,266.5 508.833,266.5 510.5,266.5C 510.5,268.167 510.5,269.833 510.5,271.5C 508.856,271.286 507.356,271.62 506,272.5C 505.501,276.486 505.334,280.486 505.5,284.5C 503.5,284.5 501.5,284.5 499.5,284.5C 499.5,278.833 499.5,273.167 499.5,267.5C 501.735,267.795 503.735,267.461 505.5,266.5 Z"/></g>
<g><path style="opacity:1" fill="#1ca043" d="M 545.5,266.5 C 554.626,264.715 558.626,268.381 557.5,277.5C 553.774,277.177 550.107,277.511 546.5,278.5C 547.27,280.272 548.603,281.272 550.5,281.5C 552.453,280.844 554.453,280.511 556.5,280.5C 556.946,284.894 554.946,286.56 550.5,285.5C 546.719,286.173 543.886,284.839 542,281.5C 540.461,275.693 541.628,270.693 545.5,266.5 Z"/></g>
<g><path style="opacity:1" fill="#1b9a41" d="M 567.5,266.5 C 570.62,266.156 573.453,266.823 576,268.5C 579.998,265.557 583.665,265.89 587,269.5C 587.499,274.489 587.666,279.489 587.5,284.5C 585.833,284.5 584.167,284.5 582.5,284.5C 582.666,280.154 582.499,275.821 582,271.5C 580.062,270.14 578.396,270.473 577,272.5C 576.501,276.486 576.334,280.486 576.5,284.5C 574.833,284.5 573.167,284.5 571.5,284.5C 571.666,280.154 571.499,275.821 571,271.5C 569.667,270.167 568.333,270.167 567,271.5C 566.501,275.821 566.334,280.154 566.5,284.5C 564.5,284.5 562.5,284.5 560.5,284.5C 560.5,278.833 560.5,273.167 560.5,267.5C 562.467,267.261 564.301,267.594 566,268.5C 566.717,267.956 567.217,267.289 567.5,266.5 Z"/></g>
<g><path style="opacity:1" fill="#1c9e42" d="M 594.5,266.5 C 605.638,264.805 610.138,269.471 608,280.5C 603.168,286.188 597.835,286.854 592,282.5C 589.453,276.558 590.287,271.225 594.5,266.5 Z"/></g>
<g><path style="opacity:1" fill="#1ca043" d="M 627.5,266.5 C 636.626,264.715 640.626,268.381 639.5,277.5C 635.833,277.5 632.167,277.5 628.5,277.5C 628.33,278.822 628.663,279.989 629.5,281C 632.507,281.301 635.507,281.135 638.5,280.5C 638.714,282.144 638.38,283.644 637.5,285C 625.885,287.048 621.385,282.215 624,270.5C 625.376,269.295 626.542,267.962 627.5,266.5 Z"/></g>
<g><path style="opacity:1" fill="#1b9e42" d="M 678.5,266.5 C 687.005,265.341 691.005,269.007 690.5,277.5C 686.833,277.5 683.167,277.5 679.5,277.5C 679.33,278.822 679.663,279.989 680.5,281C 683.507,281.301 686.507,281.135 689.5,280.5C 689.714,282.144 689.38,283.644 688.5,285C 675.321,286.479 671.155,280.979 676,268.5C 676.995,267.934 677.828,267.267 678.5,266.5 Z"/></g>
<g><path style="opacity:1" fill="#1a9a40" d="M 695.5,266.5 C 698.5,266.5 701.5,266.5 704.5,266.5C 704.5,268.167 704.5,269.833 704.5,271.5C 702.105,270.637 699.771,270.637 697.5,271.5C 699.988,273.069 702.488,274.736 705,276.5C 705.729,284.09 702.229,286.923 694.5,285C 692.44,283.507 692.107,281.674 693.5,279.5C 695.51,281.171 697.843,281.838 700.5,281.5C 700.719,280.325 700.386,279.325 699.5,278.5C 692.011,276.329 690.677,272.329 695.5,266.5 Z"/></g>
<g><path style="opacity:1" fill="#1b9f43" d="M 742.5,266.5 C 752.994,264.827 757.161,269.16 755,279.5C 754.727,281.329 753.893,282.829 752.5,284C 742.313,287.807 737.479,284.307 738,273.5C 738.904,270.767 740.404,268.433 742.5,266.5 Z"/></g>
<g><path style="opacity:1" fill="#1ca144" d="M 765.5,266.5 C 772.86,265.359 776.193,268.526 775.5,276C 775.411,283.597 771.744,286.43 764.5,284.5C 763.526,286.743 763.192,289.076 763.5,291.5C 761.833,291.5 760.167,291.5 758.5,291.5C 758.5,283.5 758.5,275.5 758.5,267.5C 761.059,267.802 763.393,267.468 765.5,266.5 Z"/></g>
<g><path style="opacity:1" fill="#020a03" d="M 465.5,270.5 C 467.467,270.261 469.301,270.594 471,271.5C 471.667,274.167 471.667,276.833 471,279.5C 469,282.167 467,282.167 465,279.5C 464.264,276.408 464.431,273.408 465.5,270.5 Z"/></g>
<g><path style="opacity:1" fill="#0f5724" d="M 527.5,264.5 C 527.5,266.5 527.5,268.5 527.5,270.5C 528.833,270.5 530.167,270.5 531.5,270.5C 530.081,271.451 528.415,271.784 526.5,271.5C 526.198,268.941 526.532,266.607 527.5,264.5 Z"/></g>
<g><path style="opacity:1" fill="#051106" d="M 744.5,270.5 C 750.156,270.867 751.989,273.867 750,279.5C 745.191,282.832 742.691,281.498 742.5,275.5C 742.437,273.486 743.103,271.819 744.5,270.5 Z"/></g>
<g><path style="opacity:1" fill="#030e04" d="M 552.5,272.5 C 550.735,273.461 548.735,273.795 546.5,273.5C 546.484,271.516 547.484,270.516 549.5,270.5C 551.038,270.453 552.038,271.12 552.5,272.5 Z"/></g>
<g><path style="opacity:1" fill="#041106" d="M 597.5,270.5 C 603.156,270.867 604.989,273.867 603,279.5C 600.667,282.167 598.333,282.167 596,279.5C 595.068,276.177 595.568,273.177 597.5,270.5 Z"/></g>
<g><path style="opacity:1" fill="#071808" d="M 629.5,270.5 C 632.95,269.756 634.616,271.09 634.5,274.5C 632.5,274.5 630.5,274.5 628.5,274.5C 628.433,273.041 628.766,271.708 629.5,270.5 Z"/></g>
<g><path style="opacity:1" fill="#040f05" d="M 685.5,273.5 C 683.265,273.795 681.265,273.461 679.5,272.5C 680.659,270.623 682.326,270.123 684.5,271C 685.252,271.671 685.586,272.504 685.5,273.5 Z"/></g>
<g><path style="opacity:1" fill="#0d4b1c" d="M 735.5,270.5 C 734.791,271.404 733.791,271.737 732.5,271.5C 732.5,274.5 732.5,277.5 732.5,280.5C 731.521,277.375 731.187,274.042 731.5,270.5C 732.833,270.5 734.167,270.5 735.5,270.5 Z"/></g>
<g><path style="opacity:1" fill="#051307" d="M 765.5,270.5 C 769.134,270.156 770.8,271.823 770.5,275.5C 770.462,281.093 768.296,282.427 764,279.5C 763.068,276.177 763.568,273.177 765.5,270.5 Z"/></g>
<g><path style="opacity:1" fill="#083c17" d="M 552.5,272.5 C 553.043,272.56 553.376,272.893 553.5,273.5C 551.027,274.797 548.693,274.797 546.5,273.5C 548.735,273.795 550.735,273.461 552.5,272.5 Z"/></g>
<g><path style="opacity:1" fill="#073a16" d="M 679.5,272.5 C 681.265,273.461 683.265,273.795 685.5,273.5C 683.307,274.797 680.973,274.797 678.5,273.5C 678.624,272.893 678.957,272.56 679.5,272.5 Z"/></g>
<g><path style="opacity:1" fill="#115f26" d="M 529.5,275.5 C 527.89,278.203 526.89,281.203 526.5,284.5C 526.5,281.167 526.5,277.833 526.5,274.5C 527.791,274.263 528.791,274.596 529.5,275.5 Z"/></g>
</svg>
