
<svg version="1.1" id="Layer_1" xmlns="http://www.w3.org/2000/svg" xmlns:xlink="http://www.w3.org/1999/xlink" x="0px" y="0px"
	 width="26" height="26" viewBox="0 0 1024 1024" enable-background="new 0 0 1024 1024" xml:space="preserve">
<path fill="#3A73B9" opacity="1.000000" stroke="none" 
	d="
M1.000000,388.000000 
	C1.000000,258.666687 1.000000,129.833359 1.000000,1.000035 
	C342.333282,1.000023 683.666565,1.000023 1025.000000,1.000012 
	C1025.000000,342.333252 1025.000000,683.666504 1025.000000,1024.999756 
	C683.666809,1024.999878 342.333618,1024.999878 1.000206,1025.000000 
	C1.000000,812.833313 1.000000,600.666687 1.000000,388.000000 
M297.427582,234.606018 
	C297.650208,234.479767 297.717957,234.296143 298.139160,233.632172 
	C298.428070,233.299896 298.716980,232.967621 299.516357,232.582657 
	C299.866272,232.049622 300.216217,231.516586 301.106384,230.549301 
	C302.522827,229.053818 303.939301,227.558334 305.754120,226.052200 
	C306.029083,225.916763 306.147400,225.696869 306.594391,224.986313 
	C307.165070,224.367157 307.735779,223.748016 308.842499,223.037506 
	C309.249481,222.489014 309.656433,221.940521 310.610077,220.965179 
	C312.098602,219.498901 313.587097,218.032639 315.680878,216.516113 
	C317.880035,214.341843 320.079224,212.167587 322.697083,209.698822 
	C322.808624,209.569687 322.920135,209.440567 323.526184,209.247879 
	C324.144958,208.515350 324.763733,207.782806 325.767181,206.735123 
	C325.767181,206.735123 326.099426,206.365128 326.681671,206.370880 
	C328.456238,204.721008 330.230774,203.071136 332.575226,200.963898 
	C332.741486,200.785889 332.907745,200.607880 333.680145,200.412811 
	C339.878052,195.289917 346.075989,190.167038 352.933563,184.585907 
	C353.352997,184.253067 353.772430,183.920212 354.664001,183.644135 
	C355.038727,183.192642 355.413422,182.741150 356.476440,181.853882 
	C356.695618,181.693588 356.914795,181.533279 357.651917,181.434448 
	C358.536804,180.652359 359.421661,179.870285 361.004211,178.635376 
	C361.682007,178.153976 362.359802,177.672577 363.210907,177.330002 
	C363.210907,177.330002 363.276672,176.995407 363.723236,176.630478 
	C363.855255,176.490738 363.987274,176.350998 364.697296,176.264145 
	C366.377808,174.951477 368.058319,173.638794 370.536499,171.816849 
	C370.801178,171.645187 371.065826,171.473526 371.724426,171.437149 
	C372.058228,171.057480 372.392029,170.677826 373.479523,169.892960 
	C373.959595,169.585754 374.439636,169.278564 375.408508,169.036850 
	C376.254456,168.340820 377.100403,167.644791 378.716644,166.460709 
	C379.483093,165.967010 380.249542,165.473312 381.337738,165.108658 
	C381.498169,164.854248 381.658600,164.599838 382.580017,163.879318 
	C382.830292,163.718536 383.080536,163.557739 383.583344,163.572754 
	C383.961609,163.533905 384.128723,163.337158 384.843445,162.537567 
	C385.583008,162.061523 386.322601,161.585480 387.402832,161.233765 
	C387.600281,160.983276 387.797699,160.732788 388.702240,160.017639 
	C388.930237,159.851593 389.158203,159.685547 389.953796,159.627441 
	C391.527161,158.560135 393.100555,157.492813 395.374786,156.039490 
	C396.072174,155.648117 396.769531,155.256744 397.720093,154.975479 
	C397.951599,154.914749 398.025024,154.772171 398.759796,154.051102 
	C399.314178,153.733765 399.868561,153.416428 400.587921,153.288712 
	C400.587921,153.288712 400.925293,153.171921 400.925293,153.171921 
	C400.925293,153.171921 400.950623,152.838684 401.777985,152.354767 
	C402.305115,151.993622 402.832245,151.632477 403.915619,151.387497 
	C405.507019,150.404709 407.098419,149.421921 409.507446,147.985580 
	C410.350006,147.581467 411.192566,147.177353 412.291321,146.926910 
	C412.656616,146.828125 412.771942,146.611832 413.449890,145.829315 
	C414.006317,145.558640 414.562744,145.287964 415.693787,145.146545 
	C417.725342,143.886520 419.756897,142.626511 422.610992,141.111588 
	C422.873199,140.994781 423.135406,140.877991 424.054626,140.825775 
	C428.401886,138.554169 432.749176,136.282578 437.899048,133.672287 
	C438.707153,133.348434 439.515228,133.024582 440.736542,132.946701 
	C446.054504,130.417358 451.372467,127.888008 457.634186,125.106468 
	C457.943390,125.004333 458.252594,124.902191 459.216553,124.921761 
	C465.370911,122.420212 471.525238,119.918663 478.592224,117.230751 
	C479.192261,117.071785 479.792267,116.912819 480.726501,117.017982 
	C481.698700,116.449059 482.670868,115.880142 484.574066,115.104546 
	C484.879364,115.016014 485.184662,114.927483 486.188690,114.993057 
	C494.001251,112.472221 501.813782,109.951378 510.560242,107.251686 
	C511.177917,107.109497 511.795593,106.967300 512.898376,107.062035 
	C513.556580,106.978508 514.233826,106.967918 514.870178,106.800995 
	C544.559631,99.013100 574.665710,93.842300 605.356506,92.283455 
	C606.412781,92.229805 607.440430,91.614326 609.533325,91.246605 
	C610.583008,91.178596 611.632629,91.110596 613.205505,91.380470 
	C616.321594,91.146706 619.437683,90.912941 622.553772,90.679176 
	C622.551086,90.115936 622.548462,89.552696 622.545776,88.989456 
	C617.291626,88.285606 612.037476,87.581764 605.682190,86.651344 
	C604.940308,86.545822 604.198425,86.440292 603.036072,85.837288 
	C594.859314,84.510696 586.689209,83.141960 578.504578,81.865669 
	C556.747253,78.472855 534.825684,78.123283 512.861572,78.108101 
	C483.829926,78.088036 455.140686,81.276558 426.686310,86.736305 
	C419.110016,88.190018 411.696503,90.492088 403.189423,92.571182 
	C402.521576,92.736862 401.853699,92.902542 400.777374,92.775627 
	C395.059570,94.429764 389.341736,96.083908 382.975586,98.074883 
	C382.788422,98.230736 382.601288,98.386589 381.869751,98.234154 
	C380.406616,98.702431 378.943481,99.170708 376.405304,100.017487 
	C376.096954,100.239410 375.788574,100.461334 374.948914,100.398567 
	C373.522186,100.856392 372.095490,101.314224 369.844452,102.154091 
	C368.984741,102.441765 368.125061,102.729431 367.078430,102.749435 
	C366.545349,103.013527 366.012299,103.277611 364.417969,103.936722 
	C364.123169,104.172470 363.828369,104.408226 363.012543,104.383766 
	C361.893555,104.756691 360.774597,105.129616 358.793549,105.963814 
	C357.666260,106.602493 356.538940,107.241180 355.259857,107.603157 
	C354.700378,107.655212 354.140930,107.707268 352.958923,108.145309 
	C352.786072,108.317749 352.613220,108.490196 351.956970,108.330887 
	C350.813324,108.781761 349.669708,109.232635 347.775970,110.122612 
	C346.683990,110.498619 345.592010,110.874626 344.300690,110.999023 
	C343.864929,111.309937 343.429169,111.620842 342.314056,112.341591 
	C342.064819,112.430046 341.815552,112.518501 341.456635,112.410835 
	C341.456635,112.410835 341.175293,112.677460 340.255005,112.991898 
	C339.997986,113.189438 339.740936,113.386986 339.294830,113.300034 
	C338.915924,113.182411 338.660828,113.298538 337.999512,114.026253 
	C337.869415,114.199905 337.739288,114.373550 336.989380,114.308350 
	C335.075867,115.122475 333.162323,115.936607 330.536163,116.891403 
	C327.345123,118.617310 324.154083,120.343224 320.188690,122.172379 
	C319.999054,122.350807 319.809418,122.529243 319.771149,122.557861 
	C319.771149,122.557861 319.390015,122.578720 319.390015,122.578720 
	C319.390015,122.578720 319.330902,122.917496 318.501099,123.352715 
	C317.380981,123.872284 316.260864,124.391853 315.349426,125.011612 
	C315.349426,125.011612 315.359528,124.738487 315.359528,124.738487 
	C315.359528,124.738487 315.077240,124.933411 314.482635,124.903442 
	C314.009369,125.256340 313.536102,125.609230 312.703033,125.755264 
	C312.241791,126.104866 311.780518,126.454468 310.519623,126.811996 
	C304.390930,129.804474 298.138092,132.570465 292.163910,135.844818 
	C284.082794,140.273926 276.024963,144.800369 268.306885,149.822571 
	C259.495514,155.556198 251.068359,161.880264 242.194855,167.852875 
	C242.194855,167.852875 242.037354,168.102386 241.514359,168.139908 
	C241.329575,168.413971 241.144791,168.688034 240.960678,168.971710 
	C240.960678,168.971710 240.942169,168.955200 240.333145,169.035004 
	C239.592728,169.673492 238.852310,170.311981 237.922668,170.953003 
	C237.922668,170.953003 237.924683,171.142242 237.364273,171.269012 
	C236.859131,171.805481 236.353973,172.341949 235.905319,172.984695 
	C235.905319,172.984695 236.011673,172.928253 235.341980,172.973145 
	C235.053696,173.303726 234.765411,173.634308 234.169846,173.882568 
	C234.169846,173.882568 233.980835,174.138428 233.565811,174.080002 
	C233.312164,174.363739 233.058517,174.647491 232.033478,175.257233 
	C231.636841,175.644058 231.240204,176.030884 230.571533,176.358627 
	C230.350357,176.444046 230.291245,176.593445 229.711319,177.070053 
	C227.730499,178.585632 225.608566,179.949615 223.791321,181.640945 
	C210.114151,194.370285 196.496964,207.164062 182.240555,220.176132 
	C172.344086,231.555435 162.126907,242.675888 152.661896,254.403427 
	C146.156082,262.464386 140.694199,271.367889 134.137512,280.209656 
	C133.367706,281.637695 132.597900,283.065765 131.686844,284.374023 
	C131.686844,284.374023 131.751129,284.605743 131.123672,285.164001 
	C130.743713,285.904266 130.363754,286.644501 129.519470,287.563843 
	C129.346283,288.005768 129.173080,288.447693 128.486084,289.364685 
	C124.900002,295.161407 121.313911,300.958160 117.098854,307.022766 
	C116.146210,308.350250 114.980995,309.573944 114.274292,311.021484 
	C108.172905,323.518707 101.416962,335.763489 96.296478,348.655609 
	C89.832596,364.930054 84.380608,381.635437 79.156227,398.362335 
	C76.015472,408.418091 73.852249,418.812042 71.803261,429.163574 
	C70.573120,435.378326 70.408424,441.804016 69.791328,448.714661 
	C69.751205,449.098663 69.711090,449.482666 69.233643,450.319366 
	C68.854324,451.273987 68.475014,452.228577 68.088593,454.038361 
	C67.792717,459.075043 67.496841,464.111755 67.228790,469.629883 
	C67.228790,469.629883 67.308609,470.105499 67.139603,470.720886 
	C67.028053,471.131592 66.916504,471.542328 66.222290,472.419952 
	C65.851700,473.996429 65.164703,475.571686 65.158691,477.149567 
	C65.085152,496.434235 65.070450,515.719543 65.185509,535.003784 
	C65.195320,536.648804 66.241554,538.287598 66.974266,540.864319 
	C67.903076,547.042969 68.831886,553.221619 69.706985,560.148865 
	C69.802185,561.395142 69.897392,562.641479 69.797310,564.609192 
	C71.468964,574.184814 72.915840,583.807190 74.896271,593.318542 
	C76.091721,599.059814 78.115913,604.628601 79.755310,610.926025 
	C79.816208,611.573914 79.877098,612.221741 79.799797,613.465759 
	C80.610008,615.621582 81.420219,617.777344 82.154472,620.641785 
	C83.178406,623.719788 84.051720,626.857788 85.251465,629.865662 
	C91.616615,645.824158 97.484047,662.016296 104.650269,677.609802 
	C111.417465,692.335022 118.828972,706.877441 127.265839,720.701477 
	C155.960098,767.718018 192.886429,807.332886 236.850296,840.497375 
	C269.990601,865.497131 305.926483,885.496155 344.460846,900.714966 
	C373.106476,912.028259 402.668823,920.316895 433.049377,925.777893 
	C462.497925,931.071289 492.131561,933.548218 522.012390,933.489563 
	C523.188232,933.487244 524.363403,933.118774 526.793518,932.709717 
	C517.475647,930.163757 509.459381,928.085815 501.508606,925.781982 
	C462.312073,914.424622 425.302734,898.010376 390.540039,876.709595 
	C335.112976,842.746765 288.767944,799.128357 252.573914,744.994812 
	C225.507629,704.513123 206.013748,660.649231 194.679932,612.574951 
	C194.207748,611.585693 193.735580,610.596436 193.285919,608.960999 
	C193.183029,608.324280 193.080139,607.687622 193.211014,606.455994 
	C192.564804,604.494080 191.918610,602.532104 191.295990,599.946594 
	C191.216721,599.328491 191.137436,598.710388 191.270721,597.395752 
	C189.927170,590.808167 188.583603,584.220642 187.278732,576.919556 
	C187.192368,575.971924 187.106018,575.024353 187.250931,573.356140 
	C186.565872,569.771912 185.880814,566.187622 185.272873,562.114441 
	C185.288727,561.780029 185.240601,561.455078 185.432236,560.578918 
	C185.258347,559.363708 185.084473,558.148560 184.967331,556.337708 
	C184.935867,555.940857 184.904404,555.544067 185.109802,554.393311 
	C185.059204,552.065247 185.133453,549.726746 184.939407,547.410706 
	C181.689606,508.624481 184.850372,470.292999 192.996918,432.304901 
	C194.453751,425.511566 195.793488,418.693115 197.321869,411.425079 
	C197.383484,411.107391 197.391647,410.788330 197.901169,410.037903 
	C198.380966,408.991211 199.010773,407.986725 199.318939,406.891724 
	C211.036240,365.257782 229.231323,326.624298 253.254242,290.716064 
	C259.521820,281.347595 266.146210,272.217804 273.023224,262.619934 
	C273.136505,262.475983 273.249786,262.332062 273.959717,261.975739 
	C276.203461,259.008453 278.447205,256.041138 280.903198,252.916367 
	C280.903198,252.916367 281.053741,252.699158 281.650543,252.526642 
	C283.931274,249.681107 286.212036,246.835587 289.004913,243.507996 
	C289.315338,243.157043 289.625732,242.806076 290.505280,242.280563 
	C291.917450,240.555023 293.329590,238.829483 294.950378,236.952484 
	C294.950378,236.952484 295.100342,236.742767 295.607910,236.686234 
	C295.968628,236.161850 296.329315,235.637466 296.930878,234.888031 
	C296.930878,234.888031 297.109100,234.610703 297.427582,234.606018 
M530.618103,874.411560 
	C530.618103,874.411560 530.576294,874.359131 530.815125,875.123047 
	C532.223083,875.849060 533.579163,876.717651 535.055542,877.255676 
	C536.233582,877.684937 538.258484,877.277893 538.699158,877.989929 
	C540.835327,881.441406 543.917725,880.585876 547.028442,880.588440 
	C548.635315,880.589783 550.250549,881.593201 551.846008,882.187012 
	C556.218933,883.814636 560.105530,886.679871 565.041504,886.903259 
	C567.926331,887.033752 570.800110,887.685913 573.649719,888.250183 
	C577.343079,888.981506 580.976440,890.073975 584.693420,890.610718 
	C588.121338,891.105652 592.625061,889.797791 594.869995,891.559082 
	C598.548035,894.444702 602.219055,894.178711 606.038391,894.199341 
	C624.032410,894.296448 642.027893,894.272156 660.021606,894.134705 
	C662.427063,894.116333 664.839661,893.264587 667.223328,892.692261 
	C669.363831,892.178284 671.434265,891.263855 673.596191,890.966553 
	C682.094971,889.797791 690.670227,892.687927 699.317566,887.766113 
	C704.615540,884.750671 712.235168,887.039368 718.914429,884.822205 
	C725.210266,882.732239 731.468933,878.570007 738.776794,880.468872 
	C743.733398,873.973694 753.411987,876.904663 758.466614,870.605225 
	C763.265015,873.045471 765.427368,868.187561 768.859070,866.845947 
	C771.131287,865.957642 773.448608,865.153198 775.635132,864.084839 
	C778.392456,862.737549 781.026245,861.139465 783.734192,859.688354 
	C785.569580,858.704834 788.228638,858.266785 789.148743,856.752075 
	C791.956909,852.129150 797.048523,850.572754 800.729065,847.180603 
	C804.913818,843.323853 809.473328,839.873657 813.889893,836.230347 
	C813.818848,836.152222 814.260681,836.638123 814.692017,837.112488 
	C816.671570,833.424988 817.726318,829.011963 820.522339,826.810364 
	C825.025024,823.265137 825.372864,817.816528 828.389038,813.700806 
	C829.788513,811.791138 829.579651,808.781921 830.508972,806.433105 
	C832.810791,800.615417 837.204285,795.387817 835.223938,788.439148 
	C835.048828,787.824707 835.199524,787.113770 835.218933,786.448242 
	C835.498962,776.843872 836.255493,767.218689 835.833191,757.645508 
	C835.663208,753.793274 836.235535,749.565430 832.755859,745.663513 
	C829.902405,742.463867 829.648499,737.003967 828.029541,732.624573 
	C826.976868,729.776978 825.542542,727.070374 824.266357,724.272461 
	C824.140503,724.303345 822.983826,724.618530 822.973877,724.585693 
	C820.757996,717.283081 816.103149,711.552612 810.999939,706.163879 
	C805.424927,700.276978 799.889587,694.293884 792.114136,691.140808 
	C791.226624,690.780945 790.374817,690.270081 789.602722,689.699158 
	C786.315552,687.268555 783.585754,683.803894 778.733093,684.480164 
	C777.726379,684.620483 776.598816,683.856812 775.521057,683.529114 
	C772.379578,682.573975 769.235229,681.628723 765.613647,680.198425 
	C762.075195,675.603699 757.130981,677.326904 751.944580,677.240295 
	C749.976929,677.398682 748.009338,677.557068 745.387695,677.239929 
	C740.085144,676.384094 735.212402,677.333801 730.060120,680.671448 
	C724.816711,680.100952 721.423157,686.512634 715.785278,684.453430 
	C715.936768,685.236694 716.088318,686.019958 716.240784,686.808167 
	C711.910339,688.182312 707.530273,689.540649 703.182251,690.994812 
	C702.679382,691.162964 702.431763,691.988037 701.934204,692.295776 
	C699.412903,693.854919 697.009094,696.131897 694.264832,696.692688 
	C688.611267,697.847778 683.925903,702.632080 677.581604,701.117126 
	C677.189392,701.023438 676.632996,702.059753 676.045532,702.270569 
	C671.962158,703.735535 667.888184,706.191040 663.740662,706.337830 
	C649.467468,706.843140 635.165405,706.536987 620.874329,706.521057 
	C620.053467,706.520142 619.156372,706.534851 618.424561,706.230347 
	C614.262756,704.498840 610.278137,701.776733 605.968567,701.114868 
	C601.077820,700.363892 596.555847,699.264587 592.229065,696.934021 
	C586.782471,694.000305 581.414062,690.809692 575.693604,688.528137 
	C570.011841,686.261963 566.595154,681.292725 561.943054,677.879456 
	C554.049011,672.087463 547.366028,664.438232 541.039246,656.848450 
	C539.243774,654.694519 539.305725,651.116089 535.300476,651.150085 
	C535.200500,651.150940 535.138428,650.543945 534.986572,650.258850 
	C532.266968,645.153564 529.536255,640.054138 526.797974,634.934875 
	C526.297302,635.489990 525.865540,635.968750 525.953674,635.870972 
	C524.513123,633.461182 523.066589,631.309937 521.933716,629.004578 
	C521.522522,628.167603 521.860413,626.962463 522.644043,626.254211 
	C525.113770,626.505005 527.583374,626.974487 530.053162,626.975220 
	C647.697754,627.009766 765.342346,627.003967 882.986938,627.002563 
	C884.927185,627.002502 886.867432,627.002502 889.221008,627.002502 
	C887.854431,625.732666 886.935242,624.878540 886.681274,623.840698 
	C893.250305,622.404724 900.890991,625.671143 906.348572,619.358459 
	C911.196899,620.325806 915.209839,618.754639 919.191711,615.937622 
	C921.692078,614.168701 924.980103,613.526245 927.881714,612.300110 
	C928.448181,612.060791 928.843079,611.437073 929.349854,611.031433 
	C933.722351,607.531189 937.518494,603.440918 941.505920,599.554138 
	C944.202393,596.925720 946.604858,594.263611 948.632874,591.258850 
	C948.632874,591.258850 948.563416,591.299255 949.298035,591.045288 
	C950.065369,590.336731 951.204956,589.768738 951.534973,588.894958 
	C952.895386,585.293762 953.793701,581.509827 955.267639,577.961609 
	C957.308777,573.047729 961.141785,568.852051 961.349487,563.212891 
	C961.461853,560.162048 961.242737,557.099060 961.645691,554.307800 
	C962.384705,554.994995 963.123657,555.682190 964.333862,556.807617 
	C964.333862,545.916809 964.333862,535.812561 964.333862,525.154907 
	C962.855835,526.466431 962.015259,527.212280 961.044312,527.041931 
	C961.035217,525.215271 960.835510,523.366150 961.048035,521.565674 
	C962.418640,509.952545 961.010010,498.429230 957.544861,487.533447 
	C955.511414,481.139496 954.852112,475.021759 954.735107,468.565796 
	C954.713806,467.387848 953.671265,466.264160 953.359253,465.048889 
	C952.501892,461.710327 951.722046,458.348663 951.039124,454.970306 
	C950.780212,453.689819 951.394897,451.905487 950.719299,451.087738 
	C944.793945,443.915283 946.135925,434.072083 941.096619,426.324738 
	C937.398743,420.639893 936.288574,413.273834 933.989441,406.669434 
	C933.906982,406.432434 933.444580,406.327637 932.860718,405.850800 
	C932.860718,405.850800 932.558655,405.543884 932.495911,404.901978 
	C931.021729,401.878326 929.476013,398.887024 928.089600,395.823639 
	C925.858215,390.893402 923.829590,385.868713 921.492371,380.990814 
	C920.907166,379.769592 919.039246,379.144104 918.506226,377.920197 
	C916.732483,373.847137 915.304321,369.623871 913.718689,365.467712 
	C913.607910,365.177338 913.290222,364.967255 913.073608,364.715668 
	C910.241333,361.427307 906.561951,358.538666 904.775696,354.756073 
	C902.042297,348.967926 898.687317,343.730591 894.772278,338.770874 
	C894.031067,337.831940 892.587402,337.268433 892.205872,336.254089 
	C889.905579,330.139252 885.740051,325.331848 881.587219,320.498383 
	C876.440308,314.507904 871.391296,308.428040 866.091431,302.575684 
	C860.707153,296.630188 855.236084,290.742676 849.488281,285.153473 
	C845.010254,280.798920 839.991333,277.005951 835.318604,272.844604 
	C830.132996,268.226410 824.650574,263.987030 819.610168,259.137604 
	C815.268005,254.959976 809.562988,252.031601 804.696472,248.074738 
	C799.740234,244.044922 793.481018,241.596039 787.962463,238.085236 
	C783.216980,235.066238 778.512146,230.710175 771.839539,230.134018 
	C767.606384,229.768509 764.486389,225.392761 759.902222,223.644424 
	C752.043091,220.647049 744.747131,216.078918 736.254456,214.501129 
	C735.820496,214.420517 735.435974,214.033188 735.045837,213.763458 
	C730.381836,210.538773 725.836121,207.071808 719.576660,208.038147 
	C718.723206,208.169891 717.748169,207.418869 716.812561,207.131149 
	C713.858154,206.222519 710.928833,205.198761 707.925659,204.492157 
	C705.559631,203.935440 702.631897,204.507965 700.769165,203.310471 
	C695.584534,199.977448 689.561523,199.335007 683.972961,198.364410 
	C672.462158,196.365280 660.669250,199.915207 648.835022,195.068558 
	C642.676636,192.546417 634.317383,195.398163 626.506897,195.341202 
	C621.486389,195.299637 616.460449,195.129440 611.450562,195.340240 
	C610.592712,195.376343 609.803284,197.038513 608.064331,198.138260 
	C605.904297,198.088928 603.738342,197.916473 601.585510,198.019043 
	C598.325195,198.174347 594.948120,198.054306 591.846558,198.889771 
	C586.458740,200.341125 581.338806,202.815231 575.932800,204.164169 
	C568.444702,206.032608 560.795898,207.256989 553.170898,208.766083 
	C553.603699,209.451492 553.959412,210.014847 554.268982,210.505157 
	C548.457214,211.910278 542.917542,212.982178 537.558472,214.638626 
	C533.942383,215.756302 530.581177,217.698410 527.216980,219.221451 
	C527.342834,219.371429 527.804260,219.921112 528.172974,220.360413 
	C523.752991,221.963287 519.239990,223.129105 515.180786,225.188965 
	C509.902710,227.867355 504.998779,231.279022 499.905060,234.326981 
	C498.099243,235.407532 496.168762,236.279968 494.364532,237.362930 
	C487.997894,241.184433 481.719452,245.156967 475.286530,248.862030 
	C472.457886,250.491196 470.686310,253.429596 467.186127,254.355560 
	C464.896912,254.961151 462.873444,256.959167 460.996674,258.631683 
	C458.942047,260.462646 457.439148,262.965424 455.261566,264.595123 
	C450.210266,268.375549 444.752747,271.616516 439.735199,275.437622 
	C435.534027,278.636963 432.543854,283.144287 428.669312,286.792511 
	C425.631439,289.652863 422.703766,292.816162 419.482574,295.623352 
	C418.597076,296.395050 418.169495,297.672485 417.440338,298.649628 
	C416.894348,299.381409 416.256592,300.069336 415.557556,300.654907 
	C414.951721,301.162415 414.018951,301.350555 413.546967,301.935211 
	C410.948425,305.153900 408.448181,308.451965 405.911835,311.720947 
	C404.130951,314.016266 402.291809,316.268951 400.581787,318.615814 
	C399.366241,320.284119 398.511139,322.242950 397.162994,323.780853 
	C394.299896,327.046814 389.616028,329.682648 388.601868,333.378906 
	C387.047241,339.044769 382.686249,342.370148 380.199066,347.114197 
	C377.661255,351.954742 373.827759,356.100159 371.070618,360.845703 
	C367.803802,366.468353 365.128632,372.432068 362.102570,378.198395 
	C360.613617,381.035675 358.888641,383.748260 357.316711,386.543213 
	C356.591675,387.832367 355.857086,389.138397 355.336853,390.516052 
	C354.041382,393.946564 352.881073,397.427856 351.634857,400.877350 
	C351.224731,402.012543 350.811157,403.163544 350.237488,404.219482 
	C348.408966,407.585266 345.204498,410.812439 344.945312,414.273895 
	C344.589569,419.024323 339.183899,422.153351 341.375153,427.356018 
	C341.464874,427.569031 340.886108,428.258850 340.486206,428.451813 
	C337.383728,429.948853 338.016144,432.837036 337.729431,435.435974 
	C337.552429,437.040649 337.545502,438.976776 336.647736,440.130219 
	C334.017212,443.509918 335.749756,448.862213 331.379425,451.393311 
	C331.067535,451.573944 331.211273,452.665009 331.259735,453.324158 
	C331.586365,457.768341 331.779633,462.127991 328.497498,465.834991 
	C327.827179,466.592072 327.751221,467.975891 327.622803,469.096191 
	C326.702606,477.125854 325.841125,485.162231 324.955048,493.195801 
	C324.901459,493.681915 324.954651,494.463104 324.692291,494.600922 
	C319.635590,497.257355 321.638672,502.076813 321.254364,506.065247 
	C320.874359,510.008759 321.003204,514.001343 320.670258,518.178711 
	C320.508789,518.494873 320.553406,518.778320 320.967957,519.880920 
	C320.921478,521.898865 320.874969,523.916870 320.111084,526.143555 
	C319.432556,527.354187 318.183960,528.555969 318.165039,529.776917 
	C318.004028,540.175354 317.964081,550.579468 318.184814,560.975525 
	C318.214111,562.356262 319.908051,563.701660 320.978882,565.983459 
	C322.712036,576.421448 317.829803,587.713745 325.028168,597.460205 
	C325.173553,597.657043 324.909607,598.114624 324.951111,598.435852 
	C325.729706,604.461670 326.727661,610.467712 327.252014,616.515015 
	C327.648041,621.082031 326.887695,625.864136 331.252380,629.148010 
	C331.515167,629.345703 331.435059,630.102051 331.391876,630.587585 
	C330.950439,635.552795 330.829742,639.929382 334.075867,644.764221 
	C336.238281,647.984863 338.956329,652.875732 337.115784,657.967773 
	C336.796021,658.852356 337.324097,660.465637 338.023468,661.221619 
	C340.727875,664.144775 339.984070,668.309692 341.566071,671.245056 
	C344.592743,676.861084 346.749603,682.707642 349.009766,688.599365 
	C350.619232,692.794922 352.971527,696.713135 355.098724,700.698303 
	C355.886688,702.174622 357.287811,703.370972 357.869965,704.900330 
	C359.267517,708.571838 359.856995,712.624817 361.675537,716.043518 
	C363.982269,720.380127 366.974701,723.991577 368.512115,729.130859 
	C370.459412,735.640259 375.640015,741.209717 379.567017,747.090576 
	C382.490051,751.467896 385.662567,755.677979 388.674255,759.997253 
	C390.472107,762.575684 392.018524,765.343628 393.958984,767.804749 
	C396.284698,770.754517 398.872498,773.502808 401.428284,776.262939 
	C402.187775,777.083191 403.875732,777.529785 404.026215,778.351379 
	C405.267944,785.129822 411.003571,787.783325 415.632141,791.380859 
	C415.632141,791.380859 415.592590,791.318665 415.846771,792.116150 
	C417.039490,793.716370 417.973907,795.627686 419.466400,796.866821 
	C430.092957,805.689148 437.866913,817.531372 449.818695,825.013306 
	C454.247894,827.786011 457.680969,832.103943 461.833618,835.381042 
	C464.514008,837.496338 467.742889,838.901489 470.599548,840.813721 
	C472.481262,842.073181 474.138153,843.668457 475.895721,845.113342 
	C476.744934,845.507202 476.989105,846.962402 477.783386,847.385925 
	C480.442078,848.803711 483.472809,849.559387 486.044708,851.097595 
	C493.958649,855.830811 500.994812,861.831909 510.082458,864.860413 
	C514.741211,866.412903 518.269714,871.171265 524.051025,870.744873 
	C524.754150,870.692993 525.473816,872.063049 526.322815,872.518982 
	C527.681030,873.248352 529.154053,873.763916 530.618103,874.411560 
z"/>
<path fill="#FEFFFF" opacity="1.000000" stroke="none" 
	d="
M521.856506,625.925354 
	C521.860413,626.962463 521.522522,628.167603 521.933716,629.004578 
	C523.066589,631.309937 524.513123,633.461182 525.953674,635.870972 
	C525.865540,635.968750 526.297302,635.489990 526.797974,634.934875 
	C529.536255,640.054138 532.266968,645.153564 534.986572,650.258850 
	C535.138428,650.543945 535.200500,651.150940 535.300476,651.150085 
	C539.305725,651.116089 539.243774,654.694519 541.039246,656.848450 
	C547.366028,664.438232 554.049011,672.087463 561.943054,677.879456 
	C566.595154,681.292725 570.011841,686.261963 575.693604,688.528137 
	C581.414062,690.809692 586.782471,694.000305 592.229065,696.934021 
	C596.555847,699.264587 601.077820,700.363892 605.968567,701.114868 
	C610.278137,701.776733 614.262756,704.498840 618.424561,706.230347 
	C619.156372,706.534851 620.053467,706.520142 620.874329,706.521057 
	C635.165405,706.536987 649.467468,706.843140 663.740662,706.337830 
	C667.888184,706.191040 671.962158,703.735535 676.045532,702.270569 
	C676.632996,702.059753 677.189392,701.023438 677.581604,701.117126 
	C683.925903,702.632080 688.611267,697.847778 694.264832,696.692688 
	C697.009094,696.131897 699.412903,693.854919 701.934204,692.295776 
	C702.431763,691.988037 702.679382,691.162964 703.182251,690.994812 
	C707.530273,689.540649 711.910339,688.182312 716.240784,686.808167 
	C716.088318,686.019958 715.936768,685.236694 715.785278,684.453430 
	C721.423157,686.512634 724.816711,680.100952 730.938232,680.800171 
	C736.612610,680.098877 742.125854,682.442688 746.041687,677.715454 
	C748.009338,677.557068 749.976929,677.398682 752.230225,677.390198 
	C752.515869,677.540100 752.715637,677.690308 752.642578,678.053223 
	C752.677002,678.638306 752.784546,678.860474 753.075806,679.427124 
	C757.537048,680.074341 761.814514,680.376953 766.091980,680.679565 
	C769.235229,681.628723 772.379578,682.573975 775.521057,683.529114 
	C776.598816,683.856812 777.726379,684.620483 778.733093,684.480164 
	C783.585754,683.803894 786.315552,687.268555 789.602722,689.699158 
	C790.374817,690.270081 791.226624,690.780945 792.114136,691.140808 
	C799.889587,694.293884 805.424927,700.276978 810.999939,706.163879 
	C816.103149,711.552612 820.757996,717.283081 822.973877,724.585693 
	C822.983826,724.618530 824.140503,724.303345 824.266357,724.272461 
	C825.542542,727.070374 826.976868,729.776978 828.029541,732.624573 
	C829.648499,737.003967 829.902405,742.463867 832.755859,745.663513 
	C836.235535,749.565430 835.663208,753.793274 835.833191,757.645508 
	C836.255493,767.218689 835.498962,776.843872 835.218933,786.448242 
	C835.199524,787.113770 835.048828,787.824707 835.223938,788.439148 
	C837.204285,795.387817 832.810791,800.615417 830.508972,806.433105 
	C829.579651,808.781921 829.788513,811.791138 828.389038,813.700806 
	C825.372864,817.816528 825.025024,823.265137 820.522339,826.810364 
	C817.726318,829.011963 816.671570,833.424988 814.692017,837.112488 
	C814.260681,836.638123 813.818848,836.152222 813.889893,836.230347 
	C809.473328,839.873657 804.913818,843.323853 800.729065,847.180603 
	C797.048523,850.572754 791.956909,852.129150 789.148743,856.752075 
	C788.228638,858.266785 785.569580,858.704834 783.734192,859.688354 
	C781.026245,861.139465 778.392456,862.737549 775.635132,864.084839 
	C773.448608,865.153198 771.131287,865.957642 768.859070,866.845947 
	C765.427368,868.187561 763.265015,873.045471 758.466614,870.605225 
	C753.411987,876.904663 743.733398,873.973694 738.776794,880.468872 
	C731.468933,878.570007 725.210266,882.732239 718.914429,884.822205 
	C712.235168,887.039368 704.615540,884.750671 699.317566,887.766113 
	C690.670227,892.687927 682.094971,889.797791 673.596191,890.966553 
	C671.434265,891.263855 669.363831,892.178284 667.223328,892.692261 
	C664.839661,893.264587 662.427063,894.116333 660.021606,894.134705 
	C642.027893,894.272156 624.032410,894.296448 606.038391,894.199341 
	C602.219055,894.178711 598.548035,894.444702 594.869995,891.559082 
	C592.625061,889.797791 588.121338,891.105652 584.693420,890.610718 
	C580.976440,890.073975 577.343079,888.981506 573.649719,888.250183 
	C570.800110,887.685913 567.926331,887.033752 565.041504,886.903259 
	C560.105530,886.679871 556.218933,883.814636 551.846008,882.187012 
	C550.250549,881.593201 548.635315,880.589783 547.028442,880.588440 
	C543.917725,880.585876 540.835327,881.441406 538.699158,877.989929 
	C538.258484,877.277893 536.233582,877.684937 535.055542,877.255676 
	C533.579163,876.717651 532.223083,875.849060 530.920776,874.897949 
	C531.266968,874.783936 531.507446,874.895020 531.747986,875.006165 
	C531.789978,874.801453 531.831970,874.596741 531.873962,874.392029 
	C531.442139,874.384644 531.010376,874.377197 530.578552,874.369873 
	C529.154053,873.763916 527.681030,873.248352 526.322815,872.518982 
	C525.473816,872.063049 524.754150,870.692993 524.051025,870.744873 
	C518.269714,871.171265 514.741211,866.412903 510.082458,864.860413 
	C500.994812,861.831909 493.958649,855.830811 486.044708,851.097595 
	C483.472809,849.559387 480.442078,848.803711 477.783386,847.385925 
	C476.989105,846.962402 476.744934,845.507202 475.895721,845.113342 
	C474.138153,843.668457 472.481262,842.073181 470.599548,840.813721 
	C467.742889,838.901489 464.514008,837.496338 461.833618,835.381042 
	C457.680969,832.103943 454.247894,827.786011 449.818695,825.013306 
	C437.866913,817.531372 430.092957,805.689148 419.466400,796.866821 
	C417.973907,795.627686 417.039490,793.716370 415.904907,791.986084 
	C416.180115,791.804749 416.397186,791.753418 416.614258,791.702087 
	C416.290497,791.619324 415.966705,791.536499 415.642944,791.453735 
	C411.003571,787.783325 405.267944,785.129822 404.026215,778.351379 
	C403.875732,777.529785 402.187775,777.083191 401.428284,776.262939 
	C398.872498,773.502808 396.284698,770.754517 393.958984,767.804749 
	C392.018524,765.343628 390.472107,762.575684 388.674255,759.997253 
	C385.662567,755.677979 382.490051,751.467896 379.567017,747.090576 
	C375.640015,741.209717 370.459412,735.640259 368.512115,729.130859 
	C366.974701,723.991577 363.982269,720.380127 361.675537,716.043518 
	C359.856995,712.624817 359.267517,708.571838 357.869965,704.900330 
	C357.287811,703.370972 355.886688,702.174622 355.098724,700.698303 
	C352.971527,696.713135 350.619232,692.794922 349.009766,688.599365 
	C346.749603,682.707642 344.592743,676.861084 341.566071,671.245056 
	C339.984070,668.309692 340.727875,664.144775 338.023468,661.221619 
	C337.324097,660.465637 336.796021,658.852356 337.115784,657.967773 
	C338.956329,652.875732 336.238281,647.984863 334.075867,644.764221 
	C330.829742,639.929382 330.950439,635.552795 331.391876,630.587585 
	C331.435059,630.102051 331.515167,629.345703 331.252380,629.148010 
	C326.887695,625.864136 327.648041,621.082031 327.252014,616.515015 
	C326.727661,610.467712 325.729706,604.461670 324.951111,598.435852 
	C324.909607,598.114624 325.173553,597.657043 325.028168,597.460205 
	C317.829803,587.713745 322.712036,576.421448 321.031311,565.064087 
	C320.998688,551.408142 320.913574,538.671448 320.828491,525.934814 
	C320.874969,523.916870 320.921478,521.898865 320.978699,519.197388 
	C320.962585,518.333374 320.935730,518.152893 320.908844,517.972351 
	C321.003204,514.001343 320.874359,510.008759 321.254364,506.065247 
	C321.638672,502.076813 319.635590,497.257355 324.692291,494.600922 
	C324.954651,494.463104 324.901459,493.681915 324.955048,493.195801 
	C325.841125,485.162231 326.702606,477.125854 327.622803,469.096191 
	C327.751221,467.975891 327.827179,466.592072 328.497498,465.834991 
	C331.779633,462.127991 331.586365,457.768341 331.259735,453.324158 
	C331.211273,452.665009 331.067535,451.573944 331.379425,451.393311 
	C335.749756,448.862213 334.017212,443.509918 336.647736,440.130219 
	C337.545502,438.976776 337.552429,437.040649 337.729431,435.435974 
	C338.016144,432.837036 337.383728,429.948853 340.486206,428.451813 
	C340.886108,428.258850 341.464874,427.569031 341.375153,427.356018 
	C339.183899,422.153351 344.589569,419.024323 344.945312,414.273895 
	C345.204498,410.812439 348.408966,407.585266 350.237488,404.219482 
	C350.811157,403.163544 351.224731,402.012543 351.634857,400.877350 
	C352.881073,397.427856 354.041382,393.946564 355.336853,390.516052 
	C355.857086,389.138397 356.591675,387.832367 357.316711,386.543213 
	C358.888641,383.748260 360.613617,381.035675 362.102570,378.198395 
	C365.128632,372.432068 367.803802,366.468353 371.070618,360.845703 
	C373.827759,356.100159 377.661255,351.954742 380.199066,347.114197 
	C382.686249,342.370148 387.047241,339.044769 388.601868,333.378906 
	C389.616028,329.682648 394.299896,327.046814 397.162994,323.780853 
	C398.511139,322.242950 399.366241,320.284119 400.581787,318.615814 
	C402.291809,316.268951 404.130951,314.016266 405.911835,311.720947 
	C408.448181,308.451965 410.948425,305.153900 413.546967,301.935211 
	C414.018951,301.350555 414.951721,301.162415 415.557556,300.654907 
	C416.256592,300.069336 416.894348,299.381409 417.440338,298.649628 
	C418.169495,297.672485 418.597076,296.395050 419.482574,295.623352 
	C422.703766,292.816162 425.631439,289.652863 428.669312,286.792511 
	C432.543854,283.144287 435.534027,278.636963 439.735199,275.437622 
	C444.752747,271.616516 450.210266,268.375549 455.261566,264.595123 
	C457.439148,262.965424 458.942047,260.462646 460.996674,258.631683 
	C462.873444,256.959167 464.896912,254.961151 467.186127,254.355560 
	C470.686310,253.429596 472.457886,250.491196 475.286530,248.862030 
	C481.719452,245.156967 487.997894,241.184433 494.364532,237.362930 
	C496.168762,236.279968 498.099243,235.407532 499.905060,234.326981 
	C504.998779,231.279022 509.902710,227.867355 515.180786,225.188965 
	C519.239990,223.129105 523.752991,221.963287 528.172974,220.360413 
	C527.804260,219.921112 527.342834,219.371429 527.216980,219.221451 
	C530.581177,217.698410 533.942383,215.756302 537.558472,214.638626 
	C542.917542,212.982178 548.457214,211.910278 554.268982,210.505157 
	C553.959412,210.014847 553.603699,209.451492 553.170898,208.766083 
	C560.795898,207.256989 568.444702,206.032608 575.932800,204.164169 
	C581.338806,202.815231 586.458740,200.341125 591.846558,198.889771 
	C594.948120,198.054306 598.325195,198.174347 601.585510,198.019043 
	C603.738342,197.916473 605.904297,198.088928 608.983276,198.144867 
	C614.175476,198.180893 618.462646,198.414291 622.714600,198.127319 
	C624.172363,198.028931 625.542297,196.628189 626.952332,195.822449 
	C634.317383,195.398163 642.676636,192.546417 648.835022,195.068558 
	C660.669250,199.915207 672.462158,196.365280 683.972961,198.364410 
	C689.561523,199.335007 695.584534,199.977448 700.769165,203.310471 
	C702.631897,204.507965 705.559631,203.935440 707.925659,204.492157 
	C710.928833,205.198761 713.858154,206.222519 716.812561,207.131149 
	C717.748169,207.418869 718.723206,208.169891 719.576660,208.038147 
	C725.836121,207.071808 730.381836,210.538773 735.045837,213.763458 
	C735.435974,214.033188 735.820496,214.420517 736.254456,214.501129 
	C744.747131,216.078918 752.043091,220.647049 759.902222,223.644424 
	C764.486389,225.392761 767.606384,229.768509 771.839539,230.134018 
	C778.512146,230.710175 783.216980,235.066238 787.962463,238.085236 
	C793.481018,241.596039 799.740234,244.044922 804.696472,248.074738 
	C809.562988,252.031601 815.268005,254.959976 819.610168,259.137604 
	C824.650574,263.987030 830.132996,268.226410 835.318604,272.844604 
	C839.991333,277.005951 845.010254,280.798920 849.488281,285.153473 
	C855.236084,290.742676 860.707153,296.630188 866.091431,302.575684 
	C871.391296,308.428040 876.440308,314.507904 881.587219,320.498383 
	C885.740051,325.331848 889.905579,330.139252 892.205872,336.254089 
	C892.587402,337.268433 894.031067,337.831940 894.772278,338.770874 
	C898.687317,343.730591 902.042297,348.967926 904.775696,354.756073 
	C906.561951,358.538666 910.241333,361.427307 913.073608,364.715668 
	C913.290222,364.967255 913.607910,365.177338 913.718689,365.467712 
	C915.304321,369.623871 916.732483,373.847137 918.506226,377.920197 
	C919.039246,379.144104 920.907166,379.769592 921.492371,380.990814 
	C923.829590,385.868713 925.858215,390.893402 928.089600,395.823639 
	C929.476013,398.887024 931.021729,401.878326 932.356323,405.421265 
	C932.260254,406.188873 932.303833,406.437195 932.347412,406.685486 
	C932.617981,406.510712 932.888611,406.335938 933.159241,406.161194 
	C933.444580,406.327637 933.906982,406.432434 933.989441,406.669434 
	C936.288574,413.273834 937.398743,420.639893 941.096619,426.324738 
	C946.135925,434.072083 944.793945,443.915283 950.719299,451.087738 
	C951.394897,451.905487 950.780212,453.689819 951.039124,454.970306 
	C951.722046,458.348663 952.501892,461.710327 953.359253,465.048889 
	C953.671265,466.264160 954.713806,467.387848 954.735107,468.565796 
	C954.852112,475.021759 955.511414,481.139496 957.544861,487.533447 
	C961.010010,498.429230 962.418640,509.952545 961.048035,521.565674 
	C960.835510,523.366150 961.035217,525.215271 961.014832,527.963867 
	C961.047974,537.271057 961.110596,545.656311 961.173218,554.041504 
	C961.242737,557.099060 961.461853,560.162048 961.349487,563.212891 
	C961.141785,568.852051 957.308777,573.047729 955.267639,577.961609 
	C953.793701,581.509827 952.895386,585.293762 951.534973,588.894958 
	C951.204956,589.768738 950.065369,590.336731 949.116211,591.002991 
	C948.801941,590.793335 948.669556,590.625977 948.537231,590.458618 
	C948.591675,590.710999 948.646179,590.963440 948.700684,591.215820 
	C946.604858,594.263611 944.202393,596.925720 941.505920,599.554138 
	C937.518494,603.440918 933.722351,607.531189 929.349854,611.031433 
	C928.843079,611.437073 928.448181,612.060791 927.881714,612.300110 
	C924.980103,613.526245 921.692078,614.168701 919.191711,615.937622 
	C915.209839,618.754639 911.196899,620.325806 906.348572,619.358459 
	C900.890991,625.671143 893.250305,622.404724 885.893799,623.802429 
	C883.607727,623.728638 882.109070,623.662170 880.610474,623.662109 
	C763.132751,623.657471 645.655090,623.657959 528.177368,623.659302 
	C527.010986,623.659363 525.739868,623.388245 524.707214,623.764221 
	C523.636597,624.154114 522.797119,625.178528 521.856506,625.925354 
M523.017883,465.714478 
	C523.351196,465.725525 523.684448,465.736542 524.949890,465.825348 
	C600.917480,465.833344 676.885010,465.844299 752.852600,465.826355 
	C754.305969,465.826019 755.759277,465.483063 757.748474,465.143677 
	C758.134155,464.002136 758.519836,462.860565 758.817810,460.939941 
	C757.113831,457.233948 755.807129,453.271027 753.614624,449.880920 
	C750.147522,444.520020 745.315796,439.935333 742.455200,434.313080 
	C737.987427,425.531830 730.257812,419.917480 723.596375,413.426117 
	C718.018433,407.990479 710.809204,404.138550 704.043396,400.046448 
	C700.085266,397.652496 696.945251,393.130341 691.321350,394.216309 
	C690.930603,394.291779 690.347412,393.971405 690.015747,393.661652 
	C685.399475,389.351013 680.050354,387.461182 673.671692,387.998535 
	C671.923584,388.145844 670.051941,386.918518 668.248230,386.289856 
	C666.338867,385.624420 664.451233,384.353271 662.539612,384.324982 
	C649.115479,384.126129 635.687561,384.152069 622.260925,384.170441 
	C618.229675,384.175934 614.137634,383.749847 610.678101,386.846710 
	C609.619934,387.794006 607.677856,387.907318 606.104126,388.091187 
	C603.393921,388.407837 600.163635,387.618317 598.030701,388.834564 
	C593.588013,391.367859 590.120056,395.883453 584.081604,394.300873 
	C583.849060,394.239929 583.504578,394.539734 583.232788,394.705170 
	C580.831055,396.167419 578.434021,397.637299 575.988159,399.133942 
	C576.033264,399.240021 576.596802,400.481293 576.563171,400.497711 
	C573.828735,401.830872 570.994751,402.964386 568.285278,404.342896 
	C565.623718,405.697083 562.873962,407.026398 560.555115,408.862000 
	C558.471191,410.511658 556.919617,412.833740 554.946411,414.409515 
	C554.775024,414.781036 554.603638,415.152527 554.696960,416.065735 
	C553.560852,416.696503 552.424683,417.327271 552.333130,417.378082 
	C550.144531,420.145538 548.949219,422.773865 546.914429,423.950592 
	C544.296997,425.464264 543.074585,427.608826 541.594238,429.945984 
	C539.160400,433.788361 536.261230,437.334259 533.601135,441.035950 
	C532.627075,442.391449 531.731812,443.808929 530.876892,445.243530 
	C529.359497,447.789642 526.284058,449.680511 527.390564,453.363953 
	C527.407471,453.420288 527.168274,453.553497 526.941101,453.738342 
	C526.427124,453.367126 525.884521,452.975250 526.013916,453.068726 
	C524.542480,454.874146 522.989441,456.421997 521.909729,458.249512 
	C521.336670,459.219299 521.584900,460.674255 521.263245,462.555542 
	C521.732239,463.449066 522.201172,464.342560 522.672729,465.286438 
	C522.672729,465.286438 522.722534,465.277771 523.017883,465.714478 
z"/>
<path fill="#8C1914" opacity="1.000000" stroke="none" 
	d="
M191.058167,598.092285 
	C191.137436,598.710388 191.216721,599.328491 191.230438,600.649170 
	C191.768997,603.251465 192.373108,605.151184 192.977234,607.050903 
	C193.080139,607.687622 193.183029,608.324280 193.219849,609.623413 
	C193.628891,611.277710 194.103989,612.269653 194.579086,613.261597 
	C206.013748,660.649231 225.507629,704.513123 252.573914,744.994812 
	C288.767944,799.128357 335.112976,842.746765 390.540039,876.709595 
	C425.302734,898.010376 462.312073,914.424622 501.508606,925.781982 
	C509.459381,928.085815 517.475647,930.163757 526.793518,932.709717 
	C524.363403,933.118774 523.188232,933.487244 522.012390,933.489563 
	C492.131561,933.548218 462.497925,931.071289 433.049377,925.777893 
	C402.668823,920.316895 373.106476,912.028259 344.460846,900.714966 
	C305.926483,885.496155 269.990601,865.497131 236.850296,840.497375 
	C192.886429,807.332886 155.960098,767.718018 127.265839,720.701477 
	C118.828972,706.877441 111.417465,692.335022 104.650269,677.609802 
	C97.484047,662.016296 91.616615,645.824158 85.251465,629.865662 
	C84.051720,626.857788 83.178406,623.719788 82.343018,620.002869 
	C81.667030,617.199158 80.802513,615.034424 79.937996,612.869629 
	C79.877098,612.221741 79.816208,611.573914 79.822144,610.174500 
	C79.518387,606.018127 79.147804,602.613342 79.202744,599.257874 
	C81.442924,599.531189 83.257324,599.948242 85.072243,599.950500 
	C117.698112,599.991211 150.324280,600.031128 182.949509,599.882263 
	C185.359024,599.871216 187.761993,598.424194 190.385483,597.766724 
	C190.602966,597.888672 191.058167,598.092285 191.058167,598.092285 
z"/>
<path fill="#C4201D" opacity="1.000000" stroke="none" 
	d="
M134.765717,279.894836 
	C140.694199,271.367889 146.156082,262.464386 152.661896,254.403427 
	C162.126907,242.675888 172.344086,231.555435 182.966537,220.156433 
	C186.662216,220.424622 189.631454,220.957245 192.601685,220.962784 
	C224.908340,221.022934 257.215363,220.946014 289.521790,221.048645 
	C295.657288,221.068130 301.790833,221.709686 308.002136,222.336975 
	C308.154816,222.782776 308.230621,222.955811 308.306458,223.128860 
	C307.735779,223.748016 307.165070,224.367157 306.166260,225.215927 
	C305.492249,225.577820 305.364777,225.783600 305.355743,226.062851 
	C303.939301,227.558334 302.522827,229.053818 300.593262,230.812317 
	C299.722076,231.595322 299.363983,232.115326 299.005890,232.635345 
	C298.716980,232.967621 298.428070,233.299896 297.734985,233.860260 
	C297.124725,234.206329 297.050842,234.380432 297.109100,234.610703 
	C297.109100,234.610703 296.930878,234.888031 296.566681,235.039368 
	C295.835114,235.708069 295.467712,236.225418 295.100342,236.742767 
	C295.100342,236.742767 294.950378,236.952484 294.544861,237.085876 
	C292.738251,238.964554 291.337219,240.709839 289.936157,242.455139 
	C289.625732,242.806076 289.315338,243.157043 288.448792,243.798553 
	C285.613007,246.959122 283.333374,249.829132 281.053741,252.699158 
	C281.053741,252.699158 280.903198,252.916367 280.496094,253.061737 
	C277.847015,256.200775 275.605042,259.194427 273.363068,262.188110 
	C273.249786,262.332062 273.136505,262.475983 272.518158,262.878113 
	C267.370819,268.880768 262.728577,274.625305 257.805420,280.085815 
	C254.836517,279.201508 252.150238,278.087982 249.460129,278.078644 
	C215.295990,277.960114 181.131012,277.937042 146.967087,278.083496 
	C142.897461,278.100922 138.832733,279.263214 134.765717,279.894836 
z"/>
<path fill="#CF211F" opacity="1.000000" stroke="none" 
	d="
M307.925262,222.064224 
	C301.790833,221.709686 295.657288,221.068130 289.521790,221.048645 
	C257.215363,220.946014 224.908340,221.022934 192.601685,220.962784 
	C189.631454,220.957245 186.662216,220.424622 183.276764,220.037216 
	C196.496964,207.164062 210.114151,194.370285 223.791321,181.640945 
	C225.608566,179.949615 227.730499,178.585632 230.130646,176.882721 
	C230.549973,176.695374 230.843567,176.417709 230.843567,176.417694 
	C231.240204,176.030884 231.636841,175.644058 232.577728,175.020325 
	C233.408249,174.568420 233.694550,174.353439 233.980835,174.138428 
	C233.980835,174.138428 234.169846,173.882568 234.586304,173.760605 
	C235.339066,173.401840 235.675369,173.165039 236.011673,172.928253 
	C236.011673,172.928253 235.905319,172.984695 236.149384,172.842484 
	C236.903854,172.180923 237.414261,171.661575 237.924683,171.142242 
	C237.924683,171.142242 237.922668,170.953003 238.324234,170.910095 
	C239.464584,170.229858 240.203384,169.592529 240.942169,168.955200 
	C240.942169,168.955200 240.960678,168.971710 241.146301,168.832077 
	C241.576675,168.507248 241.811813,168.310562 242.037354,168.102386 
	C242.037354,168.102386 242.194855,167.852875 242.706116,167.783920 
	C249.954056,164.152847 257.226257,166.266342 264.164062,166.177170 
	C295.582916,165.773392 327.010071,165.940903 358.433685,166.055023 
	C364.055542,166.075439 369.674774,166.814148 375.212646,167.435669 
	C375.059906,168.090530 374.989807,168.530930 374.919678,168.971344 
	C374.439636,169.278564 373.959595,169.585754 372.912903,170.067505 
	C372.007721,170.595322 371.669098,170.948608 371.330505,171.301880 
	C371.065826,171.473526 370.801178,171.645187 369.842499,172.087158 
	C367.472076,173.642059 365.795685,174.926651 364.119263,176.211258 
	C363.987274,176.350998 363.855255,176.490738 363.422150,176.764496 
	C363.121063,176.898514 363.037598,177.191193 363.037598,177.191193 
	C362.359802,177.672577 361.682007,178.153976 360.399261,178.818268 
	C358.907532,179.791779 358.020752,180.582382 357.133972,181.372986 
	C356.914795,181.533279 356.695618,181.693588 355.909729,182.071930 
	C354.959320,182.722458 354.575623,183.154922 354.191895,183.587372 
	C353.772430,183.920212 353.352997,184.253067 352.309509,184.787857 
	C345.481598,190.136490 339.277802,195.283173 333.074005,200.429871 
	C332.907745,200.607880 332.741486,200.785889 331.980347,201.172791 
	C329.623444,203.042816 327.861420,204.703979 326.099426,206.365128 
	C326.099426,206.365128 325.767181,206.735123 325.313904,206.884064 
	C324.250946,207.792496 323.641327,208.551956 323.031677,209.311432 
	C322.920135,209.440567 322.808624,209.569687 322.193420,209.836609 
	C319.485016,212.171722 317.280304,214.369034 315.075623,216.566345 
	C313.587097,218.032639 312.098602,219.498901 310.054993,221.158325 
	C308.975037,221.589066 308.450165,221.826645 307.925262,222.064224 
z"/>
<path fill="#DC2424" opacity="1.000000" stroke="none" 
	d="
M355.411652,107.879868 
	C356.538940,107.241180 357.666260,106.602493 359.460876,105.740738 
	C361.263336,105.226448 362.398468,104.935219 363.533600,104.643990 
	C363.828369,104.408226 364.123169,104.172470 365.127869,103.802910 
	C366.313660,103.451767 366.789490,103.234444 367.265350,103.017105 
	C368.125061,102.729431 368.984741,102.441765 370.517944,102.037521 
	C372.621002,101.508385 374.050629,101.095825 375.480225,100.683258 
	C375.788574,100.461334 376.096954,100.239410 377.209229,99.918259 
	C379.480133,99.393509 380.947144,98.967979 382.414124,98.542450 
	C382.601288,98.386589 382.788422,98.230736 383.612000,97.985626 
	C389.894196,96.286987 395.540039,94.677597 401.185852,93.068214 
	C401.853699,92.902542 402.521576,92.736862 404.019226,92.620621 
	C414.926666,90.676743 424.932281,88.131935 435.096832,86.803665 
	C456.976379,83.944565 478.881683,80.806831 500.879333,79.444435 
	C530.309875,77.621689 559.677368,79.903610 588.818237,84.649757 
	C593.660706,85.438446 598.575256,85.784286 603.456543,86.334770 
	C604.198425,86.440292 604.940308,86.545822 606.403687,86.946869 
	C610.169922,88.000626 613.214600,88.758865 617.205933,89.752853 
	C615.058533,90.365097 613.870422,90.703850 612.682312,91.042595 
	C611.632629,91.110596 610.583008,91.178596 608.648682,91.090302 
	C606.272339,90.908684 604.752502,90.683487 603.292969,90.887947 
	C580.297852,94.109261 557.272461,97.146004 534.343262,100.787376 
	C526.901306,101.969231 519.716003,104.766655 512.413269,106.825104 
	C511.795593,106.967300 511.177917,107.109497 509.775635,107.256088 
	C501.157349,109.786644 493.323639,112.312805 485.489960,114.838959 
	C485.184662,114.927483 484.879364,115.016014 483.856567,115.121414 
	C482.223480,115.676811 481.307892,116.215347 480.392303,116.753860 
	C479.792267,116.912819 479.192261,117.071785 477.823547,117.252457 
	C470.890503,119.782806 464.726166,122.291435 458.561798,124.800064 
	C458.252594,124.902191 457.943390,125.004333 456.854156,125.180092 
	C454.073273,125.873497 452.072418,126.493286 449.765930,126.905312 
	C446.015259,125.798317 442.574219,124.135147 439.124664,124.117355 
	C402.381195,123.927826 365.636292,124.038948 328.892242,123.915855 
	C326.247131,123.906998 323.606018,122.712418 320.963043,122.069138 
	C324.154083,120.343224 327.345123,118.617310 331.211945,116.917297 
	C333.794891,116.144524 335.702026,115.345871 337.609192,114.547211 
	C337.739288,114.373550 337.869415,114.199905 338.376373,113.941711 
	C338.753235,113.857162 339.182953,113.859253 339.182953,113.859253 
	C339.182953,113.859253 339.483856,113.584541 339.483856,113.584541 
	C339.740936,113.386986 339.997986,113.189438 340.777344,112.914078 
	C341.299683,112.836266 341.566315,112.606956 341.566315,112.606956 
	C341.815552,112.518501 342.064819,112.430046 342.833405,112.193848 
	C343.735168,111.780937 344.117584,111.515778 344.500031,111.250626 
	C345.592010,110.874626 346.683990,110.498619 348.398712,110.002327 
	C350.161102,109.475578 351.300720,109.069122 352.440369,108.662659 
	C352.613220,108.490196 352.786072,108.317749 353.411255,108.088692 
	C354.379578,107.981339 354.895630,107.930603 355.411652,107.879868 
z"/>
<path fill="#AA1D18" opacity="1.000000" stroke="none" 
	d="
M197.346375,410.467865 
	C197.391647,410.788330 197.383484,411.107391 197.035461,411.826538 
	C196.496048,412.496704 196.243057,412.765442 195.791656,413.108307 
	C195.398758,413.788971 195.204239,414.395508 194.866486,415.354919 
	C193.808319,420.147858 192.893387,424.587921 191.696304,429.179199 
	C190.986954,430.055206 190.559753,430.779999 190.184097,431.914551 
	C190.167419,434.552643 190.099197,436.780914 189.736893,439.167969 
	C188.999847,440.314484 188.556900,441.302307 188.136978,442.661865 
	C188.116104,444.025665 188.072220,445.017700 187.557892,446.008057 
	C164.920944,446.004242 142.754272,445.951202 120.587967,446.017883 
	C105.762527,446.062469 90.937363,446.350769 76.112785,446.303864 
	C74.603859,446.299103 73.099861,444.736877 71.581604,443.503021 
	C71.923050,440.820801 72.276474,438.532990 72.862946,435.900940 
	C73.361641,434.217560 73.627289,432.878387 73.835251,431.153442 
	C77.039207,417.106934 80.300850,403.446136 83.940201,389.968781 
	C87.542725,390.768005 90.765320,391.905029 93.992691,391.918732 
	C125.656891,392.052917 157.321976,392.037476 188.986542,391.957489 
	C193.414795,391.946289 197.841583,391.357483 202.180908,391.405029 
	C200.510635,398.005310 198.928497,404.236572 197.346375,410.467865 
z"/>
<path fill="#A21C17" opacity="1.000000" stroke="none" 
	d="
M71.593567,443.897400 
	C73.099861,444.736877 74.603859,446.299103 76.112785,446.303864 
	C90.937363,446.350769 105.762527,446.062469 120.587967,446.017883 
	C142.754272,445.951202 164.920944,446.004242 187.567444,446.437561 
	C187.850266,448.674286 187.666824,450.481384 187.453766,452.285034 
	C185.653595,467.523956 183.847992,482.762299 181.570862,498.000519 
	C148.008606,498.000153 114.918625,498.116211 81.831413,497.865997 
	C77.236450,497.831268 72.655151,495.989471 68.052673,494.586731 
	C68.026917,493.127869 68.016022,492.066498 68.126648,490.712769 
	C68.134277,488.866272 68.020401,487.312103 67.904488,485.340881 
	C68.563660,474.243774 69.224876,463.563721 69.894577,452.504761 
	C69.825699,451.372803 69.748337,450.619751 69.670975,449.866669 
	C69.711090,449.482666 69.751205,449.098663 69.968323,448.145142 
	C70.628067,446.349579 71.110817,445.123474 71.593567,443.897400 
z"/>
<path fill="#D62321" opacity="1.000000" stroke="none" 
	d="
M320.575867,122.120758 
	C323.606018,122.712418 326.247131,123.906998 328.892242,123.915855 
	C365.636292,124.038948 402.381195,123.927826 439.124664,124.117355 
	C442.574219,124.135147 446.015259,125.798317 449.514801,127.136734 
	C446.487335,129.284180 443.405334,130.992447 440.323334,132.700714 
	C439.515228,133.024582 438.707153,133.348434 437.197693,133.810745 
	C432.130127,136.219864 427.763855,138.490540 423.397614,140.761200 
	C423.135406,140.877991 422.873199,140.994781 421.902100,141.188797 
	C419.168518,142.516418 417.143829,143.766846 415.119141,145.017273 
	C414.562744,145.287964 414.006317,145.558640 412.921143,145.997681 
	C412.078705,146.262756 411.959625,146.465164 412.035126,146.773254 
	C411.192566,147.177353 410.350006,147.581467 408.819275,148.177887 
	C406.540558,149.337250 404.949982,150.304291 403.359375,151.271332 
	C402.832245,151.632477 402.305115,151.993622 401.281219,152.524323 
	C400.505615,152.705154 400.385132,152.840210 400.422943,153.099091 
	C399.868561,153.416428 399.314178,153.733765 398.228210,154.251312 
	C397.483002,154.513000 397.406433,154.650940 397.466919,154.865372 
	C396.769531,155.256744 396.072174,155.648117 394.742310,156.213654 
	C392.535278,157.431717 390.960724,158.475601 389.386169,159.519501 
	C389.158203,159.685547 388.930237,159.851593 388.184387,160.204056 
	C387.465057,160.630127 387.263611,160.869766 387.062164,161.109406 
	C386.322601,161.585480 385.583008,162.061523 384.341248,162.693390 
	C383.503052,162.892181 383.333618,163.074768 383.330811,163.396957 
	C383.080536,163.557739 382.830292,163.718536 382.045288,164.072479 
	C381.151154,164.379105 380.986298,164.617111 381.015991,164.979614 
	C380.249542,165.473312 379.483093,165.967010 378.078674,166.642166 
	C376.725555,166.956146 376.010406,167.088684 375.295227,167.221207 
	C369.674774,166.814148 364.055542,166.075439 358.433685,166.055023 
	C327.010071,165.940903 295.582916,165.773392 264.164062,166.177170 
	C257.226257,166.266342 249.954056,164.152847 242.845810,167.831360 
	C251.068359,161.880264 259.495514,155.556198 268.306885,149.822571 
	C276.024963,144.800369 284.082794,140.273926 292.163910,135.844818 
	C298.138092,132.570465 304.390930,129.804474 311.112000,126.712799 
	C312.157227,126.396446 312.610016,126.179291 313.062836,125.962128 
	C313.536102,125.609230 314.009369,125.256340 314.792725,124.914742 
	C315.102844,124.926041 315.140747,124.911423 315.140747,124.911423 
	C316.260864,124.391853 317.380981,123.872284 318.966309,123.096909 
	C319.431549,122.841095 319.619751,122.707680 319.619751,122.707680 
	C319.809418,122.529243 319.999054,122.350807 320.575867,122.120758 
z"/>
<path fill="#921915" opacity="1.000000" stroke="none" 
	d="
M190.167999,597.644714 
	C187.761993,598.424194 185.359024,599.871216 182.949509,599.882263 
	C150.324280,600.031128 117.698112,599.991211 85.072243,599.950500 
	C83.257324,599.948242 81.442924,599.531189 79.226479,599.205688 
	C78.824677,599.104187 78.933815,599.082275 78.828079,598.808655 
	C78.162987,598.023254 77.603622,597.511414 76.977478,596.595215 
	C76.195496,591.953064 75.648880,587.678162 74.726234,583.486023 
	C73.281967,576.923889 71.583427,570.417664 69.992599,563.887756 
	C69.897392,562.641479 69.802185,561.395142 69.836700,559.317993 
	C69.931519,556.359741 69.896606,554.232239 70.286308,552.169861 
	C73.679512,552.489929 76.647682,552.960632 79.616768,552.966431 
	C108.351707,553.022217 137.087524,553.105957 165.821243,552.910217 
	C171.536591,552.871338 177.244049,551.677673 183.174805,551.256226 
	C183.887268,552.713074 184.380096,553.930115 184.872940,555.147217 
	C184.904404,555.544067 184.935867,555.940857 184.778061,556.917114 
	C184.768692,558.710876 184.948593,559.925232 185.128494,561.139648 
	C185.240601,561.455078 185.288727,561.780029 185.131958,562.777100 
	C185.667252,566.985413 186.343460,570.531067 187.019653,574.076721 
	C187.106018,575.024353 187.192368,575.971924 187.162292,577.662109 
	C188.086563,584.818054 189.127289,591.231384 190.167999,597.644714 
z"/>
<path fill="#BD1F1B" opacity="1.000000" stroke="none" 
	d="
M134.451630,280.052246 
	C138.832733,279.263214 142.897461,278.100922 146.967087,278.083496 
	C181.131012,277.937042 215.295990,277.960114 249.460129,278.078644 
	C252.150238,278.087982 254.836517,279.201508 257.655640,280.361694 
	C249.554672,293.955231 241.322586,306.988922 232.663696,319.971497 
	C228.769012,319.613586 225.301834,319.049286 221.833145,319.039795 
	C185.405075,318.940186 148.976791,318.929230 112.579285,318.514282 
	C114.315956,314.341492 116.021904,310.548187 117.727837,306.754913 
	C121.313911,300.958160 124.900002,295.161407 128.902847,288.966309 
	C129.541016,288.173553 129.762421,287.779144 129.983810,287.384766 
	C130.363754,286.644501 130.743713,285.904266 131.450867,284.868134 
	C131.778061,284.572266 131.828094,284.493805 131.828094,284.493805 
	C132.597900,283.065765 133.367706,281.637695 134.451630,280.052246 
z"/>
<path fill="#5381BF" opacity="1.000000" stroke="none" 
	d="
M522.250244,626.089783 
	C522.797119,625.178528 523.636597,624.154114 524.707214,623.764221 
	C525.739868,623.388245 527.010986,623.659363 528.177368,623.659302 
	C645.655090,623.657959 763.132751,623.657471 880.610474,623.662109 
	C882.109070,623.662170 883.607727,623.728638 885.561157,623.894287 
	C886.935242,624.878540 887.854431,625.732666 889.221008,627.002502 
	C886.867432,627.002502 884.927185,627.002502 882.986938,627.002563 
	C765.342346,627.003967 647.697754,627.009766 530.053162,626.975220 
	C527.583374,626.974487 525.113770,626.505005 522.250244,626.089783 
z"/>
<path fill="#913852" opacity="1.000000" stroke="none" 
	d="
M233.090500,320.022644 
	C241.322586,306.988922 249.554672,293.955231 257.936523,280.645660 
	C262.728577,274.625305 267.370819,268.880768 272.309906,263.057312 
	C266.146210,272.217804 259.521820,281.347595 253.254242,290.716064 
	C229.231323,326.624298 211.036240,365.257782 199.318939,406.891724 
	C199.010773,407.986725 198.380966,408.991211 197.623764,410.252869 
	C198.928497,404.236572 200.510635,398.005310 202.328766,391.083801 
	C207.087128,378.669586 211.609482,366.945618 216.328278,354.913086 
	C222.046631,343.077240 227.568558,331.549957 233.090500,320.022644 
z"/>
<path fill="#913852" opacity="1.000000" stroke="none" 
	d="
M184.991364,554.770264 
	C184.380096,553.930115 183.887268,552.713074 183.135437,550.814697 
	C182.598953,532.755859 182.321487,515.378296 182.044006,498.000793 
	C183.847992,482.762299 185.653595,467.523956 187.453766,452.285034 
	C187.666824,450.481384 187.850266,448.674286 188.037872,446.439270 
	C188.072220,445.017700 188.116104,444.025665 188.374237,442.434387 
	C189.069290,440.893158 189.550125,439.951172 190.030975,439.009216 
	C190.099197,436.780914 190.167419,434.552643 190.470154,431.748840 
	C191.129272,430.458252 191.553864,429.743134 191.978455,429.028015 
	C192.893387,424.587921 193.808319,420.147858 195.050171,415.143860 
	C195.581390,414.064697 195.785721,413.549438 195.990051,413.034180 
	C196.243057,412.765442 196.496048,412.496704 196.968170,412.057129 
	C195.793488,418.693115 194.453751,425.511566 192.996918,432.304901 
	C184.850372,470.292999 181.689606,508.624481 184.939407,547.410706 
	C185.133453,549.726746 185.059204,552.065247 184.991364,554.770264 
z"/>
<path fill="#7C6599" opacity="1.000000" stroke="none" 
	d="
M117.413345,306.888855 
	C116.021904,310.548187 114.315956,314.341492 112.317993,318.721863 
	C106.871445,330.496826 101.716927,341.684692 96.386261,353.176514 
	C91.994240,365.582092 87.778366,377.683716 83.562492,389.785339 
	C80.300850,403.446136 77.039207,417.106934 73.575974,431.485382 
	C73.126221,433.550415 72.878059,434.897766 72.629898,436.245148 
	C72.276474,438.532990 71.923050,440.820801 71.581604,443.503021 
	C71.110817,445.123474 70.628067,446.349579 69.955101,447.855286 
	C70.408424,441.804016 70.573120,435.378326 71.803261,429.163574 
	C73.852249,418.812042 76.015472,408.418091 79.156227,398.362335 
	C84.380608,381.635437 89.832596,364.930054 96.296478,348.655609 
	C101.416962,335.763489 108.172905,323.518707 114.274292,311.021484 
	C114.980995,309.573944 116.146210,308.350250 117.413345,306.888855 
z"/>
<path fill="#913852" opacity="1.000000" stroke="none" 
	d="
M603.246338,86.086029 
	C598.575256,85.784286 593.660706,85.438446 588.818237,84.649757 
	C559.677368,79.903610 530.309875,77.621689 500.879333,79.444435 
	C478.881683,80.806831 456.976379,83.944565 435.096832,86.803665 
	C424.932281,88.131935 414.926666,90.676743 404.528625,92.537354 
	C411.696503,90.492088 419.110016,88.190018 426.686310,86.736305 
	C455.140686,81.276558 483.829926,78.088036 512.861572,78.108101 
	C534.825684,78.123283 556.747253,78.472855 578.504578,81.865669 
	C586.689209,83.141960 594.859314,84.510696 603.246338,86.086029 
z"/>
<path fill="#913852" opacity="1.000000" stroke="none" 
	d="
M512.655823,106.943573 
	C519.716003,104.766655 526.901306,101.969231 534.343262,100.787376 
	C557.272461,97.146004 580.297852,94.109261 603.292969,90.887947 
	C604.752502,90.683487 606.272339,90.908684 608.122803,91.097366 
	C607.440430,91.614326 606.412781,92.229805 605.356506,92.283455 
	C574.665710,93.842300 544.559631,99.013100 514.870178,106.800995 
	C514.233826,106.967918 513.556580,106.978508 512.655823,106.943573 
z"/>
<path fill="#5F87C1" opacity="1.000000" stroke="none" 
	d="
M320.469788,526.039185 
	C320.913574,538.671448 320.998688,551.408142 320.957428,564.604126 
	C319.908051,563.701660 318.214111,562.356262 318.184814,560.975525 
	C317.964081,550.579468 318.004028,540.175354 318.165039,529.776917 
	C318.183960,528.555969 319.432556,527.354187 320.469788,526.039185 
z"/>
<path fill="#5381BF" opacity="1.000000" stroke="none" 
	d="
M961.409424,554.174683 
	C961.110596,545.656311 961.047974,537.271057 961.080078,528.421997 
	C962.015259,527.212280 962.855835,526.466431 964.333862,525.154907 
	C964.333862,535.812561 964.333862,545.916809 964.333862,556.807617 
	C963.123657,555.682190 962.384705,554.994995 961.409424,554.174683 
z"/>
<path fill="#913852" opacity="1.000000" stroke="none" 
	d="
M69.894958,564.248474 
	C71.583427,570.417664 73.281967,576.923889 74.726234,583.486023 
	C75.648880,587.678162 76.195496,591.953064 77.064240,596.880615 
	C77.789780,598.074402 78.361794,598.578369 78.933807,599.082275 
	C78.933815,599.082275 78.824677,599.104187 78.800949,599.156372 
	C79.147804,602.613342 79.518387,606.018127 79.828354,609.848938 
	C78.115913,604.628601 76.091721,599.059814 74.896271,593.318542 
	C72.915840,583.807190 71.468964,574.184814 69.894958,564.248474 
z"/>
<path fill="#7F79A9" opacity="1.000000" stroke="none" 
	d="
M66.806320,539.929321 
	C66.241554,538.287598 65.195320,536.648804 65.185509,535.003784 
	C65.070450,515.719543 65.085152,496.434235 65.158691,477.149567 
	C65.164703,475.571686 65.851700,473.996429 66.580940,472.626953 
	C66.855331,477.303925 66.771065,481.773865 66.636162,486.621521 
	C66.531708,488.272278 66.477890,489.545349 66.290878,491.283478 
	C66.205116,501.207184 66.252541,510.665863 66.319664,520.515991 
	C66.421242,522.209839 66.503128,523.512085 66.480972,525.258911 
	C66.520058,530.445374 66.663185,535.187317 66.806320,539.929321 
z"/>
<path fill="#913852" opacity="1.000000" stroke="none" 
	d="
M66.890289,540.396851 
	C66.663185,535.187317 66.520058,530.445374 66.708725,525.520020 
	C67.633179,528.695740 68.411263,532.034790 68.775414,535.418457 
	C69.332901,540.598633 69.605064,545.809509 69.891953,551.121216 
	C69.617149,551.540527 69.667244,551.814087 69.909637,552.056152 
	C69.883430,552.056641 69.861694,552.104797 69.861694,552.104797 
	C69.896606,554.232239 69.931519,556.359741 69.863556,558.943726 
	C68.831886,553.221619 67.903076,547.042969 66.890289,540.396851 
z"/>
<path fill="#913852" opacity="1.000000" stroke="none" 
	d="
M66.686798,486.243835 
	C66.771065,481.773865 66.855331,477.303925 66.872276,472.393494 
	C66.916504,471.542328 67.028053,471.131592 67.337036,470.303833 
	C67.662529,469.538177 67.551369,469.292053 67.200974,469.148438 
	C67.496841,464.111755 67.792717,459.075043 68.388535,453.548004 
	C69.087677,452.999664 69.486885,452.941681 69.886093,452.883667 
	C69.224876,463.563721 68.563660,474.243774 67.703537,485.429871 
	C67.250313,486.087189 66.977707,486.189819 66.686798,486.243835 
z"/>
<path fill="#5381BF" opacity="1.000000" stroke="none" 
	d="
M626.729614,195.581818 
	C625.542297,196.628189 624.172363,198.028931 622.714600,198.127319 
	C618.462646,198.414291 614.175476,198.180893 609.442200,198.050507 
	C609.803284,197.038513 610.592712,195.376343 611.450562,195.340240 
	C616.460449,195.129440 621.486389,195.299637 626.729614,195.581818 
z"/>
<path fill="#913852" opacity="1.000000" stroke="none" 
	d="
M333.377075,200.421326 
	C339.277802,195.283173 345.481598,190.136490 351.979675,185.016968 
	C346.075989,190.167038 339.878052,195.289917 333.377075,200.421326 
z"/>
<path fill="#7094C7" opacity="1.000000" stroke="none" 
	d="
M745.714722,677.477661 
	C742.125854,682.442688 736.612610,680.098877 731.364136,680.807739 
	C735.212402,677.333801 740.085144,676.384094 745.714722,677.477661 
z"/>
<path fill="#7094C7" opacity="1.000000" stroke="none" 
	d="
M752.715637,677.690308 
	C752.715637,677.690308 752.515869,677.540100 752.546265,677.418823 
	C757.130981,677.326904 762.075195,675.603699 765.852783,680.438965 
	C761.814514,680.376953 757.537048,680.074341 753.091614,679.249268 
	C752.854309,678.381287 752.784973,678.035828 752.715637,677.690308 
z"/>
<path fill="#913852" opacity="1.000000" stroke="none" 
	d="
M612.943909,91.211533 
	C613.870422,90.703850 615.058533,90.365097 617.205933,89.752853 
	C613.214600,88.758865 610.169922,88.000626 606.954285,87.060150 
	C612.037476,87.581764 617.291626,88.285606 622.545776,88.989456 
	C622.548462,89.552696 622.551086,90.115936 622.553772,90.679176 
	C619.437683,90.912941 616.321594,91.146706 612.943909,91.211533 
z"/>
<path fill="#913852" opacity="1.000000" stroke="none" 
	d="
M190.385483,597.766724 
	C189.127289,591.231384 188.086563,584.818054 187.142944,578.018921 
	C188.583603,584.220642 189.927170,590.808167 191.164444,597.744019 
	C191.058167,598.092285 190.602966,597.888672 190.385483,597.766724 
z"/>
<path fill="#913852" opacity="1.000000" stroke="none" 
	d="
M485.839325,114.916016 
	C493.323639,112.312805 501.157349,109.786644 509.308685,107.345505 
	C501.813782,109.951378 494.001251,112.472221 485.839325,114.916016 
z"/>
<path fill="#913852" opacity="1.000000" stroke="none" 
	d="
M458.889160,124.860916 
	C464.726166,122.291435 470.890503,119.782806 477.367218,117.345642 
	C471.525238,119.918663 465.370911,122.420212 458.889160,124.860916 
z"/>
<path fill="#913852" opacity="1.000000" stroke="none" 
	d="
M440.529938,132.823700 
	C443.405334,130.992447 446.487335,129.284180 449.820435,127.344498 
	C452.072418,126.493286 454.073273,125.873497 456.382263,125.306190 
	C451.372467,127.888008 446.054504,130.417358 440.529938,132.823700 
z"/>
<path fill="#913852" opacity="1.000000" stroke="none" 
	d="
M400.981628,92.921921 
	C395.540039,94.677597 389.894196,96.286987 383.936157,97.817215 
	C389.341736,96.083908 395.059570,94.429764 400.981628,92.921921 
z"/>
<path fill="#913852" opacity="1.000000" stroke="none" 
	d="
M423.726135,140.793488 
	C427.763855,138.490540 432.130127,136.219864 436.796387,133.980087 
	C432.749176,136.282578 428.401886,138.554169 423.726135,140.793488 
z"/>
<path fill="#913852" opacity="1.000000" stroke="none" 
	d="
M187.135284,573.716431 
	C186.343460,570.531067 185.667252,566.985413 185.093414,563.021606 
	C185.880814,566.187622 186.565872,569.771912 187.135284,573.716431 
z"/>
<path fill="#913852" opacity="1.000000" stroke="none" 
	d="
M273.661377,262.081909 
	C275.605042,259.194427 277.847015,256.200775 280.389954,253.140457 
	C278.447205,256.041138 276.203461,259.008453 273.661377,262.081909 
z"/>
<path fill="#913852" opacity="1.000000" stroke="none" 
	d="
M281.352142,252.612900 
	C283.333374,249.829132 285.613007,246.959122 288.192688,244.039581 
	C286.212036,246.835587 283.931274,249.681107 281.352142,252.612900 
z"/>
<path fill="#913852" opacity="1.000000" stroke="none" 
	d="
M315.378235,216.541229 
	C317.280304,214.369034 319.485016,212.171722 321.984070,209.983856 
	C320.079224,212.167587 317.880035,214.341843 315.378235,216.541229 
z"/>
<path fill="#913852" opacity="1.000000" stroke="none" 
	d="
M326.390564,206.368011 
	C327.861420,204.703979 329.623444,203.042816 331.695374,201.401474 
	C330.230774,203.071136 328.456238,204.721008 326.390564,206.368011 
z"/>
<path fill="#913852" opacity="1.000000" stroke="none" 
	d="
M415.406464,145.081909 
	C417.143829,143.766846 419.168518,142.516418 421.490845,141.316254 
	C419.756897,142.626511 417.725342,143.886520 415.406464,145.081909 
z"/>
<path fill="#913852" opacity="1.000000" stroke="none" 
	d="
M79.868896,613.167725 
	C80.802513,615.034424 81.667030,617.199158 82.380997,619.648560 
	C81.420219,617.777344 80.610008,615.621582 79.868896,613.167725 
z"/>
<path fill="#913852" opacity="1.000000" stroke="none" 
	d="
M290.220703,242.367859 
	C291.337219,240.709839 292.738251,238.964554 294.440521,237.161591 
	C293.329590,238.829483 291.917450,240.555023 290.220703,242.367859 
z"/>
<path fill="#913852" opacity="1.000000" stroke="none" 
	d="
M337.299286,114.427780 
	C335.702026,115.345871 333.794891,116.144524 331.568268,116.846962 
	C333.162323,115.936607 335.075867,115.122475 337.299286,114.427780 
z"/>
<path fill="#913852" opacity="1.000000" stroke="none" 
	d="
M364.408264,176.237701 
	C365.795685,174.926651 367.472076,173.642059 369.443665,172.341797 
	C368.058319,173.638794 366.377808,174.951477 364.408264,176.237701 
z"/>
<path fill="#913852" opacity="1.000000" stroke="none" 
	d="
M193.094116,606.753418 
	C192.373108,605.151184 191.768997,603.251465 191.218628,600.960938 
	C191.918610,602.532104 192.564804,604.494080 193.094116,606.753418 
z"/>
<path fill="#913852" opacity="1.000000" stroke="none" 
	d="
M389.669983,159.573471 
	C390.960724,158.475601 392.535278,157.431717 394.391907,156.406647 
	C393.100555,157.492813 391.527161,158.560135 389.669983,159.573471 
z"/>
<path fill="#913852" opacity="1.000000" stroke="none" 
	d="
M403.637512,151.329422 
	C404.949982,150.304291 406.540558,149.337250 408.410461,148.404663 
	C407.098419,149.421921 405.507019,150.404709 403.637512,151.329422 
z"/>
<path fill="#913852" opacity="1.000000" stroke="none" 
	d="
M382.141937,98.388306 
	C380.947144,98.967979 379.480133,99.393509 377.746765,99.729012 
	C378.943481,99.170708 380.406616,98.702431 382.141937,98.388306 
z"/>
<path fill="#913852" opacity="1.000000" stroke="none" 
	d="
M185.280365,560.859253 
	C184.948593,559.925232 184.768692,558.710876 184.749695,557.214905 
	C185.084473,558.148560 185.258347,559.363708 185.280365,560.859253 
z"/>
<path fill="#913852" opacity="1.000000" stroke="none" 
	d="
M480.559387,116.885925 
	C481.307892,116.215347 482.223480,115.676811 483.391052,115.224754 
	C482.670868,115.880142 481.698700,116.449059 480.559387,116.885925 
z"/>
<path fill="#913852" opacity="1.000000" stroke="none" 
	d="
M357.392944,181.403717 
	C358.020752,180.582382 358.907532,179.791779 360.050415,179.044678 
	C359.421661,179.870285 358.536804,180.652359 357.392944,181.403717 
z"/>
<path fill="#913852" opacity="1.000000" stroke="none" 
	d="
M352.198669,108.496773 
	C351.300720,109.069122 350.161102,109.475578 348.773773,109.782776 
	C349.669708,109.232635 350.813324,108.781761 352.198669,108.496773 
z"/>
<path fill="#913852" opacity="1.000000" stroke="none" 
	d="
M375.212646,167.435669 
	C376.010406,167.088684 376.725555,166.956146 377.693542,166.886200 
	C377.100403,167.644791 376.254456,168.340820 375.164093,169.004089 
	C374.989807,168.530930 375.059906,168.090530 375.212646,167.435669 
z"/>
<path fill="#913852" opacity="1.000000" stroke="none" 
	d="
M375.214569,100.540909 
	C374.050629,101.095825 372.621002,101.508385 370.930084,101.846504 
	C372.095490,101.314224 373.522186,100.856392 375.214569,100.540909 
z"/>
<path fill="#913852" opacity="1.000000" stroke="none" 
	d="
M323.278931,209.279663 
	C323.641327,208.551956 324.250946,207.792496 325.121552,207.041656 
	C324.763733,207.782806 324.144958,208.515350 323.278931,209.279663 
z"/>
<path fill="#913852" opacity="1.000000" stroke="none" 
	d="
M363.273071,104.513885 
	C362.398468,104.935219 361.263336,105.226448 359.891907,105.510101 
	C360.774597,105.129616 361.893555,104.756691 363.273071,104.513885 
z"/>
<path fill="#D62321" opacity="1.000000" stroke="none" 
	d="
M240.637665,168.995117 
	C240.203384,169.592529 239.464584,170.229858 238.418854,170.908829 
	C238.852310,170.311981 239.592728,169.673492 240.637665,168.995117 
z"/>
<path fill="#913852" opacity="1.000000" stroke="none" 
	d="
M194.629517,612.918274 
	C194.103989,612.269653 193.628891,611.277710 193.208588,609.946472 
	C193.735580,610.596436 194.207748,611.585693 194.629517,612.918274 
z"/>
<path fill="#913852" opacity="1.000000" stroke="none" 
	d="
M355.335754,107.741516 
	C354.895630,107.930603 354.379578,107.981339 353.722504,107.895699 
	C354.140930,107.707268 354.700378,107.655212 355.335754,107.741516 
z"/>
<path fill="#7C6599" opacity="1.000000" stroke="none" 
	d="
M69.894577,452.504791 
	C69.486885,452.941681 69.087677,452.999664 68.392090,453.120422 
	C68.475014,452.228577 68.854324,451.273987 69.452309,450.093018 
	C69.748337,450.619751 69.825699,451.372803 69.894577,452.504791 
z"/>
<path fill="#913852" opacity="1.000000" stroke="none" 
	d="
M344.400360,111.124817 
	C344.117584,111.515778 343.735168,111.780937 343.173096,111.988922 
	C343.429169,111.620842 343.864929,111.309937 344.400360,111.124817 
z"/>
<path fill="#913852" opacity="1.000000" stroke="none" 
	d="
M308.002136,222.336975 
	C308.450165,221.826645 308.975037,221.589066 309.781677,221.371765 
	C309.656433,221.940521 309.249481,222.489014 308.574463,223.083191 
	C308.230621,222.955811 308.154816,222.782776 308.002136,222.336975 
z"/>
<path fill="#D62321" opacity="1.000000" stroke="none" 
	d="
M237.644470,171.205627 
	C237.414261,171.661575 236.903854,172.180923 236.121124,172.789337 
	C236.353973,172.341949 236.859131,171.805481 237.644470,171.205627 
z"/>
<path fill="#913852" opacity="1.000000" stroke="none" 
	d="
M299.261108,232.609009 
	C299.363983,232.115326 299.722076,231.595322 300.323151,231.029434 
	C300.216217,231.516586 299.866272,232.049622 299.261108,232.609009 
z"/>
<path fill="#913852" opacity="1.000000" stroke="none" 
	d="
M295.354126,236.714508 
	C295.467712,236.225418 295.835114,235.708069 296.446228,235.151901 
	C296.329315,235.637466 295.968628,236.161850 295.354126,236.714508 
z"/>
<path fill="#913852" opacity="1.000000" stroke="none" 
	d="
M367.171875,102.883270 
	C366.789490,103.234444 366.313660,103.451767 365.658508,103.605400 
	C366.012299,103.277611 366.545349,103.013527 367.171875,102.883270 
z"/>
<path fill="#DC2424" opacity="1.000000" stroke="none" 
	d="
M312.882935,125.858696 
	C312.610016,126.179291 312.157227,126.396446 311.511841,126.708832 
	C311.780518,126.454468 312.241791,126.104866 312.882935,125.858696 
z"/>
<path fill="#913852" opacity="1.000000" stroke="none" 
	d="
M354.427979,183.615753 
	C354.575623,183.154922 354.959320,182.722458 355.565552,182.289810 
	C355.413422,182.741150 355.038727,183.192642 354.427979,183.615753 
z"/>
<path fill="#913852" opacity="1.000000" stroke="none" 
	d="
M371.527466,171.369507 
	C371.669098,170.948608 372.007721,170.595322 372.536072,170.270111 
	C372.392029,170.677826 372.058228,171.057480 371.527466,171.369507 
z"/>
<path fill="#C4201D" opacity="1.000000" stroke="none" 
	d="
M129.751648,287.474304 
	C129.762421,287.779144 129.541016,288.173553 129.159760,288.728760 
	C129.173080,288.447693 129.346283,288.005768 129.751648,287.474304 
z"/>
<path fill="#913852" opacity="1.000000" stroke="none" 
	d="
M387.232483,161.171585 
	C387.263611,160.869766 387.465057,160.630127 387.830811,160.436386 
	C387.797699,160.732788 387.600281,160.983276 387.232483,161.171585 
z"/>
<path fill="#DC2424" opacity="1.000000" stroke="none" 
	d="
M315.245087,124.961517 
	C315.140747,124.911423 315.102844,124.926041 315.090027,124.929726 
	C315.077240,124.933411 315.359528,124.738487 315.359528,124.738487 
	C315.359528,124.738487 315.349426,125.011612 315.245087,124.961517 
z"/>
<path fill="#913852" opacity="1.000000" stroke="none" 
	d="
M383.457092,163.484863 
	C383.333618,163.074768 383.503052,162.892181 383.961853,162.915863 
	C384.128723,163.337158 383.961609,163.533905 383.457092,163.484863 
z"/>
<path fill="#913852" opacity="1.000000" stroke="none" 
	d="
M381.176880,165.044128 
	C380.986298,164.617111 381.151154,164.379105 381.664795,164.305542 
	C381.658600,164.599838 381.498169,164.854248 381.176880,165.044128 
z"/>
<path fill="#913852" opacity="1.000000" stroke="none" 
	d="
M412.163208,146.850082 
	C411.959625,146.465164 412.078705,146.262756 412.514862,146.222031 
	C412.771942,146.611832 412.656616,146.828125 412.163208,146.850082 
z"/>
<path fill="#D62321" opacity="1.000000" stroke="none" 
	d="
M233.773331,174.109222 
	C233.694550,174.353439 233.408249,174.568420 232.963425,174.857330 
	C233.058517,174.647491 233.312164,174.363739 233.773331,174.109222 
z"/>
<path fill="#913852" opacity="1.000000" stroke="none" 
	d="
M339.389343,113.442291 
	C339.483856,113.584541 339.182953,113.859253 339.182953,113.859253 
	C339.182953,113.859253 338.753235,113.857162 338.641418,113.752792 
	C338.660828,113.298538 338.915924,113.182411 339.389343,113.442291 
z"/>
<path fill="#DC2424" opacity="1.000000" stroke="none" 
	d="
M319.695435,122.632767 
	C319.619751,122.707680 319.431549,122.841095 319.381226,122.879295 
	C319.330902,122.917496 319.390015,122.578720 319.390015,122.578720 
	C319.390015,122.578720 319.771149,122.557861 319.695435,122.632767 
z"/>
<path fill="#913852" opacity="1.000000" stroke="none" 
	d="
M400.505432,153.193893 
	C400.385132,152.840210 400.505615,152.705154 400.867554,152.766296 
	C400.950623,152.838684 400.925293,153.171921 400.925293,153.171921 
	C400.925293,153.171921 400.587921,153.288712 400.505432,153.193893 
z"/>
<path fill="#D62321" opacity="1.000000" stroke="none" 
	d="
M235.676819,172.950699 
	C235.675369,173.165039 235.339066,173.401840 234.739960,173.801758 
	C234.765411,173.634308 235.053696,173.303726 235.676819,172.950699 
z"/>
<path fill="#913852" opacity="1.000000" stroke="none" 
	d="
M397.593506,154.920425 
	C397.406433,154.650940 397.483002,154.513000 397.818481,154.499634 
	C398.025024,154.772171 397.951599,154.914749 397.593506,154.920425 
z"/>
<path fill="#913852" opacity="1.000000" stroke="none" 
	d="
M363.124268,177.260590 
	C363.037598,177.191193 363.121063,176.898514 363.198853,176.946960 
	C363.276672,176.995407 363.210907,177.330002 363.124268,177.260590 
z"/>
<path fill="#913852" opacity="1.000000" stroke="none" 
	d="
M305.554932,226.057526 
	C305.364777,225.783600 305.492249,225.577820 305.923584,225.419037 
	C306.147400,225.696869 306.029083,225.916763 305.554932,226.057526 
z"/>
<path fill="#913852" opacity="1.000000" stroke="none" 
	d="
M297.268341,234.608368 
	C297.050842,234.380432 297.124725,234.206329 297.480774,234.071747 
	C297.717957,234.296143 297.650208,234.479767 297.268341,234.608368 
z"/>
<path fill="#5F87C1" opacity="1.000000" stroke="none" 
	d="
M320.789551,518.075562 
	C320.935730,518.152893 320.962585,518.333374 320.896790,518.771484 
	C320.553406,518.778320 320.508789,518.494873 320.789551,518.075562 
z"/>
<path fill="#D62321" opacity="1.000000" stroke="none" 
	d="
M241.775848,168.121155 
	C241.811813,168.310562 241.576675,168.507248 241.145981,168.827271 
	C241.144791,168.688034 241.329575,168.413971 241.775848,168.121155 
z"/>
<path fill="#C4201D" opacity="1.000000" stroke="none" 
	d="
M131.757477,284.433899 
	C131.828094,284.493805 131.778061,284.572266 131.764587,284.588989 
	C131.751129,284.605743 131.686844,284.374023 131.757477,284.433899 
z"/>
<path fill="#7F79A9" opacity="1.000000" stroke="none" 
	d="
M67.214882,469.389160 
	C67.551369,469.292053 67.662529,469.538177 67.421539,469.996155 
	C67.308609,470.105499 67.228790,469.629883 67.214882,469.389160 
z"/>
<path fill="#913852" opacity="1.000000" stroke="none" 
	d="
M341.511475,112.508896 
	C341.566315,112.606956 341.299683,112.836266 341.237488,112.756866 
	C341.175293,112.677460 341.456635,112.410835 341.511475,112.508896 
z"/>
<path fill="#D62321" opacity="1.000000" stroke="none" 
	d="
M230.707550,176.388168 
	C230.843567,176.417709 230.549973,176.695374 230.472076,176.751114 
	C230.291245,176.593445 230.350357,176.444046 230.707550,176.388168 
z"/>
<path fill="#3A74B9" opacity="1.000000" stroke="none" 
	d="
M555.133179,414.859222 
	C556.919617,412.833740 558.471191,410.511658 560.555115,408.862000 
	C562.873962,407.026398 565.623718,405.697083 568.285278,404.342896 
	C570.994751,402.964386 573.828735,401.830872 576.563171,400.497711 
	C576.596802,400.481293 576.033264,399.240021 575.988159,399.133942 
	C578.434021,397.637299 580.831055,396.167419 583.232788,394.705170 
	C583.504578,394.539734 583.849060,394.239929 584.081604,394.300873 
	C590.120056,395.883453 593.588013,391.367859 598.030701,388.834564 
	C600.163635,387.618317 603.393921,388.407837 606.104126,388.091187 
	C607.677856,387.907318 609.619934,387.794006 610.678101,386.846710 
	C614.137634,383.749847 618.229675,384.175934 622.260925,384.170441 
	C635.687561,384.152069 649.115479,384.126129 662.539612,384.324982 
	C664.451233,384.353271 666.338867,385.624420 668.248230,386.289856 
	C670.051941,386.918518 671.923584,388.145844 673.671692,387.998535 
	C680.050354,387.461182 685.399475,389.351013 690.015747,393.661652 
	C690.347412,393.971405 690.930603,394.291779 691.321350,394.216309 
	C696.945251,393.130341 700.085266,397.652496 704.043396,400.046448 
	C710.809204,404.138550 718.018433,407.990479 723.596375,413.426117 
	C730.257812,419.917480 737.987427,425.531830 742.455200,434.313080 
	C745.315796,439.935333 750.147522,444.520020 753.614624,449.880920 
	C755.807129,453.271027 757.113831,457.233948 758.336304,461.388794 
	C754.858093,461.906769 751.861450,462.035522 748.864807,462.036194 
	C695.553711,462.048401 642.242615,462.058075 588.931519,462.038971 
	C566.441772,462.030884 543.952087,461.955170 521.462402,461.910217 
	C521.584900,460.674255 521.336670,459.219299 521.909729,458.249512 
	C522.989441,456.421997 524.542480,454.874146 526.013916,453.068726 
	C525.884521,452.975250 526.427124,453.367126 526.941101,453.738342 
	C527.168274,453.553497 527.407471,453.420288 527.390564,453.363953 
	C526.284058,449.680511 529.359497,447.789642 530.876892,445.243530 
	C531.731812,443.808929 532.627075,442.391449 533.601135,441.035950 
	C536.261230,437.334259 539.160400,433.788361 541.594238,429.945984 
	C543.074585,427.608826 544.296997,425.464264 546.914429,423.950592 
	C548.949219,422.773865 550.144531,420.145538 552.333130,417.378082 
	C552.424683,417.327271 553.560852,416.696503 554.742554,415.631592 
	C554.788208,415.197418 555.133179,414.859222 555.133179,414.859222 
z"/>
<path fill="#5F87C1" opacity="1.000000" stroke="none" 
	d="
M521.362793,462.232849 
	C543.952087,461.955170 566.441772,462.030884 588.931519,462.038971 
	C642.242615,462.058075 695.553711,462.048401 748.864807,462.036194 
	C751.861450,462.035522 754.858093,461.906769 758.380127,461.778320 
	C758.519836,462.860565 758.134155,464.002136 757.118225,464.984863 
	C754.535400,464.549561 752.583008,464.032410 750.630310,464.031311 
	C676.893799,463.990173 603.157227,463.985504 529.420776,464.048584 
	C527.170227,464.050507 524.920349,464.822906 522.670166,465.236084 
	C522.201172,464.342560 521.732239,463.449066 521.362793,462.232849 
z"/>
<path fill="#3A73B9" opacity="1.000000" stroke="none" 
	d="
M522.671448,465.261292 
	C524.920349,464.822906 527.170227,464.050507 529.420776,464.048584 
	C603.157227,463.985504 676.893799,463.990173 750.630310,464.031311 
	C752.583008,464.032410 754.535400,464.549561 756.850281,465.062988 
	C755.759277,465.483063 754.305969,465.826019 752.852600,465.826355 
	C676.885010,465.844299 600.917480,465.833344 524.284180,465.665680 
	C523.340454,465.348846 523.041809,465.272766 522.722534,465.277771 
	C522.722534,465.277771 522.672729,465.286438 522.671448,465.261292 
z"/>
<path fill="#3A73B9" opacity="1.000000" stroke="none" 
	d="
M530.598328,874.390686 
	C531.010376,874.377197 531.442139,874.384644 531.873962,874.392029 
	C531.831970,874.596741 531.789978,874.801453 531.747986,875.006165 
	C531.507446,874.895020 531.266968,874.783936 530.801392,874.515991 
	C530.576294,874.359131 530.618103,874.411560 530.598328,874.390686 
z"/>
<path fill="#3A73B9" opacity="1.000000" stroke="none" 
	d="
M415.637543,791.417297 
	C415.966705,791.536499 416.290497,791.619324 416.614258,791.702087 
	C416.397186,791.753418 416.180115,791.804749 415.777832,791.587402 
	C415.592590,791.318665 415.632141,791.380859 415.637543,791.417297 
z"/>
<path fill="#3A73B9" opacity="1.000000" stroke="none" 
	d="
M752.642578,678.053223 
	C752.784973,678.035828 752.854309,678.381287 752.907837,678.904663 
	C752.784546,678.860474 752.677002,678.638306 752.642578,678.053223 
z"/>
<path fill="#3A73B9" opacity="1.000000" stroke="none" 
	d="
M948.666748,591.237305 
	C948.646179,590.963440 948.591675,590.710999 948.537231,590.458618 
	C948.669556,590.625977 948.801941,590.793335 948.748901,591.130005 
	C948.563416,591.299255 948.632874,591.258850 948.666748,591.237305 
z"/>
<path fill="#5F87C1" opacity="1.000000" stroke="none" 
	d="
M522.870239,465.496124 
	C523.041809,465.272766 523.340454,465.348846 523.818115,465.626770 
	C523.684448,465.736542 523.351196,465.725525 522.870239,465.496124 
z"/>
<path fill="#3A73B9" opacity="1.000000" stroke="none" 
	d="
M933.010010,406.005981 
	C932.888611,406.335938 932.617981,406.510712 932.347412,406.685486 
	C932.303833,406.437195 932.260254,406.188873 932.387695,405.742249 
	C932.558655,405.543884 932.860718,405.850800 933.010010,406.005981 
z"/>
<path fill="#3A74B9" opacity="1.000000" stroke="none" 
	d="
M554.610229,415.360718 
	C554.603638,415.152527 554.775024,414.781036 555.039795,414.634369 
	C555.133179,414.859222 554.788208,415.197418 554.610229,415.360718 
z"/>
<path fill="#B11E1A" opacity="1.000000" stroke="none" 
	d="
M83.940201,389.968781 
	C87.778366,377.683716 91.994240,365.582092 96.887177,353.199341 
	C135.250320,352.830780 172.936462,352.707092 210.622314,352.765442 
	C212.460083,352.768280 214.295395,354.366394 216.131851,355.221619 
	C211.609482,366.945618 207.087128,378.669586 202.416916,390.714813 
	C197.841583,391.357483 193.414795,391.946289 188.986542,391.957489 
	C157.321976,392.037476 125.656891,392.052917 93.992691,391.918732 
	C90.765320,391.905029 87.542725,390.768005 83.940201,389.968781 
z"/>
<path fill="#A21C17" opacity="1.000000" stroke="none" 
	d="
M189.736877,439.167969 
	C189.550125,439.951172 189.069290,440.893158 188.351196,442.062622 
	C188.556900,441.302307 188.999847,440.314484 189.736877,439.167969 
z"/>
<path fill="#A21C17" opacity="1.000000" stroke="none" 
	d="
M191.696304,429.179199 
	C191.553864,429.743134 191.129272,430.458252 190.418610,431.339081 
	C190.559753,430.779999 190.986954,430.055206 191.696304,429.179199 
z"/>
<path fill="#A21C17" opacity="1.000000" stroke="none" 
	d="
M72.862946,435.900940 
	C72.878059,434.897766 73.126221,433.550415 73.633659,431.871094 
	C73.627289,432.878387 73.361641,434.217560 72.862946,435.900940 
z"/>
<path fill="#A21C17" opacity="1.000000" stroke="none" 
	d="
M195.791656,413.108307 
	C195.785721,413.549438 195.581390,414.064697 195.193390,414.791016 
	C195.204239,414.395508 195.398758,413.788971 195.791656,413.108307 
z"/>
<path fill="#9A1A15" opacity="1.000000" stroke="none" 
	d="
M69.998344,551.007385 
	C69.605064,545.809509 69.332901,540.598633 68.775414,535.418457 
	C68.411263,532.034790 67.633179,528.695740 66.812759,525.075562 
	C66.503128,523.512085 66.421242,522.209839 66.478485,520.449463 
	C66.617599,519.991333 66.903893,519.799622 67.142578,519.679077 
	C67.610023,511.367126 67.838776,503.175690 68.067528,494.984222 
	C72.655151,495.989471 77.236450,497.831268 81.831413,497.865997 
	C114.918625,498.116211 148.008606,498.000153 181.570862,498.000519 
	C182.321487,515.378296 182.598953,532.755859 182.915787,550.574951 
	C177.244049,551.677673 171.536591,552.871338 165.821243,552.910217 
	C137.087524,553.105957 108.351707,553.022217 79.616768,552.966431 
	C76.647682,552.960632 73.679512,552.489929 70.286308,552.169861 
	C69.861694,552.104797 69.883430,552.056641 69.926117,551.794189 
	C69.978653,551.356995 69.988495,551.182190 69.998344,551.007385 
z"/>
<path fill="#921915" opacity="1.000000" stroke="none" 
	d="
M68.052673,494.586731 
	C67.838776,503.175690 67.610023,511.367126 67.107033,519.232483 
	C66.913734,509.604340 66.994675,500.302338 67.307991,491.001282 
	C67.540375,491.002228 68.005127,491.005096 68.005127,491.005096 
	C68.016022,492.066498 68.026917,493.127869 68.052673,494.586731 
z"/>
<path fill="#9A1A15" opacity="1.000000" stroke="none" 
	d="
M68.126648,490.712769 
	C68.005127,491.005096 67.540375,491.002228 67.149841,490.938507 
	C66.759300,490.874786 66.424080,490.818420 66.424080,490.818420 
	C66.477890,489.545349 66.531708,488.272278 66.636169,486.621521 
	C66.977707,486.189819 67.250313,486.087189 67.705574,485.846924 
	C68.020401,487.312103 68.134277,488.866272 68.126648,490.712769 
z"/>
<path fill="#8C1914" opacity="1.000000" stroke="none" 
	d="
M78.828079,598.808655 
	C78.361794,598.578369 77.789780,598.074402 77.131012,597.285034 
	C77.603622,597.511414 78.162987,598.023254 78.828079,598.808655 
z"/>
<path fill="#B71F1A" opacity="1.000000" stroke="none" 
	d="
M216.328278,354.913086 
	C214.295395,354.366394 212.460083,352.768280 210.622314,352.765442 
	C172.936462,352.707092 135.250320,352.830780 97.063324,352.895386 
	C101.716927,341.684692 106.871445,330.496826 112.287262,319.101379 
	C148.976791,318.929230 185.405075,318.940186 221.833145,319.039795 
	C225.301834,319.049286 228.769012,319.613586 232.663696,319.971497 
	C227.568558,331.549957 222.046631,343.077240 216.328278,354.913086 
z"/>
<path fill="#913852" opacity="1.000000" stroke="none" 
	d="
M66.290878,491.283478 
	C66.424080,490.818420 66.759300,490.874786 66.917450,490.937561 
	C66.994675,500.302338 66.913734,509.604340 66.868347,519.353027 
	C66.903893,519.799622 66.617599,519.991333 66.458786,520.057922 
	C66.252541,510.665863 66.205116,501.207184 66.290878,491.283478 
z"/>
<path fill="#921915" opacity="1.000000" stroke="none" 
	d="
M69.891953,551.121216 
	C69.988495,551.182190 69.978653,551.356995 69.952316,551.793701 
	C69.667244,551.814087 69.617149,551.540527 69.891953,551.121216 
z"/>
</svg>