<?xml version="1.0" encoding="UTF-8"?>
<svg version="1.1" xmlns="http://www.w3.org/2000/svg" width="350" height="350">
<path d="M0 0 C-0.69992133 5.54553055 -3.43379988 10.00146847 -6.02929688 14.85351562 C-12.43276629 27.17695124 -13.1060025 41.44154353 -9.0625 54.6875 C-1.98912113 73.27245624 11.15284788 88.25895497 24.62158203 102.53320312 C28.15307322 106.29112007 31.58621515 110.1353379 35 114 C35.4316748 114.48404297 35.86334961 114.96808594 36.30810547 115.46679688 C48.64847468 129.36230669 60.10270649 143.78465059 59.5078125 163.27734375 C58.33441375 171.8792592 54.11534528 179.29736316 47.26953125 184.6640625 C35.72860011 191.45751939 23.27556286 189.06577509 11 186 C-11.92784579 179.09638915 -32.27972452 164.71508641 -50 149 C-50.9178125 148.19304687 -51.835625 147.38609375 -52.78125 146.5546875 C-55.21198328 144.39484919 -57.61315864 142.20814736 -60 140 C-60.58910156 139.46503906 -61.17820312 138.93007812 -61.78515625 138.37890625 C-75.98182181 124.92060154 -91.48755151 104.64249239 -92.3125 84.5 C-92.19132256 79.12158597 -90.89262302 73.89262302 -87 70 C-83.48023789 69.74010195 -80.00011137 69.63357709 -76.47265625 69.609375 C-71.21742248 69.44428912 -68.14934643 68.50909119 -64 65 C-62.32665772 63.0263674 -62.32665772 63.0263674 -61.125 60.75 C-60.63 59.87601563 -60.135 59.00203125 -59.625 58.1015625 C-58.07997636 55.1526472 -56.59964431 52.18085773 -55.13647461 49.19091797 C-49.24604852 37.15983288 -42.44102552 26.60380183 -33 17 C-32.31421875 16.30132812 -31.6284375 15.60265625 -30.921875 14.8828125 C-23.87959301 8.17960335 -10.09645442 -2.88470126 0 0 Z M-5 129 C-7.36476281 132.22467656 -7.52783706 135.07892472 -7 139 C-3.71810636 147.17974507 3.20098483 151.93019575 11.0703125 155.32421875 C18.86316249 158.10932259 18.86316249 158.10932259 27 158 C30.14658666 156.10350449 30.14658666 156.10350449 32 153 C32.38533045 146.44938235 28.80317714 141.0814893 25 136 C19.31229576 129.88907276 13.52700917 125.09934432 4.9375 124.5625 C0.4553632 125.0605152 -1.59845477 126.0843898 -5 129 Z " fill="#000000" transform="translate(141,87)"/>
<path d="M0 0 C0.61907227 0.23605957 1.23814453 0.47211914 1.87597656 0.71533203 C23.67414768 9.2057799 42.55403413 22.65358679 59.48828125 38.640625 C61.54605279 40.57358613 63.63236612 42.39719138 65.8125 44.1875 C69.63707905 47.44206967 72.82549212 51.11792109 76 55 C76.78632813 55.96035156 77.57265625 56.92070313 78.3828125 57.91015625 C88.96944514 71.11180555 98.44248275 85.44042152 98 103 C97.13248405 107.30637413 96.13826176 110.86173824 93 114 C89.26718749 114.93320313 85.81335406 114.98986006 82 114.875 C77.50239469 114.86826706 74.70520359 115.22109731 71 118 C66.16705368 124.22002245 62.74530068 131.23142225 59.25 138.25 C48.87334979 158.56373511 34.04879243 176.77688479 12 185 C8.640625 185.16015625 8.640625 185.16015625 6 185 C6.20716611 180.23517952 7.20962242 177.38749642 9.8125 173.375 C17.26677158 161.43020337 18.85779294 148.24108357 16.375 134.5546875 C12.30150009 119.7518798 3.76253556 107.57539486 -6 96 C-6.51175781 95.38672852 -7.02351563 94.77345703 -7.55078125 94.14160156 C-12.63716431 88.05498065 -17.75106878 82.06983511 -23.4453125 76.5390625 C-26.49091152 73.52407251 -29.24425839 70.27891812 -32 67 C-32.44537109 66.47905762 -32.89074219 65.95811523 -33.34960938 65.42138672 C-43.96992895 52.93865311 -54.85366631 39.18318747 -53.875 21.9375 C-52.55143188 12.32659061 -47.86914204 4.55918036 -40.21484375 -1.38671875 C-28.7286626 -7.89479356 -11.5110383 -4.39820851 0 0 Z M-26 30 C-26.43141893 38.40329049 -22.541189 43.80518032 -17.328125 49.98046875 C-12.28322671 55.40720567 -6.93356617 59.1068531 0.625 59.5 C5.01959828 59.27989059 7.69148876 57.98572965 11 55 C12.9120499 51.92409364 13.00722187 50.19860154 12.875 46.5625 C11.15084109 39.54271014 7.42766427 36.09395916 1.4921875 32.38671875 C-6.78640954 27.78028936 -18.13077995 22.13077995 -26 30 Z " fill="#000000" transform="translate(206,69)"/>
</svg>
