<?xml version="1.0" encoding="UTF-8"?>
<!DOCTYPE svg PUBLIC "-//W3C//DTD SVG 1.1//EN" "http://www.w3.org/Graphics/SVG/1.1/DTD/svg11.dtd">
<svg xmlns="http://www.w3.org/2000/svg" version="1.1" width="48px" height="48px" style="shape-rendering:geometricPrecision; text-rendering:geometricPrecision; image-rendering:optimizeQuality; fill-rule:evenodd; clip-rule:evenodd" xmlns:xlink="http://www.w3.org/1999/xlink">
<g><path style="opacity:1" fill="#135932" d="M 28.5,12.5 C 23.65,11.6428 20.3167,8.97611 18.5,4.5C 20.5734,2.01183 22.9067,2.01183 25.5,4.5C 27.9864,6.57804 28.9864,9.24471 28.5,12.5 Z"/></g>
<g><path style="opacity:1" fill="#19a057" d="M 18.5,4.5 C 20.3167,8.97611 23.65,11.6428 28.5,12.5C 28.5,12.8333 28.5,13.1667 28.5,13.5C 25.1667,14.8333 21.8333,16.1667 18.5,17.5C 18.5,13.1667 18.5,8.83333 18.5,4.5 Z"/></g>
<g><path style="opacity:1" fill="#179c56" d="M 28.5,13.5 C 28.5,15.8333 28.5,18.1667 28.5,20.5C 25.1667,21.5 21.8333,22.5 18.5,23.5C 18.5,22.1667 18.5,20.8333 18.5,19.5C 18.5,18.8333 18.5,18.1667 18.5,17.5C 21.8333,16.1667 25.1667,14.8333 28.5,13.5 Z"/></g>
<g><path style="opacity:1" fill="#31c07d" d="M 18.5,19.5 C 18.5,20.8333 18.5,22.1667 18.5,23.5C 14.8183,23.6653 11.1516,23.4986 7.5,23C 5.08073,21.4912 4.08073,19.3245 4.5,16.5C 8.18174,16.3347 11.8484,16.5014 15.5,17C 16.3734,18.045 17.3734,18.8783 18.5,19.5 Z"/></g>
<g><path style="opacity:1" fill="#129650" d="M 28.5,20.5 C 28.5,22.5 28.5,24.5 28.5,26.5C 25.1667,26.5 21.8333,26.5 18.5,26.5C 18.5,25.5 18.5,24.5 18.5,23.5C 21.8333,22.5 25.1667,21.5 28.5,20.5 Z"/></g>
<g><path style="opacity:1" fill="#32c17c" d="M 18.5,26.5 C 21.8333,26.5 25.1667,26.5 28.5,26.5C 29.8333,27.1667 29.8333,27.8333 28.5,28.5C 25.1667,28.5 21.8333,28.5 18.5,28.5C 17.1667,27.8333 17.1667,27.1667 18.5,26.5 Z"/></g>
<g><path style="opacity:1" fill="#0d8f4b" d="M 18.5,28.5 C 21.8333,28.5 25.1667,28.5 28.5,28.5C 28.5,30.5 28.5,32.5 28.5,34.5C 25.2964,35.9009 21.9631,36.9009 18.5,37.5C 18.5,34.5 18.5,31.5 18.5,28.5 Z"/></g>
<g><path style="opacity:1" fill="#31c07d" d="M 28.5,38.5 C 28.5,37.1667 28.5,35.8333 28.5,34.5C 29.6266,33.8783 30.6266,33.045 31.5,32C 35.1516,31.5014 38.8183,31.3347 42.5,31.5C 42.9193,34.3245 41.9193,36.4912 39.5,38C 35.8484,38.4986 32.1817,38.6653 28.5,38.5 Z"/></g>
<g><path style="opacity:1" fill="#0a8745" d="M 28.5,34.5 C 28.5,35.8333 28.5,37.1667 28.5,38.5C 28.5,40.8333 28.5,43.1667 28.5,45.5C 25.1667,45.5 21.8333,45.5 18.5,45.5C 18.5,42.8333 18.5,40.1667 18.5,37.5C 21.9631,36.9009 25.2964,35.9009 28.5,34.5 Z"/></g>
</svg>
