<svg version="1.1" id="Layer_1" xmlns="http://www.w3.org/2000/svg" xmlns:xlink="http://www.w3.org/1999/xlink" x="0px" y="0px"
	 width="100%" viewBox="0 0 1560 248" enable-background="new 0 0 1560 248" xml:space="preserve">
<path fill="#FFFFFF" opacity="1.000000" stroke="none" 
	d="
M1181.000000,1.000000 
	C1258.354248,1.000000 1335.708496,1.000000 1413.368408,1.377444 
	C1411.438599,2.168620 1409.193359,2.535946 1406.969238,3.003734 
	C1394.292969,5.669773 1381.301514,7.350764 1369.014404,11.248952 
	C1342.373901,19.700884 1319.779907,41.849964 1321.860840,75.369759 
	C1323.452515,101.009880 1336.679077,117.286537 1357.372925,127.529633 
	C1373.116699,135.322601 1390.330444,138.277405 1407.901367,139.057892 
	C1415.598755,139.399811 1423.279663,140.261932 1430.948242,141.074203 
	C1442.491577,142.296860 1454.049316,143.457031 1465.541138,145.070297 
	C1475.011108,146.399719 1484.618896,147.575241 1493.754761,150.231781 
	C1503.634033,153.104553 1510.853271,159.621613 1511.968384,170.756348 
	C1513.192139,182.975266 1507.518066,191.258759 1496.828247,196.651520 
	C1482.822754,203.717010 1467.481689,203.692642 1452.444946,204.841766 
	C1444.923706,205.416534 1437.267334,204.463760 1429.687622,203.963989 
	C1421.830200,203.445923 1413.878174,203.257889 1406.167114,201.839828 
	C1386.227661,198.173004 1366.685547,193.045975 1348.389771,183.905624 
	C1341.581665,180.504272 1338.913208,180.957321 1334.145630,186.467102 
	C1328.270264,193.257050 1322.731079,200.348373 1317.263550,207.475906 
	C1314.813110,210.670258 1315.749023,215.058578 1319.084595,217.494125 
	C1320.909424,218.826553 1322.917969,219.938065 1324.934204,220.973007 
	C1352.645142,235.197235 1381.792236,244.573715 1412.988770,247.080307 
	C1413.706055,247.137924 1414.331665,248.334610 1415.000000,248.999985 
	C1299.979126,249.000000 1184.958130,249.000000 1069.657837,248.605209 
	C1074.035889,248.140274 1078.704346,247.833206 1083.348877,248.045120 
	C1096.473755,248.643967 1098.147461,246.290436 1098.093994,233.611511 
	C1097.870850,180.807068 1097.958862,128.001007 1098.105347,75.196022 
	C1098.113892,72.125481 1099.111328,68.774216 1100.570679,66.046967 
	C1104.226807,59.213856 1110.604858,55.639076 1117.656006,52.957825 
	C1131.078735,47.853725 1145.266968,47.946884 1159.213379,47.202545 
	C1171.249023,46.560188 1183.423584,47.135021 1195.451660,48.164783 
	C1205.441406,49.020042 1215.549683,50.468060 1225.165649,53.200947 
	C1236.627808,56.458576 1245.404419,64.595032 1245.227661,80.220657 
	C1244.630249,133.019302 1244.996460,185.828873 1245.004639,238.634277 
	C1245.005615,245.199677 1247.731934,247.976929 1254.177002,247.994110 
	C1263.005615,248.017639 1271.834351,248.001984 1280.662964,247.999405 
	C1288.595459,247.997101 1290.999023,245.627411 1290.999268,237.795349 
	C1291.000854,183.157593 1290.928711,128.519638 1291.065430,73.882225 
	C1291.090210,64.010376 1288.795044,54.803196 1284.521729,46.117718 
	C1275.525269,27.832794 1260.358154,16.536064 1241.502808,10.079094 
	C1223.882202,4.044955 1205.555786,2.015881 1186.979370,1.955955 
	C1184.985352,1.949523 1182.993042,1.333334 1181.000000,1.000000 
z"/>
<path fill="#9E0261" opacity="1.000000" stroke="none" 
	d="
M630.000000,0.999998 
	C634.356873,1.000000 638.713806,1.000000 643.719788,1.391189 
	C647.361572,1.855242 650.357422,1.865612 653.346313,2.014938 
	C658.419861,2.268417 661.902832,5.154126 661.957275,9.526424 
	C662.085938,19.857924 662.091675,30.193346 661.954895,40.524635 
	C661.896423,44.943867 658.715698,47.680824 654.564331,48.039665 
	C640.357239,49.267735 626.073242,50.048145 611.988342,52.141655 
	C591.560120,55.178009 572.322754,62.107944 555.437683,74.238602 
	C544.967041,81.760994 534.858093,89.883240 525.239319,98.467354 
	C516.101929,106.621902 507.813599,115.727867 499.010864,124.556984 
	C506.424103,132.673508 512.675598,140.169281 519.629150,146.944473 
	C526.318848,153.462601 533.529907,159.495651 540.876953,165.278046 
	C553.793213,175.443542 567.470093,184.328949 583.063721,190.113022 
	C605.884399,198.577728 629.522461,201.690918 653.671631,201.994644 
	C658.877686,202.060135 661.927429,204.870422 661.973999,210.085739 
	C662.063171,220.084717 662.243286,230.095596 661.812012,240.076721 
	C661.715698,242.306091 659.346375,244.503067 657.833679,246.576477 
	C657.120911,247.553406 655.958618,248.202438 655.000000,249.000015 
	C644.645752,249.000000 634.291565,249.000000 623.339722,248.622131 
	C621.893250,247.831543 621.083618,247.203110 620.189270,247.040466 
	C613.476196,245.819733 606.651978,245.077072 600.039612,243.460556 
	C580.418152,238.663727 562.026123,230.771545 544.434570,220.864075 
	C519.128662,206.611954 497.110291,188.181976 476.494904,167.944504 
	C473.865448,165.363235 471.657013,162.353027 469.706970,160.071976 
	C455.832458,172.480225 442.840057,184.724289 429.172272,196.161224 
	C412.931671,209.750977 395.095459,220.995071 375.722534,229.741241 
	C352.241547,240.342026 328.075439,248.017288 301.982086,248.047485 
	C301.321014,248.048248 300.660675,248.668610 300.000000,249.000000 
	C295.975464,249.000000 291.950897,249.000000 287.314087,248.633133 
	C285.714050,248.175644 284.695709,248.209045 283.743561,247.974136 
	C277.872437,246.525635 275.649261,244.781967 275.892120,238.799652 
	C276.290527,228.985397 275.955902,219.142899 276.018860,209.312881 
	C276.050171,204.429520 278.109680,202.337357 282.662201,201.988831 
	C295.271149,201.023575 307.952209,200.559784 320.461578,198.850235 
	C334.587280,196.919830 348.363007,193.278336 361.438263,187.236969 
	C375.733063,180.632111 389.008301,172.444977 400.574524,161.804245 
	C412.219360,151.091171 423.354218,139.823669 434.706146,128.792526 
	C436.810577,126.747597 437.530640,124.472641 435.468018,121.997498 
	C433.259369,119.347153 431.161041,116.552940 428.645813,114.218887 
	C417.154846,103.555634 405.936523,92.543259 393.848755,82.593636 
	C381.429474,72.371140 367.525543,64.323448 352.193573,58.951355 
	C330.547089,51.366760 308.190399,48.273685 285.364532,48.013397 
	C277.517609,47.923916 276.001434,46.440941 276.000275,38.390236 
	C275.998993,29.392899 276.234802,20.387138 275.912445,11.401366 
	C275.717316,5.962012 276.634796,3.926097 283.530762,1.993327 
	C284.379944,1.755323 285.178162,1.335547 286.000000,1.000002 
	C291.022095,1.000000 296.044189,1.000000 301.720947,1.393442 
	C312.447693,2.946186 322.702545,3.273365 332.553986,5.437238 
	C353.350189,10.005136 373.089050,17.639704 391.680145,28.208780 
	C413.081238,40.375324 432.620270,54.992523 450.402435,71.963364 
	C456.541107,77.821953 462.339111,84.037498 468.323822,90.121590 
	C469.824768,89.029808 471.136688,88.303986 472.164825,87.290321 
	C478.371887,81.170341 484.185516,74.605728 490.754395,68.908989 
	C500.746887,60.243137 511.034027,51.880859 521.583740,43.902313 
	C536.801941,32.393017 553.471008,23.270103 571.112305,16.030651 
	C584.608582,10.492177 598.440369,5.986667 612.984558,3.961086 
	C618.683289,3.167412 624.329712,1.998187 630.000000,0.999998 
z"/>
<path fill="#0A51A1" opacity="1.000000" stroke="none" 
	d="
M0.999999,186.000000 
	C1.000000,177.312439 1.000000,168.624863 1.364678,159.352539 
	C2.151654,157.921722 2.804857,157.116058 2.960909,156.223450 
	C4.727029,146.121368 8.906157,136.870636 14.896056,128.833008 
	C30.645741,107.699059 51.847885,96.861366 78.484673,96.969536 
	C110.295250,97.098717 142.106766,96.989571 173.917831,97.027641 
	C175.701324,97.029778 177.510620,97.305382 179.262939,97.669876 
	C186.154892,99.103447 193.028854,100.623550 199.999725,102.131042 
	C199.999725,94.290298 200.089615,86.297646 199.978073,78.307800 
	C199.821976,67.126030 194.442917,59.125870 184.537369,54.228481 
	C173.100021,48.573753 160.658676,46.667423 148.161697,46.165207 
	C136.940826,45.714279 125.625168,46.203899 114.422363,47.134167 
	C103.889534,48.008793 93.360298,49.552582 82.990601,51.612900 
	C68.972015,54.398197 55.629787,59.369492 42.915302,65.993263 
	C38.485649,68.300949 32.583290,67.529732 29.742331,64.143135 
	C24.076481,57.389118 18.383514,50.617985 13.290411,43.436443 
	C9.468575,38.047455 10.990145,32.782085 17.020828,29.972778 
	C24.668360,26.410290 32.070347,22.267479 39.872589,19.100042 
	C65.869919,8.546051 92.763840,1.980942 121.021217,1.956985 
	C122.681084,1.955578 124.340416,1.333333 126.000000,1.000000 
	C127.388893,1.000000 128.777786,1.000000 130.772339,1.394629 
	C138.127151,2.192479 144.880325,2.538360 151.624619,3.010822 
	C165.800323,4.003879 179.532349,7.165012 193.034607,11.499594 
	C209.535294,16.796745 223.802185,25.395494 234.664505,39.157879 
	C242.920395,49.617935 245.732361,61.984974 245.880753,74.797714 
	C246.245285,106.275497 246.045273,137.760483 245.954285,169.242203 
	C245.939575,174.332474 245.765106,179.498032 244.901657,184.497009 
	C241.150650,206.213654 230.361969,223.674164 211.953156,235.925781 
	C200.101990,243.813080 187.053772,248.546753 172.476044,248.058838 
	C169.997299,247.975861 167.492676,248.666672 165.000000,249.000000 
	C157.979050,249.000000 150.958099,249.000000 143.279327,248.605209 
	C127.402702,248.142365 112.183914,248.061874 96.965065,248.048721 
	C96.310326,248.048157 95.655037,248.668762 95.000000,249.000000 
	C87.312424,249.000000 79.624847,249.000000 71.299011,248.618256 
	C68.082939,247.838898 65.487617,247.530746 62.929966,247.030106 
	C31.518681,240.881439 12.477071,221.415543 3.154568,191.478683 
	C2.572656,189.610016 1.724359,187.824310 0.999999,186.000000 
M98.500000,205.000000 
	C123.310959,205.000000 148.126572,204.704773 172.931366,205.095749 
	C191.920761,205.395050 207.602371,183.660934 202.465530,164.613998 
	C198.487320,149.863205 184.494385,139.699341 168.672516,139.890808 
	C137.871414,140.263535 107.062386,139.944443 76.257339,140.076233 
	C72.740906,140.091278 69.214539,141.080170 65.717567,141.747421 
	C53.663891,144.047363 41.030186,161.920441 43.671021,177.554398 
	C46.062172,191.710205 60.948479,206.836426 76.532898,205.127853 
	C83.443542,204.370193 90.506294,205.000000 98.500000,205.000000 
z"/>
<path fill="#0A51A1" opacity="1.000000" stroke="none" 
	d="
M886.000000,0.999999 
	C890.024536,1.000000 894.049072,1.000000 898.726013,1.394775 
	C907.793579,2.192669 916.216797,2.473860 924.622192,3.026225 
	C938.802246,3.958076 952.531738,7.164824 966.034424,11.499521 
	C982.535645,16.796803 996.803162,25.395771 1007.665466,39.158901 
	C1015.921265,49.619499 1018.734680,61.987221 1018.880737,74.800354 
	C1019.243408,106.612328 1019.044800,138.431335 1018.954346,170.247177 
	C1018.939819,175.338211 1018.876831,180.539413 1017.881775,185.498154 
	C1013.640747,206.632904 1003.192627,223.972794 984.961731,235.939545 
	C973.057983,243.753143 960.053711,248.500259 945.473572,248.069733 
	C941.328491,247.947311 937.158569,248.666672 933.000000,249.000000 
	C925.979065,249.000000 918.958069,249.000000 911.279297,248.605209 
	C895.402710,248.142380 880.183899,248.061905 864.965027,248.048721 
	C864.310303,248.048157 863.655029,248.668732 863.000000,248.999985 
	C855.312439,249.000000 847.624817,249.000000 839.331238,248.638702 
	C830.078552,245.174194 821.064331,242.820724 812.866699,238.801605 
	C798.632996,231.823212 788.385986,220.264954 781.747070,206.067078 
	C775.390930,192.473984 772.612549,178.131531 774.810364,162.793350 
	C776.586304,150.399658 780.482727,138.897400 787.712646,129.058853 
	C803.068115,108.163132 823.968018,97.055931 850.234192,97.012489 
	C882.064331,96.959846 913.894775,96.937767 945.724426,97.075027 
	C949.927246,97.093155 954.161987,97.941170 958.316772,98.742638 
	C963.115784,99.668381 967.842590,100.968483 973.000000,102.201492 
	C973.000000,94.124779 972.963867,86.806992 973.008240,79.489700 
	C973.079712,67.697624 967.804993,59.174450 957.245972,54.066139 
	C945.920166,48.586906 933.638550,46.645905 921.302429,46.169308 
	C909.573730,45.716183 897.781311,46.480244 886.035339,47.073410 
	C879.511536,47.402863 872.955261,48.098701 866.535645,49.288036 
	C848.786499,52.576328 831.629517,57.763802 815.496887,66.083664 
	C810.953857,68.426559 805.368713,67.397675 802.422058,63.847614 
	C796.997620,57.312180 791.535400,50.782452 786.554321,43.912910 
	C782.676453,38.564857 783.578186,32.903336 789.985596,29.986210 
	C799.578186,25.618923 808.934387,20.663298 818.733459,16.834034 
	C834.763977,10.569613 851.303101,5.970191 868.492004,3.949304 
	C874.362427,3.259124 880.165955,1.999460 886.000000,0.999999 
M915.500000,140.000000 
	C893.353577,140.000000 871.206604,139.919083 849.061401,140.083328 
	C845.559265,140.109299 842.026550,141.077698 838.574219,141.891403 
	C823.871826,145.356735 812.857971,164.489685 817.242615,180.659790 
	C820.955139,194.351257 834.759338,205.563919 849.225342,205.233780 
	C881.845154,204.489334 914.493530,205.015671 947.130249,204.960159 
	C949.040344,204.956909 950.962891,204.443985 952.856995,204.057175 
	C966.888916,201.191483 978.306396,184.233856 976.132935,168.750320 
	C973.718750,151.552017 960.393982,140.505554 944.472961,140.048721 
	C935.155884,139.781372 925.824768,140.000000 915.500000,140.000000 
z"/>
<path fill="#0A51A1" opacity="1.000000" stroke="none" 
	d="
M1415.468628,248.999985 
	C1414.331665,248.334610 1413.706055,247.137924 1412.988770,247.080307 
	C1381.792236,244.573715 1352.645142,235.197235 1324.934204,220.973007 
	C1322.917969,219.938065 1320.909424,218.826553 1319.084595,217.494125 
	C1315.749023,215.058578 1314.813110,210.670258 1317.263550,207.475906 
	C1322.731079,200.348373 1328.270264,193.257050 1334.145630,186.467102 
	C1338.913208,180.957321 1341.581665,180.504272 1348.389771,183.905624 
	C1366.685547,193.045975 1386.227661,198.173004 1406.167114,201.839828 
	C1413.878174,203.257889 1421.830200,203.445923 1429.687622,203.963989 
	C1437.267334,204.463760 1444.923706,205.416534 1452.444946,204.841766 
	C1467.481689,203.692642 1482.822754,203.717010 1496.828247,196.651520 
	C1507.518066,191.258759 1513.192139,182.975266 1511.968384,170.756348 
	C1510.853271,159.621613 1503.634033,153.104553 1493.754761,150.231781 
	C1484.618896,147.575241 1475.011108,146.399719 1465.541138,145.070297 
	C1454.049316,143.457031 1442.491577,142.296860 1430.948242,141.074203 
	C1423.279663,140.261932 1415.598755,139.399811 1407.901367,139.057892 
	C1390.330444,138.277405 1373.116699,135.322601 1357.372925,127.529633 
	C1336.679077,117.286537 1323.452515,101.009880 1321.860840,75.369759 
	C1319.779907,41.849964 1342.373901,19.700884 1369.014404,11.248952 
	C1381.301514,7.350764 1394.292969,5.669773 1406.969238,3.003734 
	C1409.193359,2.535946 1411.438599,2.168620 1413.837036,1.377444 
	C1426.687622,1.000000 1439.375122,1.000000 1452.716797,1.392268 
	C1467.192749,3.836135 1481.083496,5.512476 1494.819092,8.034531 
	C1511.905884,11.171909 1528.020752,17.511980 1543.598633,25.045921 
	C1550.342163,28.307337 1559.009155,29.631235 1561.000000,39.000000 
	C1561.000000,39.444447 1561.000000,39.888889 1560.662476,40.758163 
	C1554.524170,48.646690 1548.797852,56.170013 1542.893555,63.550922 
	C1539.570435,67.705048 1534.676514,68.946968 1529.745361,66.845848 
	C1525.860962,65.190742 1522.297119,62.768139 1518.388062,61.188442 
	C1492.897827,50.887451 1466.090454,46.753616 1438.878296,45.106873 
	C1424.078369,44.211254 1409.334717,45.630527 1394.814819,48.973400 
	C1386.325684,50.927822 1377.827881,53.820930 1373.482666,61.503147 
	C1367.821777,71.511421 1368.651245,86.622719 1385.586182,90.742767 
	C1400.232056,94.305893 1415.379028,95.930099 1430.369507,97.922226 
	C1445.450439,99.926353 1460.590210,101.565262 1475.743408,102.926598 
	C1491.729004,104.362701 1507.219727,107.887260 1521.902832,114.156677 
	C1535.974854,120.165237 1548.133667,129.019394 1554.671021,143.489548 
	C1557.468750,149.682175 1558.930908,156.478165 1561.000000,163.000015 
	C1561.000000,169.354401 1561.000000,175.708786 1560.670044,182.629181 
	C1560.560059,184.130127 1560.780029,185.065063 1561.000000,186.000000 
	C1561.000000,186.444443 1561.000000,186.888901 1560.635498,187.782715 
	C1559.878174,188.747955 1559.233154,189.217697 1559.129272,189.786362 
	C1555.325806,210.593353 1542.619873,224.396362 1524.182983,233.256912 
	C1503.477173,243.207932 1481.252197,246.944733 1458.482910,248.032394 
	C1456.644043,248.120239 1454.827148,248.666672 1453.000000,249.000000 
	C1440.645752,249.000000 1428.291504,249.000000 1415.468628,248.999985 
z"/>
<path fill="#FFFFFF" opacity="1.000000" stroke="none" 
	d="
M165.468658,249.000000 
	C167.492676,248.666672 169.997299,247.975861 172.476044,248.058838 
	C187.053772,248.546753 200.101990,243.813080 211.953156,235.925781 
	C230.361969,223.674164 241.150650,206.213654 244.901657,184.497009 
	C245.765106,179.498032 245.939575,174.332474 245.954285,169.242203 
	C246.045273,137.760483 246.245285,106.275497 245.880753,74.797714 
	C245.732361,61.984974 242.920395,49.617935 234.664505,39.157879 
	C223.802185,25.395494 209.535294,16.796745 193.034607,11.499594 
	C179.532349,7.165012 165.800323,4.003879 151.624619,3.010822 
	C144.880325,2.538360 138.127151,2.192479 131.188995,1.394629 
	C182.354233,1.000000 233.708450,1.000000 285.531342,1.000002 
	C285.178162,1.335547 284.379944,1.755323 283.530762,1.993327 
	C276.634796,3.926097 275.717316,5.962012 275.912445,11.401366 
	C276.234802,20.387138 275.998993,29.392899 276.000275,38.390236 
	C276.001434,46.440941 277.517609,47.923916 285.364532,48.013397 
	C308.190399,48.273685 330.547089,51.366760 352.193573,58.951355 
	C367.525543,64.323448 381.429474,72.371140 393.848755,82.593636 
	C405.936523,92.543259 417.154846,103.555634 428.645813,114.218887 
	C431.161041,116.552940 433.259369,119.347153 435.468018,121.997498 
	C437.530640,124.472641 436.810577,126.747597 434.706146,128.792526 
	C423.354218,139.823669 412.219360,151.091171 400.574524,161.804245 
	C389.008301,172.444977 375.733063,180.632111 361.438263,187.236969 
	C348.363007,193.278336 334.587280,196.919830 320.461578,198.850235 
	C307.952209,200.559784 295.271149,201.023575 282.662201,201.988831 
	C278.109680,202.337357 276.050171,204.429520 276.018860,209.312881 
	C275.955902,219.142899 276.290527,228.985397 275.892120,238.799652 
	C275.649261,244.781967 277.872437,246.525635 283.743561,247.974136 
	C284.695709,248.209045 285.714050,248.175644 286.850891,248.633133 
	C246.645767,249.000000 206.291550,249.000000 165.468658,249.000000 
z"/>
<path fill="#0A51A1" opacity="1.000000" stroke="none" 
	d="
M1180.531372,1.000000 
	C1182.993042,1.333334 1184.985352,1.949523 1186.979370,1.955955 
	C1205.555786,2.015881 1223.882202,4.044955 1241.502808,10.079094 
	C1260.358154,16.536064 1275.525269,27.832794 1284.521729,46.117718 
	C1288.795044,54.803196 1291.090210,64.010376 1291.065430,73.882225 
	C1290.928711,128.519638 1291.000854,183.157593 1290.999268,237.795349 
	C1290.999023,245.627411 1288.595459,247.997101 1280.662964,247.999405 
	C1271.834351,248.001984 1263.005615,248.017639 1254.177002,247.994110 
	C1247.731934,247.976929 1245.005615,245.199677 1245.004639,238.634277 
	C1244.996460,185.828873 1244.630249,133.019302 1245.227661,80.220657 
	C1245.404419,64.595032 1236.627808,56.458576 1225.165649,53.200947 
	C1215.549683,50.468060 1205.441406,49.020042 1195.451660,48.164783 
	C1183.423584,47.135021 1171.249023,46.560188 1159.213379,47.202545 
	C1145.266968,47.946884 1131.078735,47.853725 1117.656006,52.957825 
	C1110.604858,55.639076 1104.226807,59.213856 1100.570679,66.046967 
	C1099.111328,68.774216 1098.113892,72.125481 1098.105347,75.196022 
	C1097.958862,128.001007 1097.870850,180.807068 1098.093994,233.611511 
	C1098.147461,246.290436 1096.473755,248.643967 1083.348877,248.045120 
	C1078.704346,247.833206 1074.035889,248.140274 1069.189209,248.605209 
	C1067.285645,249.000000 1065.571289,249.000000 1063.269531,248.625885 
	C1052.999878,248.331787 1051.857178,244.186462 1051.887817,236.447540 
	C1052.100342,182.823959 1051.974854,129.199127 1052.043457,75.574791 
	C1052.049561,70.825798 1052.113281,65.958672 1053.102173,61.350697 
	C1056.436768,45.811459 1064.284424,32.726875 1076.928101,23.102928 
	C1094.875854,9.441598 1115.897461,4.438549 1137.992188,2.925450 
	C1139.365601,2.831395 1140.665771,1.666617 1142.000000,0.999998 
	C1154.687622,1.000000 1167.375122,1.000000 1180.531372,1.000000 
z"/>
<path fill="#FFFFFF" opacity="1.000000" stroke="none" 
	d="
M655.468628,249.000015 
	C655.958618,248.202438 657.120911,247.553406 657.833679,246.576477 
	C659.346375,244.503067 661.715698,242.306091 661.812012,240.076721 
	C662.243286,230.095596 662.063171,220.084717 661.973999,210.085739 
	C661.927429,204.870422 658.877686,202.060135 653.671631,201.994644 
	C629.522461,201.690918 605.884399,198.577728 583.063721,190.113022 
	C567.470093,184.328949 553.793213,175.443542 540.876953,165.278046 
	C533.529907,159.495651 526.318848,153.462601 519.629150,146.944473 
	C512.675598,140.169281 506.424103,132.673508 499.010864,124.556984 
	C507.813599,115.727867 516.101929,106.621902 525.239319,98.467354 
	C534.858093,89.883240 544.967041,81.760994 555.437683,74.238602 
	C572.322754,62.107944 591.560120,55.178009 611.988342,52.141655 
	C626.073242,50.048145 640.357239,49.267735 654.564331,48.039665 
	C658.715698,47.680824 661.896423,44.943867 661.954895,40.524635 
	C662.091675,30.193346 662.085938,19.857924 661.957275,9.526424 
	C661.902832,5.154126 658.419861,2.268417 653.346313,2.014938 
	C650.357422,1.865612 647.361572,1.855242 644.184448,1.391189 
	C663.020874,1.000000 682.041809,1.000000 701.434448,1.344744 
	C698.722107,4.171168 697.930176,7.385783 697.934753,11.293108 
	C698.023071,86.291618 698.044128,161.290344 697.904114,236.288696 
	C697.894409,241.475143 698.338989,245.940811 703.000000,249.000000 
	C687.312439,249.000000 671.624878,249.000000 655.468628,249.000015 
z"/>
<path fill="#FFFFFF" opacity="1.000000" stroke="none" 
	d="
M885.531372,0.999999 
	C880.165955,1.999460 874.362427,3.259124 868.492004,3.949304 
	C851.303101,5.970191 834.763977,10.569613 818.733459,16.834034 
	C808.934387,20.663298 799.578186,25.618923 789.985596,29.986210 
	C783.578186,32.903336 782.676453,38.564857 786.554321,43.912910 
	C791.535400,50.782452 796.997620,57.312180 802.422058,63.847614 
	C805.368713,67.397675 810.953857,68.426559 815.496887,66.083664 
	C831.629517,57.763802 848.786499,52.576328 866.535645,49.288036 
	C872.955261,48.098701 879.511536,47.402863 886.035339,47.073410 
	C897.781311,46.480244 909.573730,45.716183 921.302429,46.169308 
	C933.638550,46.645905 945.920166,48.586906 957.245972,54.066139 
	C967.804993,59.174450 973.079712,67.697624 973.008240,79.489700 
	C972.963867,86.806992 973.000000,94.124779 973.000000,102.201492 
	C967.842590,100.968483 963.115784,99.668381 958.316772,98.742638 
	C954.161987,97.941170 949.927246,97.093155 945.724426,97.075027 
	C913.894775,96.937767 882.064331,96.959846 850.234192,97.012489 
	C823.968018,97.055931 803.068115,108.163132 787.712646,129.058853 
	C780.482727,138.897400 776.586304,150.399658 774.810364,162.793350 
	C772.612549,178.131531 775.390930,192.473984 781.747070,206.067078 
	C788.385986,220.264954 798.632996,231.823212 812.866699,238.801605 
	C821.064331,242.820724 830.078552,245.174194 838.862610,248.638702 
	C798.645752,249.000000 758.291565,249.000000 717.657898,248.605209 
	C723.701111,248.140274 730.023621,248.034958 736.346436,248.008652 
	C744.793762,247.973511 746.996643,245.790665 746.997192,237.227783 
	C747.002075,162.441086 746.971375,87.654343 747.057861,12.867738 
	C747.064331,7.271284 745.365662,3.167294 740.000000,1.000000 
	C788.354248,1.000000 836.708435,1.000000 885.531372,0.999999 
z"/>
<path fill="#FFFFFF" opacity="1.000000" stroke="none" 
	d="
M1141.531372,0.999998 
	C1140.665771,1.666617 1139.365601,2.831395 1137.992188,2.925450 
	C1115.897461,4.438549 1094.875854,9.441598 1076.928101,23.102928 
	C1064.284424,32.726875 1056.436768,45.811459 1053.102173,61.350697 
	C1052.113281,65.958672 1052.049561,70.825798 1052.043457,75.574791 
	C1051.974854,129.199127 1052.100342,182.823959 1051.887817,236.447540 
	C1051.857178,244.186462 1052.999878,248.331787 1062.841064,248.625885 
	C1019.979126,249.000000 976.958191,249.000000 933.468628,249.000000 
	C937.158569,248.666672 941.328491,247.947311 945.473572,248.069733 
	C960.053711,248.500259 973.057983,243.753143 984.961731,235.939545 
	C1003.192627,223.972794 1013.640747,206.632904 1017.881775,185.498154 
	C1018.876831,180.539413 1018.939819,175.338211 1018.954346,170.247177 
	C1019.044800,138.431335 1019.243408,106.612328 1018.880737,74.800354 
	C1018.734680,61.987221 1015.921265,49.619499 1007.665466,39.158901 
	C996.803162,25.395771 982.535645,16.796803 966.034424,11.499521 
	C952.531738,7.164824 938.802246,3.958076 924.622192,3.026225 
	C916.216797,2.473860 907.793579,2.192669 899.189209,1.394775 
	C979.687561,1.000000 1060.375122,1.000000 1141.531372,0.999998 
z"/>
<path fill="#0A51A1" opacity="1.000000" stroke="none" 
	d="
M739.531372,1.000000 
	C745.365662,3.167294 747.064331,7.271284 747.057861,12.867738 
	C746.971375,87.654343 747.002075,162.441086 746.997192,237.227783 
	C746.996643,245.790665 744.793762,247.973511 736.346436,248.008652 
	C730.023621,248.034958 723.701111,248.140274 717.189209,248.605209 
	C712.643127,249.000000 708.286194,249.000000 703.464661,249.000000 
	C698.338989,245.940811 697.894409,241.475143 697.904114,236.288696 
	C698.044128,161.290344 698.023071,86.291618 697.934753,11.293108 
	C697.930176,7.385783 698.722107,4.171168 701.903076,1.344744 
	C714.354248,1.000000 726.708435,1.000000 739.531372,1.000000 
z"/>
<path fill="#FFFFFF" opacity="1.000000" stroke="none" 
	d="
M125.531342,1.000000 
	C124.340416,1.333333 122.681084,1.955578 121.021217,1.956985 
	C92.763840,1.980942 65.869919,8.546051 39.872589,19.100042 
	C32.070347,22.267479 24.668360,26.410290 17.020828,29.972778 
	C10.990145,32.782085 9.468575,38.047455 13.290411,43.436443 
	C18.383514,50.617985 24.076481,57.389118 29.742331,64.143135 
	C32.583290,67.529732 38.485649,68.300949 42.915302,65.993263 
	C55.629787,59.369492 68.972015,54.398197 82.990601,51.612900 
	C93.360298,49.552582 103.889534,48.008793 114.422363,47.134167 
	C125.625168,46.203899 136.940826,45.714279 148.161697,46.165207 
	C160.658676,46.667423 173.100021,48.573753 184.537369,54.228481 
	C194.442917,59.125870 199.821976,67.126030 199.978073,78.307800 
	C200.089615,86.297646 199.999725,94.290298 199.999725,102.131042 
	C193.028854,100.623550 186.154892,99.103447 179.262939,97.669876 
	C177.510620,97.305382 175.701324,97.029778 173.917831,97.027641 
	C142.106766,96.989571 110.295250,97.098717 78.484673,96.969536 
	C51.847885,96.861366 30.645741,107.699059 14.896056,128.833008 
	C8.906157,136.870636 4.727029,146.121368 2.960909,156.223450 
	C2.804857,157.116058 2.151654,157.921722 1.364678,158.883881 
	C1.000000,106.414848 1.000000,53.829704 1.000000,1.000000 
	C42.353905,1.000000 83.708298,1.000000 125.531342,1.000000 
z"/>
<path fill="#FFFFFF" opacity="1.000000" stroke="none" 
	d="
M300.468658,249.000000 
	C300.660675,248.668610 301.321014,248.048248 301.982086,248.047485 
	C328.075439,248.017288 352.241547,240.342026 375.722534,229.741241 
	C395.095459,220.995071 412.931671,209.750977 429.172272,196.161224 
	C442.840057,184.724289 455.832458,172.480225 469.706970,160.071976 
	C471.657013,162.353027 473.865448,165.363235 476.494904,167.944504 
	C497.110291,188.181976 519.128662,206.611954 544.434570,220.864075 
	C562.026123,230.771545 580.418152,238.663727 600.039612,243.460556 
	C606.651978,245.077072 613.476196,245.819733 620.189270,247.040466 
	C621.083618,247.203110 621.893250,247.831543 622.871094,248.622131 
	C515.645752,249.000000 408.291534,249.000000 300.468658,249.000000 
z"/>
<path fill="#FFFFFF" opacity="1.000000" stroke="none" 
	d="
M629.531372,0.999998 
	C624.329712,1.998187 618.683289,3.167412 612.984558,3.961086 
	C598.440369,5.986667 584.608582,10.492177 571.112305,16.030651 
	C553.471008,23.270103 536.801941,32.393017 521.583740,43.902313 
	C511.034027,51.880859 500.746887,60.243137 490.754395,68.908989 
	C484.185516,74.605728 478.371887,81.170341 472.164825,87.290321 
	C471.136688,88.303986 469.824768,89.029808 468.323822,90.121590 
	C462.339111,84.037498 456.541107,77.821953 450.402435,71.963364 
	C432.620270,54.992523 413.081238,40.375324 391.680145,28.208780 
	C373.089050,17.639704 353.350189,10.005136 332.553986,5.437238 
	C322.702545,3.273365 312.447693,2.946186 302.187805,1.393442 
	C411.020905,1.000000 520.041809,1.000000 629.531372,0.999998 
z"/>
<path fill="#FFFFFF" opacity="1.000000" stroke="none" 
	d="
M1561.000000,162.531357 
	C1558.930908,156.478165 1557.468750,149.682175 1554.671021,143.489548 
	C1548.133667,129.019394 1535.974854,120.165237 1521.902832,114.156677 
	C1507.219727,107.887260 1491.729004,104.362701 1475.743408,102.926598 
	C1460.590210,101.565262 1445.450439,99.926353 1430.369507,97.922226 
	C1415.379028,95.930099 1400.232056,94.305893 1385.586182,90.742767 
	C1368.651245,86.622719 1367.821777,71.511421 1373.482666,61.503147 
	C1377.827881,53.820930 1386.325684,50.927822 1394.814819,48.973400 
	C1409.334717,45.630527 1424.078369,44.211254 1438.878296,45.106873 
	C1466.090454,46.753616 1492.897827,50.887451 1518.388062,61.188442 
	C1522.297119,62.768139 1525.860962,65.190742 1529.745361,66.845848 
	C1534.676514,68.946968 1539.570435,67.705048 1542.893555,63.550922 
	C1548.797852,56.170013 1554.524170,48.646690 1560.662476,41.091499 
	C1561.000000,81.354225 1561.000000,121.708458 1561.000000,162.531357 
z"/>
<path fill="#FFFFFF" opacity="1.000000" stroke="none" 
	d="
M1453.468628,249.000000 
	C1454.827148,248.666672 1456.644043,248.120239 1458.482910,248.032394 
	C1481.252197,246.944733 1503.477173,243.207932 1524.182983,233.256912 
	C1542.619873,224.396362 1555.325806,210.593353 1559.129272,189.786362 
	C1559.233154,189.217697 1559.878174,188.747955 1560.635498,188.116043 
	C1561.000000,208.280563 1561.000000,228.561142 1561.000000,249.000000 
	C1525.312622,249.000000 1489.624878,249.000000 1453.468628,249.000000 
z"/>
<path fill="#FFFFFF" opacity="1.000000" stroke="none" 
	d="
M1561.000000,38.531342 
	C1559.009155,29.631235 1550.342163,28.307337 1543.598633,25.045921 
	C1528.020752,17.511980 1511.905884,11.171909 1494.819092,8.034531 
	C1481.083496,5.512476 1467.192749,3.836135 1453.185425,1.392268 
	C1488.891846,1.000000 1524.783569,1.000000 1561.000000,1.000000 
	C1561.000000,13.352333 1561.000000,25.707508 1561.000000,38.531342 
z"/>
<path fill="#FFFFFF" opacity="1.000000" stroke="none" 
	d="
M0.999999,186.468658 
	C1.724359,187.824310 2.572656,189.610016 3.154568,191.478683 
	C12.477071,221.415543 31.518681,240.881439 62.929966,247.030106 
	C65.487617,247.530746 68.082939,247.838898 70.830383,248.618256 
	C47.743675,249.000000 24.487350,249.000000 1.000000,249.000000 
	C1.000000,228.313019 1.000000,207.625168 0.999999,186.468658 
z"/>
<path fill="#FFFFFF" opacity="1.000000" stroke="none" 
	d="
M95.468658,249.000000 
	C95.655037,248.668762 96.310326,248.048157 96.965065,248.048721 
	C112.183914,248.061874 127.402702,248.142365 142.810760,248.605209 
	C127.312439,249.000000 111.624878,249.000000 95.468658,249.000000 
z"/>
<path fill="#FFFFFF" opacity="1.000000" stroke="none" 
	d="
M863.468628,248.999985 
	C863.655029,248.668732 864.310303,248.048157 864.965027,248.048721 
	C880.183899,248.061905 895.402710,248.142380 910.810791,248.605209 
	C895.312439,249.000000 879.624878,249.000000 863.468628,248.999985 
z"/>
<path fill="#FFFFFF" opacity="1.000000" stroke="none" 
	d="
M1561.000000,185.625000 
	C1560.780029,185.065063 1560.560059,184.130127 1560.670044,183.097595 
	C1561.000000,183.750000 1561.000000,184.500000 1561.000000,185.625000 
z"/>
<path fill="#FFFFFF" opacity="1.000000" stroke="none" 
	d="
M98.000000,205.000000 
	C90.506294,205.000000 83.443542,204.370193 76.532898,205.127853 
	C60.948479,206.836426 46.062172,191.710205 43.671021,177.554398 
	C41.030186,161.920441 53.663891,144.047363 65.717567,141.747421 
	C69.214539,141.080170 72.740906,140.091278 76.257339,140.076233 
	C107.062386,139.944443 137.871414,140.263535 168.672516,139.890808 
	C184.494385,139.699341 198.487320,149.863205 202.465530,164.613998 
	C207.602371,183.660934 191.920761,205.395050 172.931366,205.095749 
	C148.126572,204.704773 123.310959,205.000000 98.000000,205.000000 
z"/>
<path fill="#FFFFFF" opacity="1.000000" stroke="none" 
	d="
M916.000000,140.000000 
	C925.824768,140.000000 935.155884,139.781372 944.472961,140.048721 
	C960.393982,140.505554 973.718750,151.552017 976.132935,168.750320 
	C978.306396,184.233856 966.888916,201.191483 952.856995,204.057175 
	C950.962891,204.443985 949.040344,204.956909 947.130249,204.960159 
	C914.493530,205.015671 881.845154,204.489334 849.225342,205.233780 
	C834.759338,205.563919 820.955139,194.351257 817.242615,180.659790 
	C812.857971,164.489685 823.871826,145.356735 838.574219,141.891403 
	C842.026550,141.077698 845.559265,140.109299 849.061401,140.083328 
	C871.206604,139.919083 893.353577,140.000000 916.000000,140.000000 
z"/>
</svg>