<?xml version="1.0" standalone="no"?><!DOCTYPE svg PUBLIC "-//W3C//DTD SVG 1.1//EN" "http://www.w3.org/Graphics/SVG/1.1/DTD/svg11.dtd"><svg t="1730147843480" class="icon" viewBox="0 0 1024 1024" version="1.1" xmlns="http://www.w3.org/2000/svg" p-id="2447" xmlns:xlink="http://www.w3.org/1999/xlink" width="200" height="200"><path d="M302.8 782.3c0-7.5-5.2-14.1-12.6-15.6-28.9-6.1-55.4-20.4-76.8-41.8-29.2-29.1-45.2-67.8-45.2-109 0-18 3.1-35.6 9.1-52.3 5.8-16.1 14.3-31.1 25.2-44.6 21.9-26.9 52.4-45.9 86-53.5l44.2-10 12.3-43.6c6.8-24 17.4-46.7 31.6-67.5 14-20.5 31.1-38.5 50.8-53.6 19.9-15.2 41.9-27.1 65.5-35.2 24.4-8.4 50-12.7 76.1-12.7 62.2 0 120.6 24.2 164.6 68 44 43.9 68.2 102.2 68.2 164.3 0 7.8-0.4 15.6-1.2 23.3-0.5 4.7 3.3 8.8 8 8.8h52.9c8.5 0 15.6-6.7 16-15.2 0.3-5.6 0.5-11.2 0.5-16.8 0-170.3-138.3-308.4-309-308.4-141.5 0-260.7 94.9-297.4 224.3C168.8 414.5 92 506.2 92 615.9c0 117.4 88 214.2 201.8 228.4 4.8 0.6 9-3.1 9-8v-54z" fill="#13227a" p-id="2448"></path><path d="M923.9 857H485.5c-2.4 0-4.7-1.1-6.3-3L307.9 643.3c-2.8-3.5-2.3-8.5 1.2-11.3l43.8-35.5c3.5-2.8 8.5-2.3 11.3 1.2l152 186.9h343.2v-42.9l-117.6-88-138.4 35.6c-4.3 1.1-8.7-1.5-9.8-5.8l-14.1-54.6c-1.1-4.3 1.5-8.7 5.8-9.8l168.4-43.3c2.4-0.6 4.9-0.1 6.8 1.4l168.2 125.9c2 1.5 3.2 3.9 3.2 6.4V849c0.1 4.4-3.5 8-8 8z" fill="#13227a" p-id="2449"></path></svg>