<svg xmlns="http://www.w3.org/2000/svg" xml:space="preserve" id="Layer_1" x="0" y="0" style="enable-background:new 0 0 286.6 286.6" version="1.1" viewBox="0 0 286.6 286.6"><style>.st1{fill-rule:evenodd;clip-rule:evenodd;fill:#0071ff}</style><path d="M50.1 0h186.4c27.7 0 50.1 22.4 50.1 50.1v186.4c0 27.7-22.4 50.1-50.1 50.1H50.1C22.4 286.6 0 264.2 0 236.5V50.1C0 22.4 22.4 0 50.1 0z" style="fill-rule:evenodd;clip-rule:evenodd;fill:#e5e5e5"/><path d="M61.7 216.1c.3.5.5.9.5 1.4 0 .6-.3 1.1-.8 1.5-.5.4-1 .6-1.7.6-.4 0-.8-.1-1.2-.3-.4-.2-.7-.5-1-.9l-5.3-8c-.5-.9-1.1-1.6-1.7-1.9-.7-.3-1.5-.5-2.4-.5h-3.8v9c0 .8-.2 1.4-.7 1.9-.4.5-1 .7-1.8.7s-1.4-.2-1.9-.7c-.5-.5-.7-1.1-.7-2v-23.2c0-.8.2-1.4.7-1.8.5-.5 1.1-.7 1.8-.7h10c3.2 0 5.6.7 7.3 2.2 1.7 1.4 2.5 3.4 2.5 6.1 0 2.2-.6 4-1.9 5.4-1.2 1.4-2.9 2.3-5.2 2.7.8.2 1.5.5 2 1 .7.5 1.3 1.1 1.8 2l3.5 5.5zm-10.8-12c2 0 3.4-.4 4.3-1.1.9-.8 1.3-1.9 1.3-3.4 0-1.6-.4-2.7-1.3-3.4-.9-.7-2.4-1-4.3-1h-6.7v8.8l6.7.1zm27.7 15.6c-3.9 0-6.8-1-8.8-3s-3-4.9-3-8.8v-14.4c0-.8.2-1.4.7-1.9.4-.5 1-.7 1.8-.7s1.4.2 1.8.7c.5.5.7 1.1.7 1.9v14.7c0 2.4.6 4.2 1.7 5.5 1.2 1.3 2.9 1.9 5 1.9 2.3 0 3.9-.7 5-2 1.2-1.2 1.8-3 1.8-5.4v-14.7c0-.8.2-1.4.7-1.9.5-.5 1.1-.7 1.8-.7.8 0 1.4.2 1.9.7.4.5.6 1.1.6 1.9v14.4c0 3.8-1 6.7-3 8.8-2 2-4.9 3-8.7 3zm27.4 0c-2 0-3.9-.3-5.8-.8-1.8-.6-3.3-1.4-4.5-2.3-.6-.4-.9-1-.9-1.9 0-.5.2-1 .5-1.4.3-.5.7-.7 1.2-.7s1 .2 1.6.6c1.2.8 2.4 1.4 3.6 1.8 1.3.4 2.7.6 4.2.6 2 0 3.5-.3 4.5-1s1.5-1.7 1.5-3c0-1.1-.5-1.9-1.4-2.4-1-.5-2.6-1.1-4.9-1.6-2.3-.5-4.2-1-5.7-1.7s-2.6-1.5-3.3-2.6c-.7-1-1.1-2.3-1.1-4 0-1.6.5-3.1 1.4-4.4.9-1.3 2.2-2.3 3.8-3 1.7-.7 3.6-1.1 5.7-1.1 3.8 0 6.9 1 9.3 3 .3.3.6.6.7.9.2.3.3.6.3 1 0 .6-.2 1.1-.6 1.5-.3.4-.6.6-1.1.6l-.8-.1-.9-.5c-1.1-.8-2.1-1.4-3.2-1.7-1-.4-2.2-.6-3.7-.6-1.8 0-3.2.4-4.3 1.1-1.1.7-1.6 1.7-1.6 3 0 1.1.5 2 1.4 2.6.9.5 2.5 1.1 4.8 1.6s4.2 1.1 5.7 1.8 2.7 1.5 3.4 2.5c.8 1 1.2 2.3 1.2 3.8 0 1.7-.5 3.1-1.4 4.4-.9 1.3-2.2 2.3-3.9 3-1.6.7-3.5 1-5.7 1zm24.4-.2c-.8 0-1.4-.2-1.9-.7s-.7-1.1-.7-1.8v-21.6h-7.3c-1.6 0-2.4-.7-2.4-2.2s.8-2.1 2.4-2h19.8c1.6 0 2.4.7 2.4 2s-.8 2.1-2.4 2.2H133V217c0 .7-.2 1.3-.7 1.8s-1.1.7-1.9.7zm17.8-.2c-.8 0-1.4-.2-1.9-.6-.4-.5-.6-1.1-.6-1.8v-23.3c0-.8.2-1.4.6-1.8.5-.5 1.1-.7 1.9-.7h8c4.5 0 8.1 1.2 10.6 3.7 2.6 2.5 3.9 5.9 3.9 10.4s-1.3 7.9-3.9 10.4c-2.5 2.5-6.1 3.7-10.7 3.7h-7.9zm7.6-4.2c6.5 0 9.7-3.3 9.7-9.9 0-6.6-3.2-9.9-9.7-9.9h-5v19.8h5zm22.5 4.2c-.7 0-1.3-.2-1.8-.6-.4-.5-.6-1.1-.6-1.8v-23.3c0-.8.2-1.4.6-1.8.5-.5 1.1-.7 1.8-.7h14.5c.7 0 1.3.2 1.8.5.4.4.6.9.6 1.5 0 .7-.2 1.2-.6 1.6-.5.3-1.1.5-1.8.5h-11.9v7.8h11c.8 0 1.4.2 1.9.5.4.3.6.8.6 1.5s-.2 1.2-.6 1.5c-.4.3-1 .5-1.8.5h-11v8.2h11.8c.7 0 1.3.2 1.8.6.4.3.6.8.6 1.5s-.2 1.2-.6 1.5c-.4.3-1 .5-1.8.5h-14.5zm30.5.4c-2.1 0-4-.3-5.9-.8-1.8-.6-3.3-1.4-4.4-2.3-.7-.4-1-1-1-1.9 0-.5.2-1 .6-1.4.3-.5.7-.7 1.2-.7s1 .2 1.6.6c1.1.8 2.3 1.4 3.6 1.8 1.3.4 2.7.6 4.2.6 1.9 0 3.4-.3 4.4-1 1.1-.7 1.6-1.7 1.6-3 0-1.1-.5-1.9-1.5-2.4-.9-.5-2.5-1.1-4.8-1.6s-4.2-1-5.7-1.7-2.6-1.5-3.4-2.6c-.7-1-1-2.3-1-4 0-1.6.4-3.1 1.3-4.4.9-1.3 2.2-2.3 3.9-3 1.7-.7 3.5-1.1 5.6-1.1 3.9 0 7 1 9.4 3 .3.3.6.6.7.9.1.3.2.6.2 1 0 .6-.2 1.1-.5 1.5-.3.4-.7.6-1.2.6l-.7-.1-.9-.5c-1.1-.8-2.1-1.4-3.2-1.7-1-.4-2.3-.6-3.8-.6-1.8 0-3.2.4-4.3 1.1-1 .7-1.5 1.7-1.5 3 0 1.1.5 2 1.4 2.6.9.5 2.5 1.1 4.7 1.6 2.4.5 4.3 1.1 5.8 1.8s2.6 1.5 3.4 2.5 1.2 2.3 1.2 3.8c0 1.7-.5 3.1-1.4 4.4-.9 1.3-2.2 2.3-3.9 3-1.7.7-3.6 1-5.7 1zm37.6-4.3c.5.5.8 1.1.8 1.8 0 .6-.2 1.1-.7 1.6s-1 .7-1.6.7c-.7 0-1.3-.3-1.9-.9l-13.3-12.4V217c0 .7-.2 1.3-.7 1.8-.5.5-1.1.8-1.9.8s-1.4-.3-1.9-.8-.7-1.1-.7-1.8v-23.5c0-.8.2-1.4.7-1.9s1.1-.7 1.9-.7 1.4.2 1.9.7.7 1.1.7 1.9v10.2l12.9-12.1c.5-.5 1-.7 1.6-.7.7 0 1.2.2 1.6.7.5.5.7 1 .7 1.6s-.3 1.2-.8 1.7l-10.7 9.8 11.4 10.7zM51.6 239.9c.2-.3.4-.4.7-.4.3 0 .6.1.8.3.2.3.3.5.3.8s-.1.5-.3.7l-5.3 6.7v6.5c0 .4-.1.7-.4 1-.2.1-.5.2-.8.2-.3 0-.6-.1-.8-.3-.2-.2-.3-.5-.3-.9V248l-5.4-6.7c-.2-.2-.3-.4-.3-.7 0-.3.1-.6.3-.8.3-.2.5-.3.8-.3.3 0 .6.1.8.4l5 6.2 4.9-6.2zm6.6 15.9c-1.1 0-2-.3-2.9-.8-.8-.5-1.4-1.1-1.9-2-.4-.9-.6-1.9-.6-3s.2-2.1.6-3c.5-.9 1.1-1.5 2-2 .8-.5 1.7-.7 2.8-.7s2 .2 2.8.7c.9.5 1.5 1.1 2 2 .4.9.6 1.9.6 3s-.2 2.1-.6 3c-.5.9-1.1 1.5-2 2-.8.5-1.7.8-2.8.8zm0-1.9c1 0 1.8-.3 2.3-1 .5-.7.8-1.6.8-2.9s-.3-2.2-.8-2.9c-.5-.7-1.3-1-2.3-1-1 0-1.8.3-2.3 1-.5.7-.8 1.7-.8 3 0 1.2.3 2.1.8 2.8.5.7 1.3 1 2.3 1zm16.5-9.6c.4 0 .7.1.9.3.2.2.3.5.3.8v9.2c0 .3-.1.6-.3.8-.3.2-.6.3-.9.3-.3 0-.6-.1-.8-.3-.1-.2-.2-.4-.2-.7v-.9c-.4.7-.9 1.2-1.5 1.5-.7.3-1.3.5-2 .5-2.7 0-4-1.5-4-4.5v-5.8c0-.3.1-.6.2-.8.2-.2.5-.3.9-.3.3 0 .6.1.8.3.2.2.3.5.3.8v5.9c0 .9.2 1.5.6 2 .3.4.9.6 1.6.6.9 0 1.7-.3 2.2-.9.5-.5.8-1.3.8-2.3v-5.3c0-.3.1-.6.3-.8.2-.2.5-.3.8-.3v-.1zm10.2 0c.7 0 1 .3 1 1 0 .3-.1.5-.2.7-.1.1-.4.2-.9.3h-.6c-1 .1-1.7.5-2.2 1-.4.7-.6 1.4-.6 2.1v5.2c0 .4-.1.7-.4.8-.2.2-.5.3-.8.3-.3 0-.6-.1-.8-.3-.2-.1-.3-.4-.3-.8v-9.1c0-.3.1-.6.3-.8.2-.2.5-.3.8-.3.3 0 .6.1.8.3.2.2.3.5.3.8v1c.3-.7.7-1.2 1.3-1.5.6-.3 1.3-.5 2-.6l.3-.1zm14.3 0c.7 0 1 .3 1 1 0 .3-.1.5-.2.7l-.9.3h-.7c-.9.1-1.6.5-2 1-.5.7-.8 1.4-.8 2.1v5.2c0 .4-.1.7-.3.8-.2.2-.5.3-.8.3-.3 0-.6-.1-.8-.3-.3-.1-.4-.4-.4-.8v-9.1c0-.3.1-.6.4-.8.2-.2.5-.3.8-.3.3 0 .6.1.8.3.2.2.3.5.3.8v1c.3-.7.7-1.2 1.3-1.5.5-.3 1.2-.5 2-.6l.3-.1zm10.9 8.5c.2 0 .4.1.5.3.1.1.2.3.2.6 0 .4-.3.8-.8 1.1-.5.3-1.1.6-1.8.7-.6.2-1.2.3-1.7.3-1.8 0-3.2-.5-4.2-1.6-1-1-1.5-2.4-1.5-4.2 0-1.1.2-2.1.6-3 .5-.9 1.1-1.5 2-2 .7-.5 1.6-.7 2.7-.7 1.5 0 2.6.5 3.5 1.4.9.9 1.3 2.2 1.3 3.8 0 .7-.3 1-.8 1h-7c.1 2.3 1.2 3.5 3.3 3.5.6 0 1.1-.1 1.5-.3l1.3-.6.4-.1.5-.2zm-4-6.9c-.9 0-1.5.3-2 .9-.6.5-.9 1.3-1 2.3h5.8c0-1-.3-1.8-.8-2.3-.5-.6-1.1-.9-2-.9zm20-1.6c2.5 0 3.7 1.5 3.7 4.4v6c0 .3-.1.5-.3.7-.2.2-.5.3-.8.3-.3 0-.6-.1-.9-.3-.2-.2-.3-.5-.3-.8v-5.9c0-.9-.2-1.5-.5-2-.3-.4-.8-.6-1.5-.6-.9 0-1.5.3-2 .9-.5.5-.7 1.3-.7 2.3v5.3c0 .3-.1.6-.3.8-.3.2-.6.3-.9.3-.3 0-.6-.1-.8-.3-.2-.2-.3-.5-.3-.8v-5.9c0-.9-.2-1.5-.5-2-.3-.4-.9-.6-1.6-.6-.8 0-1.5.3-2 .9-.5.5-.7 1.3-.7 2.3v5.3c0 .3-.1.6-.3.8-.2.2-.5.3-.8.3-.3 0-.6-.1-.9-.3-.2-.2-.3-.5-.3-.8v-9.1c0-.3.1-.6.3-.8.3-.2.6-.3.9-.3.3 0 .5.1.7.3.3.2.4.5.4.8v.8c.3-.7.8-1.1 1.3-1.4.7-.3 1.3-.5 2-.5.9 0 1.6.2 2.2.5.5.3.9.9 1.2 1.6.3-.7.8-1.2 1.5-1.5.7-.4 1.4-.6 2.2-.6v-.1zm11.7 11.5c-1.1 0-2.1-.3-3-.8-.8-.5-1.4-1.1-1.8-2-.5-.9-.7-1.9-.7-3s.2-2.1.7-3c.4-.9 1-1.5 1.9-2 .8-.5 1.8-.7 2.9-.7s2.1.2 2.8.7c.9.5 1.5 1.1 2 2 .4.9.6 1.9.6 3s-.2 2.1-.7 3c-.4.9-1 1.5-1.9 2-.8.5-1.7.8-2.8.8zm0-1.9c1 0 1.8-.3 2.3-1 .5-.7.8-1.6.8-2.9s-.3-2.2-.8-2.9c-.6-.7-1.4-1-2.3-1-.9 0-1.7.3-2.4 1-.5.7-.8 1.7-.8 3 0 1.2.3 2.1.8 2.8.5.7 1.3 1 2.4 1zm13.3 0c.3.1.6.2.7.3s.2.3.2.6-.1.6-.3.7c-.3.2-.6.3-1 .2h-.7c-1.2-.1-2.1-.5-2.7-1.1-.7-.7-1-1.7-1-3v-5.3H145c-.7 0-1-.3-1-.9 0-.3.1-.5.3-.6.2-.2.4-.3.7-.3h1.4v-2.3c0-.3.1-.6.3-.8.2-.2.5-.3.8-.3.3 0 .6.1.9.3.2.2.3.5.3.8v2.3h2.2c.3 0 .6.1.7.3.2.1.3.3.3.6s-.1.5-.3.7c-.1.1-.4.2-.7.2h-2.1v5.5c0 .7.1 1.2.4 1.6.3.3.8.4 1.4.5h.5zm11.2-1c.3 0 .5.1.6.2.1.1.2.3.2.6 0 .4-.3.8-.8 1.1-.5.3-1.1.6-1.8.7-.7.2-1.3.3-1.8.3-1.7 0-3.1-.5-4.1-1.6-1-1-1.5-2.4-1.5-4.2 0-1.1.2-2.1.6-3 .5-.9 1.1-1.5 1.9-2s1.7-.7 2.8-.7c1.5 0 2.6.5 3.5 1.4.9.9 1.3 2.2 1.3 3.8 0 .7-.3 1-.9 1h-7c.2 2.3 1.3 3.5 3.4 3.5.6 0 1.1-.1 1.5-.3l1.3-.6.3-.1.5-.2v.1zm-3.9-7c-.9 0-1.6.3-2.1.9-.5.5-.9 1.3-1 2.3h5.9c0-1-.3-1.8-.8-2.3-.5-.6-1.1-.9-2-.9zm22.3-6.4c.3 0 .6.1.8.3.3.2.4.5.4.8v14c0 .3-.1.6-.4.8-.2.2-.5.3-.8.3s-.6-.1-.8-.3c-.2-.2-.3-.5-.3-.8v-1c-.3.7-.8 1.2-1.5 1.6s-1.4.6-2.2.6c-.9 0-1.8-.3-2.5-.8s-1.3-1.1-1.8-2c-.4-.9-.6-1.9-.6-3 0-1.2.2-2.2.6-3 .5-.9 1.1-1.5 1.8-2s1.5-.7 2.5-.7c.9 0 1.6.2 2.2.5.7.3 1.2.8 1.5 1.5v-5.8c0-.3.1-.5.3-.7.2-.2.5-.3.8-.3zm-4.2 14.4c1 0 1.8-.3 2.3-1 .5-.7.8-1.6.8-2.9s-.3-2.2-.8-2.9c-.5-.7-1.3-1-2.3-1-1 0-1.8.3-2.3 1-.6.7-.9 1.6-.9 2.9 0 1.2.3 2.2.9 2.9.5.7 1.3 1 2.3 1zm17.2-1c.2 0 .4.1.5.2s.2.3.2.6c0 .4-.3.8-.8 1.1-.5.3-1.1.6-1.7.7-.7.2-1.3.3-1.8.3-1.7 0-3.1-.5-4.2-1.6-1-1-1.5-2.4-1.5-4.2 0-1.1.2-2.1.7-3s1.1-1.5 1.9-2 1.7-.7 2.7-.7c1.5 0 2.6.5 3.5 1.4.9.9 1.3 2.2 1.3 3.8 0 .7-.3 1-.8 1h-7c.1 2.3 1.3 3.5 3.4 3.5.5 0 1-.1 1.4-.3.5-.1.9-.3 1.3-.6l.4-.1.5-.2v.1zm-4-7c-.8 0-1.5.3-2 .9-.5.5-.9 1.3-1 2.3h5.9c-.1-1-.3-1.8-.8-2.3-.5-.6-1.1-.9-2-.9h-.1zm11.2 9.9c-1.5 0-2.8-.3-3.8-1-.3-.1-.5-.3-.6-.5l-.1-.6c0-.3.1-.5.2-.6.1-.2.3-.3.5-.3s.5.1 1 .4l1.2.6c.5.1 1 .2 1.7.2s1.2-.1 1.7-.4c.4-.3.6-.6.6-1 0-.3-.1-.6-.3-.8-.1-.2-.4-.4-.8-.5l-1.7-.5c-1.3-.3-2.3-.6-3-1.1-.5-.5-.8-1.2-.8-2 0-.7.2-1.3.6-1.8s.9-.9 1.6-1.2 1.4-.4 2.2-.4c.7 0 1.3.1 1.8.2.6.1 1.1.4 1.5.7.5.3.8.7.8 1.1 0 .3-.1.5-.3.7-.1.1-.3.2-.5.2h-.4c-.1 0-.3-.1-.5-.4l-1.2-.5c-.3-.1-.8-.2-1.3-.2-.7 0-1.2.1-1.5.4-.4.3-.6.6-.6 1 0 .5.2.8.5 1 .4.3 1.1.5 2 .7 1.1.2 1.9.5 2.4.8.6.3 1 .6 1.2 1 .3.4.4.9.4 1.5 0 1-.4 1.8-1.2 2.4s-1.9.9-3.3.9zm16.4-2c.3.2.4.5.4.8 0 .3-.1.6-.3.8s-.4.3-.7.3c-.3 0-.6-.1-.8-.3l-5.6-5v4.2c0 .3-.1.6-.4.8-.2.2-.5.3-.8.3-.3 0-.6-.1-.8-.3s-.3-.5-.3-.8v-14c0-.3.1-.6.3-.8s.5-.3.8-.3c.3 0 .6.1.8.3.3.2.4.5.4.8v8.9l5.1-4.8c.3-.3.5-.4.8-.4.3 0 .5.1.7.3.2.3.3.5.3.8s-.1.5-.3.8l-4 3.7 4.4 3.9zm7.7.2c.3 0 .6.1.7.2.2.1.3.3.3.6s-.1.6-.4.7c-.2.2-.5.3-1 .2h-.6c-1.3-.1-2.2-.5-2.8-1.1-.6-.7-.9-1.7-.9-3v-5.3H219c-.7 0-1-.3-1-.9 0-.3.1-.5.2-.6.2-.2.5-.3.8-.3h1.3v-2.3c0-.3.1-.6.3-.8s.5-.3.9-.3c.3 0 .6.1.8.3.2.2.3.5.3.8v2.3h2.3c.3 0 .5.1.7.3.2.1.3.3.3.6s-.1.5-.3.7c-.2.1-.4.2-.7.2h-2.3v5.5c0 .7.1 1.2.4 1.6.3.3.8.4 1.4.5l.6.1zm7.4 1.8c-1.1 0-2-.3-2.8-.8-.9-.5-1.5-1.1-2-2-.4-.9-.6-1.9-.6-3s.2-2.1.6-3c.5-.9 1.1-1.5 2-2 .8-.5 1.7-.7 2.8-.7s2 .2 2.9.7c.8.5 1.4 1.1 1.9 2s.7 1.9.7 3-.2 2.1-.7 3-1.1 1.5-2 2c-.7.5-1.7.8-2.8.8zm0-1.9c1 0 1.8-.3 2.3-1 .6-.7.9-1.6.9-2.9s-.3-2.2-.9-2.9c-.5-.7-1.3-1-2.3-1-1 0-1.8.3-2.3 1-.5.7-.8 1.7-.8 3 0 1.2.3 2.1.8 2.8.5.7 1.3 1 2.3 1zm14-9.6c.9 0 1.8.2 2.5.7.7.5 1.3 1.1 1.7 2 .5.9.7 1.9.7 3 0 1.2-.2 2.2-.6 3-.4.8-1 1.5-1.8 2-.7.5-1.6.8-2.6.8-.8 0-1.5-.2-2.2-.6-.6-.3-1.1-.8-1.4-1.5v5c0 .3-.1.6-.3.8-.2.2-.5.3-.8.3s-.6-.1-.9-.3c-.2-.2-.3-.5-.3-.8v-13.3c0-.3.1-.6.3-.8s.5-.3.9-.3c.3 0 .6.1.8.3.2.2.3.5.3.8v1c.3-.7.8-1.2 1.4-1.6.7-.3 1.4-.5 2.3-.5zm-.6 9.6c1 0 1.8-.3 2.3-1 .5-.7.8-1.6.8-2.8 0-1.3-.3-2.3-.8-3-.5-.7-1.3-1-2.3-1s-1.8.3-2.3 1c-.5.7-.8 1.7-.8 3 0 1.2.3 2.1.8 2.8.5.7 1.3 1 2.3 1z" class="st1"/><linearGradient id="SVGID_1_" x1="-810.717" x2="-810.018" y1="678.888" y2="679.587" gradientTransform="matrix(94.0017 0 0 -93.9977 76314.516 63950.613)" gradientUnits="userSpaceOnUse"><stop offset="0" style="stop-color:#0071ff"/><stop offset="1" style="stop-color:#00bfe1"/></linearGradient><path d="m177 74.2-7.7 7.6c-1.4 1.3-2 3.2-1.3 4.9 5.2 10.7 3.2 23.5-5.2 32-8.5 8.3-21.3 10.4-32 5.2-1.7-.7-3.5 0-4.7 1.2l-7.9 7.8c-1.6 1.7-1.6 4.3.1 5.9.2.2.5.4.7.6 22.3 13.4 51.1 6.2 64.5-16.1 8.9-14.8 8.9-33.3.1-48.2-.6-1.1-1.8-1.8-3-2-1.3-.2-2.6.1-3.6 1v.1zm-66.7-8.4C94.9 81 91.9 104.7 103 123.3c1.2 2 3.7 2.7 5.7 1.6.3-.2.6-.4.9-.7l7.7-7.6c1.4-1.3 2-3.2 1.3-5-5.2-10.7-3.2-23.5 5.2-32 8.5-8.3 21.3-10.4 32-5.2 1.6.7 3.5.1 4.7-1l7.9-8c1.6-1.7 1.6-4.3-.1-5.9-.2-.2-.5-.4-.7-.6-18.5-11.1-42.2-8.2-57.4 7.1l.1-.2z" style="fill-rule:evenodd;clip-rule:evenodd;fill:url(#SVGID_1_)"/></svg>
