<svg version="1.1" id="Layer_1" xmlns="http://www.w3.org/2000/svg" xmlns:xlink="http://www.w3.org/1999/xlink" x="0px" y="0px"
	 width="100%" viewBox="0 0 334 225" enable-background="new 0 0 334 225" xml:space="preserve">
<path fill="#FFFEFE" opacity="1.000000" stroke="none" 
	d="
M206.000000,226.000000 
	C137.333344,226.000000 69.166679,226.000000 1.000018,226.000000 
	C1.000012,151.000015 1.000012,76.000031 1.000006,1.000038 
	C112.333305,1.000026 223.666611,1.000026 334.999939,1.000013 
	C334.999939,75.999962 334.999939,150.999924 334.999969,225.999939 
	C292.166656,226.000000 249.333328,226.000000 206.000000,226.000000 
M323.164215,186.678604 
	C323.079712,178.180435 321.961487,177.085602 313.277618,176.919479 
	C294.532288,176.560898 276.136353,173.733139 258.695374,166.869766 
	C231.312607,156.094101 210.981644,136.042648 191.454056,114.083427 
	C202.146027,104.187622 212.459946,94.252617 223.192413,84.792488 
	C243.217728,67.141205 266.191284,56.192741 293.282928,54.887260 
	C300.582611,54.535507 307.856201,53.624893 315.138611,52.937473 
	C321.546967,52.332561 323.119202,50.720963 323.153961,44.631535 
	C323.194885,37.467419 323.097107,30.302095 323.184021,23.138805 
	C323.238861,18.617014 320.979156,16.583445 316.659698,15.967933 
	C299.140472,13.471498 282.210175,16.700729 265.628937,21.709173 
	C230.330002,32.371387 201.697281,53.659397 175.855026,79.203979 
	C173.184708,81.843521 170.470016,84.438171 167.101822,87.708092 
	C165.931000,86.091965 165.248871,84.916679 164.348877,83.942726 
	C147.742050,65.971352 128.823441,50.878189 107.814995,38.341751 
	C81.784790,22.808678 53.468014,15.659788 23.353268,15.056538 
	C16.031149,14.909863 12.485308,17.869698 12.458607,24.183422 
	C12.425505,32.010708 12.541068,39.855740 13.116615,47.654419 
	C13.235483,49.265083 15.427802,51.621479 17.067961,52.035423 
	C20.562834,52.917461 24.318628,52.834255 27.974150,52.999386 
	C44.663185,53.753296 60.976307,56.609585 76.603058,62.535965 
	C102.470657,72.346153 120.813873,92.159210 139.936630,110.885956 
	C142.901306,113.789223 142.175354,116.277145 139.396194,118.926743 
	C130.473663,127.433342 121.900391,136.320129 112.756371,144.577408 
	C97.837997,158.049026 80.695801,167.945343 60.906879,171.889191 
	C47.601780,174.540817 33.931732,175.427902 20.396549,176.830185 
	C13.648054,177.529312 12.893385,178.043015 12.833114,185.016632 
	C12.784161,190.680679 12.817026,196.348602 12.611513,202.007462 
	C12.242023,212.181503 13.957113,214.712921 24.370607,214.459808 
	C34.764191,214.207199 45.308338,213.387695 55.461266,211.262802 
	C85.939476,204.884125 113.020241,191.168213 136.748444,171.017380 
	C147.506805,161.881012 157.925049,152.344101 167.429077,143.934372 
	C180.697937,155.197601 193.240479,166.914581 206.866913,177.194855 
	C238.094452,200.754074 272.861023,215.086472 312.697449,214.807861 
	C319.502869,214.760269 322.981720,211.449814 323.050018,204.632568 
	C323.106781,198.968155 323.127533,193.303375 323.164215,186.678604 
z"/>
<path fill="#9E0362" opacity="1.000000" stroke="none" 
	d="
M323.164246,187.158691 
	C323.127533,193.303375 323.106781,198.968155 323.050018,204.632568 
	C322.981720,211.449814 319.502869,214.760269 312.697449,214.807861 
	C272.861023,215.086472 238.094452,200.754074 206.866913,177.194855 
	C193.240479,166.914581 180.697937,155.197601 167.429077,143.934372 
	C157.925049,152.344101 147.506805,161.881012 136.748444,171.017380 
	C113.020241,191.168213 85.939476,204.884125 55.461266,211.262802 
	C45.308338,213.387695 34.764191,214.207199 24.370607,214.459808 
	C13.957113,214.712921 12.242023,212.181503 12.611513,202.007462 
	C12.817026,196.348602 12.784161,190.680679 12.833114,185.016632 
	C12.893385,178.043015 13.648054,177.529312 20.396549,176.830185 
	C33.931732,175.427902 47.601780,174.540817 60.906879,171.889191 
	C80.695801,167.945343 97.837997,158.049026 112.756371,144.577408 
	C121.900391,136.320129 130.473663,127.433342 139.396194,118.926743 
	C142.175354,116.277145 142.901306,113.789223 139.936630,110.885956 
	C120.813873,92.159210 102.470657,72.346153 76.603058,62.535965 
	C60.976307,56.609585 44.663185,53.753296 27.974150,52.999386 
	C24.318628,52.834255 20.562834,52.917461 17.067961,52.035423 
	C15.427802,51.621479 13.235483,49.265083 13.116615,47.654419 
	C12.541068,39.855740 12.425505,32.010708 12.458607,24.183422 
	C12.485308,17.869698 16.031149,14.909863 23.353268,15.056538 
	C53.468014,15.659788 81.784790,22.808678 107.814995,38.341751 
	C128.823441,50.878189 147.742050,65.971352 164.348877,83.942726 
	C165.248871,84.916679 165.931000,86.091965 167.101822,87.708092 
	C170.470016,84.438171 173.184708,81.843521 175.855026,79.203979 
	C201.697281,53.659397 230.330002,32.371387 265.628937,21.709173 
	C282.210175,16.700729 299.140472,13.471498 316.659698,15.967933 
	C320.979156,16.583445 323.238861,18.617014 323.184021,23.138805 
	C323.097107,30.302095 323.194885,37.467419 323.153961,44.631535 
	C323.119202,50.720963 321.546967,52.332561 315.138611,52.937473 
	C307.856201,53.624893 300.582611,54.535507 293.282928,54.887260 
	C266.191284,56.192741 243.217728,67.141205 223.192413,84.792488 
	C212.459946,94.252617 202.146027,104.187622 191.454056,114.083427 
	C210.981644,136.042648 231.312607,156.094101 258.695374,166.869766 
	C276.136353,173.733139 294.532288,176.560898 313.277618,176.919479 
	C321.961487,177.085602 323.079712,178.180435 323.164246,187.158691 
z"/>
</svg>