<?xml version="1.0" encoding="UTF-8" standalone="no"?>
<svg
   xml:space="preserve"
   width="26"
   height="26"
   style="isolation:isolate"
   viewBox="66.993 897.484 26 26"
   version="1.1"
   id="svg2"
   sodipodi:docname="logo.svg"
   inkscape:version="1.3.2 (1:1.3.2+202311252150+091e20ef0f)"
   xmlns:inkscape="http://www.inkscape.org/namespaces/inkscape"
   xmlns:sodipodi="http://sodipodi.sourceforge.net/DTD/sodipodi-0.dtd"
   xmlns:xlink="http://www.w3.org/1999/xlink"
   xmlns="http://www.w3.org/2000/svg"
   xmlns:svg="http://www.w3.org/2000/svg"><sodipodi:namedview
     id="namedview2"
     pagecolor="#ffffff"
     bordercolor="#000000"
     borderopacity="0.25"
     inkscape:showpageshadow="2"
     inkscape:pageopacity="0.0"
     inkscape:pagecheckerboard="0"
     inkscape:deskcolor="#d1d1d1"
     inkscape:zoom="32.153846"
     inkscape:cx="12.98445"
     inkscape:cy="13"
     inkscape:window-width="1920"
     inkscape:window-height="1031"
     inkscape:window-x="0"
     inkscape:window-y="25"
     inkscape:window-maximized="1"
     inkscape:current-layer="svg2" /><defs
     id="defs1"><linearGradient
       xlink:href="#a"
       id="b"
       x1=".148"
       x2=".845"
       y1=".851"
       y2=".154"
       gradientTransform="matrix(26.00048 0 0 25.99935 66.993 897.485)"
       gradientUnits="userSpaceOnUse" /></defs><linearGradient
     id="a"
     x1=".148"
     x2=".845"
     y1=".851"
     y2=".154"
     gradientTransform="matrix(26.301 0 0 26.331 90.674 911.757)"
     gradientUnits="userSpaceOnUse"><stop
       offset="0"
       stop-color="#004ba6"
       style="stop-color:#0071ff;stop-opacity:1"
       id="stop1" /><stop
       offset="1"
       stop-color="#00bfe1"
       style="stop-color:#00bfe1;stop-opacity:1"
       id="stop2" /></linearGradient><path
     fill="url(#a)"
     d="m89.318 903.552-2.135 2.122c-.376.337-.558.879-.347 1.337 1.422 2.976.882 6.524-1.452 8.856-2.335 2.331-5.887 2.87-8.866 1.449-.439-.197-.954-.03-1.292.312l-2.17 2.167a1.154 1.154 0 0 0 .208 1.81 13.005 13.005 0 0 0 15.91-1.912 12.97 12.97 0 0 0 1.956-15.887 1.154 1.154 0 0 0-1.812-.254zm-18.467-2.305a12.969 12.969 0 0 0-2.02 15.885 1.154 1.154 0 0 0 1.812.254l2.124-2.11c.385-.336.572-.884.359-1.348-1.423-2.976-.884-6.524 1.451-8.856 2.334-2.332 5.887-2.871 8.866-1.45.434.194.942.033 1.281-.3l2.182-2.18a1.152 1.152 0 0 0-.208-1.81 13.009 13.009 0 0 0-15.893 1.973z"
     style="fill:url(#b);stroke-width:.987988"
     id="path2" /><text
     xml:space="preserve"
     style="fill:#000000;stroke:#000000;fill-opacity:1"
     x="75.646004"
     y="913.8678"
     id="text2"><tspan
       sodipodi:role="line"
       id="tspan2"
       x="75.646004"
       y="913.8678">A</tspan></text></svg>
