<?xml version="1.0" encoding="UTF-8"?>
<svg xmlns="http://www.w3.org/2000/svg" xmlns:xlink="http://www.w3.org/1999/xlink" width="26px" height="26px" viewBox="0 0 26 26" version="1.1">
<g id="surface1">
<path style=" stroke:none;fill-rule:nonzero;fill:rgb(100%,99.607843%,99.607843%);fill-opacity:1;" d="M 16.035156 26.117188 C 10.691406 26.117188 5.382812 26.117188 0.078125 26.117188 C 0.078125 17.449219 0.078125 8.78125 0.078125 0.117188 C 8.746094 0.117188 17.410156 0.117188 26.078125 0.117188 C 26.078125 8.78125 26.078125 17.449219 26.078125 26.117188 C 22.742188 26.117188 19.410156 26.117188 16.035156 26.117188 M 25.15625 21.570312 C 25.148438 20.589844 25.0625 20.464844 24.386719 20.445312 C 22.925781 20.402344 21.496094 20.074219 20.136719 19.28125 C 18.007812 18.039062 16.421875 15.71875 14.902344 13.183594 C 15.734375 12.039062 16.539062 10.890625 17.375 9.796875 C 18.933594 7.757812 20.722656 6.492188 22.832031 6.34375 C 23.398438 6.300781 23.964844 6.195312 24.53125 6.117188 C 25.03125 6.046875 25.152344 5.859375 25.15625 5.15625 C 25.160156 4.328125 25.152344 3.5 25.15625 2.671875 C 25.164062 2.152344 24.988281 1.917969 24.648438 1.84375 C 23.285156 1.558594 21.96875 1.929688 20.675781 2.507812 C 17.929688 3.742188 15.699219 6.199219 13.6875 9.152344 C 13.480469 9.457031 13.269531 9.757812 13.007812 10.136719 C 12.917969 9.949219 12.863281 9.8125 12.792969 9.699219 C 11.5 7.625 10.027344 5.878906 8.394531 4.429688 C 6.367188 2.636719 4.164062 1.808594 1.816406 1.738281 C 1.246094 1.722656 0.972656 2.066406 0.96875 2.792969 C 0.96875 3.699219 0.976562 4.605469 1.019531 5.507812 C 1.03125 5.691406 1.199219 5.964844 1.328125 6.011719 C 1.601562 6.113281 1.894531 6.105469 2.175781 6.125 C 3.476562 6.210938 4.746094 6.542969 5.964844 7.226562 C 7.976562 8.359375 9.40625 10.648438 10.894531 12.8125 C 11.125 13.148438 11.066406 13.4375 10.851562 13.742188 C 10.15625 14.726562 9.488281 15.753906 8.777344 16.707031 C 7.617188 18.261719 6.28125 19.40625 4.742188 19.863281 C 3.707031 20.167969 2.640625 20.273438 1.585938 20.433594 C 1.0625 20.515625 1.003906 20.574219 1 21.378906 C 0.996094 22.035156 0.996094 22.6875 0.980469 23.34375 C 0.953125 24.519531 1.085938 24.8125 1.898438 24.78125 C 2.707031 24.753906 3.527344 24.65625 4.316406 24.414062 C 6.691406 23.675781 8.796875 22.089844 10.644531 19.761719 C 11.484375 18.707031 12.292969 17.605469 13.035156 16.632812 C 14.066406 17.933594 15.042969 19.289062 16.101562 20.476562 C 18.535156 23.199219 21.242188 24.855469 24.339844 24.820312 C 24.871094 24.816406 25.140625 24.433594 25.148438 23.644531 C 25.152344 22.992188 25.152344 22.335938 25.15625 21.570312 Z M 25.15625 21.570312 "/>
<path style=" stroke:none;fill-rule:nonzero;fill:rgb(61.960784%,1.176471%,38.431373%);fill-opacity:1;" d="M 25.15625 21.628906 C 25.152344 22.335938 25.152344 22.992188 25.148438 23.644531 C 25.140625 24.433594 24.871094 24.816406 24.339844 24.820312 C 21.242188 24.855469 18.535156 23.199219 16.101562 20.476562 C 15.042969 19.289062 14.066406 17.933594 13.035156 16.632812 C 12.292969 17.605469 11.484375 18.707031 10.644531 19.761719 C 8.796875 22.089844 6.691406 23.675781 4.316406 24.414062 C 3.527344 24.65625 2.707031 24.753906 1.898438 24.78125 C 1.085938 24.8125 0.953125 24.519531 0.980469 23.34375 C 0.996094 22.6875 0.996094 22.035156 1 21.378906 C 1.003906 20.574219 1.0625 20.515625 1.585938 20.433594 C 2.640625 20.273438 3.707031 20.167969 4.742188 19.863281 C 6.28125 19.40625 7.617188 18.261719 8.777344 16.707031 C 9.488281 15.753906 10.15625 14.726562 10.851562 13.742188 C 11.066406 13.4375 11.125 13.148438 10.894531 12.8125 C 9.40625 10.648438 7.976562 8.359375 5.964844 7.226562 C 4.746094 6.542969 3.476562 6.210938 2.175781 6.125 C 1.894531 6.105469 1.601562 6.113281 1.328125 6.011719 C 1.199219 5.964844 1.03125 5.691406 1.019531 5.507812 C 0.976562 4.605469 0.96875 3.699219 0.96875 2.792969 C 0.972656 2.066406 1.246094 1.722656 1.816406 1.738281 C 4.164062 1.808594 6.367188 2.636719 8.394531 4.429688 C 10.027344 5.878906 11.5 7.625 12.792969 9.699219 C 12.863281 9.8125 12.917969 9.949219 13.007812 10.136719 C 13.269531 9.757812 13.480469 9.457031 13.6875 9.152344 C 15.699219 6.199219 17.929688 3.742188 20.675781 2.507812 C 21.96875 1.929688 23.285156 1.558594 24.648438 1.84375 C 24.988281 1.917969 25.164062 2.152344 25.15625 2.671875 C 25.152344 3.5 25.160156 4.328125 25.15625 5.15625 C 25.152344 5.859375 25.03125 6.046875 24.53125 6.117188 C 23.964844 6.195312 23.398438 6.300781 22.832031 6.34375 C 20.722656 6.492188 18.933594 7.757812 17.375 9.796875 C 16.539062 10.890625 15.734375 12.039062 14.902344 13.183594 C 16.421875 15.71875 18.007812 18.039062 20.136719 19.28125 C 21.496094 20.074219 22.925781 20.402344 24.386719 20.445312 C 25.0625 20.464844 25.148438 20.589844 25.15625 21.628906 Z M 25.15625 21.628906 "/>
</g>
</svg>
