<?xml version="1.0" encoding="UTF-8"?>
<!DOCTYPE svg PUBLIC "-//W3C//DTD SVG 1.1//EN" "http://www.w3.org/Graphics/SVG/1.1/DTD/svg11.dtd">
<!-- Creator: CorelDRAW -->
<svg xmlns="http://www.w3.org/2000/svg" xml:space="preserve" width="8.4667mm" height="8.4667mm" version="1.1" style="shape-rendering:geometricPrecision; text-rendering:geometricPrecision; image-rendering:optimizeQuality; fill-rule:evenodd; clip-rule:evenodd"
viewBox="0 0 64.35 64.35"
 xmlns:xlink="http://www.w3.org/1999/xlink"
 xmlns:xodm="http://www.corel.com/coreldraw/odm/2003">
 <defs>
  <style type="text/css">
   <![CDATA[
    .fil0 {fill:#EA1D2C}
    .fil1 {fill:white}
   ]]>
  </style>
 </defs>
 <g id="Camada_x0020_1">
  <metadata id="CorelCorpID_0Corel-Layer"/>
  <g id="_1774463422144">
   <circle class="fil0" cx="32.18" cy="32.18" r="32.18"/>
   <path class="fil1" d="M13.96 33.1c-3.48,2.89 -7.29,-0.29 -4.99,-4.51 5.97,-5.94 11.96,-11.89 17.93,-17.83 11.56,-7.79 19.43,4.88 18.13,8.44 12.04,0.44 12.53,14.56 9.5,16.3 -6.55,6.68 -13.11,13.37 -19.66,20.04 -4.76,2.25 -5.51,-3.16 -4.41,-4.51 6.08,-6.11 12.14,-12.21 18.22,-18.31 3.05,-7.88 -5.16,-8.09 -6.43,-6.23 -5.94,5.94 -11.89,11.89 -17.83,17.83 -4.51,2.63 -5.58,-2.47 -5.28,-3.93 6.17,-6.23 12.34,-12.46 18.51,-18.7 3.33,-8.35 -5.19,-7.86 -6.33,-6.23 -5.79,5.88 -11.57,11.76 -17.36,17.65l-0 -0.01z"/>
  </g>
 </g>
</svg>
