<svg xmlns="http://www.w3.org/2000/svg" width="1000" height="286.643" xml:space="preserve" style="clip-rule:evenodd;fill-rule:evenodd;stroke-linejoin:round;stroke-miterlimit:1.41420996"><path style="opacity:1;fill:#e5e5e5;fill-opacity:1;fill-rule:evenodd;stroke:none;stroke-width:.14294769px;stroke-linecap:butt;stroke-linejoin:miter;stroke-miterlimit:4;stroke-dasharray:none;stroke-dashoffset:0;stroke-opacity:1;marker:none" d="M0 0h1000v286.643H0z"/><defs><path id="a" d="M412.805 154.221h247.052v49.653H412.805z"/></defs><g style="clip-rule:evenodd;fill-rule:evenodd;stroke-linejoin:round;stroke-miterlimit:1.41421"><g transform="translate(386.256 -179.167)" style="clip-rule:evenodd;fill-rule:evenodd;stroke-linejoin:round;stroke-miterlimit:1.41421"><rect ry="20.962" rx="20.962" style="fill:#0071ff;fill-opacity:1;stroke:none;stroke-width:11.005;stroke-linecap:round;stroke-linejoin:miter;stroke-miterlimit:4;stroke-dasharray:none;stroke-opacity:1" width="134.156" height="134.156" x="41.916" y="209.039"/><path style="fill:#fff;fill-opacity:1;stroke-width:.327529" d="M95.731 324.329c-10.397-2.22-19.281-8.028-26.157-17.102-6.978-9.21-9.959-19.803-9.202-32.704 2.38-22.185 17.053-38.19 35.663-43.077 1.613-.353 2.988-1.238 4.49-.473 1.151.587 2.156 1.599 2.577 2.595.447 1.057.672 7.705.355 10.493-.385 3.384-1.387 4.442-5.211 5.505-10.634 3.647-17.21 12.188-19.21 21.829-1.718 10.613 1.055 21.368 7.701 28.164 3.208 3.217 6.411 5.094 11.043 6.47 3.094.92 4.792 2.06 5.38 3.614.388 1.026.583 8.223.278 10.294-.475 3.236-.608 3.504-2.072 4.173-1.799.823-2.648.856-5.635.219zm18.14.103c-1.105-.501-2.029-1.728-2.407-3.198-.048-3.366-.846-9.214.365-11.939.672-1.477 1.663-2.146 4.448-3.004 7.608-2.343 13.449-7.112 16.745-13.67 3.974-7.91 4.249-19.742.647-27.896-3.275-7.413-9.195-12.599-17.37-15.216-3.175-1.017-4.295-1.812-4.64-3.295-.359-1.542-.514-7.108-.281-10.095.244-3.136.447-3.574 2.204-4.765 1.324-.896 1.961-.875 6.162.206 13.136 3.605 23.6 12.02 29.702 23.855 6.617 13.249 6.866 30.806.623 43.88-6.165 12.91-18.098 22.363-31.704 25.111-2.923.59-3.244.593-4.493.026z"/></g><text xml:space="preserve" style="font-style:normal;font-weight:400;font-size:40px;line-height:1.25;font-family:sans-serif;white-space:pre;shape-inside:url(#a);fill:#0071ff;fill-opacity:1;stroke:none" transform="translate(-36.237 28.713)"><tspan x="412.805" y="190.714"><tspan style="font-style:normal;font-variant:normal;font-weight:700;font-stretch:normal;font-family:sans-serif;-inkscape-font-specification:'sans-serif Bold';fill:#0071ff;fill-opacity:1">RUSTDESK</tspan></tspan></text><text xml:space="preserve" style="font-style:normal;font-weight:400;font-size:22.6667px;line-height:1.25;font-family:sans-serif;fill:#0071ff;fill-opacity:1;stroke:none" x="378.896" y="228.094" transform="translate(1.305 27.502)"><tspan x="378.896" y="228.094" style="font-size:22.6667px">Your remote desktop</tspan></text></g></svg>