<svg xmlns="http://www.w3.org/2000/svg" viewBox="0 0 16 16">
  <path d="M13.5 0h-11C1.119 0 0 1.119 0 2.5v11C0 14.881 1.119 16 2.5 16h11c1.381 0 2.5-1.119 2.5-2.5v-11C16 1.119 14.881 0 13.5 0ZM5.344 10.795c.383.384.765.608 1.317.772.369.11.571.246.642.431.046.122.07.981.033 1.228-.057.386-.073.418-.247.498-.215.098-.316.102-.672.026-1.24-.265-2.3-.957-3.12-2.04-.832-1.098-1.188-2.362-1.098-3.9.284-2.646 2.034-4.555 4.253-5.138.192-.042.356-.148.535-.056.137.07.257.191.307.309.053.126.08.919.042 1.251-.046.404-.165.53-.621.657-1.268.435-2.052 1.454-2.291 2.603-.205 1.266.126 2.548.919 3.359Zm7.555-.03c-.735 1.54-2.159 2.667-3.781 2.995-.349.07-.387.071-.536.003-.132-.061-.242-.207-.287-.382-.006-.401-.101-1.099.044-1.424.08-.176.198-.256.53-.358.907-.28 1.604-.848 1.997-1.63.474-.943.507-2.354.077-3.327-.391-.884-1.097-1.503-2.072-1.815-.379-.121-.512-.216-.553-.393-.043-.184-.061-.848-.033-1.204.029-.374.053-.426.263-.568.158-.107.234-.104.735.025 1.567.43 2.815 1.433 3.542 2.845.789 1.58.819 3.674.074 5.233Z" fill="#fff"/>
</svg>
