<svg xmlns="http://www.w3.org/2000/svg" xmlns:xlink="http://www.w3.org/1999/xlink" viewBox="66.993 897.484 113.652 26"><defs><linearGradient id="a" x1=".148" x2=".845" y1=".851" y2=".154" gradientTransform="matrix(26.301 0 0 26.331 90.674 911.757)" gradientUnits="userSpaceOnUse"><stop offset="0" stop-color="#004ba6" style="stop-color:#024eff;stop-opacity:1"/><stop offset="1" stop-color="#00bfe1" style="stop-color:#01aee6;stop-opacity:1"/></linearGradient><linearGradient xlink:href="#a" id="c" x1=".148" x2=".845" y1=".851" y2=".154" gradientTransform="matrix(26.00048 0 0 25.99935 66.993 897.485)" gradientUnits="userSpaceOnUse"/></defs><linearGradient id="b" x1=".148" x2=".845" y1=".851" y2=".154" gradientTransform="matrix(26.301 0 0 26.331 90.674 911.757)" gradientUnits="userSpaceOnUse"><stop offset="0" stop-color="#004ba6" style="stop-color:#0071ff;stop-opacity:1"/><stop offset="1" stop-color="#00bfe1" style="stop-color:#00bfe1;stop-opacity:1"/></linearGradient><path d="M105.147 906.839q1.024-.064 1.024.875 0 .469-.235.704-.234.234-.81.277l-.64.064q-1.344.128-2.006.939-.64.81-.64 1.962v4.886q0 .512-.298.768-.3.256-.768.256-.47 0-.79-.256-.298-.256-.298-.768v-8.683q0-.49.298-.747.32-.277.79-.277.426 0 .704.277.298.256.298.726v1.024q.427-.939 1.238-1.43.81-.49 1.834-.576zm10.411 0q.49 0 .768.277.298.278.298.768v8.683q0 .448-.298.725-.3.278-.79.278-.448 0-.725-.256-.277-.278-.277-.726v-.81q-.491.896-1.366 1.365-.853.47-1.92.47-3.797 0-3.797-4.182v-5.547q0-.49.277-.768.299-.277.81-.277.492 0 .769.277.299.278.299.768v5.526q0 1.258.512 1.856.512.597 1.578.597 1.259 0 2.006-.81.768-.811.768-2.155v-5.014q0-.469.298-.746.299-.299.79-.299zm7.701 10.773q-2.176 0-3.563-.896-.384-.234-.554-.49-.15-.256-.15-.576 0-.342.192-.576.192-.235.49-.235.278 0 .876.341.64.342 1.237.555.619.213 1.536.213 1.024 0 1.6-.362.576-.363.576-1.024 0-.427-.235-.683-.213-.256-.768-.448-.554-.213-1.642-.448-1.878-.405-2.71-1.088-.81-.704-.81-1.899 0-.917.533-1.642.533-.747 1.472-1.152.939-.406 2.133-.406.854 0 1.664.235.81.213 1.43.64.703.47.703 1.088 0 .341-.213.576-.192.235-.47.235-.191 0-.383-.086-.192-.085-.512-.277-.576-.341-1.088-.533-.49-.192-1.237-.192-.896 0-1.451.384-.533.384-.533 1.045 0 .597.49.939.512.32 1.899.618 1.43.299 2.24.683.81.384 1.152.96.363.555.363 1.43 0 1.386-1.174 2.24-1.152.831-3.093.831zm11.648-1.685q.47.043.661.256.213.192.213.555 0 .426-.34.66-.32.214-.96.172l-.577-.043q-1.728-.128-2.581-1.045-.854-.94-.854-2.752v-5.014h-1.28q-.938 0-.938-.832 0-.384.234-.597.256-.235.704-.235h1.28v-2.197q0-.49.278-.768.298-.277.79-.277.49 0 .788.277.3.277.3.768v2.197h2.111q.448 0 .683.235.256.213.256.597 0 .406-.256.619-.235.213-.683.213h-2.112v5.163q0 1.003.405 1.472.427.47 1.28.533zm10.943-13.611q.491 0 .79.278.299.277.299.746v13.184q0 .491-.299.768-.277.278-.768.278-.49 0-.79-.278-.277-.277-.277-.768v-.853q-.469.939-1.365 1.45-.896.491-2.07.491-1.343 0-2.41-.682-1.045-.683-1.643-1.92-.576-1.238-.576-2.838 0-1.621.576-2.837.598-1.216 1.643-1.877 1.045-.662 2.41-.662 1.174 0 2.049.512.896.491 1.365 1.408v-5.418q0-.448.277-.704.3-.278.79-.278zm-3.967 13.59q1.386 0 2.154-.96t.768-2.731q0-1.77-.768-2.73-.746-.96-2.154-.96t-2.198.96q-.768.938-.768 2.687 0 1.75.79 2.752.79.982 2.176.982zm16.213-1.067q.299 0 .49.235.193.234.193.597 0 .619-.768 1.045-.747.427-1.643.662-.875.234-1.685.234-2.475 0-3.904-1.429-1.43-1.45-1.43-3.947 0-1.6.619-2.837.64-1.237 1.77-1.92 1.153-.683 2.603-.683 2.091 0 3.307 1.344 1.216 1.344 1.216 3.627 0 .853-.768.853h-6.592q.213 3.307 3.179 3.307.789 0 1.365-.213.576-.214 1.216-.555.064-.043.341-.17.299-.15.491-.15zm-3.712-6.464q-1.237 0-1.984.79-.747.789-.896 2.218h5.504q-.064-1.45-.747-2.219-.661-.789-1.877-.789zm10.475 9.237q-2.176 0-3.563-.896-.384-.234-.555-.49-.149-.256-.149-.576 0-.342.192-.576.192-.235.49-.235.278 0 .875.341.64.342 1.238.555.618.213 1.536.213 1.024 0 1.6-.362.576-.363.576-1.024 0-.427-.235-.683-.213-.256-.768-.448-.555-.213-1.643-.448-1.877-.405-2.709-1.088-.81-.704-.81-1.899 0-.917.533-1.642.533-.747 1.472-1.152.938-.406 2.133-.406.853 0 1.664.235.81.213 1.43.64.703.47.703 1.088 0 .341-.213.576-.192.235-.47.235-.191 0-.383-.086-.192-.085-.512-.277-.576-.341-1.088-.533-.491-.192-1.238-.192-.896 0-1.45.384-.534.384-.534 1.045 0 .597.491.939.512.32 1.899.618 1.429.299 2.24.683.81.384 1.152.96.362.555.362 1.43 0 1.386-1.173 2.24-1.152.831-3.093.831zm15.402-1.834q.384.32.384.789 0 .405-.277.704-.277.299-.661.299-.406 0-.726-.3l-5.312-4.692v3.946q0 .512-.298.79-.299.256-.768.256-.47 0-.79-.256-.298-.278-.298-.79v-13.162q0-.512.298-.768.32-.278.79-.278.469 0 .768.278.298.256.298.768v8.362l4.864-4.544q.363-.32.704-.32.406 0 .704.299.299.299.299.704 0 .405-.363.747l-3.797 3.477z"/><path fill="url(#b)" d="m89.318 903.552-2.135 2.122c-.376.337-.558.879-.347 1.337 1.422 2.976.882 6.524-1.452 8.856-2.335 2.331-5.887 2.87-8.866 1.449-.439-.197-.954-.03-1.292.312l-2.17 2.167a1.154 1.154 0 0 0 .208 1.81 13.005 13.005 0 0 0 15.91-1.912 12.97 12.97 0 0 0 1.956-15.887 1.154 1.154 0 0 0-1.812-.254zm-18.467-2.305a12.969 12.969 0 0 0-2.02 15.885 1.154 1.154 0 0 0 1.812.254l2.124-2.11c.385-.336.572-.884.359-1.348-1.423-2.976-.884-6.524 1.451-8.856 2.334-2.332 5.887-2.871 8.866-1.45.434.194.942.033 1.281-.3l2.182-2.18a1.152 1.152 0 0 0-.208-1.81 13.009 13.009 0 0 0-15.893 1.973z" style="fill:url(#c);stroke-width:.987988"/></svg>