<?xml version="1.0" encoding="UTF-8"?>
<svg id="Layer_1" xmlns="http://www.w3.org/2000/svg" xmlns:xlink="http://www.w3.org/1999/xlink" version="1.1" viewBox="0 0 113.7 26">
  <!-- Generator: Adobe Illustrator 29.1.0, SVG Export Plug-In . SVG Version: 2.1.0 Build 142)  -->
  <defs>
    <style>
      .st0 {
        fill: none;
      }

      .st1 {
        isolation: isolate;
        opacity: .6;
      }

      .st2 {
        fill: #050d24;
      }

      .st3 {
        clip-path: url(#clippath);
      }
    </style>
    <clipPath id="clippath">
      <rect class="st0" y="13.1" width="11.6" height="10.8"/>
    </clipPath>
  </defs>
  <g class="st1">
    <g class="st3">
      <path class="st2" d="M10.8,19.3c-.9,0-1.7-.2-2.5-.5s-1.4-.8-2-1.4-1-1.2-1.4-2c-.3-.6-.4-1.3-.5-2v-.4H0v.5c0,1.3.4,2.5.8,3.6.6,1.3,1.3,2.5,2.3,3.5s2.1,1.8,3.5,2.3,2.7.9,4.2.9h.7v-4.5s-.7,0-.7,0Z"/>
    </g>
  </g>
  <path class="st2" d="M40.6,3c-1.4-.7-2.9-1-4.5-1s-2.9.3-4.3.9c-1.3.6-2.5,1.4-3.5,2.4s-1.8,2.2-2.3,3.5c-.6,1.3-.9,2.7-.9,4.2s0,.3,0,.4v.6h0c0,1.2.4,2.3.8,3.3.6,1.3,1.4,2.5,2.3,3.5,1,1,2.1,1.8,3.5,2.3,1.3.6,2.8.9,4.3.9h.7v-4.5h-.7c-.9,0-1.8-.2-2.5-.5-.8-.3-1.5-.8-2.1-1.4s-1-1.3-1.4-2.1c-.3-.6-.4-1.3-.5-2h0v-.5c0-.9.2-1.7.5-2.5s.8-1.5,1.4-2.1c.6-.6,1.3-1.1,2.1-1.4,1.6-.7,3.6-.7,5.1,0,.8.4,1.6.9,2.2,1.6l.5.5,3.3-3-.5-.5c-1-1.1-2.2-2-3.6-2.6"/>
  <polygon class="st2" points="47.8 13.1 47.8 14 47.8 24 52.3 24 52.3 14 52.3 13.1 52.3 2.2 47.8 2.2 47.8 13.1"/>
  <path class="st2" d="M76.7,8.8c-.6-1.3-1.4-2.5-2.4-3.5s-2.2-1.8-3.5-2.4c-1.3-.6-2.7-.9-4.3-.9s-2.9.3-4.2.9c-1.3.6-2.5,1.4-3.5,2.4s-1.8,2.2-2.3,3.5c-.6,1.3-.9,2.7-.9,4.3v.7h4.5v-.7c0-.9.2-1.7.5-2.5s.8-1.5,1.4-2c.6-.6,1.3-1.1,2.1-1.4,1.6-.7,3.5-.7,5,0,.8.3,1.5.8,2.1,1.4s1,1.3,1.4,2.1c.3.8.5,1.6.5,2.5h0v10.9h4.5v-10.8h0c0-1.6-.3-3-.9-4.3"/>
  <path class="st2" d="M90.6,17.4c-.2-.4-.5-.6-.8-.7-.2,0-.4-.1-.7-.1-.7,0-1.2.3-1.6.8s-.6,1.2-.6,1.9.2,1.4.6,1.9.9.7,1.6.7.8-.1,1-.3c0-.1.3-.3.4-.5v.3c0,.5,0,.8-.2,1-.2.3-.5.5-1,.5s-.6,0-.7-.2c0,0,0-.2-.2-.3h-1.5c0,.5.3.9.7,1.2.4.3.9.4,1.6.4,1.1,0,1.8-.3,2.2-.9.2-.3.3-.8.3-1.5v-4.9h-1.3v.7h.2ZM90.3,20.4c-.2.2-.5.4-.8.4-.5,0-.8-.2-1-.6,0-.2-.2-.5-.2-.8s0-.6,0-.9c.2-.4.5-.7,1-.7s.6.1.8.4c.2.3.3.6.3,1.1s0,.9-.3,1.1"/>
  <path class="st2" d="M96,16.6c-.4,0-.7.1-1,.3-.2.1-.3.4-.5.7v-.9h-1.3v5.1h1.4v-2.5c0-.4,0-.7.2-.9.2-.4.5-.5,1.1-.5s0,0,.2,0h.2v-1.4h0"/>
  <path class="st2" d="M99.2,16.5c-.9,0-1.5.3-2,.8-.4.5-.6,1.2-.6,1.9s.2,1.4.6,1.9,1.1.8,2,.8,1.5-.3,2-.8c.4-.5.6-1.2.6-1.9s-.2-1.4-.6-1.9-1.1-.8-2-.8M100.1,20.4c-.2.3-.5.4-.9.4s-.7-.1-.9-.4c-.2-.3-.3-.7-.3-1.2s0-.9.3-1.2c.2-.3.5-.4.9-.4s.7.1.9.4c.2.3.3.7.3,1.2s0,.9-.3,1.2"/>
  <path class="st2" d="M106,19.5c0,.3,0,.6,0,.8-.2.4-.5.6-.9.6s-.6-.1-.7-.4c0-.1,0-.4,0-.7v-3.1h-1.4v3.1c0,.6,0,1,.2,1.3.3.5.8.8,1.5.8s.5,0,.7-.1c.2,0,.4-.2.6-.4l.2-.2h0c0-.1,0,.6,0,.6h1.3v-5.1h-1.4v2.8h.1Z"/>
  <path class="st2" d="M111.5,16.6c-.4,0-.8.1-1.1.3-.2.1-.3.3-.5.5v-.8h-1.3v7.1h1.3v-2.7c0,.2.3.4.4.5.3.2.6.3,1,.3.6,0,1.2-.2,1.6-.7s.6-1.2.6-2.1-.2-1.5-.6-1.9-.9-.7-1.5-.7M112,20.4c-.2.3-.5.4-.9.4s-.5,0-.7-.2c-.3-.2-.5-.7-.5-1.3s0-.7,0-.9c.2-.5.5-.7,1-.7s.7.2.9.5c.2.3.3.7.3,1,0,.5,0,.9-.3,1.2"/>
  <path class="st2" d="M20.8,8.7c-.6-1.3-1.3-2.5-2.3-3.4-1-1-2.1-1.7-3.4-2.3-2.6-1.1-5.8-1.1-8.4,0-1.3.6-2.5,1.3-3.5,2.3s-1.8,2.1-2.3,3.4c-.6,1.4-.9,2.8-.9,4.3s0,.3,0,.4v.4h4.5v-.7c0-.9.2-1.7.5-2.5s.8-1.5,1.4-2c.6-.6,1.2-1,2-1.3,1.5-.6,3.4-.6,4.9,0,.8.3,1.5.8,2,1.3s1,1.3,1.4,2c.3.8.5,1.6.5,2.5h0v10.8h4.5v-10.8h0c0-1.6-.3-3-.9-4.3"/>
</svg>