<svg version="1.1" id="Layer_1" xmlns="http://www.w3.org/2000/svg" xmlns:xlink="http://www.w3.org/1999/xlink" x="0px" y="0px"
	 width="100%" viewBox="0 0 487 488" enable-background="new 0 0 487 488" xml:space="preserve">
<path fill="#80B1E0" opacity="1.000000" stroke="none" 
	d="
M268.000000,489.000000 
	C252.979111,489.000000 237.958206,489.000000 222.809174,488.659546 
	C221.839676,487.882568 221.036240,487.178955 220.150803,487.053345 
	C214.822571,486.297699 209.468628,485.725403 204.136063,484.998108 
	C182.787354,482.086243 162.534912,475.388641 143.051727,466.467926 
	C110.132507,451.395294 82.164215,429.756500 58.596470,402.228088 
	C46.674198,388.302216 36.456917,373.263092 28.134182,357.062866 
	C14.866100,331.236572 5.849663,303.962524 2.916034,274.883331 
	C2.846901,274.198090 1.663609,273.625275 0.999999,273.000000 
	C1.000000,254.645767 1.000000,236.291550 1.335372,217.809280 
	C2.100857,217.008286 2.794143,216.381439 2.921366,215.655411 
	C4.660682,205.729462 5.785909,195.662659 8.107635,185.878586 
	C13.911532,161.420135 23.462433,138.398575 37.059578,117.232994 
	C43.725624,106.856506 50.811253,96.658813 58.637981,87.146202 
	C65.409576,78.915993 73.496635,71.768112 81.467873,64.088745 
	C86.262260,64.011314 90.605644,63.749874 94.916420,64.016220 
	C101.995361,64.453598 107.771843,62.749863 111.447044,56.071224 
	C113.970627,51.485336 117.503281,47.521950 116.952187,41.565781 
	C116.757812,39.465115 118.966286,37.142117 120.415192,34.834366 
	C129.557205,30.164896 138.361710,25.581682 147.574890,20.979742 
	C149.470413,21.261633 151.272141,21.132977 152.382156,21.947250 
	C155.172241,23.993958 157.559067,26.581194 160.278427,28.736082 
	C162.965958,30.865751 164.215652,33.244347 161.487183,35.929375 
	C159.170135,38.209541 155.669464,39.519619 153.914368,42.092438 
	C149.502838,48.559341 142.191071,49.141941 135.659393,51.816341 
	C131.519562,51.720486 127.735359,51.844135 123.631210,52.188301 
	C123.239204,56.288982 123.167168,60.169140 122.956749,64.370445 
	C0.574732,150.397446 5.197197,306.654602 82.143143,388.122589 
	C86.086723,363.101501 95.079620,340.520203 108.407990,320.980316 
	C123.028725,327.217072 136.882523,333.064240 150.645966,339.116791 
	C151.741302,339.598480 152.812408,341.490082 152.835968,342.746307 
	C152.874252,344.787506 152.068939,346.853088 151.563690,348.894531 
	C146.910889,367.694489 144.734055,386.821259 144.011627,406.138000 
	C143.927628,408.383759 144.000229,410.635345 144.000229,413.202209 
	C131.684097,413.202209 120.119507,413.202209 108.802887,413.202209 
	C117.140358,427.160126 131.104523,423.581848 144.053070,424.054993 
	C144.053070,428.656677 142.693420,433.543091 144.445938,436.703949 
	C146.107376,439.700470 151.030075,440.888824 155.359619,443.350586 
	C154.876617,436.226044 154.478348,430.351471 154.063828,424.237000 
	C182.413361,424.237000 210.482681,424.237000 239.027985,424.237000 
	C239.027985,436.831970 239.027985,449.233734 239.027985,461.714020 
	C242.903519,461.714020 246.297180,461.714020 250.160187,461.714020 
	C250.160187,449.035339 250.160187,436.634766 250.160187,424.346436 
	C278.698639,424.346436 306.757446,424.346436 335.270172,424.346436 
	C334.909790,430.655609 334.570374,436.597504 334.224152,442.658264 
	C335.744110,442.158539 336.982697,441.757843 338.216980,441.344269 
	C342.969269,439.751892 346.073975,437.267242 345.138885,431.420654 
	C344.762848,429.069580 345.934753,426.470978 346.458466,423.685486 
	C359.712799,424.813202 372.570038,425.600281 381.110687,413.036987 
	C369.774811,413.036987 358.184937,413.036987 346.000092,413.036987 
	C345.320160,404.670776 345.044189,396.506165 343.918976,388.460297 
	C341.823730,373.478241 339.520142,358.509918 336.644562,343.663483 
	C335.945221,340.052887 336.908966,339.720337 339.597931,338.645630 
	C348.613129,335.042419 357.524170,331.164856 366.377106,327.174927 
	C371.176453,325.011841 375.777191,322.408112 380.406769,320.034332 
	C394.598450,341.073395 403.677887,363.790558 407.384583,389.275513 
	C410.767609,385.091248 413.664246,381.572266 416.492828,377.999390 
	C430.301605,360.556976 440.986176,341.287811 448.681458,320.495300 
	C455.232666,302.794128 460.388550,284.587280 460.926056,265.548065 
	C461.368439,249.877548 462.074219,234.087463 460.688873,218.526154 
	C459.138580,201.111542 454.349792,184.205505 448.113220,167.715424 
	C437.703735,140.191605 422.048798,116.026878 402.005981,94.756897 
	C393.911194,86.166496 384.739594,78.480904 375.451569,71.152138 
	C363.465363,61.694363 350.504242,53.634281 336.000793,47.756691 
	C335.092346,46.766575 334.362122,46.041679 333.734375,44.830017 
	C333.890656,37.534645 333.811371,30.720533 334.092621,23.921335 
	C334.162140,22.240757 335.402893,20.608624 336.480621,18.982727 
	C346.887299,23.964817 356.918579,28.918398 367.208374,34.030991 
	C368.017731,34.773911 368.568604,35.357819 369.069855,36.412441 
	C368.994965,44.436108 368.953827,51.989059 368.954407,59.542011 
	C368.954590,61.694397 368.749298,64.092094 372.537689,63.827232 
	C374.943939,63.844009 376.928650,63.798859 379.321106,63.771961 
	C380.513306,62.452221 381.899445,61.147320 381.975189,59.770351 
	C382.261414,54.566986 382.122162,49.340214 382.423798,44.151505 
	C383.075745,44.253929 383.446045,44.327061 384.032837,44.627945 
	C385.801270,45.914619 387.353180,46.973541 388.997009,48.317696 
	C389.028168,49.943050 388.748627,51.319721 388.964783,52.613567 
	C389.207306,54.065029 389.518616,56.296051 390.455414,56.712086 
	C396.537109,59.413033 402.797241,61.712090 409.119965,64.448746 
	C415.966522,71.811203 422.777069,78.788963 429.399017,85.941315 
	C441.389954,98.892677 451.132782,113.501457 459.390533,128.999817 
	C473.271851,155.052795 482.777863,182.611603 486.082977,212.121613 
	C486.160156,212.810654 487.336395,213.376617 488.000000,214.000000 
	C488.000000,234.354233 488.000000,254.708450 487.670197,275.190491 
	C486.235809,280.327515 484.952057,285.304901 484.056458,290.351166 
	C479.167053,317.901093 469.099182,343.427887 455.166046,367.658783 
	C438.920258,395.911621 417.735779,419.780151 391.922760,439.343719 
	C369.992828,455.964325 345.820984,468.821686 319.390839,476.960144 
	C303.399353,481.884277 287.195892,485.980560 270.384705,487.082733 
	C269.551483,487.137390 268.793182,488.334747 268.000000,489.000000 
z"/>
<path fill="#000000" opacity="1.000000" stroke="none" 
	d="
M0.999999,273.468658 
	C1.663609,273.625275 2.846901,274.198090 2.916034,274.883331 
	C5.849663,303.962524 14.866100,331.236572 28.134182,357.062866 
	C36.456917,373.263092 46.674198,388.302216 58.596470,402.228088 
	C82.164215,429.756500 110.132507,451.395294 143.051727,466.467926 
	C162.534912,475.388641 182.787354,482.086243 204.136063,484.998108 
	C209.468628,485.725403 214.822571,486.297699 220.150803,487.053345 
	C221.036240,487.178955 221.839676,487.882568 222.340515,488.659546 
	C148.407135,489.000000 74.814278,489.000000 1.000000,489.000000 
	C1.000000,417.312592 1.000000,345.624939 0.999999,273.468658 
z"/>
<path fill="#000000" opacity="1.000000" stroke="none" 
	d="
M268.468658,489.000000 
	C268.793182,488.334747 269.551483,487.137390 270.384705,487.082733 
	C287.195892,485.980560 303.399353,481.884277 319.390839,476.960144 
	C345.820984,468.821686 369.992828,455.964325 391.922760,439.343719 
	C417.735779,419.780151 438.920258,395.911621 455.166046,367.658783 
	C469.099182,343.427887 479.167053,317.901093 484.056458,290.351166 
	C484.952057,285.304901 486.235809,280.327515 487.670197,275.659180 
	C488.000000,346.928223 488.000000,417.856415 488.000000,489.000000 
	C414.979248,489.000000 341.958282,489.000000 268.468658,489.000000 
z"/>
<path fill="#000000" opacity="1.000000" stroke="none" 
	d="
M81.002220,64.141815 
	C73.496635,71.768112 65.409576,78.915993 58.637981,87.146202 
	C50.811253,96.658813 43.725624,106.856506 37.059578,117.232994 
	C23.462433,138.398575 13.911532,161.420135 8.107635,185.878586 
	C5.785909,195.662659 4.660682,205.729462 2.921366,215.655411 
	C2.794143,216.381439 2.100857,217.008286 1.335372,217.340622 
	C1.000000,145.111832 1.000000,73.223648 1.000000,1.000000 
	C22.686407,1.000000 44.374546,1.000000 66.545166,1.425477 
	C65.371895,2.563923 63.635899,3.135918 62.078732,4.022127 
	C59.596870,5.434595 56.981323,6.788598 54.940369,8.715923 
	C54.076157,9.532020 53.797985,12.347900 54.512146,13.200336 
	C56.747810,15.868857 59.406116,18.293583 62.279232,20.259501 
	C63.321342,20.972561 65.550797,20.453341 67.030197,19.919333 
	C70.083870,18.817070 72.917702,16.459019 75.985435,16.176765 
	C82.419518,15.584784 88.946945,15.947629 95.434906,16.020153 
	C100.405334,16.075716 102.201508,18.357134 101.518486,24.011028 
	C90.790504,24.011028 80.001892,24.006460 69.213272,24.012880 
	C63.485435,24.016289 54.288471,30.498844 54.267025,35.914642 
	C54.234184,44.209141 51.001099,53.524731 59.024288,60.234661 
	C61.015453,61.899910 63.587074,63.527508 66.055290,63.827351 
	C70.977684,64.425339 76.013344,64.091042 81.002220,64.141815 
z"/>
<path fill="#000000" opacity="1.000000" stroke="none" 
	d="
M488.000000,213.531342 
	C487.336395,213.376617 486.160156,212.810654 486.082977,212.121613 
	C482.777863,182.611603 473.271851,155.052795 459.390533,128.999817 
	C451.132782,113.501457 441.389954,98.892677 429.399017,85.941315 
	C422.777069,78.788963 415.966522,71.811203 409.586334,64.389511 
	C417.917725,64.012169 425.903748,63.999260 433.889771,63.988125 
	C443.762878,63.974361 449.987335,57.758194 449.991882,47.904190 
	C449.993011,45.408520 449.990143,42.912853 449.989838,40.417183 
	C449.989136,34.795788 444.055603,26.922432 438.546509,26.131424 
	C431.369904,25.100992 424.103363,24.698418 416.876556,24.014771 
	C415.412170,23.876242 412.834381,24.020386 412.671661,23.470917 
	C411.604279,19.867386 408.797180,21.269255 406.596985,20.919645 
	C406.137543,20.846645 405.707977,20.585634 404.964478,20.293203 
	C405.118469,18.914598 405.271210,17.546976 405.444855,15.992643 
	C414.505981,15.992643 423.145142,15.977017 431.784088,16.014479 
	C432.751099,16.018671 433.959778,16.008966 434.645691,16.538082 
	C441.802948,22.059109 441.328979,21.505114 447.723541,16.571676 
	C451.697784,13.505539 449.784210,10.275152 449.545074,7.434723 
	C449.434784,6.124397 445.486084,4.627450 443.095001,4.169540 
	C440.924042,3.753795 439.613953,3.484035 440.000000,1.000000 
	C455.973145,1.000000 471.946289,1.000000 488.000000,1.000000 
	C488.000000,71.687538 488.000000,142.375107 488.000000,213.531342 
z"/>
<path fill="#A4036B" opacity="1.000000" stroke="none" 
	d="
M136.015030,52.035851 
	C142.191071,49.141941 149.502838,48.559341 153.914368,42.092438 
	C155.669464,39.519619 159.170135,38.209541 161.487183,35.929375 
	C164.215652,33.244347 162.965958,30.865751 160.278427,28.736082 
	C157.559067,26.581194 155.172241,23.993958 152.382156,21.947250 
	C151.272141,21.132977 149.470413,21.261633 147.471863,20.578480 
	C141.702484,19.085308 137.348343,14.701205 131.414825,15.960855 
	C130.310303,16.195341 129.110992,15.990039 127.955566,15.977124 
	C121.870117,15.909102 118.535614,10.762629 120.883949,5.189857 
	C121.439819,3.870713 121.637535,2.400644 122.000000,1.000000 
	C129.687576,1.000000 137.375168,1.000000 145.543549,1.388057 
	C146.958832,2.511897 147.820328,3.375224 148.841537,3.959330 
	C151.789230,5.645319 154.889359,7.078278 157.761505,8.878787 
	C160.274628,10.454234 162.559875,12.393200 164.823273,14.450645 
	C165.348358,15.876019 165.787842,17.226025 166.677704,18.135187 
	C171.990891,23.563534 173.502319,23.568521 179.232727,18.739590 
	C182.601044,15.901150 186.157852,13.279413 189.436203,10.343894 
	C191.338013,8.640980 191.122452,7.193366 188.304398,6.722111 
	C191.925766,5.535858 195.451248,4.831017 198.870270,3.779884 
	C199.474609,3.594089 199.634750,1.963433 200.000000,1.000001 
	C208.354233,1.000000 216.708466,1.000000 225.410339,1.318145 
	C224.877792,1.801233 223.997635,1.966177 222.705109,2.121100 
	C221.525345,3.090883 220.316864,3.978541 220.088638,5.070987 
	C219.696167,6.949680 219.914749,8.956028 219.435791,10.922064 
	C216.033966,12.078408 211.520157,8.527157 209.571472,13.987476 
	C204.954926,15.165764 200.081467,15.312554 196.663101,17.617424 
	C191.476486,21.114563 187.209900,26.020041 182.726776,30.501600 
	C179.623657,33.603626 180.576035,35.345329 185.166626,35.635513 
	C188.493591,37.754459 191.961365,39.219524 194.476410,41.664597 
	C200.200012,47.228954 206.994293,49.118027 214.648254,49.030243 
	C216.479401,49.009243 218.352554,48.828213 220.134430,49.136585 
	C223.700104,49.753658 226.831284,51.143871 225.923874,55.664181 
	C225.351059,58.517807 224.305817,61.276600 223.503937,63.972176 
	C215.828644,63.972176 208.733017,64.694931 201.877151,63.724224 
	C197.114868,63.049953 192.438141,60.461861 188.178070,57.955597 
	C184.630722,55.868641 183.114975,51.019886 178.242279,50.271217 
	C177.083725,50.093212 175.996979,48.670650 175.115814,47.620350 
	C173.049683,45.157589 171.770889,44.817772 169.713821,48.010143 
	C168.137466,50.456482 165.337799,52.253067 162.801361,53.908253 
	C159.389481,56.134712 155.745285,58.019432 152.129059,59.913841 
	C149.353638,61.367790 146.544754,63.509712 143.614349,63.762154 
	C137.172714,64.317062 130.644699,63.869202 124.340851,63.485367 
	C124.753296,60.136219 124.976845,57.132381 125.641144,54.115952 
	C129.392929,53.414188 132.703979,52.725018 136.015030,52.035851 
z"/>
<path fill="#0160BB" opacity="1.000000" stroke="none" 
	d="
M81.467873,64.088745 
	C76.013344,64.091042 70.977684,64.425339 66.055290,63.827351 
	C63.587074,63.527508 61.015453,61.899910 59.024288,60.234661 
	C51.001099,53.524731 54.234184,44.209141 54.267025,35.914642 
	C54.288471,30.498844 63.485435,24.016289 69.213272,24.012880 
	C80.001892,24.006460 90.790504,24.011028 101.518486,24.011028 
	C102.201508,18.357134 100.405334,16.075716 95.434906,16.020153 
	C88.946945,15.947629 82.419518,15.584784 75.985435,16.176765 
	C72.917702,16.459019 70.083870,18.817070 67.030197,19.919333 
	C65.550797,20.453341 63.321342,20.972561 62.279232,20.259501 
	C59.406116,18.293583 56.747810,15.868857 54.512146,13.200336 
	C53.797985,12.347900 54.076157,9.532020 54.940369,8.715923 
	C56.981323,6.788598 59.596870,5.434595 62.078732,4.022127 
	C63.635899,3.135918 65.371895,2.563923 67.013824,1.425477 
	C79.020897,1.000000 91.041786,1.000000 103.534836,1.404490 
	C104.641418,2.535734 105.169571,3.407548 105.928871,3.963860 
	C109.039490,6.242883 112.313545,8.306506 115.351288,10.675314 
	C118.838692,13.394756 120.661209,16.774836 120.113998,21.562220 
	C119.611450,25.958963 120.052414,30.463552 120.077682,34.920628 
	C118.966286,37.142117 116.757812,39.465115 116.952187,41.565781 
	C117.503281,47.521950 113.970627,51.485336 111.447044,56.071224 
	C107.771843,62.749863 101.995361,64.453598 94.916420,64.016220 
	C90.605644,63.749874 86.262260,64.011314 81.467873,64.088745 
M101.972649,45.961395 
	C101.944122,40.577393 100.508865,39.049141 95.187500,39.003723 
	C88.546440,38.947041 81.904541,38.990204 75.263000,38.988113 
	C67.194908,38.985580 65.863792,40.684158 67.820084,49.197906 
	C70.819809,49.197906 73.950195,49.197906 77.365028,49.908573 
	C81.354935,50.265728 85.341881,50.819370 89.336273,50.879757 
	C90.855171,50.902718 92.391205,49.791962 94.655441,49.136539 
	C95.391724,49.172836 96.127998,49.209133 96.909439,49.887276 
	C96.377548,51.127747 95.845657,52.368214 95.306244,53.626221 
	C99.963104,54.872932 102.554916,52.604034 104.038483,48.701706 
	C104.165443,48.367767 102.734299,47.441479 101.972649,45.961395 
z"/>
<path fill="#0060BB" opacity="1.000000" stroke="none" 
	d="
M439.531342,1.000000 
	C439.613953,3.484035 440.924042,3.753795 443.095001,4.169540 
	C445.486084,4.627450 449.434784,6.124397 449.545074,7.434723 
	C449.784210,10.275152 451.697784,13.505539 447.723541,16.571676 
	C441.328979,21.505114 441.802948,22.059109 434.645691,16.538082 
	C433.959778,16.008966 432.751099,16.018671 431.784088,16.014479 
	C423.145142,15.977017 414.505981,15.992643 405.444855,15.992643 
	C405.271210,17.546976 405.118469,18.914598 404.964478,20.293203 
	C405.707977,20.585634 406.137543,20.846645 406.596985,20.919645 
	C408.797180,21.269255 411.604279,19.867386 412.671661,23.470917 
	C412.834381,24.020386 415.412170,23.876242 416.876556,24.014771 
	C424.103363,24.698418 431.369904,25.100992 438.546509,26.131424 
	C444.055603,26.922432 449.989136,34.795788 449.989838,40.417183 
	C449.990143,42.912853 449.993011,45.408520 449.991882,47.904190 
	C449.987335,57.758194 443.762878,63.974361 433.889771,63.988125 
	C425.903748,63.999260 417.917725,64.012169 409.465332,64.083527 
	C402.797241,61.712090 396.537109,59.413033 390.455414,56.712086 
	C389.518616,56.296051 389.207306,54.065029 388.964783,52.613567 
	C388.748627,51.319721 389.028168,49.943050 389.084717,47.948261 
	C391.870239,44.822849 394.408264,42.620739 398.437164,45.809883 
	C400.600250,47.522133 403.747284,48.716114 406.502045,48.823997 
	C415.811951,49.188595 425.145020,48.962959 434.667938,48.962959 
	C434.667938,46.118130 434.667938,43.745289 434.667938,41.776234 
	C428.406738,40.808147 422.532654,39.969055 416.684784,38.975571 
	C411.241638,38.050846 405.266174,41.305450 400.283997,36.136028 
	C397.000000,32.728588 392.501251,30.515474 389.060944,27.229000 
	C384.935730,23.288265 387.441284,17.874952 387.220459,13.159103 
	C387.154419,11.749169 389.781006,10.017145 391.429077,8.769762 
	C393.785706,6.986144 396.460175,5.622551 398.817108,3.839298 
	C399.523285,3.305030 399.622650,1.968817 400.000000,1.000001 
	C413.020905,1.000000 426.041779,1.000000 439.531342,1.000000 
z"/>
<path fill="#0261BC" opacity="1.000000" stroke="none" 
	d="
M263.000000,0.999999 
	C275.354218,1.000000 287.708466,1.000000 300.530914,1.404168 
	C301.160706,2.406713 301.299011,3.519562 301.487244,3.528074 
	C305.961731,3.730395 308.445038,6.854924 310.769470,9.981318 
	C310.735657,12.031750 310.950287,13.964107 311.105896,16.370066 
	C311.028595,22.280638 310.781311,27.732208 311.126526,33.146004 
	C311.235229,34.850166 312.933472,36.452969 314.092957,38.335602 
	C314.842834,38.768326 315.403992,38.967606 315.957642,39.606884 
	C316.020599,45.628483 313.913971,50.235390 311.584290,55.381828 
	C308.310364,62.614338 303.812683,64.026436 297.274902,64.000832 
	C287.315948,63.961830 277.356598,64.017815 267.397675,63.975399 
	C262.704956,63.955414 259.052216,63.585297 254.765579,59.517319 
	C247.760712,52.869755 247.796280,45.614792 248.041229,37.577583 
	C248.055084,37.123192 248.252213,36.594318 248.538071,36.240852 
	C250.998245,33.198868 253.498474,30.189289 256.353241,27.135324 
	C260.791260,26.698143 264.858337,26.015087 268.935242,25.950253 
	C278.082642,25.804785 287.234955,25.954016 296.385162,26.007929 
	C301.603119,26.038675 302.521820,24.639002 301.382996,19.796717 
	C300.181061,14.685985 295.892731,13.828733 291.712341,11.955542 
	C285.522308,11.905001 279.717529,12.038981 273.546814,12.168232 
	C269.395355,13.632083 265.640930,15.188423 261.815918,16.545654 
	C257.617645,18.035318 255.263443,15.113141 254.303543,12.045853 
	C253.195847,8.506236 256.159973,6.927013 259.266754,6.037279 
	C262.078186,5.232121 264.846344,4.275819 268.370392,3.150966 
	C265.922760,2.170626 264.461365,1.585312 263.000000,0.999999 
M273.367157,49.908581 
	C278.344788,50.253559 283.319336,50.688171 288.302948,50.857197 
	C289.155273,50.886108 290.046021,49.780479 291.825134,49.135159 
	C294.086914,49.135159 296.348663,49.135159 298.500977,49.135159 
	C299.637909,40.299824 298.486115,38.997303 290.289917,38.992676 
	C283.996735,38.989120 277.703522,38.982430 271.410339,38.985645 
	C263.232300,38.989826 262.041687,40.458717 263.646942,49.198986 
	C266.725677,49.198986 269.903290,49.198986 273.367157,49.908581 
z"/>
<path fill="#0060BB" opacity="1.000000" stroke="none" 
	d="
M383.816315,44.400188 
	C383.446045,44.327061 383.075745,44.253929 382.152374,43.985062 
	C378.803192,41.960716 379.027924,44.105980 379.012695,45.796219 
	C378.958801,51.781860 378.943390,57.767849 378.913361,63.753708 
	C376.928650,63.798859 374.943939,63.844009 372.526123,63.375870 
	C372.059937,55.572735 372.204010,48.274605 371.863708,40.999126 
	C371.783020,39.274315 370.077545,37.625504 369.119446,35.941727 
	C368.568604,35.357819 368.017731,34.773911 367.221985,33.574287 
	C366.984375,29.474432 366.960022,25.989861 367.007141,22.506260 
	C367.064514,18.267487 365.050964,16.027521 360.779053,16.007967 
	C353.645020,15.975310 346.507843,15.896150 339.379364,16.097311 
	C338.169647,16.131449 336.996796,17.470640 335.400940,18.152239 
	C332.009308,17.770645 330.871857,19.125275 330.929443,22.090652 
	C331.053925,28.502159 330.826599,34.924042 331.102051,41.326237 
	C331.160767,42.690178 332.748535,43.988331 333.631866,45.316788 
	C334.362122,46.041679 335.092346,46.766575 335.945068,48.198132 
	C336.042755,52.805733 336.271027,56.734566 335.845825,60.591370 
	C335.710327,61.820717 333.915497,63.727615 332.749023,63.829742 
	C328.351349,64.214790 323.899780,63.984329 318.997131,63.984329 
	C318.997131,55.657635 318.997131,47.895969 319.221069,40.091717 
	C319.821136,40.291889 320.197235,40.534653 320.998779,40.792171 
	C322.277405,39.639633 323.825073,38.497574 323.868561,37.300838 
	C324.109497,30.672409 324.114502,24.025749 323.863586,17.398085 
	C323.818878,16.217382 322.191772,15.096591 321.110657,13.680622 
	C320.236633,12.908374 319.547272,12.403640 319.038971,11.581438 
	C323.677124,9.551091 325.110840,3.384429 330.771576,3.338329 
	C330.854065,3.337658 330.924133,1.813262 331.000000,0.999999 
	C344.354218,1.000000 357.708466,1.000000 371.532776,1.402537 
	C372.478760,2.519543 372.855377,3.755700 373.445831,3.868064 
	C379.578217,5.034973 383.668152,12.605385 383.855499,16.992260 
	C384.244995,26.111044 383.874481,35.262287 383.816315,44.400188 
z"/>
<path fill="#0362BD" opacity="1.000000" stroke="none" 
	d="
M231.000000,1.000000 
	C234.692902,1.000000 238.385818,1.000000 242.534256,1.254533 
	C243.015533,1.676827 243.041260,1.844587 243.009369,2.339980 
	C242.993286,3.107397 243.034821,3.547181 243.028625,4.454597 
	C242.966110,10.991146 242.943436,17.060057 242.940933,23.128979 
	C242.940094,25.158113 242.823135,27.327442 246.015717,26.845749 
	C246.066010,26.938395 246.007050,27.140820 245.997040,27.600021 
	C245.987030,39.941246 245.987030,51.823273 245.987030,63.681374 
	C239.601746,63.681374 234.029175,63.681374 227.949326,63.681374 
	C227.949326,51.623367 227.949326,39.866024 227.926315,27.999081 
	C227.903305,27.889479 228.002884,27.688848 228.407593,27.721504 
	C229.590195,26.413439 230.970871,25.102579 231.039047,23.726692 
	C231.299805,18.463938 231.151199,13.180216 231.128784,7.904435 
	C231.119003,5.602816 231.044907,3.301470 231.000000,1.000000 
z"/>
<path fill="#78ACDD" opacity="1.000000" stroke="none" 
	d="
M243.076355,3.986965 
	C243.034821,3.547181 242.993286,3.107397 243.329620,2.322601 
	C244.471649,1.651727 245.235825,1.325866 246.000000,1.000002 
	C251.354935,1.000000 256.709869,1.000000 262.532410,0.999999 
	C264.461365,1.585312 265.922760,2.170626 268.370392,3.150966 
	C264.846344,4.275819 262.078186,5.232121 259.266754,6.037279 
	C256.159973,6.927013 253.195847,8.506236 254.303543,12.045853 
	C255.263443,15.113141 257.617645,18.035318 261.815918,16.545654 
	C265.640930,15.188423 269.395355,13.632083 273.791229,12.473915 
	C279.422180,13.173773 284.438934,13.656208 289.467041,13.862402 
	C290.318909,13.897335 291.219513,12.744266 292.097595,12.140065 
	C295.892731,13.828733 300.181061,14.685985 301.382996,19.796717 
	C302.521820,24.639002 301.603119,26.038675 296.385162,26.007929 
	C287.234955,25.954016 278.082642,25.804785 268.935242,25.950253 
	C264.858337,26.015087 260.791260,26.698143 255.901917,27.066780 
	C252.058426,27.068907 249.032730,27.104864 246.007050,27.140820 
	C246.007050,27.140820 246.066010,26.938395 246.026489,26.393950 
	C245.986542,19.952471 246.171860,14.045363 245.852890,8.165615 
	C245.774841,6.726758 244.046143,5.377447 243.076355,3.986965 
z"/>
<path fill="#000000" opacity="1.000000" stroke="none" 
	d="
M384.032837,44.627945 
	C383.874481,35.262287 384.244995,26.111044 383.855499,16.992260 
	C383.668152,12.605385 379.578217,5.034973 373.445831,3.868064 
	C372.855377,3.755700 372.478760,2.519543 372.001434,1.402537 
	C381.020905,1.000000 390.041779,1.000000 399.531342,1.000001 
	C399.622650,1.968817 399.523285,3.305030 398.817108,3.839298 
	C396.460175,5.622551 393.785706,6.986144 391.429077,8.769762 
	C389.781006,10.017145 387.154419,11.749169 387.220459,13.159103 
	C387.441284,17.874952 384.935730,23.288265 389.060944,27.229000 
	C392.501251,30.515474 397.000000,32.728588 400.283997,36.136028 
	C405.266174,41.305450 411.241638,38.050846 416.684784,38.975571 
	C422.532654,39.969055 428.406738,40.808147 434.667938,41.776234 
	C434.667938,43.745289 434.667938,46.118130 434.667938,48.962959 
	C425.145020,48.962959 415.811951,49.188595 406.502045,48.823997 
	C403.747284,48.716114 400.600250,47.522133 398.437164,45.809883 
	C394.408264,42.620739 391.870239,44.822849 388.992767,47.663025 
	C387.353180,46.973541 385.801270,45.914619 384.032837,44.627945 
z"/>
<path fill="#81ADDD" opacity="1.000000" stroke="none" 
	d="
M223.117462,2.131121 
	C223.997635,1.966177 224.877792,1.801233 225.878983,1.318145 
	C226.444443,1.000000 226.888901,1.000000 227.656403,1.468572 
	C227.987259,10.521046 227.995071,19.104946 228.002884,27.688848 
	C228.002884,27.688848 227.903305,27.889479 227.482971,27.954290 
	C224.909302,28.071239 222.697266,27.820986 220.612274,28.225470 
	C208.683090,30.539690 196.784088,33.009567 184.874847,35.426598 
	C180.576035,35.345329 179.623657,33.603626 182.726776,30.501600 
	C187.209900,26.020041 191.476486,21.114563 196.663101,17.617424 
	C200.081467,15.312554 204.954926,15.165764 210.015228,14.063003 
	C214.251160,13.385320 217.648697,12.697290 221.381256,11.813652 
	C222.183350,8.455736 222.650406,5.293429 223.117462,2.131121 
z"/>
<path fill="#000000" opacity="1.000000" stroke="none" 
	d="
M120.415192,34.834366 
	C120.052414,30.463552 119.611450,25.958963 120.113998,21.562220 
	C120.661209,16.774836 118.838692,13.394756 115.351288,10.675314 
	C112.313545,8.306506 109.039490,6.242883 105.928871,3.963860 
	C105.169571,3.407548 104.641418,2.535734 104.003494,1.404490 
	C109.688042,1.000000 115.376083,1.000000 121.532059,1.000000 
	C121.637535,2.400644 121.439819,3.870713 120.883949,5.189857 
	C118.535614,10.762629 121.870117,15.909102 127.955566,15.977124 
	C129.110992,15.990039 130.310303,16.195341 131.414825,15.960855 
	C137.348343,14.701205 141.702484,19.085308 147.063156,20.597206 
	C138.361710,25.581682 129.557205,30.164896 120.415192,34.834366 
z"/>
<path fill="#000000" opacity="1.000000" stroke="none" 
	d="
M199.531342,1.000001 
	C199.634750,1.963433 199.474609,3.594089 198.870270,3.779884 
	C195.451248,4.831017 191.925766,5.535858 188.079041,7.046028 
	C180.129623,9.879470 172.537704,12.025524 164.945786,14.171577 
	C162.559875,12.393200 160.274628,10.454234 157.761505,8.878787 
	C154.889359,7.078278 151.789230,5.645319 148.841537,3.959330 
	C147.820328,3.375224 146.958832,2.511897 146.012177,1.388057 
	C163.687561,1.000000 181.375122,1.000000 199.531342,1.000001 
z"/>
<path fill="#000000" opacity="1.000000" stroke="none" 
	d="
M330.531311,0.999999 
	C330.924133,1.813262 330.854065,3.337658 330.771576,3.338329 
	C325.110840,3.384429 323.677124,9.551091 318.658844,11.617708 
	C315.737701,11.268713 313.377808,10.565980 311.017883,9.863244 
	C308.445038,6.854924 305.961731,3.730395 301.487244,3.528074 
	C301.299011,3.519562 301.160706,2.406713 300.999573,1.404168 
	C310.687561,1.000000 320.375122,1.000000 330.531311,0.999999 
z"/>
<path fill="#70A7DB" opacity="1.000000" stroke="none" 
	d="
M228.407593,27.721504 
	C227.995071,19.104946 227.987259,10.521046 227.989716,1.468572 
	C228.750000,1.000000 229.500000,1.000000 230.625000,1.000000 
	C231.044907,3.301470 231.119003,5.602816 231.128784,7.904435 
	C231.151199,13.180216 231.299805,18.463938 231.039047,23.726692 
	C230.970871,25.102579 229.590195,26.413439 228.407593,27.721504 
z"/>
<path fill="#69A3D8" opacity="1.000000" stroke="none" 
	d="
M245.625000,1.000002 
	C245.235825,1.325866 244.471649,1.651727 243.387238,1.994967 
	C243.041260,1.844587 243.015533,1.676827 242.994904,1.254533 
	C243.750000,1.000000 244.500000,1.000000 245.625000,1.000002 
z"/>
<path fill="#000000" opacity="1.000000" stroke="none" 
	d="
M185.166626,35.635513 
	C196.784088,33.009567 208.683090,30.539690 220.612274,28.225470 
	C222.697266,27.820986 224.909302,28.071239 227.505981,28.063892 
	C227.949326,39.866024 227.949326,51.623367 227.949326,63.681374 
	C234.029175,63.681374 239.601746,63.681374 245.987030,63.681374 
	C245.987030,51.823273 245.987030,39.941246 245.997040,27.600021 
	C249.032730,27.104864 252.058426,27.068907 255.535431,27.101496 
	C253.498474,30.189289 250.998245,33.198868 248.538071,36.240852 
	C248.252213,36.594318 248.055084,37.123192 248.041229,37.577583 
	C247.796280,45.614792 247.760712,52.869755 254.765579,59.517319 
	C259.052216,63.585297 262.704956,63.955414 267.397675,63.975399 
	C277.356598,64.017815 287.315948,63.961830 297.274902,64.000832 
	C303.812683,64.026436 308.310364,62.614338 311.584290,55.381828 
	C313.913971,50.235390 316.020599,45.628483 316.289856,39.617214 
	C317.418793,39.503128 318.207947,39.818714 318.997131,40.134300 
	C318.997131,47.895969 318.997131,55.657635 318.997131,63.984329 
	C323.899780,63.984329 328.351349,64.214790 332.749023,63.829742 
	C333.915497,63.727615 335.710327,61.820717 335.845825,60.591370 
	C336.271027,56.734566 336.042755,52.805733 336.123291,48.463348 
	C350.504242,53.634281 363.465363,61.694363 375.451569,71.152138 
	C384.739594,78.480904 393.911194,86.166496 402.005981,94.756897 
	C422.048798,116.026878 437.703735,140.191605 448.113220,167.715424 
	C454.349792,184.205505 459.138580,201.111542 460.688873,218.526154 
	C462.074219,234.087463 461.368439,249.877548 460.926056,265.548065 
	C460.388550,284.587280 455.232666,302.794128 448.681458,320.495300 
	C440.986176,341.287811 430.301605,360.556976 416.492828,377.999390 
	C413.664246,381.572266 410.767609,385.091248 407.384583,389.275513 
	C403.677887,363.790558 394.598450,341.073395 380.406769,320.034332 
	C375.777191,322.408112 371.176453,325.011841 366.377106,327.174927 
	C357.524170,331.164856 348.613129,335.042419 339.597931,338.645630 
	C336.908966,339.720337 335.945221,340.052887 336.644562,343.663483 
	C339.520142,358.509918 341.823730,373.478241 343.918976,388.460297 
	C345.044189,396.506165 345.320160,404.670776 346.000092,413.036987 
	C358.184937,413.036987 369.774811,413.036987 381.110687,413.036987 
	C372.570038,425.600281 359.712799,424.813202 346.458466,423.685486 
	C345.934753,426.470978 344.762848,429.069580 345.138885,431.420654 
	C346.073975,437.267242 342.969269,439.751892 338.216980,441.344269 
	C336.982697,441.757843 335.744110,442.158539 334.224152,442.658264 
	C334.570374,436.597504 334.909790,430.655609 335.270172,424.346436 
	C306.757446,424.346436 278.698639,424.346436 250.160187,424.346436 
	C250.160187,436.634766 250.160187,449.035339 250.160187,461.714020 
	C246.297180,461.714020 242.903519,461.714020 239.027985,461.714020 
	C239.027985,449.233734 239.027985,436.831970 239.027985,424.237000 
	C210.482681,424.237000 182.413361,424.237000 154.063828,424.237000 
	C154.478348,430.351471 154.876617,436.226044 155.359619,443.350586 
	C151.030075,440.888824 146.107376,439.700470 144.445938,436.703949 
	C142.693420,433.543091 144.053070,428.656677 144.053070,424.054993 
	C131.104523,423.581848 117.140358,427.160126 108.802887,413.202209 
	C120.119507,413.202209 131.684097,413.202209 144.000229,413.202209 
	C144.000229,410.635345 143.927628,408.383759 144.011627,406.138000 
	C144.734055,386.821259 146.910889,367.694489 151.563690,348.894531 
	C152.068939,346.853088 152.874252,344.787506 152.835968,342.746307 
	C152.812408,341.490082 151.741302,339.598480 150.645966,339.116791 
	C136.882523,333.064240 123.028725,327.217072 108.407990,320.980316 
	C95.079620,340.520203 86.086723,363.101501 82.143143,388.122589 
	C5.197197,306.654602 0.574732,150.397446 123.224533,64.332626 
	C123.804451,63.925999 123.978203,63.878338 124.151955,63.830681 
	C130.644699,63.869202 137.172714,64.317062 143.614349,63.762154 
	C146.544754,63.509712 149.353638,61.367790 152.129059,59.913841 
	C155.745285,58.019432 159.389481,56.134712 162.801361,53.908253 
	C165.337799,52.253067 168.137466,50.456482 169.713821,48.010143 
	C171.770889,44.817772 173.049683,45.157589 175.115814,47.620350 
	C175.996979,48.670650 177.083725,50.093212 178.242279,50.271217 
	C183.114975,51.019886 184.630722,55.868641 188.178070,57.955597 
	C192.438141,60.461861 197.114868,63.049953 201.877151,63.724224 
	C208.733017,64.694931 215.828644,63.972176 223.503937,63.972176 
	C224.305817,61.276600 225.351059,58.517807 225.923874,55.664181 
	C226.831284,51.143871 223.700104,49.753658 220.134430,49.136585 
	C218.352554,48.828213 216.479401,49.009243 214.648254,49.030243 
	C206.994293,49.118027 200.200012,47.228954 194.476410,41.664597 
	C191.961365,39.219524 188.493591,37.754459 185.166626,35.635513 
M360.000000,111.500153 
	C359.999939,105.502869 360.507965,99.453400 359.898315,93.518730 
	C358.447723,79.397255 350.963989,70.280243 336.774902,70.185226 
	C273.304443,69.760216 209.828400,69.803230 146.357193,70.168793 
	C133.859711,70.240768 122.890671,79.579620 122.954292,93.843651 
	C123.099182,126.329338 122.943230,158.816284 123.035797,191.302353 
	C123.062363,200.624985 127.544746,208.003235 135.819672,211.660553 
	C141.266144,214.067780 147.810837,214.808823 153.876175,214.861328 
	C187.359573,215.151245 220.846802,215.000000 254.332718,215.000000 
	C256.107727,215.000000 257.882751,215.000000 259.704529,215.000000 
	C259.704529,226.602829 259.704529,237.665649 259.704529,249.194061 
	C256.344299,249.194061 253.275665,249.194061 250.351227,249.194061 
	C250.351227,280.719543 250.351227,311.774078 250.351227,343.724579 
	C262.521210,342.471375 274.305481,341.594788 285.983398,339.958832 
	C297.230591,338.383209 308.354370,335.942505 319.563202,334.065887 
	C322.237823,333.618103 323.148285,333.372528 322.172729,330.110260 
	C317.410431,314.185333 310.842468,299.169006 301.771606,285.199554 
	C293.367462,272.256989 283.621979,260.768982 269.807159,253.312256 
	C266.950409,251.770279 264.029816,250.346573 261.065308,248.830856 
	C272.786102,239.025375 284.207306,229.711670 295.318176,220.041412 
	C299.088806,216.759674 302.673523,214.767334 307.947632,214.852524 
	C318.356506,215.020660 328.803772,214.673157 339.189667,213.915268 
	C351.169739,213.041061 359.994080,202.966629 359.997620,190.967072 
	C360.005402,164.811401 360.000000,138.655731 360.000000,111.500153 
M331.069489,369.250824 
	C329.481903,360.446106 327.894348,351.641418 326.287720,342.730865 
	C310.113403,347.421143 278.637604,353.569977 255.920135,352.919312 
	C251.462860,352.791687 249.795532,353.825226 249.883667,358.670319 
	C250.186478,375.319397 249.993561,391.977386 250.011612,408.631958 
	C250.013153,410.052612 250.177826,411.473053 250.249069,412.611633 
	C278.797394,412.611633 306.845154,412.611633 335.793823,412.611633 
	C334.339722,398.101959 332.932709,384.062378 331.069489,369.250824 
M181.393402,347.008484 
	C175.436493,345.691650 169.479599,344.374817 163.393021,343.029297 
	C157.218109,366.023621 155.100586,389.275085 154.219635,412.670715 
	C182.678360,412.670715 210.725601,412.670715 238.996826,412.670715 
	C238.996826,393.708282 239.052765,375.073669 238.862091,356.441589 
	C238.850250,355.285919 236.976700,353.242950 235.838928,353.146179 
	C225.180832,352.239807 214.462158,351.981354 203.827042,350.891266 
	C196.583694,350.148834 189.445740,348.378326 181.393402,347.008484 
M239.000000,308.500000 
	C239.000000,288.762146 239.000000,269.024261 239.000000,247.815338 
	C233.016251,249.236343 227.597656,249.753464 222.836380,251.799896 
	C209.219589,257.652496 199.419189,268.066467 190.976868,279.972260 
	C179.609268,296.003479 172.057220,313.792511 166.281708,332.924225 
	C189.875809,339.732788 214.135101,342.294983 239.000000,343.104919 
	C239.000000,331.417664 239.000000,320.458832 239.000000,308.500000 
M342.014313,280.500275 
	C326.536072,269.210693 309.706940,260.710541 291.021515,255.751709 
	C311.668457,276.846741 324.116760,302.492279 333.234924,331.046326 
	C347.383667,324.902252 360.822723,319.066406 374.902588,312.952271 
	C365.576447,299.813477 354.675842,289.794464 342.014313,280.500275 
M116.579971,309.943665 
	C113.717499,312.496368 116.661377,313.187836 118.062546,313.951233 
	C122.339745,316.281525 126.642960,318.614960 131.117676,320.520721 
	C139.392700,324.045074 147.796738,327.266449 156.288452,330.670746 
	C165.473633,302.085785 177.754440,276.270447 198.961655,255.250656 
	C191.134583,257.592224 183.550171,260.142059 176.280273,263.394867 
	C162.254242,269.670563 149.284332,277.855774 137.770370,287.975433 
	C130.330338,294.514526 123.924126,302.229858 116.579971,309.943665 
z"/>
<path fill="#000000" opacity="1.000000" stroke="none" 
	d="
M335.806915,18.206890 
	C336.996796,17.470640 338.169647,16.131449 339.379364,16.097311 
	C346.507843,15.896150 353.645020,15.975310 360.779053,16.007967 
	C365.050964,16.027521 367.064514,18.267487 367.007141,22.506260 
	C366.960022,25.989861 366.984375,29.474432 366.963470,33.415276 
	C356.918579,28.918398 346.887299,23.964817 336.416992,18.791473 
	C335.978027,18.571709 335.806915,18.206888 335.806915,18.206890 
z"/>
<path fill="#2D7AC5" opacity="1.000000" stroke="none" 
	d="
M369.069855,36.412445 
	C370.077545,37.625504 371.783020,39.274315 371.863708,40.999126 
	C372.204010,48.274605 372.059937,55.572735 372.104584,63.313942 
	C368.749298,64.092094 368.954590,61.694397 368.954407,59.542011 
	C368.953827,51.989059 368.994965,44.436108 369.069855,36.412445 
z"/>
<path fill="#498DCF" opacity="1.000000" stroke="none" 
	d="
M335.400940,18.152237 
	C335.806915,18.206888 335.978027,18.571709 336.041626,18.762964 
	C335.402893,20.608624 334.162140,22.240757 334.092621,23.921335 
	C333.811371,30.720533 333.890656,37.534645 333.734375,44.830025 
	C332.748535,43.988331 331.160767,42.690178 331.102051,41.326237 
	C330.826599,34.924042 331.053925,28.502159 330.929443,22.090652 
	C330.871857,19.125275 332.009308,17.770645 335.400940,18.152237 
z"/>
<path fill="#2374C2" opacity="1.000000" stroke="none" 
	d="
M379.321106,63.771957 
	C378.943390,57.767849 378.958801,51.781860 379.012695,45.796219 
	C379.027924,44.105980 378.803192,41.960716 381.870697,43.955765 
	C382.122162,49.340214 382.261414,54.566986 381.975189,59.770351 
	C381.899445,61.147320 380.513306,62.452221 379.321106,63.771957 
z"/>
<path fill="#953E91" opacity="1.000000" stroke="none" 
	d="
M135.659393,51.816338 
	C132.703979,52.725018 129.392929,53.414188 125.495087,53.839539 
	C124.589249,53.039742 124.270210,52.503765 123.951164,51.967789 
	C127.735359,51.844135 131.519562,51.720486 135.659393,51.816338 
z"/>
<path fill="#8C6EB2" opacity="1.000000" stroke="none" 
	d="
M123.631210,52.188305 
	C124.270210,52.503765 124.589249,53.039742 125.054344,53.852135 
	C124.976845,57.132381 124.753296,60.136219 124.340851,63.485367 
	C123.978203,63.878338 123.804451,63.925999 123.362915,64.011475 
	C123.167168,60.169140 123.239204,56.288982 123.631210,52.188305 
z"/>
<path fill="#83A3D7" opacity="1.000000" stroke="none" 
	d="
M164.823273,14.450645 
	C172.537704,12.025524 180.129623,9.879470 187.946899,7.409499 
	C191.122452,7.193366 191.338013,8.640980 189.436203,10.343894 
	C186.157852,13.279413 182.601044,15.901150 179.232727,18.739590 
	C173.502319,23.568521 171.990891,23.563534 166.677704,18.135187 
	C165.787842,17.226025 165.348358,15.876019 164.823273,14.450645 
z"/>
<path fill="#983389" opacity="1.000000" stroke="none" 
	d="
M221.046234,12.009261 
	C217.648697,12.697290 214.251160,13.385320 210.409866,13.997824 
	C211.520157,8.527157 216.033966,12.078408 219.604248,11.133606 
	C220.491257,11.557674 220.768753,11.783468 221.046234,12.009261 
z"/>
<path fill="#92539F" opacity="1.000000" stroke="none" 
	d="
M221.381256,11.813652 
	C220.768753,11.783468 220.491257,11.557674 220.045319,11.120338 
	C219.914749,8.956028 219.696167,6.949680 220.088638,5.070987 
	C220.316864,3.978541 221.525345,3.090883 222.705109,2.121101 
	C222.650406,5.293429 222.183350,8.455736 221.381256,11.813652 
z"/>
<path fill="#000000" opacity="1.000000" stroke="none" 
	d="
M77.080582,49.197906 
	C73.950195,49.197906 70.819809,49.197906 67.820084,49.197906 
	C65.863792,40.684158 67.194908,38.985580 75.263000,38.988113 
	C81.904541,38.990204 88.546440,38.947041 95.187500,39.003723 
	C100.508865,39.049141 101.944122,40.577393 101.662712,46.530384 
	C99.856613,47.814724 98.360443,48.530079 96.864281,49.245430 
	C96.127998,49.209133 95.391724,49.172836 93.832657,49.082634 
	C87.700111,49.085121 82.390350,49.141514 77.080582,49.197906 
z"/>
<path fill="#649FD8" opacity="1.000000" stroke="none" 
	d="
M96.886856,49.566353 
	C98.360443,48.530079 99.856613,47.814724 101.689865,46.944866 
	C102.734299,47.441479 104.165443,48.367767 104.038483,48.701706 
	C102.554916,52.604034 99.963104,54.872932 95.306244,53.626221 
	C95.845657,52.368214 96.377548,51.127747 96.886856,49.566353 
z"/>
<path fill="#007FFF" opacity="1.000000" stroke="none" 
	d="
M77.222809,49.553238 
	C82.390350,49.141514 87.700111,49.085121 93.464653,49.113319 
	C92.391205,49.791962 90.855171,50.902718 89.336273,50.879757 
	C85.341881,50.819370 81.354935,50.265728 77.222809,49.553238 
z"/>
<path fill="#000000" opacity="1.000000" stroke="none" 
	d="
M273.080902,49.198986 
	C269.903290,49.198986 266.725677,49.198986 263.646942,49.198986 
	C262.041687,40.458717 263.232300,38.989826 271.410339,38.985645 
	C277.703522,38.982430 283.996735,38.989120 290.289917,38.992676 
	C298.486115,38.997303 299.637909,40.299824 298.500977,49.135159 
	C296.348663,49.135159 294.086914,49.135159 290.917053,49.082016 
	C284.366302,49.085579 278.723602,49.142284 273.080902,49.198986 
z"/>
<path fill="#76AADD" opacity="1.000000" stroke="none" 
	d="
M319.221069,40.091713 
	C318.207947,39.818714 317.418793,39.503128 316.297363,39.177216 
	C315.403992,38.967606 314.842834,38.768326 314.111877,37.859558 
	C313.951782,31.511806 314.153778,25.862885 313.842316,20.242424 
	C313.759552,18.748896 312.100342,17.342735 311.164948,15.896461 
	C310.950287,13.964107 310.735657,12.031750 310.769470,9.981319 
	C313.377808,10.565980 315.737701,11.268713 318.477753,11.935176 
	C319.547272,12.403640 320.236633,12.908374 321.019958,14.146194 
	C320.933716,23.511993 320.753540,32.144707 320.573364,40.777412 
	C320.197235,40.534653 319.821136,40.291889 319.221069,40.091713 
z"/>
<path fill="#478BCE" opacity="1.000000" stroke="none" 
	d="
M311.105896,16.370064 
	C312.100342,17.342735 313.759552,18.748896 313.842316,20.242424 
	C314.153778,25.862885 313.951782,31.511806 313.923157,37.626114 
	C312.933472,36.452969 311.235229,34.850166 311.126526,33.146004 
	C310.781311,27.732208 311.028595,22.280638 311.105896,16.370064 
z"/>
<path fill="#3983C9" opacity="1.000000" stroke="none" 
	d="
M291.712341,11.955544 
	C291.219513,12.744266 290.318909,13.897335 289.467041,13.862402 
	C284.438934,13.656208 279.422180,13.173773 274.157166,12.478645 
	C279.717529,12.038981 285.522308,11.905001 291.712341,11.955544 
z"/>
<path fill="#007FFF" opacity="1.000000" stroke="none" 
	d="
M273.224030,49.553783 
	C278.723602,49.142284 284.366302,49.085579 290.464020,49.113918 
	C290.046021,49.780479 289.155273,50.886108 288.302948,50.857197 
	C283.319336,50.688171 278.344788,50.253559 273.224030,49.553783 
z"/>
<path fill="#116CC3" opacity="1.000000" stroke="none" 
	d="
M320.998779,40.792175 
	C320.753540,32.144707 320.933716,23.511993 321.204620,14.413710 
	C322.191772,15.096591 323.818878,16.217382 323.863586,17.398085 
	C324.114502,24.025749 324.109497,30.672409 323.868561,37.300838 
	C323.825073,38.497574 322.277405,39.639633 320.998779,40.792175 
z"/>
<path fill="#69A3D8" opacity="1.000000" stroke="none" 
	d="
M243.028625,4.454598 
	C244.046143,5.377447 245.774841,6.726758 245.852890,8.165615 
	C246.171860,14.045363 245.986542,19.952471 245.976181,26.301304 
	C242.823135,27.327442 242.940094,25.158113 242.940933,23.128979 
	C242.943436,17.060057 242.966110,10.991146 243.028625,4.454598 
z"/>
<path fill="#80B1E0" opacity="1.000000" stroke="none" 
	d="
M360.000000,112.000107 
	C360.000000,138.655731 360.005402,164.811401 359.997620,190.967072 
	C359.994080,202.966629 351.169739,213.041061 339.189667,213.915268 
	C328.803772,214.673157 318.356506,215.020660 307.947632,214.852524 
	C302.673523,214.767334 299.088806,216.759674 295.318176,220.041412 
	C284.207306,229.711670 272.786102,239.025375 261.065308,248.830856 
	C264.029816,250.346573 266.950409,251.770279 269.807159,253.312256 
	C283.621979,260.768982 293.367462,272.256989 301.771606,285.199554 
	C310.842468,299.169006 317.410431,314.185333 322.172729,330.110260 
	C323.148285,333.372528 322.237823,333.618103 319.563202,334.065887 
	C308.354370,335.942505 297.230591,338.383209 285.983398,339.958832 
	C274.305481,341.594788 262.521210,342.471375 250.351227,343.724579 
	C250.351227,311.774078 250.351227,280.719543 250.351227,249.194061 
	C253.275665,249.194061 256.344299,249.194061 259.704529,249.194061 
	C259.704529,237.665649 259.704529,226.602829 259.704529,215.000000 
	C257.882751,215.000000 256.107727,215.000000 254.332718,215.000000 
	C220.846802,215.000000 187.359573,215.151245 153.876175,214.861328 
	C147.810837,214.808823 141.266144,214.067780 135.819672,211.660553 
	C127.544746,208.003235 123.062363,200.624985 123.035797,191.302353 
	C122.943230,158.816284 123.099182,126.329338 122.954292,93.843651 
	C122.890671,79.579620 133.859711,70.240768 146.357193,70.168793 
	C209.828400,69.803230 273.304443,69.760216 336.774902,70.185226 
	C350.963989,70.280243 358.447723,79.397255 359.898315,93.518730 
	C360.507965,99.453400 359.999939,105.502869 360.000000,112.000107 
M345.000000,150.500000 
	C345.000000,133.509521 345.290894,116.512383 344.901855,99.530823 
	C344.623871,87.398506 340.960724,85.851028 331.758148,85.884575 
	C270.626801,86.107399 209.494263,85.996933 148.362106,86.004494 
	C141.825790,86.005295 138.067841,89.326286 138.046524,95.778160 
	C137.944702,126.593765 137.776459,157.412689 138.161026,188.223831 
	C138.255508,195.793991 141.686691,199.164352 149.493774,199.115143 
	C189.136475,198.865280 228.781616,199.000000 268.425903,199.000000 
	C270.191864,199.000000 271.957825,199.000000 274.258759,199.000000 
	C274.258759,205.922974 274.258759,212.255157 274.258759,219.152969 
	C280.776520,213.387375 286.680847,208.147232 292.605652,202.930344 
	C295.752899,200.159164 299.143127,198.673584 303.644989,198.876709 
	C312.787872,199.289246 321.972198,198.733612 331.121399,199.069214 
	C341.908966,199.464935 344.850800,195.431320 344.971069,184.980774 
	C345.099487,173.821884 345.000000,162.660370 345.000000,150.500000 
z"/>
<path fill="#80B1E0" opacity="1.000000" stroke="none" 
	d="
M331.297607,369.636841 
	C332.932709,384.062378 334.339722,398.101959 335.793823,412.611633 
	C306.845154,412.611633 278.797394,412.611633 250.249069,412.611633 
	C250.177826,411.473053 250.013153,410.052612 250.011612,408.631958 
	C249.993561,391.977386 250.186478,375.319397 249.883667,358.670319 
	C249.795532,353.825226 251.462860,352.791687 255.920135,352.919312 
	C278.637604,353.569977 310.113403,347.421143 326.287720,342.730865 
	C327.894348,351.641418 329.481903,360.446106 331.297607,369.636841 
z"/>
<path fill="#80B1E0" opacity="1.000000" stroke="none" 
	d="
M181.827026,347.037994 
	C189.445740,348.378326 196.583694,350.148834 203.827042,350.891266 
	C214.462158,351.981354 225.180832,352.239807 235.838928,353.146179 
	C236.976700,353.242950 238.850250,355.285919 238.862091,356.441589 
	C239.052765,375.073669 238.996826,393.708282 238.996826,412.670715 
	C210.725601,412.670715 182.678360,412.670715 154.219635,412.670715 
	C155.100586,389.275085 157.218109,366.023621 163.393021,343.029297 
	C169.479599,344.374817 175.436493,345.691650 181.827026,347.037994 
z"/>
<path fill="#80B1E0" opacity="1.000000" stroke="none" 
	d="
M239.000000,309.000000 
	C239.000000,320.458832 239.000000,331.417664 239.000000,343.104919 
	C214.135101,342.294983 189.875809,339.732788 166.281708,332.924225 
	C172.057220,313.792511 179.609268,296.003479 190.976868,279.972260 
	C199.419189,268.066467 209.219589,257.652496 222.836380,251.799896 
	C227.597656,249.753464 233.016251,249.236343 239.000000,247.815338 
	C239.000000,269.024261 239.000000,288.762146 239.000000,309.000000 
z"/>
<path fill="#80B1E0" opacity="1.000000" stroke="none" 
	d="
M342.309235,280.720398 
	C354.675842,289.794464 365.576447,299.813477 374.902588,312.952271 
	C360.822723,319.066406 347.383667,324.902252 333.234924,331.046326 
	C324.116760,302.492279 311.668457,276.846741 291.021515,255.751709 
	C309.706940,260.710541 326.536072,269.210693 342.309235,280.720398 
z"/>
<path fill="#80B1E0" opacity="1.000000" stroke="none" 
	d="
M116.817299,309.680878 
	C123.924126,302.229858 130.330338,294.514526 137.770370,287.975433 
	C149.284332,277.855774 162.254242,269.670563 176.280273,263.394867 
	C183.550171,260.142059 191.134583,257.592224 198.961655,255.250656 
	C177.754440,276.270447 165.473633,302.085785 156.288452,330.670746 
	C147.796738,327.266449 139.392700,324.045074 131.117676,320.520721 
	C126.642960,318.614960 122.339745,316.281525 118.062546,313.951233 
	C116.661377,313.187836 113.717499,312.496368 116.817299,309.680878 
z"/>
<path fill="#000000" opacity="1.000000" stroke="none" 
	d="
M345.000000,151.000000 
	C345.000000,162.660370 345.099487,173.821884 344.971069,184.980774 
	C344.850800,195.431320 341.908966,199.464935 331.121399,199.069214 
	C321.972198,198.733612 312.787872,199.289246 303.644989,198.876709 
	C299.143127,198.673584 295.752899,200.159164 292.605652,202.930344 
	C286.680847,208.147232 280.776520,213.387375 274.258759,219.152969 
	C274.258759,212.255157 274.258759,205.922974 274.258759,199.000000 
	C271.957825,199.000000 270.191864,199.000000 268.425903,199.000000 
	C228.781616,199.000000 189.136475,198.865280 149.493774,199.115143 
	C141.686691,199.164352 138.255508,195.793991 138.161026,188.223831 
	C137.776459,157.412689 137.944702,126.593765 138.046524,95.778160 
	C138.067841,89.326286 141.825790,86.005295 148.362106,86.004494 
	C209.494263,85.996933 270.626801,86.107399 331.758148,85.884575 
	C340.960724,85.851028 344.623871,87.398506 344.901855,99.530823 
	C345.290894,116.512383 345.000000,133.509521 345.000000,151.000000 
M273.500000,166.000000 
	C241.337250,166.000000 209.174515,165.999802 177.011765,166.000153 
	C169.432220,166.000229 165.931000,168.106750 166.002289,172.621277 
	C166.079712,177.524063 168.497879,179.000000 176.453323,179.000000 
	C219.448074,179.000015 262.442841,179.000488 305.437592,178.998001 
	C306.936523,178.997910 308.902710,179.563461 309.837708,178.829361 
	C311.825195,177.268845 314.243164,175.198959 314.637024,173.005997 
	C314.943848,171.297928 312.867767,168.492355 311.095093,167.273056 
	C309.403778,166.109756 306.738617,166.076050 304.495758,166.050156 
	C294.498322,165.934708 284.498779,166.000000 273.500000,166.000000 
M184.505814,107.000000 
	C180.339630,107.000130 176.140961,106.698502 172.022507,107.141907 
	C170.258621,107.331810 168.034042,108.682434 167.103897,110.179741 
	C164.034729,115.120346 167.375641,119.949730 173.958969,119.960876 
	C217.953812,120.035416 261.948883,120.015160 305.943726,119.946671 
	C307.841492,119.943718 310.367401,119.769287 311.483917,118.604378 
	C313.057617,116.962418 314.461700,114.285858 314.377838,112.111855 
	C314.212219,107.818207 310.839600,106.960121 306.989532,106.965439 
	C266.494232,107.021385 225.998840,107.000015 184.505814,107.000000 
M166.941864,139.594788 
	C164.779861,145.909882 166.716522,148.988312 172.971878,148.990707 
	C218.077759,149.007935 263.183624,149.005157 308.289520,148.991089 
	C312.426788,148.989807 315.338043,146.495377 314.917206,142.899994 
	C314.472473,139.100662 312.526459,136.915161 308.071869,136.927002 
	C262.966309,137.046753 217.860245,136.977783 172.754608,137.084061 
	C171.006210,137.088181 169.260727,138.326416 166.941864,139.594788 
z"/>
<path fill="#80B1E0" opacity="1.000000" stroke="none" 
	d="
M274.000000,166.000000 
	C284.498779,166.000000 294.498322,165.934708 304.495758,166.050156 
	C306.738617,166.076050 309.403778,166.109756 311.095093,167.273056 
	C312.867767,168.492355 314.943848,171.297928 314.637024,173.005997 
	C314.243164,175.198959 311.825195,177.268845 309.837708,178.829361 
	C308.902710,179.563461 306.936523,178.997910 305.437592,178.998001 
	C262.442841,179.000488 219.448074,179.000015 176.453323,179.000000 
	C168.497879,179.000000 166.079712,177.524063 166.002289,172.621277 
	C165.931000,168.106750 169.432220,166.000229 177.011765,166.000153 
	C209.174515,165.999802 241.337250,166.000000 274.000000,166.000000 
z"/>
<path fill="#80B1E0" opacity="1.000000" stroke="none" 
	d="
M185.004639,107.000000 
	C225.998840,107.000015 266.494232,107.021385 306.989532,106.965439 
	C310.839600,106.960121 314.212219,107.818207 314.377838,112.111855 
	C314.461700,114.285858 313.057617,116.962418 311.483917,118.604378 
	C310.367401,119.769287 307.841492,119.943718 305.943726,119.946671 
	C261.948883,120.015160 217.953812,120.035416 173.958969,119.960876 
	C167.375641,119.949730 164.034729,115.120346 167.103897,110.179741 
	C168.034042,108.682434 170.258621,107.331810 172.022507,107.141907 
	C176.140961,106.698502 180.339630,107.000130 185.004639,107.000000 
z"/>
<path fill="#80B1E0" opacity="1.000000" stroke="none" 
	d="
M167.227875,139.292175 
	C169.260727,138.326416 171.006210,137.088181 172.754608,137.084061 
	C217.860245,136.977783 262.966309,137.046753 308.071869,136.927002 
	C312.526459,136.915161 314.472473,139.100662 314.917206,142.899994 
	C315.338043,146.495377 312.426788,148.989807 308.289520,148.991089 
	C263.183624,149.005157 218.077759,149.007935 172.971878,148.990707 
	C166.716522,148.988312 164.779861,145.909882 167.227875,139.292175 
z"/>
</svg>