<?xml version="1.0" encoding="UTF-8"?>
<svg xmlns="http://www.w3.org/2000/svg" xmlns:xlink="http://www.w3.org/1999/xlink" width="26px" height="26px" viewBox="0 0 26 26" version="1.1">
<g id="surface1">
<path style=" stroke:none;fill-rule:nonzero;fill:rgb(40.392157%,60.392157%,83.137255%);fill-opacity:1;" d="M 12.984375 -0.0234375 C 13.042969 -0.0234375 13.101562 -0.0273438 13.160156 -0.0273438 C 13.582031 0.03125 13.945312 0.296875 14.300781 0.527344 C 14.386719 0.582031 14.46875 0.636719 14.554688 0.6875 C 14.597656 0.71875 14.644531 0.746094 14.6875 0.773438 C 14.933594 0.929688 15.175781 1.082031 15.421875 1.234375 C 15.527344 1.300781 15.628906 1.363281 15.734375 1.429688 C 15.785156 1.460938 15.835938 1.492188 15.890625 1.527344 C 16.144531 1.6875 16.402344 1.847656 16.65625 2.007812 C 16.757812 2.070312 16.859375 2.132812 16.960938 2.195312 C 18.382812 3.085938 19.804688 3.972656 21.226562 4.863281 C 21.277344 4.894531 21.328125 4.925781 21.378906 4.957031 C 21.480469 5.019531 21.582031 5.082031 21.683594 5.148438 C 21.945312 5.3125 22.210938 5.476562 22.476562 5.640625 C 22.53125 5.675781 22.585938 5.710938 22.640625 5.746094 C 22.746094 5.8125 22.851562 5.875 22.957031 5.941406 C 23.726562 6.417969 23.726562 6.417969 23.859375 6.660156 C 23.890625 6.710938 23.890625 6.710938 23.921875 6.761719 C 24 6.914062 24.027344 7.042969 24.027344 7.210938 C 24.027344 7.253906 24.027344 7.296875 24.027344 7.339844 C 24.027344 7.40625 24.027344 7.40625 24.027344 7.476562 C 24.027344 7.527344 24.027344 7.574219 24.027344 7.625 C 24.027344 7.789062 24.027344 7.953125 24.027344 8.117188 C 24.027344 8.234375 24.027344 8.355469 24.03125 8.472656 C 24.03125 8.789062 24.03125 9.109375 24.03125 9.429688 C 24.03125 9.628906 24.03125 9.828125 24.03125 10.027344 C 24.03125 10.582031 24.035156 11.132812 24.035156 11.6875 C 24.035156 11.832031 24.035156 11.972656 24.035156 12.117188 C 24.035156 12.152344 24.035156 12.1875 24.035156 12.226562 C 24.035156 12.800781 24.035156 13.378906 24.039062 13.957031 C 24.039062 14.550781 24.039062 15.144531 24.039062 15.734375 C 24.039062 16.070312 24.042969 16.402344 24.042969 16.734375 C 24.042969 17.046875 24.042969 17.359375 24.042969 17.675781 C 24.042969 17.789062 24.042969 17.902344 24.042969 18.019531 C 24.046875 18.175781 24.046875 18.332031 24.042969 18.488281 C 24.046875 18.558594 24.046875 18.558594 24.046875 18.625 C 24.042969 18.988281 23.941406 19.25 23.707031 19.527344 C 23.320312 19.855469 22.886719 20.109375 22.453125 20.367188 C 22.128906 20.5625 21.808594 20.761719 21.492188 20.964844 C 21.101562 21.210938 20.710938 21.460938 20.320312 21.707031 C 20.269531 21.738281 20.21875 21.769531 20.164062 21.800781 C 20.0625 21.863281 19.960938 21.929688 19.859375 21.992188 C 19.597656 22.15625 19.339844 22.316406 19.078125 22.480469 C 19.027344 22.511719 18.976562 22.542969 18.921875 22.578125 C 18.617188 22.769531 18.308594 22.960938 18 23.15625 C 17.488281 23.480469 16.972656 23.804688 16.457031 24.125 C 16.253906 24.253906 16.046875 24.378906 15.84375 24.507812 C 15.742188 24.570312 15.640625 24.632812 15.539062 24.699219 C 15.277344 24.863281 15.015625 25.027344 14.753906 25.191406 C 14.699219 25.226562 14.644531 25.261719 14.589844 25.296875 C 14.484375 25.359375 14.382812 25.425781 14.277344 25.492188 C 13.734375 25.835938 13.308594 26.097656 12.644531 26 C 12.421875 25.929688 12.230469 25.820312 12.035156 25.695312 C 11.996094 25.671875 11.957031 25.648438 11.917969 25.625 C 11.6875 25.476562 11.453125 25.328125 11.222656 25.179688 C 10.917969 24.984375 10.609375 24.789062 10.300781 24.597656 C 9.9375 24.371094 9.578125 24.144531 9.21875 23.917969 C 8.703125 23.59375 8.1875 23.269531 7.671875 22.949219 C 7.417969 22.789062 7.160156 22.628906 6.90625 22.46875 C 6.804688 22.40625 6.703125 22.34375 6.601562 22.28125 C 5.992188 21.898438 5.382812 21.519531 4.773438 21.136719 C 4.722656 21.105469 4.671875 21.074219 4.621094 21.042969 C 4.519531 20.980469 4.417969 20.917969 4.316406 20.851562 C 4.054688 20.6875 3.789062 20.523438 3.523438 20.359375 C 3.441406 20.308594 3.441406 20.308594 3.359375 20.253906 C 3.253906 20.1875 3.148438 20.125 3.042969 20.058594 C 2.273438 19.582031 2.273438 19.582031 2.140625 19.339844 C 2.121094 19.308594 2.101562 19.273438 2.078125 19.238281 C 2 19.085938 1.972656 18.957031 1.972656 18.789062 C 1.972656 18.726562 1.972656 18.726562 1.972656 18.660156 C 1.972656 18.613281 1.972656 18.570312 1.972656 18.523438 C 1.972656 18.472656 1.972656 18.425781 1.972656 18.375 C 1.972656 18.210938 1.972656 18.046875 1.972656 17.882812 C 1.972656 17.765625 1.972656 17.644531 1.96875 17.527344 C 1.96875 17.210938 1.96875 16.890625 1.96875 16.570312 C 1.96875 16.371094 1.96875 16.171875 1.96875 15.972656 C 1.96875 15.417969 1.964844 14.867188 1.964844 14.3125 C 1.964844 14.167969 1.964844 14.027344 1.964844 13.882812 C 1.964844 13.847656 1.964844 13.8125 1.964844 13.773438 C 1.964844 13.199219 1.964844 12.621094 1.960938 12.042969 C 1.960938 11.449219 1.960938 10.855469 1.960938 10.265625 C 1.960938 9.929688 1.957031 9.597656 1.957031 9.265625 C 1.957031 8.953125 1.957031 8.640625 1.957031 8.324219 C 1.957031 8.210938 1.957031 8.097656 1.957031 7.980469 C 1.953125 7.824219 1.953125 7.667969 1.957031 7.511719 C 1.957031 7.464844 1.953125 7.421875 1.953125 7.375 C 1.957031 7.011719 2.058594 6.75 2.292969 6.472656 C 2.679688 6.144531 3.113281 5.890625 3.546875 5.632812 C 3.871094 5.4375 4.191406 5.238281 4.507812 5.035156 C 4.898438 4.789062 5.289062 4.539062 5.679688 4.292969 C 5.730469 4.261719 5.78125 4.230469 5.835938 4.199219 C 5.9375 4.132812 6.039062 4.070312 6.144531 4.007812 C 6.398438 3.847656 6.652344 3.6875 6.90625 3.53125 C 7.007812 3.464844 7.109375 3.402344 7.210938 3.339844 C 7.261719 3.308594 7.3125 3.277344 7.363281 3.242188 C 8.328125 2.640625 9.292969 2.039062 10.257812 1.433594 C 10.308594 1.402344 10.359375 1.371094 10.410156 1.339844 C 10.511719 1.277344 10.613281 1.214844 10.710938 1.148438 C 10.980469 0.984375 11.246094 0.816406 11.511719 0.648438 C 11.566406 0.613281 11.621094 0.578125 11.679688 0.542969 C 11.785156 0.476562 11.890625 0.410156 11.996094 0.34375 C 12.042969 0.3125 12.09375 0.28125 12.140625 0.25 C 12.183594 0.226562 12.226562 0.199219 12.269531 0.171875 C 12.511719 0.03125 12.707031 -0.015625 12.984375 -0.0234375 Z M 12.984375 -0.0234375 "/>
<path style=" stroke:none;fill-rule:nonzero;fill:rgb(99.215686%,99.215686%,99.215686%);fill-opacity:1;" d="M 15.894531 3.859375 C 15.894531 4.980469 15.894531 6.105469 15.894531 7.261719 C 15.589844 7.160156 15.589844 7.160156 15.414062 7.066406 C 15.214844 6.964844 15.007812 6.890625 14.792969 6.816406 C 14.761719 6.804688 14.726562 6.792969 14.695312 6.78125 C 14.445312 6.699219 14.265625 6.671875 14.015625 6.753906 C 14.011719 6.816406 14.003906 6.882812 14 6.949219 C 13.996094 7 13.996094 7 13.992188 7.054688 C 14.007812 7.171875 14.007812 7.171875 14.125 7.242188 C 14.265625 7.308594 14.398438 7.359375 14.546875 7.402344 C 15.136719 7.59375 15.628906 7.871094 16.097656 8.277344 C 16.175781 8.335938 16.175781 8.335938 16.257812 8.394531 C 16.902344 8.996094 17.285156 9.875 17.335938 10.75 C 17.34375 11.117188 17.335938 11.4375 17.199219 11.777344 C 17.085938 12.113281 17.136719 12.421875 17.289062 12.738281 C 17.449219 13.03125 17.632812 13.3125 17.816406 13.59375 C 18.128906 14.074219 18.128906 14.074219 18.128906 14.21875 C 18.097656 14.226562 18.066406 14.234375 18.035156 14.246094 C 17.992188 14.257812 17.953125 14.269531 17.910156 14.28125 C 17.871094 14.292969 17.828125 14.304688 17.785156 14.316406 C 17.640625 14.386719 17.59375 14.429688 17.519531 14.574219 C 17.511719 14.746094 17.519531 14.914062 17.53125 15.085938 C 17.539062 15.347656 17.484375 15.445312 17.316406 15.640625 C 17.308594 15.765625 17.308594 15.765625 17.34375 15.886719 C 17.371094 16.078125 17.375 16.171875 17.269531 16.332031 C 17.132812 16.550781 17.144531 16.65625 17.164062 16.910156 C 17.1875 16.984375 17.1875 16.984375 17.214844 17.0625 C 17.21875 17.140625 17.21875 17.222656 17.21875 17.300781 C 17.21875 17.339844 17.21875 17.382812 17.214844 17.425781 C 17.214844 17.457031 17.214844 17.488281 17.214844 17.519531 C 16.8125 17.734375 16.449219 17.734375 16 17.746094 C 15.390625 17.765625 14.933594 17.949219 14.484375 18.367188 C 14.242188 18.628906 14.003906 18.980469 13.992188 19.347656 C 14 19.503906 14 19.503906 14.117188 19.601562 C 14.324219 19.628906 14.324219 19.628906 14.5 19.539062 C 14.585938 19.433594 14.628906 19.335938 14.683594 19.210938 C 14.859375 18.851562 15.132812 18.582031 15.507812 18.433594 C 15.691406 18.382812 15.691406 18.382812 15.84375 18.382812 C 15.902344 18.671875 15.949219 18.960938 15.84375 19.246094 C 15.625 19.507812 15.304688 19.664062 15.011719 19.828125 C 14.8125 19.945312 14.628906 20.078125 14.441406 20.214844 C 14.371094 20.265625 14.300781 20.316406 14.226562 20.363281 C 14.191406 20.390625 14.15625 20.414062 14.121094 20.441406 C 13.941406 20.566406 13.761719 20.695312 13.585938 20.820312 C 13.511719 20.871094 13.441406 20.921875 13.367188 20.972656 C 13.222656 21.074219 13.082031 21.175781 12.9375 21.277344 C 12.902344 21.300781 12.863281 21.328125 12.828125 21.355469 C 12.757812 21.402344 12.6875 21.453125 12.613281 21.503906 C 12.425781 21.636719 12.238281 21.769531 12.050781 21.90625 C 12.011719 21.933594 11.972656 21.960938 11.933594 21.988281 C 11.859375 22.042969 11.785156 22.09375 11.710938 22.148438 C 11.675781 22.171875 11.644531 22.195312 11.609375 22.222656 C 11.578125 22.242188 11.550781 22.265625 11.519531 22.285156 C 11.425781 22.34375 11.425781 22.34375 11.171875 22.445312 C 11.171875 16.796875 11.171875 11.152344 11.171875 5.332031 C 12.46875 4.898438 12.46875 4.898438 12.878906 4.777344 C 13.109375 4.703125 13.339844 4.625 13.570312 4.546875 C 13.9375 4.425781 14.304688 4.308594 14.675781 4.203125 C 14.972656 4.117188 15.257812 4.015625 15.546875 3.90625 C 15.691406 3.859375 15.691406 3.859375 15.894531 3.859375 Z M 15.894531 3.859375 "/>
<path style=" stroke:none;fill-rule:nonzero;fill:rgb(0.784314%,0.784314%,0.784314%);fill-opacity:1;" d="M 16.453125 3.097656 C 16.582031 3.292969 16.566406 3.453125 16.5625 3.679688 C 16.5625 3.722656 16.5625 3.769531 16.5625 3.8125 C 16.5625 3.910156 16.5625 4.003906 16.5625 4.101562 C 16.5625 4.25 16.5625 4.402344 16.5625 4.554688 C 16.5625 4.984375 16.5625 5.414062 16.558594 5.84375 C 16.558594 6.109375 16.558594 6.371094 16.558594 6.636719 C 16.558594 6.734375 16.558594 6.835938 16.554688 6.9375 C 16.53125 7.472656 16.53125 7.472656 16.695312 7.96875 C 16.796875 8.070312 16.894531 8.148438 17.011719 8.226562 C 17.6875 9.035156 17.984375 10.027344 17.988281 11.066406 C 17.992188 11.140625 17.992188 11.140625 17.992188 11.214844 C 17.992188 11.441406 17.988281 11.628906 17.894531 11.839844 C 17.808594 12.046875 17.804688 12.226562 17.875 12.441406 C 17.949219 12.589844 18.039062 12.722656 18.136719 12.855469 C 18.1875 12.933594 18.238281 13.007812 18.289062 13.085938 C 18.3125 13.121094 18.335938 13.160156 18.363281 13.195312 C 18.867188 13.964844 18.867188 13.964844 18.789062 14.371094 C 18.667969 14.617188 18.519531 14.746094 18.28125 14.878906 C 18.246094 14.878906 18.214844 14.878906 18.179688 14.878906 C 18.179688 14.933594 18.183594 14.984375 18.183594 15.039062 C 18.183594 15.109375 18.183594 15.179688 18.1875 15.25 C 18.1875 15.285156 18.1875 15.320312 18.1875 15.355469 C 18.191406 15.546875 18.1875 15.628906 18.078125 15.792969 C 18.050781 15.945312 18.03125 16.097656 18.011719 16.25 C 17.972656 16.410156 17.910156 16.515625 17.824219 16.65625 C 17.832031 16.738281 17.84375 16.816406 17.855469 16.894531 C 17.90625 17.210938 17.953125 17.554688 17.816406 17.851562 C 17.574219 18.160156 17.222656 18.296875 16.839844 18.347656 C 16.730469 18.359375 16.617188 18.371094 16.503906 18.382812 C 16.503906 18.414062 16.507812 18.449219 16.507812 18.480469 C 16.511719 18.628906 16.515625 18.777344 16.519531 18.925781 C 16.523438 18.976562 16.523438 19.027344 16.527344 19.082031 C 16.53125 19.460938 16.53125 19.460938 16.402344 19.644531 C 16.324219 19.699219 16.324219 19.699219 16.25 19.753906 C 16.207031 19.785156 16.207031 19.785156 16.160156 19.820312 C 16.0625 19.894531 15.960938 19.964844 15.855469 20.035156 C 15.777344 20.089844 15.699219 20.144531 15.625 20.199219 C 15.582031 20.226562 15.542969 20.253906 15.503906 20.28125 C 15.324219 20.40625 15.144531 20.535156 14.964844 20.660156 C 14.644531 20.886719 14.324219 21.109375 14.007812 21.335938 C 13.71875 21.535156 13.429688 21.738281 13.144531 21.945312 C 12.816406 22.175781 12.492188 22.410156 12.164062 22.640625 C 12 22.753906 11.839844 22.871094 11.675781 22.988281 C 11.589844 23.050781 11.503906 23.109375 11.417969 23.171875 C 11.378906 23.203125 11.339844 23.230469 11.300781 23.261719 C 11.105469 23.398438 11.011719 23.460938 10.769531 23.464844 C 10.613281 23.410156 10.613281 23.410156 10.511719 23.257812 C 10.5 23.097656 10.5 23.097656 10.5 22.898438 C 10.5 22.863281 10.5 22.828125 10.5 22.789062 C 10.5 22.671875 10.5 22.550781 10.5 22.433594 C 10.503906 22.347656 10.503906 22.265625 10.503906 22.183594 C 10.503906 21.964844 10.503906 21.746094 10.503906 21.527344 C 10.503906 21.304688 10.507812 21.082031 10.507812 20.859375 C 10.507812 20.425781 10.507812 19.988281 10.511719 19.550781 C 10.464844 19.550781 10.414062 19.554688 10.367188 19.554688 C 10.1875 19.558594 10.007812 19.558594 9.828125 19.5625 C 9.75 19.5625 9.671875 19.5625 9.597656 19.566406 C 9.484375 19.570312 9.375 19.570312 9.261719 19.570312 C 9.195312 19.570312 9.128906 19.574219 9.058594 19.574219 C 8.886719 19.550781 8.886719 19.550781 8.761719 19.457031 C 8.683594 19.347656 8.683594 19.347656 8.683594 19.1875 C 8.746094 18.945312 8.824219 18.714844 8.914062 18.480469 C 9.207031 17.675781 9.207031 16.945312 8.851562 16.15625 C 8.753906 15.945312 8.644531 15.742188 8.53125 15.539062 C 8.484375 15.457031 8.441406 15.371094 8.394531 15.289062 C 8.132812 14.804688 8.132812 14.804688 7.855469 14.328125 C 7.136719 13.121094 6.816406 11.640625 7.136719 10.25 C 7.457031 9.042969 8.203125 7.953125 9.285156 7.308594 C 10.164062 6.804688 10.164062 6.804688 10.511719 6.804688 C 10.511719 6.722656 10.511719 6.722656 10.507812 6.640625 C 10.503906 6.4375 10.503906 6.238281 10.5 6.035156 C 10.5 5.949219 10.5 5.859375 10.496094 5.773438 C 10.492188 5.648438 10.492188 5.523438 10.492188 5.394531 C 10.492188 5.355469 10.488281 5.320312 10.488281 5.277344 C 10.488281 5.105469 10.496094 5 10.59375 4.855469 C 10.738281 4.757812 10.867188 4.710938 11.035156 4.660156 C 11.066406 4.652344 11.101562 4.640625 11.132812 4.632812 C 11.199219 4.609375 11.269531 4.589844 11.335938 4.570312 C 11.523438 4.515625 11.707031 4.457031 11.894531 4.402344 C 11.929688 4.390625 11.96875 4.378906 12.007812 4.367188 C 12.363281 4.261719 12.710938 4.144531 13.0625 4.023438 C 13.328125 3.933594 13.597656 3.847656 13.863281 3.757812 C 13.90625 3.742188 13.953125 3.726562 13.996094 3.714844 C 14.300781 3.613281 14.601562 3.515625 14.902344 3.417969 C 15.003906 3.382812 15.101562 3.351562 15.203125 3.316406 C 15.34375 3.269531 15.484375 3.226562 15.628906 3.179688 C 15.671875 3.164062 15.710938 3.152344 15.753906 3.136719 C 16.003906 3.058594 16.191406 3.023438 16.453125 3.097656 Z M 15.40625 3.953125 C 15.351562 3.972656 15.296875 3.992188 15.242188 4.011719 C 15.183594 4.03125 15.125 4.054688 15.0625 4.074219 C 14.65625 4.21875 14.253906 4.355469 13.835938 4.46875 C 13.609375 4.535156 13.386719 4.613281 13.160156 4.695312 C 12.777344 4.832031 12.386719 4.953125 11.992188 5.066406 C 11.71875 5.148438 11.445312 5.242188 11.171875 5.332031 C 11.171875 10.980469 11.171875 16.625 11.171875 22.445312 C 11.351562 22.375 11.460938 22.328125 11.609375 22.222656 C 11.644531 22.199219 11.675781 22.175781 11.710938 22.148438 C 11.746094 22.125 11.78125 22.097656 11.820312 22.070312 C 11.898438 22.015625 11.972656 21.960938 12.050781 21.90625 C 12.089844 21.875 12.128906 21.847656 12.171875 21.820312 C 12.355469 21.6875 12.539062 21.558594 12.71875 21.429688 C 12.792969 21.378906 12.863281 21.328125 12.9375 21.277344 C 13.082031 21.175781 13.222656 21.074219 13.367188 20.972656 C 13.421875 20.933594 13.421875 20.933594 13.476562 20.898438 C 13.546875 20.84375 13.621094 20.792969 13.691406 20.742188 C 13.871094 20.617188 14.050781 20.492188 14.226562 20.363281 C 14.28125 20.328125 14.28125 20.328125 14.335938 20.289062 C 14.40625 20.238281 14.476562 20.1875 14.546875 20.136719 C 14.742188 19.996094 14.9375 19.871094 15.148438 19.75 C 15.59375 19.519531 15.59375 19.519531 15.886719 19.132812 C 15.925781 18.875 15.894531 18.636719 15.84375 18.382812 C 15.40625 18.441406 15.148438 18.617188 14.839844 18.933594 C 14.722656 19.101562 14.644531 19.265625 14.570312 19.457031 C 14.523438 19.550781 14.523438 19.550781 14.421875 19.601562 C 14.269531 19.609375 14.269531 19.609375 14.117188 19.601562 C 14.015625 19.5 14.015625 19.5 13.992188 19.355469 C 14 18.984375 14.238281 18.601562 14.484375 18.339844 C 15.019531 17.855469 15.554688 17.761719 16.253906 17.75 C 16.769531 17.738281 16.769531 17.738281 17.214844 17.519531 C 17.21875 17.445312 17.222656 17.371094 17.222656 17.296875 C 17.222656 17.257812 17.222656 17.21875 17.222656 17.175781 C 17.21875 17.054688 17.21875 17.054688 17.164062 16.910156 C 17.140625 16.617188 17.160156 16.496094 17.324219 16.246094 C 17.394531 16.082031 17.351562 15.933594 17.316406 15.765625 C 17.316406 15.640625 17.316406 15.640625 17.417969 15.523438 C 17.570312 15.316406 17.527344 15.117188 17.507812 14.871094 C 17.496094 14.671875 17.507812 14.589844 17.632812 14.425781 C 17.808594 14.292969 17.921875 14.265625 18.128906 14.21875 C 18.050781 13.925781 17.898438 13.695312 17.730469 13.445312 C 17.082031 12.453125 17.082031 12.453125 17.164062 11.882812 C 17.1875 11.8125 17.210938 11.746094 17.242188 11.675781 C 17.492188 11 17.308594 10.152344 17.035156 9.507812 C 16.570312 8.523438 15.753906 7.839844 14.734375 7.472656 C 14.683594 7.453125 14.628906 7.433594 14.574219 7.414062 C 14.476562 7.375 14.378906 7.339844 14.28125 7.300781 C 14.222656 7.277344 14.222656 7.277344 14.160156 7.25 C 14.066406 7.210938 14.066406 7.210938 14.015625 7.160156 C 14.007812 7.023438 14.011719 6.890625 14.015625 6.753906 C 14.585938 6.601562 15.183594 6.941406 15.675781 7.203125 C 15.785156 7.269531 15.785156 7.269531 15.894531 7.261719 C 15.894531 6.140625 15.894531 5.015625 15.894531 3.859375 C 15.699219 3.859375 15.589844 3.886719 15.40625 3.953125 Z M 15.40625 3.953125 "/>
<path style=" stroke:none;fill-rule:nonzero;fill:rgb(7.45098%,7.843137%,8.235294%);fill-opacity:1;" d="M 8.683594 7.820312 C 8.683594 7.855469 8.683594 7.886719 8.683594 7.921875 C 8.648438 7.921875 8.617188 7.921875 8.582031 7.921875 C 8.566406 7.972656 8.546875 8.023438 8.53125 8.074219 C 8.496094 8.074219 8.464844 8.074219 8.429688 8.074219 C 8.414062 8.125 8.394531 8.175781 8.378906 8.226562 C 8.34375 8.191406 8.3125 8.160156 8.277344 8.125 C 8.324219 8.074219 8.375 8.023438 8.421875 7.972656 C 8.449219 7.945312 8.476562 7.917969 8.503906 7.886719 C 8.582031 7.820312 8.582031 7.820312 8.683594 7.820312 Z M 8.683594 7.820312 "/>
</g>
</svg>
