<?xml version="1.0" standalone="no"?>
<!DOCTYPE svg PUBLIC "-//W3C//DTD SVG 20010904//EN"
 "http://www.w3.org/TR/2001/REC-SVG-20010904/DTD/svg10.dtd">
<svg version="1.0" xmlns="http://www.w3.org/2000/svg"
 width="256.000000pt" height="256.000000pt" viewBox="0 0 256.000000 256.000000"
 preserveAspectRatio="xMidYMid meet">

<g transform="translate(0.000000,256.000000) scale(0.100000,-0.100000)"
fill="#000000" stroke="none">
<path d="M473 1893 l-93 -15 0 -593 0 -593 53 -12 c105 -22 280 -42 321 -36
l43 7 -24 47 c-19 37 -24 58 -20 99 l4 52 -66 3 -66 3 -3 222 -2 222 52 16
c70 21 106 19 158 -7 69 -36 85 -77 85 -221 l0 -117 38 0 c53 0 97 -21 134
-63 29 -33 33 -35 42 -19 39 75 41 313 2 415 -53 137 -162 216 -310 225 -54 3
-95 -1 -133 -12 -31 -9 -59 -16 -62 -16 -3 0 -6 92 -6 205 l0 205 -27 -1 c-16
-1 -70 -8 -120 -16z"/>
<path d="M1860 1415 c0 -88 1 -95 20 -95 19 0 20 7 20 95 0 88 -1 95 -20 95
-19 0 -20 -7 -20 -95z"/>
<path d="M862 900 c-35 -22 -62 -72 -62 -115 0 -123 155 -184 244 -96 28 29
31 37 31 96 0 59 -3 67 -32 97 -27 27 -41 32 -90 35 -46 3 -65 0 -91 -17z"/>
</g>
</svg>
