<?xml version="1.0" encoding="UTF-8"?>
<!DOCTYPE svg PUBLIC "-//W3C//DTD SVG 1.1//EN" "http://www.w3.org/Graphics/SVG/1.1/DTD/svg11.dtd">
<svg xmlns="http://www.w3.org/2000/svg" version="1.1" width="32px" height="32px" style="shape-rendering:geometricPrecision; text-rendering:geometricPrecision; image-rendering:optimizeQuality; fill-rule:evenodd; clip-rule:evenodd" xmlns:xlink="http://www.w3.org/1999/xlink">
<g><path style="opacity:0.832" fill="#ec1d23" d="M 12.5,0.5 C 16.8333,0.5 21.1667,0.5 25.5,0.5C 25.0074,2.80562 24.6741,5.13895 24.5,7.5C 22.5,7.5 20.5,7.5 18.5,7.5C 18.67,8.82207 18.3366,9.98873 17.5,11C 19.2556,11.2022 20.9223,11.7022 22.5,12.5C 21.6906,14.0709 21.3573,15.7376 21.5,17.5C 19.8333,17.5 18.1667,17.5 16.5,17.5C 16.1667,19.5 15.8333,21.5 15.5,23.5C 17.1667,23.5 18.8333,23.5 20.5,23.5C 20.6816,25.5914 20.3482,27.5914 19.5,29.5C 15.2172,30.4922 10.8839,30.8256 6.5,30.5C 8.18445,20.4301 10.1845,10.4301 12.5,0.5 Z"/></g>
<g><path style="opacity:0.554" fill="#ec1c23" d="M 6.5,6.5 C 7.09674,6.7352 7.43007,7.2352 7.5,8C 6.7113,9.62554 5.7113,11.1255 4.5,12.5C 5.5,13.8333 6.5,15.1667 7.5,16.5C 7,16.8333 6.5,17.1667 6,17.5C 4.33793,16.0033 2.83793,14.3366 1.5,12.5C 2.71967,10.0189 4.38634,8.01888 6.5,6.5 Z"/></g>
<g><path style="opacity:0.592" fill="#ec1c23" d="M 24.5,8.5 C 31.5496,10.9168 32.0496,14.2502 26,18.5C 25.5,18.1667 25,17.8333 24.5,17.5C 25.5,16.1667 26.5,14.8333 27.5,13.5C 26.0476,12.0603 25.0476,10.3936 24.5,8.5 Z"/></g>
</svg>
