<?xml version="1.0" encoding="UTF-8"?>
<svg id="svg11" xmlns="http://www.w3.org/2000/svg" xmlns:svg="http://www.w3.org/2000/svg" xmlns:sodipodi="http://sodipodi.sourceforge.net/DTD/sodipodi-0.dtd" xmlns:inkscape="http://www.inkscape.org/namespaces/inkscape" version="1.1" viewBox="0 0 32 32">
  <!-- Generator: Adobe Illustrator 29.1.0, SVG Export Plug-In . SVG Version: 2.1.0 Build 142)  -->
  <defs>
    <style>
      .st0 {
        fill: #050d24;
      }

      .st1, .st2 {
        fill: #fff;
      }

      .st2 {
        isolation: isolate;
        opacity: .6;
      }
    </style>
  </defs>
  <sodipodi:namedview id="namedview13" bordercolor="#000000" borderopacity="0.25" inkscape:current-layer="svg11" inkscape:cx="11.119001" inkscape:cy="90.307984" inkscape:deskcolor="#d1d1d1" inkscape:pagecheckerboard="0" inkscape:pageopacity="0.0" inkscape:showpageshadow="2" inkscape:window-height="847" inkscape:window-maximized="1" inkscape:window-width="1440" inkscape:window-x="0" inkscape:window-y="25" inkscape:zoom="1.8436908" pagecolor="#ffffff" showgrid="false" showguides="true"/>
  <g id="g763" inkscape:export-filename="../../Desktop/path9.png" inkscape:export-xdpi="768" inkscape:export-ydpi="768">
    <g id="g761" inkscape:export-filename="./g369.png" inkscape:export-xdpi="3733.2917" inkscape:export-ydpi="3733.2917">
      <rect id="rect757" class="st1" x="0" width="32" height="32" rx="5" ry="5"/>
      <g>
        <g id="ACIN">
          <path class="st1" d="M28,10.9c-.7-1.6-1.6-3-2.8-4.1-1.2-1.2-2.6-2.1-4.1-2.7-3.2-1.3-6.9-1.3-10.1,0-1.6.7-3,1.6-4.2,2.8-1.2,1.2-2.1,2.6-2.8,4.1-.7,1.6-1,3.3-1,5s0,.3,0,.5c0,0,0,.1,0,.2v.2h5.4v-.3c0-.2,0-.4,0-.6,0-1,.2-2,.6-3,.4-.9,1-1.7,1.6-2.4.7-.7,1.5-1.2,2.4-1.6,1.8-.8,4.1-.8,5.9,0,.9.4,1.8.9,2.4,1.6.7.7,1.2,1.5,1.6,2.4.4.9.6,1.9.6,3h0v13h5.4v-12.9h0c0-1.9-.3-3.6-1-5.2Z"/>
          <path id="Sombra" class="st2" d="M16,23.6c-1,0-2-.2-2.9-.6-.9-.4-1.7-1-2.4-1.6-.7-.7-1.2-1.5-1.6-2.4-.3-.7-.5-1.5-.6-2.3v-.5H3v.6c.1,1.6.4,3,1,4.4.7,1.6,1.6,3,2.8,4.1,1.2,1.2,2.6,2.1,4.1,2.8,1.6.7,3.3,1,5,1h.9v-5.4h-.9Z"/>
        </g>
        <g id="ACIN1" data-name="ACIN">
          <path class="st0" d="M28,10.9c-.7-1.6-1.6-3-2.8-4.1-1.2-1.2-2.6-2.1-4.1-2.7-3.2-1.3-6.9-1.3-10.1,0-1.6.7-3,1.6-4.2,2.8-1.2,1.2-2.1,2.6-2.8,4.1-.7,1.6-1,3.3-1,5s0,.3,0,.5c0,0,0,.1,0,.2v.2h5.4v-.3c0-.2,0-.4,0-.6,0-1,.2-2,.6-3,.4-.9,1-1.7,1.6-2.4.7-.7,1.5-1.2,2.4-1.6,1.8-.8,4.1-.8,5.9,0,.9.4,1.8.9,2.4,1.6.7.7,1.2,1.5,1.6,2.4.4.9.6,1.9.6,3h0v13h5.4v-12.9h0c0-1.9-.3-3.6-1-5.2Z"/>
          <path id="Sombra1" data-name="Sombra" class="st0" d="M16,23.6c-1,0-2-.2-2.9-.6-.9-.4-1.7-1-2.4-1.6-.7-.7-1.2-1.5-1.6-2.4-.3-.7-.5-1.5-.6-2.3v-.5H3v.6c.1,1.6.4,3,1,4.4.7,1.6,1.6,3,2.8,4.1,1.2,1.2,2.6,2.1,4.1,2.8,1.6.7,3.3,1,5,1h.9v-5.4h-.9Z"/>
          <path id="Sombra2" data-name="Sombra" class="st2" d="M16,23.6c-1,0-2-.2-2.9-.6-.9-.4-1.7-1-2.4-1.6-.7-.7-1.2-1.5-1.6-2.4-.3-.7-.5-1.5-.6-2.3v-.5H3v.6c.1,1.6.4,3,1,4.4.7,1.6,1.6,3,2.8,4.1,1.2,1.2,2.6,2.1,4.1,2.8,1.6.7,3.3,1,5,1h.9v-5.4h-.9Z"/>
        </g>
      </g>
    </g>
  </g>
</svg>