<?xml version="1.0" encoding="UTF-8"?>
<svg xmlns="http://www.w3.org/2000/svg" xmlns:xlink="http://www.w3.org/1999/xlink" width="150px" height="150px" viewBox="0 0 150 150" version="1.1">
<g id="surface1">
<path style=" stroke:none;fill-rule:nonzero;fill:rgb(100%,99.607843%,99.607843%);fill-opacity:1;" d="M 92.515625 150.667969 C 61.675781 150.667969 31.0625 150.667969 0.449219 150.667969 C 0.449219 100.667969 0.449219 50.667969 0.449219 0.667969 C 50.449219 0.667969 100.449219 0.667969 150.449219 0.667969 C 150.449219 50.667969 150.449219 100.667969 150.449219 150.667969 C 131.210938 150.667969 111.976562 150.667969 92.515625 150.667969 M 145.132812 124.453125 C 145.09375 118.785156 144.59375 118.058594 140.695312 117.945312 C 132.273438 117.707031 124.011719 115.820312 116.179688 111.246094 C 103.882812 104.0625 94.753906 90.695312 85.980469 76.054688 C 90.785156 69.457031 95.417969 62.835938 100.234375 56.527344 C 109.230469 44.761719 119.546875 37.460938 131.714844 36.589844 C 134.992188 36.355469 138.257812 35.75 141.53125 35.292969 C 144.40625 34.886719 145.113281 33.8125 145.128906 29.753906 C 145.148438 24.976562 145.101562 20.203125 145.140625 15.425781 C 145.167969 12.410156 144.152344 11.054688 142.210938 10.644531 C 134.34375 8.980469 126.742188 11.132812 119.292969 14.472656 C 103.441406 21.582031 90.582031 35.773438 78.976562 52.800781 C 77.777344 54.5625 76.558594 56.292969 75.046875 58.472656 C 74.519531 57.394531 74.214844 56.609375 73.808594 55.960938 C 66.351562 43.980469 57.855469 33.917969 48.417969 25.5625 C 36.730469 15.207031 24.011719 10.441406 10.488281 10.039062 C 7.199219 9.941406 5.605469 11.914062 5.59375 16.121094 C 5.582031 21.339844 5.632812 26.570312 5.890625 31.769531 C 5.945312 32.84375 6.929688 34.414062 7.664062 34.691406 C 9.234375 35.277344 10.921875 35.222656 12.5625 35.332031 C 20.058594 35.835938 27.382812 37.738281 34.402344 41.691406 C 46.019531 48.230469 54.257812 61.441406 62.847656 73.925781 C 64.175781 75.859375 63.851562 77.519531 62.601562 79.285156 C 58.597656 84.957031 54.746094 90.878906 50.640625 96.386719 C 43.9375 105.367188 36.242188 111.964844 27.351562 114.59375 C 21.378906 116.359375 15.238281 116.953125 9.160156 117.886719 C 6.128906 118.351562 5.789062 118.695312 5.761719 123.34375 C 5.742188 127.121094 5.757812 130.898438 5.664062 134.671875 C 5.496094 141.453125 6.269531 143.140625 10.945312 142.972656 C 15.613281 142.804688 20.347656 142.257812 24.90625 140.84375 C 38.59375 136.589844 50.757812 127.445312 61.414062 114.011719 C 66.246094 107.921875 70.925781 101.5625 75.191406 95.957031 C 81.152344 103.464844 86.785156 111.277344 92.90625 118.128906 C 106.929688 133.835938 122.542969 143.390625 140.433594 143.207031 C 143.488281 143.171875 145.050781 140.964844 145.082031 136.421875 C 145.109375 132.644531 145.117188 128.867188 145.132812 124.453125 Z M 145.132812 124.453125 "/>
<path style=" stroke:none;fill-rule:nonzero;fill:rgb(61.960784%,1.176471%,38.431373%);fill-opacity:1;" d="M 145.132812 124.773438 C 145.117188 128.867188 145.109375 132.644531 145.082031 136.421875 C 145.050781 140.964844 143.488281 143.171875 140.433594 143.207031 C 122.542969 143.390625 106.929688 133.835938 92.90625 118.128906 C 86.785156 111.277344 81.152344 103.464844 75.191406 95.957031 C 70.925781 101.5625 66.246094 107.921875 61.414062 114.011719 C 50.757812 127.445312 38.59375 136.589844 24.90625 140.84375 C 20.347656 142.257812 15.613281 142.804688 10.945312 142.972656 C 6.269531 143.140625 5.496094 141.453125 5.664062 134.671875 C 5.757812 130.898438 5.742188 127.121094 5.761719 123.34375 C 5.789062 118.695312 6.128906 118.351562 9.160156 117.886719 C 15.238281 116.953125 21.378906 116.359375 27.351562 114.59375 C 36.242188 111.964844 43.9375 105.367188 50.640625 96.386719 C 54.746094 90.878906 58.597656 84.957031 62.601562 79.285156 C 63.851562 77.519531 64.175781 75.859375 62.847656 73.925781 C 54.257812 61.441406 46.019531 48.230469 34.402344 41.691406 C 27.382812 37.738281 20.058594 35.835938 12.5625 35.332031 C 10.921875 35.222656 9.234375 35.277344 7.664062 34.691406 C 6.929688 34.414062 5.945312 32.84375 5.890625 31.769531 C 5.632812 26.570312 5.582031 21.339844 5.59375 16.121094 C 5.605469 11.914062 7.199219 9.941406 10.488281 10.039062 C 24.011719 10.441406 36.730469 15.207031 48.417969 25.5625 C 57.855469 33.917969 66.351562 43.980469 73.808594 55.960938 C 74.214844 56.609375 74.519531 57.394531 75.046875 58.472656 C 76.558594 56.292969 77.777344 54.5625 78.976562 52.800781 C 90.582031 35.773438 103.441406 21.582031 119.292969 14.472656 C 126.742188 11.132812 134.34375 8.980469 142.210938 10.644531 C 144.152344 11.054688 145.167969 12.410156 145.140625 15.425781 C 145.101562 20.203125 145.148438 24.976562 145.128906 29.753906 C 145.113281 33.8125 144.40625 34.886719 141.53125 35.292969 C 138.257812 35.75 134.992188 36.355469 131.714844 36.589844 C 119.546875 37.460938 109.230469 44.761719 100.234375 56.527344 C 95.417969 62.835938 90.785156 69.457031 85.980469 76.054688 C 94.753906 90.695312 103.882812 104.0625 116.179688 111.246094 C 124.011719 115.820312 132.273438 117.707031 140.695312 117.945312 C 144.59375 118.058594 145.09375 118.785156 145.132812 124.773438 Z M 145.132812 124.773438 "/>
</g>
</svg>
