<svg xmlns="http://www.w3.org/2000/svg"  viewBox="0 0 64 64" width="32px" height="32px" baseProfile="basic"><linearGradient id="TgRPuAHQxLTfoJbY81gZ9a" x1="37.07" x2="37.07" y1="-4.253" y2="60.362" gradientUnits="userSpaceOnUse"><stop offset="0" stop-color="#6dc7ff"/><stop offset="1" stop-color="#e6abff"/></linearGradient><path fill="url(#TgRPuAHQxLTfoJbY81gZ9a)" d="M53.08,17.76L25.31,0.74c-2.72-1.66-6.2,0.29-6.2,3.47v33.6c0,1.42,0.74,2.74,1.94,3.48 L48.83,58.3c2.71,1.67,6.2-0.29,6.2-3.47v-33.6C55.03,19.81,54.29,18.5,53.08,17.76z M45,47.02L27,36.44V14.2l18,10.59V47.02z"/><linearGradient id="TgRPuAHQxLTfoJbY81gZ9b" x1="30.96" x2="30.96" y1=".837" y2="65.452" gradientUnits="userSpaceOnUse"><stop offset="0" stop-color="#1a6dff"/><stop offset="1" stop-color="#c822ff"/></linearGradient><path fill="url(#TgRPuAHQxLTfoJbY81gZ9b)" d="M46.98,22.85L19.2,5.83 C16.49,4.17,13,6.12,13,9.3v33.6c0,1.42,0.74,2.74,1.94,3.48l27.78,17.01c2.71,1.67,6.2-0.29,6.2-3.47v-33.6 C48.92,24.9,48.18,23.59,46.98,22.85z M39.96,51.02l-18-10.58V18.2l18,10.59V51.02z"/></svg>